<svg width="254" height="188" viewBox="0 0 254 188" fill="none" xmlns="http://www.w3.org/2000/svg">
<path d="M70.7248 87.4381C70.4178 86.7444 69.9624 86.1204 69.389 85.6077C67.7173 83.9405 66.3865 82.0418 65.1114 80.1079C64.2393 78.728 63.629 77.21 63.3099 75.6268C63.0024 74.2365 62.7877 72.8249 62.6125 71.4134C62.3934 69.6938 62.4238 67.9557 62.7028 66.25C63.1965 63.2654 63.7504 60.2894 64.3277 57.3201C64.6878 55.4278 65.593 53.6788 66.9394 52.2742C69.2678 49.8322 72.0797 47.8691 75.2114 46.4991C76.7017 45.8393 78.2802 45.6849 79.8455 45.6165C81.0904 45.5589 82.385 45.6895 83.6489 45.7309C87.9578 45.8752 92.078 47.0976 96.3005 47.7036C97.6278 47.923 98.8752 48.4795 99.9152 49.3161C101.839 50.7665 103.775 52.2001 105.927 53.3316C106.272 53.5006 106.589 53.7193 106.868 53.9802C108.164 55.2807 109.894 56.0752 111.141 57.4408C111.586 57.9298 112.042 57.8076 112.248 57.1362C112.747 55.5249 113.813 54.196 114.492 52.675C114.876 51.8116 115.61 51.1551 116.391 50.6503C117.49 49.9231 118.659 49.2998 119.883 48.7888C122.635 47.6784 125.436 46.6772 128.224 45.6448C129.644 45.1088 131.122 44.7222 132.631 44.4917C134.833 44.1764 137.034 43.8321 139.223 43.445C140.676 43.1892 142.143 43.215 143.603 43.2515C145.127 43.29 146.646 43.4997 148.171 43.5742C149.95 43.6593 151.732 43.7447 153.512 43.7177C156.061 43.6816 158.609 43.918 161.111 44.4226C164.24 45.054 167.382 45.6256 170.536 46.1375C171.105 46.2065 171.655 46.3884 172.152 46.6717C172.648 46.9551 173.08 47.3338 173.421 47.7843C173.93 48.5015 174.57 49.1236 175.309 49.6197C175.922 49.2893 176.485 48.8805 176.984 48.404C179.371 46.2875 182.038 44.4864 184.916 43.0468C185.764 42.6281 186.58 42.1521 187.358 41.6221C189.03 40.5072 190.824 39.5708 192.707 38.8288C195.349 37.7722 197.98 36.6996 200.616 35.6347C201.673 35.2075 202.787 34.9204 203.926 34.781C206.07 34.5194 208.197 34.021 210.374 34.1616C212.719 34.3138 215.076 34.2366 217.409 34.709C220.476 35.3322 223.554 35.8924 226.645 36.3895C229.263 36.8182 231.648 37.8489 234.047 38.8822C235.811 39.6253 237.42 40.679 238.792 41.9893C239.134 42.2696 239.425 42.6033 239.652 42.9764C240.717 45.0487 241.547 47.2048 241.719 49.5156C242.012 53.3309 242.393 57.1548 242.236 60.9718C242.158 62.8671 242.144 64.7742 241.731 66.6659C241.111 69.5011 240.677 72.3748 240.143 75.2279C239.625 77.9979 238.144 80.2468 236.06 82.1232C235.591 82.5332 235.146 82.9688 234.729 83.4277C233.752 84.4756 232.715 85.4687 231.622 86.4024C228.872 88.8714 225.586 90.417 222.14 91.7209C221.252 92.0558 220.388 92.4477 219.519 92.8267C219.46 92.8486 219.409 92.8853 219.37 92.9332C219.331 92.981 219.306 93.0381 219.297 93.0988C219.288 93.1594 219.297 93.2214 219.321 93.2782C219.345 93.3351 219.385 93.3849 219.435 93.4225C221.449 94.7699 223.145 96.4654 224.914 98.0858C225.58 98.6737 226.111 99.3902 226.472 100.188C226.706 100.698 227.005 101.179 227.363 101.618C228.863 103.507 229.836 105.665 230.914 107.783C231.362 108.673 231.722 109.6 232.19 110.485C233.498 112.929 234.064 115.624 235.107 118.156C235.252 118.502 235.324 118.872 235.319 119.244C235.3 120.124 235.543 120.956 235.732 121.804C236.31 124.283 236.364 126.843 235.891 129.331C235.369 131.997 234.848 134.667 234.432 137.35C233.961 140.423 232.934 143.313 231.822 146.185C230.594 149.353 229.099 152.399 227.633 155.462C227.092 156.575 226.405 157.614 225.589 158.554C224.73 159.55 223.604 160.298 222.332 160.716C221.619 160.965 220.922 161.255 220.246 161.584C218.686 162.301 216.998 162.621 215.292 162.81C212.32 163.138 209.317 163.017 206.337 162.94C204.565 162.894 202.782 162.749 201 162.732C200.491 162.707 199.984 162.64 199.486 162.531C195.338 161.776 191.192 161.005 187.04 160.281C185.847 160.07 184.717 159.592 183.742 158.886C182.085 157.72 180.511 156.436 178.856 155.29C176.721 153.81 174.81 152.047 172.559 150.726C172.275 150.579 172.016 150.39 171.792 150.166C170.699 148.941 169.289 148.021 168.207 146.805C166.736 145.145 164.864 143.9 163.4 142.242C163.163 141.96 162.822 142.032 162.613 142.362C161.494 144.144 160.321 145.9 159.273 147.721C157.963 149.996 156.225 151.909 154.421 153.818C152.965 155.36 151.433 156.809 149.892 158.264C148.565 159.515 147.02 160.477 145.572 161.569C145.38 161.737 145.15 161.859 144.9 161.925C143.215 162.219 141.652 162.911 139.93 163.137C136.843 163.545 133.786 164.134 130.718 164.657C127.715 165.168 124.725 165.686 121.675 165.986C117.992 166.352 114.307 166.35 110.62 166.517C109.921 166.536 109.221 166.475 108.535 166.335C103.946 165.5 99.3557 164.679 94.7724 163.831C92.3594 163.43 90.1497 162.246 88.5077 160.474C87.7281 159.652 87.0067 158.779 86.3485 157.863C84.8704 155.757 83.0051 153.932 81.629 151.753C80.8631 150.535 80.0423 149.347 79.2652 148.137C79.0923 147.875 78.9645 147.588 78.8866 147.287C78.2934 144.876 77.8485 142.437 78.0646 139.96C78.1919 138.487 78.0139 136.996 78.3514 135.534C78.4404 135.14 78.2815 134.684 78.2232 134.258C78.2206 134.181 78.2012 134.106 78.1662 134.037C78.1312 133.967 78.0815 133.906 78.0204 133.857C77.9592 133.808 77.8881 133.771 77.8117 133.751C77.7353 133.73 77.6554 133.725 77.5774 133.737C75.2354 133.922 72.8954 134.109 70.5584 134.321C70.1768 134.349 69.8043 134.443 69.4587 134.599C67.6264 135.483 65.584 135.758 63.6593 136.377C61.5085 137.072 59.2081 137.326 56.8945 137.383C54.2874 137.45 51.6774 137.224 49.1168 136.71C45.6122 135.998 42.0817 135.415 38.563 134.768C37.6228 134.59 36.6688 134.497 35.7131 134.488C34.8181 134.479 33.9246 134.396 33.0424 134.241C29.771 133.672 26.509 133.052 23.2447 132.458C22.3096 132.264 21.3927 131.991 20.5043 131.644C18.0966 130.779 15.8224 129.642 13.5529 128.506C10.6786 127.1 8.22042 125 6.41837 122.412C5.74321 121.422 5.40287 120.256 5.4452 119.077C5.46646 117.164 5.66844 115.259 6.0486 113.386C6.66734 110.298 7.25542 107.202 7.73991 104.091C8.09483 101.788 9.02836 99.7237 10.0956 97.698C11.4551 95.1383 13.2883 92.987 15.9235 91.5569C16.2521 91.37 16.5575 91.1478 16.8341 90.8943C17.6393 90.2066 18.6118 89.727 19.6629 89.4995C22.7932 88.7132 25.958 88.0765 29.0956 87.3179C29.2203 87.2935 29.3428 87.26 29.462 87.2174C33.3534 85.6674 37.4383 85.2387 41.619 85.4504C43.2726 85.5341 44.9066 85.3731 46.5503 85.3356C49.4776 85.2667 52.4053 85.2187 55.3333 85.1913C55.9071 85.202 56.4791 85.2662 57.0415 85.3827C59.3692 85.792 61.6918 86.2289 64.0169 86.652C65.3337 86.8916 66.6456 87.1303 67.9967 87.0992C68.8036 87.0742 69.6302 87.2938 70.7248 87.4381Z" fill="#FFF258"/>
<path d="M219.586 138.417C220.22 139.267 221.099 139.77 221.97 140.269C223.064 140.892 224.291 141.172 225.5 141.462C226.189 141.627 226.9 141.511 227.596 141.438C228.1 141.385 228.603 141.323 229.107 141.271C231.155 141.063 232.936 140.276 234.421 138.858C234.618 138.671 234.813 138.48 235 138.283C235.929 137.307 235.924 137.309 235.095 136.21C234.721 135.716 234.358 135.213 234.005 134.701C233.381 133.796 232.939 132.816 232.836 131.711C232.653 129.745 232.549 127.781 232.936 125.825C233.181 124.588 233.716 123.482 234.469 122.477C235.036 121.721 235.751 121.27 236.752 121.31C237.725 121.35 238.704 121.31 239.679 121.335C240.55 121.359 241.297 121.713 241.742 122.458C242.034 122.947 242.272 123.495 242.348 124.077C242.403 124.499 242.488 124.918 242.513 125.341C242.597 126.805 242.683 128.269 242.726 129.735C242.787 131.835 242.149 133.765 241.191 135.609C240.601 136.743 240.386 136.572 241.565 137.409C242.635 138.169 243.775 138.468 245.078 138.328C245.852 138.242 246.618 138.094 247.368 137.884C248.532 137.566 249.706 137.281 250.886 137.007C251.808 136.793 252.749 136.893 253.684 136.918C253.851 136.922 253.99 137.023 253.993 137.202C254.002 137.896 254.002 138.59 253.993 139.285C253.993 139.458 253.858 139.557 253.698 139.597C253.207 139.721 252.711 139.828 252.221 139.956C251.204 140.221 250.196 140.524 249.171 140.758C247.989 141.026 246.78 141.109 245.568 141.114C244.595 141.119 243.616 141.114 242.64 141.114C241.282 141.119 240.005 140.862 238.901 140.019C238.666 139.839 238.485 139.91 238.308 140.121C237.984 140.507 237.66 140.895 237.308 141.254C235.811 142.782 233.989 143.607 231.859 143.9C229.268 144.249 226.648 144.351 224.037 144.206C221.401 144.067 219.022 143.141 217.091 141.266C216.952 141.13 216.815 140.992 216.667 140.868C216.608 140.816 216.534 140.786 216.455 140.782C216.377 140.777 216.299 140.799 216.235 140.844C215.836 141.086 215.433 141.323 215.047 141.585C214.208 142.156 213.302 142.607 212.397 143.061C211.45 143.536 210.468 143.88 209.396 143.956C207.563 144.086 205.733 144.15 203.915 143.834C202.953 143.666 202.034 143.338 201.122 142.994C200.544 142.776 200.49 142.79 200.128 143.245C198.775 144.948 197.328 146.566 195.717 148.037C195.488 148.246 195.258 148.455 195.019 148.653C194.748 148.881 194.402 149.004 194.046 148.998C193.222 148.998 192.406 149.006 191.587 148.991C191.114 148.983 191.016 148.893 191.009 148.462C190.996 147.69 190.997 146.917 191.013 146.144C191.02 145.816 191.193 145.671 191.527 145.633C191.565 145.626 191.604 145.623 191.643 145.627C192.608 145.802 193.226 145.285 193.864 144.659C194.92 143.622 195.867 142.494 196.85 141.396C197.294 140.899 197.278 140.86 196.803 140.34C196.384 139.881 195.952 139.435 195.525 138.983C194.063 137.423 192.862 135.642 191.968 133.707C191.515 132.719 191.278 131.648 191.274 130.564C191.261 129.749 191.274 128.94 191.274 128.129C191.264 126.022 191.929 124.105 192.965 122.299C193.254 121.796 193.592 121.321 193.909 120.834C194.188 120.413 194.533 120.038 194.93 119.723C195.293 119.432 195.731 119.247 196.195 119.188C197.945 118.92 199.704 119.001 201.454 119.057C202.641 119.095 203.719 119.614 204.664 120.337C205.294 120.81 205.71 121.51 205.822 122.284C206.126 124.114 206.246 125.97 206.18 127.824C206.122 129.639 205.867 131.442 205.42 133.204C204.853 135.378 204.13 137.499 202.875 139.398C202.615 139.791 202.66 139.907 203.093 140.084C203.991 140.455 204.922 140.747 205.85 141.047C206.881 141.377 207.856 141.274 208.807 140.84C209.693 140.436 210.581 140.03 211.427 139.55C212.373 139.012 213.275 138.397 214.186 137.8C214.57 137.549 214.589 137.478 214.375 137.04C213.384 135.014 213.102 132.865 213.046 130.633C212.971 127.402 214.079 124.587 215.816 121.944C216.241 121.296 216.653 120.643 217.233 120.108C217.682 119.693 218.165 119.451 218.805 119.485C219.505 119.523 220.21 119.501 220.912 119.493C221.385 119.479 221.848 119.625 222.226 119.907C223.723 121.029 224.78 122.388 224.709 124.372C224.664 125.644 224.8 126.923 224.569 128.188C224.187 130.282 223.671 132.342 222.832 134.306C222.511 135.058 222.053 135.745 221.481 136.333C220.839 136.998 220.234 137.702 219.586 138.417ZM203.426 126.951C203.351 126.358 203.276 125.783 203.218 125.208C203.104 124.037 202.484 123.198 201.49 122.608C201.19 122.428 200.877 122.27 200.553 122.137C198.95 121.485 197.939 121.738 196.853 123.092C196.515 123.514 196.254 123.996 195.949 124.441C195.103 125.669 194.584 127.027 194.218 128.461C194.041 129.096 194.081 129.772 194.332 130.382C195.443 133.111 197.142 135.442 199.263 137.484C199.426 137.641 199.603 137.624 199.751 137.427C200.622 136.275 201.262 135.002 201.782 133.662C202.467 131.897 202.948 130.061 203.217 128.189C203.274 127.77 203.357 127.354 203.426 126.951ZM215.867 130.636C215.897 130.865 215.906 131.06 215.949 131.247C216.174 132.228 216.454 133.2 216.89 134.105C217.408 135.178 217.439 135.331 218.312 134.275C218.411 134.155 218.517 134.041 218.626 133.93C219.54 132.996 220.123 131.886 220.564 130.664C221.053 129.313 221.312 127.909 221.721 126.542C221.97 125.7 221.771 125.028 221.328 124.367C221.065 123.984 220.774 123.62 220.459 123.277C219.986 122.752 219.806 122.759 219.352 123.284C219.301 123.343 219.252 123.403 219.202 123.465C217.73 125.421 216.649 127.637 216.017 129.994C215.961 130.216 215.914 130.443 215.867 130.636ZM238.024 133.894C238.339 133.33 238.623 132.911 238.821 132.454C239.499 130.852 240.208 129.249 239.767 127.435C239.722 127.25 239.755 127.047 239.72 126.858C239.587 126.129 239.346 125.428 238.907 124.832C238.402 124.15 237.945 124.148 237.388 124.788C236.395 125.929 235.829 127.274 235.554 128.741C235.452 129.283 235.57 129.807 235.764 130.329C236.248 131.616 237.059 132.691 238.024 133.892V133.894Z" fill="#FA8AA7"/>
<path d="M59.8551 54.6708C59.1026 55.3218 58.468 55.8289 57.8776 56.3848C56.2353 57.9314 54.5767 59.463 52.9897 61.065C51.4274 62.6422 49.9589 64.3125 48.4201 65.9132C47.7815 66.5771 47.0681 67.1675 46.3866 67.7892C46.2128 67.9473 45.9609 68.0495 45.9479 68.3242C45.9283 68.7252 45.7096 68.8372 45.3438 68.8255C44.797 68.8079 44.2489 68.8352 43.7028 68.8137C43.182 68.7929 43.0356 68.6367 43.0082 68.1348C42.9985 67.9643 42.9991 67.7931 43.0043 67.6219C43.0186 67.1792 42.923 66.6858 43.0889 66.3089C43.2354 65.9763 43.6793 65.7771 43.9859 65.5122C45.168 64.4771 46.2889 63.374 47.3428 62.2087C48.381 61.0741 49.4479 59.9656 50.5155 58.8583C50.9184 58.4411 51.3617 58.0609 51.7815 57.6625C52.3023 57.1698 52.8328 56.6861 53.3438 56.181C54.3202 55.2228 55.2738 54.2438 56.3322 53.3735C56.6974 53.0734 57.0261 52.7304 57.336 52.4401C57.3041 52.1146 57.0951 52.1374 56.9454 52.1146C56.6102 52.0543 56.271 52.0184 55.9306 52.0072C54.7335 51.9948 53.5345 51.9564 52.3407 52.0157C50.8071 52.0912 49.2813 52.2572 47.7913 52.6816C47.1352 52.8691 46.4771 53.0526 45.8138 53.2114C45.5046 53.285 45.323 53.4256 45.3164 53.755C45.3156 53.8918 45.3076 54.0285 45.2924 54.1644C45.2683 54.3656 45.1335 54.4606 44.9454 54.4638C44.3641 54.473 43.7815 54.4964 43.2022 54.4684C42.4979 54.4339 42.0247 53.9151 42.0032 53.2095C41.996 52.9706 42.0032 52.731 42.0032 52.4935C42.0032 51.1454 41.9153 51.3328 43.1625 50.982C44.6707 50.5576 46.1679 50.0707 47.734 49.8611C48.6193 49.742 49.5052 49.7172 50.3924 49.7107C52.273 49.6964 54.1542 49.7062 56.0348 49.7055C56.3082 49.7055 56.5822 49.7055 56.8556 49.6957C56.9519 49.6925 57.0632 49.6957 57.116 49.5766C57.1856 49.4145 57.0782 49.3202 56.9786 49.2349C56.5627 48.8801 56.165 48.498 55.7171 48.1882C54.1718 47.12 52.713 45.9301 51.0955 44.9654C50.4914 44.6054 49.9094 44.3008 49.183 44.3958C49.0125 44.4075 48.8413 44.4042 48.6714 44.3861C48.6026 44.3863 48.5347 44.3697 48.4739 44.3376C48.413 44.3054 48.361 44.2588 48.3225 44.2018C48.0308 43.7462 47.7249 43.312 47.7444 42.7086C47.8128 40.5957 47.4242 40.9634 49.5169 40.899C50.1007 40.8815 50.6775 41.0295 51.1807 41.326C52.4826 42.0752 53.7799 42.8355 55.0271 43.6694C56.219 44.4668 57.3445 45.3618 58.4999 46.2139C58.5593 46.2503 58.6218 46.2815 58.6867 46.307C58.9223 46.2419 58.8442 46.0349 58.8299 45.8949C58.6828 44.4687 58.5213 43.0445 58.3645 41.6196C58.3235 41.2466 58.2759 40.8742 58.2453 40.5006C58.2011 39.9538 58.1757 39.3849 57.9381 38.898C57.653 38.3122 57.6126 37.7263 57.6328 37.1066C57.6374 36.9361 57.6296 36.7649 57.6328 36.5937C57.653 36.0729 57.6979 36.0235 58.2427 36.0078C58.6867 35.9974 59.1326 36.0228 59.5758 36.0013C59.9911 35.9812 60.2086 36.1895 60.3225 36.5546C60.3726 36.7161 60.4455 36.8769 60.4637 37.0428C60.62 38.4664 60.7573 39.8926 60.9194 41.3156C61.183 43.655 61.459 45.9926 61.7318 48.3307C61.7467 48.4609 61.7428 48.6197 61.9166 48.6497C62.0631 48.6751 62.1685 48.5742 62.2694 48.483C62.8019 48.002 63.3532 47.5405 63.8616 47.0347C65.0333 45.8708 66.4159 44.9797 67.7178 43.9844C68.0706 43.7149 68.4338 43.4572 68.7827 43.1831C68.9689 43.0373 69.2156 42.9078 69.2533 42.6624C69.3243 42.2002 69.6549 41.9808 69.9817 41.727C70.4374 41.3716 70.8768 40.9882 71.3129 40.6061C71.5097 40.4149 71.7741 40.3092 72.0484 40.3118C72.6994 40.3236 73.3503 40.3118 73.9973 40.3242C74.3176 40.3314 74.399 40.4349 74.4257 40.7714C74.5559 42.4098 74.5337 42.4638 73.239 43.5496C73.0821 43.6798 72.9096 43.7996 72.7736 43.9499C71.5238 45.3319 69.9882 46.3649 68.4963 47.4468C67.4691 48.1921 66.5376 49.0428 65.6042 49.8943C65.5675 49.9274 65.5378 49.9675 65.5167 50.0122C65.4956 50.0569 65.4835 50.1053 65.4812 50.1546C65.4955 50.3213 65.653 50.3382 65.7884 50.3499C66.7407 50.4287 67.6833 50.5953 68.6453 50.5953C69.1882 50.5953 69.7311 50.6988 70.2727 50.7574C71.3578 50.8746 72.4423 51.0061 73.5274 51.105C74.1392 51.161 74.7557 51.1831 75.3702 51.187C77.0457 51.1975 78.7218 51.187 80.3974 51.1929C80.6694 51.1929 80.9572 51.1721 81.2097 51.2508C81.8086 51.4376 82.0234 51.5112 81.998 52.2435C81.9837 52.6536 81.998 53.0643 81.983 53.4738C81.9759 53.7185 81.8229 53.8539 81.5886 53.8468C80.7424 53.822 79.8838 53.9809 79.0499 53.6795C78.8026 53.5903 78.5109 53.6085 78.2389 53.6066C77.3158 53.5987 76.3915 53.5721 75.4691 53.6066C73.6882 53.6795 71.9202 53.4718 70.1477 53.3807C69.4681 53.3462 68.7918 53.2199 68.1194 53.1073C67.5533 53.0172 66.9793 52.9862 66.4068 53.0149C66.3039 53.242 66.4393 53.3677 66.5428 53.4946C67.4073 54.5537 68.2665 55.6166 69.1466 56.664C69.9368 57.6066 70.7609 58.5198 71.5466 59.463C72.2242 60.2793 72.9539 61.0468 73.679 61.8194C74.341 62.5257 75.1319 63.0653 75.9306 63.5893C76.7293 64.1133 77.4473 64.7486 78.1152 65.4367C78.2681 65.5942 78.3625 65.7569 78.356 65.9757C78.356 66.0102 78.356 66.0408 78.356 66.0785C78.3091 68.2858 78.7251 67.9298 76.5764 67.9617C76.1326 67.9742 75.6885 67.9596 75.2465 67.9181C74.8644 67.877 74.6945 67.711 74.7075 67.3107C74.7225 66.8336 74.5122 66.542 74.1464 66.3031C73.886 66.1358 73.6471 65.9438 73.3868 65.7823C72.0068 64.9192 70.8982 63.7644 69.8548 62.5348C67.619 59.9054 65.3852 57.275 63.1534 54.6435C62.9829 54.4424 62.8475 54.1879 62.5591 54.1345C62.3514 54.1996 62.4322 54.3493 62.4452 54.4717C62.6216 56.1348 62.7889 57.7979 62.9796 59.4591C63.1163 60.6458 63.2862 61.8279 63.4392 63.0126C63.5531 63.892 63.6436 64.7753 63.7796 65.6508C64.01 67.1324 64.0556 68.6451 64.4924 70.0928C64.9331 71.5568 64.8582 73.0663 64.8263 74.568C64.8191 74.8805 64.7104 74.9781 64.3707 74.9859C63.79 74.9996 63.2081 74.9892 62.6268 74.9924C62.354 74.9924 62.1711 74.8564 62.0702 74.6175C61.5189 73.3456 61.2058 72.0294 61.3542 70.6318C61.3646 70.5309 61.3594 70.3981 61.4193 70.3369C61.7923 69.9561 61.6556 69.5337 61.5886 69.0878C61.4069 67.8725 61.2696 66.6513 61.1101 65.4328C61.0047 64.6204 60.881 63.8106 60.7846 62.9976C60.6766 62.0824 60.5959 61.1646 60.4924 60.2487C60.2945 58.4606 60.0849 56.6653 59.8551 54.6708Z" fill="#FA8AA7"/>
<path d="M25.4375 67.3407C25.4375 67.1271 25.4375 66.9127 25.4375 66.6983C25.4414 66.2703 25.4329 65.8415 25.4544 65.4144C25.476 64.9741 26.0637 64.8566 26.0014 64.3465C25.9829 64.1945 26.1298 64.1255 26.2398 64.1058C26.4375 64.0702 26.6381 64.0576 26.8383 64.068C27.4329 64.1017 28.139 63.8216 28.5944 64.2019C29.0498 64.5822 29.0021 65.3634 29.1198 65.9795C29.3098 66.9727 29.7736 67.7456 30.4144 68.5022C31.6374 69.9455 33.0297 71.1399 34.5281 72.2168C35.0835 72.6152 35.6519 72.8181 36.325 72.7803C37.0442 72.7401 37.7673 72.7746 38.4888 72.7803C38.7688 72.7803 38.9434 72.9158 38.9503 73.2362C38.9549 73.536 38.9703 73.8367 38.9557 74.1349C38.9326 74.6015 39.1257 75.1543 38.8495 75.5116C38.5734 75.869 38.038 75.754 37.6119 75.8304C37.1857 75.9067 36.7527 75.9733 36.4035 76.3306C36.2088 76.5302 35.9288 76.651 35.6696 76.7602C34.4543 77.2745 33.4674 78.1468 32.492 79.0381C31.5997 79.8546 30.9236 80.8626 30.3197 81.928C29.9867 82.5161 29.8244 83.156 29.6844 83.8378C29.499 84.7514 29.3706 85.677 29.2998 86.6086C29.2805 86.855 29.1113 86.9914 28.8952 86.9947C28.2141 87.0045 27.5334 87.0007 26.8529 86.9832C26.7727 86.9793 26.6959 86.9475 26.6342 86.8926C26.5726 86.8377 26.5294 86.7628 26.5114 86.6792C26.2744 85.8635 25.9929 85.0495 26.1268 84.1763C26.2606 83.3031 25.9006 82.6977 25.2883 82.1966C24.0829 81.2067 22.8899 80.2013 21.6791 79.2197C21.5315 79.1005 21.3115 79.0603 21.1192 79.034C20.762 78.9846 20.4024 78.9572 20.0423 78.9519C19.5807 78.9469 19.2661 78.7941 19.2538 78.2306C19.2572 78.1445 19.2288 78.0605 19.1747 77.9966C19.1206 77.9327 19.0451 77.894 18.9646 77.8889C18.7669 77.8585 18.5692 77.8265 18.3738 77.7813C18.1631 77.7328 18.0015 77.6088 18 77.3574C18 76.6296 18 75.9018 18.0092 75.174C18.0062 75.0874 18.0346 75.003 18.0885 74.9382C18.1424 74.8735 18.2176 74.8335 18.2985 74.8265C19.4523 74.7099 20.5292 74.0872 21.7215 74.2614C22.0653 74.3107 22.3284 74.1546 22.5676 73.8876C23.4792 72.8633 24.2998 71.751 25.0191 70.5649C25.3792 69.9935 25.5443 69.3073 25.4868 68.6213C25.4568 68.1958 25.4814 67.7654 25.4814 67.3374L25.4375 67.3407Z" fill="#D3F44B"/>
</svg>
