<svg xmlns="http://www.w3.org/2000/svg" width="60" height="37" viewBox="0 0 60 37" fill="none">
  <path d="M28.354 36.2665C25.0858 36.259 21.8229 36.3243 18.5686 35.8999C15.3143 35.4754 12.2556 34.7269 9.61405 33.2213C8.8299 32.7742 7.98863 32.3774 7.19064 31.9353C3.86364 30.073 1.42982 27.7561 0.337553 24.7661C0.272166 24.6447 0.226294 24.5183 0.200818 24.3893C0.115998 21.6266 -0.256177 18.8639 0.451806 16.1125C0.585093 15.5938 0.820501 15.089 0.939941 14.5704C1.88161 10.4489 5.28305 7.57942 9.88061 5.32654C12.0842 4.24657 14.5284 3.5584 17.0695 3.00209C19.1467 2.54624 21.1304 1.87188 23.3444 1.76137C23.8637 1.735 24.383 1.51022 24.8383 1.30552C26.1261 0.714049 27.5282 0.570888 29.0152 0.589725C31.288 0.618608 33.5626 0.609818 35.8371 0.589725C38.1705 0.574656 40.3101 0.946368 42.2522 1.95602C43.3016 2.47838 44.4265 2.9159 45.6069 3.26078C47.4591 3.83467 49.1295 4.63586 50.8363 5.38305C52.1692 5.96699 53.1541 6.84981 53.9262 7.84564C54.5926 8.70711 55.2642 9.56983 56.0207 10.3886C56.6404 11.0617 56.9779 11.8089 57.3241 12.5548C57.6997 13.3661 57.9802 14.1987 58.5566 14.9571C58.8704 15.3631 59.0277 15.823 59.0119 16.2883C58.9184 18.7873 59.2819 21.2926 58.6034 23.7853C58.3697 24.648 58.0391 25.4568 57.4401 26.1889C55.9463 28.016 54.1287 29.6197 51.6378 30.8353C48.0806 32.5645 44.5008 34.2259 40.4485 35.3084C38.3221 35.8929 36.0761 36.2159 33.8032 36.264C31.9925 36.2891 30.1733 36.2665 28.354 36.2665Z" fill="#FFF258"/>
</svg>