<svg width="16" height="13" viewBox="0 0 16 13" fill="none" xmlns="http://www.w3.org/2000/svg">
<mask id="path-1-inside-1_28_13039" fill="white">
<path d="M8.15817 2.46683C8.36848 2.18693 8.55361 1.92196 8.75875 1.67112C9.3236 0.980158 10.0118 0.435497 10.8898 0.121091C11.1067 0.0403297 11.338 -0.000770131 11.5714 1.09265e-05C12.0921 0.00566135 12.6128 -0.00119998 13.1335 0.00243244C13.9362 0.00828467 14.4989 0.355987 14.8267 1.04574C15.0239 1.46064 15.1307 1.88867 15.1204 2.34474C15.1109 2.76287 15.1012 3.18221 15.1221 3.59973C15.16 4.35568 15.0104 5.08438 14.774 5.79815C14.4345 6.8227 14.0535 7.83312 13.5173 8.78642C12.8931 9.89633 12.0389 10.8147 10.9682 11.5652C10.2339 12.0802 9.44307 12.4973 8.60376 12.8384C8.34184 12.9479 8.05771 13.003 7.77092 12.9998C7.19689 12.9919 6.62286 12.9919 6.04883 12.9998C5.56514 13.0057 5.13376 12.8644 4.72799 12.6305C4.29747 12.3821 3.97178 12.031 3.63748 11.6833C2.9573 10.9741 2.34179 10.2126 1.79743 9.40696C1.20073 8.5267 0.661282 7.61335 0.312129 6.61525C0.196749 6.2849 0.122914 5.94587 0.128295 5.59252C0.137121 5.00487 0.138413 4.41683 0.128295 3.82938C0.121192 3.41448 0.218276 3.01693 0.356259 2.6325C0.493941 2.2511 0.762315 1.92309 1.11957 1.69958C1.81379 1.25562 2.55795 0.940201 3.42287 0.957355C3.98534 0.968454 4.54825 0.942421 5.11094 0.973498C6.35816 1.04251 7.36731 1.53451 8.15817 2.46683Z"/>
</mask>
<path d="M8.15817 2.46683C8.36848 2.18693 8.55361 1.92196 8.75875 1.67112C9.3236 0.980158 10.0118 0.435497 10.8898 0.121091C11.1067 0.0403297 11.338 -0.000770131 11.5714 1.09265e-05C12.0921 0.00566135 12.6128 -0.00119998 13.1335 0.00243244C13.9362 0.00828467 14.4989 0.355987 14.8267 1.04574C15.0239 1.46064 15.1307 1.88867 15.1204 2.34474C15.1109 2.76287 15.1012 3.18221 15.1221 3.59973C15.16 4.35568 15.0104 5.08438 14.774 5.79815C14.4345 6.8227 14.0535 7.83312 13.5173 8.78642C12.8931 9.89633 12.0389 10.8147 10.9682 11.5652C10.2339 12.0802 9.44307 12.4973 8.60376 12.8384C8.34184 12.9479 8.05771 13.003 7.77092 12.9998C7.19689 12.9919 6.62286 12.9919 6.04883 12.9998C5.56514 13.0057 5.13376 12.8644 4.72799 12.6305C4.29747 12.3821 3.97178 12.031 3.63748 11.6833C2.9573 10.9741 2.34179 10.2126 1.79743 9.40696C1.20073 8.5267 0.661282 7.61335 0.312129 6.61525C0.196749 6.2849 0.122914 5.94587 0.128295 5.59252C0.137121 5.00487 0.138413 4.41683 0.128295 3.82938C0.121192 3.41448 0.218276 3.01693 0.356259 2.6325C0.493941 2.2511 0.762315 1.92309 1.11957 1.69958C1.81379 1.25562 2.55795 0.940201 3.42287 0.957355C3.98534 0.968454 4.54825 0.942421 5.11094 0.973498C6.35816 1.04251 7.36731 1.53451 8.15817 2.46683Z" stroke="#FA8AA7" stroke-width="3" mask="url(#path-1-inside-1_28_13039)"/>
</svg>
