<svg width="15" height="14" viewBox="0 0 15 14" fill="none" xmlns="http://www.w3.org/2000/svg">
<path d="M8.06576 3.91675L7.45831 3.20065C6.8049 2.43037 5.99002 2.02904 4.94165 1.97101L8.06576 3.91675ZM8.06576 3.91675L8.62985 3.16601M8.06576 3.91675L8.62985 3.16601M8.62985 3.16601C8.7081 3.06186 8.77787 2.96692 8.84338 2.87777C8.9717 2.70314 9.08373 2.55068 9.21139 2.39459L9.21149 2.39446M8.62985 3.16601L9.21149 2.39446M9.21149 2.39446C9.70679 1.78858 10.2877 1.33618 11.0147 1.07585L11.0148 1.0759M9.21149 2.39446L11.0148 1.0759M11.0148 1.0759L11.0237 1.07259M11.0148 1.0759L11.0237 1.07259M11.0237 1.07259C11.1545 1.02386 11.2954 0.998472 11.4385 0.998658M11.0237 1.07259L11.4385 0.998658M14.2451 3.88593L14.2451 3.88585C14.223 3.44347 14.2329 3.00354 14.2422 2.59577L14.2426 2.57641C14.2499 2.25456 14.1763 1.94214 14.0214 1.61636L14.2451 3.88593ZM14.2451 3.88593C14.2768 4.51823 14.153 5.14998 13.9341 5.81105C13.5999 6.81973 13.2367 7.77669 12.7357 8.66739L12.7357 8.66741M14.2451 3.88593L12.7357 8.66741M12.7357 8.66741C12.1705 9.67235 11.3955 10.5088 10.4098 11.1997L10.4096 11.1999M12.7357 8.66741L10.4096 11.1999M10.4096 11.1999C9.72718 11.6785 8.98721 12.0697 8.1935 12.3922L8.19348 12.3922M10.4096 11.1999L8.19348 12.3922M8.19348 12.3922L8.18644 12.3951M8.19348 12.3922L8.18644 12.3951M8.18644 12.3951C8.01975 12.4648 7.83702 12.5006 7.65132 12.4985M8.18644 12.3951L7.65132 12.4985M2.29031 9.23479L2.29095 9.23573C2.81115 10.0057 3.39972 10.7339 4.05064 11.4126C4.05071 11.4127 4.05077 11.4127 4.05084 11.4128L4.07676 11.4398C4.41748 11.7942 4.66271 12.0494 4.9746 12.2294C5.29015 12.4113 5.58994 12.5023 5.91118 12.4985C5.9114 12.4985 5.91161 12.4985 5.91183 12.4985L5.9209 13.2485L2.29031 9.23479ZM2.29031 9.23479C1.70833 8.37626 1.21014 7.52518 0.892255 6.6166L2.29031 9.23479ZM0.750281 5.85244L0.750279 5.8526C0.74662 6.09283 0.796284 6.34174 0.892134 6.61626L0.750281 5.85244ZM0.750281 5.85244C0.759202 5.2585 0.760538 4.66224 0.750256 4.0652L0.750281 5.85244ZM1.38945 2.58408L1.38943 2.58405C1.16867 2.72217 1.01236 2.91852 0.933981 3.13524C0.812663 3.4734 0.745303 3.77521 0.750255 4.06513L1.38945 2.58408ZM1.38945 2.58408L1.39572 2.58008M1.38945 2.58408L1.39572 2.58008M1.39572 2.58008C2.02249 2.17925 2.6194 1.94276 3.28006 1.95586L3.28014 1.95587M1.39572 2.58008L3.28014 1.95587M3.28014 1.95587C3.54746 1.96114 3.78221 1.95932 4.00544 1.95758M3.28014 1.95587L4.00544 1.95758M11.4385 0.998658C11.7136 1.00161 12.0138 1.00104 12.3077 1.00048C12.5484 1.00002 12.7849 0.99957 13.0001 1.00107L11.4385 0.998658ZM13.6366 1.15468C13.4938 1.06664 13.2934 1.00324 13.0003 1.00107L13.6366 1.15468ZM13.6366 1.15468C13.7773 1.24141 13.9097 1.38133 14.0214 1.61633L13.6366 1.15468ZM7.65132 12.4985L7.64299 13.2485L7.65132 12.4985ZM4.00544 1.95758C4.32067 1.95513 4.61295 1.95286 4.94157 1.97101L4.00544 1.95758Z" fill="#FA8AA7" stroke="#FA8AA7" stroke-width="1.5"/>
</svg>
