

<svg width="16" height="13" viewBox="0 0 16 13" fill="none" xmlns="http://www.w3.org/2000/svg">
<path d="M8.19369 3.66809L7.58624 2.95199C6.93283 2.18172 6.11795 1.78039 5.06958 1.72236L8.19369 3.66809ZM8.19369 3.66809L8.75778 2.91736M8.19369 3.66809L8.75778 2.91736M8.75778 2.91736C8.83603 2.8132 8.9058 2.71827 8.97131 2.62911C9.09963 2.45448 9.21166 2.30203 9.33932 2.14593L9.33942 2.14581M8.75778 2.91736L9.33942 2.14581M9.33942 2.14581C9.83472 1.53992 10.4156 1.08753 11.1427 0.82719L11.1427 0.827246M9.33942 2.14581L11.1427 0.827246M11.1427 0.827246L11.1516 0.823929M11.1427 0.827246L11.1516 0.823929M11.1516 0.823929C11.2824 0.7752 11.4233 0.749815 11.5664 0.750001M11.1516 0.823929L11.5664 0.750001M14.373 3.63727L14.373 3.6372C14.3509 3.19481 14.3609 2.75489 14.3701 2.34712L14.3706 2.32775C14.3778 2.00591 14.3042 1.69348 14.1494 1.3677L14.373 3.63727ZM14.373 3.63727C14.4047 4.26957 14.2809 4.90133 14.062 5.56239C13.7278 6.57107 13.3646 7.52804 12.8636 8.41874L12.8636 8.41876M14.373 3.63727L12.8636 8.41876M12.8636 8.41876C12.2984 9.42369 11.5235 10.2601 10.5377 10.9511L10.5375 10.9512M12.8636 8.41876L10.5375 10.9512M10.5375 10.9512C9.85511 11.4298 9.11514 11.821 8.32143 12.1436L8.32141 12.1435M10.5375 10.9512L8.32141 12.1435M8.32141 12.1435L8.31437 12.1465M8.32141 12.1435L8.31437 12.1465M8.31437 12.1465C8.14768 12.2162 7.96495 12.2519 7.77924 12.2499M8.31437 12.1465L7.77924 12.2499M2.41824 8.98613L2.41888 8.98707C2.93908 9.757 3.52765 10.4852 4.17857 11.1639C4.17864 11.164 4.1787 11.1641 4.17877 11.1641L4.20469 11.1911C4.54541 11.5456 4.79064 11.8007 5.10253 11.9807C5.41808 12.1626 5.71787 12.2536 6.03911 12.2499C6.03933 12.2499 6.03954 12.2499 6.03976 12.2499L6.04883 12.9998L2.41824 8.98613ZM2.41824 8.98613C1.83626 8.1276 1.33807 7.27652 1.02018 6.36795L2.41824 8.98613ZM0.878211 5.60378L0.878209 5.60394C0.87455 5.84417 0.924214 6.09308 1.02006 6.3676L0.878211 5.60378ZM0.878211 5.60378C0.887131 5.00984 0.888467 4.41359 0.878186 3.81654L0.878211 5.60378ZM1.51738 2.33543L1.51736 2.33539C1.2966 2.47351 1.14029 2.66987 1.06191 2.88658C0.940592 3.22474 0.873233 3.52655 0.878184 3.81647L1.51738 2.33543ZM1.51738 2.33543L1.52365 2.33142M1.51738 2.33543L1.52365 2.33142M1.52365 2.33142C2.15042 1.93059 2.74733 1.6941 3.40799 1.70721L3.40807 1.70721M1.52365 2.33142L3.40807 1.70721M3.40807 1.70721C3.67539 1.71248 3.91014 1.71066 4.13337 1.70893M3.40807 1.70721L4.13337 1.70893M11.5664 0.750001C11.8416 0.752958 12.1417 0.752385 12.4357 0.751824C12.6763 0.751364 12.9128 0.750913 13.128 0.752412L11.5664 0.750001ZM13.7646 0.906021C13.6218 0.817981 13.4213 0.754584 13.1283 0.752414L13.7646 0.906021ZM13.7646 0.906021C13.9052 0.992749 14.0376 1.13267 14.1493 1.36767L13.7646 0.906021ZM7.77924 12.2499L7.77092 12.9998L7.77924 12.2499ZM4.13337 1.70893C4.4486 1.70648 4.74087 1.70421 5.0695 1.72235L4.13337 1.70893Z" stroke="#FA8AA7" stroke-width="1.5"/>

<svg width="22" height="18" viewBox="0 0 22 18" fill="none" xmlns="http://www.w3.org/2000/svg">
<path id="Vector" d="M11.6695 4.61687L11.062 3.90077C10.1044 2.77191 8.90141 2.18135 7.37333 2.09678L11.6695 4.61687ZM11.6695 4.61687L12.2335 3.86613M11.6695 4.61687L12.2335 3.86613M12.2335 3.86613C12.3374 3.72788 12.432 3.59918 12.522 3.47676C12.7026 3.23097 12.8647 3.01046 13.0461 2.78867L13.0462 2.78855M12.2335 3.86613L13.0462 2.78855M13.0462 2.78855C13.7587 1.9169 14.6043 1.25503 15.6691 0.873763L15.6691 0.87382M13.0462 2.78855L15.6691 0.87382M15.6691 0.87382L15.678 0.870503M15.6691 0.87382L15.678 0.870503M15.678 0.870503C15.8922 0.790726 16.122 0.749532 16.3548 0.750004M15.678 0.870503L16.3548 0.750004M20.5272 5.02179L20.5272 5.02171C20.4971 4.41976 20.5107 3.8196 20.5236 3.25227L20.5241 3.22957C20.5353 2.73232 20.4206 2.25527 20.19 1.76991C20.0152 1.40225 19.7971 1.16256 19.548 1.00895C19.2968 0.854041 18.965 0.756645 18.5176 0.75335L20.5272 5.02179ZM20.5272 5.02179C20.5735 5.94483 20.3921 6.85686 20.0823 7.79245C19.6176 9.19519 19.1078 10.5408 18.4006 11.7981L18.4006 11.7981M20.5272 5.02179L18.4006 11.7981M18.4006 11.7981C17.5953 13.23 16.4918 14.4196 15.0942 15.3992L15.0941 15.3994M18.4006 11.7981L15.0941 15.3994M15.0941 15.3994C14.1292 16.0761 13.0851 16.6277 11.9686 17.0814L11.9686 17.0814M15.0941 15.3994L11.9686 17.0814M11.9686 17.0814L11.9615 17.0843M11.9686 17.0814L11.9615 17.0843M11.9615 17.0843C11.6942 17.1961 11.4024 17.253 11.1066 17.2498C10.3057 17.2387 9.50475 17.2388 8.70382 17.2498C8.19656 17.2559 7.73088 17.1106 7.25929 16.8388C6.79112 16.5687 6.42568 16.1883 5.96698 15.711C5.95005 15.6933 5.93299 15.6756 5.9158 15.6577C5.00319 14.7062 4.17783 13.685 3.4482 12.6051L3.44756 12.6042M11.9615 17.0843L3.44756 12.6042M3.44756 12.6042C2.63608 11.4071 1.93041 10.2047 1.47824 8.91227C1.33793 8.51056 1.25983 8.13115 1.26556 7.75491L1.26556 7.75475M3.44756 12.6042L1.26556 7.75475M1.26556 7.75475C1.27787 6.93479 1.27971 6.11237 1.26553 5.28939L1.26556 7.75475ZM2.28599 2.98911L2.28597 2.98908C1.92779 3.21317 1.66827 3.53568 1.53694 3.89908C1.36254 4.38512 1.25785 4.83983 1.26553 5.28931L2.28599 2.98911ZM2.28599 2.98911L2.29225 2.9851M2.28599 2.98911L2.29225 2.9851M2.29225 2.9851C3.18603 2.41352 4.06916 2.05572 5.06248 2.07542L5.06256 2.07542M2.29225 2.9851L5.06256 2.07542M5.06256 2.07542C5.41477 2.08237 5.73531 2.08002 6.04438 2.07776M5.06256 2.07542L6.04438 2.07776M16.3548 0.750004C16.7389 0.754144 17.1478 0.753329 17.5507 0.752526C17.8829 0.751865 18.2108 0.751211 18.5174 0.753348L16.3548 0.750004ZM6.04438 2.07776C6.49096 2.07449 6.9136 2.07139 7.37325 2.09678L6.04438 2.07776Z" fill="#FA8AA7" stroke="#FA8AA7" stroke-width="1.5"/>
 6fa8d7af6bb4318eabb01e165c1acc624650ff2b
</svg>

