<svg width="22" height="18" viewBox="0 0 22 18" fill="none" xmlns="http://www.w3.org/2000/svg">
<path id="Vector" d="M11.6695 4.61687L11.062 3.90077C10.1044 2.77191 8.90141 2.18135 7.37333 2.09678L11.6695 4.61687ZM11.6695 4.61687L12.2335 3.86613M11.6695 4.61687L12.2335 3.86613M12.2335 3.86613C12.3374 3.72788 12.432 3.59918 12.522 3.47676C12.7026 3.23097 12.8647 3.01046 13.0461 2.78867L13.0462 2.78855M12.2335 3.86613L13.0462 2.78855M13.0462 2.78855C13.7587 1.9169 14.6043 1.25503 15.6691 0.873763L15.6691 0.87382M13.0462 2.78855L15.6691 0.87382M15.6691 0.87382L15.678 0.870503M15.6691 0.87382L15.678 0.870503M15.678 0.870503C15.8922 0.790726 16.122 0.749532 16.3548 0.750004M15.678 0.870503L16.3548 0.750004M20.5272 5.02179L20.5272 5.02171C20.4971 4.41976 20.5107 3.8196 20.5236 3.25227L20.5241 3.22957C20.5353 2.73232 20.4206 2.25527 20.19 1.76991C20.0152 1.40225 19.7971 1.16256 19.548 1.00895C19.2968 0.854041 18.965 0.756645 18.5176 0.75335L20.5272 5.02179ZM20.5272 5.02179C20.5735 5.94483 20.3921 6.85686 20.0823 7.79245C19.6176 9.19519 19.1078 10.5408 18.4006 11.7981L18.4006 11.7981M20.5272 5.02179L18.4006 11.7981M18.4006 11.7981C17.5953 13.23 16.4918 14.4196 15.0942 15.3992L15.0941 15.3994M18.4006 11.7981L15.0941 15.3994M15.0941 15.3994C14.1292 16.0761 13.0851 16.6277 11.9686 17.0814L11.9686 17.0814M15.0941 15.3994L11.9686 17.0814M11.9686 17.0814L11.9615 17.0843M11.9686 17.0814L11.9615 17.0843M11.9615 17.0843C11.6942 17.1961 11.4024 17.253 11.1066 17.2498C10.3057 17.2387 9.50475 17.2388 8.70382 17.2498C8.19656 17.2559 7.73088 17.1106 7.25929 16.8388C6.79112 16.5687 6.42568 16.1883 5.96698 15.711C5.95005 15.6933 5.93299 15.6756 5.9158 15.6577C5.00319 14.7062 4.17783 13.685 3.4482 12.6051L3.44756 12.6042M11.9615 17.0843L3.44756 12.6042M3.44756 12.6042C2.63608 11.4071 1.93041 10.2047 1.47824 8.91227C1.33793 8.51056 1.25983 8.13115 1.26556 7.75491L1.26556 7.75475M3.44756 12.6042L1.26556 7.75475M1.26556 7.75475C1.27787 6.93479 1.27971 6.11237 1.26553 5.28939L1.26556 7.75475ZM2.28599 2.98911L2.28597 2.98908C1.92779 3.21317 1.66827 3.53568 1.53694 3.89908C1.36254 4.38512 1.25785 4.83983 1.26553 5.28931L2.28599 2.98911ZM2.28599 2.98911L2.29225 2.9851M2.28599 2.98911L2.29225 2.9851M2.29225 2.9851C3.18603 2.41352 4.06916 2.05572 5.06248 2.07542L5.06256 2.07542M2.29225 2.9851L5.06256 2.07542M5.06256 2.07542C5.41477 2.08237 5.73531 2.08002 6.04438 2.07776M5.06256 2.07542L6.04438 2.07776M16.3548 0.750004C16.7389 0.754144 17.1478 0.753329 17.5507 0.752526C17.8829 0.751865 18.2108 0.751211 18.5174 0.753348L16.3548 0.750004ZM6.04438 2.07776C6.49096 2.07449 6.9136 2.07139 7.37325 2.09678L6.04438 2.07776Z" fill="#FA8AA7" stroke="#FA8AA7" stroke-width="1.5"/>
</svg>
