<svg width="16" height="13" viewBox="0 0 16 13" fill="none" xmlns="http://www.w3.org/2000/svg">
<path d="M8.19369 3.66809L7.58624 2.95199C6.93283 2.18172 6.11795 1.78039 5.06958 1.72236L8.19369 3.66809ZM8.19369 3.66809L8.75778 2.91736M8.19369 3.66809L8.75778 2.91736M8.75778 2.91736C8.83603 2.8132 8.9058 2.71827 8.97131 2.62911C9.09963 2.45448 9.21166 2.30203 9.33932 2.14593L9.33942 2.14581M8.75778 2.91736L9.33942 2.14581M9.33942 2.14581C9.83472 1.53992 10.4156 1.08753 11.1427 0.82719L11.1427 0.827246M9.33942 2.14581L11.1427 0.827246M11.1427 0.827246L11.1516 0.823929M11.1427 0.827246L11.1516 0.823929M11.1516 0.823929C11.2824 0.7752 11.4233 0.749815 11.5664 0.750001M11.1516 0.823929L11.5664 0.750001M14.373 3.63727L14.373 3.6372C14.3509 3.19481 14.3609 2.75489 14.3701 2.34712L14.3706 2.32775C14.3778 2.00591 14.3042 1.69348 14.1494 1.3677L14.373 3.63727ZM14.373 3.63727C14.4047 4.26957 14.2809 4.90133 14.062 5.56239C13.7278 6.57107 13.3646 7.52804 12.8636 8.41874L12.8636 8.41876M14.373 3.63727L12.8636 8.41876M12.8636 8.41876C12.2984 9.42369 11.5235 10.2601 10.5377 10.9511L10.5375 10.9512M12.8636 8.41876L10.5375 10.9512M10.5375 10.9512C9.85511 11.4298 9.11514 11.821 8.32143 12.1436L8.32141 12.1435M10.5375 10.9512L8.32141 12.1435M8.32141 12.1435L8.31437 12.1465M8.32141 12.1435L8.31437 12.1465M8.31437 12.1465C8.14768 12.2162 7.96495 12.2519 7.77924 12.2499M8.31437 12.1465L7.77924 12.2499M2.41824 8.98613L2.41888 8.98707C2.93908 9.757 3.52765 10.4852 4.17857 11.1639C4.17864 11.164 4.1787 11.1641 4.17877 11.1641L4.20469 11.1911C4.54541 11.5456 4.79064 11.8007 5.10253 11.9807C5.41808 12.1626 5.71787 12.2536 6.03911 12.2499C6.03933 12.2499 6.03954 12.2499 6.03976 12.2499L6.04883 12.9998L2.41824 8.98613ZM2.41824 8.98613C1.83626 8.1276 1.33807 7.27652 1.02018 6.36795L2.41824 8.98613ZM0.878211 5.60378L0.878209 5.60394C0.87455 5.84417 0.924214 6.09308 1.02006 6.3676L0.878211 5.60378ZM0.878211 5.60378C0.887131 5.00984 0.888467 4.41359 0.878186 3.81654L0.878211 5.60378ZM1.51738 2.33543L1.51736 2.33539C1.2966 2.47351 1.14029 2.66987 1.06191 2.88658C0.940592 3.22474 0.873233 3.52655 0.878184 3.81647L1.51738 2.33543ZM1.51738 2.33543L1.52365 2.33142M1.51738 2.33543L1.52365 2.33142M1.52365 2.33142C2.15042 1.93059 2.74733 1.6941 3.40799 1.70721L3.40807 1.70721M1.52365 2.33142L3.40807 1.70721M3.40807 1.70721C3.67539 1.71248 3.91014 1.71066 4.13337 1.70893M3.40807 1.70721L4.13337 1.70893M11.5664 0.750001C11.8416 0.752958 12.1417 0.752385 12.4357 0.751824C12.6763 0.751364 12.9128 0.750913 13.128 0.752412L11.5664 0.750001ZM13.7646 0.906021C13.6218 0.817981 13.4213 0.754584 13.1283 0.752414L13.7646 0.906021ZM13.7646 0.906021C13.9052 0.992749 14.0376 1.13267 14.1493 1.36767L13.7646 0.906021ZM7.77924 12.2499L7.77092 12.9998L7.77924 12.2499ZM4.13337 1.70893C4.4486 1.70648 4.74087 1.70421 5.0695 1.72235L4.13337 1.70893Z" fill="#FA8AA7" stroke="#FA8AA7" stroke-width="1.5"/>
</svg>
