<svg width="60" height="34" viewBox="0 0 60 34" fill="none" xmlns="http://www.w3.org/2000/svg">
<path id="Vector" d="M28.8266 33.5959C25.5585 33.5889 22.2955 33.6493 19.0412 33.2568C15.7869 32.8643 12.7282 32.1722 10.0867 30.7799C9.30256 30.3665 8.46129 29.9996 7.66329 29.5909C4.33629 27.8688 1.90248 25.7264 0.810209 22.9615C0.744822 22.8493 0.698951 22.7324 0.673474 22.6132C0.588655 20.0585 0.216479 17.5038 0.924462 14.9596C1.05775 14.4801 1.29316 14.0133 1.4126 13.5337C2.35427 9.7226 5.7557 7.06924 10.3533 4.98604C12.5568 3.9874 15.001 3.35106 17.5422 2.83664C19.6194 2.41513 21.6031 1.79156 23.8171 1.68937C24.3364 1.66499 24.8557 1.45713 25.3109 1.26785C26.5988 0.720924 28.0009 0.588545 29.4878 0.605963C31.7606 0.632671 34.0352 0.624542 36.3098 0.605963C38.6432 0.592028 40.7827 0.935746 42.7249 1.86936C43.7742 2.35238 44.8991 2.75695 46.0796 3.07585C47.9318 3.60652 49.6022 4.34737 51.309 5.03829C52.6418 5.57825 53.6268 6.39458 54.3988 7.31542C55.0653 8.112 55.7369 8.90975 56.4933 9.66686C57.113 10.2893 57.4506 10.9802 57.7968 11.6699C58.1724 12.4201 58.4528 13.19 59.0293 13.8913C59.3431 14.2667 59.5003 14.6919 59.4845 15.1222C59.391 17.433 59.7546 19.7496 59.076 22.0546C58.8423 22.8524 58.5117 23.6002 57.9128 24.2772C56.4189 25.9667 54.6014 27.4496 52.1104 28.5736C48.5532 30.1726 44.9735 31.7089 40.9212 32.7099C38.7947 33.2503 36.5488 33.549 34.2758 33.5935C32.4652 33.6168 30.6459 33.5959 28.8266 33.5959Z" fill="#FFF258"/>
</svg>
