<svg width="59" height="48" viewBox="0 0 59 48" fill="none" xmlns="http://www.w3.org/2000/svg">
<path d="M28.3266 47.9874C25.0585 47.9773 21.7955 48.0651 18.5412 47.4942C15.2869 46.9234 12.2282 45.9167 9.58671 43.8915C8.80256 43.2902 7.96129 42.7565 7.16329 42.162C3.83629 39.6572 1.40248 36.5409 0.310209 32.5193C0.244822 32.3561 0.198951 32.1861 0.173474 32.0126C0.0886545 28.2967 -0.283521 24.5809 0.424462 20.8802C0.55775 20.1827 0.793158 19.5037 0.912597 18.8061C1.85427 13.2627 5.2557 9.40327 9.85327 6.37315C12.0568 4.92059 14.501 3.99501 17.0422 3.24677C19.1194 2.63365 21.1031 1.72664 23.3171 1.57801C23.8364 1.54254 24.3557 1.2402 24.8109 0.964887C26.0988 0.169355 27.5009 -0.0231963 28.9878 0.00213908C31.2606 0.0409867 33.5352 0.0291635 35.8098 0.00213908C38.1432 -0.0181293 40.2827 0.481824 42.2249 1.8398C43.2742 2.54238 44.3991 3.13085 45.5796 3.59471C47.4318 4.36659 49.1022 5.44419 50.809 6.44916C52.1418 7.23456 53.1268 8.42195 53.8988 9.76134C54.5653 10.92 55.2369 12.0804 55.9933 13.1816C56.613 14.0869 56.9506 15.0919 57.2968 16.0952C57.6724 17.1863 57.9528 18.3061 58.5293 19.3263C58.8431 19.8724 59.0003 20.4908 58.9845 21.1167C58.891 24.4779 59.2546 27.8475 58.576 31.2002C58.3423 32.3605 58.0117 33.4483 57.4128 34.433C55.9189 36.8905 54.1014 39.0474 51.6104 40.6824C48.0532 43.0082 44.4735 45.2428 40.4212 46.6987C38.2947 47.4849 36.0488 47.9193 33.7758 47.9841C31.9652 48.0178 30.1459 47.9874 28.3266 47.9874Z" fill="#FFF258"/>
</svg>
