<svg width="15" height="18" viewBox="0 0 15 18" fill="none" xmlns="http://www.w3.org/2000/svg">
<path d="M13.4776 0.604492C13.4134 0.604492 13.3475 0.61905 13.2816 0.652326L3.54162 5.469H0.770366C0.621665 5.469 0.5 5.6229 0.5 5.81424V12.0327C0.5 12.224 0.621665 12.3779 0.770366 12.3779H2.48888C2.42636 12.6191 2.39256 12.875 2.39256 13.1349C2.39256 14.5055 3.30167 15.6202 4.42031 15.6202C5.35645 15.6202 6.14558 14.8382 6.37877 13.7817L13.2833 17.1967C13.3492 17.2279 13.4151 17.2445 13.4793 17.2445C13.7648 17.2445 14.02 16.9492 14.02 16.554V1.29497C14.0183 0.899815 13.7648 0.604492 13.4776 0.604492ZM4.42031 14.129C3.97252 14.129 3.60921 13.684 3.60921 13.1349C3.60921 12.902 3.67511 12.6795 3.79509 12.5027L5.22972 13.2119C5.19592 13.7235 4.84614 14.129 4.42031 14.129ZM12.8017 15.3436L3.99448 10.9886L3.7765 10.8805H1.71665V6.96642H3.7765L3.99448 6.85827L12.8017 2.50329V15.3436Z" fill="#004628"/>
</svg>
