<svg width="14" height="17" viewBox="0 0 14 17" fill="none" xmlns="http://www.w3.org/2000/svg">
<path d="M12.9776 0C12.9134 0 12.8475 0.0145582 12.7816 0.0478341L3.04162 4.86451H0.270366C0.121665 4.86451 0 5.01841 0 5.20975V11.4282C0 11.6195 0.121665 11.7734 0.270366 11.7734H1.98888C1.92636 12.0147 1.89256 12.2705 1.89256 12.5304C1.89256 13.901 2.80167 15.0157 3.92031 15.0157C4.85645 15.0157 5.64558 14.2337 5.87877 13.1772L12.7833 16.5922C12.8492 16.6234 12.9151 16.64 12.9793 16.64C13.2648 16.64 13.52 16.3447 13.52 15.9495V0.690474C13.5183 0.295323 13.2648 0 12.9776 0ZM3.92031 13.5245C3.47252 13.5245 3.10921 13.0795 3.10921 12.5304C3.10921 12.2975 3.17511 12.075 3.29509 11.8982L4.72972 12.6074C4.69592 13.119 4.34614 13.5245 3.92031 13.5245ZM12.3017 14.7391L3.49448 10.3841L3.2765 10.276H1.21665V6.36192H3.2765L3.49448 6.25378L12.3017 1.8988V14.7391Z" fill="#004628"/>
</svg>
