<svg width="17" height="17" viewBox="0 0 17 17" fill="none" xmlns="http://www.w3.org/2000/svg">
<path fill-rule="evenodd" clip-rule="evenodd" d="M15.0619 1.41421C15.5854 1.93767 15.758 2.6791 15.5798 3.34634C15.4921 3.67468 15.3195 3.98505 15.0619 4.24264L13.6477 5.65685L8.88487 10.4197C8.71958 10.585 8.50161 10.6871 8.26883 10.7084L6.71228 10.8508C6.08995 10.9077 5.56846 10.3862 5.62537 9.76385L5.7677 8.20731C5.78899 7.97452 5.89115 7.75655 6.05644 7.59126L10.8193 2.82843L12.2335 1.41421C12.4911 1.15662 12.8015 0.983987 13.1298 0.896303C13.797 0.718118 14.5385 0.890755 15.0619 1.41421ZM13.6477 4.24264L14.3548 3.53553C14.7453 3.14501 14.7453 2.51184 14.3548 2.12132C13.9643 1.7308 13.3311 1.7308 12.9406 2.12132L12.2335 2.82843L13.6477 4.24264ZM6.76355 8.29837L11.5264 3.53553L12.9406 4.94975L8.17776 9.71258L6.62122 9.85492L6.76355 8.29837Z" fill="#029C54"/>
<path fill-rule="evenodd" clip-rule="evenodd" d="M2.5 4.5C1.67157 4.5 1 5.17157 1 6V10.9997C1 10.9998 1 10.9999 1 11L1 12V14C1 14.8284 1.67157 15.5 2.5 15.5H7.49999H7.5H10.5C11.3284 15.5 12 14.8284 12 14L12 9.5C12 9.22386 12.2239 9 12.5 9C12.7761 9 13 9.22386 13 9.5L13 14C13 15.3807 11.8807 16.5 10.5 16.5H7.5H7.49999H2.5C1.11929 16.5 0 15.3807 0 14V12V11V6C0 4.61929 1.11929 3.5 2.5 3.5H7C7.27614 3.5 7.5 3.72386 7.5 4C7.5 4.27614 7.27614 4.5 7 4.5H2.5Z" fill="#029C54"/>
</svg>
