<svg width="352" height="264" viewBox="0 0 352 264" fill="none" xmlns="http://www.w3.org/2000/svg">
<path d="M207.366 73.1909C207.058 72.7954 206.67 72.8118 206.309 72.7664C205.601 72.6776 204.896 72.585 204.186 72.5179C201.723 72.2858 199.258 72.079 196.798 71.8377C192.299 71.3933 187.818 70.8111 183.374 69.9295C180.109 69.2784 176.832 68.6489 173.56 68.0105C172.535 67.794 171.499 67.6353 170.456 67.5352C169.744 67.4741 169.037 67.3638 168.341 67.2051C165.219 66.5104 162.072 66.0406 158.862 66.1168C158.48 66.1258 158.099 66.1168 157.718 66.0968C157.598 66.099 157.481 66.0551 157.393 65.9741C157.304 65.8932 157.25 65.7813 157.241 65.6615C157.226 65.5678 157.217 65.4733 157.215 65.3785C157.215 63.4703 157.204 61.5694 157.215 59.6539C157.215 58.8994 157.35 58.7815 158.177 58.7742C159.895 58.7561 161.613 58.7398 163.329 58.7742C165.19 58.7851 167.043 58.541 168.838 58.0487C172.482 57.1109 176.127 56.1767 179.764 55.21C181.836 54.6658 183.884 54.0273 185.952 53.4632C188.673 52.7231 191.383 52.0121 194.1 51.2865L195.666 50.8603C194.759 50.3161 193.81 50.122 192.887 49.9624C191.334 49.694 189.821 49.2713 188.288 48.9358C186.055 48.4478 183.8 48.0579 181.605 47.4012C179.049 46.6376 176.461 45.9919 173.852 45.4423C172.085 45.0704 170.313 44.7167 168.493 44.6224C167.405 44.568 166.335 44.2596 165.248 44.1308C161.698 43.7263 158.186 43.0806 154.694 42.3514C151.525 41.6887 148.386 40.8961 145.275 39.9734C143.824 39.5417 142.338 39.1681 140.86 38.7998C139.057 38.35 137.212 38.1215 135.372 37.8657C134.382 37.7297 133.377 37.6535 132.399 37.4793C131.554 37.3348 130.697 37.2741 129.84 37.298C129.018 37.3125 128.241 37.0513 127.443 36.9207C125.729 36.6413 123.358 35.9557 122.099 35.4043C122.059 35.318 122.032 35.2263 122.019 35.1322C122.008 33.1768 121.994 31.2197 122.003 29.2643C122.003 28.5642 122.137 28.4535 122.863 28.4281C123.434 28.4082 124.007 28.4281 124.581 28.4281C125.439 28.4445 126.296 28.3789 127.142 28.2322C127.613 28.1622 128.089 28.1331 128.564 28.1452C130.614 28.1161 132.675 28.2721 134.712 28.0291C136.613 27.8042 138.522 28.0001 140.414 27.7425C142.115 27.5103 143.839 27.6318 145.529 27.309C145.909 27.265 146.291 27.2565 146.672 27.2836C150.108 27.2836 153.544 27.309 156.978 27.2709C158.511 27.2527 160.022 27.4432 161.529 27.6228C163.842 27.9003 166.146 28.2758 168.442 28.6676C169.43 28.832 170.401 29.0827 171.345 29.4167C173.558 30.2148 175.866 30.5522 178.164 30.9349C179.9 31.2251 181.645 31.4591 183.388 31.7094C184.624 31.8908 185.865 31.7439 187.102 31.7511C187.454 31.7511 187.626 31.4736 187.465 31.1743C187.122 30.5485 186.788 29.9046 186.391 29.3206C184.471 26.4728 182.514 23.6522 180.609 20.7954C179.394 18.9706 178.235 17.1077 177.072 15.2485C175.862 13.3113 174.656 11.3741 173.262 9.56385C173.013 9.27435 172.873 8.90655 172.867 8.5245C172.876 6.61631 172.867 4.71537 172.878 2.79992C172.878 2.16506 173.023 2.01632 173.625 2.0127C175.581 1.99637 177.538 2.0127 179.494 2C179.904 2 180.248 2.1052 180.482 2.45528C180.716 2.80536 181.097 2.85796 181.491 2.85978C182.49 2.85978 183.497 2.79629 184.48 3.04116C186.797 3.63611 189.016 4.45054 191.089 5.68579C194.657 7.80439 198.153 10.0391 201.649 12.2629C204.295 13.9534 207.042 15.4916 209.844 16.93C213.574 18.8436 217.282 20.8135 220.818 23.0754C222.062 23.8717 223.37 24.5664 224.627 25.3409C226.331 26.3875 228.014 27.4686 229.706 28.5333C229.988 28.7147 230.267 28.8961 230.557 29.0594C230.6 29.0793 230.646 29.0883 230.693 29.0857C230.739 29.0831 230.785 29.0689 230.824 29.0445C230.864 29.02 230.897 28.986 230.921 28.9455C230.944 28.905 230.957 28.8594 230.958 28.8127C230.976 28.5261 230.978 28.2413 230.984 27.9547C231.014 25.8579 231.005 23.7592 231.091 21.6624C231.151 20.1876 231.359 18.7226 231.711 17.2891C232.164 15.439 232.68 13.6033 233.189 11.7659C233.553 10.3769 234.275 9.10779 235.283 8.08554C235.641 7.70206 236.054 7.37326 236.507 7.10968C237.846 6.38413 238.798 5.2686 239.756 4.14581C239.909 3.96442 240.057 3.78304 240.201 3.58895C240.35 3.37406 240.552 3.20145 240.787 3.08796C241.023 2.97447 241.284 2.92397 241.545 2.9414C243.359 2.97586 245.173 2.95772 246.987 2.95228C247.395 2.95228 247.736 3.02484 247.921 3.44928C247.993 3.57143 248.092 3.6747 248.212 3.75039C249.28 4.5503 250.327 5.38287 251.426 6.13563C255.684 9.06866 259.506 12.506 263.118 16.1899C264.117 17.2111 265.091 18.2523 266.02 19.3461C266.978 20.4743 268.162 21.3867 269.34 22.27C272.046 24.2979 274.648 26.471 277.548 28.234C279.289 29.3207 280.876 30.6373 282.265 32.1484C283.33 33.2802 283.368 33.2929 284.59 32.3515C285.889 31.3821 287.255 30.5073 288.679 29.7341C289.301 29.384 289.895 28.9832 290.504 28.6095C292.051 27.6651 293.655 26.817 295.306 26.0701C297.174 25.223 299.01 24.3161 300.803 23.3166C301.597 22.8814 302.417 22.4961 303.259 22.163C305.381 21.3069 307.415 20.2548 309.564 19.4549C311.489 18.7293 313.448 18.1507 315.409 17.563C316.136 17.3238 316.9 17.2187 317.664 17.2529C317.948 17.2912 318.237 17.282 318.519 17.2256C319.832 16.8629 321.171 16.9826 322.509 16.9753C325.087 16.9626 327.663 16.9753 330.239 16.9753C330.62 16.9753 331.003 16.9753 331.382 17.0062C331.502 17.008 331.618 17.0565 331.703 17.1413C331.789 17.2262 331.838 17.341 331.841 17.4615C331.859 17.652 331.865 17.8434 331.861 18.0346C331.861 19.7034 331.85 21.374 331.861 23.0427C331.872 23.2741 331.829 23.505 331.735 23.7165C331.64 23.928 331.497 24.1142 331.317 24.2598C330.404 25.1027 329.555 26.0121 328.777 26.9807C327.641 28.4009 326.357 29.6688 325.06 30.9349C323.456 32.5003 321.911 34.1255 320.325 35.709C318.511 37.5229 316.659 39.3259 314.84 41.1506C314.234 41.7583 313.664 42.4022 313.095 43.0443C313.055 43.099 313.03 43.1623 313.02 43.2289C313.01 43.2954 313.017 43.3634 313.038 43.427C313.086 43.4746 313.142 43.5116 313.205 43.5357C313.267 43.5597 313.334 43.5703 313.401 43.5667C313.639 43.5675 313.877 43.5475 314.112 43.5068C316.088 43.2021 318.058 42.8666 320.039 42.5999C322.014 42.2948 324.007 42.1251 326.005 42.092C330.54 42.0812 335.075 42.1084 339.61 42.0757C340.85 42.0702 342.086 42.2066 343.295 42.482C344.461 42.7194 345.608 43.0426 346.727 43.4488C347.988 43.9331 349.283 44.1744 350.598 44.3829C351.097 44.4609 351.217 44.5535 351.22 44.9852C351.233 46.8933 351.22 48.7943 351.22 50.7097C351.232 50.8765 351.197 51.0433 351.118 51.1907C351.039 51.3381 350.92 51.46 350.774 51.5423C349.005 52.5943 347.509 54.0291 345.787 55.1356C345.473 55.3479 345.171 55.5761 344.88 55.8194C343.998 56.5495 343.055 57.2014 342.059 57.7675C341.557 58.0396 341.08 58.3606 340.608 58.6744C338.718 59.9605 336.822 61.2393 334.95 62.5525C333.566 63.5229 332.031 64.1669 330.44 64.6729C329.618 64.9154 328.814 65.2185 328.037 65.5799C327.915 65.6542 327.785 65.715 327.65 65.7612C325.689 66.2183 323.915 67.1797 322.036 67.8545C319.836 68.6471 317.753 69.7101 315.651 70.724C315.202 70.9399 315.177 71.1122 315.449 71.5003C315.61 71.7365 315.784 71.963 315.972 72.1787C316.764 73.0693 317.548 73.9672 318.364 74.8361C320.224 76.8186 322.078 78.8048 323.975 80.7511C326.803 83.6533 329.635 86.5555 332.525 89.4015C335.346 92.173 338.119 95.0009 341.212 97.4841C341.844 97.992 342.417 98.5724 343.026 99.1166C343.298 99.3487 343.51 99.6418 343.646 99.9719C343.783 100.302 343.839 100.66 343.81 101.016C343.757 102.539 343.795 104.068 343.795 105.594C343.795 105.786 343.795 105.977 343.786 106.167C343.752 106.711 343.625 106.856 343.106 106.869C342.199 106.889 341.292 106.869 340.385 106.882C340.004 106.882 339.621 106.882 339.24 106.894C339.059 106.894 338.83 106.894 338.738 107.101C338.453 107.707 337.913 107.645 337.392 107.645C335.721 107.645 334.05 107.645 332.382 107.645C331.905 107.663 331.43 107.588 330.983 107.422C328.091 106.261 325.024 105.772 322 105.117C318.408 104.371 314.858 103.439 311.362 102.327C307.785 101.155 304.179 100.071 300.585 98.9497C300.449 98.9056 300.309 98.8722 300.168 98.8499C300.05 98.8248 299.928 98.8466 299.826 98.9107C299.724 98.9747 299.652 99.0759 299.623 99.1927C299.552 99.5173 299.517 99.8489 299.52 100.181C299.509 101.375 299.52 102.567 299.52 103.76C299.543 104.141 299.539 104.523 299.506 104.903C299.081 107.749 299.277 110.613 299.235 113.468C299.235 113.851 299.235 114.232 299.221 114.614C299.225 114.686 299.215 114.757 299.19 114.824C299.166 114.891 299.127 114.952 299.077 115.003C299.028 115.055 298.968 115.095 298.902 115.122C298.835 115.148 298.764 115.161 298.693 115.158C298.502 115.171 298.312 115.175 298.121 115.175C296.451 115.175 294.782 115.164 293.111 115.175C292.392 115.189 291.692 114.949 291.134 114.496C289.517 113.238 287.868 112.013 286.276 110.729C285.312 109.954 284.429 109.078 283.486 108.275C282.254 107.226 280.999 106.203 279.754 105.168C279.601 105.055 279.458 104.929 279.326 104.792C277.906 103.118 276.21 101.709 274.791 100.022C273.661 98.6703 272.433 97.3916 271.275 96.0693C270.626 95.3711 270.063 94.5977 269.597 93.7656C269.013 92.661 268.115 91.7831 267.373 90.7927C267.301 90.6973 267.209 90.619 267.104 90.5632C266.998 90.5074 266.881 90.4755 266.762 90.4698C266.053 90.41 265.343 90.3302 264.634 90.2884C264.063 90.2467 263.858 90.4698 263.965 91.0684C264.181 92.2855 264.433 93.4972 264.669 94.7125C265.316 98.0338 266.222 101.3 267.377 104.48C267.921 106.002 268.284 107.589 269.01 109.055C269.121 109.317 269.173 109.601 269.164 109.886C269.175 111.794 269.175 113.702 269.164 115.61C269.164 116.172 269.035 116.303 268.494 116.308C266.586 116.324 264.678 116.327 262.769 116.318C262.087 116.306 261.428 116.07 260.892 115.648C259.402 114.532 258.071 113.218 256.935 111.743C255.52 109.949 254.174 108.101 252.814 106.265C251.721 104.821 250.545 103.441 249.293 102.133C246.158 98.7937 242.824 95.6521 239.678 92.329C237.848 90.3955 235.932 88.5199 234.379 86.3433C234.017 85.8263 233.864 85.8118 233.291 86.0676C232.943 86.2235 232.605 86.4013 232.262 86.5718C229.706 87.8524 227.16 89.1511 224.589 90.4063C222.7 91.3197 220.681 91.9318 218.603 92.2202C215.635 92.6592 212.638 92.8715 209.638 92.8551C209.211 92.8551 208.785 92.9186 208.359 92.9548C207.648 93.0129 206.937 93.1362 206.225 93.1217C204.881 93.0999 203.575 93.3394 202.256 93.5389C200.518 93.8019 198.764 93.9688 197.019 94.2028C194.661 94.5202 192.294 94.7887 189.955 95.2167C188.179 95.5414 186.44 96.0711 184.694 96.5409C184.337 96.6658 183.964 96.7415 183.586 96.7658C181.772 96.7658 179.958 96.7658 178.144 96.7658C177.378 96.7658 177.277 96.6678 177.271 95.9749C177.259 94.0667 177.271 92.1658 177.271 90.2503C177.271 89.8876 177.355 89.5901 177.696 89.4105C178.966 88.7412 180.054 87.827 181.183 86.9509C181.668 86.5673 182.179 86.2182 182.714 85.9061C185.732 84.1684 188.821 82.5704 191.945 81.0322C193.442 80.2958 194.895 79.4723 196.368 78.6887C199.022 77.2775 201.756 76.0314 204.478 74.7617C205.477 74.3066 206.442 73.7817 207.366 73.1909Z" fill="#FFF258"/>
<path d="M115.103 105.296C115.189 105.375 115.307 105.437 115.443 105.475C115.58 105.513 115.729 105.526 115.876 105.512C119.887 105.534 123.881 105.851 127.783 106.458C128.764 106.597 129.72 106.805 130.634 107.077C132.656 107.696 134.696 108.32 136.747 108.911C138.319 109.368 139.715 110.024 141.186 110.596C142.658 111.168 144.172 111.686 145.592 112.318C150.271 114.406 153.455 117.162 154.735 120.816C155.088 121.83 155.654 122.807 155.827 123.856C155.916 124.314 155.969 124.775 155.984 125.237C155.984 127.209 155.957 129.182 156 131.154C156 132.003 155.89 132.85 155.672 133.687C155.567 134.225 155.319 134.748 154.94 135.231C154.174 136.144 153.412 137.06 152.572 137.947C152.214 138.301 151.77 138.615 151.257 138.876C147.05 141.11 142.314 142.432 136.814 142.42C132.975 142.42 129.133 142.457 125.294 142.407C121.996 142.366 118.7 142.231 115.458 141.772C114.534 141.649 113.6 141.56 112.661 141.506C111.606 141.42 110.572 141.246 109.583 140.99C107.869 140.578 106.079 140.322 104.38 139.86C100.997 138.94 97.6945 137.928 94.6594 136.563C93.6889 136.122 92.6037 135.798 91.6287 135.366C90.0179 134.651 88.4566 133.896 86.8705 133.151C86.4863 132.972 86.1021 132.793 85.6978 132.634C85.2934 132.475 85.0642 132.529 84.8733 132.821C84.3857 133.565 83.9117 134.315 83.4197 135.059C81.6764 137.694 79.2972 140.092 76.9046 142.488C75.7454 143.653 74.658 144.851 73.5168 146.017C71.5863 148.009 69.3548 149.868 66.8557 151.567C65.9907 152.155 65.0809 152.703 64.1598 153.244C60.4125 155.432 56.5214 157.499 52.19 159.185C50.8421 159.713 49.4784 160.038 47.8563 159.997C45.2593 159.929 42.6578 159.985 40.0562 159.976C38.2814 159.976 36.5246 159.877 34.8644 159.411C32.8843 158.88 31.1844 157.982 29.9736 156.827C29.1596 156.057 28.7203 155.144 28.7132 154.207C28.7132 151.501 28.5919 148.789 28.7537 146.086C28.857 144.363 29.1603 142.626 30.1016 140.975C30.4521 140.362 30.6902 139.72 30.9553 139.088C31.8989 136.845 33.3434 134.731 34.916 132.647C35.8147 131.434 36.5021 130.147 37.6119 128.999C38.6858 127.887 39.5979 126.715 40.6156 125.585C41.5142 124.591 42.6375 123.69 43.7294 122.775C44.9276 121.768 46.1512 120.779 47.4003 119.806C49.6199 118.08 51.2824 116.13 52.864 114.137C53.5087 113.328 53.511 113.218 52.2349 112.617C51.1903 112.125 49.9704 111.799 48.7752 111.459C45.7917 110.614 42.66 110.05 39.6114 109.331C37.6595 108.888 35.6364 108.592 33.5816 108.449C32.474 108.365 31.3889 108.162 30.2948 108.008C28.0482 107.686 25.8017 107.325 23.6809 106.745C21.3444 106.103 18.9631 105.502 16.7906 104.631C16.1782 104.4 15.5433 104.194 14.89 104.017C13.1624 103.517 11.4056 103.059 9.69817 102.531C6.89668 101.661 4.3558 100.549 2.50911 98.88C0.98593 97.5124 -0.0295188 96.0242 0.00193333 94.2772C0.0446184 91.8787 0.062591 89.4802 0.00193333 87.0832C-0.0429983 85.5141 0.698363 84.1421 1.90028 82.8185C4.26369 80.2098 7.63357 78.348 11.6976 76.9584C13.6319 76.2981 15.5168 75.576 17.4286 74.8834C19.3405 74.1908 21.4837 73.832 23.6157 73.5231C24.2552 73.4475 24.905 73.416 25.5545 73.429C30.2724 73.429 35.0082 73.4158 39.735 73.429C40.7372 73.4373 41.7373 73.4928 42.7274 73.5952C44.1854 73.7422 45.6659 73.6746 47.1217 73.8746C51.7587 74.5143 56.3012 75.3231 60.3765 76.9628C61.2963 77.311 62.165 77.7142 62.9713 78.1672C63.7936 78.6539 64.5821 79.1833 64.9933 79.9068C65.2179 80.3024 65.474 80.7259 65.8919 81.0259C66.6153 81.5347 66.7052 82.1053 66.667 82.7391C66.6378 83.2406 66.667 83.7435 66.7029 84.245C66.7159 84.2777 66.7404 84.308 66.7743 84.3335C66.8082 84.359 66.8507 84.3791 66.8984 84.392C66.9522 84.399 67.0076 84.3984 67.0611 84.3902C67.1145 84.3821 67.1647 84.3667 67.2084 84.345C68.7428 83.5053 70.2345 82.6333 71.879 81.8847C72.1714 81.7541 72.4451 81.6065 72.6968 81.4436C75.0625 79.8598 77.8257 78.6127 80.5845 77.3495C82.6065 76.4187 84.6284 75.476 86.6975 74.5746C88.5131 73.7786 90.4476 73.1056 92.4712 72.5658C94.0011 72.157 95.4906 71.6835 97.0362 71.3041C99.0848 70.8194 101.197 70.4595 103.347 70.2291C104.8 70.0665 106.272 69.9916 107.746 70.0056C110.406 70.0261 113.066 70.035 115.723 70.0056C119.084 69.9699 122.444 70.1056 125.772 70.4114C128.452 70.657 131.164 70.807 133.779 71.3085C136.363 71.8011 138.737 72.4937 140.66 73.7922C141.986 74.6878 143.199 75.6172 144.107 76.7172C145.271 78.1143 145.864 79.6847 145.827 81.2759C145.798 83.0538 145.814 84.8332 145.827 86.6126C145.844 88.0546 145.123 89.4588 143.781 90.6022C143.008 91.2816 142.208 91.9493 141.496 92.661C140.254 93.9036 138.576 94.8668 136.969 95.8962C134.033 97.7639 130.573 99.1888 127.455 100.896C126.8 101.226 126.093 101.511 125.348 101.745C122.164 102.846 118.967 103.93 115.777 105.024C115.568 105.09 115.382 105.18 115.103 105.296Z" fill="#D3F44B"/>
<path d="M64.1657 204.93C65.51 202.934 67.2678 201.198 69.3403 199.82C71.215 198.538 73.4859 197.833 75.8264 197.806C79.4724 197.724 83.1196 197.914 86.7316 198.375C90.5668 198.891 94.2858 199.97 97.7455 201.569C98.706 202.01 99.5581 202.647 100.462 203.194C100.947 203.122 101.292 202.817 101.616 202.526C104.303 200.112 107.684 199.144 111.29 198.843C115.31 198.504 119.359 198.569 123.364 199.038C125.819 199.326 128.271 199.574 130.687 200.093C132.806 200.552 134.808 201.335 136.811 202.098C137.458 202.338 138.063 202.666 138.604 203.07C141.561 205.361 144.473 207.695 146.39 210.862C146.58 211.175 146.784 211.47 146.778 211.841C146.751 213.683 146.913 215.526 146.629 217.365C146.48 218.284 146.034 218.771 145.047 219.205C142.26 220.422 139.361 220.468 136.402 220.338C136.324 220.338 136.253 220.317 136.171 220.309C134.788 220.164 133.279 220.287 132.055 219.805C130.448 219.172 129.023 218.115 127.602 217.14C126.371 216.279 125.197 215.353 124.085 214.366C122.638 213.08 120.983 212.005 119.178 211.18C118.056 210.673 117 210.665 115.836 211.111C114.274 211.708 113.073 212.657 112.077 213.869C111.424 214.661 110.804 215.478 110.114 216.243C108.492 218.045 106.446 219.021 103.829 218.908C101.583 218.81 99.3335 218.791 97.0868 218.703C94.4374 218.603 91.8815 217.78 89.7487 216.339C87.5182 214.855 85.0038 213.965 82.4507 213.109C81.676 212.848 80.9771 212.874 80.192 213.03C77.9096 213.482 76.3007 214.733 75.1201 216.485C74.3022 217.699 73.3223 218.789 72.3454 219.892C71.2837 221.09 69.8934 221.579 68.2742 221.642C65.2506 221.751 62.2224 221.621 59.2231 221.254C57.6886 221.074 56.276 220.4 54.9109 219.743C53.4731 219.052 52.0753 218.291 50.6761 217.536C48.4754 216.351 46.2658 215.176 44.0993 213.94C42.4637 213.002 40.6184 212.7 38.7775 212.58C37.3873 212.487 36.046 212.999 34.8565 213.721C33.1078 214.782 31.3874 215.86 30.3123 217.593C29.6834 218.605 28.7258 218.953 27.4068 218.936C24.7675 218.889 22.1356 218.828 19.526 218.434C18.1045 218.219 17.6941 217.838 17.3506 216.592C16.9283 215.057 16.9714 213.494 17.0532 211.943C17.1618 210.039 17.4606 208.135 17.6168 206.231C17.7209 204.96 18.332 203.919 19.2108 202.998C20.8386 201.284 22.8389 199.898 25.0842 198.929C27.2373 197.999 29.3592 197.46 31.7621 197.581C33.9925 197.694 36.2572 197.445 38.5039 197.486C44.196 197.593 49.7914 198.37 55.131 200.194C57.9562 201.157 60.713 202.339 63.0401 204.18C63.3286 204.407 63.6557 204.594 64.1657 204.93Z" fill="#F55B1D"/>
<path d="M302.534 37.6417C304.208 36.6019 305.875 35.5571 307.559 34.5253C310.051 32.9966 312.694 31.6319 315.832 30.8051C316.321 30.6761 316.768 30.4701 317.259 30.3311C318.647 29.9312 320.065 29.6513 321.592 29.6033C323.759 29.5353 325.913 29.3034 328.093 29.3873C329.813 29.4543 331.535 29.5383 333.165 29.9652C334.796 30.3921 336.208 31.074 337.182 32.1378C337.946 32.9726 338.016 33.9214 338.125 34.8562C338.456 37.6417 337.673 40.2992 335.976 42.8077C334.371 45.1792 332.695 47.5317 330.937 49.8463C329.285 52.0138 326.646 53.5525 323.47 54.4383C317.212 56.185 310.862 57.7877 304.273 58.8295C300.477 59.4293 296.623 59.7553 292.719 59.9492C287.851 60.1922 282.987 60.0782 278.124 60.1702C274.946 60.2312 271.861 59.9302 268.799 59.3804C267.714 59.1854 266.6 59.0674 265.51 58.8854C264.928 58.784 264.313 58.8382 263.785 59.0374C260.573 60.1682 257.347 61.282 254.129 62.4077C253.661 62.5717 253.213 62.7647 252.757 62.9446C251.144 63.5805 249.823 64.3934 249.286 65.7011C249.185 65.95 248.964 66.174 248.807 66.412C248.724 66.5595 248.577 66.6851 248.387 66.7713C248.197 66.8575 247.973 66.9 247.747 66.8929C246.024 66.8929 244.3 66.8902 242.576 66.8849C242.031 66.8849 241.577 66.6849 241.104 66.5289C239.132 65.8941 237.252 65.1292 235.194 64.6113C233.693 64.2344 232.939 63.4675 232.993 62.3118C233.04 61.312 233.026 60.3122 232.993 59.3184C232.971 58.5925 233.365 58.0336 234.031 57.4777C237.369 54.6913 239.566 51.5069 240.526 47.9246C240.669 47.4167 240.615 46.8778 240.583 46.3549C240.468 44.0456 239.714 41.7739 238.362 39.6663C236.727 37.1108 234.593 34.7783 232.562 32.3927C231.91 31.6279 231.221 30.867 230.728 30.0512C229.786 28.4965 229.148 26.8858 229.331 25.1582C229.402 24.3711 229.402 23.5817 229.331 22.7947C229.243 21.6099 229.913 20.6431 230.993 19.7953C233.312 17.9836 236.257 16.8718 239.542 16.185C240.244 16.038 241.021 16.029 241.766 16.023C244.014 16.003 246.266 15.96 248.512 16.023C253.479 16.17 257.63 17.5137 260.767 20.2822C261.578 20.9762 262.175 21.7807 262.52 22.6447C263.256 24.6193 264.273 26.5439 264.651 28.5895C264.865 29.7463 264.732 30.895 264.815 32.0458C264.831 32.3065 264.87 32.5663 264.932 32.8237C264.942 32.8616 265.239 32.9186 265.296 32.8836C265.514 32.7426 265.709 32.5854 265.878 32.4147C267.836 30.4811 269.453 28.3965 270.845 26.252C272.129 24.2734 273.799 22.4907 275.587 20.7411C276.283 20.0582 277.002 19.3843 277.658 18.6825C278.65 17.6278 279.868 16.6871 281.271 15.894C282.489 15.1942 283.706 14.4943 284.967 13.8374C287.312 12.6137 289.931 11.9118 292.891 11.9148C295.139 11.9148 297.39 11.9488 299.637 11.9008C301.139 11.8752 302.626 12.1094 303.968 12.5827C305.591 13.1317 307.089 13.846 308.413 14.7023C310.647 16.144 311.46 18.0426 311.568 20.0902C311.667 21.9258 311.594 23.7675 311.588 25.6061C311.577 26.3958 311.339 27.1758 310.888 27.8996C309.889 29.5493 308.636 31.094 306.995 32.4857C305.189 34.0324 303.546 35.6521 302.534 37.6417Z" fill="#F55B1D"/>
<path d="M90.8897 109.54C92.2845 110.973 94.2178 111.822 96.1346 112.663C98.5406 113.714 101.24 114.185 103.901 114.675C105.416 114.953 106.98 114.758 108.512 114.635C109.62 114.545 110.727 114.441 111.835 114.354C116.341 114.001 120.258 112.675 123.527 110.283C123.96 109.967 124.388 109.646 124.8 109.314C126.844 107.667 126.834 107.67 125.009 105.817C124.186 104.984 123.387 104.136 122.611 103.273C121.238 101.747 120.265 100.094 120.039 98.2296C119.636 94.9149 119.407 91.6026 120.26 88.3029C120.798 86.2171 121.974 84.3524 123.632 82.6563C124.879 81.3824 126.452 80.6205 128.655 80.6892C130.796 80.7554 132.948 80.6892 135.094 80.7304C137.011 80.7716 138.653 81.3686 139.632 82.6251C140.275 83.4494 140.798 84.3736 140.966 85.3553C141.087 86.066 141.274 86.7729 141.329 87.486C141.513 89.9552 141.702 92.4257 141.796 94.8974C141.931 98.4394 140.528 101.694 138.42 104.804C137.123 106.716 136.649 106.428 139.244 107.839C141.597 109.122 144.105 109.626 146.972 109.39C148.675 109.245 150.36 108.994 152.01 108.641C154.57 108.105 157.154 107.623 159.749 107.162C161.778 106.801 163.848 106.97 165.905 107.011C166.272 107.019 166.579 107.188 166.584 107.491C166.605 108.661 166.605 109.832 166.584 111.003C166.584 111.295 166.287 111.462 165.936 111.53C164.854 111.738 163.764 111.919 162.687 112.136C160.449 112.583 158.231 113.093 155.977 113.487C153.375 113.939 150.717 114.08 148.049 114.089C145.908 114.096 143.754 114.089 141.607 114.089C138.621 114.096 135.81 113.663 133.383 112.242C132.864 111.938 132.467 112.057 132.077 112.414C131.364 113.065 130.651 113.718 129.877 114.325C126.583 116.902 122.577 118.293 117.89 118.786C112.189 119.375 106.426 119.548 100.681 119.302C94.8814 119.069 89.648 117.506 85.3993 114.344C85.0947 114.115 84.7933 113.883 84.4672 113.673C84.338 113.586 84.1738 113.535 84.0013 113.527C83.8288 113.52 83.6582 113.557 83.5171 113.633C82.6393 114.041 81.7517 114.44 80.9036 114.882C79.0576 115.846 77.065 116.607 75.0741 117.372C72.9892 118.173 70.8303 118.754 68.4705 118.881C64.4392 119.101 60.4128 119.208 56.4128 118.675C54.2967 118.392 52.2745 117.838 50.2687 117.259C48.9974 116.89 48.8772 116.914 48.0818 117.682C45.1061 120.555 41.9213 123.282 38.3774 125.763C37.8735 126.116 37.3679 126.469 36.8409 126.802C36.2448 127.188 35.4834 127.395 34.7001 127.384C32.8887 127.384 31.0937 127.398 29.2905 127.373C28.2497 127.359 28.0357 127.208 28.0192 126.481C27.9907 125.179 27.9939 123.875 28.0291 122.571C28.0439 122.019 28.4243 121.774 29.1588 121.71C29.2432 121.697 29.3298 121.693 29.4157 121.699C31.5367 121.994 32.8969 121.123 34.3016 120.066C36.6236 118.318 38.7084 116.416 40.8706 114.564C41.8471 113.725 41.8126 113.661 40.7669 112.782C39.8447 112.009 38.8945 111.256 37.9558 110.494C34.7382 107.864 32.0963 104.859 30.1304 101.596C29.1321 99.9306 28.6112 98.1239 28.6021 96.295C28.5741 94.9211 28.6021 93.5572 28.6021 92.1884C28.5807 88.6351 30.0431 85.4028 32.3239 82.3566C32.9579 81.5085 33.7022 80.7067 34.3988 79.8861C35.014 79.1762 35.7726 78.544 36.6466 78.0127C37.4455 77.522 38.4085 77.2094 39.428 77.1097C43.2782 76.6576 47.1481 76.7937 50.9982 76.8886C53.61 76.9536 55.9814 77.8278 58.0612 79.0468C59.4474 79.8447 60.3628 81.025 60.6088 82.3316C61.2771 85.4183 61.5407 88.5477 61.396 91.6738C61.2677 94.735 60.7073 97.7769 59.7245 100.748C58.4762 104.414 56.8855 107.991 54.1255 111.194C53.554 111.857 53.6512 112.053 54.6047 112.352C56.5808 112.976 58.6278 113.469 60.6697 113.975C62.9374 114.532 65.0831 114.357 67.1761 113.626C69.1243 112.945 71.079 112.26 72.9398 111.451C75.0197 110.543 77.0041 109.505 79.0082 108.5C79.853 108.076 79.8958 107.957 79.4248 107.217C77.2445 103.8 76.6253 100.175 76.5018 96.4124C76.3371 90.9631 78.7744 86.2146 82.5949 81.7571C83.5302 80.6642 84.436 79.5639 85.7122 78.6609C86.7003 77.9615 87.7641 77.5531 89.1704 77.6105C90.7118 77.6742 92.2614 77.638 93.8061 77.6242C94.8461 77.6007 95.8656 77.847 96.6962 78.3224C99.9897 80.2146 102.317 82.5064 102.16 85.8524C102.06 87.9981 102.359 90.1551 101.852 92.2883C101.012 95.8204 99.8761 99.2937 98.0301 102.606C97.3245 103.874 96.3175 105.033 95.0593 106.024C93.6447 107.147 92.3141 108.334 90.8897 109.54ZM55.3375 90.2013C55.1728 89.2021 55.0081 88.2329 54.8797 87.2625C54.6277 85.2879 53.2642 83.8728 51.0789 82.8774C50.4183 82.5738 49.7286 82.3083 49.0155 82.083C45.4898 80.984 43.265 81.4111 40.8755 83.6942C40.1328 84.4049 39.5581 85.2179 38.8879 85.9698C37.027 88.0393 35.8858 90.3299 35.0806 92.7492C34.6911 93.8205 34.7791 94.9594 35.3309 95.989C37.7747 100.591 41.5128 104.522 46.1782 107.965C46.5372 108.231 46.9258 108.203 47.2518 107.87C49.1687 105.927 50.5767 103.78 51.7195 101.521C53.2264 98.5438 54.2859 95.4476 54.878 92.2908C55.0032 91.5839 55.1843 90.882 55.3375 90.2013ZM82.7085 96.4161C82.7727 96.8033 82.7941 97.1318 82.888 97.4477C83.382 99.1014 83.9979 100.741 84.958 102.267C86.0975 104.077 86.1667 104.335 88.0868 102.553C88.3042 102.352 88.5381 102.16 88.7768 101.973C90.7875 100.398 92.0704 98.5244 93.0403 96.4636C94.1157 94.1855 94.6871 91.8174 95.5862 89.5119C96.1346 88.0918 95.6966 86.959 94.7217 85.8449C94.1424 85.1986 93.5035 84.5842 92.8098 84.0064C91.769 83.1197 91.3722 83.1322 90.3742 84.0177C90.2622 84.1176 90.1536 84.2188 90.0449 84.3237C86.8061 87.6221 84.4278 91.3593 83.0378 95.3345C82.9143 95.7092 82.8106 96.0914 82.7085 96.4161ZM131.453 101.912C132.146 100.96 132.77 100.254 133.205 99.4836C134.697 96.7808 136.258 94.0781 135.288 91.0181C135.189 90.7059 135.262 90.3636 135.185 90.0452C134.891 88.8162 134.361 87.6334 133.394 86.6293C132.285 85.479 131.278 85.4752 130.053 86.5543C127.868 88.4777 126.623 90.7471 126.019 93.2213C125.795 94.1343 126.053 95.0185 126.481 95.899C127.545 98.0697 129.33 99.8832 131.453 101.908V101.912Z" fill="#029C54"/>
<path d="M50.5267 36.4379C49.8667 36.4379 49.2507 36.3939 48.6787 36.3939C47.8868 36.3939 46.8748 36.3939 45.7749 36.3939C41.8151 36.4379 33.4995 36.4819 31.2116 34.238C30.9036 33.93 30.7716 33.666 30.7716 33.2261C30.7716 32.0821 30.7716 29.6622 48.2828 29.6622C57.0383 29.6622 59.8982 31.6421 60.6902 32.5221C61.0421 32.8741 61.2181 33.2261 61.2621 33.446H66.9819C66.9379 32.3461 66.5859 30.7182 65.2219 29.0903C62.4501 25.7024 56.7743 23.9865 48.2828 23.9865C35.6114 23.9865 25.1399 24.6905 25.1399 33.2261C25.1399 35.162 25.8438 36.9219 27.2078 38.2418C30.8596 41.8936 38.1192 42.1136 45.8189 42.0696C46.8748 42.0696 47.7988 42.0256 48.5027 42.0696C49.1187 42.0696 49.7787 42.0696 50.4827 42.0696C57.4783 42.1576 61.5701 42.7296 61.5701 45.5455C61.5701 47.1294 59.2822 49.0653 48.5467 49.0653C41.3311 49.0653 37.2833 48.5813 34.4234 47.3494C31.9155 46.2934 31.2556 45.7215 31.0796 44.8415H25.4039C25.7558 49.0213 28.2197 50.8692 32.2235 52.5851C35.8314 54.125 40.4071 54.741 48.5467 54.741C54.1345 54.741 67.2458 54.741 67.2458 45.5455C67.2458 36.5259 56.3344 36.4819 50.5267 36.4379ZM107.897 23.8985L93.0693 48.4053L77.846 23.8985H72.1263V54.697H77.758V34.546L90.3414 54.697H95.8852L107.941 34.81V54.697H113.616V23.8985H107.897ZM124.143 54.697V23.8985H118.511V54.697H124.143ZM134.651 23.8985H129.019V54.697H167.297V49.0653H134.651V23.8985ZM170.248 54.741H212.398V49.0653H175.924V40.5297H203.466V34.854H175.924V29.6622H212.398V23.9865H170.248V54.741Z" fill="#1F2225"/>
<path d="M211.566 110.923L221.421 85.4925H227.537L215.569 116.291H207.606L198.41 93.2361L189.435 116.291H181.515L169.24 85.4925H175.311L185.431 110.923L195.33 85.4925H201.402H201.446L211.566 110.923ZM238.056 116.291H232.425V85.4925H238.056V116.291ZM242.932 91.1682V85.4925H287.37V91.1682H267.967V116.291H262.291V91.1682H242.932ZM328.978 96.624V85.4925H334.654V116.291H328.978V102.3H297.828V116.291H292.196V85.4925H297.828V96.624H328.978Z" fill="#1F2225"/>
<path d="M25.1399 174.629V143.875H67.2898V149.551H30.8156V154.742H58.3583V160.418H30.8156V168.954H67.2898V174.629H25.1399ZM112.476 169.218L122.331 143.787H128.447L116.48 174.585H108.516L99.3204 151.531L90.3449 174.585H82.4252L70.1498 143.787H76.2215L86.3411 169.218L96.2406 143.787H102.312H102.356L112.476 169.218ZM170.117 154.918V143.787H175.793V174.585H170.117V160.594H138.966V174.585H133.335V143.787H138.966V154.918H170.117ZM202.62 143.787H209.483L231.482 174.585H224.487L220.131 168.514H191.884L187.485 174.585H180.665L202.62 143.787ZM195.932 162.838H216.083L206.008 148.715L195.932 162.838Z" fill="#1F2225"/>
<path d="M304.892 137.47C305.651 136.516 306.432 135.638 307.09 134.682C308.302 132.922 309.734 131.327 311.083 129.671C311.436 129.246 311.82 128.847 312.234 128.476C312.925 127.849 313.735 127.485 314.718 127.498C316.134 127.517 317.558 127.411 318.964 127.525C321.05 127.693 322.9 128.566 324.602 129.683C326.48 130.921 328.064 132.48 329.572 134.105C330.512 135.115 331.368 136.198 332.221 137.278C334.71 140.428 335.969 144.082 336.867 147.876C336.941 148.208 336.979 148.547 336.979 148.886C337.006 151.805 337.084 154.725 336.572 157.621C336.317 159.1 335.682 160.494 334.723 161.679C334.045 162.533 333.164 162.979 331.988 162.961C327.033 162.909 322.069 163.072 317.126 162.831C312.246 162.597 307.367 162.644 302.491 162.463C300.797 162.401 299.098 162.258 297.421 162.053C292.861 161.498 288.248 161.433 283.712 160.597C282.329 160.336 280.843 160.727 279.436 160.597C276.621 160.336 274.565 160.688 271.743 160.597C269.623 160.541 267.672 160.575 265.578 160.896C259.189 161.844 251.9 161.004 245.455 160.896C244.555 160.879 243.584 161.222 242.744 160.896C242.211 160.896 241.592 160.569 241.042 159.99C240.723 159.963 240.55 159.429 240.526 159.13C240.357 156.637 239.759 154.511 240.107 152.015C240.328 150.419 240.86 148.86 241.279 147.293C241.788 145.397 243.044 144.096 244.856 143.251C247.401 142.063 249.964 140.885 252.728 140.259C256.175 139.481 259.728 139.233 263.256 139.524C266.146 139.729 268.998 140.285 271.743 141.179C272.317 141.369 272.728 141.179 273.007 140.735C273.738 139.564 274.714 138.581 275.61 137.534C276.959 135.956 278.414 134.489 280.108 133.256C281.54 132.216 283.106 131.481 284.977 131.517C286.47 131.544 287.951 131.528 289.437 131.517C293.889 131.5 297.936 132.671 301.517 135.245C302.6 136.006 303.728 136.7 304.892 137.47Z" fill="#FA8AA7"/>
<path d="M49.712 241.736C52.784 243.848 54.48 246.728 54.48 249.864C54.48 253 52.784 255.88 49.712 257.992C46.864 259.944 43.12 261.032 39.184 261.032C35.248 261.032 31.504 259.944 28.688 257.992C25.616 255.88 23.92 253 23.92 249.864C23.92 246.728 25.616 243.848 28.688 241.736C31.504 239.816 35.248 238.728 39.184 238.728C43.12 238.728 46.864 239.816 49.712 241.736ZM39.184 256.776C45.168 256.776 50.256 253.608 50.256 249.864C50.256 246.12 45.168 242.952 39.184 242.952C33.2 242.952 28.144 246.12 28.144 249.864C28.144 253.608 33.2 256.776 39.184 256.776ZM85.332 247.912C87.604 249.928 87.604 252.36 87.604 253.192C87.604 255.208 86.804 256.904 85.204 258.184C82.932 260.008 79.188 260.936 73.78 261C73.46 261 73.14 261.032 72.852 261.032C62.708 261.032 57.972 258.824 57.044 253.704L61.204 252.936C61.428 254.12 61.94 256.904 73.748 256.744C79.444 256.68 81.684 255.56 82.516 254.888C83.284 254.248 83.348 253.672 83.348 253.192C83.348 252.232 83.348 249.32 74.484 249.32C65.844 249.32 59.572 250.504 59.54 250.504L57.012 250.984V238.664H87.604V242.92H61.236V245.928C63.956 245.544 68.692 245.064 74.484 245.064C79.604 245.064 83.156 245.992 85.332 247.912ZM95.2975 261.032H91.0415V256.744H95.2975V261.032ZM103.399 238.632H107.655V261.032H103.399V243.592L100.935 245.096L98.7273 241.48L103.367 238.632H103.399ZM136.892 241.736C139.964 243.848 141.66 246.728 141.66 249.864C141.66 253 139.964 255.88 136.892 257.992C134.044 259.944 130.3 261.032 126.364 261.032C122.428 261.032 118.684 259.944 115.868 257.992C112.796 255.88 111.1 253 111.1 249.864C111.1 246.728 112.796 243.848 115.868 241.736C118.684 239.816 122.428 238.728 126.364 238.728C130.3 238.728 134.044 239.816 136.892 241.736ZM126.364 256.776C132.348 256.776 137.436 253.608 137.436 249.864C137.436 246.12 132.348 242.952 126.364 242.952C120.38 242.952 115.324 246.12 115.324 249.864C115.324 253.608 120.38 256.776 126.364 256.776Z" fill="#1F2225"/>
<path d="M243.712 241.736C240.864 239.816 237.12 238.728 233.184 238.728C229.248 238.728 225.504 239.816 222.688 241.736C219.616 243.848 217.92 246.728 217.92 249.864C217.92 253 219.616 255.88 222.688 257.992C225.504 259.944 229.248 261.032 233.184 261.032C237.12 261.032 240.864 259.944 243.712 257.992C246.784 255.88 248.48 253 248.48 249.864C248.48 246.728 246.784 243.848 243.712 241.736ZM233.184 256.776C227.2 256.776 222.144 253.608 222.144 249.864C222.144 246.12 227.2 242.952 233.184 242.952C239.168 242.952 244.256 246.12 244.256 249.864C244.256 253.608 239.168 256.776 233.184 256.776ZM279.332 247.912C277.156 245.992 273.604 245.064 268.484 245.064C262.692 245.064 257.956 245.544 255.236 245.928V242.92H281.604V238.664H251.012V250.984L253.54 250.504C253.572 250.504 259.844 249.32 268.484 249.32C277.348 249.32 277.348 252.232 277.348 253.192C277.348 253.672 277.284 254.248 276.516 254.888C275.684 255.56 273.444 256.68 267.748 256.744C255.94 256.904 255.428 254.12 255.204 252.936L251.044 253.704C251.972 258.824 256.708 261.032 266.852 261.032C267.14 261.032 267.46 261 267.78 261C273.188 260.936 276.932 260.008 279.204 258.184C280.804 256.904 281.604 255.208 281.604 253.192C281.604 252.36 281.604 249.928 279.332 247.912ZM289.297 261.032V256.744H285.041V261.032H289.297ZM297.399 238.632H297.367L292.727 241.48L294.935 245.096L297.399 243.592V261.032H301.655V238.632H297.399ZM311.436 256.744C312.94 255.848 315.82 254.664 321.004 253.64C321.324 253.576 321.676 253.512 322.06 253.416C327.148 252.456 334.86 250.984 335.756 245.96C336.268 243.048 334.156 240.456 330.508 239.496C327.148 238.6 323.596 238.6 320.14 238.6H319.98C313.932 238.6 309.676 239.816 307.34 242.216C305.804 243.784 305.42 245.48 305.356 246.568H309.644C309.708 246.184 309.9 245.704 310.38 245.224C311.244 244.328 313.612 242.856 319.98 242.856H320.14C323.308 242.856 326.604 242.856 329.42 243.624C330.54 243.912 331.5 244.584 331.404 245.224C331.34 245.48 331.148 246.44 328.3 247.496C326.092 248.328 323.404 248.84 321.26 249.256C320.876 249.32 320.492 249.384 320.172 249.448C315.052 250.472 311.18 251.912 308.556 253.64C304.94 255.976 305.1 261 305.1 261H335.98V256.744H311.436Z" fill="#1F2225"/>
<path d="M190.694 188.767H195.644V224.366H190.694V188.767ZM167.252 203.933C167.252 196.172 171.212 191.301 176.597 191.301C181.943 191.301 185.863 196.172 185.863 203.933C185.863 211.734 181.943 216.605 176.597 216.605C171.212 216.605 167.252 211.734 167.252 203.933ZM172.004 203.933C172.004 209.239 173.865 212.17 176.597 212.17C179.29 212.17 181.151 209.239 181.151 203.933C181.151 198.627 179.29 195.736 176.597 195.736C173.865 195.736 172.004 198.627 172.004 203.933ZM200.423 204.488H232.537V208.408H218.836V211.774H213.926V208.408H200.423V204.488ZM202.521 220.525C210.085 219.812 213.886 216.763 213.886 213.912V213.239H218.915V213.912C218.915 216.921 222.558 219.852 230.24 220.525L228.656 224.207C222.756 223.613 218.519 221.634 216.341 218.783C214.203 221.594 210.005 223.653 204.105 224.207L202.521 220.525ZM203.63 195.934C203.63 191.697 208.62 189.242 216.46 189.242C224.34 189.242 229.29 191.697 229.29 195.934C229.29 200.092 224.34 202.587 216.46 202.587C208.62 202.587 203.63 200.092 203.63 195.934ZM208.699 195.934C208.699 197.875 211.51 198.904 216.46 198.904C221.41 198.904 224.221 197.875 224.221 195.934C224.221 193.915 221.41 192.885 216.46 192.885C211.51 192.885 208.699 193.915 208.699 195.934ZM260.322 188.807H264.955V224.287H260.322V188.807ZM233.871 214.031C239.019 210.784 240.959 204.408 240.959 198.31V196.41H235.138V192.45H251.017V196.41H245.711V198.31C245.711 204.25 247.532 210.269 252.64 213.239L249.789 216.763C246.661 214.902 244.562 211.734 243.374 207.933C242.147 212.09 240.048 215.615 236.801 217.634L233.871 214.031ZM248.483 205.002V201.003H253.155V189.44H257.709V222.663H253.155V205.002H248.483Z" fill="#1F2225"/>
<path d="M285.804 189.656H288.004V205.478H285.804V189.656ZM275.385 196.397C275.385 192.947 277.145 190.783 279.539 190.783C281.915 190.783 283.657 192.947 283.657 196.397C283.657 199.864 281.915 202.028 279.539 202.028C277.145 202.028 275.385 199.864 275.385 196.397ZM277.497 196.397C277.497 198.755 278.325 200.057 279.539 200.057C280.736 200.057 281.563 198.755 281.563 196.397C281.563 194.038 280.736 192.754 279.539 192.754C278.325 192.754 277.497 194.038 277.497 196.397ZM300.192 189.691H302.374V196.115H304.416V197.91H302.374V205.46H300.192V189.691ZM289.72 201.025C290.864 201.025 292.184 201.025 293.575 200.99V199.617C291.92 199.301 290.829 198.227 290.829 196.749C290.829 194.989 292.413 193.81 294.666 193.81C296.918 193.81 298.502 194.989 298.502 196.749C298.502 198.227 297.411 199.301 295.757 199.617V200.902C296.989 200.832 298.221 200.726 299.382 200.568L299.558 202.134C296.232 202.785 292.642 202.785 289.984 202.785L289.72 201.025ZM290.002 193.141V191.434H293.575V189.762H295.757V191.434H299.294V193.141H290.002ZM292.888 196.749C292.888 197.611 293.61 198.069 294.666 198.069C295.739 198.069 296.443 197.611 296.443 196.749C296.443 195.904 295.739 195.446 294.666 195.446C293.61 195.446 292.888 195.904 292.888 196.749ZM309.476 190.624C311.905 190.624 313.752 192.226 313.752 194.461C313.752 196.379 312.45 197.805 310.585 198.209V200.427C311.817 200.357 313.048 200.269 314.21 200.11L314.386 201.676C311.113 202.292 307.575 202.292 304.918 202.292L304.654 200.515C305.78 200.515 307.065 200.515 308.42 200.497V198.227C306.519 197.84 305.182 196.397 305.182 194.461C305.182 192.226 307.03 190.624 309.476 190.624ZM307.311 194.461C307.311 195.728 308.226 196.485 309.476 196.485C310.708 196.485 311.623 195.728 311.623 194.461C311.623 193.211 310.708 192.454 309.476 192.454C308.226 192.454 307.311 193.211 307.311 194.461ZM315.055 205.443V189.674H317.219V195.886H319.349V197.699H317.219V205.443H315.055ZM285.153 207.691H287.335V211.598H289.465V213.376H287.335V217.177H285.153V207.691ZM274.963 210.842V209.117H278.501V207.568H280.683V209.117H284.238V210.842H274.963ZM275.737 214.168C275.737 212.496 277.321 211.334 279.609 211.334C281.88 211.334 283.463 212.496 283.463 214.168C283.463 215.875 281.88 217.001 279.609 217.001C277.321 217.001 275.737 215.875 275.737 214.168ZM277.128 223.284V217.881H287.335V223.284H277.128ZM277.832 214.168C277.832 214.977 278.536 215.417 279.609 215.417C280.648 215.417 281.369 214.977 281.369 214.168C281.369 213.376 280.648 212.954 279.609 212.954C278.536 212.954 277.832 213.376 277.832 214.168ZM279.257 221.56H285.206V219.606H279.257V221.56ZM293.698 209.487C293.698 213.411 293.328 216.949 291.339 220.081L289.65 219.166C291.269 216.702 291.744 214.291 291.85 211.229H290.16V209.487H293.698ZM293.152 219.94C294.947 217.248 295.317 214.432 295.37 211.229H294.173V209.487H297.218C297.218 210.877 297.182 212.267 297.059 213.622H298.414V208.026H300.456V222.739H298.414V215.365H296.848C296.514 217.318 295.933 219.166 294.842 220.891L293.152 219.94ZM301.459 223.46V207.691H303.518V223.46H301.459ZM308.419 214.643H322.692V216.385H316.603V217.881H314.421V216.385H308.419V214.643ZM309.352 221.771C312.714 221.454 314.403 220.099 314.403 218.832V218.532H316.638V218.832C316.638 220.169 318.257 221.472 321.671 221.771L320.968 223.407C318.345 223.143 316.462 222.264 315.494 220.996C314.544 222.246 312.678 223.161 310.056 223.407L309.352 221.771ZM309.845 210.842C309.845 208.959 312.062 207.867 315.547 207.867C319.049 207.867 321.249 208.959 321.249 210.842C321.249 212.69 319.049 213.798 315.547 213.798C312.062 213.798 309.845 212.69 309.845 210.842ZM312.098 210.842C312.098 211.704 313.347 212.162 315.547 212.162C317.747 212.162 318.996 211.704 318.996 210.842C318.996 209.944 317.747 209.487 315.547 209.487C313.347 209.487 312.098 209.944 312.098 210.842ZM333.507 207.656H335.69V213.534H338.013V215.329H335.69V223.478H333.507V207.656ZM323.986 219.676V209.152H331.325V210.894H326.151V217.864C328.439 217.846 330.322 217.741 332.399 217.371L332.61 219.166C330.216 219.606 328.069 219.676 325.306 219.676H323.986Z" fill="#1F2225"/>
<line x1="153" y1="251.5" x2="207" y2="251.5" stroke="#1F2225" stroke-width="3"/>
<path d="M27.8778 12.8297C30.1107 10.6892 33.3137 8.22528 33.3137 6.26957C33.3137 4.91444 32.4667 3.95968 31.2348 3.95968C30.3262 3.95968 29.3869 4.63725 28.9711 5.6074L27.7546 5.06843C28.3551 3.6979 29.8027 2.72774 31.2348 2.72774C33.2521 2.72774 34.6688 4.19067 34.6688 6.26957C34.6688 8.62566 31.897 10.9201 29.7719 12.8297H34.8536V14.0308H28.0318L27.8778 12.8297ZM39.9427 12.9375C41.5442 12.9375 42.653 11.0895 42.653 8.44087C42.653 5.79219 41.5442 3.95968 39.9427 3.95968C38.3258 3.95968 37.217 5.79219 37.217 8.44087C37.217 11.0895 38.3258 12.9375 39.9427 12.9375ZM35.8619 8.44087C35.8619 5.11463 37.5558 2.75854 39.9427 2.75854C42.3296 2.75854 44.0081 5.11463 44.0081 8.44087C44.0081 11.7825 42.3296 14.1232 39.9427 14.1232C37.5558 14.1232 35.8619 11.7825 35.8619 8.44087ZM45.1766 12.8297C47.4095 10.6892 50.6125 8.22528 50.6125 6.26957C50.6125 4.91444 49.7656 3.95968 48.5336 3.95968C47.6251 3.95968 46.6857 4.63725 46.2699 5.6074L45.0534 5.06843C45.654 3.6979 47.1015 2.72774 48.5336 2.72774C50.5509 2.72774 51.9677 4.19067 51.9677 6.26957C51.9677 8.62566 49.1958 10.9201 47.0707 12.8297H52.1525V14.0308H45.3306L45.1766 12.8297ZM58.9662 8.25608C59.9672 8.85665 60.537 9.9346 60.537 10.874C60.537 12.7681 59.0278 14.1078 56.8565 14.1078C54.7006 14.1078 53.1761 12.7527 53.1761 10.8278H54.5312C54.5312 12.0443 55.486 12.9067 56.8565 12.9067C58.2425 12.9067 59.2126 12.0443 59.2126 10.8278C59.2126 9.65741 58.2425 8.84125 56.8873 8.84125H56.0712V7.65551H56.8873C58.1501 7.65551 59.0432 6.90094 59.0432 5.83839C59.0432 4.74505 58.1809 3.97508 56.9489 3.97508C55.717 3.97508 54.8546 4.74505 54.8546 5.85379H53.4995C53.4995 4.03668 54.9162 2.77394 56.9489 2.77394C58.9508 2.77394 60.383 4.02128 60.383 5.80759C60.383 6.65455 59.8594 7.65551 58.9662 8.25608ZM71.2252 1.5882H72.6265V11.6439H71.2252V7.02414H67.4986V5.88459H71.2252V4.43706H67.4986V3.31292H71.2252V1.5882ZM62.1704 9.68821V2.54295H63.5872V8.51786C65.3889 8.50246 67.0982 8.39467 69.0385 8.04049L69.1771 9.21083C67.052 9.59581 65.2195 9.68821 63.2176 9.68821H62.1704ZM63.8644 14.8932V10.7662H65.2657V13.7382H72.9653V14.8932H63.8644ZM87.2436 1.5728H88.6449V15.2011H87.2436V1.5728ZM77.9733 7.37832C77.9733 4.45246 79.4208 2.61995 81.4535 2.61995C83.4708 2.61995 84.9337 4.45246 84.9337 7.37832C84.9337 10.2888 83.4708 12.1521 81.4535 12.1521C79.4208 12.1521 77.9733 10.2888 77.9733 7.37832ZM79.3284 7.37832C79.3284 9.53421 80.2062 10.8893 81.4535 10.8893C82.7008 10.8893 83.5786 9.53421 83.5786 7.37832C83.5786 5.22242 82.7008 3.88269 81.4535 3.88269C80.2062 3.88269 79.3284 5.22242 79.3284 7.37832ZM99.6536 1.6036H101.07V7.30132H103.088V8.48707H101.07V15.1857H99.6536V1.6036ZM90.3678 11.4899C91.4304 11.4899 92.6623 11.4899 93.9559 11.4437V10.0578C92.4313 9.8422 91.4304 8.91824 91.4304 7.59391C91.4304 6.06938 92.7547 5.06843 94.6642 5.06843C96.5737 5.06843 97.8981 6.06938 97.8981 7.59391C97.8981 8.91824 96.8971 9.8422 95.3726 10.0578V11.3975C96.5583 11.3359 97.7595 11.2435 98.8682 11.0895L98.976 12.1059C96.0656 12.6603 92.9087 12.6603 90.568 12.6603L90.3678 11.4899ZM90.6142 4.32927V3.20512H93.9559V1.6344H95.3726V3.20512H98.6988V4.32927H90.6142ZM92.7701 7.59391C92.7701 8.47167 93.5247 9.02604 94.6642 9.02604C95.8038 9.02604 96.5583 8.47167 96.5583 7.59391C96.5583 6.70075 95.8038 6.14638 94.6642 6.14638C93.5247 6.14638 92.7701 6.70075 92.7701 7.59391ZM116.842 1.5882H118.182V15.1703H116.842V8.14828H115.087V14.4774H113.778V1.88078H115.087V6.97794H116.842V1.5882ZM107.11 11.8903V3.23592H112.13V4.37546H108.496V10.72C110.159 10.7046 111.422 10.6276 112.839 10.3504L112.993 11.5053C111.345 11.8287 109.959 11.8903 108.003 11.8903H107.11ZM119.659 8.22528H125.079V6.77775H121.198V2.21957H130.407V3.34371H122.584V5.6382H130.5V6.77775H126.48V8.22528H131.932V9.36482H119.659V8.22528ZM121.106 12.7219C121.106 11.1511 122.862 10.258 125.772 10.258C128.667 10.258 130.438 11.1511 130.438 12.7219C130.438 14.2926 128.667 15.1703 125.772 15.1703C122.862 15.1703 121.106 14.2926 121.106 12.7219ZM122.523 12.7219C122.523 13.615 123.724 14.0924 125.772 14.0924C127.82 14.0924 129.006 13.615 129.006 12.7219C129.006 11.8441 127.82 11.3513 125.772 11.3513C123.724 11.3513 122.523 11.8441 122.523 12.7219ZM142.863 1.5882H144.203V15.1703H142.863V1.5882ZM132.453 11.4591C134.363 10.2888 135.333 7.8249 135.333 5.37642V4.28307H132.854V3.12812H139.029V4.28307H136.704V5.37642C136.704 7.7171 137.643 10.0578 139.522 11.1511L138.675 12.1829C137.397 11.3975 136.504 10.0116 136.026 8.36387C135.549 10.1502 134.64 11.6747 133.316 12.5063L132.453 11.4591ZM138.013 7.57851V6.42357H140.138V1.89618H141.447V14.4928H140.138V7.57851H138.013Z" fill="#1F2225"/>
</svg>
