<svg width="42" height="39" viewBox="0 0 42 39" fill="none" xmlns="http://www.w3.org/2000/svg">
<g filter="url(#filter0_d_2253_21910)">
<rect x="6" y="15" width="4" height="6" fill="white"/>
<rect x="32" y="15" width="4" height="6" fill="white"/>
<rect x="22" y="17" width="6" height="4" fill="white"/>
<rect x="4" y="23" width="34" height="2" rx="1" fill="white"/>
<path fill-rule="evenodd" clip-rule="evenodd" d="M36 24H6V31C6 32.1046 6.89543 33 8 33H10V29C10 27.8954 10.8954 27 12 27H30C31.1046 27 32 27.8954 32 29V33H34C35.1046 33 36 32.1046 36 31V24Z" fill="white"/>
<path d="M12 31C12 29.8954 12.8954 29 14 29H28C29.1046 29 30 29.8954 30 31V33H12V31Z" fill="white"/>
<path fill-rule="evenodd" clip-rule="evenodd" d="M10 3H9.79318C9.00616 3 8.29231 3.46157 7.96934 4.17927L5.26934 10.1793C4.67377 11.5028 5.64187 13 7.09318 13H10V3ZM12 13H34.9068C36.3582 13 37.3263 11.5028 36.7307 10.1793L34.0307 4.17927C33.7077 3.46157 32.9939 3 32.2068 3H12V13Z" fill="white"/>
</g>
<defs>
<filter id="filter0_d_2253_21910" x="0.151661" y="0.434441" width="41.6967" height="37.6967" filterUnits="userSpaceOnUse" color-interpolation-filters="sRGB">
<feFlood flood-opacity="0" result="BackgroundImageFix"/>
<feColorMatrix in="SourceAlpha" type="matrix" values="0 0 0 0 0 0 0 0 0 0 0 0 0 0 0 0 0 0 127 0" result="hardAlpha"/>
<feOffset dy="1.28278"/>
<feGaussianBlur stdDeviation="1.92417"/>
<feComposite in2="hardAlpha" operator="out"/>
<feColorMatrix type="matrix" values="0 0 0 0 0.645833 0 0 0 0 0.645833 0 0 0 0 0.645833 0 0 0 0.2 0"/>
<feBlend mode="normal" in2="BackgroundImageFix" result="effect1_dropShadow_2253_21910"/>
<feBlend mode="normal" in="SourceGraphic" in2="effect1_dropShadow_2253_21910" result="shape"/>
</filter>
</defs>
</svg>
