<svg width="180" height="35" viewBox="0 0 180 35" fill="none" xmlns="http://www.w3.org/2000/svg">
<path d="M39.568 5.104C44.176 8.272 46.72 12.592 46.72 17.296C46.72 22 44.176 26.32 39.568 29.488C35.296 32.416 29.68 34.048 23.776 34.048C17.872 34.048 12.256 32.416 8.032 29.488C3.424 26.32 0.88 22 0.88 17.296C0.88 12.592 3.424 8.272 8.032 5.104C12.256 2.224 17.872 0.591998 23.776 0.591998C29.68 0.591998 35.296 2.224 39.568 5.104ZM23.776 27.664C32.752 27.664 40.384 22.912 40.384 17.296C40.384 11.68 32.752 6.928 23.776 6.928C14.8 6.928 7.216 11.68 7.216 17.296C7.216 22.912 14.8 27.664 23.776 27.664ZM93.202 14.368C96.61 17.392 96.61 21.04 96.61 22.288C96.61 25.312 95.41 27.856 93.01 29.776C89.602 32.512 83.986 33.904 75.874 34C75.394 34 74.914 34.048 74.482 34.048C59.266 34.048 52.162 30.736 50.77 23.056L57.01 21.904C57.346 23.68 58.114 27.856 75.826 27.616C84.37 27.52 87.73 25.84 88.978 24.832C90.13 23.872 90.226 23.008 90.226 22.288C90.226 20.848 90.226 16.48 76.93 16.48C63.97 16.48 54.562 18.256 54.514 18.256L50.722 18.976V0.495999H96.61V6.88H57.058V11.392C61.138 10.816 68.242 10.096 76.93 10.096C84.61 10.096 89.938 11.488 93.202 14.368ZM108.354 34.048H101.97V27.616H108.354V34.048ZM120.711 0.447997H127.095V34.048H120.711V7.888L117.015 10.144L113.703 4.72L120.663 0.447997H120.711ZM142.379 27.616H179.195V34H132.875C132.875 34 132.635 26.464 138.059 22.96C141.995 20.368 147.803 18.208 155.483 16.672C155.963 16.576 156.539 16.48 157.115 16.384C160.331 15.76 164.363 14.992 167.675 13.744C171.947 12.16 172.235 10.72 172.331 10.336C172.475 9.376 171.035 8.368 169.355 7.936C165.131 6.784 160.187 6.784 155.435 6.784H155.195C145.643 6.784 142.091 8.992 140.795 10.336C140.075 11.056 139.787 11.776 139.691 12.352H133.259C133.355 10.72 133.931 8.176 136.235 5.824C139.739 2.224 146.123 0.399998 155.195 0.399998H155.435C160.619 0.399998 165.947 0.399998 170.987 1.744C176.459 3.184 179.627 7.072 178.859 11.44C177.515 18.976 165.947 21.184 158.315 22.624C157.739 22.768 157.211 22.864 156.731 22.96C148.955 24.496 144.635 26.272 142.379 27.616Z" fill="#1F2225"/>
</svg>
