<svg width="178" height="35" viewBox="0 0 178 35" fill="none" xmlns="http://www.w3.org/2000/svg">
<path d="M38.9699 5.104C43.5779 8.272 46.1219 12.592 46.1219 17.296C46.1219 22 43.5779 26.32 38.9699 29.488C34.6979 32.416 29.0819 34.048 23.1779 34.048C17.2739 34.048 11.6579 32.416 7.43394 29.488C2.82594 26.32 0.28194 22 0.28194 17.296C0.28194 12.592 2.82594 8.272 7.43394 5.104C11.6579 2.224 17.2739 0.591998 23.1779 0.591998C29.0819 0.591998 34.6979 2.224 38.9699 5.104ZM23.1779 27.664C32.1539 27.664 39.7859 22.912 39.7859 17.296C39.7859 11.68 32.1539 6.928 23.1779 6.928C14.2019 6.928 6.61794 11.68 6.61794 17.296C6.61794 22.912 14.2019 27.664 23.1779 27.664ZM92.6039 14.368C96.0119 17.392 96.0119 21.04 96.0119 22.288C96.0119 25.312 94.8119 27.856 92.4119 29.776C89.0039 32.512 83.3879 33.904 75.2759 34C74.7959 34 74.3159 34.048 73.8839 34.048C58.6679 34.048 51.5639 30.736 50.1719 23.056L56.4119 21.904C56.7479 23.68 57.5159 27.856 75.2279 27.616C83.7719 27.52 87.1319 25.84 88.3799 24.832C89.5319 23.872 89.6279 23.008 89.6279 22.288C89.6279 20.848 89.6279 16.48 76.3319 16.48C63.3719 16.48 53.9639 18.256 53.9159 18.256L50.1239 18.976V0.495999H96.0119V6.88H56.4599V11.392C60.5399 10.816 67.6439 10.096 76.3319 10.096C84.0119 10.096 89.3399 11.488 92.6039 14.368ZM107.756 34.048H101.372V27.616H107.756V34.048ZM120.113 0.447997H126.497V34.048H120.113V7.888L116.417 10.144L113.105 4.72L120.065 0.447997H120.113ZM170.557 5.104C175.165 8.272 177.709 12.592 177.709 17.296C177.709 22 175.165 26.32 170.557 29.488C166.285 32.416 160.669 34.048 154.765 34.048C148.861 34.048 143.245 32.416 139.021 29.488C134.413 26.32 131.869 22 131.869 17.296C131.869 12.592 134.413 8.272 139.021 5.104C143.245 2.224 148.861 0.591998 154.765 0.591998C160.669 0.591998 166.285 2.224 170.557 5.104ZM154.765 27.664C163.741 27.664 171.373 22.912 171.373 17.296C171.373 11.68 163.741 6.928 154.765 6.928C145.789 6.928 138.205 11.68 138.205 17.296C138.205 22.912 145.789 27.664 154.765 27.664Z" fill="#1F2225"/>
</svg>
