<svg width="160" height="35" viewBox="0 0 160 35" fill="none" xmlns="http://www.w3.org/2000/svg">
<path d="M38.7847 5.104C43.3927 8.272 45.9367 12.592 45.9367 17.296C45.9367 22 43.3927 26.32 38.7847 29.488C34.5127 32.416 28.8967 34.048 22.9927 34.048C17.0887 34.048 11.4727 32.416 7.24869 29.488C2.64069 26.32 0.0966902 22 0.0966902 17.296C0.0966902 12.592 2.64069 8.272 7.24869 5.104C11.4727 2.224 17.0887 0.591998 22.9927 0.591998C28.8967 0.591998 34.5127 2.224 38.7847 5.104ZM22.9927 27.664C31.9687 27.664 39.6007 22.912 39.6007 17.296C39.6007 11.68 31.9687 6.928 22.9927 6.928C14.0167 6.928 6.43269 11.68 6.43269 17.296C6.43269 22.912 14.0167 27.664 22.9927 27.664ZM92.4187 14.368C95.8267 17.392 95.8267 21.04 95.8267 22.288C95.8267 25.312 94.6267 27.856 92.2267 29.776C88.8187 32.512 83.2027 33.904 75.0907 34C74.6107 34 74.1307 34.048 73.6987 34.048C58.4827 34.048 51.3787 30.736 49.9867 23.056L56.2267 21.904C56.5627 23.68 57.3307 27.856 75.0427 27.616C83.5867 27.52 86.9467 25.84 88.1947 24.832C89.3467 23.872 89.4427 23.008 89.4427 22.288C89.4427 20.848 89.4427 16.48 76.1467 16.48C63.1867 16.48 53.7787 18.256 53.7307 18.256L49.9387 18.976V0.495999H95.8267V6.88H56.2747V11.392C60.3547 10.816 67.4587 10.096 76.1467 10.096C83.8267 10.096 89.1547 11.488 92.4187 14.368ZM107.571 34.048H101.187V27.616H107.571V34.048ZM119.928 0.447997H126.312V34.048H119.928V7.888L116.232 10.144L112.92 4.72L119.88 0.447997H119.928ZM153.499 0.447997H159.883V34.048H153.499V7.888L149.803 10.144L146.491 4.72L153.451 0.447997H153.499Z" fill="#1F2225"/>
</svg>
