<svg width="358" height="616" viewBox="0 0 358 616" fill="none" xmlns="http://www.w3.org/2000/svg">
<path d="M54.6787 408.227C59.3039 405.33 64.0313 402.582 68.5163 399.501C73.7439 395.908 78.9974 394.784 84.3597 395.804C89.7219 396.823 95.1311 397.826 100.296 399.262C110.664 402.14 120.567 405.751 129.508 410.879C143.855 419.107 158.371 427.133 172.777 435.285C184.032 441.655 195.564 447.723 204.906 456.245C205.74 457.063 206.7 457.768 207.767 458.345C219.141 463.953 224.849 474.005 230.584 484.022C233.696 489.46 232.675 492.292 225.992 496.705C221.141 499.906 216.149 502.91 211.201 505.97C210.279 506.547 209.24 507.497 208.387 507.532C199.256 507.919 190.652 514.236 181.262 513.806C172.335 513.411 162.989 514.42 153.787 515.112C143.559 515.875 133.302 516.669 123.02 518.024C111.319 519.568 100.714 517.771 90.9627 514.572C76.0936 509.7 62.0456 503.451 50.7312 493.803C49.4098 492.685 47.7744 491.692 46.8844 490.271C40.3981 479.733 32.2775 470.069 28.9778 457.769C26.128 447.087 26.0102 435.965 33.3506 424.304C35.0824 421.35 37.6722 418.762 40.7798 416.881C45.4838 414.096 50.0623 411.125 54.6787 408.227Z" fill="#004628"/>
<path d="M277.322 430.227C276.225 420.264 275.533 410.704 276.488 401.029C277.042 395.469 276.243 390.066 275.88 384.614C275.757 382.807 274.573 381.284 274.44 379.397C274.053 374.238 272.853 369.238 272.348 364.083C271.687 357.296 271.26 350.431 269.687 343.81C269.03 341.172 268.128 338.614 266.991 336.169C264.487 330.727 262.532 325.022 261.157 319.137C259.979 314.124 258.081 309.344 255.523 304.948C252.785 300.151 249.982 295.398 246.54 291.097C243.118 286.784 239.079 283.021 234.545 279.922C233.629 279.299 232.773 278.887 231.686 279.734C230.77 280.466 230.028 279.83 229.235 279.41C227.112 278.281 227.093 278.305 225.552 280.188C225.157 280.671 224.778 281.166 224.414 281.673C220.427 287.16 220.179 285.163 223.027 292.248C226.261 300.335 229.321 308.487 232.016 316.786C233.641 321.771 234.731 326.971 236.039 332.076C236.188 332.664 236.264 333.271 236.267 333.885C236.309 343.597 238.562 352.826 241.09 362.004C242.017 365.365 242.214 368.909 242.358 372.408C242.606 378.209 242.576 384.025 242.993 389.797C243.256 393.429 244.079 396.988 244.713 400.574C246.221 408.836 246.382 417.189 245.903 425.661C245.642 430.402 245.783 435.152 245.832 439.892C245.878 444.79 245.883 449.682 246.209 454.544C246.631 460.806 246.159 467.055 245.711 473.333C245.443 476.995 245.616 480.666 245.381 484.331C244.786 493.516 244.12 502.701 243.383 511.884C243.049 516.008 242.45 520.124 241.968 524.243C241.899 524.853 241.925 525.494 241.736 526.071C239.805 531.969 238.945 538.088 237.229 544.049C235.611 549.67 233.757 555.29 232.986 561.111C232.799 562.329 232.534 563.536 232.191 564.726C230.598 570.699 228.79 576.642 229.166 582.862C229.179 583.475 229.1 584.091 228.932 584.688C228.125 587.896 229.034 590.16 231.802 591.917C234.931 593.901 237.769 596.329 240.776 598.508C242.108 599.471 242.831 599.36 243.896 598.062C246.966 594.327 249.937 590.545 251.403 585.821C251.946 584.065 252.956 582.444 253.667 580.729C255.694 575.859 257.713 570.986 259.667 566.089C262.43 559.16 264.537 552.036 266.361 544.845C266.925 542.597 267.347 540.321 267.625 538.032C268.679 529.488 269.636 520.941 270.668 512.398C270.85 510.873 271.162 509.358 271.479 507.846C271.862 506.03 272.27 504.236 272.012 502.374C271.69 500.055 272.698 497.827 272.914 495.535C273.069 493.9 272.458 491.913 273.822 490.75C274.963 489.78 276.742 490.215 278.238 490.224C281.168 490.245 283.963 489.236 286.729 488.47C298.081 485.323 309.388 481.975 320.687 478.563C326.715 476.738 332.345 473.938 337.841 470.639C347.791 464.673 357.698 458.614 367.838 452.976C373.635 449.754 379.162 445.974 384.669 442.228C389.407 439.003 394.326 436.063 398.797 432.409C403.997 428.162 408.834 423.595 412.861 418.173C414.721 415.67 416.603 413.183 418.552 410.741C421.504 407.053 423.462 402.822 425.496 398.631C426.502 396.558 426.35 394.366 425.752 392.333C424.938 389.574 423.707 387.098 421.214 385.353C417.322 382.627 413.585 379.68 409.878 376.707C406.943 374.355 403.665 372.728 400.14 371.439C396.084 369.96 392.109 368.281 388.001 366.939C382.271 365.046 376.274 364.659 370.179 365.033C366.105 365.28 362.022 365.58 357.947 365.688C354.774 365.79 351.622 366.513 348.664 367.815C340.391 371.322 332.772 376.081 325.199 380.893C319.188 384.71 313.732 389.357 308.648 394.433C306.224 396.845 303.668 399.137 301.052 401.335C298.88 403.158 297.094 405.295 295.386 407.525C290.359 414.09 285.344 420.663 280.29 427.207C279.527 428.175 278.999 429.33 277.322 430.227Z" fill="#004628"/>
<path d="M34.9574 203.195C34.0997 201.61 32.9817 200.27 31.678 199.263C27.8116 195.9 24.516 191.796 21.3147 187.577C19.1032 184.549 17.3453 181.051 16.1252 177.252C15.0013 173.929 14.0486 170.509 13.1723 167.069C12.0935 162.882 11.4902 158.53 11.3797 154.14C11.1971 146.456 11.1339 138.764 11.1187 131.078C11.0938 126.184 12.1773 121.387 14.2447 117.24C17.815 110.035 22.5024 103.795 28.034 98.883C30.6632 96.5259 33.6556 95.388 36.6552 94.4708C39.0396 93.7337 41.5916 93.4423 44.0505 92.943C52.4344 91.2488 60.8641 92.3349 69.2567 91.8341C71.9058 91.7489 74.5291 92.543 76.858 94.1351C81.1284 96.8378 85.4174 99.4925 90.0078 101.29C90.7396 101.548 91.4364 101.942 92.0739 102.461C95.0754 105.088 98.7207 106.246 101.652 109.06C102.697 110.068 103.534 109.546 103.676 107.772C104.025 103.513 105.58 99.6879 106.314 95.568C106.728 93.23 107.897 91.2415 109.213 89.6094C111.06 87.2707 113.083 85.1577 115.253 83.299C120.15 79.2154 125.184 75.381 130.178 71.4754C132.72 69.4604 135.428 67.7912 138.257 66.4965C142.395 64.6594 146.517 62.7509 150.6 60.7413C153.313 59.4097 156.158 58.7748 158.994 58.1698C161.953 57.5395 164.971 57.3383 167.946 56.7974C171.418 56.1613 174.894 55.5251 178.324 54.6091C183.237 53.3037 188.253 52.6786 193.281 52.745C199.57 52.8289 205.861 52.7577 212.152 52.5313C213.28 52.4321 214.412 52.6237 215.48 53.0941C216.547 53.5646 217.526 54.3039 218.356 55.2658C219.615 56.8128 221.088 58.0603 222.705 58.9463C223.763 57.8295 224.697 56.5405 225.48 55.1136C229.288 48.6932 233.756 42.9268 238.771 37.9616C240.251 36.5124 241.646 34.9353 242.948 33.2417C245.757 29.6618 248.866 26.4696 252.224 23.7199C256.927 19.8236 261.606 15.8917 266.294 11.9776C268.175 10.4073 270.218 9.15982 272.368 8.26869C276.412 6.59378 280.334 4.33541 284.595 3.64864C289.185 2.91041 293.712 1.59408 298.402 1.66033C304.567 1.75365 310.731 1.68386 316.895 1.45096C322.119 1.27247 327.121 2.70775 332.153 4.14267C335.845 5.15631 339.357 7.01885 342.508 9.63486C343.275 10.1715 343.964 10.8659 344.546 11.6885C347.393 16.3527 349.819 21.338 351.032 27.0233C353.052 36.4052 355.244 45.7673 356.396 55.368C356.967 60.1356 357.667 64.9017 357.589 69.8198C357.471 77.191 357.727 84.57 357.782 91.9453C357.834 99.1057 355.829 105.424 352.515 111.101C351.764 112.348 351.071 113.647 350.439 114.991C348.951 118.072 347.324 121.045 345.567 123.896C341.192 131.37 335.43 136.794 329.264 141.691C327.675 142.95 326.155 144.34 324.62 145.7C324.515 145.783 324.429 145.899 324.372 146.037C324.315 146.175 324.288 146.33 324.295 146.485C324.301 146.641 324.341 146.791 324.41 146.922C324.478 147.052 324.573 147.158 324.685 147.227C329.091 149.63 333.015 153.053 337.052 156.253C338.563 157.403 339.862 158.938 340.864 160.757C341.511 161.92 342.272 162.976 343.13 163.901C346.75 167.9 349.452 172.822 352.344 177.593C353.548 179.603 354.597 181.745 355.84 183.73C359.299 189.205 361.42 195.662 364.401 201.482C364.813 202.277 365.093 203.167 365.225 204.098C365.522 206.303 366.31 208.263 366.998 210.291C369.06 216.201 370.14 222.565 370.172 228.999C370.179 235.903 370.19 242.813 370.407 249.709C370.668 257.601 369.784 265.304 368.727 273.002C367.56 281.495 365.831 289.809 364.165 298.153C363.544 301.188 362.612 304.108 361.392 306.843C360.111 309.74 358.219 312.142 355.919 313.792C354.637 314.754 353.4 315.81 352.218 316.955C349.476 319.486 346.336 321.091 343.111 322.375C337.489 324.611 331.64 325.739 325.849 326.968C322.407 327.699 318.905 328.187 315.454 328.995C314.461 329.176 313.456 329.249 312.452 329.215C304.145 329.309 295.838 329.361 287.538 329.532C285.15 329.576 282.785 328.922 280.63 327.623C276.984 325.504 273.453 323.05 269.816 320.979C265.125 318.305 260.76 314.815 255.906 312.591C255.301 312.361 254.729 312.012 254.21 311.559C251.631 309.023 248.555 307.398 245.999 304.879C242.525 301.44 238.432 299.224 234.971 295.784C234.405 295.194 233.772 295.535 233.496 296.457C232.011 301.439 230.411 306.381 229.081 311.426C227.415 317.729 224.784 323.332 222.025 328.955C219.798 333.498 217.388 337.846 214.963 342.211C212.876 345.965 210.256 349.104 207.873 352.52C207.566 353.03 207.168 353.444 206.709 353.727C203.564 355.266 200.807 357.738 197.563 359.124C191.754 361.612 186.068 364.541 180.338 367.309C174.727 370.016 169.144 372.735 163.364 374.937C156.384 377.606 149.259 379.357 142.197 381.532C140.853 381.913 139.477 382.095 138.097 382.074C128.911 382.178 119.724 382.317 110.542 382.385C105.725 382.535 101.003 380.633 97.1537 376.993C95.3335 375.313 93.6069 373.48 91.9856 371.508C88.3259 366.954 84.0254 363.291 80.5354 358.509C78.5909 355.834 76.552 353.261 74.5887 350.61C74.1547 350.039 73.7982 349.384 73.5331 348.67C71.4679 342.935 69.6786 337.059 69.1529 330.775C68.8378 327.037 67.9257 323.402 68.0213 319.593C68.0432 318.567 67.5622 317.504 67.2873 316.468C67.2531 316.279 67.1868 316.1 67.0928 315.944C66.9989 315.788 66.8794 315.659 66.7425 315.565C66.6055 315.471 66.4542 315.414 66.2986 315.399C66.1431 315.384 65.9869 315.41 65.8405 315.476C61.384 317.055 56.9324 318.639 52.4959 320.282C51.7688 320.533 51.0845 320.945 50.4759 321.498C47.271 324.578 43.428 326.239 39.9434 328.701C36.0507 331.461 31.7012 333.193 27.2506 334.436C22.2369 335.848 17.1059 336.529 11.9604 336.465C4.91517 336.36 -2.13106 336.589 -9.17918 336.651C-11.0641 336.657 -12.9437 336.878 -14.7945 337.311C-16.5278 337.716 -18.2863 337.935 -20.051 337.968C-26.591 338.107 -33.1325 338.116 -39.6684 338.19C-41.5499 338.151 -43.426 337.909 -45.2755 337.466C-50.2589 336.454 -55.0881 334.7 -59.9076 332.947C-65.9992 330.808 -71.5504 326.741 -76.0197 321.14C-77.7018 318.992 -78.804 316.243 -79.1712 313.281C-79.8588 308.497 -80.194 303.647 -80.1727 298.791C-80.1532 290.788 -80.1961 282.781 -80.4445 274.787C-80.6359 268.869 -79.6178 263.272 -78.3266 257.708C-76.6739 250.671 -73.9499 244.428 -69.401 239.603C-68.8371 238.98 -68.3314 238.279 -67.8934 237.515C-66.5989 235.414 -64.9018 233.754 -62.9569 232.685C-57.2057 229.23 -51.3309 226.132 -45.5551 222.743C-45.3233 222.623 -45.0994 222.481 -44.8852 222.318C-37.9538 216.594 -30.2212 213.576 -22.0596 212.111C-18.8313 211.532 -15.7342 210.351 -12.5715 209.474C-6.9393 207.906 -1.29857 206.39 4.35071 204.926C5.46382 204.679 6.59392 204.566 7.72539 204.589C12.3805 204.501 17.0365 204.484 21.692 204.431C24.3284 204.401 26.9552 204.371 29.5551 203.65C31.1053 203.203 32.7867 203.357 34.9574 203.195Z" fill="#F55B1D"/>
</svg>
