<svg width="43" height="41" viewBox="0 0 43 41" fill="none" xmlns="http://www.w3.org/2000/svg">
<g filter="url(#filter0_d_2253_21958)">
<path fill-rule="evenodd" clip-rule="evenodd" d="M19.8297 3.45119C20.5661 2.8496 21.6242 2.8496 22.3605 3.45119L28.7619 8.68122V5.31921C28.7619 4.21464 29.6574 3.31921 30.7619 3.31921H32.1738C33.2784 3.31921 34.1738 4.21464 34.1738 5.31921V13.045C34.1738 13.0641 34.1736 13.0831 34.173 13.1021L37.4516 15.7807C38.9077 16.9704 38.0665 19.3295 36.1862 19.3295H34.7845L21.0951 8.73126L7.40568 19.3295H6.00397C4.1237 19.3295 3.2825 16.9704 4.73859 15.7807L19.8297 3.45119Z" fill="white"/>
<path fill-rule="evenodd" clip-rule="evenodd" d="M21.0951 11.0605L7.11438 21.8843H35.0758L21.0951 11.0605ZM35.0758 26.3943V21.8844H7.11438V26.3943H35.0758ZM17.9382 26.3945H7.11438V33.4143C7.11438 34.5189 8.00981 35.4143 9.11438 35.4143H17.9382V26.3945ZM24.252 26.3945H35.0758V33.4143C35.0758 34.5189 34.1804 35.4143 33.0758 35.4143H24.252V26.3945Z" fill="white"/>
</g>
<defs>
<filter id="filter0_d_2253_21958" x="0.151661" y="0.434441" width="41.8869" height="40.111" filterUnits="userSpaceOnUse" color-interpolation-filters="sRGB">
<feFlood flood-opacity="0" result="BackgroundImageFix"/>
<feColorMatrix in="SourceAlpha" type="matrix" values="0 0 0 0 0 0 0 0 0 0 0 0 0 0 0 0 0 0 127 0" result="hardAlpha"/>
<feOffset dy="1.28278"/>
<feGaussianBlur stdDeviation="1.92417"/>
<feComposite in2="hardAlpha" operator="out"/>
<feColorMatrix type="matrix" values="0 0 0 0 0.645833 0 0 0 0 0.645833 0 0 0 0 0.645833 0 0 0 0.2 0"/>
<feBlend mode="normal" in2="BackgroundImageFix" result="effect1_dropShadow_2253_21958"/>
<feBlend mode="normal" in="SourceGraphic" in2="effect1_dropShadow_2253_21958" result="shape"/>
</filter>
</defs>
</svg>
