<svg width="46" height="49" viewBox="0 0 46 49" fill="none" xmlns="http://www.w3.org/2000/svg">
<g filter="url(#filter0_d_2253_21888)">
<path d="M15.5789 35.6315L8.73684 28.7894L18.3164 10.0865C19.0441 8.6656 20.9455 8.36651 22.0744 9.49535L34.873 22.294C36.0018 23.4228 35.7027 25.3242 34.2819 26.052L15.5789 35.6315Z" fill="white"/>
<rect x="25.0526" y="3" width="2.10526" height="5.26316" rx="1.05263" fill="white"/>
<rect x="35.09" y="7.21045" width="2.10526" height="5.26316" rx="1.05263" transform="rotate(45 35.09 7.21045)" fill="white"/>
<rect x="40.8421" y="16.6843" width="2.10526" height="5.26316" rx="1.05263" transform="rotate(90 40.8421 16.6843)" fill="white"/>
<path d="M6.97729 30.3684L13.6762 37.0673L12.3627 38.3808C11.4438 39.2997 9.95401 39.2997 9.03513 38.3808L5.66378 35.0095C4.7449 34.0906 4.7449 32.6008 5.66378 31.6819L6.97729 30.3684Z" fill="white"/>
<path d="M24.0621 33.7584L17.1579 37.2105L22.3472 41.6015C23.2814 42.392 24.6656 42.3344 25.5309 41.4691L28.1257 38.8743C29.0446 37.9554 29.0446 36.4656 28.1257 35.5467L26.7781 34.1992C26.062 33.483 24.9679 33.3055 24.0621 33.7584Z" fill="white"/>
</g>
<defs>
<filter id="filter0_d_2253_21888" x="0.56631" y="0.0611234" width="44.6841" height="47.9748" filterUnits="userSpaceOnUse" color-interpolation-filters="sRGB">
<feFlood flood-opacity="0" result="BackgroundImageFix"/>
<feColorMatrix in="SourceAlpha" type="matrix" values="0 0 0 0 0 0 0 0 0 0 0 0 0 0 0 0 0 0 127 0" result="hardAlpha"/>
<feOffset dy="1.46944"/>
<feGaussianBlur stdDeviation="2.20416"/>
<feComposite in2="hardAlpha" operator="out"/>
<feColorMatrix type="matrix" values="0 0 0 0 0.645833 0 0 0 0 0.645833 0 0 0 0 0.645833 0 0 0 0.2 0"/>
<feBlend mode="normal" in2="BackgroundImageFix" result="effect1_dropShadow_2253_21888"/>
<feBlend mode="normal" in="SourceGraphic" in2="effect1_dropShadow_2253_21888" result="shape"/>
</filter>
</defs>
</svg>
