<svg width="41" height="40" viewBox="0 0 41 40" fill="none" xmlns="http://www.w3.org/2000/svg">
<path d="M17.3622 5.62399C17.2856 5.5474 17.1932 5.48853 17.0914 5.45153C16.9897 5.41453 16.881 5.40029 16.7731 5.40982C16.6653 5.41936 16.5608 5.45243 16.4671 5.50671C16.3734 5.56099 16.2927 5.63515 16.2308 5.72398C14.6682 7.95412 13.8309 10.6116 13.8328 13.3347C13.8341 13.918 13.8731 14.5007 13.9494 15.079L1.07794 32.6336C0.656638 33.2034 0.454538 33.9058 0.508602 34.6124C0.562666 35.3189 0.86928 35.9824 1.37237 36.4815L4.01851 39.1276C4.51758 39.6307 5.18108 39.9373 5.88765 39.9914C6.59422 40.0455 7.29664 39.8434 7.86644 39.4221L25.4228 26.5469C26.0005 26.6244 26.5825 26.6646 27.1653 26.6672C29.8874 26.6698 32.5441 25.8338 34.7742 24.2729C34.863 24.211 34.9372 24.1303 34.9914 24.0366C35.0457 23.9429 35.0788 23.8384 35.0883 23.7306C35.0979 23.6227 35.0836 23.514 35.0466 23.4123C35.0096 23.3105 34.9508 23.2181 34.8742 23.1415L17.3622 5.62399ZM17.8455 24.7488L14.8827 27.7116C14.7465 27.855 14.583 27.9696 14.4018 28.0488C14.2206 28.1279 14.0254 28.17 13.8277 28.1726C13.63 28.1751 13.4338 28.138 13.2506 28.0635C13.0674 27.989 12.901 27.8786 12.7612 27.7388C12.6214 27.599 12.511 27.4326 12.4365 27.2494C12.362 27.0662 12.3249 26.87 12.3275 26.6723C12.33 26.4746 12.3721 26.2794 12.4512 26.0982C12.5304 25.917 12.645 25.7535 12.7884 25.6173L15.7512 22.6545C16.0313 22.3884 16.4042 22.2423 16.7905 22.2472C17.1768 22.2521 17.5459 22.4078 17.819 22.681C18.0922 22.9541 18.2479 23.3232 18.2528 23.7095C18.2577 24.0958 18.1116 24.4687 17.8455 24.7488ZM38.1036 20.9416C38.0417 21.0308 37.9609 21.1052 37.8671 21.1597C37.7732 21.2142 37.6685 21.2474 37.5604 21.2569C37.4523 21.2664 37.3434 21.2521 37.2414 21.2149C37.1395 21.1777 37.0469 21.1185 36.9703 21.0416L19.4584 3.52966C19.3815 3.45309 19.3223 3.36055 19.2851 3.25859C19.2479 3.15663 19.2336 3.04774 19.2431 2.93962C19.2526 2.83151 19.2858 2.72681 19.3403 2.63294C19.3948 2.53906 19.4692 2.45831 19.5584 2.39639C22.1234 0.606577 25.2365 -0.223486 28.3521 0.051657C31.4677 0.3268 34.3871 1.6896 36.5988 3.90124C38.8104 6.11289 40.1732 9.03231 40.4483 12.1479C40.7235 15.2635 39.8934 18.3766 38.1036 20.9416Z" fill="white"/>
</svg>
