<svg width="42" height="43" viewBox="0 0 42 43" fill="none" xmlns="http://www.w3.org/2000/svg">
<g filter="url(#filter0_d_2253_21855)">
<path d="M18.3329 7.78039C18.2678 7.71529 18.1892 7.66525 18.1027 7.6338C18.0162 7.60235 17.9239 7.59025 17.8322 7.59835C17.7405 7.60645 17.6517 7.63456 17.572 7.6807C17.4924 7.72684 17.4238 7.78988 17.3712 7.86538C16.043 9.761 15.3313 12.0199 15.3329 14.3345C15.334 14.8303 15.3671 15.3256 15.432 15.8172L4.49125 30.7385C4.13314 31.2229 3.96136 31.8199 4.00731 32.4205C4.05327 33.0211 4.31389 33.5851 4.74151 34.0093L6.99073 36.2585C7.41494 36.6861 7.97892 36.9467 8.5795 36.9927C9.18009 37.0386 9.77714 36.8669 10.2615 36.5088L25.1844 25.5648C25.6754 25.6307 26.1702 25.6649 26.6655 25.6671C28.9793 25.6693 31.2375 24.9587 33.133 23.632C33.2085 23.5793 33.2716 23.5108 33.3177 23.4311C33.3639 23.3515 33.392 23.2627 33.4001 23.171C33.4082 23.0793 33.3961 22.9869 33.3646 22.9004C33.3332 22.8139 33.2831 22.7354 33.218 22.6703L18.3329 7.78039ZM18.7437 24.0365L16.2253 26.5549C16.1095 26.6767 15.9706 26.7742 15.8165 26.8415C15.6625 26.9087 15.4966 26.9445 15.3285 26.9467C15.1605 26.9488 14.9937 26.9173 14.838 26.854C14.6823 26.7907 14.5409 26.6968 14.422 26.578C14.3032 26.4591 14.2093 26.3177 14.146 26.162C14.0827 26.0063 14.0512 25.8395 14.0533 25.6715C14.0555 25.5034 14.0913 25.3375 14.1585 25.1835C14.2258 25.0294 14.3233 24.8905 14.4451 24.7747L16.9635 22.2563C17.2016 22.0301 17.5186 21.9059 17.8469 21.9101C18.1753 21.9143 18.489 22.0466 18.7212 22.2788C18.9534 22.511 19.0857 22.8247 19.0899 23.1531C19.0941 23.4814 18.9699 23.7984 18.7437 24.0365ZM35.9631 20.8004C35.9104 20.8762 35.8418 20.9394 35.762 20.9857C35.6822 21.032 35.5932 21.0603 35.5013 21.0684C35.4094 21.0765 35.3169 21.0643 35.2302 21.0327C35.1435 21.001 35.0649 20.9508 34.9998 20.8854L20.1146 6.00021C20.0492 5.93513 19.999 5.85647 19.9673 5.7698C19.9357 5.68313 19.9235 5.59058 19.9316 5.49868C19.9398 5.40678 19.968 5.31779 20.0143 5.238C20.0606 5.15821 20.1238 5.08957 20.1996 5.03693C22.3799 3.51559 25.026 2.81004 27.6743 3.04391C30.3225 3.27778 32.804 4.43616 34.6839 6.31606C36.5638 8.19596 37.7222 10.6775 37.9561 13.3257C38.19 15.974 37.4844 18.6201 35.9631 20.8004Z" fill="white"/>
</g>
<defs>
<filter id="filter0_d_2253_21855" x="0.151661" y="0.434441" width="41.6967" height="41.6967" filterUnits="userSpaceOnUse" color-interpolation-filters="sRGB">
<feFlood flood-opacity="0" result="BackgroundImageFix"/>
<feColorMatrix in="SourceAlpha" type="matrix" values="0 0 0 0 0 0 0 0 0 0 0 0 0 0 0 0 0 0 127 0" result="hardAlpha"/>
<feOffset dy="1.28278"/>
<feGaussianBlur stdDeviation="1.92417"/>
<feComposite in2="hardAlpha" operator="out"/>
<feColorMatrix type="matrix" values="0 0 0 0 0.645833 0 0 0 0 0.645833 0 0 0 0 0.645833 0 0 0 0.2 0"/>
<feBlend mode="normal" in2="BackgroundImageFix" result="effect1_dropShadow_2253_21855"/>
<feBlend mode="normal" in="SourceGraphic" in2="effect1_dropShadow_2253_21855" result="shape"/>
</filter>
</defs>
</svg>
