<svg width="140" height="107" viewBox="0 0 140 107" fill="none" xmlns="http://www.w3.org/2000/svg">
<path d="M18.6708 29.4221C18.2374 29.4221 17.8329 29.3932 17.4573 29.3932C16.9371 29.3932 16.2726 29.3932 15.5502 29.3932C12.9496 29.4221 7.48843 29.451 5.98589 27.9773C5.78362 27.7751 5.69693 27.6017 5.69693 27.3127C5.69693 26.5615 5.69693 24.9722 17.1972 24.9722C22.9473 24.9722 24.8255 26.2725 25.3456 26.8504C25.5768 27.0816 25.6924 27.3127 25.7213 27.4572H29.4776C29.4487 26.7348 29.2176 25.6657 28.3218 24.5966C26.5014 22.3717 22.774 21.2448 17.1972 21.2448C8.8754 21.2448 1.99836 21.7071 1.99836 27.3127C1.99836 28.5841 2.46068 29.7399 3.35643 30.6068C5.75472 33.0051 10.5224 33.1496 15.5791 33.1207C16.2726 33.1207 16.8794 33.0918 17.3417 33.1207C17.7462 33.1207 18.1796 33.1207 18.642 33.1207C23.2363 33.1785 25.9235 33.5541 25.9235 35.4034C25.9235 36.4436 24.421 37.715 17.3706 37.715C12.6318 37.715 9.97341 37.3972 8.09523 36.5881C6.44821 35.8946 6.01478 35.519 5.8992 34.9411H2.17173C2.40289 37.6861 4.02102 38.8997 6.65047 40.0266C9.01987 41.0379 12.025 41.4425 17.3706 41.4425C21.0403 41.4425 29.651 41.4425 29.651 35.4034C29.651 29.4799 22.485 29.451 18.6708 29.4221ZM56.1805 21.187L46.4428 37.2816L36.4451 21.187H32.6887V41.4136H36.3873V28.1796L44.6513 41.4136H48.2921L56.2094 28.353V41.4136H59.9368V21.187H56.1805ZM66.6826 41.4136V21.187H62.984V41.4136H66.6826ZM73.416 21.187H69.7174V41.4136H94.8561V37.715H73.416V21.187ZM96.6265 41.4425H124.308V37.715H100.354V32.1093H118.442V28.3819H100.354V24.9722H124.308V21.2448H96.6265V41.4425Z" fill="#1F2225"/>
<path d="M29.7955 67.7563L23.1496 51.0549H23.1207H19.1332L12.6318 67.7563L5.98589 51.0549H1.99836L10.0601 71.2815H15.2612L21.1558 56.1404L27.1949 71.2815H32.4249L40.2844 51.0549H36.268L29.7955 67.7563ZM47.0254 71.2815V51.0549H43.3269V71.2815H47.0254ZM50.0602 54.7824H62.7741V71.2815H66.5016V54.7824H79.2443V51.0549H50.0602V54.7824ZM106.402 58.3654H85.9447V51.0549H82.2461V71.2815H85.9447V62.0928H106.402V71.2815H110.13V51.0549H106.402V58.3654Z" fill="#1F2225"/>
<path d="M1.99836 101.178H29.6799V97.4508H5.72583V91.8452H23.8142V88.1177H5.72583V84.7081H29.6799V80.9806H1.99836V101.178ZM59.1878 97.6242L52.5419 80.9228H52.513H48.5255L42.0241 97.6242L35.3782 80.9228H31.3907L39.4524 101.149H44.6536L50.5482 86.0084L56.5872 101.149H61.8173L69.6767 80.9228H65.6603L59.1878 97.6242ZM96.8755 88.2333H76.4178V80.9228H72.7192V101.149H76.4178V91.9608H96.8755V101.149H100.603V80.9228H96.8755V88.2333ZM118.054 80.9228L103.635 101.149H108.114L111.004 97.1619H129.554L132.415 101.149H137.009L122.562 80.9228H118.054ZM113.662 93.4344L120.279 84.1591L126.896 93.4344H113.662Z" fill="#1F2225"/>
<path d="M2.7781 13.166L2.88109 13.9693H7.44366V13.166H4.04491C5.4662 11.8889 7.32007 10.3543 7.32007 8.7785C7.32007 7.3881 6.37254 6.40967 5.02334 6.40967C4.0655 6.40967 3.09737 7.05853 2.6957 7.97516L3.50934 8.33564C3.78742 7.68678 4.41568 7.23362 5.02334 7.23362C5.84728 7.23362 6.41374 7.87217 6.41374 8.7785C6.41374 10.0865 4.27149 11.7344 2.7781 13.166ZM10.6852 13.2381C9.60382 13.2381 8.86227 12.0022 8.86227 10.2307C8.86227 8.45923 9.60382 7.23362 10.6852 7.23362C11.7564 7.23362 12.4979 8.45923 12.4979 10.2307C12.4979 12.0022 11.7564 13.2381 10.6852 13.2381ZM7.95594 10.2307C7.95594 12.4656 9.08886 14.0311 10.6852 14.0311C12.2816 14.0311 13.4042 12.4656 13.4042 10.2307C13.4042 8.00606 12.2816 6.43027 10.6852 6.43027C9.08886 6.43027 7.95594 8.00606 7.95594 10.2307ZM14.0237 13.166L14.1267 13.9693H18.6893V13.166H15.2905C16.7118 11.8889 18.5657 10.3543 18.5657 8.7785C18.5657 7.3881 17.6181 6.40967 16.2689 6.40967C15.3111 6.40967 14.343 7.05853 13.9413 7.97516L14.7549 8.33564C15.033 7.68678 15.6613 7.23362 16.2689 7.23362C17.0929 7.23362 17.6593 7.87217 17.6593 8.7785C17.6593 10.0865 15.5171 11.7344 14.0237 13.166ZM23.0844 10.1071C23.6817 9.70544 24.0319 9.03599 24.0319 8.46953C24.0319 7.27481 23.0741 6.44057 21.7352 6.44057C20.3757 6.44057 19.4281 7.28511 19.4281 8.50042H20.3345C20.3345 7.75888 20.9112 7.24391 21.7352 7.24391C22.5591 7.24391 23.1359 7.75888 23.1359 8.49012C23.1359 9.20077 22.5385 9.70544 21.694 9.70544H21.1481V10.4985H21.694C22.6003 10.4985 23.2491 11.0443 23.2491 11.8271C23.2491 12.6407 22.6003 13.2175 21.6734 13.2175C20.7567 13.2175 20.1182 12.6407 20.1182 11.8271H19.2118C19.2118 13.1145 20.2315 14.0208 21.6734 14.0208C23.1256 14.0208 24.1349 13.1248 24.1349 11.858C24.1349 11.2297 23.7538 10.5088 23.0844 10.1071ZM31.1213 5.64753V6.80105H28.6289V7.55289H31.1213V8.52102H28.6289V9.28317H31.1213V12.3729H32.0585V5.64753H31.1213ZM25.0653 11.0649H25.7657C27.1046 11.0649 28.3302 11.0031 29.7515 10.7457L29.6588 9.96292C28.3611 10.1998 27.2179 10.2719 26.0129 10.2822V6.28608H25.0653V11.0649ZM26.1982 14.5461H32.2851V13.7736H27.1355V11.7859H26.1982V14.5461ZM41.5105 5.63723V14.7521H42.4478V5.63723H41.5105ZM35.3104 9.52005C35.3104 11.4666 36.2785 12.7128 37.638 12.7128C38.9872 12.7128 39.9656 11.4666 39.9656 9.52005C39.9656 7.56319 38.9872 6.33758 37.638 6.33758C36.2785 6.33758 35.3104 7.56319 35.3104 9.52005ZM36.2167 9.52005C36.2167 8.07815 36.8038 7.18212 37.638 7.18212C38.4722 7.18212 39.0593 8.07815 39.0593 9.52005C39.0593 10.9619 38.4722 11.8683 37.638 11.8683C36.8038 11.8683 36.2167 10.9619 36.2167 9.52005ZM49.6484 5.65783V14.7418H50.596V10.2616H51.9452V9.46855H50.596V5.65783H49.6484ZM43.438 12.27L43.5719 13.0527C45.1374 13.0527 47.2487 13.0527 49.1953 12.6819L49.1232 12.0022C48.3816 12.1052 47.5783 12.167 46.7852 12.2082V11.3121C47.8049 11.1679 48.4743 10.55 48.4743 9.66424C48.4743 8.64461 47.5886 7.97516 46.3115 7.97516C45.0344 7.97516 44.1486 8.64461 44.1486 9.66424C44.1486 10.55 44.8181 11.1679 45.8377 11.3121V12.2391C44.9726 12.27 44.1486 12.27 43.438 12.27ZM43.6028 7.4808H49.0099V6.72895H46.7852V5.67843H45.8377V6.72895H43.6028V7.4808ZM45.0447 9.66424C45.0447 9.06688 45.5493 8.69611 46.3115 8.69611C47.0736 8.69611 47.5783 9.06688 47.5783 9.66424C47.5783 10.2513 47.0736 10.6221 46.3115 10.6221C45.5493 10.6221 45.0447 10.2513 45.0447 9.66424ZM60.8204 5.64753V9.25227H59.6463V5.84322H58.7709V14.268H59.6463V10.035H60.8204V14.7315H61.7164V5.64753H60.8204ZM54.3113 12.5377H54.9086C56.2166 12.5377 57.1436 12.4965 58.2456 12.2803L58.1426 11.5078C57.1951 11.6932 56.3505 11.7447 55.2382 11.755V7.5117H57.6688V6.74955H54.3113V12.5377ZM62.5419 10.0865V10.8487H70.7504V10.0865H67.1045V9.11838H69.7926V8.35623H64.4988V6.82165H69.7308V6.0698H63.5718V9.11838H66.1672V10.0865H62.5419ZM63.51 13.0939C63.51 14.1444 64.6841 14.7315 66.6307 14.7315C68.567 14.7315 69.7514 14.1444 69.7514 13.0939C69.7514 12.0434 68.567 11.446 66.6307 11.446C64.6841 11.446 63.51 12.0434 63.51 13.0939ZM64.4576 13.0939C64.4576 12.5068 65.2609 12.1773 66.6307 12.1773C68.0005 12.1773 68.7935 12.5068 68.7935 13.0939C68.7935 13.6912 68.0005 14.0105 66.6307 14.0105C65.2609 14.0105 64.4576 13.6912 64.4576 13.0939ZM77.8996 5.64753V14.7315H78.7956V5.64753H77.8996ZM70.9373 12.2494L71.514 12.9497C72.3998 12.3935 73.0074 11.3739 73.3267 10.1792C73.646 11.2812 74.2433 12.2082 75.0982 12.7334L75.6646 12.0434C74.4081 11.3121 73.7799 9.74663 73.7799 8.18115V7.4499H75.3351V6.67746H71.2051V7.4499H72.8632V8.18115C72.8632 9.81873 72.2144 11.4666 70.9373 12.2494ZM74.6553 9.65394H76.0766V14.2783H76.952V5.85352H76.0766V8.8815H74.6553V9.65394Z" fill="#1F2225"/>
</svg>
