<svg width="36" height="44" viewBox="0 0 36 44" fill="none" xmlns="http://www.w3.org/2000/svg">
<g filter="url(#filter0_d_2253_21927)">
<path fill-rule="evenodd" clip-rule="evenodd" d="M6.94328 15.1782H28.6856C29.8544 15.1782 30.7741 16.1761 30.679 17.3409L29.1425 36.1629C29.0578 37.2009 28.1906 38.0001 27.1492 38.0001H8.47976C7.43829 38.0001 6.57113 37.2009 6.48639 36.1629L4.94991 17.3409C4.85482 16.1761 5.77454 15.1782 6.94328 15.1782ZM12.2254 19.8358C11.711 19.8358 11.2939 20.2528 11.2939 20.7673V32.8769C11.2939 33.3913 11.711 33.8084 12.2254 33.8084C12.7399 33.8084 13.1569 33.3913 13.1569 32.8769V20.7673C13.1569 20.2528 12.7399 19.8358 12.2254 19.8358ZM16.8829 20.7672C16.8829 20.2527 17.3 19.8357 17.8145 19.8357C18.3289 19.8357 18.746 20.2527 18.746 20.7672V32.8768C18.746 33.3912 18.3289 33.8083 17.8145 33.8083C17.3 33.8083 16.8829 33.3912 16.8829 32.8768V20.7672ZM23.4035 19.8357C22.889 19.8357 22.472 20.2527 22.472 20.7672V32.8768C22.472 33.3912 22.889 33.8083 23.4035 33.8083C23.918 33.8083 24.335 33.3912 24.335 32.8768V20.7672C24.335 20.2527 23.918 19.8357 23.4035 19.8357Z" fill="white"/>
<rect x="4" y="8.18872" width="28" height="4.82759" rx="2.07302" fill="white"/>
<path fill-rule="evenodd" clip-rule="evenodd" d="M11.7241 8.18867L12.8276 4.79336C13.1052 3.93931 13.9011 3.36108 14.7991 3.36108H21.2009C22.0989 3.36108 22.8948 3.9393 23.1724 4.79336L24.2759 8.18867H21.2948L20.9744 6.87435C20.7481 5.94574 19.9162 5.29226 18.9604 5.29226H17.0396C16.0838 5.29226 15.2519 5.94574 15.0256 6.87435L14.7052 8.18867H11.7241Z" fill="white"/>
</g>
<defs>
<filter id="filter0_d_2253_21927" x="0.151661" y="0.795525" width="35.6967" height="42.3358" filterUnits="userSpaceOnUse" color-interpolation-filters="sRGB">
<feFlood flood-opacity="0" result="BackgroundImageFix"/>
<feColorMatrix in="SourceAlpha" type="matrix" values="0 0 0 0 0 0 0 0 0 0 0 0 0 0 0 0 0 0 127 0" result="hardAlpha"/>
<feOffset dy="1.28278"/>
<feGaussianBlur stdDeviation="1.92417"/>
<feComposite in2="hardAlpha" operator="out"/>
<feColorMatrix type="matrix" values="0 0 0 0 0.645833 0 0 0 0 0.645833 0 0 0 0 0.645833 0 0 0 0.2 0"/>
<feBlend mode="normal" in2="BackgroundImageFix" result="effect1_dropShadow_2253_21927"/>
<feBlend mode="normal" in="SourceGraphic" in2="effect1_dropShadow_2253_21927" result="shape"/>
</filter>
</defs>
</svg>
