<svg width="348" height="224" viewBox="0 0 348 224" fill="none" xmlns="http://www.w3.org/2000/svg">
<g clip-path="url(#clip0_2296_22851)">
<mask id="path-1-inside-1_2296_22851" fill="white">
<path d="M0 0.0925293H348V223.093H0V0.0925293Z"/>
</mask>
<path d="M0 0.0925293H348V223.093H0V0.0925293Z" fill="white"/>
<g clip-path="url(#clip1_2296_22851)">
<rect width="2479.94" height="2696.97" transform="translate(-1092 -814.907)" fill="white"/>
<path d="M-288.496 524.586C-290.858 518.892 -292.443 512.55 -291.23 506.386C-290.016 500.222 -285.94 495.433 -281.911 491.081C-273.774 482.313 -264.406 474.612 -255.816 466.264C-238.635 449.568 -222.246 432.08 -206.505 414.041C-174.682 377.608 -145.465 338.991 -117.072 299.856C-88.5174 260.494 -60.7718 220.55 -31.91 181.399C-28.2375 176.416 -24.6298 171.336 -20.7956 166.467C-16.9614 161.597 -12.4962 157.504 -6.10577 158.944C0.284607 160.383 5.75284 165.884 10.7842 169.848C15.8156 173.811 21.2838 178.147 26.5417 182.289C31.7997 186.43 37.1708 190.62 42.4287 194.843C47.0233 198.515 51.7959 202.835 52.3459 209.08C52.896 215.325 49.5795 221.149 46.1497 226.067C42.1051 231.875 37.4782 237.311 33.1101 242.86C-0.896423 286.088 -34.9191 329.316 -68.9256 372.528C-76.3838 381.992 -84.2787 391.295 -90.119 401.891C-95.1019 410.919 -98.8067 421.337 -96.9462 431.756C-94.8916 443.307 -85.9126 451.089 -77.775 458.725C-67.696 468.206 -57.617 477.67 -47.538 487.15C-27.5095 505.982 -7.49707 524.813 12.5315 543.628C21.2354 551.814 30.1333 560.114 36.3295 570.435C42.5258 580.757 45.2922 593.182 45.6158 605.429C45.9393 617.676 44.176 630.003 42.0567 642.105C41.1345 647.346 40.6653 653.882 37.0091 658.072C33.1263 662.538 26.5418 662.166 21.3 663.654C12.3373 666.194 5.70428 673.167 -0.750793 679.492C-4.43942 683.116 -8.20895 686.724 -12.6094 689.49C-17.6085 692.629 -23.3194 694.36 -29.1758 694.845C-41.2448 695.865 -53.2652 692.338 -64.5899 688.584C-76.3676 684.686 -88.0805 680.576 -99.6156 676.046C-122.621 667.019 -145.044 656.164 -165.186 641.733C-186.638 626.363 -205.259 607.37 -224.22 589.137C-234.072 579.673 -243.909 570.193 -253.761 560.728C-263.614 551.264 -273.304 542.771 -282.299 533.112C-289.046 525.881 -297.378 514.232 -290.906 504.364C-290.227 503.312 -291.893 502.341 -292.589 503.377C-298.348 512.162 -293.365 522.402 -287.638 529.812C-283.917 534.617 -279.436 538.694 -275.068 542.9C-269.955 547.818 -264.843 552.736 -259.731 557.655C-239.508 577.101 -219.512 596.806 -198.982 615.945C-180.037 633.611 -159.879 649.255 -136.89 661.324C-113.901 673.393 -90.7823 681.871 -66.871 689.863C-55.611 693.632 -43.8333 697.256 -31.8129 696.932C-20.9088 696.641 -11.7519 692.305 -3.75992 685.058C3.66586 678.328 10.3474 669.608 20.0867 666.097C24.9563 664.333 30.4731 664.592 35.0839 662.069C39.6946 659.545 41.5066 654.74 42.5582 649.951C45.1143 638.27 46.8939 626.121 47.4601 614.181C48.0263 602.242 46.991 589.914 42.5582 578.686C38.1254 567.459 30.6024 558.528 22.2545 550.245C12.6123 540.668 2.50104 531.527 -7.38382 522.224C-28.0595 502.794 -48.7191 483.348 -69.3948 463.918C-74.2644 459.34 -79.2473 454.859 -83.9551 450.118C-88.4041 445.637 -92.4001 440.638 -94.2606 434.506C-97.8521 422.615 -92.8693 410.255 -86.8187 400.112C-79.9915 388.674 -71.1096 378.481 -62.9073 368.046C-54.1225 356.9 -45.354 345.737 -36.5693 334.59C-18.9027 312.135 -1.23615 289.696 16.4304 267.24C25.3122 255.948 34.2102 244.656 43.092 233.363C49.45 225.274 57.9112 214.435 52.9121 203.612C50.6472 198.71 46.1982 195.312 42.0728 192.044C36.5398 187.676 31.0069 183.308 25.4901 178.94C19.9734 174.572 14.4243 170.204 8.9075 165.836C4.5556 162.406 0.0257263 158.329 -5.52338 157.051C-16.654 154.495 -23.2223 166.483 -28.7714 173.973C-36.2457 184.036 -43.6229 194.164 -50.9678 204.323C-65.6738 224.676 -80.1856 245.157 -94.7783 265.606C-124.19 306.812 -153.909 347.84 -186.072 386.975C-201.878 406.211 -218.266 424.977 -235.464 443C-244.054 452.011 -252.839 460.828 -261.834 469.419C-270.829 478.009 -280.245 485.209 -287.46 494.738C-290.647 498.944 -292.961 503.328 -293.414 508.651C-293.899 514.297 -292.443 519.927 -290.291 525.104C-289.822 526.237 -287.946 525.735 -288.415 524.586H-288.496Z" fill="#9B9B9B"/>
<path d="M59.3999 683.796C55.3068 679.492 61.7295 671.015 63.768 667.1L70.0775 655.015C70.579 654.06 69.3495 653.009 68.5568 653.834L68.0391 654.384L69.6569 655.322C75.9825 635.876 79.655 613.679 75.7237 593.36C73.9279 584.057 69.9481 575.984 64.1724 568.542C58.1056 560.745 50.7769 553.836 45.9396 545.133C39.8405 534.164 40.067 521.27 39.2742 509.071C38.53 497.536 37.5755 486.018 37.0578 474.466C35.9901 450.571 46.975 431.206 59.3999 411.679C59.9823 410.773 58.5748 409.64 57.8791 410.498L57.1835 411.371L58.7042 412.552C84.7025 372.285 107.287 329.963 127.914 286.735C137.702 266.237 146.422 245.125 157.245 225.145C162.762 214.952 168.958 205.068 176.368 196.137C182.58 188.647 189.699 181.965 196.267 174.782C207.333 162.697 217.266 147.975 214.985 130.777C212.979 115.699 202.641 101.479 188.259 96.059C173.877 90.6393 157.245 95.5898 146.438 106.203C135.631 116.816 131.506 133.657 136.942 148.541C139.789 156.355 144.772 163.393 151.34 168.521C153.136 169.912 155.045 171.174 157.051 172.242C158.329 172.922 161.727 173.747 162.762 174.669C164.655 176.367 156.501 187.66 154.932 190.41C141.439 213.917 129.257 238.152 118.305 262.953L120.117 263.438C121.249 250.027 122.123 235.725 114.551 223.883C107.287 212.526 94.9433 204.825 84.4113 196.817C70.9673 186.576 57.5232 176.351 44.063 166.111C37.0093 160.739 29.9394 155.368 22.8857 149.997C16.6895 145.289 5.00891 139.611 3.32639 131.408C3.18078 130.745 2.43658 130.583 1.9027 130.826L1.6115 130.955L2.93813 132.282C35.618 88.9891 68.3141 45.6802 100.994 2.38745C130.713 -36.974 159.899 -76.3679 178.39 -122.476C196.655 -167.969 206.492 -216.18 217.946 -263.679C220.777 -275.408 223.705 -287.137 226.876 -298.785C230.047 -310.434 233.461 -323.117 240.806 -333.407C247.665 -343.016 256.951 -350.555 264.766 -359.34C272.58 -368.125 278.743 -376.78 284.729 -386.18C300.163 -410.431 313.122 -436.348 326.874 -461.554C341.418 -488.232 355.978 -514.926 370.522 -541.603H368.84C381.378 -515.67 409.787 -501.724 434.83 -490.755C449.844 -484.187 467.559 -478.363 480.501 -468.025C486.325 -463.366 483.575 -458.14 481.618 -452.413L477.169 -439.438C473.933 -430.006 470.714 -420.575 467.478 -411.143C467.332 -410.722 467.575 -410.269 467.931 -410.043C473.254 -406.532 478.803 -403.976 484.934 -402.245C485.306 -402.148 485.873 -402.309 486.034 -402.698C501.193 -438.128 518.18 -472.749 537.06 -506.335C541.347 -513.971 545.78 -524.875 556.037 -524.988C565.744 -525.086 574.319 -518.097 582.505 -513.728C588.96 -510.283 596.289 -507.354 603.763 -508.276C610.186 -509.085 615.136 -512.936 619.715 -517.255C643.432 -539.727 664.091 -581.175 702.434 -578.279C720.505 -576.92 737.427 -561.066 748.671 -547.816C762.94 -531.007 762.341 -509.457 753.556 -490.092C744.772 -470.727 731.926 -455.341 720.456 -438.824C710.426 -424.36 695.946 -408.635 695.655 -390.063C695.655 -389.27 696.771 -388.704 697.305 -389.383L697.564 -389.69L695.946 -390.111C703.663 -368.012 688.488 -347.546 673.151 -333.212C657.814 -318.879 644.16 -307.344 634.615 -289.467C625.636 -272.674 620.491 -254.182 615.993 -235.771C610.655 -213.931 605.559 -192.058 599.67 -170.363C587.649 -126.003 573.688 -82.1758 557.801 -39.0448C553.756 -28.076 549.598 -17.1558 545.311 -6.30023C541.606 3.08313 537.788 12.6121 531.883 20.8629C518.407 39.6781 496.647 39.9694 476.683 47.1039C459.13 53.3649 444.343 65.2234 430.98 77.9072C414.349 93.697 398.575 110.458 382.607 126.911C350.041 160.464 317.749 194.325 286.024 228.688C227.167 292.397 170.237 360.119 135.599 440.492C119.243 478.462 107.983 518.794 104.699 560.081C103.081 580.482 104.019 600.98 102.79 621.396C101.56 641.813 98.0171 666.08 84.2495 682.517C80.9492 686.449 76.7591 689.846 71.5497 690.607C65.2078 691.513 58.7851 687.581 57.8144 681.078C57.6365 679.848 55.7598 680.366 55.9377 681.595C56.876 687.824 62.1178 691.998 68.2979 692.629C75.2545 693.341 81.3375 688.989 85.6085 683.893C97.4671 669.737 101.916 649.822 103.841 631.945C106.09 611.042 104.958 589.962 106.042 568.995C107.223 546.103 110.911 523.405 116.654 501.225C139.854 411.549 194.568 334.784 254.832 266.108C286.202 230.37 319.059 195.911 351.917 161.564C369.179 143.526 386.555 125.568 404.027 107.74C419.801 91.6262 435.251 74.3479 453.824 61.373C462.511 55.3062 471.911 50.4366 482.087 47.4113C492.263 44.386 502.18 42.9623 511.741 39.1119C528.906 32.1715 537.756 17.2552 544.567 0.834351C562.881 -43.3483 578.104 -89.0515 591.678 -134.9C598.424 -157.728 604.669 -180.701 610.364 -203.803C615.508 -224.657 619.65 -245.883 626.736 -266.203C634.226 -287.655 645.535 -305.467 662.344 -320.788C676.581 -333.763 692.225 -346.398 698.049 -365.553C700.573 -373.852 700.719 -382.394 697.855 -390.613C697.645 -391.244 696.739 -391.648 696.237 -391.033L695.978 -390.726L697.629 -390.046C697.855 -404.591 707.271 -416.352 715.198 -427.774C723.125 -439.196 731.845 -451.669 740.096 -463.673C753.476 -483.119 767.356 -506.82 760.173 -531.33C756.97 -542.234 749.318 -550.696 741.132 -558.251C732.735 -566 723.692 -574.283 712.69 -578.085C690.834 -585.657 668.492 -572.698 653.349 -557.636C644.111 -548.447 636.249 -537.996 627.593 -528.273C623.063 -523.176 618.291 -517.563 612.58 -513.728C604.685 -508.438 595.69 -509.652 587.423 -513.405C577.409 -517.935 567.653 -526.995 556.07 -526.897C545.699 -526.8 541.04 -517.271 536.591 -509.393C522.775 -484.948 509.929 -459.936 498.103 -434.472C495.062 -427.919 492.085 -421.335 489.173 -414.718C488.218 -412.55 487.086 -407.454 485.339 -405.885C482.491 -403.329 477.104 -406.985 474.24 -408.506C470.536 -410.463 470.18 -411.272 471.005 -415.333C471.733 -418.86 473.464 -422.532 474.645 -425.946C477.201 -433.42 479.757 -440.878 482.313 -448.352C483.737 -452.494 488.17 -459.985 486.795 -464.531C485.42 -469.077 477.541 -472.296 473.804 -474.448C460.667 -482.019 446.56 -487.649 432.727 -493.781C408.962 -504.313 382.429 -517.999 370.555 -542.558C370.231 -543.221 369.212 -543.173 368.872 -542.558C343.569 -496.159 319.011 -449.275 292.819 -403.377C286.752 -392.748 280.345 -382.297 273.016 -372.493C265.688 -362.689 257.162 -354.309 248.717 -345.556C241.566 -338.163 235.677 -330.284 231.762 -320.691C227.248 -309.609 224.53 -297.718 221.538 -286.15C209.323 -238.732 200.279 -190.375 184.328 -143.993C176.239 -120.486 166.24 -97.7068 153.654 -76.2546C141.067 -54.8023 126.442 -34.6605 111.526 -14.7775C74.9148 34.032 38.0123 82.615 1.25553 131.311C0.592228 132.185 1.82178 132.978 2.58215 132.638C-0.702014 134.11 7.75921 140.889 8.79461 141.698C15.4438 146.907 22.2386 151.938 28.9687 157.051C42.4128 167.292 55.8569 177.516 69.3171 187.757C81.7743 197.237 95.6228 206.071 106.64 217.234C119.486 230.241 119.615 246.338 118.175 263.454C118.094 264.393 119.599 264.813 119.987 263.94C133.512 233.298 148.978 203.595 166.338 174.944C166.661 174.41 166.354 173.682 165.755 173.52C150.871 169.427 139.822 156.42 136.99 141.358C134.094 125.94 141.342 110.83 154.333 102.352C167.001 94.0853 183.211 93.3735 195.766 102.255C208.32 111.137 215.681 127.477 212.801 142.749C209.922 158.021 199.147 169.184 188.971 179.716C178.212 190.863 168.457 202.22 160.481 215.567C143.316 244.299 131.231 276.122 116.396 306.084C98.4701 342.258 78.9754 377.656 57.0702 411.582C56.4878 412.488 57.8953 413.62 58.591 412.763L59.2866 411.889L57.7659 410.708C47.0074 427.614 35.9254 445.556 35.0679 466.167C34.5826 478.009 36.1357 490.094 36.8961 501.905C37.5917 512.582 37.4946 523.664 39.7919 534.131C44.0306 553.497 62.0855 564.045 70.0289 581.388C80.1888 603.568 75.0927 632.527 67.8449 654.804C67.5375 655.726 68.8156 656.438 69.4627 655.743L69.9804 655.193L68.4597 654.012C64.7387 661.114 60.3544 668.184 57.232 675.577C55.7437 679.088 55.323 682.259 58.0732 685.155C58.9307 686.061 60.3059 684.685 59.4484 683.779L59.3999 683.796Z" fill="#9B9B9B"/>
<path d="M538.288 554.742C540.294 547.559 535.117 541.25 527.546 544.227C523.032 545.99 520.007 550.213 517.256 553.982C513.681 558.868 510.203 563.818 506.643 568.704C499.347 578.718 491.711 588.603 482.506 596.935C474.352 604.329 465.017 609.942 455.019 614.456C436.365 622.853 416.11 627.69 398.298 637.947C394.302 640.244 390.484 642.833 386.925 645.761C385.032 647.314 383.236 648.98 381.521 650.728C380.292 652.006 378.48 655.322 376.943 656.034C375.244 656.827 371.378 654.675 369.679 654.06C366.12 652.734 362.625 651.245 359.196 649.611C353.501 646.893 348.017 643.771 342.775 640.26C339.296 637.931 334.443 635.52 333.99 631.12C333.537 626.719 336.595 622.739 338.633 618.986C341.464 613.744 344.198 608.244 344.829 602.242C345.784 593.376 340.348 582.941 330.593 582.634C330.269 582.634 329.897 582.828 329.751 583.119C322.018 598.618 312.683 613.275 301.747 626.719C296.699 632.915 291.441 639.16 285.31 644.321C278.111 650.372 269.763 653.623 260.444 654.643C251.74 655.597 242.875 655.257 234.138 655.177C224.723 655.079 215.307 654.837 205.891 654.481C187.626 653.769 169.361 652.572 151.161 650.873C146.97 650.485 142.133 650.614 138.105 649.385C132.523 647.686 132.912 640.341 132.378 635.617C131.391 626.881 130.711 618.112 130.339 609.344C129.595 592.049 130.016 574.69 131.601 557.444C134.772 522.742 142.651 488.412 155.076 455.845C167.711 422.745 185.814 391.003 213.188 367.917L211.537 367.237C212.12 383.561 213.058 399.432 219.416 414.672C224.836 427.679 233.071 439.408 243.069 449.309C265.168 471.215 294.92 482.766 325.561 485.807C360.199 489.237 394.82 482.005 427.403 470.6C443.953 464.808 460.406 458.159 476.261 450.668C486.582 445.782 499.023 436.108 493.992 423.004C493.232 421.014 491.97 419.024 490.223 417.746C487.78 415.966 485.078 418.247 482.554 419.283C474.659 422.518 466.829 425.883 458.966 429.2C441.575 436.577 424.102 443.857 406.08 449.552C371.944 460.359 333.78 465.714 299.272 453.402C271.203 443.388 246.191 421.111 239.04 391.408C230.725 356.883 246.563 321.906 267.498 295.164C278.127 281.574 290.277 269.263 302.491 257.097C316.048 243.588 329.638 230.111 343.212 216.619C370.844 189.148 398.492 161.678 426.125 134.207C432.887 127.493 439.65 120.763 446.412 114.049C447.253 113.208 446.186 112.124 445.231 112.529L444.277 112.933L445.458 114.454C455.876 102.854 467.88 92.7588 481.227 84.6859C487.877 80.6575 495.675 75.6261 503.359 74.073C508.86 72.9567 516.609 75.6099 515.121 82.615C514.279 86.5463 511.189 90.4129 509.248 93.8912C501.936 107.028 495.658 120.731 494.785 135.954C494.024 149.318 496.985 162.875 503.181 174.733C504.702 177.662 506.433 180.477 508.358 183.162C510.429 186.058 513.244 188.631 514.959 191.737C517.418 196.17 515.008 200.716 513.406 205.003C511.934 208.902 510.461 212.801 508.908 216.667C505.851 224.303 502.518 231.842 498.587 239.074C494.882 245.853 490.336 251.871 485.952 258.213C482.587 263.083 479.901 268.81 481.761 274.796C483.379 280.037 487.715 284.195 492.536 286.622C501.903 291.33 513.94 290.051 522.304 283.791C532.27 276.316 534.777 262.71 530.134 251.483C529.099 248.959 527.707 246.581 525.96 244.478C524.892 243.183 523.647 242.18 522.482 240.983C521.042 239.495 521.155 239.381 521.673 236.971C523.728 227.588 527.238 218.641 531.946 210.293L530.425 210.487C550.308 230.985 582.131 221.65 602.127 206.702C614.665 197.318 625.294 185.735 637.056 175.445C649.416 164.638 662.86 155.093 677.129 146.956C705.182 130.955 737.376 119.323 769.7 116.46C785.684 115.036 802.655 116.249 816.86 124.371C831.064 132.492 839.833 146.082 847.113 160.011C864.682 193.597 880.165 228.704 890.681 265.169C890.956 266.14 892.218 266.027 892.557 265.169L892.752 264.652L890.972 264.878C913.362 316.212 919.721 372.414 923.814 427.744C924.784 440.832 926.062 454.001 926.224 467.122C926.386 480.323 924.801 494.058 917.213 505.253C902.264 527.337 873.71 532.497 849.798 538.969C827.731 544.938 808.237 554.532 792.706 571.632C778.857 586.905 769.264 605.623 762.647 625.053C746.064 673.765 750.465 725.648 745.676 776.124C744.301 790.539 742.149 804.922 738.541 818.964C735.548 830.58 731.941 843.199 723.674 852.291C702.561 875.475 670.916 849.59 650.127 839.171C626.168 827.167 600.606 817.605 574.414 811.797C561.957 809.031 548.626 807.656 536.508 812.59C527.157 816.408 519.473 823.316 513.422 831.292C497.632 852.113 494.413 878.937 481.325 901.133C477.911 906.925 473.381 912.555 466.78 914.771C459.468 917.214 451.071 914.561 443.759 913.17C429.279 910.42 414.784 907.669 400.304 904.903C385.55 902.104 370.779 899.289 356.025 896.49C343.309 894.079 327.535 893.125 319.43 881.541C312.845 872.126 312.263 859.636 313.363 848.586C314.722 834.754 318.605 821.245 323.765 808.384C334.168 782.418 349.246 758.134 364.34 734.692C372.138 722.591 380.26 710.716 388.705 699.068C396.502 688.309 404.43 677.519 413.829 668.103C423.293 658.622 434.068 651.326 446.768 646.942C458.497 642.897 470.469 640.082 481.163 633.546C499.574 622.286 512.646 604.296 523.064 585.772C528.549 576.001 533.402 565.905 538.142 555.762C538.676 554.629 536.994 553.642 536.46 554.775C526.51 576.049 516.011 597.825 499.994 615.281C492.212 623.758 483.072 631.055 472.621 635.941C460.309 641.7 446.59 643.706 434.505 650.016C411.71 661.923 396.373 684.783 381.91 705.232C365.149 728.9 349.456 753.491 335.656 779.004C323.167 802.09 311.874 827.668 311.049 854.33C310.726 864.522 312.327 875.701 318.815 883.936C326.176 893.271 337.986 895.034 348.971 897.121C379.305 902.88 409.655 908.656 439.989 914.415C451.379 916.583 464.305 920.871 474.319 912.765C483.573 905.291 488.216 892.575 492.358 881.816C501.385 858.374 508.714 830.095 532.27 816.78C545.892 809.079 561.584 810.729 576.226 814.175C589.88 817.395 603.34 821.601 616.477 826.536C629.614 831.47 643.187 837.569 655.952 844.332C667.681 850.544 678.989 858.407 691.9 861.998C702.448 864.926 713.53 863.843 722.056 856.546C730.582 849.25 734.529 839.203 737.635 829.27C754.671 774.911 746.274 717.171 755.561 661.648C762.744 618.63 781.769 571.859 822.651 550.844C846.385 538.645 874.26 537.949 897.653 524.878C907.441 519.409 916.323 511.806 921.549 501.727C927.195 490.871 928.344 478.43 928.133 466.393C927.907 452.739 926.596 439.052 925.577 425.43C924.509 411.113 923.28 396.811 921.646 382.558C918.523 355.169 913.977 327.844 906.212 301.344C902.475 288.579 897.961 276.074 892.638 263.891C892.266 263.05 891.117 263.438 890.859 264.118L890.665 264.636H892.541C883.255 232.392 869.827 201.88 855.137 171.789C848.472 158.135 841.742 144.076 831.048 133.059C820.354 122.041 807.541 116.654 793.11 114.777C777.87 112.803 762.355 114.826 747.439 118.013C732.523 121.2 716.717 126.183 702.108 132.395C672.13 145.16 646.212 163.732 622.689 186.074C609.617 198.483 595.817 211.862 578.248 217.476C562.571 222.508 543.821 221.488 531.8 209.096C531.364 208.659 530.587 208.756 530.28 209.29C524.86 218.916 521.107 229.222 519.084 240.077C519.004 240.53 519.149 240.902 519.537 241.177C529.713 248.312 533.532 263.018 527.918 274.197C522.304 285.376 508.698 289.857 497.357 286.444C490.74 284.454 483.573 278.986 483.088 271.527C482.603 264.069 488.572 258.067 492.552 252.453C500.399 241.42 506.061 229.027 511.06 216.489C512.338 213.302 513.552 210.099 514.765 206.879C515.978 203.66 517.758 200.23 518.098 196.817C518.631 191.203 513.875 187.32 510.817 183.243C502.874 172.614 498.069 159.704 496.904 146.503C495.61 131.91 499.201 118.078 505.592 105.006C508.779 98.4858 512.921 92.4029 515.978 85.8345C517.774 81.9841 517.855 77.8749 514.555 74.801C510.041 70.5947 503.667 71.533 498.409 73.6199C491.452 76.3702 484.771 80.1721 478.445 84.1358C465.68 92.1116 454.145 101.899 444.099 113.095C443.322 113.952 444.293 115.036 445.28 114.615L446.234 114.211L445.053 112.69C418.003 139.562 390.969 166.45 363.92 193.322C337.759 219.32 310.968 244.834 285.553 271.576C263.631 294.63 243.441 320.952 236.97 352.823C231.145 381.588 238.782 410.207 259.732 431.012C280.699 451.833 309.642 461.621 338.795 462.333C374.177 463.206 408.329 452.06 440.717 438.907C448.612 435.704 456.475 432.355 464.321 429.022C468.625 427.194 472.912 425.382 477.215 423.57C480.483 422.211 487.327 417.73 490.32 420.496C496.483 426.223 491.905 436.949 487.019 441.576C481.227 447.077 473.187 449.973 465.988 453.111C433.243 467.429 399.042 480.129 363.24 483.688C330.059 487.004 294.936 482.475 266.058 464.857C241.224 449.698 221.261 424.977 215.776 395.986C213.98 386.506 213.786 376.815 213.447 367.205C213.414 366.315 212.427 365.976 211.796 366.526C180.88 392.573 161.838 429.459 148.896 467.138C134.271 509.751 127.249 554.969 128.09 600.009C128.301 611.382 129.029 622.739 130.242 634.048C131.067 641.619 130.679 650.258 139.82 651.65C151.177 653.381 162.89 653.882 174.328 654.675C186.494 655.532 198.66 656.163 210.858 656.568C222.975 656.972 235.109 657.199 247.227 657.134C257.079 657.085 267.255 656.665 276.331 652.442C285.407 648.22 292.736 640.276 299.288 632.624C306.131 624.648 312.441 616.187 318.168 607.37C321.403 602.371 324.461 597.226 327.308 592.001C328.554 589.72 329.897 584.866 332.566 584.753C335.576 584.623 338.682 588.021 340.138 590.286C347.208 601.206 339.41 613.113 334.233 622.95C332.13 626.929 330.14 631.265 333.246 635.293C336.028 638.885 341.044 641.522 344.829 643.9C354.779 650.161 365.521 654.999 376.733 658.477C377.186 658.622 377.574 658.38 377.833 658.024C393.477 637.203 419.848 630.262 443.047 621.413C454.21 617.158 465.324 612.369 475.08 605.38C486.324 597.323 495.416 586.791 503.715 575.823C508.633 569.319 513.293 562.637 518.081 556.053C520.654 552.526 523.372 548.384 527.4 546.362C533.515 543.288 538.061 548.158 536.379 554.209C536.039 555.422 537.916 555.923 538.255 554.726L538.288 554.742Z" fill="#9B9B9B"/>
<path d="M169.912 113.467C161.791 115.408 156.905 123.206 156.468 131.214C156.032 139.222 159.251 149.091 167.858 151.404C176.012 153.588 185.702 150.24 191.575 144.367C197.448 138.494 197.383 128.723 193.436 121.669C191.251 117.738 187.822 114.453 183.567 112.868C179.312 111.282 174.281 111.638 169.848 113.046C168.667 113.418 169.168 115.295 170.365 114.923C177.613 112.625 185.104 113.822 190.006 120.019C194.39 125.568 196.153 134.547 192.06 140.743C187.967 146.939 179.393 150.353 172.242 150.094C168.165 149.948 164.282 148.508 161.888 145.063C159.769 142.021 158.733 138.154 158.442 134.498C157.795 126.28 161.856 117.414 170.414 115.359C171.627 115.068 171.11 113.191 169.896 113.483L169.912 113.467Z" fill="#9B9B9B"/>
<path d="M325.061 -332.08L184.748 -83.9555L428.31 41.5224L581.242 -275.456L567.653 -332.08H325.061Z" fill="#9B9B9B"/>
<path d="M422.906 308.947L423.052 309.319L276.526 366.865L257.322 317.991L384.014 268.227L440.653 184.229L486.26 214.984L422.906 308.947Z" fill="#9B9B9B"/>
<path d="M-9.1488 178.341L-133.235 356.463L-100.604 398.364L31.7819 211.264L-4.73219 178.341" fill="#9B9B9B"/>
<path d="M305.435 83.7475L274.066 128.14L165.316 51.2941L101.073 142.199L151.888 178.115L126.44 214.127L16.024 136.1L41.4885 100.087L41.8767 100.379L115.18 -3.32342L115.326 -3.22636L137.635 -34.8223L305.435 83.7475Z" fill="#9B9B9B"/>
<path d="M169.005 134.595C164.75 134.838 160.69 131.02 160.657 126.749C160.657 124.5 161.676 122.235 163.521 120.957C165.365 119.679 168.002 119.565 169.83 120.86C170.057 118.821 170.995 116.815 172.613 115.586C174.231 114.356 176.593 114 178.388 114.971C180.184 115.942 181.155 118.352 180.314 120.213C182.627 118.029 186.688 117.915 188.904 120.18C191.121 122.445 190.765 126.781 188.031 128.415C190.829 130.308 191.93 134.336 190.49 137.394C189.05 140.452 185.248 142.166 181.996 141.228C180.912 144.027 178.308 146.243 175.331 146.664C172.354 147.085 169.151 145.58 167.727 142.943C166.303 140.306 166.902 136.666 169.232 134.757" fill="#029C54"/>
<path d="M174.428 124.429V125.047C174.425 125.758 174.425 126.473 174.228 127.506L173.748 127.45C173.944 126.47 173.944 125.74 173.947 125.047V124.835H170.503V124.429H174.428ZM169.972 128.629V128.223H171.226V126.395H171.713V128.223H172.612V126.395H173.092V128.223H175.027V128.629H169.972ZM180.55 126.545V126.944H179.202V127.649H179.926V129.415H179.433V128.042H176.057V127.649H176.837V126.944H175.495V126.545H180.55ZM176.057 125.059C176.057 124.395 176.815 123.999 178.022 124.005C179.224 123.999 179.979 124.395 179.982 125.059C179.979 125.727 179.224 126.127 178.022 126.12C176.815 126.127 176.057 125.727 176.057 125.059ZM176.562 125.059C176.559 125.481 177.124 125.737 178.022 125.74C178.912 125.737 179.48 125.481 179.483 125.059C179.48 124.648 178.912 124.392 178.022 124.398C177.124 124.392 176.559 124.648 176.562 125.059ZM177.33 127.649H178.721V126.944H177.33V127.649ZM184.095 124.298V124.591C184.091 124.956 184.091 125.509 183.951 126.233L183.458 126.195C183.592 125.534 183.605 125.063 183.611 124.71H181.33V124.298H184.095ZM180.987 126.751C181.346 126.751 181.751 126.748 182.179 126.735V125.528H182.666V126.719C183.28 126.694 183.917 126.651 184.494 126.57L184.525 126.932C183.361 127.131 182.026 127.153 181.037 127.156L180.987 126.751ZM181.842 129.297V127.668H182.335V128.885H185.549V129.297H181.842ZM184.868 128.042V123.868H185.368V125.677H186.179V126.095H185.368V128.042H184.868ZM177.926 134.083V134.495H177.027V137.415H176.54V131.868H177.027V134.083H177.926ZM172.964 136.005V132.417H173.451V135.593C174.263 135.593 175.089 135.531 176.004 135.337L176.066 135.755C175.108 135.949 174.247 136.005 173.408 136.005H172.964ZM183.33 135.094V135.5H181.015V137.415H180.534V135.5H178.25V135.094H183.33ZM178.906 134.339V132.18H182.669V134.339H178.906ZM179.386 133.952H182.182V132.579H179.386V133.952Z" fill="#FFF9F1"/>
<path d="M216.481 46.9547L215.498 48.48C214.263 50.3767 212.887 52.5104 210.286 55.285L208.265 53.7154C210.616 51.1793 211.997 49.0739 213.172 47.2714L203.831 41.2498L204.947 39.5189L216.481 46.9547ZM195.587 50.9521L196.736 49.1697L199.769 51.1254L202.929 46.224L205.106 47.6272L201.946 52.5286L203.66 53.6334L206.82 48.732L208.979 50.1242L205.819 55.0256L210.96 58.3402L209.811 60.1225L195.587 50.9521ZM229.11 63.4912L227.995 65.2221L224.567 63.0123L223.628 64.469L225.325 65.5629L222.021 70.6871L219.844 69.2839L222.043 65.8734L213.303 60.2386L214.408 58.5248L216.19 59.6739L217.129 58.2172L213.77 56.0516L214.886 54.3207L229.11 63.4912ZM218.828 51.3303C220.054 49.428 223.047 49.696 226.495 51.9309C229.928 54.1321 231.408 56.7479 230.19 58.6557C228.95 60.561 225.956 60.2931 222.529 58.0833C219.075 55.857 217.596 53.2412 218.828 51.3303ZM221.107 52.7998C220.493 53.7142 221.437 54.978 223.622 56.3867C225.773 57.7733 227.331 58.1227 227.928 57.1972C228.508 56.2975 227.558 55.0056 225.401 53.6275C223.222 52.2102 221.67 51.889 221.107 52.7998ZM218.401 61.0992L221.469 63.0769L222.408 61.6202L219.34 59.6425L218.401 61.0992ZM242.76 63.5813L242.13 64.5581C241.434 65.6378 240.429 67.1973 238.82 68.9019L236.811 67.3151C238.055 66.0064 238.858 64.911 239.477 63.988L233.59 60.1928L234.739 58.4104L242.76 63.5813ZM229.505 64.4975C230.379 65.061 231.364 65.6963 232.418 66.3391L234.39 63.28L236.566 64.6832L234.638 67.6737C236.242 68.6106 237.905 69.5126 239.508 70.2431L238.612 71.8971C234.977 70.4032 231.288 68.1098 228.566 66.3671L229.505 64.4975ZM226.962 73.4844L229.989 68.7887L232.183 70.2029L230.283 73.1506L239.04 78.7965L237.913 80.5446L226.962 73.4844ZM237.542 75.1375L245.066 63.4667L247.311 64.914L244.25 69.6612L246.135 70.8766L244.953 72.7103L243.068 71.4949L239.787 76.5849L237.542 75.1375ZM247.579 84.9322L244.802 83.1423L257.103 73.5078L260.411 75.6402L256.696 90.8101L253.937 89.0313L254.848 85.5671L250.358 82.6724L247.579 84.9322ZM252.302 81.0871L255.489 83.1422L256.999 77.3951L256.913 77.3398L252.302 81.0871ZM276.064 93.8836L274.959 95.5974L260.701 86.4048L261.805 84.691L267.872 88.6023L268.734 87.2656L264.398 84.4702L267.845 79.1232L278.659 86.095L277.566 87.7916L268.928 82.2231L267.68 84.1596L276.403 89.7835L275.298 91.4972L270.876 88.6467L270.014 89.9834L276.064 93.8836ZM259.964 91.1219C261.158 89.271 263.877 89.5686 267.287 91.7673C270.672 93.9495 272.04 96.287 270.864 98.1489C269.67 99.9631 266.971 99.6906 263.586 97.5085C260.176 95.3098 258.788 92.9471 259.964 91.1219ZM262.192 92.5583C261.659 93.3668 262.498 94.454 264.658 95.8461C266.774 97.2106 268.137 97.5432 268.67 96.7347C269.181 95.9237 268.332 94.7942 266.216 93.4297C264.056 92.0376 262.703 91.7473 262.192 92.5583Z" fill="white"/>
<path d="M83.3904 94.8235L84.8467 95.9064C86.6569 97.2651 88.694 98.7799 91.289 101.561L89.5881 103.472C87.2144 100.958 85.2058 99.4386 83.4856 98.1468L76.8545 107.064L75.2019 105.836L83.3904 94.8235ZM85.9853 115.938L84.2835 114.672L86.4371 111.776L81.7574 108.296L83.3027 106.218L87.9824 109.698L89.1991 108.062L84.5194 104.582L86.0525 102.52L90.7322 106L94.3824 101.091L96.0841 102.357L85.9853 115.938ZM100.732 83.3252L102.385 84.5541L99.9516 87.8266L101.342 88.8608L102.547 87.2409L107.439 90.8789L105.894 92.957L102.638 90.5357L96.4327 98.8807L94.7965 97.6639L96.0619 95.9622L94.671 94.928L92.2863 98.1351L90.6336 96.9062L100.732 83.3252ZM87.9128 92.774C86.0966 91.4234 86.5636 88.4546 89.0234 85.1636C91.4487 81.885 94.1574 80.5832 95.9797 81.9255C97.7981 83.2904 97.3311 86.2591 94.8976 89.5317C92.4459 92.8288 89.7373 94.1306 87.9128 92.774ZM89.5311 90.5977C90.4025 91.2711 91.7264 90.4134 93.2777 88.3271C94.8047 86.2736 95.2572 84.7424 94.3736 84.0854C93.5146 83.4466 92.1621 84.3086 90.6433 86.3682C89.0838 88.4484 88.6599 89.9753 89.5311 90.5977ZM97.6314 93.8514L99.8094 90.9225L98.4185 89.8883L96.2406 92.8172L97.6314 93.8514ZM101.733 69.7123L102.665 70.4058C103.696 71.1723 105.185 72.2796 106.779 73.9981L105.061 75.8974C103.839 74.5689 102.799 73.6943 101.92 73.0148L97.7402 78.6354L96.0385 77.37L101.733 69.7123ZM101.763 82.9988C102.383 82.1643 103.083 81.2235 103.795 80.2153L100.874 78.0434L102.419 75.9654L105.274 78.0885C106.316 76.5509 107.327 74.9522 108.163 73.4011L109.753 74.4059C108.02 77.9325 105.486 81.4603 103.566 84.0599L101.763 82.9988ZM110.56 86.1355L106.077 82.8016L107.634 80.7072L110.449 82.8L116.666 74.4387L118.335 75.6797L110.56 86.1355ZM112.915 75.6898L101.772 67.4039L103.366 65.2604L107.899 68.6307L109.237 66.8308L110.988 68.1327L109.649 69.9326L114.509 73.5463L112.915 75.6898ZM121.885 68.3081L110.039 59.4991L113.543 54.7866C115.484 52.1768 117.729 51.7883 119.507 53.1227C120.903 54.1487 121.097 55.716 120.461 57.1358L120.576 57.2209C121.633 55.936 123.633 55.467 125.39 56.7607C127.266 58.1681 127.61 60.6095 125.621 63.2848L121.885 68.3081ZM121.681 64.345L123.227 62.2669C124.293 60.8495 124.161 59.7979 123.263 59.1429C122.271 58.3925 121.001 58.6302 120.101 59.841L118.507 61.9846L121.681 64.345ZM116.822 60.7313L118.233 58.8333C119.008 57.8085 119.005 56.5993 118.05 55.9018C117.197 55.2549 116.141 55.4611 115.308 56.5819L113.86 58.5291L116.822 60.7313ZM133.179 39.8614L134.815 41.0781L124.692 54.6919L123.056 53.4751L127.363 47.6828L126.087 46.7337L123.009 50.8735L117.903 47.0773L125.581 36.7525L127.201 37.957L121.069 46.2038L122.918 47.5787L129.111 39.2501L130.747 40.4668L127.608 44.6884L128.884 45.6374L133.179 39.8614ZM129.35 55.7412C127.583 54.4271 128.061 51.7336 130.482 48.4774C132.885 45.2458 135.309 44.0369 137.088 45.3345C138.819 46.6467 138.367 49.3218 135.964 52.5534C133.542 55.8096 131.092 57.037 129.35 55.7412ZM130.931 53.614C131.703 54.2002 132.843 53.4349 134.376 51.3732C135.879 49.3524 136.302 48.0151 135.531 47.429C134.756 46.8653 133.572 47.6368 132.069 49.6576C130.536 51.7193 130.156 53.0504 130.931 53.614Z" fill="white"/>
<mask id="path-15-inside-2_2296_22851" fill="white">
<path d="M202.147 77.2349L210.633 83.3158L204.552 91.802L196.066 85.7211L202.147 77.2349Z"/>
</mask>
<path d="M202.147 77.2349L210.633 83.3158L204.552 91.802L196.066 85.7211L202.147 77.2349Z" fill="#FFF258"/>
<path d="M202.147 77.2349L202.274 77.0581L202.097 76.9314L201.97 77.1082L202.147 77.2349ZM210.633 83.3158L210.722 83.3792L210.848 83.2024L210.76 83.139L210.633 83.3158ZM204.552 91.802L204.426 91.9788L204.514 92.0422L204.641 91.8654L204.552 91.802ZM196.066 85.7211L195.889 85.5944L195.763 85.7712L195.939 85.8979L196.066 85.7211ZM202.02 77.4117L210.507 83.4926L210.76 83.139L202.274 77.0581L202.02 77.4117ZM210.545 83.2525L204.464 91.7387L204.641 91.8654L210.722 83.3792L210.545 83.2525ZM204.679 91.6252L196.193 85.5443L195.939 85.8979L204.426 91.9788L204.679 91.6252ZM196.243 85.8477L202.324 77.3616L201.97 77.1082L195.889 85.5944L196.243 85.8477Z" fill="#1F2225" mask="url(#path-15-inside-2_2296_22851)"/>
<mask id="path-17-inside-3_2296_22851" fill="white">
<path d="M210.633 83.3159L219.12 89.3969L213.039 97.8831L204.552 91.8021L210.633 83.3159Z"/>
</mask>
<path d="M210.633 83.3159L219.12 89.3969L213.039 97.8831L204.552 91.8021L210.633 83.3159Z" fill="#FFF258"/>
<path d="M210.633 83.3159L210.76 83.1391L210.672 83.0758L210.545 83.2526L210.633 83.3159ZM219.12 89.3969L219.296 89.5236L219.423 89.3468L219.246 89.2201L219.12 89.3969ZM213.039 97.8831L212.912 98.0599L213.089 98.1866L213.215 98.0098L213.039 97.8831ZM204.552 91.8021L204.464 91.7388L204.337 91.9156L204.426 91.9789L204.552 91.8021ZM210.507 83.4927L218.993 89.5737L219.246 89.2201L210.76 83.1391L210.507 83.4927ZM218.943 89.2702L212.862 97.7564L213.215 98.0098L219.296 89.5236L218.943 89.2702ZM213.165 97.7063L204.679 91.6253L204.426 91.9789L212.912 98.0599L213.165 97.7063ZM204.641 91.8655L210.722 83.3793L210.545 83.2526L204.464 91.7388L204.641 91.8655Z" fill="#1F2225" mask="url(#path-17-inside-3_2296_22851)"/>
<path d="M201.511 87.09C201.053 86.7616 200.796 86.385 200.741 85.9602C200.692 85.5394 200.837 85.0913 201.178 84.6161L201.524 84.1324L202.407 84.7648L202.03 85.291C201.75 85.6813 201.772 85.9921 202.094 86.2231C202.252 86.3366 202.406 86.3737 202.554 86.3343C202.712 86.2932 202.88 86.1483 203.058 85.8993L203.405 85.4156C203.599 85.1441 203.689 84.9173 203.674 84.7352C203.663 84.5475 203.55 84.3766 203.335 84.2225L203.021 83.9975L203.629 83.1489L203.968 83.3921C204.155 83.5259 204.328 83.5772 204.488 83.5459C204.653 83.5186 204.816 83.3918 204.979 83.1655L205.289 82.7327C205.435 82.529 205.5 82.3487 205.484 82.1917C205.468 82.0347 205.389 81.9056 205.248 81.8042C204.948 81.5894 204.666 81.6658 204.403 82.0335L204.123 82.4239L203.24 81.7915L203.465 81.4775C203.806 81.0023 204.183 80.7205 204.598 80.6321C205.018 80.5478 205.448 80.6637 205.89 80.9799C206.337 81.3002 206.585 81.6707 206.634 82.0915C206.688 82.5067 206.544 82.9519 206.204 83.4271L206.052 83.6392C205.821 83.9617 205.581 84.1834 205.331 84.3044C205.086 84.4198 204.82 84.4388 204.533 84.3615L204.52 84.3784C204.699 84.6433 204.769 84.9161 204.73 85.1967C204.692 85.4774 204.559 85.7762 204.332 86.093L203.955 86.6192C203.615 87.0944 203.234 87.3742 202.814 87.4585C202.404 87.5412 201.97 87.4184 201.511 87.09Z" fill="#1F2225"/>
<path d="M210.714 92.3342L208.932 91.0572L209.54 90.2086L214.113 87.4108L215.132 88.1405L212.255 92.1545L212.697 92.4707L212.089 93.3193L211.647 93.0031L210.875 94.0809L209.942 93.412L210.714 92.3342ZM211.322 91.4856L212.982 89.1689L212.965 89.1567L210.388 90.8167L211.322 91.4856Z" fill="#1F2225"/>
<mask id="path-21-inside-4_2296_22851" fill="white">
<path d="M154.297 138.57L162.783 144.651L156.702 153.137L148.216 147.056L154.297 138.57Z"/>
</mask>
<path d="M154.297 138.57L162.783 144.651L156.702 153.137L148.216 147.056L154.297 138.57Z" fill="#FFF258"/>
<path d="M154.297 138.57L154.424 138.393L154.247 138.266L154.12 138.443L154.297 138.57ZM162.783 144.651L162.872 144.714L162.998 144.537L162.91 144.474L162.783 144.651ZM156.702 153.137L156.576 153.314L156.664 153.377L156.791 153.2L156.702 153.137ZM148.216 147.056L148.039 146.929L147.913 147.106L148.089 147.233L148.216 147.056ZM154.17 138.747L162.657 144.828L162.91 144.474L154.424 138.393L154.17 138.747ZM162.695 144.587L156.614 153.074L156.791 153.2L162.872 144.714L162.695 144.587ZM156.829 152.96L148.343 146.879L148.089 147.233L156.576 153.314L156.829 152.96ZM148.393 147.183L154.474 138.697L154.12 138.443L148.039 146.929L148.393 147.183Z" fill="#1F2225" mask="url(#path-21-inside-4_2296_22851)"/>
<mask id="path-23-inside-5_2296_22851" fill="white">
<path d="M162.783 144.651L171.27 150.732L165.189 159.218L156.702 153.137L162.783 144.651Z"/>
</mask>
<path d="M162.783 144.651L171.27 150.732L165.189 159.218L156.702 153.137L162.783 144.651Z" fill="#FFF258"/>
<path d="M162.783 144.651L162.91 144.474L162.822 144.411L162.695 144.588L162.783 144.651ZM171.27 150.732L171.446 150.859L171.573 150.682L171.396 150.555L171.27 150.732ZM165.189 159.218L165.062 159.395L165.239 159.522L165.365 159.345L165.189 159.218ZM156.702 153.137L156.614 153.074L156.487 153.251L156.576 153.314L156.702 153.137ZM162.657 144.828L171.143 150.909L171.396 150.555L162.91 144.474L162.657 144.828ZM171.093 150.605L165.012 159.091L165.365 159.345L171.446 150.859L171.093 150.605ZM165.315 159.041L156.829 152.96L156.576 153.314L165.062 159.395L165.315 159.041ZM156.791 153.2L162.872 144.714L162.695 144.588L156.614 153.074L156.791 153.2Z" fill="#1F2225" mask="url(#path-23-inside-5_2296_22851)"/>
<path d="M156.952 143.796L155.976 143.097L156.451 142.435C156.717 142.626 156.945 142.755 157.136 142.823C157.332 142.896 157.515 142.915 157.684 142.882C157.858 142.844 158.052 142.752 158.267 142.607L158.895 143.057L154.639 148.997L153.705 148.328L156.952 143.796Z" fill="#1F2225"/>
<path d="M160.975 152.971C161.279 152.547 161.607 152.233 161.957 152.031C162.312 151.822 162.797 151.66 163.411 151.544C164.019 151.423 164.482 151.28 164.799 151.113C165.121 150.95 165.383 150.727 165.586 150.444C165.768 150.189 165.852 149.983 165.836 149.826C165.83 149.668 165.747 149.532 165.589 149.418C165.266 149.187 164.965 149.267 164.686 149.657L164.229 150.294L163.347 149.661L163.76 149.084C164.105 148.603 164.487 148.321 164.907 148.236C165.331 148.146 165.77 148.264 166.222 148.588C166.675 148.912 166.927 149.29 166.978 149.72C167.033 150.145 166.888 150.598 166.544 151.079C166.284 151.441 165.943 151.732 165.521 151.951C165.104 152.175 164.523 152.358 163.778 152.501C163.29 152.596 162.931 152.703 162.701 152.821C162.475 152.933 162.287 153.093 162.137 153.303L162.046 153.43L163.82 154.701L163.212 155.55L160.513 153.616L160.975 152.971Z" fill="#1F2225"/>
<mask id="path-27-inside-6_2296_22851" fill="white">
<path d="M118.636 116.971L124.616 108.413L133.174 114.392L127.195 122.95L118.636 116.971Z"/>
</mask>
<path d="M118.636 116.971L124.616 108.413L133.174 114.392L127.195 122.95L118.636 116.971Z" fill="#FFF258"/>
<path d="M118.636 116.971L118.458 116.847L118.334 117.025L118.512 117.149L118.636 116.971ZM124.616 108.413L124.678 108.324L124.5 108.199L124.437 108.288L124.616 108.413ZM133.174 114.392L133.352 114.517L133.414 114.428L133.236 114.303L133.174 114.392ZM127.195 122.95L127.07 123.129L127.248 123.253L127.373 123.075L127.195 122.95ZM118.815 117.096L124.794 108.538L124.437 108.288L118.458 116.847L118.815 117.096ZM124.553 108.502L133.112 114.481L133.236 114.303L124.678 108.324L124.553 108.502ZM132.996 114.268L127.016 122.826L127.373 123.075L133.352 114.517L132.996 114.268ZM127.319 122.772L118.761 116.793L118.512 117.149L127.07 123.129L127.319 122.772Z" fill="#1F2225" mask="url(#path-27-inside-6_2296_22851)"/>
<mask id="path-29-inside-7_2296_22851" fill="white">
<path d="M124.616 108.413L130.595 99.8549L139.153 105.834L133.174 114.392L124.616 108.413Z"/>
</mask>
<path d="M124.616 108.413L130.595 99.8549L139.153 105.834L133.174 114.392L124.616 108.413Z" fill="#FFF258"/>
<path d="M124.616 108.413L124.437 108.289L124.375 108.378L124.553 108.502L124.616 108.413ZM130.595 99.8549L130.719 99.6766L130.541 99.552L130.417 99.7303L130.595 99.8549ZM139.153 105.834L139.331 105.959L139.456 105.78L139.278 105.656L139.153 105.834ZM133.174 114.392L133.112 114.481L133.29 114.606L133.352 114.517L133.174 114.392ZM124.794 108.538L130.773 99.9794L130.417 99.7303L124.437 108.289L124.794 108.538ZM130.47 100.033L139.028 106.012L139.278 105.656L130.719 99.6766L130.47 100.033ZM138.975 105.709L132.996 114.268L133.352 114.517L139.331 105.959L138.975 105.709ZM133.236 114.303L124.678 108.324L124.553 108.502L133.112 114.481L133.236 114.303Z" fill="#1F2225" mask="url(#path-29-inside-7_2296_22851)"/>
<path d="M128.517 117.463C128.186 117.937 127.805 118.215 127.375 118.296C126.942 118.368 126.487 118.236 126.008 117.901L125.477 117.53C125.18 117.323 124.966 117.101 124.834 116.865C124.696 116.624 124.646 116.356 124.684 116.059L124.666 116.047C124.419 116.171 124.167 116.216 123.911 116.181C123.653 116.137 123.376 116.011 123.079 115.804L122.831 115.631C122.351 115.296 122.072 114.918 121.992 114.497C121.911 114.067 122.032 113.621 122.355 113.158C122.677 112.696 123.053 112.432 123.481 112.366C123.908 112.291 124.36 112.42 124.84 112.755L125.088 112.928C125.658 113.327 125.917 113.796 125.862 114.336L125.879 114.348C126.145 114.21 126.414 114.165 126.688 114.212C126.955 114.254 127.237 114.379 127.534 114.586L128.064 114.957C128.544 115.292 128.822 115.677 128.899 116.114C128.975 116.54 128.847 116.99 128.517 117.463ZM124.879 114.922C125.11 114.591 125.026 114.286 124.627 114.007L124.156 113.679C123.757 113.4 123.442 113.425 123.21 113.756C122.979 114.087 123.063 114.392 123.463 114.671L123.933 115C124.333 115.279 124.648 115.253 124.879 114.922ZM127.661 116.866C127.908 116.512 127.806 116.178 127.355 115.863L126.782 115.462C126.331 115.147 125.982 115.167 125.735 115.52C125.488 115.874 125.59 116.208 126.04 116.523L126.614 116.924C127.065 117.239 127.414 117.219 127.661 116.866Z" fill="#1F2225"/>
<path d="M129.77 105.131L128.442 107.031L127.587 106.433L129.56 103.609L130.381 104.183L134.522 109.267L133.852 110.225L129.77 105.131Z" fill="#1F2225"/>
<mask id="path-33-inside-8_2296_22851" fill="white">
<path d="M133.861 95.2212L139.841 86.663L148.399 92.6422L142.42 101.2L133.861 95.2212Z"/>
</mask>
<path d="M133.861 95.2212L139.841 86.663L148.399 92.6422L142.42 101.2L133.861 95.2212Z" fill="#FFF258"/>
<path d="M133.861 95.2212L133.683 95.0966L133.559 95.2749L133.737 95.3995L133.861 95.2212ZM139.841 86.663L139.903 86.5738L139.725 86.4493L139.662 86.5384L139.841 86.663ZM148.399 92.6422L148.577 92.7667L148.639 92.6776L148.461 92.553L148.399 92.6422ZM142.42 101.2L142.295 101.379L142.473 101.503L142.598 101.325L142.42 101.2ZM134.04 95.3458L140.019 86.7875L139.662 86.5384L133.683 95.0966L134.04 95.3458ZM139.778 86.7521L148.337 92.7313L148.461 92.553L139.903 86.5738L139.778 86.7521ZM148.221 92.5176L142.241 101.076L142.598 101.325L148.577 92.7667L148.221 92.5176ZM142.544 101.022L133.986 95.0429L133.737 95.3995L142.295 101.379L142.544 101.022Z" fill="#1F2225" mask="url(#path-33-inside-8_2296_22851)"/>
<mask id="path-35-inside-9_2296_22851" fill="white">
<path d="M139.841 86.6631L145.82 78.1049L154.378 84.0841L148.399 92.6423L139.841 86.6631Z"/>
</mask>
<path d="M139.841 86.6631L145.82 78.1049L154.378 84.0841L148.399 92.6423L139.841 86.6631Z" fill="#FFF258"/>
<path d="M139.841 86.6631L139.662 86.5385L139.6 86.6277L139.778 86.7522L139.841 86.6631ZM145.82 78.1049L145.944 77.9266L145.766 77.802L145.642 77.9803L145.82 78.1049ZM154.378 84.0841L154.556 84.2086L154.681 84.0303L154.503 83.9058L154.378 84.0841ZM148.399 92.6423L148.337 92.7314L148.515 92.856L148.577 92.7668L148.399 92.6423ZM140.019 86.7877L145.998 78.2294L145.642 77.9803L139.662 86.5385L140.019 86.7877ZM145.695 78.2832L154.253 84.2623L154.503 83.9058L145.944 77.9266L145.695 78.2832ZM154.2 83.9595L148.221 92.5177L148.577 92.7668L154.556 84.2086L154.2 83.9595ZM148.461 92.5531L139.903 86.5739L139.778 86.7522L148.337 92.7314L148.461 92.5531Z" fill="#1F2225" mask="url(#path-35-inside-9_2296_22851)"/>
<path d="M143.759 95.6878C143.437 96.15 143.058 96.412 142.624 96.474C142.19 96.536 141.734 96.3995 141.255 96.0647L138.157 93.9002C137.118 93.1748 136.934 92.3328 137.604 91.3743C137.922 90.9178 138.297 90.6615 138.727 90.6052C139.151 90.5449 139.605 90.6842 140.09 91.023L140.202 91.1008L139.58 91.9908L139.409 91.8712C139.015 91.5962 138.704 91.6213 138.477 91.9465C138.354 92.1234 138.316 92.2925 138.365 92.4538C138.413 92.6151 138.575 92.7914 138.849 92.9828L139.995 93.784L140.007 93.7668C139.775 93.3582 139.8 92.9514 140.083 92.5463C140.322 92.204 140.621 92.0261 140.978 92.0126C141.336 91.9992 141.737 92.1479 142.182 92.4589L143.252 93.2063C143.731 93.5411 144.016 93.9229 144.107 94.3516C144.198 94.7803 144.082 95.2257 143.759 95.6878ZM142.904 95.0899C143.131 94.7647 143.05 94.4666 142.662 94.1955L141.601 93.4541C141.208 93.179 140.897 93.2041 140.67 93.5293C140.443 93.8545 140.526 94.1547 140.92 94.4297L141.981 95.1711C142.369 95.4422 142.676 95.4151 142.904 95.0899Z" fill="#1F2225"/>
<path d="M149.892 87.4908C149.574 87.9472 149.202 88.2056 148.778 88.2659C148.348 88.3221 147.891 88.1808 147.406 87.842L146.935 87.5132L147.557 86.6231L148.096 86.9998C148.484 87.2709 148.791 87.2438 149.019 86.9186C149.246 86.5934 149.165 86.2952 148.778 86.0242L147.434 85.0854C147.04 84.8104 146.73 84.8355 146.503 85.1607C146.275 85.4859 146.359 85.786 146.752 86.0611L146.804 86.0969L146.182 86.987L142.955 84.478L144.689 81.9961L145.545 82.594L144.397 84.2372L145.772 85.3127L145.784 85.2956C145.617 84.9155 145.661 84.5428 145.916 84.1777C146.155 83.8353 146.453 83.6574 146.811 83.644C147.168 83.6306 147.57 83.7793 148.015 84.0902L149.367 85.0349C149.852 85.3737 150.142 85.7547 150.237 86.1776C150.326 86.5967 150.211 87.0344 149.892 87.4908Z" fill="#1F2225"/>
</g>
</g>
<path d="M348 222.793H0V223.393H348V222.793Z" fill="#EFEFEF" mask="url(#path-1-inside-1_2296_22851)"/>
<rect x="173.095" y="150.616" width="18" height="18" rx="2" fill="#F55B1D"/>
<g filter="url(#filter0_d_2296_22851)">
<path fill-rule="evenodd" clip-rule="evenodd" d="M177.949 157.325H186.102C186.541 157.325 186.886 157.699 186.85 158.136L186.274 165.194C186.242 165.583 185.917 165.883 185.526 165.883H178.525C178.135 165.883 177.809 165.583 177.778 165.194L177.201 158.136C177.166 157.699 177.511 157.325 177.949 157.325ZM179.93 159.071C179.737 159.071 179.58 159.228 179.58 159.421V163.962C179.58 164.155 179.737 164.311 179.93 164.311C180.123 164.311 180.279 164.155 180.279 163.962V159.421C180.279 159.228 180.123 159.071 179.93 159.071ZM181.676 159.421C181.676 159.228 181.833 159.071 182.026 159.071C182.219 159.071 182.375 159.228 182.375 159.421V163.962C182.375 164.155 182.219 164.311 182.026 164.311C181.833 164.311 181.676 164.155 181.676 163.962V159.421ZM184.122 159.071C183.929 159.071 183.772 159.228 183.772 159.421V163.962C183.772 164.155 183.929 164.311 184.122 164.311C184.314 164.311 184.471 164.155 184.471 163.962V159.421C184.471 159.228 184.314 159.071 184.122 159.071Z" fill="white"/>
<rect x="176.845" y="154.704" width="10.5" height="1.81035" rx="0.777384" fill="white"/>
<path fill-rule="evenodd" clip-rule="evenodd" d="M179.742 154.704L180.156 153.43C180.26 153.11 180.558 152.893 180.895 152.893H183.296C183.632 152.893 183.931 153.11 184.035 153.43L184.449 154.704H183.331L183.211 154.211C183.126 153.863 182.814 153.618 182.455 153.618H181.735C181.377 153.618 181.065 153.863 180.98 154.211L180.86 154.704H179.742Z" fill="white"/>
</g>
<defs>
<filter id="filter0_d_2296_22851" x="175.402" y="151.931" width="13.3863" height="15.876" filterUnits="userSpaceOnUse" color-interpolation-filters="sRGB">
<feFlood flood-opacity="0" result="BackgroundImageFix"/>
<feColorMatrix in="SourceAlpha" type="matrix" values="0 0 0 0 0 0 0 0 0 0 0 0 0 0 0 0 0 0 127 0" result="hardAlpha"/>
<feOffset dy="0.481043"/>
<feGaussianBlur stdDeviation="0.721565"/>
<feComposite in2="hardAlpha" operator="out"/>
<feColorMatrix type="matrix" values="0 0 0 0 0.645833 0 0 0 0 0.645833 0 0 0 0 0.645833 0 0 0 0.2 0"/>
<feBlend mode="normal" in2="BackgroundImageFix" result="effect1_dropShadow_2296_22851"/>
<feBlend mode="normal" in="SourceGraphic" in2="effect1_dropShadow_2296_22851" result="shape"/>
</filter>
<clipPath id="clip0_2296_22851">
<path d="M0 0.0925293H348V223.093H0V0.0925293Z" fill="white"/>
</clipPath>
<clipPath id="clip1_2296_22851">
<rect width="2479.94" height="2696.97" fill="white" transform="translate(-1092 -814.907)"/>
</clipPath>
</defs>
</svg>
