<svg width="348" height="224" viewBox="0 0 348 224" fill="none" xmlns="http://www.w3.org/2000/svg">
<g clip-path="url(#clip0_2296_22673)">
<g clip-path="url(#clip1_2296_22673)">
<rect width="1823.23" height="1982.79" transform="translate(-669 -1708.47)" fill="white"/>
<path d="M-102.308 -717.862C-119.292 -701.472 -135.873 -684.677 -152.548 -667.978C-160.708 -659.807 -168.891 -651.671 -177.169 -643.619C-184.591 -636.399 -192.37 -629.453 -198.126 -620.759C-198.293 -620.521 -198.245 -620.093 -198.019 -619.89C-194.475 -616.917 -190.93 -613.932 -187.386 -610.958C-186.125 -609.899 -183.104 -608.187 -182.914 -606.557C-182.723 -604.928 -185.566 -602.168 -186.589 -600.812C-188.123 -598.767 -188.54 -597.637 -191.014 -598.779C-192.762 -599.587 -194.427 -600.908 -195.997 -602.002C-200.029 -604.797 -203.788 -607.949 -207.332 -611.339C-207.618 -611.612 -208.046 -611.6 -208.343 -611.339C-240.481 -582.948 -271.441 -553.248 -301.153 -522.312C-301.628 -521.812 -301.153 -520.896 -300.463 -521.122L-299.927 -521.289L-300.617 -522.478C-315.33 -506.683 -330.031 -490.876 -344.744 -475.08C-344.994 -474.819 -345.053 -474.331 -344.744 -474.069C-329.27 -461.152 -314.795 -447.07 -301.533 -431.893C-294.706 -424.079 -288.247 -415.979 -282.039 -407.677C-276.912 -400.826 -271.822 -393.892 -265.875 -387.719C-255.265 -376.705 -241.373 -368.093 -225.709 -373.053C-218.346 -375.384 -211.769 -380.023 -206.619 -385.72C-205.774 -386.648 -201.992 -391.453 -199.982 -389.836C-198.911 -388.967 -200.469 -386.172 -200.886 -385.328C-207.142 -372.708 -221.082 -361.397 -234.356 -357.187C-234.903 -357.008 -235.105 -356.176 -234.522 -355.878C-225.863 -351.466 -223.08 -340.844 -224.864 -331.828C-226.898 -321.576 -234.498 -313.44 -241.718 -306.375C-258.465 -289.997 -275.557 -273.952 -292.482 -257.752C-306.624 -244.217 -325.547 -230.289 -328.521 -209.569C-330.079 -198.782 -328.223 -187.72 -327.07 -176.98C-325.821 -165.347 -324.572 -153.727 -323.311 -142.095C-320.694 -117.736 -318.066 -93.3646 -315.449 -69.0056C-314.938 -64.236 -314.617 -59.4072 -313.867 -54.6733C-313.249 -50.7721 -311.976 -46.9778 -308.372 -44.8963C-305.422 -43.1835 -301.83 -43.0765 -298.524 -42.9695C-292.41 -42.7554 -286.285 -42.6603 -280.171 -42.5057C-255.705 -41.8754 -231.227 -41.2568 -206.761 -40.6263C-194.522 -40.3171 -182.295 -39.996 -170.056 -39.6867C-164.49 -39.5439 -158.935 -39.4012 -153.369 -39.2585L-145.031 -39.0445C-143.889 -39.0208 -141.023 -39.437 -140.024 -38.9137C-137.895 -37.8076 -138.228 -35.5594 -138.216 -33.4423C-138.204 -31.123 -138.394 -25.5567 -140.262 -23.7488C-142.129 -21.9409 -146.363 -23.1779 -148.564 -23.2849C-154.653 -23.5941 -160.731 -23.8915 -166.821 -24.2007C-178.989 -24.8074 -191.168 -25.4138 -203.336 -26.0204C-227.398 -27.2217 -251.471 -28.4231 -275.533 -29.6244C-283.074 -30.005 -292.054 -30.9803 -298.714 -26.5558C-306.124 -21.6317 -305.47 -11.7714 -305.981 -3.93323C-306.767 8.03217 -307.552 19.9977 -308.325 31.975C-308.991 42.192 -311.251 53.7767 -308.467 63.8271C-304.459 78.3379 -289.318 83.4166 -275.818 84.7963C-266.315 85.7717 -256.728 85.1295 -247.201 84.844C-235.271 84.4871 -223.342 84.1184 -211.412 83.7497C-163.265 82.2629 -115.118 80.9665 -66.9705 79.5035C-46.6673 78.8851 -26.4355 76.97 -6.15616 76.1732C11.4351 75.4833 29.9304 75.1028 46.9865 80.1459C54.1586 82.263 60.9382 85.5101 66.5403 90.5175C73.0463 96.3336 80.4801 98.3794 89.1865 97.4874C98.7375 96.512 108.312 93.3839 117.375 90.3033C125.88 87.413 134.206 83.9995 142.317 80.1221C176.191 63.8986 206.01 39.3492 228.442 9.22162C240.098 -6.43091 248.84 -24.7954 263.53 -37.9859C279.337 -52.1874 301.602 -56.8975 320.68 -65.2233C393.306 -96.9329 455.904 -153.358 483.213 -229.052C496.51 -265.9 502.314 -308.54 492.966 -347.041C488.72 -364.561 480.037 -380.428 465.586 -391.513C451.456 -402.36 434.031 -407.95 416.832 -411.685C408.233 -413.552 399.526 -414.98 390.832 -416.288C381.269 -417.727 371.551 -418.976 361.87 -418.215C352.842 -417.501 344.028 -414.861 336.809 -409.235C329.589 -403.609 324.118 -395.462 317.172 -389.17C302.042 -375.432 280.871 -372.815 261.317 -371.459C239.361 -369.937 217.511 -368.319 195.71 -365.239C150.429 -358.84 105.779 -348.004 62.6153 -332.911C53.4092 -329.687 43.5253 -326.857 34.9972 -322.028C27.9322 -318.031 23.6622 -312.108 22.556 -304.008C21.3904 -295.409 22.0684 -286.191 22.8891 -277.592C23.6384 -269.611 24.9706 -261.618 27.4445 -253.97C31.655 -240.97 39.4575 -229.385 52.5053 -224.175L52.196 -225.365C49.5437 -221.939 46.8913 -218.514 44.2508 -215.088C43.3707 -213.947 41.5508 -210.45 40.2782 -209.95C38.1967 -209.141 35.7703 -211.948 34.1646 -213.292C28.3127 -218.216 23.2221 -224.021 19.0473 -230.432C10.7096 -243.23 6.30878 -258.038 6.02332 -273.274C5.86871 -281.421 5.97577 -295.456 -2.96857 -299.512C-8.40414 -301.974 -13.9825 -298.775 -18.8234 -296.432C-27.0065 -292.495 -35.1183 -288.415 -43.1467 -284.181C-51.1752 -279.947 -59.1442 -275.57 -67.0181 -271.038C-70.729 -268.909 -74.4162 -266.744 -78.0914 -264.556C-79.8875 -263.485 -81.6834 -262.094 -83.5865 -261.237C-84.764 -260.702 -84.9305 -260.084 -86.0724 -260.762C-86.679 -261.13 -87.9278 -264.472 -88.249 -265.127C-89.1767 -266.994 -90.4969 -268.956 -91.1511 -270.943C-92.0789 -273.726 -90.9965 -273.94 -88.5582 -275.344C-84.5023 -277.675 -80.4346 -279.994 -76.3787 -282.325C-68.2551 -286.976 -60.1315 -291.638 -52.0078 -296.289C-43.8842 -300.94 -35.7605 -305.602 -27.6368 -310.253C-21.2616 -313.904 -14.2917 -317.234 -8.77289 -322.159C3.26392 -332.911 -0.780121 -350.49 -1.96951 -364.715C-5.41879 -405.869 -10.664 -446.868 -17.6221 -487.581C-17.7053 -488.057 -18.3 -488.211 -18.6687 -488.009C-21.0238 -486.737 -23.3788 -485.452 -25.7457 -484.179C-27.2563 -483.359 -30.9077 -480.504 -32.5134 -481.61C-32.9059 -481.884 -33.5839 -484.037 -33.8575 -484.643C-34.5235 -486.166 -35.2015 -487.676 -35.8676 -489.199C-36.605 -490.864 -39.293 -494.658 -38.508 -496.395C-38.1869 -497.108 -35.6535 -498.583 -34.9755 -499.261C-33.9051 -500.331 -32.9535 -501.521 -32.109 -502.758C-30.1584 -505.601 -28.8025 -508.824 -27.7439 -512.083C-25.1867 -520.016 -24.5206 -528.473 -23.4858 -536.692C-22.0942 -547.777 -20.7026 -558.862 -19.311 -569.947C-17.9194 -581.033 -16.504 -592.035 -15.16 -603.084C-13.9706 -612.79 -13.0072 -622.971 -16.4684 -632.344C-19.43 -640.372 -25.1153 -647.021 -30.6104 -653.432C-37.0688 -660.973 -43.8009 -668.264 -50.7946 -675.305C-66.1974 -690.803 -82.861 -704.981 -100.559 -717.79C-101.309 -718.326 -102.022 -717.089 -101.285 -716.553C-74.4994 -697.166 -49.9739 -674.508 -28.8144 -649.09C-23.1528 -642.287 -17.955 -635.032 -16.2542 -626.159C-14.5415 -617.214 -15.9807 -607.961 -17.0987 -599.04C-19.3943 -580.747 -21.6898 -562.454 -23.9854 -544.173C-25.8765 -529.127 -25.3889 -506.052 -40.197 -497.037C-40.5538 -496.823 -40.6133 -496.418 -40.4586 -496.062C-38.0085 -490.495 -35.5464 -484.929 -33.0962 -479.35C-32.9416 -478.993 -32.4301 -478.922 -32.1209 -479.089C-27.4109 -481.646 -22.6889 -484.203 -17.9789 -486.749L-19.0255 -487.177C-13.1142 -452.553 -8.42795 -417.727 -5.06195 -382.771C-4.21747 -374.017 -3.45624 -365.251 -2.76639 -356.473C-2.17169 -348.849 -0.815735 -340.44 -3.17075 -333.006C-5.73987 -324.906 -12.9834 -320.327 -19.9414 -316.307C-27.28 -312.072 -34.6544 -307.874 -42.0049 -303.663C-59.2037 -293.803 -76.4144 -283.943 -93.6132 -274.083C-93.9581 -273.881 -94.0414 -273.452 -93.8749 -273.107C-91.4604 -268.255 -89.034 -263.414 -86.6195 -258.561C-86.453 -258.216 -85.9534 -258.109 -85.6442 -258.299C-72.6559 -266.268 -59.4535 -273.869 -46.0132 -281.041C-39.412 -284.561 -32.7632 -287.987 -26.0668 -291.305C-22.7127 -292.959 -19.3586 -294.6 -15.9807 -296.206C-12.3768 -297.918 -8.28525 -299.905 -4.25314 -298.454C5.67838 -294.862 4.25113 -278.448 4.63174 -270.17C5.15509 -258.609 8.29507 -247.226 13.576 -236.938C19.6301 -225.151 28.4674 -215.029 39.3861 -207.524C39.6121 -207.369 40.0641 -207.405 40.2544 -207.631C44.56 -213.197 48.8657 -218.764 53.1714 -224.33C53.5163 -224.782 53.3855 -225.305 52.8621 -225.519C27.6586 -235.582 23.9001 -268.207 23.5432 -291.757C23.4243 -299.762 23.1031 -308.825 28.6696 -315.26C33.784 -321.183 41.7769 -323.752 48.8657 -326.405C65.3747 -332.578 82.1096 -338.12 99.0349 -343.033C132.778 -352.821 167.283 -360.065 202.121 -364.656C219.129 -366.904 236.221 -368.462 253.348 -369.497C267.657 -370.365 282.286 -371.162 296.012 -375.646C302.399 -377.74 308.537 -380.654 313.948 -384.662C319.36 -388.67 324.011 -394.141 328.65 -399.303C334.109 -405.369 340.008 -410.817 347.751 -413.755C355.494 -416.692 363.416 -417.204 371.385 -416.907C386.003 -416.359 400.882 -413.564 415.179 -410.543C428.833 -407.653 442.487 -403.692 454.738 -396.853C467.62 -389.657 478.146 -379.262 484.699 -365.976C491.955 -351.275 494.548 -334.635 495.428 -318.412C497.164 -286.774 491.55 -254.993 480.322 -225.424C457.902 -166.394 413.347 -118.806 359.55 -86.7396C346.598 -79.0204 333.122 -72.1576 319.289 -66.1392C304.754 -59.8235 289.102 -55.5891 275.198 -47.9412C262.495 -40.9594 253.301 -30.0764 245.248 -18.2537C236.72 -5.72931 228.882 7.10437 219.105 18.7487C200.158 41.3474 176.881 60.259 150.893 74.1989C137.905 81.1688 124.25 86.8778 110.144 91.1716C102.436 93.5146 94.2415 96.1077 86.1417 96.3099C82.0263 96.4169 77.7088 95.8816 73.9384 94.1451C70.6199 92.6226 68.2292 89.994 65.4222 87.7698C46.8675 73.0331 18.8332 73.9371 -3.48001 74.6983C-18.7996 75.2216 -34.0954 76.4586 -49.403 77.3268C-66.7683 78.314 -84.1693 78.5758 -101.558 79.0516C-138.466 80.0864 -175.373 81.2519 -212.28 82.3818C-229.776 82.9171 -247.332 83.9043 -264.84 83.9162C-276.805 83.9162 -291.173 82.8219 -300.475 74.3533C-306.457 68.894 -308.289 61.2818 -308.206 53.4079C-308.111 44.6539 -307.183 35.8523 -306.612 27.1102C-306.005 17.8685 -305.399 8.61499 -304.804 -0.626648C-304.269 -8.79791 -305.553 -20.585 -297.572 -25.5567C-291.423 -29.3866 -283.288 -28.5421 -276.401 -28.1971C-267.278 -27.7452 -258.144 -27.2812 -249.021 -26.8293C-230.764 -25.9135 -212.506 -25.0095 -194.249 -24.0936C-175.991 -23.1778 -158.293 -22.2977 -140.309 -21.3938C-140.071 -21.3938 -139.798 -21.5364 -139.691 -21.7505C-136.824 -27.4597 -136.158 -33.5375 -137.704 -39.7343C-137.788 -40.0436 -138.085 -40.2458 -138.394 -40.2578C-175.658 -41.2092 -212.922 -42.1606 -250.186 -43.1122C-259.369 -43.3501 -268.539 -43.5762 -277.721 -43.814L-291.066 -44.1589C-295.42 -44.2659 -300.249 -43.8615 -304.519 -44.9201C-310.192 -46.3236 -312 -50.7839 -312.69 -56.0886C-313.32 -60.9176 -313.736 -65.7942 -314.26 -70.6351C-315.247 -79.7697 -316.222 -88.9044 -317.209 -98.039C-319.208 -116.594 -321.206 -135.137 -323.192 -153.691C-324.179 -162.826 -325.155 -171.96 -326.142 -181.095C-327.046 -189.457 -328.247 -197.949 -327.498 -206.37C-325.904 -224.508 -312.868 -236.248 -300.486 -248.106C-287.129 -260.904 -273.761 -273.69 -260.403 -286.488C-253.362 -293.22 -246.214 -299.857 -239.315 -306.744C-233.773 -312.263 -228.456 -318.293 -225.376 -325.584C-220.844 -336.313 -222.509 -351.299 -233.844 -357.068L-234.011 -355.759C-220.38 -360.077 -206.44 -371.471 -199.827 -384.281C-198.899 -386.077 -196.854 -390.216 -199.827 -391.215C-201.195 -391.679 -203.3 -390.775 -204.43 -390.074C-206.083 -389.039 -207.19 -387.16 -208.545 -385.732C-210.722 -383.461 -213.113 -381.403 -215.694 -379.607C-225.661 -372.637 -238.078 -370.615 -249.092 -376.384C-259.464 -381.819 -267.373 -390.775 -274.462 -399.898C-289.651 -419.428 -304.614 -438.601 -322.443 -455.871C-327.688 -460.95 -333.076 -465.874 -338.607 -470.644C-339.439 -471.358 -342.342 -473.07 -342.627 -474.069C-343.091 -475.675 -340.807 -477.221 -339.82 -478.28C-337.18 -481.111 -334.539 -483.953 -331.899 -486.784C-321.146 -498.333 -310.406 -509.87 -299.654 -521.42C-299.19 -521.919 -299.642 -522.835 -300.344 -522.609L-300.879 -522.442L-300.189 -521.253C-282.36 -539.82 -264.091 -557.958 -245.369 -575.621C-236.021 -584.446 -226.553 -593.153 -216.978 -601.74C-214.707 -603.774 -212.363 -606.522 -209.782 -608.151C-208.426 -609.007 -208.367 -609.602 -206.761 -608.746C-205.56 -608.103 -204.466 -606.676 -203.407 -605.796C-198.983 -602.097 -194.225 -598.862 -189.206 -596.019C-188.837 -595.817 -188.468 -595.96 -188.23 -596.281C-185.721 -599.635 -183.199 -602.977 -180.69 -606.331C-180.511 -606.569 -180.583 -607.009 -180.797 -607.2C-183.294 -609.305 -185.804 -611.398 -188.302 -613.503C-189.551 -614.55 -190.799 -615.609 -192.06 -616.655C-192.845 -617.31 -195.45 -618.784 -195.819 -619.807C-196.747 -622.4 -192.691 -625.861 -191.014 -627.764C-189.122 -629.905 -187.136 -631.951 -185.102 -633.961C-175.92 -643.06 -166.571 -651.993 -157.413 -661.115C-138.763 -679.706 -120.315 -698.51 -101.368 -716.803C-100.702 -717.445 -101.713 -718.457 -102.379 -717.814L-102.308 -717.862Z" fill="#9B9B9B"/>
<path d="M498.426 -191.217C498.699 -198.52 500.84 -205.264 504.849 -211.377C504.991 -211.591 504.979 -211.889 504.849 -212.103C503.243 -214.779 500.162 -215.552 497.26 -214.47C492.812 -212.805 491.361 -207.405 489.874 -203.408C485.283 -191.003 479.467 -179.073 472.639 -167.75C459.045 -145.175 441.537 -125.086 421.638 -107.875C400.835 -89.8914 377.475 -75.0239 352.95 -62.666C340.723 -56.5049 328.115 -51.2714 315.567 -45.7882C303.815 -40.65 292.183 -34.8815 282.418 -26.4367C271.44 -16.9453 263.352 -4.68237 255.847 7.58038C247.033 21.9722 238.374 36.471 229.656 50.9104C229.394 51.3504 229.668 51.7905 230.084 51.957L230.453 52.1117L230.144 50.9223C212.088 67.7167 191.547 81.7279 169.258 92.2898C157.875 97.6778 146.076 102.162 133.98 105.659C122.681 108.93 110.632 110.44 99.868 115.317C91.3875 119.158 85.8449 124.32 85.8687 133.978C85.8806 139.247 86.7846 144.469 86.9154 149.738C87.0344 154.591 87.0225 159.42 87.8194 164.225C88.533 168.578 89.9246 174.513 94.48 176.452C98.3337 178.105 102.734 176.024 106.065 174.073C117.162 167.579 125.512 157.208 136.68 150.82C139.523 149.191 142.247 148.346 145.47 147.811C152.82 146.586 160.242 145.884 167.688 145.468C181.414 144.683 195.151 144.85 208.889 144.564C236.59 143.969 264.529 142.15 292.04 138.796C319.551 135.441 344.838 129.851 370.16 120.776C395.15 111.82 419.164 100.449 443.214 89.2687C467.263 78.0883 493.728 66.2299 519.252 55.323C570.29 33.5093 622.029 13.3489 674.351 -5.12253C700.53 -14.3642 726.851 -23.1896 753.315 -31.5868C766.542 -35.7854 779.803 -39.8769 793.101 -43.8495C805.625 -47.5961 818.376 -50.8076 830.781 -54.9229C835.206 -56.3978 839.595 -58.277 843.115 -61.417C847.052 -64.9377 849.098 -69.7905 850.763 -74.6908C854.736 -86.3589 859.256 -97.6582 865.286 -108.434C877.061 -129.475 893.07 -147.875 912.208 -162.505C920.118 -168.547 928.919 -174.946 930.87 -185.377C932.701 -195.19 930.109 -206.477 927.813 -216.064C923.067 -235.903 914.218 -254.481 903.953 -272.001C882.711 -308.243 855.093 -340.773 837.799 -379.298C833.445 -389.003 829.865 -399.018 827.249 -409.33C827.047 -410.115 825.857 -409.937 825.845 -409.14C825.298 -364.18 827.974 -319.221 833.957 -274.654C836.883 -252.864 840.57 -231.193 845.054 -209.665C846.624 -202.136 847.611 -194.452 845.78 -186.852C843.805 -178.693 837.002 -172.258 828.569 -177.848C824.858 -180.31 822.206 -184.08 819.482 -187.506C816.057 -191.823 812.476 -196.022 808.742 -200.078C801.962 -207.44 794.683 -214.339 786.975 -220.714C774.177 -231.312 756.86 -244.098 739.209 -238.615C724.96 -234.19 717.502 -219.632 712.495 -206.679C704.764 -186.697 698.412 -166.097 691.466 -145.841C684.128 -124.455 676.777 -103.07 669.439 -81.6845C663.575 -64.6166 656.284 -37.9144 632.46 -43.9328C614.559 -48.4526 601.69 -66.4482 595.065 -82.6836C588.63 -98.4789 586.68 -115.975 588.737 -132.865C589.772 -141.333 591.842 -149.683 594.91 -157.64C597.408 -164.122 602.998 -172.531 597.539 -179.014C595.35 -181.618 592.151 -183.034 589.094 -184.33C583.956 -186.519 578.794 -188.648 573.632 -190.812C563.439 -195.082 553.246 -199.352 543.064 -203.622C536.415 -206.406 527.412 -211.758 521.619 -204.693C519.359 -201.933 518.277 -198.306 517.099 -195.011C515.303 -190.028 513.496 -185.044 511.64 -180.084C504.278 -160.483 495.976 -140.988 484.153 -123.599C473.698 -108.232 460.282 -94.4468 443.963 -85.3359C440.026 -83.1356 435.946 -81.2207 431.724 -79.6507C427.739 -78.1758 413.93 -73.3706 416.488 -82.2554C418.855 -90.4742 429.928 -93.8997 436.386 -98.015C464.314 -115.832 485.223 -144.2 494.703 -175.885C497.01 -183.593 498.592 -191.479 499.52 -199.471C499.627 -200.387 498.2 -200.375 498.093 -199.471C493.87 -163.456 474.995 -129.665 446.627 -107.066C439.491 -101.381 431.772 -97.2182 423.969 -92.5914C420.008 -90.2364 413.229 -84.4082 414.953 -78.9727C417.178 -71.9908 427.823 -76.689 432.081 -78.259C440.323 -81.3039 448.043 -85.6333 455.12 -90.831C487.115 -114.322 502.981 -152.086 516.148 -188.208C517.813 -192.775 519.062 -197.83 521.536 -202.029C525.937 -209.498 533.335 -206.12 539.603 -203.492C550.308 -199.008 561 -194.523 571.705 -190.039C576.796 -187.898 581.898 -185.769 586.989 -183.628C593.424 -180.917 599.941 -177.646 598.003 -169.332C596.992 -165.002 594.637 -160.994 593.079 -156.831C591.52 -152.668 590.224 -148.303 589.213 -143.914C582.041 -112.645 588.892 -75.4045 613.429 -53.1388C624.859 -42.7672 642.998 -35.9995 655.427 -48.6666C661.006 -54.352 664.086 -62.0355 666.703 -69.4217C670.521 -80.1977 674.137 -91.0451 677.848 -101.857C685.46 -124.039 693.072 -146.21 700.684 -168.392C704.383 -179.156 707.999 -189.956 711.781 -200.697C714.636 -208.796 717.871 -216.944 722.819 -224.009C728.314 -231.859 736.235 -237.83 746.096 -238.365C756.836 -238.96 767.041 -233.56 775.605 -227.613C792.887 -215.612 807.445 -200.125 820.529 -183.783C824.632 -178.669 830.21 -172.864 837.466 -174.541C842.545 -175.707 845.352 -180.37 846.743 -185.056C848.575 -191.253 848.515 -198.08 847.504 -204.407C845.78 -215.183 843.175 -225.864 841.272 -236.617C833.196 -282.159 828.581 -328.308 827.451 -374.54C827.166 -386.053 827.118 -397.567 827.249 -409.08L825.845 -408.89C835.848 -369.354 860.183 -335.944 882.616 -302.64C894.022 -285.703 905.214 -268.504 913.992 -250.021C918.381 -240.779 922.128 -231.228 924.899 -221.368C927.754 -211.223 930.501 -199.804 929.835 -189.207C928.99 -175.897 918.226 -169.046 908.687 -161.553C899.814 -154.583 891.655 -146.733 884.305 -138.169C870.044 -121.542 858.875 -102.297 851.56 -81.6369C849.3 -75.2617 847.79 -68.2204 842.937 -63.213C838.798 -58.955 832.875 -56.9567 827.332 -55.3035C814.772 -51.5568 802.152 -48.0244 789.592 -44.254C764.032 -36.5704 738.602 -28.4825 713.292 -20.002C662.647 -3.02917 612.537 15.5136 563.034 35.5789C513.84 55.5252 465.717 77.6601 417.427 99.6641C393.211 110.69 368.566 121.05 342.804 127.924C316.578 134.918 289.531 138.237 262.519 140.282C235.46 142.34 208.473 142.982 181.354 143.589C168.556 143.874 155.223 144.16 142.675 146.919C137.644 148.025 133.278 151.13 129.246 154.198C124.168 158.064 119.422 162.322 114.462 166.318C110.18 169.78 105.244 174.026 99.7491 175.358C93.6593 176.845 90.9118 171.742 89.6748 166.544C88.5449 161.751 88.3784 156.756 88.3308 151.855C88.2713 146.622 87.6052 141.472 87.3317 136.25C87.07 131.136 87.5458 125.867 91.5184 122.18C96.4306 117.636 103.341 115.186 109.657 113.366C120.98 110.107 132.517 107.93 143.71 104.172C165.571 96.8333 186.35 86.2952 205.214 73.0452C214.324 66.6343 222.96 59.5931 231.119 52.0047C231.547 51.6003 231.262 51.0056 230.81 50.8152L230.441 50.6606L230.869 51.7073C238.719 38.7071 246.569 25.6949 254.431 12.6948C261.472 1.06238 268.668 -10.6771 278.219 -20.454C297.44 -40.1505 325.593 -47.5843 349.703 -59.3951C396.577 -82.3625 439.586 -114.798 468.643 -158.699C476.398 -170.402 483.071 -182.82 488.435 -195.784C489.755 -198.972 490.909 -202.219 492.146 -205.442C492.966 -207.559 493.847 -209.903 495.488 -211.544C496.582 -212.638 497.95 -213.376 499.544 -213.459C500.888 -213.53 502.874 -212.424 502.815 -210.83C502.767 -209.462 500.686 -206.988 500.127 -205.692C499.532 -204.3 499.009 -202.873 498.58 -201.41C497.593 -198.068 497.129 -194.642 496.999 -191.169C496.963 -190.254 498.39 -190.254 498.426 -191.169V-191.217Z" fill="#9B9B9B"/>
<path d="M-89.8314 -181.714C-89.8314 -152.74 -91.2944 -123.766 -94.256 -94.935C-94.9935 -87.7272 -95.8261 -80.5313 -96.7419 -73.3473C-97.5864 -66.8056 -98.1454 -60.0735 -99.7154 -53.6626C-100.346 -51.0697 -101.238 -48.5125 -102.748 -46.3002C-104.259 -44.0879 -106.459 -42.6249 -108.933 -41.4831C-110.979 -40.5435 -113.203 -39.6633 -114.726 -37.9268C-116.248 -36.1902 -116.7 -33.8947 -116.094 -31.6705C-114.571 -26.116 -108.802 -24.3082 -103.676 -23.88C-96.5754 -23.2971 -89.3914 -23.2615 -82.2668 -22.976C-67.768 -22.3932 -53.2573 -21.7985 -38.7584 -21.2157C-31.6814 -20.9303 -24.6163 -20.6924 -17.5394 -20.3475C-11.1523 -20.0263 -4.70572 -19.4791 1.47919 -17.7545C7.66409 -16.0299 13.1948 -12.9849 17.9168 -8.6436C22.6387 -4.30228 26.088 0.372101 29.561 5.34381C37.3041 16.4529 44.393 28.0377 50.7919 39.9793C54.0033 45.962 57.0363 52.0517 59.8909 58.2128C62.3886 63.6008 64.363 69.5122 67.7766 74.4125C69.2158 76.4821 70.9642 78.3495 73.117 79.6816C75.5791 81.1922 78.4218 81.8463 81.2526 82.1674C88.1274 82.9525 95.24 82.7265 102.115 82.227C105.314 82.001 108.549 81.7393 111.713 81.1803C114.128 80.764 116.614 80.0146 118.457 78.3257C122.644 74.4839 120.812 68.4417 118.505 64.1241C116.947 61.2101 115.02 58.4983 113.224 55.727C111.297 52.7654 109.37 49.8038 107.431 46.8422C103.554 40.9308 99.6646 35.0195 95.7395 29.1319C87.9014 17.3568 79.9918 5.6292 71.9871 -6.02698C56.0372 -29.2798 39.7543 -52.2948 23.1383 -75.0719C14.86 -86.4188 6.49848 -97.7183 -1.9344 -108.946C-4.11102 -111.848 -6.29954 -114.75 -8.49994 -117.641C-10.3316 -120.055 -12.0562 -122.839 -14.3518 -124.861C-18.5266 -128.524 -23.879 -127.596 -28.7198 -126.002C-34.1554 -124.218 -39.4839 -121.875 -45.3001 -123.219C-50.6168 -124.444 -55.0889 -127.977 -58.7523 -131.89C-62.7844 -136.207 -65.9363 -141.203 -68.9574 -146.258C-72.5018 -152.205 -75.8559 -158.283 -78.9841 -164.456C-82.0408 -170.462 -84.8835 -176.576 -87.5478 -182.773C-87.9046 -183.617 -89.1416 -182.892 -88.7848 -182.047C-83.3968 -169.487 -77.1881 -157.272 -70.1944 -145.532C-64.961 -136.755 -58.6691 -126.882 -48.797 -122.838C-43.8847 -120.828 -38.913 -121.138 -33.9294 -122.72C-28.9458 -124.301 -22.7728 -127.632 -17.5513 -125.277C-14.5421 -123.921 -12.6866 -120.828 -10.7598 -118.295C-8.67831 -115.547 -6.60876 -112.812 -4.5392 -110.052C-0.40007 -104.557 3.71529 -99.0384 7.81874 -93.5077C24.3871 -71.1706 40.6344 -48.5958 56.5605 -25.7949C72.4391 -3.07724 87.9846 19.8664 103.221 43.0241C107.051 48.8522 110.869 54.6921 114.663 60.5559C117.47 64.8972 122.382 72.2596 117.779 77.041C115.864 79.0274 112.903 79.6222 110.286 79.9909C106.825 80.4785 103.328 80.7639 99.8311 80.9543C96.3343 81.1446 92.8969 81.216 89.4357 81.1565C85.9745 81.097 82.549 81.0732 79.2187 80.431C76.1976 79.8363 73.4858 78.5874 71.2854 76.4108C69.2753 74.4245 67.8123 71.9624 66.5516 69.4409C63.7803 63.8983 61.4847 58.1057 58.7847 52.5155C53.0042 40.5263 46.5339 28.8702 39.4212 17.6065C35.9482 12.1115 32.368 6.66399 28.5262 1.41872C25.1246 -3.23186 21.4136 -7.73975 16.9296 -11.4031C7.41431 -19.1818 -4.56297 -21.061 -16.4808 -21.7152C-44.7411 -23.2614 -73.0608 -23.9037 -101.345 -25.1764C-104.616 -25.3191 -108.148 -25.557 -111.027 -27.3055C-113.358 -28.7327 -115.309 -31.5873 -114.857 -34.43C-114.405 -37.2727 -111.907 -38.5096 -109.659 -39.5682C-107.411 -40.6267 -105.341 -41.4831 -103.569 -43.1245C-99.8938 -46.5381 -98.4903 -51.6883 -97.6458 -56.4697C-96.4921 -63.0233 -95.7309 -69.672 -94.9102 -76.2732C-91.3896 -104.45 -89.2962 -132.794 -88.6063 -161.173C-88.4398 -168.024 -88.3685 -174.875 -88.3685 -181.726C-88.3685 -182.642 -89.7958 -182.642 -89.7958 -181.726L-89.8314 -181.714Z" fill="#9B9B9B"/>
<path d="M66.1356 104.315C62.0083 100.128 55.6807 102.638 51.946 106.04C48.2112 109.441 46.1298 114.782 47.9139 119.742C49.8645 125.165 55.9067 127.211 61.2709 126.795C66.6352 126.378 72.1777 122.453 73.6288 117.196C75.5081 110.369 69.0496 105.719 63.8162 103.03C62.9955 102.614 62.2819 103.839 63.0907 104.267C67.2655 106.408 72.3086 109.441 72.4989 114.734C72.6654 119.432 67.884 123.702 63.6854 124.915C59.2846 126.188 52.7785 125.237 50.138 121.086C47.6522 117.172 48.58 112.153 51.387 108.692C54.3843 104.993 60.9855 101.115 65.1246 105.314C65.7669 105.968 66.7778 104.957 66.1356 104.303V104.315Z" fill="#9B9B9B"/>
<path d="M-321.992 69.8811C-313.618 99.6282 -304.044 129.03 -293.244 157.98C-291.924 161.525 -290.627 165.081 -289.224 168.59C-288.284 170.957 -287.119 173.431 -284.728 174.62C-282.135 175.905 -278.959 175.346 -276.2 175.155C-272.156 174.87 -268.1 174.584 -264.056 174.299C-248.368 173.181 -232.691 172.051 -217.015 170.802C-185.555 168.316 -154.143 165.366 -122.826 161.489C-91.509 157.612 -60.5963 153.175 -29.2911 150.749C-13.591 149.536 2.14484 148.846 17.8926 148.965C25.707 149.024 33.5214 149.274 41.3239 149.702C45.0586 149.904 48.829 150.368 52.5638 150.368C55.3232 150.368 58.1539 149.88 60.2592 147.965C62.0433 146.348 62.9234 144.124 62.4834 141.757C62.4239 141.436 62.0909 141.257 61.7935 141.234C52.4211 140.496 43.8811 134.382 40.0631 125.795C36.2451 117.207 37.6605 105.813 43.7502 98.1889C44.1071 97.7488 43.9643 97.2136 43.441 96.9995C32.7958 92.7176 21.3418 91.2547 9.93546 90.9693C-2.24408 90.6719 -14.4593 91.4093 -26.615 91.9207C-52.3299 92.9912 -78.0211 94.2758 -103.724 95.4533C-129.296 96.619 -154.869 97.6537 -180.465 98.2365C-206.168 98.8193 -231.883 98.9144 -257.574 98.2008C-263.747 98.0343 -269.932 97.8678 -276.093 97.511C-282.254 97.1542 -288.094 96.4999 -293.803 94.585C-303.33 91.3855 -312.691 84.9151 -318.043 76.3038C-319.363 74.1867 -320.386 71.9388 -321.124 69.56C-321.397 68.6798 -322.777 69.0604 -322.503 69.9405C-319.684 79.0632 -312.548 86.1521 -304.555 91.0405C-300.119 93.7524 -295.302 95.8696 -290.235 97.0828C-284.704 98.415 -278.995 98.8193 -273.333 99.0809C-247.369 100.247 -221.333 100.33 -195.344 99.9373C-169.356 99.5448 -143.153 98.6052 -117.081 97.4753C-90.9856 96.3453 -64.9138 95.0251 -38.8183 93.8713C-26.1511 93.3123 -13.4839 92.682 -0.80484 92.4084C11.0535 92.1586 23.0903 92.4798 34.6156 95.5484C37.494 96.3097 40.3128 97.2612 43.0842 98.3792L42.7749 97.1898C36.3878 105.183 34.6275 116.518 38.6358 125.997C42.6441 135.477 51.7668 141.876 61.8292 142.661L61.1393 142.137C61.9243 146.396 57.4522 148.655 53.9078 148.905C50.3634 149.155 46.7475 148.596 43.2388 148.382C35.6861 147.93 28.1214 147.656 20.5568 147.561C5.43948 147.359 -9.67783 147.906 -24.7476 148.988C-54.9228 151.129 -84.9078 155.28 -114.916 159.087C-144.949 162.893 -175.053 165.949 -205.228 168.447C-220.393 169.696 -235.57 170.838 -250.747 171.944C-258.335 172.491 -265.923 173.026 -273.512 173.561C-276.676 173.787 -281.076 174.834 -284.05 173.347C-287.023 171.861 -288.082 167.567 -289.212 164.593C-299.762 136.88 -309.194 108.739 -317.508 80.2765C-318.555 76.6964 -319.577 73.1163 -320.588 69.5362C-320.838 68.656 -322.218 69.0246 -321.968 69.9167L-321.992 69.8811Z" fill="#9B9B9B"/>
<path d="M302.531 -25.568L326.033 38.1365L389.833 11.5057L361.573 -48.595L302.531 -25.568Z" fill="#9B9B9B"/>
<path d="M54.9066 26.8013H-8.13184V54.1576H54.9066V26.8013Z" fill="#9B9B9B"/>
<path d="M347.43 -398.375C327.722 -363.086 301.151 -332.815 275.305 -302.331C202.751 -216.706 134.36 -127.084 70.5249 -33.9297C85.5947 -5.66943 103.174 21.0683 122.942 45.8318C189.299 -34.1201 274.234 -93.8163 347.228 -166.929C382.994 -202.742 415.821 -241.707 448.601 -280.624C419.508 -323.657 385.717 -363.098 348.144 -397.912C347.204 -397.043 346.265 -396.175 345.325 -395.307" fill="#9B9B9B"/>
<path d="M244.831 36.1497C232.64 60.1638 210.386 77.779 186.324 89.9109C162.274 102.043 136.143 109.334 110.571 117.802C106.456 119.17 102.186 120.657 99.1646 123.761C95.3466 127.674 94.1929 133.431 93.729 138.879C93.0034 147.442 93.5386 156.101 95.3347 164.498C95.6201 165.854 95.9769 167.27 96.8928 168.316C98.5341 170.196 101.555 170.267 103.803 169.197C106.051 168.126 107.74 166.176 109.417 164.32C118.742 153.996 130.042 144.956 143.375 140.972C153.045 138.082 163.297 137.987 173.383 137.856C206.342 137.416 239.276 136.321 272.187 134.585C288.494 133.729 304.884 132.694 320.822 129.09C324.343 128.293 328.327 126.961 329.624 123.595C330.682 120.871 329.552 117.838 328.422 115.15C318.146 90.4223 307.881 65.6946 297.605 40.9668C294.191 32.7362 290.754 24.4935 286.472 16.6791C283.736 11.6955 279.823 6.36708 274.15 5.927C269.939 5.60586 266.062 8.1392 262.851 10.8867C254.941 17.6426 248.756 26.3967 245.009 36.1022" fill="#029C54"/>
<path d="M24.4764 31.5727V38.9828H23.8194V31.5727H24.4764ZM18.6548 34.7247C18.659 33.1529 19.4407 32.1507 20.5427 32.1466C21.6404 32.1507 22.4347 33.1529 22.4305 34.7247C22.4347 36.3007 21.6404 37.2987 20.5427 37.2945C19.4407 37.2987 18.659 36.3007 18.6548 34.7247ZM19.2869 34.7247C19.2869 35.9264 19.8025 36.7165 20.5427 36.7123C21.287 36.7165 21.7985 35.9264 21.7985 34.7247C21.7985 33.5229 21.287 32.7329 20.5427 32.7287C19.8025 32.7329 19.2869 33.5229 19.2869 34.7247ZM31.4789 31.5727V34.7247H32.6599V35.2736H31.4789V38.9661H30.8219V31.5727H31.4789ZM25.649 36.9951C26.252 36.9951 26.9547 36.9909 27.6866 36.9701V36.1551C26.8258 36.0553 26.2644 35.548 26.2728 34.8162C26.2644 33.9804 26.9713 33.4398 28.0192 33.4439C29.0505 33.4398 29.7699 33.9804 29.774 34.8162C29.7699 35.5522 29.2002 36.0553 28.3436 36.1551V36.9452C29.0297 36.9119 29.7283 36.8537 30.3728 36.7622L30.4144 37.2612C28.801 37.5357 27.0545 37.5523 25.7571 37.5523L25.649 36.9951ZM25.7821 33.0115V32.4792H27.6866V31.5893H28.3436V32.4792H30.2397V33.0115H25.7821ZM26.8799 34.8162C26.884 35.3276 27.3331 35.6645 28.0192 35.6561C28.6929 35.6645 29.1461 35.3276 29.1503 34.8162C29.1461 34.3005 28.6929 33.9512 28.0192 33.9512C27.3331 33.9512 26.884 34.3005 26.8799 34.8162ZM5.63941 42.1466C6.72888 42.1507 7.50232 43.1529 7.51063 44.7247C7.50232 46.3007 6.72888 47.2987 5.63941 47.2945C4.54163 47.2987 3.77235 46.3007 3.7765 44.7247C3.77235 43.1529 4.54163 42.1507 5.63941 42.1466ZM4.39193 44.7247C4.39609 45.9264 4.90755 46.7165 5.63941 46.7123C6.37958 46.7165 6.87858 45.9264 6.87858 44.7247C6.87858 43.5229 6.37958 42.7329 5.63941 42.7287C4.90755 42.7329 4.39609 43.5229 4.39193 44.7247ZM8.73317 48.9661V41.5727H9.38186V44.5251H10.621V45.0906H9.38186V48.9661H8.73317ZM17.0081 45.573V46.1052H11.8935V42.2131H16.925V42.762H12.5588V43.8598H16.7669V44.3837H12.5588V45.573H17.0081ZM11.0202 48.0014V47.4608H17.7899V48.0014H11.0202ZM22.6301 42.3794V42.92H21.8068V46.4795C22.206 46.4545 22.601 46.4171 22.9794 46.3714L23.0127 46.8537C21.4492 47.1032 19.6819 47.1282 18.372 47.1365L18.2889 46.5793C18.6007 46.5793 18.9334 46.5751 19.2869 46.571V42.92H18.4718V42.3794H22.6301ZM19.9189 46.5626C20.3306 46.5543 20.7589 46.5377 21.183 46.5169V42.92H19.9189V46.5626ZM23.4534 48.9661V41.5727H24.1021V44.5417H25.3413V45.0906H24.1021V48.9661H23.4534ZM31.8365 41.5727V45.4399H31.1961V41.5727H31.8365ZM26.1314 45.1072V41.8721H26.7801V42.9616H28.959V41.8721H29.6077V45.1072H26.1314ZM26.7801 44.5833H28.959V43.4689H26.7801V44.5833ZM27.0379 46.3381V45.8225H31.8448V47.5606H27.6949V48.359H32.111V48.883H27.0545V47.0783H31.1961V46.3381H27.0379ZM39.205 41.5727V48.9828H38.5563V41.5727H39.205ZM33.5165 42.8036V42.263H36.9595V44.891H34.1984V46.6375C35.4251 46.6416 36.5187 46.5834 37.8411 46.3714L37.9076 46.9203C36.5478 47.1323 35.4251 47.1864 34.1485 47.1864H33.5331V44.3588H36.3025V42.8036H33.5165ZM47.1972 45.5148V46.0553H40.4608V45.5148H43.5046V44.7413C42.0867 44.6665 41.2093 44.1342 41.2093 43.261C41.2093 42.3503 42.2239 41.8014 43.829 41.7973C45.4174 41.8014 46.4362 42.3503 46.4404 43.261C46.4362 44.1342 45.5547 44.6665 44.1533 44.7413V45.5148H47.1972ZM41.334 48.8081V46.6541H41.991V48.2592H46.4487V48.8081H41.334ZM41.8829 43.261C41.8788 43.8639 42.6356 44.2091 43.829 44.2091C45.0141 44.2091 45.7709 43.8639 45.7751 43.261C45.7709 42.6954 45.0141 42.3295 43.829 42.3295C42.6356 42.3295 41.8788 42.6954 41.8829 43.261Z" fill="#1F2225"/>
<path d="M169.886 112.017C169.879 113.658 170.853 115.307 173.079 116.019L172.03 117.459C170.568 116.979 169.542 116.019 168.949 114.813C168.342 116.177 167.248 117.271 165.644 117.818L164.64 116.289C166.918 115.555 167.945 113.763 167.953 112.017V111.957H165.209V110.443H172.6V111.957H169.886V112.017ZM166.828 122.825V118.433H168.732V121.296H176.168V122.825H166.828ZM173.754 119.422V109.423H175.673V113.396H177.517V114.97H175.673V119.422H173.754ZM189.54 109.423V123.095H187.606V109.423H189.54ZM178.941 119.842V110.623H185.582V112.182H180.86V118.223C183.303 118.223 184.81 118.156 186.526 117.848L186.706 119.422C184.817 119.782 183.078 119.842 180.125 119.842H178.941ZM199.059 110.173V111.057C199.044 111.949 199.044 113.164 198.729 114.64L196.855 114.505C197.08 113.366 197.133 112.467 197.148 111.702H192.013V110.173H199.059ZM191.204 115.66C191.983 115.66 192.838 115.652 193.737 115.637V113.216H195.641V115.585C197.005 115.532 198.392 115.442 199.674 115.285L199.778 116.619C196.938 117.106 193.827 117.189 191.369 117.189L191.204 115.66ZM192.973 120.442C192.973 118.875 194.801 117.908 197.725 117.908C200.648 117.908 202.462 118.875 202.462 120.442C202.462 122.091 200.648 123.043 197.725 123.035C194.801 123.043 192.973 122.091 192.973 120.442ZM194.921 120.442C194.914 121.214 195.933 121.551 197.725 121.551C199.516 121.551 200.498 121.214 200.498 120.442C200.498 119.752 199.516 119.37 197.725 119.377C195.933 119.37 194.914 119.752 194.921 120.442ZM200.408 117.743V109.423H202.372V112.781H204.036V114.37H202.372V117.743H200.408ZM212.401 110.338V111.867H209.688C209.695 113.456 210.662 114.993 212.836 115.63L211.921 117.129C210.415 116.672 209.365 115.75 208.766 114.588C208.158 115.959 207.049 117.054 205.415 117.593L204.441 116.079C206.704 115.367 207.731 113.598 207.754 111.867H204.965V110.338H212.401ZM206.33 120.412C206.322 118.748 208.121 117.781 211.007 117.788C213.848 117.781 215.601 118.748 215.609 120.412C215.601 122.083 213.848 123.073 211.007 123.065C208.121 123.073 206.322 122.083 206.33 120.412ZM208.248 120.412C208.233 121.191 209.215 121.581 211.007 121.581C212.776 121.581 213.72 121.191 213.72 120.412C213.72 119.647 212.776 119.265 211.007 119.272C209.215 119.265 208.233 119.647 208.248 120.412ZM213.555 117.519V109.423H215.474V112.586H217.318V114.146H215.474V117.519H213.555Z" fill="white"/>
<mask id="path-14-inside-2_2296_22673" fill="white">
<path d="M80.3099 119.497L86.8783 115.526L90.8491 122.094L84.2807 126.065L80.3099 119.497Z"/>
</mask>
<path d="M80.3099 119.497L86.8783 115.526L90.8491 122.094L84.2807 126.065L80.3099 119.497Z" fill="#FFF258"/>
<path d="M80.3099 119.497L80.2271 119.36L80.0903 119.442L80.173 119.579L80.3099 119.497ZM86.8783 115.526L86.9467 115.484L86.864 115.348L86.7956 115.389L86.8783 115.526ZM90.8491 122.094L90.9319 122.231L91.0003 122.19L90.9175 122.053L90.8491 122.094ZM84.2807 126.065L84.1439 126.148L84.2266 126.285L84.3634 126.202L84.2807 126.065ZM80.3926 119.633L86.961 115.663L86.7956 115.389L80.2271 119.36L80.3926 119.633ZM86.8099 115.567L90.7807 122.136L90.9175 122.053L86.9467 115.484L86.8099 115.567ZM90.7664 121.957L84.198 125.928L84.3634 126.202L90.9319 122.231L90.7664 121.957ZM84.4175 125.982L80.4467 119.414L80.173 119.579L84.1439 126.148L84.4175 125.982Z" fill="#1F2225" mask="url(#path-14-inside-2_2296_22673)"/>
<mask id="path-16-inside-3_2296_22673" fill="white">
<path d="M86.8783 115.526L93.4467 111.555L97.4176 118.123L90.8491 122.094L86.8783 115.526Z"/>
</mask>
<path d="M86.8783 115.526L93.4467 111.555L97.4176 118.123L90.8491 122.094L86.8783 115.526Z" fill="#FFF258"/>
<path d="M86.8783 115.526L86.7956 115.389L86.7271 115.43L86.8099 115.567L86.8783 115.526ZM93.4467 111.555L93.5836 111.472L93.5008 111.335L93.364 111.418L93.4467 111.555ZM97.4176 118.123L97.5003 118.26L97.6371 118.177L97.5544 118.041L97.4176 118.123ZM90.8491 122.094L90.7807 122.136L90.8634 122.272L90.9318 122.231L90.8491 122.094ZM86.961 115.663L93.5295 111.692L93.364 111.418L86.7956 115.389L86.961 115.663ZM93.3099 111.638L97.2807 118.206L97.5544 118.041L93.5836 111.472L93.3099 111.638ZM97.3348 117.987L90.7664 121.957L90.9318 122.231L97.5003 118.26L97.3348 117.987ZM90.9175 122.053L86.9467 115.484L86.8099 115.567L90.7807 122.136L90.9175 122.053Z" fill="#1F2225" mask="url(#path-16-inside-3_2296_22673)"/>
<path d="M84.9271 119.432L83.4689 120.313L83.0719 119.657L85.2394 118.346L85.6206 118.977L86.8893 123.627L86.1536 124.072L84.9271 119.432Z" fill="#1F2225"/>
<path d="M93.5523 119.975C93.1889 120.195 92.8504 120.268 92.5369 120.194C92.2251 120.113 91.958 119.889 91.7356 119.521L91.4894 119.114C91.3518 118.886 91.2738 118.673 91.2556 118.475C91.2348 118.273 91.2811 118.077 91.3945 117.889L91.3866 117.876C91.183 117.885 91.0003 117.84 90.8385 117.741C90.6785 117.634 90.5296 117.467 90.3919 117.239L90.2768 117.049C90.0544 116.681 89.9791 116.344 90.051 116.037C90.1245 115.724 90.3386 115.46 90.6933 115.246C91.048 115.031 91.3791 114.965 91.6865 115.049C91.9957 115.125 92.2614 115.347 92.4838 115.715L92.5989 115.905C92.8637 116.343 92.8974 116.735 92.7003 117.082L92.7082 117.095C92.9275 117.082 93.1221 117.132 93.2918 117.244C93.4589 117.353 93.6113 117.521 93.749 117.748L93.9951 118.155C94.2175 118.523 94.2897 118.865 94.2118 119.181C94.1356 119.491 93.9158 119.755 93.5523 119.975ZM91.8647 117.183C92.1187 117.03 92.153 116.8 91.9677 116.493L91.7493 116.132C91.564 115.825 91.3444 115.749 91.0904 115.902C90.8364 116.056 90.8021 116.286 90.9874 116.592L91.2058 116.954C91.3911 117.26 91.6107 117.337 91.8647 117.183ZM93.1552 119.318C93.4267 119.154 93.4579 118.899 93.2488 118.553L92.9827 118.113C92.7736 117.767 92.5333 117.676 92.2618 117.84C91.9903 118.004 91.9591 118.259 92.1683 118.605L92.4343 119.045C92.6434 119.391 92.8837 119.482 93.1552 119.318Z" fill="#1F2225"/>
<mask id="path-20-inside-4_2296_22673" fill="white">
<path d="M95.3409 110.551L102.585 108.015L105.121 115.259L97.8773 117.795L95.3409 110.551Z"/>
</mask>
<path d="M95.3409 110.551L102.585 108.015L105.121 115.259L97.8773 117.795L95.3409 110.551Z" fill="#FFF258"/>
<path d="M95.3409 110.551L95.2881 110.4L95.1372 110.453L95.19 110.604L95.3409 110.551ZM102.585 108.015L102.661 107.989L102.608 107.838L102.532 107.864L102.585 108.015ZM105.121 115.259L105.174 115.41L105.25 115.384L105.197 115.233L105.121 115.259ZM97.8773 117.795L97.7263 117.848L97.7792 117.999L97.9301 117.946L97.8773 117.795ZM95.3938 110.702L102.638 108.166L102.532 107.864L95.2881 110.4L95.3938 110.702ZM102.51 108.041L105.046 115.286L105.197 115.233L102.661 107.989L102.51 108.041ZM105.069 115.108L97.8244 117.645L97.9301 117.946L105.174 115.41L105.069 115.108ZM98.0282 117.743L95.4918 110.498L95.19 110.604L97.7263 117.848L98.0282 117.743Z" fill="#1F2225" mask="url(#path-20-inside-4_2296_22673)"/>
<mask id="path-22-inside-5_2296_22673" fill="white">
<path d="M102.585 108.015L109.829 105.479L112.366 112.723L105.121 115.259L102.585 108.015Z"/>
</mask>
<path d="M102.585 108.015L109.829 105.479L112.366 112.723L105.121 115.259L102.585 108.015Z" fill="#FFF258"/>
<path d="M102.585 108.015L102.532 107.864L102.457 107.89L102.51 108.041L102.585 108.015ZM109.829 105.479L109.98 105.426L109.927 105.275L109.777 105.328L109.829 105.479ZM112.366 112.723L112.419 112.874L112.569 112.821L112.517 112.67L112.366 112.723ZM105.121 115.259L105.046 115.286L105.099 115.436L105.174 115.41L105.121 115.259ZM102.638 108.166L109.882 105.629L109.777 105.328L102.532 107.864L102.638 108.166ZM109.678 105.531L112.215 112.776L112.517 112.67L109.98 105.426L109.678 105.531ZM112.313 112.572L105.069 115.108L105.174 115.41L112.419 112.874L112.313 112.572ZM105.197 115.233L102.661 107.988L102.51 108.041L105.046 115.286L105.197 115.233Z" fill="#1F2225" mask="url(#path-22-inside-5_2296_22673)"/>
<path d="M100.985 116.008C100.599 116.143 100.266 116.138 99.9875 115.991C99.7069 115.84 99.4947 115.559 99.351 115.149L99.318 115.055L100.071 114.791L100.122 114.936C100.239 115.269 100.435 115.388 100.71 115.291C100.86 115.239 100.955 115.154 100.995 115.037C101.035 114.92 101.015 114.745 100.934 114.513L100.594 113.543L100.579 113.548C100.543 113.891 100.353 114.123 100.01 114.243C99.72 114.345 99.4656 114.323 99.2466 114.177C99.0275 114.032 98.8521 113.77 98.7202 113.394L98.4031 112.488C98.2611 112.082 98.255 111.732 98.3849 111.437C98.5148 111.142 98.7753 110.927 99.1665 110.79C99.5577 110.653 99.896 110.659 100.181 110.808C100.467 110.958 100.681 111.235 100.823 111.641L101.741 114.263C102.049 115.142 101.797 115.724 100.985 116.008ZM100.082 113.405C100.357 113.308 100.437 113.094 100.32 112.76L100.006 111.862C99.8906 111.534 99.6954 111.418 99.4202 111.514C99.1449 111.61 99.0647 111.823 99.1797 112.151L99.4942 113.049C99.6109 113.383 99.8069 113.501 100.082 113.405Z" fill="#1F2225"/>
<path d="M105.808 110.155L104.975 110.447L104.777 109.881C105.004 109.802 105.179 109.719 105.3 109.633C105.427 109.546 105.516 109.444 105.568 109.328C105.618 109.208 105.644 109.052 105.648 108.861L106.184 108.673L107.959 113.744L107.163 114.023L105.808 110.155ZM110.125 113.068C109.733 113.204 109.395 113.198 109.11 113.049C108.824 112.899 108.611 112.622 108.469 112.216L107.535 109.55C107.393 109.145 107.387 108.794 107.517 108.499C107.647 108.205 107.907 107.989 108.299 107.852C108.69 107.715 109.028 107.721 109.313 107.87C109.599 108.02 109.813 108.297 109.955 108.703L110.888 111.369C111.03 111.775 111.036 112.125 110.906 112.42C110.776 112.715 110.516 112.931 110.125 113.068ZM109.871 112.343C110.146 112.247 110.226 112.032 110.109 111.699L109.14 108.931C109.023 108.598 108.827 108.48 108.552 108.576C108.277 108.672 108.198 108.887 108.314 109.221L109.283 111.988C109.4 112.321 109.596 112.439 109.871 112.343Z" fill="#1F2225"/>
<mask id="path-26-inside-6_2296_22673" fill="white">
<path d="M117.145 102.902L124.421 100.46L126.863 107.737L119.586 110.179L117.145 102.902Z"/>
</mask>
<path d="M117.145 102.902L124.421 100.46L126.863 107.737L119.586 110.179L117.145 102.902Z" fill="#FFF258"/>
<path d="M117.145 102.902L117.094 102.75L116.942 102.801L116.993 102.953L117.145 102.902ZM124.421 100.46L124.497 100.435L124.446 100.283L124.371 100.309L124.421 100.46ZM126.863 107.737L126.914 107.889L126.99 107.863L126.939 107.712L126.863 107.737ZM119.586 110.179L119.435 110.23L119.485 110.381L119.637 110.33L119.586 110.179ZM117.196 103.054L124.472 100.612L124.371 100.309L117.094 102.75L117.196 103.054ZM124.346 100.486L126.787 107.763L126.939 107.712L124.497 100.435L124.346 100.486ZM126.812 107.586L119.535 110.027L119.637 110.33L126.914 107.889L126.812 107.586ZM119.738 110.128L117.296 102.851L116.993 102.953L119.435 110.23L119.738 110.128Z" fill="#1F2225" mask="url(#path-26-inside-6_2296_22673)"/>
<mask id="path-28-inside-7_2296_22673" fill="white">
<path d="M124.421 100.46L131.698 98.019L134.14 105.296L126.863 107.737L124.421 100.46Z"/>
</mask>
<path d="M124.421 100.46L131.698 98.019L134.14 105.296L126.863 107.737L124.421 100.46Z" fill="#FFF258"/>
<path d="M124.421 100.46L124.371 100.309L124.295 100.334L124.346 100.486L124.421 100.46ZM131.698 98.019L131.85 97.9681L131.799 97.8165L131.647 97.8674L131.698 98.019ZM134.14 105.296L134.191 105.447L134.342 105.396L134.291 105.245L134.14 105.296ZM126.863 107.737L126.787 107.763L126.838 107.914L126.914 107.889L126.863 107.737ZM124.472 100.612L131.749 98.1706L131.647 97.8674L124.371 100.309L124.472 100.612ZM131.547 98.0698L133.988 105.347L134.291 105.245L131.85 97.9681L131.547 98.0698ZM134.089 105.144L126.812 107.586L126.914 107.889L134.191 105.447L134.089 105.144ZM126.939 107.712L124.497 100.435L124.346 100.486L126.787 107.763L126.939 107.712Z" fill="#1F2225" mask="url(#path-28-inside-7_2296_22673)"/>
<path d="M120.399 104.806L119.562 105.086L119.372 104.519C119.6 104.442 119.775 104.362 119.898 104.277C120.026 104.191 120.116 104.091 120.17 103.976C120.221 103.856 120.25 103.701 120.256 103.51L120.794 103.329L122.503 108.423L121.703 108.691L120.399 104.806ZM123.313 103.828L122.476 104.109L122.286 103.541C122.514 103.465 122.689 103.384 122.812 103.3C122.939 103.214 123.03 103.113 123.083 102.998C123.135 102.879 123.163 102.723 123.17 102.532L123.708 102.352L125.417 107.445L124.617 107.714L123.313 103.828Z" fill="#1F2225"/>
<path d="M127.616 102.642L126.779 102.923L126.589 102.355C126.817 102.279 126.992 102.198 127.115 102.114C127.243 102.028 127.333 101.928 127.386 101.813C127.438 101.693 127.467 101.537 127.473 101.346L128.011 101.166L129.72 106.259L128.92 106.528L127.616 102.642ZM130.513 105.378C130.391 105.014 130.345 104.684 130.375 104.388C130.403 104.087 130.515 103.729 130.71 103.312C130.9 102.898 131.014 102.56 131.05 102.3C131.092 102.037 131.072 101.785 130.991 101.542C130.917 101.324 130.831 101.186 130.73 101.128C130.633 101.063 130.516 101.054 130.381 101.099C130.104 101.192 130.022 101.406 130.134 101.741L130.317 102.286L129.561 102.54L129.395 102.046C129.256 101.633 129.252 101.284 129.383 100.997C129.512 100.706 129.77 100.495 130.158 100.364C130.546 100.234 130.88 100.247 131.158 100.401C131.435 100.551 131.643 100.832 131.781 101.245C131.886 101.555 131.912 101.884 131.861 102.23C131.815 102.575 131.674 103 131.439 103.505C131.286 103.837 131.195 104.097 131.166 104.285C131.136 104.468 131.151 104.649 131.211 104.828L131.247 104.938L132.768 104.427L133.012 105.155L130.698 105.931L130.513 105.378Z" fill="#1F2225"/>
<mask id="path-32-inside-8_2296_22673" fill="white">
<path d="M131.799 97.8892L139.076 95.4477L141.517 102.724L134.24 105.166L131.799 97.8892Z"/>
</mask>
<path d="M131.799 97.8892L139.076 95.4477L141.517 102.724L134.24 105.166L131.799 97.8892Z" fill="#FFF258"/>
<path d="M131.799 97.8892L131.748 97.7376L131.597 97.7884L131.647 97.94L131.799 97.8892ZM139.076 95.4477L139.151 95.4222L139.101 95.2706L139.025 95.2961L139.076 95.4477ZM141.517 102.724L141.568 102.876L141.644 102.851L141.593 102.699L141.517 102.724ZM134.24 105.166L134.089 105.217L134.14 105.368L134.291 105.317L134.24 105.166ZM131.85 98.0408L139.127 95.5993L139.025 95.2961L131.748 97.7376L131.85 98.0408ZM139 95.4731L141.441 102.75L141.593 102.699L139.151 95.4222L139 95.4731ZM141.466 102.573L134.19 105.014L134.291 105.317L141.568 102.876L141.466 102.573ZM134.392 105.115L131.951 97.8383L131.647 97.94L134.089 105.217L134.392 105.115Z" fill="#1F2225" mask="url(#path-32-inside-8_2296_22673)"/>
<mask id="path-34-inside-9_2296_22673" fill="white">
<path d="M139.076 95.4476L146.352 93.0061L148.794 100.283L141.517 102.724L139.076 95.4476Z"/>
</mask>
<path d="M139.076 95.4476L146.352 93.0061L148.794 100.283L141.517 102.724L139.076 95.4476Z" fill="#FFF258"/>
<path d="M139.076 95.4476L139.025 95.296L138.949 95.3215L139 95.4731L139.076 95.4476ZM146.352 93.0061L146.504 92.9553L146.453 92.8037L146.302 92.8545L146.352 93.0061ZM148.794 100.283L148.845 100.434L148.996 100.384L148.946 100.232L148.794 100.283ZM141.517 102.724L141.441 102.75L141.492 102.901L141.568 102.876L141.517 102.724ZM139.127 95.5992L146.403 93.1577L146.302 92.8545L139.025 95.296L139.127 95.5992ZM146.201 93.057L148.642 100.334L148.946 100.232L146.504 92.9553L146.201 93.057ZM148.743 100.131L141.466 102.573L141.568 102.876L148.845 100.434L148.743 100.131ZM141.593 102.699L139.151 95.4222L139 95.4731L141.441 102.75L141.593 102.699Z" fill="#1F2225" mask="url(#path-34-inside-9_2296_22673)"/>
<path d="M135.054 99.7928L134.217 100.074L134.026 99.506C134.254 99.4295 134.43 99.349 134.553 99.2646C134.68 99.1786 134.771 99.0781 134.824 98.9631C134.875 98.8433 134.904 98.6879 134.91 98.4969L135.449 98.3163L137.158 103.41L136.357 103.679L135.054 99.7928ZM139.31 102.769C138.917 102.901 138.582 102.892 138.305 102.742C138.033 102.59 137.828 102.311 137.692 101.903L137.552 101.488L138.309 101.234L138.461 101.686C138.573 102.02 138.767 102.141 139.044 102.049C139.18 102.003 139.268 101.928 139.308 101.822C139.351 101.711 139.337 101.548 139.266 101.334L139.127 100.92C139.048 100.687 138.952 100.536 138.837 100.466C138.72 100.392 138.57 100.386 138.385 100.448L138.116 100.538L137.872 99.8105L138.163 99.7129C138.323 99.6592 138.428 99.5781 138.478 99.4695C138.533 99.3594 138.528 99.2073 138.463 99.0133L138.338 98.6422C138.28 98.4675 138.2 98.3512 138.1 98.2931C137.999 98.2351 137.888 98.2264 137.767 98.2671C137.51 98.3533 137.434 98.5541 137.54 98.8695L137.652 99.2042L136.896 99.4581L136.805 99.1889C136.668 98.7814 136.663 98.4351 136.789 98.1501C136.919 97.8634 137.174 97.6566 137.552 97.5296C137.935 97.401 138.263 97.4125 138.535 97.5641C138.806 97.7108 139.009 97.9879 139.146 98.3954L139.207 98.5773C139.3 98.8539 139.328 99.0925 139.293 99.2932C139.256 99.4891 139.153 99.6559 138.984 99.7938L138.988 99.8083C139.223 99.816 139.416 99.8917 139.567 100.035C139.717 100.179 139.838 100.387 139.929 100.658L140.081 101.11C140.218 101.517 140.221 101.864 140.09 102.151C139.963 102.431 139.703 102.637 139.31 102.769Z" fill="#1F2225"/>
<path d="M142.271 97.6294L141.434 97.9102L141.243 97.3426C141.471 97.2661 141.647 97.1857 141.769 97.1013C141.897 97.0153 141.988 96.9148 142.041 96.7998C142.092 96.6799 142.121 96.5246 142.127 96.3336L142.666 96.1529L144.375 101.247L143.574 101.515L142.271 97.6294ZM146.396 99.5403L144.868 100.053L144.624 99.3253L144.924 95.3951L145.798 95.1021L146.952 98.544L147.331 98.4171L147.575 99.1447L147.196 99.2717L147.507 100.196L146.706 100.464L146.396 99.5403ZM146.152 98.8126L145.485 96.826L145.471 96.8309L145.351 99.0812L146.152 98.8126Z" fill="#1F2225"/>
<mask id="path-38-inside-10_2296_22673" fill="white">
<path d="M146.511 92.7721L153.787 90.3306L156.229 97.6073L148.952 100.049L146.511 92.7721Z"/>
</mask>
<path d="M146.511 92.7721L153.787 90.3306L156.229 97.6073L148.952 100.049L146.511 92.7721Z" fill="#FFF258"/>
<path d="M146.511 92.7721L146.46 92.6205L146.308 92.6714L146.359 92.823L146.511 92.7721ZM153.787 90.3306L153.863 90.3052L153.812 90.1536L153.736 90.179L153.787 90.3306ZM156.229 97.6073L156.28 97.7589L156.355 97.7335L156.305 97.5819L156.229 97.6073ZM148.952 100.049L148.8 100.1L148.851 100.251L149.003 100.2L148.952 100.049ZM146.561 92.9237L153.838 90.4822L153.736 90.179L146.46 92.6205L146.561 92.9237ZM153.711 90.356L156.153 97.6328L156.305 97.5819L153.863 90.3052L153.711 90.356ZM156.178 97.4557L148.901 99.8972L149.003 100.2L156.28 97.7589L156.178 97.4557ZM149.104 99.998L146.662 92.7212L146.359 92.823L148.8 100.1L149.104 99.998Z" fill="#1F2225" mask="url(#path-38-inside-10_2296_22673)"/>
<mask id="path-40-inside-11_2296_22673" fill="white">
<path d="M153.787 90.3306L161.064 87.8891L163.505 95.1658L156.229 97.6073L153.787 90.3306Z"/>
</mask>
<path d="M153.787 90.3306L161.064 87.8891L163.505 95.1658L156.229 97.6073L153.787 90.3306Z" fill="#FFF258"/>
<path d="M153.787 90.3306L153.736 90.179L153.661 90.2044L153.711 90.356L153.787 90.3306ZM161.064 87.8891L161.216 87.8382L161.165 87.6866L161.013 87.7375L161.064 87.8891ZM163.505 95.1658L163.556 95.3174L163.708 95.2665L163.657 95.1149L163.505 95.1658ZM156.229 97.6073L156.153 97.6327L156.204 97.7843L156.28 97.7589L156.229 97.6073ZM153.838 90.4822L161.115 88.0407L161.013 87.7375L153.736 90.179L153.838 90.4822ZM160.912 87.9399L163.354 95.2167L163.657 95.1149L161.216 87.8382L160.912 87.9399ZM163.455 95.0142L156.178 97.4557L156.28 97.7589L163.556 95.3174L163.455 95.0142ZM156.305 97.5819L153.863 90.3051L153.711 90.356L156.153 97.6327L156.305 97.5819Z" fill="#1F2225" mask="url(#path-40-inside-11_2296_22673)"/>
<path d="M149.765 94.6757L148.928 94.9565L148.738 94.3889C148.966 94.3124 149.141 94.2319 149.264 94.1476C149.392 94.0615 149.482 93.961 149.535 93.8461C149.587 93.7262 149.616 93.5708 149.622 93.3799L150.16 93.1992L151.869 98.2929L151.069 98.5615L149.765 94.6757ZM154.058 97.6396C153.67 97.7698 153.337 97.76 153.06 97.61C152.782 97.4552 152.573 97.1717 152.435 96.7593L152.3 96.3591L153.057 96.1052L153.211 96.5636C153.322 96.8935 153.515 97.012 153.792 96.9193C154.068 96.8265 154.151 96.6151 154.041 96.2853L153.657 95.1428C153.545 94.8081 153.35 94.6871 153.074 94.7799C152.797 94.8727 152.715 95.0864 152.828 95.4212L152.842 95.4648L152.086 95.7187L151.276 92.8247L153.387 92.1167L153.631 92.8443L152.234 93.3131L152.576 94.5503L152.591 94.5454C152.658 94.2475 152.847 94.0465 153.157 93.9424C153.448 93.8447 153.702 93.8701 153.92 94.0185C154.137 94.167 154.309 94.4304 154.436 94.8088L154.821 95.9585C154.96 96.3708 154.965 96.7228 154.836 97.0143C154.705 97.301 154.446 97.5094 154.058 97.6396Z" fill="#1F2225"/>
<path d="M156.982 92.5124L156.145 92.7931L155.955 92.2256C156.183 92.1491 156.358 92.0686 156.481 91.9842C156.609 91.8982 156.699 91.7977 156.752 91.6827C156.804 91.5629 156.833 91.4075 156.839 91.2165L157.377 91.0359L159.086 96.1296L158.286 96.3981L156.982 92.5124ZM161.282 95.4738C160.889 95.6057 160.551 95.595 160.267 95.4418C159.984 95.2887 159.774 95.0084 159.637 94.6009L158.753 91.9667C158.457 91.0838 158.716 90.5056 159.531 90.2321C159.919 90.1019 160.253 90.1142 160.531 90.269C160.808 90.4189 161.016 90.7001 161.154 91.1124L161.186 91.207L160.429 91.461L160.381 91.3154C160.268 90.9807 160.074 90.8597 159.797 90.9525C159.647 91.0029 159.551 91.0865 159.509 91.2031C159.467 91.3196 159.485 91.4944 159.563 91.7272L159.891 92.7023L159.905 92.6974C159.947 92.3543 160.139 92.125 160.484 92.0094C160.775 91.9117 161.029 91.9371 161.246 92.0856C161.463 92.234 161.635 92.4974 161.762 92.8758L162.068 93.7854C162.204 94.1929 162.206 94.5432 162.072 94.8364C161.938 95.1295 161.675 95.342 161.282 95.4738ZM161.038 94.7462C161.314 94.6534 161.397 94.4421 161.287 94.1122L160.984 93.2099C160.872 92.8751 160.677 92.7542 160.401 92.8469C160.124 92.9397 160.042 93.1535 160.154 93.4882L160.457 94.3905C160.568 94.7204 160.761 94.8389 161.038 94.7462Z" fill="#1F2225"/>
<mask id="path-44-inside-12_2296_22673" fill="white">
<path d="M161.221 87.9777L168.251 84.8952L171.333 91.9244L164.304 95.0069L161.221 87.9777Z"/>
</mask>
<path d="M161.221 87.9777L168.251 84.8952L171.333 91.9244L164.304 95.0069L161.221 87.9777Z" fill="#FFF258"/>
<path d="M161.221 87.9777L161.157 87.8312L161.011 87.8954L161.075 88.0419L161.221 87.9777ZM168.251 84.8952L168.324 84.8631L168.26 84.7167L168.186 84.7488L168.251 84.8952ZM171.333 91.9244L171.397 92.0709L171.47 92.0388L171.406 91.8923L171.333 91.9244ZM164.304 95.0069L164.157 95.0711L164.222 95.2176L164.368 95.1533L164.304 95.0069ZM161.286 88.1241L168.315 85.0416L168.186 84.7488L161.157 87.8312L161.286 88.1241ZM168.177 84.9273L171.26 91.9565L171.406 91.8923L168.324 84.8631L168.177 84.9273ZM171.269 91.778L164.24 94.8605L164.368 95.1533L171.397 92.0709L171.269 91.778ZM164.45 94.9427L161.368 87.9134L161.075 88.0419L164.157 95.0711L164.45 94.9427Z" fill="#1F2225" mask="url(#path-44-inside-12_2296_22673)"/>
<mask id="path-46-inside-13_2296_22673" fill="white">
<path d="M168.251 84.8953L175.28 81.8128L178.362 88.842L171.333 91.9245L168.251 84.8953Z"/>
</mask>
<path d="M168.251 84.8953L175.28 81.8128L178.362 88.842L171.333 91.9245L168.251 84.8953Z" fill="#FFF258"/>
<path d="M168.251 84.8953L168.186 84.7488L168.113 84.7809L168.177 84.9274L168.251 84.8953ZM175.28 81.8128L175.426 81.7486L175.362 81.6021L175.216 81.6664L175.28 81.8128ZM178.362 88.842L178.426 88.9885L178.573 88.9243L178.509 88.7778L178.362 88.842ZM171.333 91.9245L171.26 91.9566L171.324 92.1031L171.397 92.0709L171.333 91.9245ZM168.315 85.0417L175.344 81.9592L175.216 81.6664L168.186 84.7488L168.315 85.0417ZM175.133 81.877L178.216 88.9063L178.509 88.7778L175.426 81.7486L175.133 81.877ZM178.298 88.6956L171.269 91.7781L171.397 92.0709L178.426 88.9885L178.298 88.6956ZM171.406 91.8924L168.324 84.8632L168.177 84.9274L171.26 91.9566L171.406 91.8924Z" fill="#1F2225" mask="url(#path-46-inside-13_2296_22673)"/>
<path d="M164.633 89.5825L163.825 89.937L163.584 89.3887C163.805 89.2922 163.972 89.1964 164.087 89.1013C164.206 89.0042 164.287 88.8961 164.33 88.7768C164.371 88.6528 164.385 88.4954 164.374 88.3047L164.895 88.0766L167.052 92.9971L166.279 93.3362L164.633 89.5825ZM167.673 87.6964L166.112 88.3807L165.804 87.6778L168.124 86.6606L168.42 87.3354L169.073 92.1112L168.285 92.4564L167.673 87.6964Z" fill="#1F2225"/>
<path d="M171.628 86.7825L170.819 87.137L170.579 86.5887C170.799 86.4921 170.967 86.3963 171.081 86.3013C171.201 86.2042 171.282 86.096 171.325 85.9767C171.365 85.8528 171.38 85.6954 171.369 85.5047L171.889 85.2766L174.047 90.197L173.274 90.5361L171.628 86.7825ZM176.154 89.3568C175.765 89.5274 175.42 89.5558 175.119 89.4421C174.82 89.3216 174.584 89.0646 174.412 88.6709L174.221 88.2351C174.114 87.9914 174.064 87.7701 174.072 87.5712C174.078 87.3675 174.149 87.1798 174.286 87.008L174.28 86.9939C174.077 86.9768 173.902 86.9084 173.754 86.7887C173.609 86.6622 173.483 86.4772 173.377 86.2335L173.287 86.0297C173.115 85.636 173.084 85.2919 173.195 84.9974C173.309 84.6961 173.555 84.4622 173.935 84.2957C174.314 84.1293 174.651 84.1073 174.945 84.2298C175.242 84.3456 175.476 84.6003 175.649 84.994L175.738 85.1978C175.944 85.6664 175.926 86.0596 175.686 86.3774L175.692 86.3915C175.911 86.4071 176.097 86.4818 176.251 86.6156C176.403 86.7447 176.532 86.9311 176.639 87.1747L176.83 87.6106C177.003 88.0042 177.03 88.3527 176.911 88.656C176.795 88.9526 176.543 89.1862 176.154 89.3568ZM174.844 86.3694C175.116 86.2502 175.18 86.0266 175.036 85.6985L174.867 85.3119C174.723 84.9839 174.515 84.8795 174.243 84.9987C173.971 85.1179 173.907 85.3415 174.051 85.6695L174.221 86.0561C174.364 86.3841 174.572 86.4886 174.844 86.3694ZM175.846 88.6539C176.136 88.5265 176.201 88.2777 176.038 87.9075L175.832 87.4365C175.669 87.0663 175.443 86.9449 175.152 87.0723C174.862 87.1997 174.798 87.4485 174.96 87.8187L175.167 88.2897C175.329 88.6599 175.555 88.7813 175.846 88.6539Z" fill="#1F2225"/>
<mask id="path-50-inside-14_2296_22673" fill="white">
<path d="M175.285 81.5928L182.06 77.9864L185.667 84.7617L178.892 88.3681L175.285 81.5928Z"/>
</mask>
<path d="M175.285 81.5928L182.06 77.9864L185.667 84.7617L178.892 88.3681L175.285 81.5928Z" fill="#FFF258"/>
<path d="M175.285 81.5928L175.21 81.4516L175.069 81.5268L175.144 81.6679L175.285 81.5928ZM182.06 77.9864L182.131 77.9488L182.056 77.8076L181.985 77.8452L182.06 77.9864ZM185.667 84.7617L185.742 84.9029L185.813 84.8653L185.737 84.7241L185.667 84.7617ZM178.892 88.3681L178.75 88.4433L178.826 88.5844L178.967 88.5093L178.892 88.3681ZM175.36 81.7339L182.136 78.1275L181.985 77.8452L175.21 81.4516L175.36 81.7339ZM181.99 78.0239L185.596 84.7993L185.737 84.7241L182.131 77.9488L181.99 78.0239ZM185.592 84.6206L178.816 88.227L178.967 88.5093L185.742 84.9029L185.592 84.6206ZM179.033 88.293L175.426 81.5176L175.144 81.6679L178.75 88.4433L179.033 88.293Z" fill="#1F2225" mask="url(#path-50-inside-14_2296_22673)"/>
<mask id="path-52-inside-15_2296_22673" fill="white">
<path d="M182.06 77.9863L188.836 74.3799L192.442 81.1553L185.667 84.7617L182.06 77.9863Z"/>
</mask>
<path d="M182.06 77.9863L188.836 74.3799L192.442 81.1553L185.667 84.7617L182.06 77.9863Z" fill="#FFF258"/>
<path d="M182.06 77.9863L181.985 77.8452L181.915 77.8827L181.99 78.0239L182.06 77.9863ZM188.836 74.3799L188.977 74.3048L188.902 74.1636L188.761 74.2388L188.836 74.3799ZM192.442 81.1553L192.517 81.2964L192.659 81.2213L192.583 81.0801L192.442 81.1553ZM185.667 84.7617L185.596 84.7993L185.671 84.9404L185.742 84.9028L185.667 84.7617ZM182.136 78.1275L188.911 74.5211L188.761 74.2388L181.985 77.8452L182.136 78.1275ZM188.695 74.455L192.301 81.2304L192.583 81.0801L188.977 74.3048L188.695 74.455ZM192.367 81.0141L185.592 84.6205L185.742 84.9028L192.517 81.2964L192.367 81.0141ZM185.737 84.7241L182.131 77.9488L181.99 78.0239L185.596 84.7993L185.737 84.7241Z" fill="#1F2225" mask="url(#path-52-inside-15_2296_22673)"/>
<path d="M178.809 82.9345L178.03 83.3492L177.748 82.8207C177.961 82.7077 178.12 82.5995 178.228 82.4961C178.339 82.3902 178.412 82.2762 178.445 82.154C178.477 82.0273 178.479 81.8693 178.454 81.6799L178.955 81.4131L181.48 86.1558L180.735 86.5525L178.809 82.9345ZM183.49 85.1727C183.129 85.365 182.799 85.4101 182.501 85.3078C182.201 85.201 181.949 84.9556 181.744 84.5717L181.697 84.4836L182.402 84.1085L182.474 84.244C182.64 84.5557 182.852 84.643 183.109 84.506C183.249 84.4314 183.33 84.3332 183.352 84.2114C183.374 84.0895 183.328 83.9201 183.212 83.7033L182.729 82.7954L182.716 82.8026C182.731 83.1479 182.579 83.4059 182.258 83.5766C181.987 83.7208 181.732 83.7376 181.494 83.627C181.255 83.5163 181.042 83.2848 180.854 82.9325L180.404 82.0856C180.202 81.7061 180.142 81.3609 180.226 81.0497C180.31 80.7385 180.534 80.4856 180.9 80.2908C181.266 80.0961 181.602 80.0509 181.906 80.1553C182.211 80.2597 182.465 80.5016 182.667 80.881L183.972 83.3337C184.41 84.1558 184.249 84.7688 183.49 85.1727ZM182.202 82.7367C182.46 82.5997 182.506 82.3753 182.34 82.0637L181.892 81.2235C181.729 80.9164 181.518 80.8313 181.261 80.9684C181.004 81.1054 180.957 81.3275 181.12 81.6347L181.567 82.4748C181.733 82.7865 181.945 82.8738 182.202 82.7367Z" fill="#1F2225"/>
<path d="M186.166 83.2779C185.985 82.9392 185.886 82.6212 185.867 82.3241C185.845 82.0225 185.896 81.6504 186.02 81.2077C186.139 80.7675 186.196 80.4158 186.189 80.1527C186.187 79.8872 186.126 79.6416 186.005 79.4157C185.897 79.2125 185.789 79.0905 185.68 79.0497C185.574 79.0021 185.457 79.0119 185.331 79.0793C185.073 79.2163 185.028 79.4407 185.193 79.7523L185.464 80.2605L184.759 80.6355L184.514 80.1748C184.31 79.7909 184.248 79.4468 184.33 79.1426C184.409 78.8338 184.629 78.5832 184.99 78.3909C185.352 78.1986 185.683 78.1558 185.983 78.2626C186.281 78.3649 186.532 78.608 186.736 78.9919C186.89 79.281 186.97 79.6006 186.977 79.9506C186.988 80.2983 186.919 80.7407 186.771 81.2779C186.674 81.6305 186.627 81.9019 186.63 82.0918C186.63 82.2772 186.675 82.4535 186.764 82.6206L186.818 82.7222L188.234 81.9685L188.594 82.646L186.44 83.7929L186.166 83.2779ZM190.28 81.836C189.914 82.0308 189.578 82.0759 189.273 81.9715C188.969 81.8671 188.715 81.6252 188.513 81.2458L187.186 78.7525C186.984 78.3731 186.925 78.0278 187.009 77.7166C187.092 77.4054 187.317 77.1525 187.683 76.9577C188.049 76.763 188.384 76.7178 188.689 76.8222C188.994 76.9266 189.247 77.1685 189.449 77.5479L190.776 80.0413C190.978 80.4207 191.037 80.766 190.954 81.0771C190.87 81.3883 190.645 81.6413 190.28 81.836ZM189.919 81.1585C190.176 81.0214 190.222 80.7971 190.056 80.4854L188.679 77.8972C188.513 77.5855 188.301 77.4982 188.044 77.6353C187.786 77.7723 187.74 77.9967 187.906 78.3083L189.284 80.8965C189.45 81.2082 189.661 81.2955 189.919 81.1585Z" fill="#1F2225"/>
<mask id="path-56-inside-16_2296_22673" fill="white">
<path d="M189.045 74.1458L195.494 69.9841L199.656 76.4334L193.206 80.595L189.045 74.1458Z"/>
</mask>
<path d="M189.045 74.1458L195.494 69.9841L199.656 76.4334L193.206 80.595L189.045 74.1458Z" fill="#FFF258"/>
<path d="M189.045 74.1458L188.958 74.0114L188.824 74.0981L188.91 74.2325L189.045 74.1458ZM195.494 69.9841L195.561 69.9408L195.474 69.8064L195.407 69.8498L195.494 69.9841ZM199.656 76.4334L199.742 76.5677L199.81 76.5244L199.723 76.39L199.656 76.4334ZM193.206 80.595L193.072 80.6817L193.159 80.816L193.293 80.7293L193.206 80.595ZM189.131 74.2801L195.581 70.1185L195.407 69.8498L188.958 74.0114L189.131 74.2801ZM195.427 70.0275L199.588 76.4767L199.723 76.39L195.561 69.9408L195.427 70.0275ZM199.569 76.299L193.12 80.4606L193.293 80.7293L199.742 76.5677L199.569 76.299ZM193.341 80.5083L189.179 74.0591L188.91 74.2325L193.072 80.6817L193.341 80.5083Z" fill="#1F2225" mask="url(#path-56-inside-16_2296_22673)"/>
<mask id="path-58-inside-17_2296_22673" fill="white">
<path d="M195.494 69.9841L201.943 65.8225L206.105 72.2717L199.656 76.4334L195.494 69.9841Z"/>
</mask>
<path d="M195.494 69.9841L201.943 65.8225L206.105 72.2717L199.656 76.4334L195.494 69.9841Z" fill="#FFF258"/>
<path d="M195.494 69.9841L195.407 69.8498L195.34 69.8931L195.427 70.0275L195.494 69.9841ZM201.943 65.8225L202.078 65.7358L201.991 65.6014L201.857 65.6881L201.943 65.8225ZM206.105 72.2717L206.192 72.4061L206.326 72.3194L206.239 72.185L206.105 72.2717ZM199.656 76.4334L199.588 76.4767L199.675 76.6111L199.742 76.5677L199.656 76.4334ZM195.581 70.1185L202.03 65.9569L201.857 65.6881L195.407 69.8498L195.581 70.1185ZM201.809 65.9092L205.971 72.3584L206.239 72.185L202.078 65.7358L201.809 65.9092ZM206.018 72.1374L199.569 76.299L199.742 76.5677L206.192 72.4061L206.018 72.1374ZM199.723 76.39L195.561 69.9408L195.427 70.0275L199.588 76.4767L199.723 76.39Z" fill="#1F2225" mask="url(#path-58-inside-17_2296_22673)"/>
<path d="M193.568 78.7903C193.36 78.4678 193.234 78.1594 193.191 77.8649C193.144 77.5662 193.164 77.191 193.25 76.7396C193.332 76.2908 193.358 75.9357 193.33 75.6741C193.305 75.4097 193.224 75.1701 193.085 74.9551C192.96 74.7616 192.842 74.6492 192.73 74.6177C192.62 74.5791 192.505 74.5987 192.384 74.6764C192.139 74.8345 192.113 75.0619 192.304 75.3586L192.616 75.8423L191.945 76.2751L191.662 75.8365C191.427 75.4711 191.337 75.1334 191.392 74.8234C191.445 74.5091 191.644 74.2409 191.988 74.019C192.332 73.797 192.658 73.7267 192.966 73.8079C193.271 73.8849 193.542 74.1061 193.778 74.4715C193.955 74.7467 194.062 75.0584 194.098 75.4067C194.138 75.7522 194.107 76.1988 194.003 76.7466C193.937 77.1061 193.913 77.3804 193.932 77.5694C193.947 77.7542 194.006 77.9261 194.109 78.0852L194.172 78.1819L195.519 77.3121L195.936 77.957L193.885 79.2804L193.568 78.7903ZM195.251 73.5211L194.509 73.9996L194.184 73.4966C194.386 73.3662 194.537 73.245 194.635 73.1329C194.737 73.018 194.8 72.8983 194.823 72.7738C194.844 72.6449 194.833 72.4872 194.792 72.3007L195.269 71.9927L198.182 76.5072L197.473 76.9649L195.251 73.5211Z" fill="#1F2225"/>
<path d="M200.028 74.9131C199.82 74.5906 199.694 74.2822 199.65 73.9877C199.604 73.689 199.624 73.3138 199.71 72.8624C199.792 72.4136 199.818 72.0585 199.79 71.7969C199.765 71.5326 199.684 71.2929 199.545 71.0779C199.42 70.8844 199.302 70.772 199.19 70.7405C199.08 70.7019 198.965 70.7215 198.844 70.7992C198.599 70.9573 198.573 71.1847 198.764 71.4814L199.076 71.9651L198.405 72.3979L198.122 71.9593C197.887 71.5939 197.796 71.2562 197.852 70.9462C197.905 70.6319 198.104 70.3637 198.448 70.1418C198.792 69.9198 199.118 69.8495 199.426 69.9307C199.731 70.0077 200.002 70.2289 200.238 70.5943C200.415 70.8695 200.522 71.1812 200.558 71.5295C200.598 71.875 200.567 72.3216 200.463 72.8694C200.397 73.2289 200.373 73.5032 200.392 73.6922C200.407 73.877 200.466 74.0489 200.569 74.208L200.631 74.3047L201.979 73.4349L202.396 74.0798L200.345 75.4032L200.028 74.9131ZM202.611 73.2468C202.403 72.9244 202.277 72.6159 202.233 72.3214C202.186 72.0227 202.206 71.6476 202.292 71.1961C202.374 70.7474 202.401 70.3922 202.372 70.1306C202.347 69.8663 202.266 69.6266 202.127 69.4116C202.002 69.2182 201.884 69.1057 201.772 69.0742C201.662 69.0357 201.547 69.0552 201.427 69.1329C201.182 69.291 201.155 69.5184 201.346 69.8151L201.658 70.2988L200.988 70.7316L200.705 70.2931C200.469 69.9276 200.379 69.5899 200.434 69.2799C200.487 68.9656 200.686 68.6974 201.03 68.4755C201.374 68.2535 201.7 68.1832 202.008 68.2644C202.313 68.3414 202.584 68.5626 202.82 68.9281C202.997 69.2032 203.104 69.5149 203.14 69.8632C203.18 70.2087 203.149 70.6553 203.046 71.2031C202.979 71.5626 202.955 71.8369 202.974 72.0259C202.989 72.2107 203.049 72.3826 203.151 72.5417L203.214 72.6384L204.562 71.7686L204.978 72.4136L202.927 73.737L202.611 73.2468Z" fill="#1F2225"/>
<mask id="path-62-inside-18_2296_22673" fill="white">
<path d="M202.158 65.7136L208.541 61.4505L212.804 67.8331L206.421 72.0962L202.158 65.7136Z"/>
</mask>
<path d="M202.158 65.7136L208.541 61.4505L212.804 67.8331L206.421 72.0962L202.158 65.7136Z" fill="#FFF258"/>
<path d="M202.158 65.7136L202.069 65.5807L201.936 65.6695L202.025 65.8024L202.158 65.7136ZM208.541 61.4505L208.607 61.4061L208.518 61.2731L208.452 61.3176L208.541 61.4505ZM212.804 67.8331L212.892 67.9661L212.959 67.9217L212.87 67.7887L212.804 67.8331ZM206.421 72.0962L206.288 72.1851L206.377 72.318L206.51 72.2292L206.421 72.0962ZM202.247 65.8466L208.629 61.5835L208.452 61.3176L202.069 65.5807L202.247 65.8466ZM208.474 61.4949L212.737 67.8775L212.87 67.7887L208.607 61.4061L208.474 61.4949ZM212.715 67.7002L206.332 71.9633L206.51 72.2292L212.892 67.9661L212.715 67.7002ZM206.554 72.0074L202.291 65.6248L202.025 65.8024L206.288 72.1851L206.554 72.0074Z" fill="#1F2225" mask="url(#path-62-inside-18_2296_22673)"/>
<mask id="path-64-inside-19_2296_22673" fill="white">
<path d="M208.541 61.4506L214.923 57.1875L219.186 63.5701L212.804 67.8332L208.541 61.4506Z"/>
</mask>
<path d="M208.541 61.4506L214.923 57.1875L219.186 63.5701L212.804 67.8332L208.541 61.4506Z" fill="#FFF258"/>
<path d="M208.541 61.4506L208.452 61.3176L208.385 61.362L208.474 61.495L208.541 61.4506ZM214.923 57.1875L215.056 57.0987L214.967 56.9657L214.834 57.0545L214.923 57.1875ZM219.186 63.5701L219.275 63.7031L219.408 63.6142L219.319 63.4813L219.186 63.5701ZM212.804 67.8332L212.737 67.8776L212.826 68.0106L212.892 67.9661L212.804 67.8332ZM208.629 61.5835L215.012 57.3204L214.834 57.0545L208.452 61.3176L208.629 61.5835ZM214.79 57.2763L219.053 63.6589L219.319 63.4813L215.056 57.0987L214.79 57.2763ZM219.097 63.4371L212.715 67.7002L212.892 67.9661L219.275 63.7031L219.097 63.4371ZM212.87 67.7888L208.607 61.4062L208.474 61.495L212.737 67.8776L212.87 67.7888Z" fill="#1F2225" mask="url(#path-64-inside-19_2296_22673)"/>
<path d="M206.754 70.286C206.541 69.9669 206.41 69.6605 206.362 69.3668C206.311 69.0688 206.324 68.6934 206.404 68.2406C206.478 67.7907 206.499 67.4351 206.466 67.174C206.438 66.9101 206.353 66.6717 206.21 66.459C206.083 66.2675 205.962 66.1569 205.85 66.1272C205.74 66.0904 205.625 66.1118 205.506 66.1914C205.263 66.3534 205.24 66.5812 205.436 66.8748L205.756 67.3535L205.092 67.7968L204.802 67.3628C204.56 67.0011 204.465 66.6649 204.516 66.354C204.564 66.0389 204.758 65.7677 205.098 65.5403C205.439 65.313 205.764 65.2375 206.073 65.3138C206.38 65.3859 206.654 65.6028 206.895 65.9645C207.077 66.2368 207.189 66.5468 207.23 66.8945C207.276 67.2393 207.252 67.6864 207.157 68.2357C207.096 68.5962 207.077 68.8708 207.098 69.0596C207.117 69.2441 207.179 69.415 207.284 69.5724L207.348 69.6682L208.682 68.7772L209.108 69.4155L207.078 70.7711L206.754 70.286ZM210.685 68.4545C210.34 68.6847 210.015 68.7637 209.708 68.6916C209.406 68.6167 209.135 68.4005 208.897 68.0431L208.654 67.6792L209.317 67.2359L209.582 67.6316C209.778 67.9252 209.997 67.991 210.24 67.829C210.359 67.7494 210.424 67.6536 210.435 67.5415C210.448 67.4222 210.392 67.269 210.267 67.0818L210.024 66.718C209.887 66.5137 209.754 66.3932 209.625 66.3564C209.493 66.3154 209.346 66.3489 209.185 66.4569L208.949 66.6146L208.522 65.9763L208.778 65.8058C208.918 65.712 208.998 65.6062 209.018 65.4884C209.042 65.3678 208.997 65.2223 208.883 65.0521L208.666 64.7266C208.564 64.5734 208.456 64.482 208.344 64.4523C208.232 64.4226 208.123 64.4433 208.016 64.5143C207.791 64.6649 207.771 64.8785 207.955 65.1551L208.151 65.4487L207.488 65.8921L207.33 65.6559C207.091 65.2985 206.995 64.9658 207.042 64.6578C207.092 64.3469 207.284 64.0807 207.616 63.859C207.952 63.6345 208.271 63.5597 208.573 63.6346C208.873 63.7053 209.142 63.9194 209.381 64.2768L209.487 64.4364C209.649 64.6789 209.74 64.9017 209.758 65.1046C209.774 65.3033 209.718 65.4914 209.591 65.6689L209.599 65.6816C209.828 65.6275 210.033 65.65 210.217 65.7492C210.4 65.8484 210.571 66.0171 210.73 66.2554L210.994 66.6511C211.233 67.0086 211.327 67.3427 211.276 67.6535C211.227 67.9573 211.03 68.2243 210.685 68.4545Z" fill="#1F2225"/>
<path d="M213.152 66.3072C212.939 65.988 212.808 65.6816 212.76 65.3879C212.708 65.0899 212.722 64.7145 212.801 64.2617C212.876 63.8118 212.897 63.4563 212.864 63.1951C212.836 62.9312 212.75 62.6929 212.608 62.4801C212.48 62.2886 212.36 62.178 212.248 62.1483C212.137 62.1115 212.023 62.1329 211.903 62.2125C211.661 62.3745 211.638 62.6023 211.834 62.8959L212.153 63.3746L211.49 63.8179L211.2 63.3839C210.958 63.0222 210.863 62.686 210.914 62.3751C210.962 62.06 211.156 61.7888 211.496 61.5614C211.837 61.3341 212.162 61.2586 212.471 61.3349C212.778 61.4071 213.052 61.624 213.293 61.9856C213.475 62.258 213.587 62.568 213.628 62.9156C213.674 63.2604 213.65 63.7075 213.555 64.2568C213.494 64.6173 213.475 64.892 213.496 65.0807C213.515 65.2652 213.577 65.4361 213.682 65.5936L213.746 65.6893L215.08 64.7983L215.506 65.4366L213.476 66.7922L213.152 66.3072ZM216.678 63.4818L215.337 64.3771L214.911 63.7388L214.171 59.8672L214.937 59.3556L216.953 62.3746L217.285 62.1529L217.712 62.7912L217.38 63.0129L217.921 63.8235L217.219 64.2924L216.678 63.4818ZM216.251 62.8436L215.087 61.1011L215.075 61.1096L215.549 63.3125L216.251 62.8436Z" fill="#1F2225"/>
<mask id="path-68-inside-20_2296_22673" fill="white">
<path d="M85.7217 132.023L86.3668 139.671L78.7186 140.316L78.0735 132.668L85.7217 132.023Z"/>
</mask>
<path d="M85.7217 132.023L86.3668 139.671L78.7186 140.316L78.0735 132.668L85.7217 132.023Z" fill="#FFF258"/>
<path d="M85.7217 132.023L85.8811 132.009L85.8676 131.85L85.7083 131.863L85.7217 132.023ZM86.3668 139.671L86.3735 139.751L86.5329 139.737L86.5261 139.658L86.3668 139.671ZM78.7186 140.316L78.5592 140.33L78.5659 140.409L78.7253 140.396L78.7186 140.316ZM78.0735 132.668L78.06 132.509L77.9007 132.522L77.9141 132.681L78.0735 132.668ZM85.5624 132.036L86.2075 139.685L86.5261 139.658L85.8811 132.009L85.5624 132.036ZM86.3601 139.591L78.7118 140.236L78.7253 140.396L86.3735 139.751L86.3601 139.591ZM78.8779 140.303L78.2328 132.654L77.9141 132.681L78.5592 140.33L78.8779 140.303ZM78.0869 132.827L85.7352 132.182L85.7083 131.863L78.06 132.509L78.0869 132.827Z" fill="#1F2225" mask="url(#path-68-inside-20_2296_22673)"/>
<mask id="path-70-inside-21_2296_22673" fill="white">
<path d="M86.3668 139.671L87.0119 147.319L79.3636 147.964L78.7186 140.316L86.3668 139.671Z"/>
</mask>
<path d="M86.3668 139.671L87.0119 147.319L79.3636 147.964L78.7186 140.316L86.3668 139.671Z" fill="#FFF258"/>
<path d="M86.3668 139.671L86.5261 139.658L86.5194 139.578L86.3601 139.591L86.3668 139.671ZM87.0119 147.319L87.0253 147.479L87.1846 147.465L87.1712 147.306L87.0119 147.319ZM79.3636 147.964L79.2043 147.978L79.2177 148.137L79.3771 148.124L79.3636 147.964ZM78.7186 140.316L78.7118 140.236L78.5525 140.25L78.5592 140.33L78.7186 140.316ZM86.2075 139.684L86.8525 147.333L87.1712 147.306L86.5261 139.658L86.2075 139.684ZM86.9984 147.16L79.3502 147.805L79.3771 148.124L87.0253 147.479L86.9984 147.16ZM79.523 147.951L78.8779 140.303L78.5592 140.33L79.2043 147.978L79.523 147.951ZM78.7253 140.396L86.3735 139.751L86.3601 139.591L78.7118 140.236L78.7253 140.396Z" fill="#1F2225" mask="url(#path-70-inside-21_2296_22673)"/>
<path opacity="0.9" d="M82.7488 147.179C82.3409 147.213 82.0202 147.125 81.7867 146.913C81.5527 146.697 81.4175 146.372 81.3809 145.938L81.3455 145.518L82.1409 145.451L82.1815 145.933C82.2108 146.279 82.3707 146.44 82.6613 146.416C82.952 146.391 83.0827 146.206 83.0534 145.859L82.9521 144.658C82.9225 144.306 82.7623 144.143 82.4717 144.167C82.181 144.192 82.0506 144.38 82.0802 144.732L82.0841 144.778L81.2887 144.845L81.1894 141.841L83.4074 141.654L83.4719 142.419L82.0035 142.543L82.0424 143.826L82.0577 143.825C82.1938 143.551 82.425 143.401 82.7513 143.373C83.0573 143.348 83.2981 143.433 83.4738 143.628C83.6495 143.824 83.7541 144.121 83.7876 144.518L83.8896 145.727C83.9261 146.16 83.8472 146.503 83.6528 146.756C83.458 147.003 83.1567 147.144 82.7488 147.179Z" fill="#1F2225"/>
<path d="M82.1114 139.53C81.6984 139.565 81.3723 139.474 81.1333 139.258C80.8943 139.042 80.7567 138.72 80.7206 138.292L80.4871 135.523C80.4088 134.595 80.798 134.095 81.6546 134.023C82.0625 133.988 82.3834 134.079 82.6173 134.296C82.8508 134.507 82.9859 134.829 83.0224 135.263L83.0308 135.362L82.2354 135.429L82.2225 135.276C82.1928 134.925 82.0327 134.761 81.742 134.785C81.584 134.799 81.4708 134.857 81.4025 134.96C81.3342 135.064 81.3103 135.238 81.331 135.482L81.4174 136.507L81.4327 136.506C81.5543 136.183 81.7962 136.006 82.1582 135.975C82.4641 135.949 82.7049 136.034 82.8806 136.23C83.0563 136.426 83.1609 136.722 83.1945 137.12L83.2751 138.076C83.3112 138.504 83.2295 138.845 83.0301 139.098C82.8306 139.351 82.5244 139.495 82.1114 139.53ZM82.0469 138.765C82.3375 138.741 82.4682 138.555 82.439 138.208L82.359 137.26C82.3293 136.908 82.1691 136.744 81.8785 136.769C81.5879 136.793 81.4574 136.982 81.4871 137.333L81.5671 138.282C81.5963 138.628 81.7562 138.79 82.0469 138.765Z" fill="#1F2225"/>
<mask id="path-74-inside-22_2296_22673" fill="white">
<path d="M87.0007 147.693L87.6457 155.342L79.9975 155.987L79.3524 148.338L87.0007 147.693Z"/>
</mask>
<path d="M87.0007 147.693L87.6457 155.342L79.9975 155.987L79.3524 148.338L87.0007 147.693Z" fill="#FFF258"/>
<path d="M87.0007 147.693L87.16 147.68L87.1466 147.521L86.9872 147.534L87.0007 147.693ZM87.6457 155.342L87.6525 155.421L87.8118 155.408L87.8051 155.328L87.6457 155.342ZM79.9975 155.987L79.8381 156L79.8449 156.08L80.0042 156.066L79.9975 155.987ZM79.3524 148.338L79.339 148.179L79.1796 148.193L79.1931 148.352L79.3524 148.338ZM86.8413 147.707L87.4864 155.355L87.8051 155.328L87.16 147.68L86.8413 147.707ZM87.639 155.262L79.9908 155.907L80.0042 156.066L87.6525 155.421L87.639 155.262ZM80.1568 155.973L79.5118 148.325L79.1931 148.352L79.8381 156L80.1568 155.973ZM79.3659 148.498L87.0141 147.853L86.9872 147.534L79.339 148.179L79.3659 148.498Z" fill="#1F2225" mask="url(#path-74-inside-22_2296_22673)"/>
<mask id="path-76-inside-23_2296_22673" fill="white">
<path d="M87.6457 155.342L88.2908 162.99L80.6426 163.635L79.9975 155.987L87.6457 155.342Z"/>
</mask>
<path d="M87.6457 155.342L88.2908 162.99L80.6426 163.635L79.9975 155.987L87.6457 155.342Z" fill="#FFF258"/>
<path d="M87.6457 155.342L87.8051 155.328L87.7984 155.248L87.639 155.262L87.6457 155.342ZM88.2908 162.99L88.3042 163.149L88.4636 163.136L88.4501 162.976L88.2908 162.99ZM80.6426 163.635L80.4832 163.648L80.4967 163.808L80.656 163.794L80.6426 163.635ZM79.9975 155.987L79.9908 155.907L79.8314 155.92L79.8382 156L79.9975 155.987ZM87.4864 155.355L88.1315 163.003L88.4501 162.976L87.8051 155.328L87.4864 155.355ZM88.2774 162.83L80.6291 163.476L80.656 163.794L88.3042 163.149L88.2774 162.83ZM80.8019 163.621L80.1568 155.973L79.8382 156L80.4832 163.648L80.8019 163.621ZM80.0042 156.066L87.6525 155.421L87.639 155.262L79.9908 155.907L80.0042 156.066Z" fill="#1F2225" mask="url(#path-76-inside-23_2296_22673)"/>
<path opacity="0.9" d="M83.9895 162.852C83.5765 162.887 83.2532 162.799 83.0197 162.588C82.7913 162.376 82.659 162.056 82.6229 161.627L82.5862 161.192L83.3816 161.124L83.4216 161.599C83.4512 161.95 83.6114 162.114 83.902 162.09C84.0448 162.078 84.1482 162.025 84.2123 161.932C84.281 161.834 84.3059 161.673 84.287 161.449L84.2502 161.013C84.2296 160.768 84.1716 160.598 84.0764 160.504C83.9807 160.404 83.8359 160.362 83.6422 160.378L83.3592 160.402L83.2947 159.637L83.6006 159.612C83.7689 159.597 83.8901 159.544 83.9644 159.45C84.0438 159.356 84.0749 159.207 84.0577 159.003L84.0248 158.613C84.0093 158.429 83.9596 158.298 83.8758 158.217C83.792 158.137 83.6864 158.102 83.5589 158.113C83.2887 158.136 83.1676 158.313 83.1955 158.644L83.2252 158.996L82.4298 159.063L82.4059 158.78C82.3698 158.352 82.4466 158.014 82.6363 157.767C82.8311 157.52 83.1273 157.379 83.525 157.346C83.9278 157.312 84.2434 157.401 84.4719 157.613C84.6998 157.819 84.8319 158.137 84.868 158.565L84.8841 158.756C84.9086 159.047 84.88 159.286 84.7982 159.472C84.7159 159.654 84.576 159.791 84.3785 159.885L84.3798 159.9C84.6059 159.963 84.7752 160.083 84.8875 160.258C84.9999 160.433 85.0681 160.664 85.0922 160.949L85.1322 161.424C85.1683 161.852 85.089 162.19 84.8942 162.437C84.7041 162.679 84.4025 162.818 83.9895 162.852Z" fill="#1F2225"/>
<path d="M83.4702 154.138L81.8641 154.274L81.7996 153.509L83.0241 149.762L83.9419 149.685L84.247 153.303L84.6447 153.269L84.7092 154.034L84.3115 154.067L84.3934 155.039L83.5521 155.11L83.4702 154.138ZM83.4057 153.374L83.2296 151.286L83.2143 151.287L82.5644 153.445L83.4057 153.374Z" fill="#1F2225"/>
<mask id="path-80-inside-24_2296_22673" fill="white">
<path d="M88.2789 163.684L88.9239 171.332L81.2757 171.977L80.6306 164.329L88.2789 163.684Z"/>
</mask>
<path d="M88.2789 163.684L88.9239 171.332L81.2757 171.977L80.6306 164.329L88.2789 163.684Z" fill="#FFF258"/>
<path d="M88.2789 163.684L88.4382 163.67L88.4248 163.511L88.2654 163.524L88.2789 163.684ZM88.9239 171.332L88.9306 171.412L89.09 171.398L89.0833 171.319L88.9239 171.332ZM81.2757 171.977L81.1163 171.991L81.1231 172.07L81.2824 172.057L81.2757 171.977ZM80.6306 164.329L80.6172 164.17L80.4578 164.183L80.4713 164.342L80.6306 164.329ZM88.1195 163.697L88.7646 171.346L89.0833 171.319L88.4382 163.67L88.1195 163.697ZM88.9172 171.252L81.269 171.897L81.2824 172.057L88.9306 171.412L88.9172 171.252ZM81.435 171.964L80.7899 164.315L80.4713 164.342L81.1163 171.991L81.435 171.964ZM80.644 164.488L88.2923 163.843L88.2654 163.524L80.6172 164.17L80.644 164.488Z" fill="#1F2225" mask="url(#path-80-inside-24_2296_22673)"/>
<mask id="path-82-inside-25_2296_22673" fill="white">
<path d="M88.9239 171.332L89.569 178.98L81.9207 179.625L81.2757 171.977L88.9239 171.332Z"/>
</mask>
<path d="M88.9239 171.332L89.569 178.98L81.9207 179.625L81.2757 171.977L88.9239 171.332Z" fill="#FFF258"/>
<path d="M88.9239 171.332L89.0833 171.319L89.0765 171.239L88.9172 171.252L88.9239 171.332ZM89.569 178.98L89.5824 179.14L89.7418 179.126L89.7283 178.967L89.569 178.98ZM81.9207 179.625L81.7614 179.639L81.7748 179.798L81.9342 179.785L81.9207 179.625ZM81.2757 171.977L81.269 171.897L81.1096 171.911L81.1163 171.991L81.2757 171.977ZM88.7646 171.345L89.4096 178.994L89.7283 178.967L89.0833 171.319L88.7646 171.345ZM89.5555 178.821L81.9073 179.466L81.9342 179.785L89.5824 179.14L89.5555 178.821ZM82.0801 179.612L81.435 171.964L81.1163 171.991L81.7614 179.639L82.0801 179.612ZM81.2824 172.057L88.9306 171.412L88.9172 171.252L81.269 171.897L81.2824 172.057Z" fill="#1F2225" mask="url(#path-82-inside-25_2296_22673)"/>
<path opacity="0.9" d="M84.0038 178.287C83.9715 177.905 84.0052 177.573 84.1048 177.293C84.2039 177.007 84.3976 176.685 84.6857 176.327C84.9688 175.969 85.1591 175.668 85.2566 175.424C85.3592 175.179 85.3997 174.929 85.3782 174.674C85.3589 174.445 85.3073 174.29 85.2235 174.21C85.1444 174.124 85.0334 174.087 84.8907 174.099C84.6 174.124 84.4696 174.312 84.4992 174.664L84.5476 175.237L83.7522 175.304L83.7083 174.784C83.6718 174.351 83.7509 174.01 83.9457 173.763C84.1401 173.51 84.4412 173.367 84.8491 173.332C85.257 173.298 85.5779 173.389 85.8119 173.605C86.0454 173.817 86.1804 174.139 86.2169 174.573C86.2445 174.899 86.1923 175.224 86.0605 175.549C85.9338 175.873 85.6962 176.252 85.3477 176.687C85.1202 176.973 84.9703 177.204 84.8978 177.38C84.8249 177.55 84.7964 177.73 84.8123 177.919L84.8219 178.033L86.4204 177.898L86.4849 178.663L84.0528 178.868L84.0038 178.287Z" fill="#1F2225"/>
<path d="M84.2564 167.035L83.3768 167.11L83.3265 166.513C83.5662 166.493 83.7557 166.456 83.895 166.403C84.0394 166.35 84.1511 166.274 84.23 166.175C84.3085 166.071 84.3734 165.927 84.4246 165.743L84.9906 165.695L85.4422 171.049L84.6009 171.12L84.2564 167.035Z" fill="#1F2225"/>
<rect x="79.4396" y="204.33" width="12.919" height="18.8886" transform="rotate(-6.84619 79.4396 204.33)" fill="#FFF258" stroke="#1F2225" stroke-width="0.159904"/>
<path d="M89.1574 204.972L89.4287 204.827C89.5836 205.562 89.9589 206.139 90.3988 206.123L90.2525 204.892L90.5415 204.857L90.6899 206.107L91.0945 206.059L91.1378 206.423L90.7332 206.471L90.8816 207.721L90.5926 207.755L90.4458 206.519C90.0143 206.606 89.7843 207.251 89.8069 208.011L89.5091 207.933C89.5021 207.267 89.6686 206.656 90.0313 206.37C89.611 206.172 89.3067 205.622 89.1574 204.972ZM87.3943 206.679C87.4693 207.31 87.6504 207.658 87.8994 207.629C88.1484 207.599 88.2473 207.218 88.1723 206.586C88.0973 205.955 87.9117 205.607 87.6628 205.637C87.4138 205.666 87.3193 206.047 87.3943 206.679ZM88.4435 206.554C88.5455 207.412 88.3745 207.946 87.9432 207.998C87.5119 208.049 87.2205 207.569 87.1186 206.711C87.0167 205.853 87.1877 205.319 87.6189 205.268C88.0502 205.216 88.3416 205.696 88.4435 206.554ZM89.057 206.67L89.2493 208.289L88.9558 208.324L88.5275 204.718L88.821 204.683L89.0137 206.306L89.5072 206.247L89.5506 206.612L89.057 206.67ZM91.2328 210.943L90.9394 210.978L90.66 208.626L90.9534 208.591L91.0712 209.582L91.5158 209.53L91.5591 209.894L91.1145 209.947L91.2328 210.943ZM89.8028 209.305C89.5361 209.337 89.3912 209.597 89.4345 209.962C89.4778 210.326 89.6802 210.55 89.947 210.519C90.2093 210.487 90.3537 210.222 90.3104 209.858C90.2671 209.493 90.0651 209.274 89.8028 209.305ZM89.9882 210.865C89.548 210.918 89.222 210.564 89.1544 209.995C89.0873 209.43 89.3215 209.01 89.7616 208.958C90.1973 208.906 90.5278 209.259 90.5949 209.824C90.6625 210.393 90.4239 210.814 89.9882 210.865ZM88.4245 209.392L88.7223 209.357L89.0297 211.944L87.7493 212.096L87.706 211.732L88.6885 211.615L88.4245 209.392ZM90.7094 212.344L90.4071 212.38L90.3369 211.789L89.2476 211.918L89.2043 211.554L91.6941 211.258L91.7374 211.622L90.6392 211.753L90.7094 212.344ZM90.7886 215.288L89.8238 215.402L89.7826 215.056L92.0367 214.788L92.0779 215.135L91.0865 215.252L91.1467 215.759L92.2137 215.632L92.2554 215.984L89.7968 216.276L89.7551 215.925L90.8488 215.795L90.7886 215.288ZM90.2254 214.836L89.9221 214.674C90.0289 214.282 90.2812 213.977 90.6022 213.795C90.2119 213.697 89.8402 213.453 89.6208 213.086L89.8821 212.857C90.1751 213.35 90.7278 213.6 91.1724 213.547L91.7104 213.483L91.7521 213.834L91.2141 213.898C90.774 213.95 90.3603 214.302 90.2254 214.836ZM88.4 215.107C88.4718 215.712 88.6757 216.062 88.9514 216.029C89.227 215.996 89.3388 215.609 89.267 215.004C89.1962 214.408 88.9962 214.053 88.7206 214.086C88.4449 214.119 88.3292 214.511 88.4 215.107ZM89.5515 214.97C89.6492 215.793 89.4477 216.335 88.9942 216.389C88.5407 216.443 88.2176 215.963 88.1199 215.14C88.0227 214.322 88.2243 213.78 88.6778 213.726C89.1313 213.672 89.4543 214.152 89.5515 214.97ZM92.1574 219.295L91.8639 219.33L91.5761 216.907L91.8695 216.872L91.9921 217.904L92.4811 217.846L92.5245 218.21L92.0354 218.268L92.1574 219.295ZM90.6826 217.622C90.407 217.655 90.2587 217.925 90.302 218.289C90.3448 218.65 90.5522 218.877 90.8279 218.845C91.108 218.811 91.2562 218.541 91.2134 218.181C91.1701 217.817 90.9627 217.589 90.6826 217.622ZM90.048 218.504L89.6301 218.554C89.6927 218.93 89.7654 219.314 89.8576 219.672L89.5895 219.731C89.3372 218.859 89.2098 217.901 89.1226 217.167L89.4231 217.077C89.4632 217.415 89.5131 217.797 89.5734 218.191L90.0002 218.14C90.0021 217.662 90.2413 217.323 90.6414 217.275C91.0905 217.222 91.4259 217.579 91.4935 218.148C91.5611 218.717 91.3181 219.138 90.869 219.191C90.4734 219.238 90.1618 218.969 90.048 218.504ZM92.6887 219.593L92.732 219.958L88.7439 220.431L88.7006 220.067L92.6887 219.593ZM85.52 205.314L85.7418 207.181C84.5903 207.318 83.5138 206.91 82.7072 205.662L82.9819 205.431C83.6205 206.442 84.4486 206.884 85.4046 206.847L85.2266 205.349L85.52 205.314ZM86.2687 207.935L86.312 208.3L82.3239 208.773L82.2806 208.409L86.2687 207.935ZM84.0312 209.747L84.3032 209.57C84.5196 210.329 85.0636 210.923 85.6771 210.85L85.5245 209.565L85.8179 209.53L85.9706 210.815L86.513 210.751L86.5568 211.12L86.0144 211.184L86.1665 212.465L85.8731 212.499L85.721 211.219C85.1074 211.292 84.7177 211.996 84.6851 212.785L84.3792 212.677C84.4187 212.023 84.6707 211.411 85.1302 211.104C84.611 210.909 84.2228 210.373 84.0312 209.747ZM83.4624 211.487L83.6557 213.115L83.3533 213.15L82.9234 209.531L83.2258 209.495L83.4185 211.118L84.3255 211.011L84.3694 211.38L83.4624 211.487ZM85.6394 216.188L86.2263 216.118L85.9913 214.14L85.4044 214.21L85.6394 216.188ZM87.1099 216.383L85.3848 216.588L85.0637 213.885L86.7888 213.68L86.8316 214.04L86.2847 214.105L86.5197 216.083L87.0666 216.018L87.1099 216.383ZM84.9591 217.103L84.6656 217.138L84.4713 215.502L83.1375 215.66L83.0942 215.296L84.428 215.137L84.2357 213.519L84.5292 213.484L84.9591 217.103ZM85.7839 220.972L85.4621 220.844C85.5281 220.223 85.8809 219.55 86.4377 219.226C85.8252 219.042 85.3244 218.47 85.1108 217.887L85.3936 217.687C85.6144 218.368 86.3039 219.048 86.9841 218.968L87.2909 218.931L87.3363 219.314L87.0295 219.35C86.3493 219.431 85.8344 220.258 85.7839 220.972ZM84.2286 217.672L84.658 221.286L84.3556 221.322L83.9263 217.708L84.2286 217.672Z" fill="#1F2225"/>
</g>
</g>
<path d="M348 223.658H0V224.258H348V223.658Z" fill="#EFEFEF" mask="url(#path-1-inside-1_2296_22673)"/>
<rect x="223.095" y="33.6162" width="18" height="18" rx="2" fill="#F55B1D"/>
<g filter="url(#filter0_d_2296_22673)">
<path fill-rule="evenodd" clip-rule="evenodd" d="M227.949 40.3247H236.102C236.541 40.3247 236.886 40.6989 236.85 41.1357L236.274 48.194C236.242 48.5832 235.917 48.8829 235.526 48.8829H228.525C228.135 48.8829 227.809 48.5832 227.778 48.194L227.201 41.1357C227.166 40.6989 227.511 40.3247 227.949 40.3247ZM229.93 42.0713C229.737 42.0713 229.58 42.2277 229.58 42.4206V46.9617C229.58 47.1546 229.737 47.311 229.93 47.311C230.123 47.311 230.279 47.1546 230.279 46.9617V42.4206C230.279 42.2277 230.123 42.0713 229.93 42.0713ZM231.676 42.4206C231.676 42.2277 231.833 42.0713 232.026 42.0713C232.219 42.0713 232.375 42.2277 232.375 42.4206V46.9617C232.375 47.1546 232.219 47.311 232.026 47.311C231.833 47.311 231.676 47.1546 231.676 46.9617V42.4206ZM234.122 42.0713C233.929 42.0713 233.772 42.2277 233.772 42.4206V46.9617C233.772 47.1546 233.929 47.311 234.122 47.311C234.314 47.311 234.471 47.1546 234.471 46.9617V42.4206C234.471 42.2277 234.314 42.0713 234.122 42.0713Z" fill="white"/>
<rect x="226.845" y="37.7037" width="10.5" height="1.81035" rx="0.777384" fill="white"/>
<path fill-rule="evenodd" clip-rule="evenodd" d="M229.742 37.7037L230.156 36.4304C230.26 36.1101 230.558 35.8933 230.895 35.8933H233.296C233.632 35.8933 233.931 36.1101 234.035 36.4304L234.449 37.7037H233.331L233.211 37.2108C233.126 36.8626 232.814 36.6175 232.455 36.6175H231.735C231.377 36.6175 231.065 36.8626 230.98 37.2108L230.86 37.7037H229.742Z" fill="white"/>
</g>
<defs>
<filter id="filter0_d_2296_22673" x="225.402" y="34.9312" width="13.3863" height="15.8759" filterUnits="userSpaceOnUse" color-interpolation-filters="sRGB">
<feFlood flood-opacity="0" result="BackgroundImageFix"/>
<feColorMatrix in="SourceAlpha" type="matrix" values="0 0 0 0 0 0 0 0 0 0 0 0 0 0 0 0 0 0 127 0" result="hardAlpha"/>
<feOffset dy="0.481043"/>
<feGaussianBlur stdDeviation="0.721565"/>
<feComposite in2="hardAlpha" operator="out"/>
<feColorMatrix type="matrix" values="0 0 0 0 0.645833 0 0 0 0 0.645833 0 0 0 0 0.645833 0 0 0 0.2 0"/>
<feBlend mode="normal" in2="BackgroundImageFix" result="effect1_dropShadow_2296_22673"/>
<feBlend mode="normal" in="SourceGraphic" in2="effect1_dropShadow_2296_22673" result="shape"/>
</filter>
<clipPath id="clip0_2296_22673">
<path d="M0 0.0925293H348V223.958H0V0.0925293Z" fill="white"/>
</clipPath>
<clipPath id="clip1_2296_22673">
<rect width="1823.23" height="1982.79" fill="white" transform="translate(-669 -1708.47)"/>
</clipPath>
</defs>
</svg>
