<svg xmlns="http://www.w3.org/2000/svg" width="15" height="14" viewBox="0 0 15 14" fill="none">
  <path d="M8.06576 4.44397L7.45831 3.72787C6.8049 2.95759 5.99002 2.55627 4.94165 2.49824L8.06576 4.44397ZM8.06576 4.44397L8.62985 3.69323M8.06576 4.44397L8.62985 3.69323M8.62985 3.69323C8.7081 3.58908 8.77787 3.49415 8.84338 3.40499C8.9717 3.23036 9.08373 3.07791 9.21139 2.92181L9.21149 2.92168M8.62985 3.69323L9.21149 2.92168M9.21149 2.92168C9.70679 2.3158 10.2877 1.86341 11.0147 1.60307L11.0148 1.60313M9.21149 2.92168L11.0148 1.60313M11.0148 1.60313L11.0237 1.59981M11.0148 1.60313L11.0237 1.59981M11.0237 1.59981C11.1545 1.55108 11.2954 1.52569 11.4385 1.52588M11.0237 1.59981L11.4385 1.52588M14.2451 4.41315L14.2451 4.41307C14.223 3.97069 14.2329 3.53076 14.2422 3.123L14.2426 3.10363C14.2499 2.78178 14.1763 2.46936 14.0214 2.14358L14.2451 4.41315ZM14.2451 4.41315C14.2768 5.04545 14.153 5.67721 13.9341 6.33827C13.5999 7.34695 13.2367 8.30392 12.7357 9.19462L12.7357 9.19463M14.2451 4.41315L12.7357 9.19463M12.7357 9.19463C12.1705 10.1996 11.3955 11.036 10.4098 11.7269L10.4096 11.7271M12.7357 9.19463L10.4096 11.7271M10.4096 11.7271C9.72718 12.2057 8.98721 12.5969 8.1935 12.9194L8.19348 12.9194M10.4096 11.7271L8.19348 12.9194M8.19348 12.9194L8.18644 12.9223M8.19348 12.9194L8.18644 12.9223M8.18644 12.9223C8.01975 12.9921 7.83702 13.0278 7.65132 13.0257M8.18644 12.9223L7.65132 13.0257M2.29031 9.76201L2.29095 9.76295C2.81115 10.5329 3.39972 11.2611 4.05064 11.9398C4.05071 11.9399 4.05077 11.9399 4.05084 11.94L4.07676 11.967C4.41748 12.3215 4.66271 12.5766 4.9746 12.7566C5.29015 12.9385 5.58994 13.0295 5.91118 13.0258C5.9114 13.0258 5.91161 13.0258 5.91183 13.0258L5.9209 13.7757L2.29031 9.76201ZM2.29031 9.76201C1.70833 8.90348 1.21014 8.0524 0.892255 7.14383L2.29031 9.76201ZM0.750281 6.37966L0.750279 6.37982C0.74662 6.62005 0.796284 6.86896 0.892134 7.14348L0.750281 6.37966ZM0.750281 6.37966C0.759202 5.78572 0.760538 5.18947 0.750256 4.59242L0.750281 6.37966ZM1.38945 3.1113L1.38943 3.11127C1.16867 3.24939 1.01236 3.44574 0.933981 3.66246C0.812663 4.00062 0.745303 4.30243 0.750255 4.59235L1.38945 3.1113ZM1.38945 3.1113L1.39572 3.1073M1.38945 3.1113L1.39572 3.1073M1.39572 3.1073C2.02249 2.70647 2.6194 2.46998 3.28006 2.48309L3.28014 2.48309M1.39572 3.1073L3.28014 2.48309M3.28014 2.48309C3.54746 2.48836 3.78221 2.48654 4.00544 2.4848M3.28014 2.48309L4.00544 2.4848M11.4385 1.52588C11.7136 1.52884 12.0138 1.52826 12.3077 1.5277C12.5484 1.52724 12.7849 1.52679 13.0001 1.52829L11.4385 1.52588ZM13.6366 1.6819C13.4938 1.59386 13.2934 1.53046 13.0003 1.52829L13.6366 1.6819ZM13.6366 1.6819C13.7773 1.76863 13.9097 1.90855 14.0214 2.14355L13.6366 1.6819ZM7.65132 13.0257L7.64299 13.7757L7.65132 13.0257ZM4.00544 2.4848C4.32067 2.48236 4.61295 2.48008 4.94157 2.49823L4.00544 2.4848Z" fill="#FA8AA7" stroke="#FA8AA7" stroke-width="1.5"/>
</svg>