<svg xmlns="http://www.w3.org/2000/svg" width="196" height="105" viewBox="0 0 156 105" fill="none">
  <path d="M40.2878 54.8978C39.9984 54.4571 39.6183 54.0832 39.173 53.8011C37.8537 52.8594 36.7339 51.715 35.6471 50.5391C34.8968 49.6954 34.3047 48.7234 33.899 47.6696C33.5247 46.7478 33.2097 45.7995 32.9211 44.8463C32.5657 43.6858 32.3748 42.4812 32.3538 41.2677C32.3208 39.1436 32.3291 37.0179 32.3538 34.8938C32.3644 33.5412 32.7565 32.219 33.4851 31.0794C34.7436 29.0995 36.3833 27.3897 38.3088 26.0495C39.2241 25.4063 40.2598 25.1012 41.2971 24.8572C42.1216 24.6609 43.0023 24.5884 43.8516 24.4581C46.7475 24.0161 49.6483 24.3426 52.5425 24.2305C53.4558 24.2152 54.3567 24.4429 55.1531 24.8902C56.6142 25.6504 58.0819 26.3975 59.6569 26.9087C59.9081 26.9821 60.1466 27.0933 60.3643 27.2385C61.3885 27.974 62.6402 28.3055 63.6395 29.0921C63.9957 29.3741 64.286 29.2323 64.3421 28.7425C64.4789 27.5667 65.0298 26.5145 65.2986 25.3783C65.4503 24.7335 65.8609 24.1876 66.321 23.7407C66.9667 23.1002 67.6718 22.5226 68.427 22.0157C70.1305 20.9025 71.8803 19.8587 73.6168 18.795C74.5005 18.2461 75.4403 17.7933 76.4203 17.4443C77.8534 16.9496 79.2816 16.435 80.6965 15.8925C81.6365 15.533 82.6194 15.3664 83.599 15.2081C84.6215 15.0432 85.6621 14.997 86.6895 14.8568C87.8884 14.6919 89.089 14.527 90.2747 14.2846C91.9728 13.9392 93.7039 13.7821 95.4365 13.8162C97.6034 13.8591 99.7715 13.8591 101.941 13.8162C102.329 13.7923 102.719 13.8488 103.085 13.9822C103.451 14.1155 103.786 14.3229 104.068 14.5913C104.496 15.0228 104.999 15.3721 105.552 15.622C105.921 15.3167 106.248 14.9634 106.524 14.5715C107.861 12.8091 109.423 11.2296 111.171 9.87313C111.686 9.47727 112.174 9.0458 112.629 8.58187C113.611 7.60134 114.695 6.7289 115.863 5.97953C117.499 4.91749 119.126 3.84555 120.757 2.77856C121.412 2.35046 122.12 2.01213 122.865 1.77259C124.265 1.32238 125.626 0.710545 127.097 0.534088C128.681 0.344438 130.246 -0.00516978 131.863 0.0278129C133.987 0.0728892 136.111 0.0728892 138.236 0.0278129C140.037 -0.00516978 141.756 0.407122 143.484 0.819405C144.753 1.11108 145.956 1.63678 147.031 2.36957C147.293 2.52028 147.528 2.71432 147.726 2.94347C148.689 4.24134 149.505 5.62662 149.901 7.20154C150.56 9.80058 151.279 12.3947 151.639 15.0514C151.817 16.3707 152.04 17.69 151.994 19.0489C151.924 21.0856 151.984 23.1256 151.974 25.1639C151.964 27.1429 151.248 28.8827 150.084 30.4411C149.82 30.7834 149.577 31.1402 149.353 31.5098C148.828 32.3565 148.256 33.173 147.64 33.9554C146.103 36.007 144.096 37.4879 141.952 38.822C141.399 39.1651 140.87 39.5444 140.336 39.9154C140.299 39.9379 140.269 39.9698 140.249 40.0078C140.229 40.0457 140.219 40.0883 140.221 40.1313C140.222 40.1743 140.235 40.216 140.258 40.2523C140.282 40.2885 140.314 40.318 140.352 40.3376C141.861 41.0154 143.2 41.9735 144.579 42.8707C145.095 43.1931 145.537 43.6214 145.875 44.1273C146.093 44.4505 146.352 44.7447 146.644 45.003C147.876 46.1194 148.788 47.4882 149.766 48.8158C150.173 49.3748 150.526 49.9702 150.946 50.5226C152.117 52.0464 152.823 53.8374 153.827 55.4552C153.966 55.6763 154.059 55.9231 154.101 56.1808C154.195 56.791 154.459 57.3352 154.688 57.8976C155.376 59.5373 155.723 61.2995 155.709 63.0775C155.684 64.9855 155.661 66.8952 155.709 68.8016C155.768 70.9834 155.434 73.1092 155.039 75.2333C154.604 77.5767 153.976 79.869 153.369 82.1695C153.143 83.0063 152.811 83.8105 152.379 84.5624C151.927 85.3589 151.265 86.0169 150.466 86.4655C150.021 86.7275 149.59 87.0155 149.178 87.328C148.224 88.019 147.135 88.4527 146.019 88.7974C144.073 89.3977 142.053 89.6912 140.052 90.0128C138.863 90.2041 137.654 90.3278 136.462 90.5405C136.119 90.5873 135.772 90.6044 135.426 90.5916C132.563 90.5916 129.701 90.5801 126.839 90.6015C126.016 90.606 125.204 90.418 124.466 90.0524C123.218 89.4554 122.011 88.766 120.766 88.1823C119.159 87.4286 117.668 86.4507 116.004 85.8207C115.797 85.7552 115.601 85.6572 115.424 85.5304C114.545 84.8213 113.491 84.3629 112.62 83.6587C111.436 82.6972 110.035 82.0722 108.855 81.1108C108.663 80.9459 108.443 81.0382 108.344 81.2922C107.813 82.6643 107.243 84.0248 106.764 85.415C106.166 87.1515 105.237 88.6918 104.264 90.2371C103.479 91.4855 102.632 92.6794 101.779 93.8783C101.045 94.909 100.13 95.7683 99.2954 96.705C99.1878 96.845 99.0489 96.958 98.8898 97.0348C97.7997 97.4504 96.8399 98.1249 95.7168 98.4976C93.7049 99.1671 91.7342 99.9587 89.7486 100.706C87.8043 101.436 85.8698 102.17 83.8694 102.761C81.4535 103.476 78.9913 103.938 76.549 104.517C76.0843 104.618 75.6094 104.664 75.134 104.654C71.9677 104.654 68.8013 104.664 65.6366 104.654C63.976 104.68 62.356 104.14 61.0438 103.122C60.4231 102.652 59.8352 102.14 59.2842 101.59C58.0407 100.32 56.573 99.2941 55.3889 97.9616C54.7293 97.2162 54.0366 96.4988 53.3704 95.76C53.2231 95.6009 53.1027 95.4187 53.0142 95.2207C52.3248 93.6293 51.7312 92 51.5745 90.2618C51.4805 89.2278 51.1803 88.2202 51.2282 87.168C51.2397 86.8844 51.0781 86.5892 50.9874 86.3022C50.9763 86.2496 50.9542 86.2 50.9224 86.1566C50.8906 86.1133 50.85 86.0772 50.8031 86.0508C50.7563 86.0244 50.7044 86.0083 50.6508 86.0036C50.5973 85.9989 50.5434 86.0057 50.4926 86.0235C48.9507 86.4457 47.4104 86.8695 45.8751 87.3099C45.6235 87.3768 45.3861 87.4885 45.1742 87.6397C44.0577 88.4807 42.7268 88.9277 41.5164 89.5972C40.1641 90.3476 38.6584 90.8126 37.1198 91.1424C35.3865 91.5168 33.6156 91.6889 31.8426 91.6553C29.4151 91.6042 26.9859 91.6454 24.5567 91.6405C23.9071 91.6361 23.2585 91.6914 22.619 91.8054C22.0201 91.9117 21.4132 91.9669 20.8049 91.9703C18.5506 91.9884 16.2962 91.9703 14.0435 91.9703C13.3952 91.9537 12.7497 91.8808 12.114 91.7526C10.4006 91.4574 8.74318 90.9577 7.0891 90.458C4.99816 89.8481 3.10097 88.7066 1.58262 87.1449C1.01131 86.5459 0.642198 85.7829 0.527193 84.9631C0.308906 83.6389 0.212303 82.2975 0.238595 80.9557C0.276525 78.7443 0.293016 76.5311 0.238595 74.3213C0.195718 72.6853 0.568394 71.1418 1.0351 69.6081C1.63209 67.6687 2.59519 65.9519 4.18166 64.6326C4.37843 64.4622 4.55543 64.2703 4.70937 64.0604C5.16367 63.484 5.75501 63.0304 6.42945 62.7411C8.4249 61.8044 10.4616 60.9666 12.4653 60.048C12.5456 60.0155 12.6233 59.977 12.6978 59.9326C15.1088 58.3725 17.7854 57.5628 20.6037 57.1835C21.7186 57.0334 22.7905 56.7168 23.8839 56.4842C25.8309 56.0687 27.7808 55.6674 29.7333 55.2804C30.1179 55.2157 30.5078 55.1881 30.8976 55.1979C32.5022 55.188 34.1068 55.1979 35.7114 55.1979C36.6201 55.1979 37.5255 55.1979 38.4243 55.0066C38.9602 54.8879 39.5391 54.9357 40.2878 54.8978Z" fill="#FFF258"/>
</svg>