<svg width="800" height="800" viewBox="0 0 800 800" fill="none" xmlns="http://www.w3.org/2000/svg">
<g clip-path="url(#clip0_1_9824)">
<g clip-path="url(#clip1_1_9824)">
<rect width="8399.26" height="9134.32" transform="translate(-2802.21 -6366.11)" fill="white"/>
<path d="M-191.567 -1802.55C-269.813 -1727.04 -346.195 -1649.68 -423.016 -1572.75C-460.604 -1535.1 -498.302 -1497.62 -536.439 -1460.53C-570.63 -1427.27 -606.465 -1395.27 -632.985 -1355.21C-633.752 -1354.12 -633.533 -1352.15 -632.492 -1351.22C-616.163 -1337.52 -599.835 -1323.76 -583.506 -1310.07C-577.698 -1305.19 -563.78 -1297.3 -562.904 -1289.79C-562.027 -1282.28 -575.123 -1269.57 -579.835 -1263.33C-586.903 -1253.9 -588.821 -1248.7 -600.218 -1253.96C-608.273 -1257.68 -615.944 -1263.76 -623.177 -1268.81C-641.752 -1281.68 -659.067 -1296.2 -675.395 -1311.82C-676.71 -1313.08 -678.683 -1313.02 -680.053 -1311.82C-828.105 -1181.03 -970.733 -1044.21 -1107.61 -901.688C-1109.8 -899.386 -1107.61 -895.167 -1104.43 -896.208L-1101.96 -896.976L-1105.14 -902.455C-1172.92 -829.689 -1240.65 -756.868 -1308.43 -684.102C-1309.58 -682.897 -1309.85 -680.651 -1308.43 -679.445C-1237.14 -619.939 -1170.46 -555.063 -1109.36 -485.146C-1077.91 -449.147 -1048.16 -411.833 -1019.55 -373.587C-995.938 -342.026 -972.486 -310.081 -945.089 -281.643C-896.214 -230.904 -832.215 -191.233 -760.051 -214.082C-726.134 -224.822 -695.833 -246.192 -672.107 -272.438C-668.217 -276.712 -650.793 -298.848 -641.533 -291.396C-636.601 -287.396 -643.779 -274.52 -645.697 -270.63C-674.519 -212.494 -738.737 -160.385 -799.886 -140.988C-802.407 -140.166 -803.338 -136.331 -800.654 -134.961C-760.764 -114.632 -747.942 -65.7017 -756.161 -24.1681C-765.531 23.064 -800.544 60.543 -833.804 93.0905C-910.953 168.541 -989.691 242.458 -1067.66 317.087C-1132.81 379.442 -1219.99 443.605 -1233.69 539.056C-1240.87 588.754 -1232.32 639.712 -1227 689.191C-1221.25 742.779 -1215.5 796.312 -1209.69 849.9C-1197.63 962.118 -1185.52 1074.39 -1173.47 1186.61C-1171.11 1208.58 -1169.63 1230.83 -1166.18 1252.63C-1163.33 1270.61 -1157.47 1288.09 -1140.87 1297.67C-1127.28 1305.56 -1110.73 1306.06 -1095.5 1306.55C-1067.33 1307.54 -1039.12 1307.97 -1010.95 1308.69C-898.241 1311.59 -785.476 1314.44 -672.765 1317.34C-616.383 1318.77 -560.055 1320.25 -503.672 1321.67C-478.028 1322.33 -452.44 1322.99 -426.796 1323.65L-388.386 1324.63C-383.126 1324.74 -369.921 1322.82 -365.318 1325.23C-355.51 1330.33 -357.044 1340.69 -356.989 1350.44C-356.935 1361.13 -357.811 1386.77 -366.414 1395.1C-375.016 1403.43 -394.523 1397.73 -404.66 1397.23C-432.714 1395.81 -460.714 1394.44 -488.768 1393.01C-544.822 1390.22 -600.931 1387.43 -656.985 1384.63C-767.832 1379.1 -878.734 1373.56 -989.582 1368.03C-1024.32 1366.28 -1065.69 1361.78 -1096.37 1382.17C-1130.51 1404.85 -1127.5 1450.27 -1129.85 1486.38C-1133.47 1541.51 -1137.09 1596.63 -1140.65 1651.81C-1143.72 1698.87 -1154.13 1752.24 -1141.31 1798.54C-1122.84 1865.39 -1053.09 1888.79 -990.897 1895.14C-947.117 1899.64 -902.953 1896.68 -859.064 1895.36C-804.105 1893.72 -749.147 1892.02 -694.189 1890.32C-472.385 1883.47 -250.58 1877.5 -28.7753 1870.76C64.7574 1867.91 157.962 1859.09 251.385 1855.42C332.425 1852.24 417.629 1850.49 496.203 1873.72C529.243 1883.47 560.476 1898.43 586.283 1921.5C616.256 1948.29 650.501 1957.72 690.61 1953.61C734.61 1949.12 778.719 1934.7 820.471 1920.51C859.649 1907.2 898.004 1891.47 935.374 1873.61C1091.43 1798.87 1228.79 1685.78 1332.13 1546.99C1385.83 1474.88 1426.11 1390.28 1493.78 1329.51C1566.6 1264.09 1669.17 1242.39 1757.06 1204.03C2091.63 1057.95 2380.01 798.011 2505.81 449.304C2567.07 279.553 2593.81 83.1183 2550.74 -94.2488C2531.18 -174.96 2491.18 -248.055 2424.61 -299.122C2359.52 -349.094 2279.24 -374.847 2200.01 -392.052C2160.4 -400.655 2120.29 -407.23 2080.23 -413.257C2036.18 -419.887 1991.41 -425.641 1946.81 -422.134C1905.22 -418.846 1864.62 -406.682 1831.36 -380.765C1798.1 -354.848 1772.89 -317.314 1740.89 -288.328C1671.2 -225.041 1573.67 -212.987 1483.58 -206.74C1382.44 -199.727 1281.78 -192.275 1181.34 -178.083C972.743 -148.604 767.048 -98.687 568.202 -29.1538C525.791 -14.3048 480.258 -1.26379 440.971 20.9824C408.423 39.3932 388.752 66.6798 383.656 103.994C378.286 143.61 381.41 186.076 385.191 225.691C388.643 262.458 394.78 299.279 406.177 334.511C425.574 394.401 461.518 447.77 521.627 471.769L520.202 466.29C507.983 482.07 495.764 497.851 483.6 513.632C479.546 518.892 471.162 535.001 465.299 537.303C455.71 541.029 444.532 528.097 437.135 521.906C410.177 499.221 386.725 472.481 367.492 442.948C329.082 383.99 308.808 315.772 307.493 245.582C306.781 208.048 307.274 143.391 266.069 124.706C241.029 113.364 215.33 128.104 193.029 138.898C155.331 157.035 117.962 175.829 80.9762 195.336C43.9905 214.842 7.27893 235.006 -28.9945 255.883C-46.0901 265.691 -63.0762 275.663 -80.0073 285.745C-88.2812 290.677 -96.5551 297.088 -105.322 301.033C-110.747 303.499 -111.514 306.347 -116.774 303.224C-119.568 301.525 -125.322 286.129 -126.801 283.115C-131.075 274.512 -137.157 265.471 -140.171 256.321C-144.445 243.499 -139.459 242.513 -128.226 236.047C-109.541 225.308 -90.8018 214.623 -72.1171 203.884C-34.693 182.459 2.73083 160.98 40.1549 139.555C77.579 118.131 115.003 96.652 152.427 75.2277C181.797 58.406 213.906 43.0637 239.33 20.3792C294.781 -29.1543 276.151 -110.139 270.672 -175.672C254.782 -365.258 230.618 -554.132 198.564 -741.691C198.18 -743.882 195.44 -744.595 193.742 -743.663C182.893 -737.8 172.043 -731.883 161.139 -726.02C154.181 -722.239 137.359 -709.088 129.962 -714.184C128.154 -715.444 125.03 -725.362 123.77 -728.157C120.702 -735.17 117.578 -742.129 114.51 -749.142C111.113 -756.814 98.7296 -774.293 102.346 -782.293C103.825 -785.581 115.496 -792.374 118.62 -795.498C123.551 -800.429 127.935 -805.909 131.825 -811.607C140.811 -824.703 147.057 -839.552 151.934 -854.565C163.715 -891.113 166.783 -930.071 171.55 -967.934C177.961 -1019 184.372 -1070.07 190.783 -1121.14C197.194 -1172.2 203.714 -1222.89 209.906 -1273.79C215.385 -1318.5 219.823 -1365.41 203.878 -1408.58C190.235 -1445.57 164.044 -1476.2 138.729 -1505.73C108.976 -1540.47 77.9626 -1574.06 45.7439 -1606.5C-25.2139 -1677.89 -101.98 -1743.21 -183.513 -1802.22C-186.965 -1804.69 -190.252 -1798.99 -186.855 -1796.52C-63.4597 -1707.21 49.5247 -1602.83 147.003 -1485.73C173.084 -1454.39 197.03 -1420.97 204.865 -1380.09C212.755 -1338.89 206.125 -1296.26 200.974 -1255.16C190.399 -1170.89 179.824 -1086.62 169.249 -1002.4C160.537 -933.085 162.783 -826.785 94.5653 -785.251C92.9215 -784.265 92.6473 -782.402 93.3597 -780.758C104.647 -755.115 115.99 -729.471 127.277 -703.773C127.989 -702.129 130.345 -701.801 131.77 -702.568C153.468 -714.349 175.222 -726.13 196.92 -737.855L192.098 -739.828C219.33 -580.323 240.919 -419.888 256.426 -258.849C260.316 -218.521 263.823 -178.138 267.001 -137.7C269.74 -102.578 275.987 -63.8386 265.138 -29.5927C253.303 7.7218 219.933 28.8176 187.879 47.3379C154.071 66.8444 120.099 86.1865 86.2366 105.583C7.00488 151.007 -72.2816 196.431 -151.513 241.855C-153.102 242.787 -153.486 244.76 -152.719 246.349C-141.596 268.705 -130.418 291.005 -119.294 313.361C-118.527 314.95 -116.226 315.443 -114.801 314.567C-54.9667 277.855 5.85425 242.842 67.7711 209.801C98.1815 193.582 128.811 177.802 159.66 162.514C175.112 154.898 190.564 147.336 206.125 139.939C222.728 132.049 241.577 122.898 260.152 129.583C305.904 146.131 299.329 221.746 301.083 259.883C303.494 313.142 317.959 365.579 342.287 412.976C370.177 467.276 410.889 513.906 461.189 548.48C462.231 549.193 464.313 549.028 465.189 547.987C485.025 522.344 504.86 496.7 524.695 471.057C526.284 468.975 525.682 466.564 523.271 465.577C407.163 419.222 389.848 268.923 388.204 160.432C387.656 123.556 386.177 81.8031 411.82 52.1598C435.382 24.8724 472.203 13.0371 504.86 0.818115C580.914 -27.6198 658.008 -53.1536 735.98 -75.7833C891.429 -120.878 1050.39 -154.248 1210.88 -175.398C1289.23 -185.754 1367.97 -192.932 1446.87 -197.699C1512.79 -201.699 1580.19 -205.37 1643.42 -226.028C1672.84 -235.671 1701.11 -249.096 1726.05 -267.561C1750.98 -286.026 1772.4 -311.232 1793.77 -335.012C1818.92 -362.957 1846.1 -388.052 1881.77 -401.586C1917.44 -415.12 1953.93 -417.476 1990.64 -416.107C2057.99 -413.586 2126.53 -400.71 2192.39 -386.792C2255.3 -373.477 2318.2 -355.231 2374.64 -323.724C2433.98 -290.574 2482.47 -242.685 2512.66 -181.48C2546.09 -113.755 2558.03 -37.0992 2562.09 37.6393C2570.09 183.39 2544.22 329.799 2492.5 466.016C2389.21 737.957 2183.96 957.186 1936.12 1104.91C1876.45 1140.47 1814.37 1172.09 1750.65 1199.81C1683.69 1228.91 1611.58 1248.41 1547.53 1283.65C1489.01 1315.81 1446.65 1365.95 1409.56 1420.41C1370.27 1478.11 1334.16 1537.23 1289.12 1590.87C1201.83 1694.98 1094.6 1782.1 974.88 1846.32C915.045 1878.43 852.142 1904.73 787.157 1924.51C751.651 1935.31 713.898 1947.25 676.583 1948.18C657.625 1948.68 637.734 1946.21 620.365 1938.21C605.078 1931.2 594.064 1919.09 581.133 1908.84C495.655 1840.95 366.506 1845.12 263.713 1848.62C193.139 1851.03 122.674 1856.73 52.1547 1860.73C-27.844 1865.28 -108.007 1866.49 -188.115 1868.68C-358.14 1873.45 -528.165 1878.81 -698.189 1884.02C-778.791 1886.49 -859.666 1891.03 -940.322 1891.09C-995.445 1891.09 -1061.64 1886.05 -1104.48 1847.03C-1132.05 1821.88 -1140.48 1786.82 -1140.1 1750.54C-1139.66 1710.22 -1135.39 1669.67 -1132.76 1629.39C-1129.96 1586.82 -1127.17 1544.19 -1124.43 1501.62C-1121.96 1463.97 -1127.88 1409.67 -1091.11 1386.77C-1062.79 1369.12 -1025.31 1373.01 -993.582 1374.6C-951.555 1376.69 -909.474 1378.82 -867.447 1380.91C-783.339 1385.12 -699.23 1389.29 -615.122 1393.51C-531.014 1397.73 -449.481 1401.78 -366.633 1405.95C-365.537 1405.95 -364.277 1405.29 -363.784 1404.3C-350.578 1378 -347.51 1350 -354.633 1321.45C-355.017 1320.03 -356.387 1319.1 -357.811 1319.04C-529.48 1314.66 -701.148 1310.28 -872.817 1305.89C-915.117 1304.8 -957.363 1303.76 -999.664 1302.66L-1061.14 1301.07C-1081.2 1300.58 -1103.44 1302.44 -1123.11 1297.56C-1149.25 1291.1 -1157.58 1270.55 -1160.76 1246.11C-1163.66 1223.87 -1165.58 1201.4 -1167.99 1179.1C-1172.54 1137.02 -1177.03 1094.94 -1181.58 1052.86C-1190.78 967.378 -1199.99 881.955 -1209.14 796.476C-1213.69 754.395 -1218.18 712.314 -1222.73 670.232C-1226.89 631.712 -1232.43 592.59 -1228.98 553.796C-1221.63 470.236 -1161.58 416.154 -1104.54 361.524C-1043.01 302.566 -981.418 243.664 -919.884 184.706C-887.447 153.693 -854.516 123.118 -822.735 91.3922C-797.201 65.9679 -772.709 38.187 -758.517 4.59851C-737.641 -44.8253 -745.312 -113.865 -797.53 -140.44L-798.297 -134.413C-735.504 -154.303 -671.286 -206.795 -640.82 -265.808C-636.546 -274.082 -627.122 -293.15 -640.82 -297.752C-647.122 -299.889 -656.82 -295.725 -662.025 -292.492C-669.642 -287.725 -674.738 -279.068 -680.984 -272.493C-691.011 -262.027 -702.025 -252.548 -713.915 -244.274C-759.832 -212.165 -817.037 -202.85 -867.776 -229.425C-915.556 -254.466 -951.993 -295.725 -984.65 -337.752C-1054.62 -427.723 -1123.55 -516.05 -1205.69 -595.611C-1229.85 -619.007 -1254.67 -641.692 -1280.15 -663.665C-1283.99 -666.952 -1297.36 -674.842 -1298.67 -679.445C-1300.81 -686.842 -1290.29 -693.965 -1285.74 -698.842C-1273.58 -711.882 -1261.41 -724.978 -1249.25 -738.019C-1199.72 -791.224 -1150.24 -844.374 -1100.7 -897.578C-1098.57 -899.88 -1100.65 -904.099 -1103.88 -903.058L-1106.35 -902.29L-1103.17 -896.811C-1021.03 -982.344 -936.87 -1065.9 -850.625 -1147.27C-807.557 -1187.93 -763.942 -1228.04 -719.833 -1267.6C-709.367 -1276.97 -698.573 -1289.63 -686.683 -1297.13C-680.436 -1301.08 -680.162 -1303.82 -672.765 -1299.87C-667.231 -1296.91 -662.19 -1290.34 -657.313 -1286.28C-636.93 -1269.24 -615.013 -1254.34 -591.89 -1241.24C-590.191 -1240.31 -588.492 -1240.97 -587.397 -1242.45C-575.835 -1257.9 -564.219 -1273.3 -552.657 -1288.75C-551.836 -1289.85 -552.164 -1291.87 -553.151 -1292.75C-564.657 -1302.45 -576.219 -1312.09 -587.725 -1321.79C-593.479 -1326.61 -599.232 -1331.49 -605.04 -1336.31C-608.656 -1339.33 -620.656 -1346.12 -622.355 -1350.83C-626.629 -1362.78 -607.944 -1378.72 -600.218 -1387.49C-591.506 -1397.35 -582.356 -1406.78 -572.986 -1416.04C-530.685 -1457.95 -487.617 -1499.1 -445.426 -1541.13C-359.51 -1626.77 -274.525 -1713.4 -187.239 -1797.67C-184.17 -1800.63 -188.828 -1805.29 -191.896 -1802.33L-191.567 -1802.55Z" fill="#9B9B9B"/>
<path d="M2575.9 623.603C2577.16 589.959 2587.02 558.891 2605.49 530.727C2606.14 529.741 2606.09 528.371 2605.49 527.385C2598.09 515.056 2583.9 511.495 2570.53 516.481C2550.03 524.152 2543.35 549.029 2536.5 567.439C2515.35 624.589 2488.56 679.547 2457.1 731.711C2394.48 835.709 2313.82 928.255 2222.15 1007.54C2126.32 1090.39 2018.7 1158.88 1905.72 1215.81C1849.39 1244.2 1791.31 1268.3 1733.5 1293.56C1679.36 1317.24 1625.78 1343.81 1580.79 1382.71C1530.22 1426.44 1492.96 1482.93 1458.38 1539.42C1417.78 1605.72 1377.89 1672.52 1337.73 1739.04C1336.52 1741.06 1337.78 1743.09 1339.7 1743.86L1341.4 1744.57L1339.97 1739.09C1256.79 1816.46 1162.17 1881.01 1059.48 1929.66C1007.05 1954.49 952.69 1975.14 896.965 1991.25C844.911 2006.32 789.405 2013.28 739.816 2035.74C700.749 2053.44 675.215 2077.22 675.325 2121.72C675.379 2145.99 679.544 2170.04 680.146 2194.32C680.694 2216.67 680.64 2238.92 684.311 2261.06C687.598 2281.11 694.009 2308.45 714.995 2317.38C732.748 2325 753.022 2315.41 768.364 2306.43C819.487 2276.51 857.952 2228.73 909.403 2199.3C922.499 2191.8 935.046 2187.91 949.895 2185.44C983.758 2179.8 1017.95 2176.56 1052.25 2174.65C1115.48 2171.03 1178.77 2171.8 1242.06 2170.48C1369.67 2167.74 1498.38 2159.36 1625.12 2143.91C1751.86 2128.46 1868.35 2102.7 1985 2060.89C2100.12 2019.64 2210.75 1967.25 2321.54 1915.75C2432.34 1864.24 2554.25 1809.61 2671.84 1759.36C2906.96 1658.87 3145.31 1566 3386.35 1480.9C3506.95 1438.33 3628.21 1397.67 3750.13 1358.99C3811.06 1339.65 3872.15 1320.8 3933.41 1302.5C3991.11 1285.24 4049.85 1270.44 4107 1251.48C4127.38 1244.69 4147.6 1236.03 4163.82 1221.57C4181.95 1205.35 4191.38 1182.99 4199.05 1160.42C4217.35 1106.66 4238.17 1054.61 4265.95 1004.97C4320.2 908.036 4393.95 823.271 4482.11 755.875C4518.55 728.04 4559.1 698.56 4568.08 650.506C4576.52 605.301 4564.58 553.302 4554 509.139C4532.14 417.743 4491.37 332.155 4444.09 251.444C4346.22 84.4879 4218.99 -65.3726 4139.32 -242.849C4119.27 -287.561 4102.78 -333.697 4090.72 -381.203C4089.79 -384.82 4084.31 -383.998 4084.26 -380.327C4081.74 -173.207 4094.06 33.9134 4121.63 239.225C4135.1 339.607 4152.09 439.441 4172.75 538.618C4179.98 573.302 4184.53 608.698 4176.09 643.712C4167 681.3 4135.65 710.944 4096.8 685.191C4079.71 673.849 4067.49 656.479 4054.94 640.698C4039.16 620.808 4022.67 601.466 4005.46 582.781C3974.23 548.864 3940.7 517.084 3905.19 487.714C3846.23 438.893 3766.45 379.99 3685.14 405.25C3619.5 425.633 3585.14 492.701 3562.07 552.371C3526.46 644.424 3497.2 739.327 3465.2 832.641C3431.39 931.16 3397.53 1029.68 3363.72 1128.2C3336.71 1206.83 3303.12 1329.84 3193.37 1302.11C3110.9 1281.29 3051.62 1198.39 3021.1 1123.59C2991.45 1050.83 2982.47 970.227 2991.95 892.42C2996.71 853.407 3006.25 814.942 3020.38 778.285C3031.89 748.423 3057.64 709.684 3032.49 679.821C3022.41 667.821 3007.67 661.3 2993.59 655.328C2969.92 645.246 2946.14 635.438 2922.36 625.466C2875.4 605.795 2828.44 586.124 2781.54 566.453C2750.91 553.631 2709.43 528.974 2682.74 561.521C2672.33 574.233 2667.35 590.945 2661.92 606.123C2653.65 629.082 2645.32 652.041 2636.77 674.89C2602.86 765.189 2564.61 854.996 2510.14 935.105C2461.98 1005.9 2400.17 1069.4 2325 1111.38C2306.86 1121.51 2288.07 1130.33 2268.61 1137.57C2250.26 1144.36 2186.64 1166.5 2198.42 1125.57C2209.33 1087.7 2260.34 1071.92 2290.09 1052.97C2418.75 970.885 2515.08 840.202 2558.75 694.232C2569.38 658.726 2576.66 622.397 2580.94 585.576C2581.43 581.357 2574.86 581.411 2574.36 585.576C2554.91 751.491 2467.95 907.16 2337.27 1011.27C2304.39 1037.46 2268.83 1056.64 2232.89 1077.95C2214.64 1088.8 2183.41 1115.65 2191.36 1140.69C2201.6 1172.85 2250.64 1151.21 2270.26 1143.98C2308.23 1129.95 2343.79 1110.01 2376.39 1086.06C2523.79 977.844 2596.88 803.873 2657.54 637.465C2665.21 616.424 2670.96 593.137 2682.36 573.795C2702.63 539.384 2736.72 554.946 2765.59 567.055C2814.91 587.713 2864.17 608.37 2913.48 629.027C2936.93 638.89 2960.44 648.698 2983.89 658.561C3013.53 671.054 3043.56 686.122 3034.63 724.423C3029.97 744.368 3019.12 762.833 3011.94 782.011C3004.77 801.188 2998.79 821.298 2994.14 841.517C2961.1 985.57 2992.66 1157.13 3105.7 1259.7C3158.35 1307.48 3241.91 1338.66 3299.17 1280.3C3324.87 1254.11 3339.06 1218.72 3351.12 1184.69C3368.71 1135.05 3385.36 1085.07 3402.46 1035.27C3437.53 933.077 3472.6 830.942 3507.66 728.751C3524.7 679.163 3541.36 629.41 3558.79 579.932C3571.94 542.617 3586.84 505.084 3609.63 472.536C3634.95 436.372 3671.44 408.866 3716.86 406.401C3766.34 403.661 3813.36 428.538 3852.81 455.934C3932.42 511.221 3999.49 582.562 4059.76 657.849C4078.67 681.41 4104.37 708.15 4137.79 700.424C4161.19 695.054 4174.12 673.574 4180.53 651.985C4188.97 623.438 4188.69 591.986 4184.04 562.836C4176.09 513.193 4164.09 463.989 4155.32 414.455C4118.12 204.65 4096.86 -7.94885 4091.65 -220.932C4090.34 -273.972 4090.12 -327.012 4090.72 -380.053L4084.26 -379.176C4130.34 -197.042 4242.45 -43.1266 4345.79 110.296C4398.33 188.322 4449.89 267.553 4490.33 352.703C4510.55 395.277 4527.81 439.277 4540.58 484.701C4553.73 531.44 4566.39 584.041 4563.32 632.863C4559.43 694.177 4509.84 725.738 4465.89 760.258C4425.02 792.367 4387.43 828.531 4353.57 867.982C4287.87 944.584 4236.42 1033.24 4202.72 1128.42C4192.31 1157.79 4185.35 1190.22 4163 1213.29C4143.93 1232.91 4116.64 1242.11 4091.11 1249.73C4033.24 1266.99 3975.11 1283.26 3917.25 1300.63C3799.49 1336.03 3682.35 1373.29 3565.74 1412.36C3332.43 1490.55 3101.59 1575.97 2873.54 1668.41C2646.91 1760.3 2425.21 1862.27 2202.75 1963.64C2091.19 2014.43 1977.66 2062.16 1858.98 2093.83C1738.16 2126.04 1613.56 2141.33 1489.12 2150.76C1364.46 2160.24 1240.14 2163.19 1115.21 2165.99C1056.25 2167.3 994.826 2168.62 937.019 2181.33C913.841 2186.43 893.732 2200.73 875.157 2214.86C851.76 2232.67 829.897 2252.29 807.048 2270.7C787.323 2286.64 764.583 2306.21 739.269 2312.34C711.214 2319.19 698.557 2295.69 692.859 2271.74C687.653 2249.66 686.886 2226.65 686.667 2204.07C686.393 2179.96 683.324 2156.24 682.064 2132.18C680.859 2108.62 683.05 2084.35 701.352 2067.36C723.981 2046.43 755.816 2035.14 784.912 2026.76C837.075 2011.74 890.225 2001.72 941.786 1984.4C1042.5 1950.6 1138.22 1902.05 1225.12 1841.01C1267.1 1811.47 1306.88 1779.04 1344.46 1744.08C1346.44 1742.22 1345.12 1739.48 1343.04 1738.6L1341.34 1737.89L1343.31 1742.71C1379.48 1682.82 1415.64 1622.87 1451.86 1562.98C1484.3 1509.4 1517.45 1455.32 1561.45 1410.27C1649.99 1319.54 1779.69 1285.29 1890.76 1230.88C2106.7 1125.07 2304.83 975.652 2438.69 773.408C2474.42 719.491 2505.16 662.287 2529.87 602.562C2535.95 587.877 2541.27 572.918 2546.97 558.069C2550.75 548.316 2554.8 537.521 2562.36 529.96C2567.4 524.919 2573.71 521.522 2581.05 521.138C2587.24 520.81 2596.39 525.906 2596.12 533.248C2595.9 539.549 2586.31 550.946 2583.73 556.919C2580.99 563.33 2578.58 569.905 2576.61 576.644C2572.06 592.041 2569.92 607.822 2569.32 623.822C2569.16 628.041 2575.73 628.041 2575.9 623.822V623.603Z" fill="#9B9B9B"/>
<path d="M1316.79 -56.9326C1315.91 -67.8365 1309.56 -73.4799 1299.69 -77.1511C1285.12 -82.5209 1271.04 -83.8358 1255.64 -82.5208C1222.1 -79.6715 1188.63 -75.8359 1155.2 -72.2195C1088.13 -64.9868 1021.18 -56.7135 954.657 -45.3712C888.028 -33.9741 821.837 -19.4533 757.126 0.327202C725.017 10.1353 693.291 21.2583 662.168 33.8609C636.306 44.3265 610.717 55.8876 587.704 71.8325C567.266 85.9693 548.417 103.668 537.129 126.133C524.143 151.941 523.376 180.927 531.157 208.433C539.595 238.46 555.759 266.788 573.074 292.541C587.868 314.569 605.786 336.048 629.512 348.815C656.196 363.171 686.003 362.239 714.167 352.76C746.003 342.075 775.756 324.376 805.344 308.705C865.946 276.541 925.78 242.953 984.684 207.721C1043.53 172.489 1101.45 135.667 1158.16 97.0923C1186.71 77.6953 1214.93 57.8601 1242.87 37.5865C1255.86 28.162 1268.95 19.0117 1280.51 7.72421C1286.27 2.13525 1291.8 -3.61845 1297.61 -9.09781C1302.65 -13.8101 1307.47 -18.5769 1310.87 -24.659C1316.46 -34.6315 1316.79 -45.8094 1316.79 -56.9326C1316.79 -61.1517 1310.21 -61.1517 1310.21 -56.9326C1310.21 -44.2752 1309.5 -32.3845 1301.17 -22.1381C1296.68 -16.6039 1290.98 -12.0566 1285.88 -7.01562C1280.24 -1.42667 1274.76 4.32681 1268.84 9.58701C1256.57 20.5457 1242.49 29.7514 1229.12 39.3951C1215.75 49.0388 1202.76 58.2441 1189.5 67.5043C1136.41 104.6 1082.22 140.106 1027.15 174.187C972.081 208.269 916.082 240.871 859.316 272.104C830.933 287.72 802.385 303.007 773.674 317.966C744.962 332.924 714.77 350.514 681.839 353.198C621.512 358.13 584.252 302.678 558.718 256.104C543.43 228.268 530.116 196.927 532.855 164.489C535.047 138.188 548.636 115.01 567.266 96.8736C606.881 58.3536 663.538 38.9563 714.606 21.1484C774.824 0.162415 836.741 -15.7821 899.261 -28.3846C962.657 -41.1515 1026.71 -50.5217 1090.93 -58.3024C1122.38 -62.138 1153.89 -65.5347 1185.45 -68.8223C1201.39 -70.4662 1217.34 -72.11 1233.28 -73.6991C1249.23 -75.2881 1265.61 -78.3564 1281.34 -75.6167C1292.24 -73.6989 1309.23 -70.1378 1310.27 -56.8777C1310.6 -52.7134 1317.17 -52.6586 1316.84 -56.8777L1316.79 -56.9326Z" fill="#9B9B9B"/>
<path d="M-134.093 667.381C-134.093 800.858 -140.833 934.335 -154.476 1067.15C-157.874 1100.36 -161.709 1133.51 -165.928 1166.61C-169.819 1196.74 -172.394 1227.76 -179.627 1257.29C-182.531 1269.23 -186.64 1281.01 -193.599 1291.21C-200.558 1301.4 -210.695 1308.14 -222.092 1313.4C-231.516 1317.73 -241.763 1321.78 -248.776 1329.78C-255.79 1337.78 -257.872 1348.36 -255.078 1358.6C-248.064 1384.19 -221.489 1392.52 -197.873 1394.49C-165.161 1397.18 -132.066 1397.34 -99.2445 1398.66C-32.451 1401.34 34.3971 1404.08 101.191 1406.77C133.793 1408.08 166.34 1409.18 198.943 1410.77C228.367 1412.24 258.065 1414.77 286.558 1422.71C315.05 1430.66 340.529 1444.68 362.282 1464.68C384.035 1484.68 399.926 1506.22 415.925 1529.12C451.596 1580.3 484.253 1633.67 513.732 1688.68C528.526 1716.24 542.499 1744.29 555.649 1772.68C567.156 1797.5 576.252 1824.73 591.977 1847.31C598.607 1856.84 606.662 1865.44 616.58 1871.58C627.922 1878.54 641.018 1881.55 654.059 1883.03C685.729 1886.65 718.496 1885.61 750.167 1883.31C764.906 1882.27 779.81 1881.06 794.385 1878.48C805.508 1876.57 816.96 1873.11 825.453 1865.33C844.74 1847.64 836.302 1819.8 825.672 1799.91C818.494 1786.49 809.618 1773.99 801.344 1761.23C792.467 1747.58 783.591 1733.94 774.659 1720.3C756.797 1693.06 738.879 1665.83 720.797 1638.71C684.688 1584.46 648.25 1530.44 611.374 1476.74C537.896 1369.62 462.884 1263.59 386.337 1158.66C348.201 1106.39 309.68 1054.33 270.832 1002.61C260.805 989.238 250.722 975.869 240.586 962.554C232.147 951.431 224.202 938.609 213.627 929.294C194.395 912.417 169.737 916.691 147.436 924.034C122.396 932.253 97.8482 943.047 71.0541 936.855C46.5613 931.212 25.9589 914.938 9.08249 896.911C-9.49255 877.021 -24.0128 854.007 -37.9304 830.72C-54.2589 803.323 -69.7107 775.324 -84.1214 746.886C-98.2034 719.215 -111.299 691.051 -123.573 662.504C-125.217 658.613 -130.915 661.956 -129.271 665.846C-104.45 723.708 -75.8476 779.981 -43.629 834.062C-19.5198 874.5 9.466 919.979 54.9447 938.609C77.5745 947.869 100.478 946.444 123.437 939.157C146.395 931.869 174.833 916.527 198.888 927.376C212.751 933.623 221.298 947.869 230.175 959.54C239.764 972.197 249.298 984.8 258.832 997.512C277.9 1022.83 296.859 1048.25 315.763 1073.73C392.09 1176.63 466.938 1280.63 540.307 1385.67C613.456 1490.33 685.072 1596.02 755.262 1702.71C772.906 1729.56 790.495 1756.46 807.974 1783.47C820.905 1803.47 843.535 1837.39 822.33 1859.42C813.508 1868.57 799.864 1871.31 787.81 1873.01C771.865 1875.25 755.756 1876.57 739.646 1877.44C723.537 1878.32 707.702 1878.65 691.757 1878.38C675.812 1878.1 660.031 1877.99 644.689 1875.03C630.771 1872.29 618.278 1866.54 608.141 1856.51C598.881 1847.36 592.142 1836.02 586.334 1824.4C573.567 1798.87 562.991 1772.18 550.553 1746.43C523.924 1691.2 494.116 1637.5 461.349 1585.61C445.35 1560.3 428.857 1535.2 411.158 1511.04C395.487 1489.61 378.392 1468.85 357.734 1451.97C313.9 1416.14 258.723 1407.48 203.819 1404.46C73.6296 1397.34 -56.8342 1394.38 -187.134 1388.52C-202.202 1387.86 -218.475 1386.77 -231.735 1378.71C-242.475 1372.14 -251.461 1358.99 -249.379 1345.89C-247.297 1332.79 -235.79 1327.1 -225.434 1322.22C-215.078 1317.34 -205.544 1313.4 -197.38 1305.84C-180.449 1290.11 -173.983 1266.38 -170.093 1244.36C-164.778 1214.17 -161.271 1183.54 -157.49 1153.13C-141.271 1023.32 -131.627 892.747 -128.449 762.009C-127.682 730.448 -127.354 698.887 -127.354 667.326C-127.354 663.107 -133.929 663.107 -133.929 667.326L-134.093 667.381Z" fill="#9B9B9B"/>
<path d="M1428.3 91.0073C1404.3 66.3502 1371.81 46.0766 1337.12 41.8027C1319.31 39.611 1302.11 42.9534 1286.6 52.1039C1267.48 63.3366 1250.16 78.5145 1232.52 91.8842C1157.4 148.87 1082.28 205.91 1007.15 262.895C932.031 319.88 860.033 372.866 787.924 429.577C756.144 454.563 725.514 481.467 701.131 513.96C676.748 546.452 658.995 584.205 639.105 619.985C619.215 655.766 596.968 687.217 567.599 714.559C539.873 740.367 507.709 761.408 472.97 776.476C463.875 780.422 454.614 783.873 445.245 786.996C443.163 787.709 442.286 789.9 443.272 791.818C470.833 845.132 498.394 898.447 525.956 951.761C530.668 960.857 534.832 972.747 543.49 978.993C553.133 986.007 565.352 982.281 575.873 979.761C598.941 974.227 622.721 967.597 641.515 952.474C657.241 939.816 669.022 919.378 667.762 898.721C667.049 886.94 661.131 878.118 656.31 867.707C649.899 853.899 656.036 843.379 666.885 834.338C687.597 817.078 710.665 801.955 733.295 787.38C755.924 772.805 779.267 758.997 803.047 746.175C826.828 733.354 850.389 721.957 874.772 711.272C886.991 705.902 899.648 699.326 912.744 696.367C919.922 694.724 927.483 694.724 933.401 699.71C937.62 703.272 940.47 708.149 944.415 711.984C960.414 727.655 981.949 715.436 995.592 702.943C1006 693.354 1015.32 682.34 1024.91 671.93C1034.5 661.519 1043.97 651.218 1053.4 640.807C1131.1 555.22 1205.89 467.001 1279.48 377.907C1316.13 333.524 1352.57 288.868 1388.9 244.211C1418.05 208.431 1456.9 167.006 1443.26 116.486C1440.63 106.733 1435.37 98.1852 1428.35 90.9525C1425.39 87.884 1420.74 92.542 1423.69 95.6104C1441.01 113.528 1441.78 139.61 1435.37 162.568C1428.63 186.677 1411.37 206.238 1395.91 225.252C1360.68 268.539 1325.39 311.826 1289.94 354.949C1219.53 440.427 1148.19 525.247 1074.33 607.766C1055.87 628.424 1037.24 648.916 1018.44 669.19C1009.4 678.943 1000.69 689.245 990.935 698.231C982.715 705.738 970.277 715.326 958.332 712.587C947.647 710.121 943.702 698.45 935.155 692.752C926.607 687.053 915.977 688.313 906.717 691.162C882.772 698.614 859.43 710.559 836.964 721.463C790.554 743.929 745.897 770.01 703.542 799.38C692.802 806.832 682.172 814.503 671.707 822.393C663.871 828.31 655.324 834.338 650.392 843.05C645.461 851.762 646.228 861.023 650.282 870.009C655.214 880.913 661.68 890.063 661.351 902.611C660.803 926.72 642.94 946.282 622.667 957.076C611.598 962.994 599.543 966.884 587.489 970.117C582.009 971.596 576.475 972.966 570.887 974.281C563.763 975.98 555.215 978.555 548.421 974.445C543.38 971.432 540.586 965.624 537.955 960.583C534.558 954.117 531.271 947.651 527.928 941.186C521.243 928.254 514.559 915.323 507.874 902.392C494.723 876.968 481.573 851.488 468.422 826.064C461.957 813.571 455.491 801.024 449.025 788.531L447.053 793.353C516.421 770.394 577.626 725.079 619.324 665.026C642.502 631.602 659.488 594.452 679.707 559.274C699.925 524.097 725.295 492.371 755.87 464.864C787.815 436.152 822.882 410.948 857.074 385.03C894.059 356.921 931.1 328.867 968.086 300.758C1042.11 244.594 1116.14 188.376 1190.16 132.212C1208.68 118.185 1227.15 104.103 1245.67 90.0762C1262.55 77.3093 1279.37 61.6383 1298.93 53.0905C1333.94 37.7483 1375.2 56.3781 1403.42 77.6928C1410.65 83.1174 1417.39 89.1448 1423.69 95.6104C1426.65 98.6241 1431.31 94.0209 1428.35 90.9525L1428.3 91.0073Z" fill="#9B9B9B"/>
<path d="M578.613 107.283L690.447 318.184L810.5 249.527L801.076 226.952L971.813 139.775L986.716 162.789L1110 93.968L1011.32 -115.618L891.649 -52.4404L906.17 -24.0029L724.09 67.8862L711.488 43.613L578.613 107.283Z" fill="#9B9B9B"/>
<path d="M955.321 783.876L916.965 718.124L686.832 860.587L733.407 917.079L955.321 783.876Z" fill="#9B9B9B"/>
<path d="M1880.29 -330.736C1789.5 -168.163 1667.09 -28.7133 1548.02 111.723C1213.78 506.182 898.718 919.053 604.641 1348.2C674.064 1478.39 755.049 1601.56 846.116 1715.64C1151.81 1347.32 1543.09 1072.31 1879.36 735.494C2044.12 570.51 2195.35 391.006 2346.37 211.721C2212.34 13.4778 2056.67 -168.218 1883.58 -328.599C1879.25 -324.599 1874.92 -320.599 1870.59 -316.599" fill="#9B9B9B"/>
<path d="M-782.027 136.379L-552.99 378.896L148.862 -329.367L-69.71 -563.609L-782.027 136.379Z" fill="#F55B1D"/>
<path d="M-203.023 415.389C-145.435 381.581 -84.45 347.664 -20.1222 314.021C46.8904 279.008 112.095 247.118 175.053 218.132L443.542 683.878L312.037 766.068L328.475 790.396L196.97 859.217L186.012 837.3L49.0275 903.052C-34.9712 740.48 -119.025 577.962 -203.023 415.389Z" fill="#F55B1D"/>
<path d="M770.904 833.513L786.471 859.971L784.238 861.284L776.079 847.415L772.18 849.709L779.534 862.209L777.391 863.469L762.981 838.976L765.124 837.715L771.042 847.774L774.941 845.48L768.672 834.826L770.904 833.513ZM760.982 866.153L751.176 849.486L761.087 843.655L762.225 845.59L754.636 850.055L762.13 862.793C765.767 860.633 768.203 859.02 770.799 856.691L772.163 858.533C769.364 861.061 766.732 862.75 762.678 865.155L760.982 866.153ZM792.139 824.866L793.259 826.77L777.486 836.051L776.365 834.146L783.091 830.189L781.34 827.213L783.661 825.847L785.412 828.823L792.139 824.866ZM782.628 841.318C780.897 838.41 782.371 835.059 786.178 832.78C789.99 830.577 793.62 830.925 795.366 833.824C797.026 836.714 795.584 840.086 791.799 842.333C787.965 844.568 784.303 844.199 782.628 841.318ZM789.702 849.256L788.581 847.351L805.902 837.16L810.875 845.612L808.554 846.978L804.701 840.431L789.702 849.256ZM784.86 840.005C785.878 841.77 788.204 841.944 790.695 840.458C793.174 839.02 794.167 836.893 793.164 835.12C792.074 833.337 789.725 833.157 787.246 834.595C784.755 836.081 783.786 838.213 784.86 840.005ZM802.723 837.068L792.987 820.52L795.309 819.154L799.634 826.506L803.622 824.159L804.777 826.123L800.789 828.47L805.044 835.702L802.723 837.068ZM822.796 803.023L834.615 823.112L832.264 824.495L830.653 821.757L825.177 824.979L824.179 823.282L829.655 820.06L820.445 804.406L822.796 803.023ZM808.046 828.207C812.954 825.279 819.565 821.33 824.823 817.295L825.97 818.903C823.837 820.659 821.492 822.359 819.154 823.935L822.227 829.158L819.876 830.541L816.873 825.437C814.256 827.117 811.711 828.614 809.494 829.919L808.046 828.207ZM806.319 820.369C804.667 817.595 806.239 814.206 810.153 811.903C814.037 809.618 817.762 809.89 819.414 812.664C821.063 815.5 819.447 818.815 815.563 821.1C811.65 823.402 807.968 823.205 806.319 820.369ZM819.858 839.566L815.305 831.828L817.656 830.445L821.053 836.219L837.511 826.536L838.667 828.5L819.858 839.566ZM808.551 819.055C809.537 820.799 811.95 820.882 814.548 819.374C817.054 817.879 818.183 815.712 817.182 813.977C816.169 812.29 813.701 812.18 811.203 813.689C808.597 815.183 807.524 817.376 808.551 819.055ZM849.207 787.444L857.349 801.283L855.028 802.649L853.031 799.256L846.782 802.933L848.147 805.255L836.153 812.311L829.377 800.793L831.698 799.428L833.94 803.237L841.321 798.895L839.079 795.085L841.371 793.737L842.877 796.296L849.127 792.619L846.886 788.81L849.207 787.444ZM837.354 809.041L844.735 804.698L842.406 800.74L835.025 805.082L837.354 809.041ZM842.062 814.524L840.959 812.649L858.102 802.563L861.762 808.783L847 817.468L848.698 820.355L864.472 811.075L865.575 812.95L847.48 823.596L843.628 817.048L858.39 808.363L856.884 805.804L842.062 814.524ZM845.696 801.088L851.946 797.411L850.195 794.435L843.945 798.112L845.696 801.088ZM869.522 778.256L870.345 779.655C871.354 781.405 872.904 784.039 874.266 787.885L871.809 789.09C870.593 785.558 869.331 783.276 868.371 781.577L857.493 787.977L856.338 786.013L869.522 778.256ZM861.582 798.672C863.293 797.666 865.219 796.513 867.223 795.254L863.835 789.495L866.156 788.129L869.5 793.813C872.362 791.97 875.275 789.975 877.8 787.969L878.965 789.607C873.975 793.825 867.667 797.677 862.958 800.467L861.582 798.672ZM872.804 808.416L868.233 800.648L870.585 799.265L873.999 805.069L889.326 796.051L890.482 798.015L872.804 808.416ZM883.718 793.942L872.004 774.031L874.385 772.631L879.463 781.261L883.332 778.985L884.505 780.979L880.636 783.255L886.099 792.541L883.718 793.942Z" fill="#1F2225"/>
<path d="M823.261 111.965L824.858 115.348L805.758 124.364L808.092 129.308C816.993 125.583 823.51 125.975 825.872 130.843C828.264 136.046 823.669 141.747 813.755 146.427C803.71 151.169 796.388 151.093 793.969 145.903C791.634 141.023 795.447 135.754 804.084 131.2L801.75 126.256L782.703 135.247L781.106 131.864L823.261 111.965ZM780.65 124.697C788.271 120.081 794.071 112.348 791.913 107.034L777.341 113.913L775.769 110.582L810.325 94.2695L811.898 97.6002L797.222 104.528C799.952 109.571 809.531 110.045 818.069 107.033L818.083 110.972C810.081 113.636 801.368 113.581 796.398 109.658C796.267 115.989 790.825 122.726 783.63 127.236L780.65 124.697ZM798.133 143.937C799.53 147.032 804.852 146.779 812.256 143.252C819.606 139.814 823.184 135.866 821.76 132.784C820.248 129.647 814.951 129.952 807.588 133.364C800.196 136.917 796.594 140.813 798.133 143.937ZM853.114 71.3978L858.814 83.4719L865.788 80.1799L867.385 83.5627L860.411 86.8547L866.233 99.189L862.174 101.105L849.055 73.3141L853.114 71.3978ZM828.567 112.96C838.207 104.464 842.303 94.6706 839.34 86.2368L822.244 94.3072L820.647 90.9244L842.141 80.778C847.68 92.5781 843.457 105.136 831.857 115.48L828.567 112.96ZM840.911 122.661C838.269 117.131 842.631 110.935 851.855 106.613C861.132 102.202 868.584 102.821 871.2 108.363C873.854 113.984 869.571 120.078 860.281 124.464C851.07 128.812 843.538 128.294 840.911 122.661ZM844.97 120.745C846.564 124.257 851.954 124.417 858.734 121.185C865.538 118.005 868.891 113.717 867.245 110.23C865.599 106.743 860.182 106.66 853.402 109.892C846.598 113.072 843.272 117.283 844.97 120.745ZM899.225 49.631L904.924 61.7051L911.846 58.4376L913.468 61.8725L906.546 65.14L912.27 77.2661L908.159 79.2069L895.113 51.5719L899.225 49.631ZM876.388 89.5586L866.807 69.2617L887.364 59.5575L888.961 62.9404L872.411 70.7528L878.823 84.3361C888.166 79.862 893.418 77.033 899.035 72.8221L901.048 76.0084C895.183 80.3681 889.763 83.2448 879.979 87.8635L876.388 89.5586ZM886.602 101.22C884.012 95.665 888.37 89.6621 897.803 85.1771C907.261 80.7441 914.587 81.2316 917.204 86.7742C919.857 92.3949 915.577 98.3608 906.132 102.82C896.686 107.279 889.282 106.828 886.602 101.22ZM890.61 99.3282C892.257 102.751 897.598 102.807 904.584 99.5411C911.493 96.2476 914.896 92.0639 913.249 88.6413C911.665 85.2202 906.297 85.2404 899.4 88.5599C892.402 91.7999 889.026 95.907 890.61 99.3282Z" fill="#1F2225"/>
<path d="M82.7311 515.648H74.3747V539.889H68.2974V516.684H60.2173V575.455H68.2974V546.933H74.3747V578.494H82.7311V515.648ZM30.1758 564.267H34.5267C42.814 564.233 49.5129 563.991 57.1786 562.541L56.5571 555.358C50.4797 556.429 45.093 556.774 39.0156 556.878V530.013H53.5874V522.9H30.1758V564.267ZM139.361 515.648H130.521V552.113H139.361V537.61H147.855V530.427H139.361V515.648ZM89.0847 546.38L92.6068 553.494C111.322 548.28 121.854 536.539 121.819 519.792H92.0543V526.836H112.22C110.839 535.538 102.931 542.72 89.0847 546.38ZM97.5792 565.717C97.5101 573.659 106.074 578.563 118.85 578.563C131.661 578.563 140.017 573.659 140.052 565.717C140.017 557.845 131.661 552.872 118.85 552.872C106.074 552.872 97.5101 557.845 97.5792 565.717ZM106.281 565.717C106.246 561.85 110.942 559.709 118.85 559.709C126.654 559.709 131.35 561.85 131.35 565.717C131.35 569.516 126.654 571.691 118.85 571.657C110.942 571.691 106.246 569.516 106.281 565.717ZM200.618 515.648H191.64V552.043H200.618V537.748H208.974V530.566H200.618V515.648ZM152.828 548.659H158.076C172.268 548.625 179.658 548.349 187.427 546.657L186.668 539.613C179.658 541.097 173.27 541.477 161.598 541.546V526.905H181.074V519.861H152.828V548.659ZM158.353 565.717C158.318 573.798 166.744 578.528 179.9 578.494C192.814 578.528 201.067 573.798 201.101 565.717C201.067 557.81 192.814 553.148 179.9 553.148C166.744 553.148 158.318 557.81 158.353 565.717ZM167.054 565.717C167.02 562.023 171.647 560.089 179.9 560.124C187.876 560.089 192.503 562.023 192.538 565.717C192.503 569.516 187.876 571.519 179.9 571.519C171.647 571.519 167.02 569.516 167.054 565.717Z" fill="white"/>
<mask id="path-14-inside-1_1_9824" fill="white">
<path d="M397.551 31.5464L392.379 66.5253L357.4 61.3536L362.572 26.3747L397.551 31.5464Z"/>
</mask>
<path d="M397.551 31.5464L392.379 66.5253L357.4 61.3536L362.572 26.3747L397.551 31.5464Z" fill="#FFF258"/>
<path d="M397.551 31.5464L398.28 31.6541L398.387 30.9254L397.659 30.8177L397.551 31.5464ZM392.379 66.5253L392.325 66.8896L393.054 66.9974L393.108 66.633L392.379 66.5253ZM357.4 61.3536L356.672 61.2459L356.618 61.6102L357.346 61.718L357.4 61.3536ZM362.572 26.3747L362.68 25.646L361.951 25.5383L361.843 26.267L362.572 26.3747ZM396.822 31.4386L391.65 66.4175L393.108 66.633L398.28 31.6541L396.822 31.4386ZM392.433 66.1609L357.454 60.9892L357.346 61.718L392.325 66.8896L392.433 66.1609ZM358.129 61.4613L363.301 26.4825L361.843 26.267L356.672 61.2459L358.129 61.4613ZM362.464 27.1035L397.443 32.2751L397.659 30.8177L362.68 25.646L362.464 27.1035Z" fill="#1F2225" mask="url(#path-14-inside-1_1_9824)"/>
<mask id="path-16-inside-2_1_9824" fill="white">
<path d="M392.379 66.5254L387.207 101.504L352.228 96.3326L357.4 61.3537L392.379 66.5254Z"/>
</mask>
<path d="M392.379 66.5254L387.207 101.504L352.228 96.3326L357.4 61.3537L392.379 66.5254Z" fill="#FFF258"/>
<path d="M392.379 66.5254L393.108 66.6331L393.162 66.2688L392.433 66.161L392.379 66.5254ZM387.207 101.504L387.1 102.233L387.828 102.341L387.936 101.612L387.207 101.504ZM352.228 96.3326L351.5 96.2249L351.392 96.9536L352.121 97.0613L352.228 96.3326ZM357.4 61.3537L357.454 60.9894L356.725 60.8816L356.671 61.246L357.4 61.3537ZM391.65 66.4176L386.479 101.397L387.936 101.612L393.108 66.6331L391.65 66.4176ZM387.315 100.776L352.336 95.6039L352.121 97.0613L387.1 102.233L387.315 100.776ZM352.957 96.4404L358.129 61.4615L356.671 61.246L351.5 96.2249L352.957 96.4404ZM357.346 61.7181L392.325 66.8898L392.433 66.161L357.454 60.9894L357.346 61.7181Z" fill="#1F2225" mask="url(#path-16-inside-2_1_9824)"/>
<path opacity="0.9" d="M357.037 88.9789C357.296 87.2299 357.796 85.7788 358.539 84.6257C359.285 83.4492 360.492 82.2099 362.162 80.908C363.809 79.6025 364.98 78.4531 365.675 77.4597C366.393 76.4698 366.838 75.3918 367.011 74.2259C367.166 73.1765 367.098 72.4277 366.806 71.9796C366.542 71.5116 366.083 71.2293 365.43 71.1328C364.101 70.9362 363.318 71.6425 363.08 73.2515L362.692 75.8749L359.054 75.3371L359.406 72.9585C359.699 70.9764 360.413 69.533 361.547 68.6285C362.685 67.7006 364.187 67.3746 366.053 67.6504C367.918 67.9262 369.261 68.6729 370.082 69.8904C370.906 71.0845 371.172 72.6727 370.879 74.6548C370.658 76.1473 370.081 77.5513 369.148 78.8669C368.238 80.1859 366.773 81.6372 364.751 83.2209C363.429 84.2645 362.513 85.1418 362.003 85.8528C361.496 86.5404 361.179 87.3156 361.052 88.1784L360.974 88.7031L368.285 89.7839L367.767 93.2818L356.644 91.6372L357.037 88.9789ZM376.229 94.8903C374.34 94.6111 372.974 93.861 372.13 92.64C371.286 91.4191 371.008 89.8292 371.298 87.8704L373.201 74.9982C373.491 73.0394 374.216 71.5977 375.378 70.6733C376.539 69.7489 378.064 69.4263 379.953 69.7056C381.842 69.9848 383.208 70.7349 384.052 71.9559C384.896 73.1768 385.174 74.7667 384.884 76.7255L382.981 89.5977C382.691 91.5565 381.966 92.9982 380.805 93.9226C379.643 94.847 378.118 95.1696 376.229 94.8903ZM376.746 91.3925C378.076 91.589 378.859 90.8827 379.097 89.2737L381.073 75.9118C381.311 74.3027 380.765 73.4 379.436 73.2034C378.106 73.0069 377.323 73.7132 377.085 75.3222L375.109 88.6841C374.872 90.2932 375.417 91.1959 376.746 91.3925Z" fill="#1F2225"/>
<path d="M370.034 38.7868L366.012 38.192L366.415 35.4637C367.511 35.6257 368.399 35.6618 369.08 35.5717C369.784 35.4852 370.365 35.2613 370.824 34.9002C371.285 34.5157 371.728 33.9378 372.152 33.1665L374.741 33.5492L371.12 58.0344L367.273 57.4655L370.034 38.7868ZM381.261 59.8911C379.396 59.6153 378.051 58.8803 377.227 57.6862C376.406 56.4687 376.142 54.8689 376.435 52.8867L376.502 52.432L380.14 52.9698L380.037 53.6694C379.799 55.2784 380.344 56.1812 381.673 56.3777C382.396 56.4846 382.965 56.3424 383.381 55.951C383.796 55.5597 384.086 54.8044 384.252 53.685L384.945 48.9979L384.875 48.9875C383.988 50.31 382.717 50.8489 381.062 50.6041C379.662 50.3972 378.672 49.7623 378.091 48.6993C377.509 47.6363 377.353 46.1954 377.622 44.3765L378.268 40.0041C378.558 38.0453 379.283 36.6037 380.445 35.6793C381.606 34.7548 383.131 34.4323 385.02 34.7115C386.909 34.9908 388.275 35.7409 389.119 36.9618C389.963 38.1828 390.241 39.7727 389.951 41.7315L388.079 54.3938C387.451 58.6379 385.179 60.4704 381.261 59.8911ZM383.153 47.3389C384.482 47.5354 385.266 46.8292 385.503 45.2201L386.145 40.8828C386.379 39.2971 385.832 38.4059 384.503 38.2094C383.173 38.0129 382.392 38.7075 382.157 40.2932L381.516 44.6306C381.278 46.2396 381.824 47.1424 383.153 47.3389Z" fill="#1F2225"/>
<mask id="path-20-inside-3_1_9824" fill="white">
<path d="M385.469 104.148L384.306 139.488L348.966 138.326L350.129 102.986L385.469 104.148Z"/>
</mask>
<path d="M385.469 104.148L384.306 139.488L348.966 138.326L350.129 102.986L385.469 104.148Z" fill="#FFF258"/>
<path d="M385.469 104.148L386.205 104.173L386.229 103.436L385.493 103.412L385.469 104.148ZM384.306 139.488L384.294 139.857L385.03 139.881L385.043 139.513L384.306 139.488ZM348.966 138.326L348.23 138.302L348.218 138.67L348.954 138.694L348.966 138.326ZM350.129 102.986L350.153 102.25L349.417 102.226L349.392 102.962L350.129 102.986ZM384.732 104.124L383.57 139.464L385.043 139.513L386.205 104.173L384.732 104.124ZM384.318 139.12L348.978 137.958L348.954 138.694L384.294 139.857L384.318 139.12ZM349.703 138.35L350.865 103.01L349.392 102.962L348.23 138.302L349.703 138.35ZM350.105 103.722L385.445 104.885L385.493 103.412L350.153 102.25L350.105 103.722Z" fill="#1F2225" mask="url(#path-20-inside-3_1_9824)"/>
<mask id="path-22-inside-4_1_9824" fill="white">
<path d="M384.305 139.488L383.142 174.828L347.802 173.666L348.965 138.326L384.305 139.488Z"/>
</mask>
<path d="M384.305 139.488L383.142 174.828L347.802 173.666L348.965 138.326L384.305 139.488Z" fill="#FFF258"/>
<path d="M384.305 139.488L385.041 139.512L385.053 139.144L384.317 139.12L384.305 139.488ZM383.142 174.828L383.118 175.565L383.854 175.589L383.879 174.853L383.142 174.828ZM347.802 173.666L347.066 173.642L347.042 174.378L347.778 174.402L347.802 173.666ZM348.965 138.326L348.977 137.958L348.241 137.934L348.228 138.302L348.965 138.326ZM383.568 139.464L382.406 174.804L383.879 174.853L385.041 139.512L383.568 139.464ZM383.166 174.092L347.826 172.93L347.778 174.402L383.118 175.565L383.166 174.092ZM348.538 173.69L349.701 138.35L348.228 138.302L347.066 173.642L348.538 173.69ZM348.953 138.694L384.293 139.856L384.317 139.12L348.977 137.958L348.953 138.694Z" fill="#1F2225" mask="url(#path-22-inside-4_1_9824)"/>
<path opacity="0.9" d="M351.745 165.814C351.803 164.047 352.135 162.548 352.742 161.318C353.349 160.065 354.408 158.696 355.919 157.213C357.407 155.729 358.439 154.454 359.017 153.388C359.618 152.322 359.938 151.201 359.977 150.023C360.012 148.963 359.859 148.226 359.519 147.814C359.203 147.379 358.715 147.151 358.055 147.129C356.712 147.085 356.014 147.876 355.961 149.502L355.874 152.152L352.198 152.031L352.277 149.628C352.343 147.625 352.888 146.11 353.913 145.083C354.938 144.031 356.393 143.537 358.278 143.599C360.162 143.661 361.582 144.25 362.536 145.366C363.49 146.459 363.935 148.007 363.869 150.009C363.819 151.517 363.406 152.978 362.628 154.391C361.874 155.805 360.583 157.413 358.755 159.216C357.56 160.403 356.749 161.379 356.323 162.144C355.898 162.884 355.671 163.691 355.642 164.562L355.625 165.092L363.011 165.335L362.895 168.869L351.657 168.5L351.745 165.814ZM365.895 166.279C365.953 164.512 366.285 163.014 366.892 161.784C367.499 160.53 368.558 159.161 370.069 157.678C371.557 156.194 372.589 154.919 373.167 153.853C373.768 152.788 374.088 151.666 374.127 150.488C374.161 149.428 374.009 148.692 373.669 148.28C373.353 147.845 372.865 147.617 372.205 147.595C370.862 147.551 370.164 148.341 370.111 149.967L370.023 152.618L366.348 152.497L366.427 150.093C366.493 148.091 367.038 146.576 368.062 145.548C369.088 144.497 370.543 144.002 372.427 144.064C374.312 144.126 375.732 144.715 376.685 145.832C377.64 146.924 378.084 148.472 378.019 150.475C377.969 151.983 377.555 153.443 376.778 154.856C376.024 156.27 374.733 157.879 372.904 159.682C371.71 160.869 370.899 161.845 370.473 162.609C370.048 163.35 369.821 164.156 369.792 165.028L369.775 165.558L377.161 165.801L377.044 169.335L365.806 168.965L365.895 166.279Z" fill="#1F2225"/>
<path d="M352.905 130.473C352.963 128.706 353.295 127.208 353.902 125.978C354.509 124.724 355.568 123.356 357.08 121.872C358.567 120.388 359.6 119.113 360.177 118.047C360.778 116.982 361.098 115.861 361.137 114.683C361.172 113.622 361.019 112.886 360.679 112.474C360.363 112.039 359.875 111.811 359.216 111.789C357.873 111.745 357.174 112.536 357.121 114.161L357.034 116.812L353.358 116.691L353.437 114.288C353.503 112.285 354.048 110.77 355.073 109.742C356.098 108.691 357.553 108.197 359.438 108.259C361.323 108.321 362.742 108.91 363.696 110.026C364.65 111.119 365.095 112.666 365.029 114.669C364.979 116.177 364.566 117.637 363.788 119.05C363.034 120.464 361.743 122.073 359.915 123.876C358.72 125.063 357.91 126.039 357.483 126.803C357.058 127.544 356.831 128.35 356.802 129.222L356.785 129.752L364.171 129.995L364.055 133.529L352.817 133.159L352.905 130.473ZM373.1 114.934L369.036 114.801L369.127 112.044C370.234 112.081 371.121 112.016 371.787 111.849C372.476 111.683 373.028 111.394 373.443 110.983C373.858 110.549 374.232 109.924 374.565 109.11L377.181 109.196L376.367 133.934L372.48 133.806L373.1 114.934Z" fill="#1F2225"/>
<mask id="path-26-inside-5_1_9824" fill="white">
<path d="M396.328 186.964L398.968 222.224L363.707 224.864L361.068 189.604L396.328 186.964Z"/>
</mask>
<path d="M396.328 186.964L398.968 222.224L363.707 224.864L361.068 189.604L396.328 186.964Z" fill="#FFF258"/>
<path d="M396.328 186.964L397.063 186.909L397.008 186.174L396.273 186.229L396.328 186.964ZM398.968 222.224L398.995 222.592L399.73 222.537L399.703 222.169L398.968 222.224ZM363.707 224.864L362.973 224.919L363 225.286L363.735 225.231L363.707 224.864ZM361.068 189.604L361.013 188.869L360.278 188.924L360.333 189.659L361.068 189.604ZM395.594 187.019L398.233 222.279L399.703 222.169L397.063 186.909L395.594 187.019ZM398.94 221.857L363.68 224.497L363.735 225.231L398.995 222.592L398.94 221.857ZM364.442 224.809L361.802 189.549L360.333 189.659L362.973 224.919L364.442 224.809ZM361.123 190.338L396.383 187.698L396.273 186.229L361.013 188.869L361.123 190.338Z" fill="#1F2225" mask="url(#path-26-inside-5_1_9824)"/>
<mask id="path-28-inside-6_1_9824" fill="white">
<path d="M398.969 222.224L401.609 257.485L366.348 260.124L363.708 224.864L398.969 222.224Z"/>
</mask>
<path d="M398.969 222.224L401.609 257.485L366.348 260.124L363.708 224.864L398.969 222.224Z" fill="#FFF258"/>
<path d="M398.969 222.224L399.703 222.169L399.676 221.802L398.941 221.857L398.969 222.224ZM401.609 257.485L401.664 258.219L402.398 258.164L402.343 257.43L401.609 257.485ZM366.348 260.124L365.614 260.179L365.669 260.914L366.403 260.859L366.348 260.124ZM363.708 224.864L363.681 224.497L362.946 224.552L362.974 224.919L363.708 224.864ZM398.234 222.279L400.874 257.54L402.343 257.43L399.703 222.169L398.234 222.279ZM401.554 256.75L366.293 259.39L366.403 260.859L401.664 258.219L401.554 256.75ZM367.083 260.069L364.443 224.809L362.974 224.919L365.614 260.179L367.083 260.069ZM363.736 225.231L398.996 222.591L398.941 221.857L363.681 224.497L363.736 225.231Z" fill="#1F2225" mask="url(#path-28-inside-6_1_9824)"/>
<path opacity="0.9" d="M376.481 251.366C376.349 249.603 376.518 248.077 376.989 246.789C377.458 245.478 378.364 244.003 379.707 242.366C381.027 240.731 381.916 239.352 382.376 238.231C382.859 237.107 383.057 235.958 382.969 234.782C382.89 233.725 382.659 233.009 382.276 232.636C381.916 232.237 381.406 232.063 380.748 232.112C379.408 232.212 378.799 233.073 378.92 234.695L379.118 237.34L375.451 237.614L375.272 235.217C375.122 233.219 375.501 231.654 376.409 230.522C377.316 229.367 378.709 228.719 380.59 228.578C382.47 228.437 383.945 228.871 385.013 229.878C386.079 230.862 386.687 232.353 386.837 234.351C386.95 235.855 386.695 237.352 386.074 238.84C385.476 240.327 384.365 242.065 382.741 244.054C381.681 245.363 380.98 246.42 380.638 247.225C380.295 248.007 380.156 248.833 380.221 249.703L380.261 250.232L387.63 249.68L387.894 253.206L376.681 254.046L376.481 251.366Z" fill="#1F2225"/>
<path d="M378.135 199.544L374.081 199.848L373.875 197.097C374.979 197.015 375.854 196.855 376.498 196.617C377.166 196.378 377.683 196.032 378.051 195.579C378.418 195.103 378.723 194.442 378.967 193.596L381.576 193.401L383.424 218.083L379.545 218.373L378.135 199.544Z" fill="#1F2225"/>
<mask id="path-32-inside-7_1_9824" fill="white">
<path d="M403.152 260.628L409.847 295.348L375.128 302.043L368.433 267.323L403.152 260.628Z"/>
</mask>
<path d="M403.152 260.628L409.847 295.348L375.128 302.043L368.433 267.323L403.152 260.628Z" fill="#FFF258"/>
<path d="M403.152 260.628L403.876 260.489L403.736 259.766L403.013 259.905L403.152 260.628ZM409.847 295.348L409.917 295.71L410.64 295.57L410.57 295.208L409.847 295.348ZM375.128 302.043L374.404 302.182L374.474 302.544L375.197 302.404L375.128 302.043ZM368.433 267.323L368.293 266.6L367.57 266.739L367.709 267.463L368.433 267.323ZM402.429 260.768L409.124 295.487L410.57 295.208L403.876 260.489L402.429 260.768ZM409.777 294.986L375.058 301.681L375.197 302.404L409.917 295.71L409.777 294.986ZM375.851 301.903L369.156 267.184L367.709 267.463L374.404 302.182L375.851 301.903ZM368.572 268.047L403.292 261.352L403.013 259.905L368.293 266.6L368.572 268.047Z" fill="#1F2225" mask="url(#path-32-inside-7_1_9824)"/>
<mask id="path-34-inside-8_1_9824" fill="white">
<path d="M409.848 295.348L416.542 330.068L381.823 336.762L375.128 302.043L409.848 295.348Z"/>
</mask>
<path d="M409.848 295.348L416.542 330.068L381.823 336.762L375.128 302.043L409.848 295.348Z" fill="#FFF258"/>
<path d="M409.848 295.348L410.571 295.209L410.501 294.847L409.778 294.986L409.848 295.348ZM416.542 330.068L416.682 330.791L417.405 330.652L417.266 329.928L416.542 330.068ZM381.823 336.762L381.1 336.902L381.239 337.625L381.962 337.486L381.823 336.762ZM375.128 302.043L375.058 301.681L374.335 301.821L374.405 302.182L375.128 302.043ZM409.124 295.488L415.819 330.207L417.266 329.928L410.571 295.209L409.124 295.488ZM416.403 329.344L381.683 336.039L381.962 337.486L416.682 330.791L416.403 329.344ZM382.546 336.623L375.851 301.903L374.405 302.182L381.1 336.902L382.546 336.623ZM375.198 302.405L409.917 295.71L409.778 294.986L375.058 301.681L375.198 302.405Z" fill="#1F2225" mask="url(#path-34-inside-8_1_9824)"/>
<path opacity="0.9" d="M396.992 323.876L389.7 325.281L389.031 321.81L392.808 304.048L396.975 303.245L400.141 319.667L401.947 319.319L402.616 322.791L400.811 323.139L401.661 327.549L397.842 328.285L396.992 323.876ZM396.322 320.404L394.494 310.925L394.425 310.939L392.503 321.14L396.322 320.404Z" fill="#1F2225"/>
<path d="M390.241 294.1C388.366 294.462 386.843 294.216 385.67 293.361C384.52 292.503 383.757 291.101 383.382 289.157L383.001 287.178L386.612 286.482L387.027 288.634C387.335 290.232 388.148 290.903 389.468 290.648C390.116 290.524 390.564 290.233 390.812 289.777C391.079 289.293 391.114 288.542 390.918 287.524L390.536 285.545C390.322 284.434 389.973 283.685 389.491 283.298C389.003 282.888 388.32 282.767 387.441 282.937L386.156 283.185L385.486 279.713L386.875 279.445C387.639 279.298 388.168 278.992 388.463 278.527C388.78 278.057 388.85 277.36 388.671 276.434L388.33 274.663C388.169 273.83 387.877 273.25 387.454 272.923C387.031 272.597 386.53 272.489 385.952 272.601C384.725 272.838 384.257 273.708 384.547 275.213L384.855 276.81L381.244 277.506L380.996 276.221C380.621 274.277 380.808 272.693 381.556 271.468C382.327 270.239 383.616 269.45 385.421 269.102C387.25 268.75 388.739 269.003 389.889 269.861C391.034 270.697 391.794 272.087 392.169 274.031L392.336 274.899C392.591 276.218 392.576 277.325 392.293 278.22C392.005 279.092 391.431 279.791 390.572 280.317L390.586 280.386C391.652 280.564 392.486 281.028 393.086 281.776C393.687 282.525 394.112 283.547 394.362 284.843L394.777 286.996C395.152 288.94 394.954 290.527 394.182 291.756C393.43 292.957 392.116 293.739 390.241 294.1Z" fill="#1F2225"/>
<mask id="path-38-inside-9_1_9824" fill="white">
<path d="M418.352 331.347L432.88 363.583L400.643 378.111L386.115 345.875L418.352 331.347Z"/>
</mask>
<path d="M418.352 331.347L432.88 363.583L400.643 378.111L386.115 345.875L418.352 331.347Z" fill="#FFF258"/>
<path d="M418.352 331.347L419.023 331.044L418.72 330.372L418.049 330.675L418.352 331.347ZM432.88 363.583L433.031 363.919L433.703 363.616L433.551 363.281L432.88 363.583ZM400.643 378.111L399.971 378.414L400.123 378.75L400.794 378.447L400.643 378.111ZM386.115 345.875L385.812 345.203L385.141 345.506L385.443 346.177L386.115 345.875ZM417.68 331.649L432.208 363.886L433.551 363.281L419.023 331.044L417.68 331.649ZM432.728 363.248L400.492 377.776L400.794 378.447L433.031 363.919L432.728 363.248ZM401.315 377.809L386.787 345.572L385.443 346.177L399.971 378.414L401.315 377.809ZM386.418 346.546L418.654 332.018L418.049 330.675L385.812 345.203L386.418 346.546Z" fill="#1F2225" mask="url(#path-38-inside-9_1_9824)"/>
<mask id="path-40-inside-10_1_9824" fill="white">
<path d="M432.879 363.583L447.407 395.82L415.17 410.348L400.642 378.112L432.879 363.583Z"/>
</mask>
<path d="M432.879 363.583L447.407 395.82L415.17 410.348L400.642 378.112L432.879 363.583Z" fill="#FFF258"/>
<path d="M432.879 363.583L433.551 363.281L433.399 362.945L432.728 363.248L432.879 363.583ZM447.407 395.82L447.71 396.492L448.381 396.189L448.079 395.517L447.407 395.82ZM415.17 410.348L414.499 410.651L414.801 411.323L415.473 411.02L415.17 410.348ZM400.642 378.112L400.491 377.776L399.819 378.078L399.971 378.414L400.642 378.112ZM432.207 363.886L446.735 396.123L448.079 395.517L433.551 363.281L432.207 363.886ZM447.104 395.149L414.868 409.677L415.473 411.02L447.71 396.492L447.104 395.149ZM415.842 410.046L401.314 377.809L399.971 378.414L414.499 410.651L415.842 410.046ZM400.794 378.447L433.03 363.919L432.728 363.248L400.491 377.776L400.794 378.447Z" fill="#1F2225" mask="url(#path-40-inside-10_1_9824)"/>
<path opacity="0.9" d="M428.24 399.044C426.499 399.828 424.944 399.934 423.574 399.362C422.204 398.79 421.113 397.601 420.299 395.796L415.04 384.127C413.277 380.215 414.201 377.446 417.812 375.819C419.531 375.044 421.065 374.947 422.413 375.529C423.751 376.09 424.832 377.283 425.656 379.11L425.844 379.529L422.492 381.04L422.201 380.395C421.533 378.912 420.586 378.447 419.361 378.999C418.695 379.299 418.293 379.726 418.154 380.28C418.016 380.833 418.179 381.626 418.644 382.657L420.591 386.977L420.655 386.948C420.688 385.356 421.467 384.216 422.993 383.529C424.282 382.948 425.459 382.948 426.522 383.528C427.585 384.109 428.495 385.238 429.25 386.914L431.066 390.944C431.88 392.749 432.047 394.354 431.569 395.759C431.09 397.164 429.981 398.259 428.24 399.044ZM426.787 395.82C428.012 395.268 428.295 394.261 427.637 392.8L425.835 388.802C425.167 387.32 424.22 386.854 422.995 387.406C421.77 387.958 421.492 388.976 422.16 390.459L423.962 394.456C424.62 395.917 425.562 396.372 426.787 395.82Z" fill="#1F2225"/>
<path d="M413.68 366.821C411.961 367.596 410.432 367.703 409.094 367.143C407.745 366.561 406.66 365.357 405.836 363.53L405.037 361.757L408.39 360.246L409.305 362.277C409.964 363.739 410.906 364.193 412.131 363.641C413.356 363.089 413.639 362.082 412.98 360.621L410.699 355.56C410.031 354.077 409.084 353.612 407.859 354.164C406.634 354.716 406.356 355.733 407.024 357.216L407.112 357.41L403.759 358.92L398.723 346.025L408.072 341.812L409.525 345.036L403.335 347.825L405.471 353.34L405.536 353.311C405.708 351.914 406.482 350.906 407.857 350.286C409.147 349.705 410.323 349.705 411.386 350.286C412.45 350.867 413.359 351.995 414.115 353.672L416.41 358.765C417.233 360.592 417.416 362.203 416.959 363.598C416.493 364.972 415.399 366.047 413.68 366.821Z" fill="#1F2225"/>
<mask id="path-44-inside-11_1_9824" fill="white">
<path d="M449.078 396.172L469.199 425.248L440.123 445.369L420.002 416.293L449.078 396.172Z"/>
</mask>
<path d="M449.078 396.172L469.199 425.248L440.123 445.369L420.002 416.293L449.078 396.172Z" fill="#FFF258"/>
<path d="M449.078 396.172L449.684 395.753L449.265 395.147L448.659 395.566L449.078 396.172ZM469.199 425.248L469.409 425.551L470.014 425.132L469.805 424.829L469.199 425.248ZM440.123 445.369L439.517 445.788L439.727 446.091L440.333 445.672L440.123 445.369ZM420.002 416.293L419.583 415.687L418.977 416.106L419.396 416.712L420.002 416.293ZM448.472 396.591L468.593 425.667L469.805 424.829L449.684 395.753L448.472 396.591ZM468.989 424.945L439.913 445.066L440.333 445.672L469.409 425.551L468.989 424.945ZM440.729 444.95L420.608 415.874L419.396 416.712L439.517 445.788L440.729 444.95ZM420.421 416.899L449.497 396.778L448.659 395.566L419.583 415.687L420.421 416.899Z" fill="#1F2225" mask="url(#path-44-inside-11_1_9824)"/>
<mask id="path-46-inside-12_1_9824" fill="white">
<path d="M469.199 425.248L489.32 454.324L460.244 474.445L440.123 445.369L469.199 425.248Z"/>
</mask>
<path d="M469.199 425.248L489.32 454.324L460.244 474.445L440.123 445.369L469.199 425.248Z" fill="#FFF258"/>
<path d="M469.199 425.248L469.805 424.829L469.595 424.526L468.99 424.945L469.199 425.248ZM489.32 454.324L489.739 454.93L490.345 454.511L489.926 453.905L489.32 454.324ZM460.244 474.445L459.638 474.864L460.058 475.47L460.663 475.051L460.244 474.445ZM440.123 445.369L439.914 445.066L439.308 445.485L439.517 445.788L440.123 445.369ZM468.593 425.667L488.714 454.743L489.926 453.905L469.805 424.829L468.593 425.667ZM488.901 453.718L459.825 473.839L460.663 475.051L489.739 454.93L488.901 453.718ZM460.85 474.026L440.729 444.95L439.517 445.788L459.638 474.864L460.85 474.026ZM440.333 445.672L469.409 425.551L468.99 424.945L439.914 445.066L440.333 445.672Z" fill="#1F2225" mask="url(#path-46-inside-12_1_9824)"/>
<path opacity="0.9" d="M470.964 461.023C469.355 462.136 467.819 462.568 466.357 462.319C464.9 462.037 463.609 461.082 462.482 459.454L461.234 457.651C460.537 456.643 460.118 455.686 459.978 454.779C459.825 453.853 459.982 452.942 460.451 452.044L460.41 451.986C459.477 452.087 458.624 451.932 457.852 451.521C457.086 451.076 456.354 450.35 455.657 449.342L455.073 448.499C453.946 446.87 453.505 445.341 453.748 443.912C453.997 442.449 454.907 441.175 456.477 440.088C458.047 439.002 459.551 438.606 460.988 438.902C462.431 439.164 463.716 440.11 464.843 441.738L465.426 442.581C466.767 444.52 467.034 446.313 466.226 447.962L466.266 448.02C467.271 447.898 468.179 448.072 468.992 448.542C469.791 448.992 470.539 449.721 471.237 450.729L472.484 452.532C473.611 454.16 474.04 455.712 473.771 457.188C473.509 458.631 472.573 459.91 470.964 461.023ZM462.413 448.666C463.537 447.888 463.629 446.82 462.691 445.463L461.584 443.864C460.645 442.507 459.613 442.218 458.489 442.996C457.365 443.774 457.272 444.841 458.211 446.198L459.318 447.797C460.257 449.154 461.288 449.444 462.413 448.666ZM468.952 458.115C470.154 457.284 470.225 456.102 469.165 454.571L467.817 452.623C466.757 451.091 465.626 450.742 464.425 451.573C463.223 452.405 463.152 453.586 464.211 455.118L465.56 457.066C466.619 458.597 467.75 458.947 468.952 458.115Z" fill="#1F2225"/>
<path d="M440.197 413.084L433.742 417.551L431.73 414.643L441.325 408.003L443.257 410.794L450.409 431.817L447.153 434.071L440.197 413.084Z" fill="#1F2225"/>
<mask id="path-50-inside-13_1_9824" fill="white">
<path d="M644.551 567.227L631.138 599.943L598.422 586.531L611.834 553.814L644.551 567.227Z"/>
</mask>
<path d="M644.551 567.227L631.138 599.943L598.422 586.531L611.834 553.814L644.551 567.227Z" fill="#FFF258"/>
<path d="M644.551 567.227L645.232 567.506L645.512 566.825L644.83 566.545L644.551 567.227ZM631.138 599.943L630.998 600.284L631.68 600.564L631.82 600.223L631.138 599.943ZM598.422 586.531L597.74 586.251L597.6 586.592L598.282 586.871L598.422 586.531ZM611.834 553.814L612.114 553.133L611.432 552.853L611.153 553.535L611.834 553.814ZM643.869 566.948L630.456 599.664L631.82 600.223L645.232 567.506L643.869 566.948ZM631.278 599.603L598.561 586.19L598.282 586.871L630.998 600.284L631.278 599.603ZM599.103 586.81L612.516 554.094L611.153 553.535L597.74 586.251L599.103 586.81ZM611.555 554.496L644.271 567.909L644.83 566.545L612.114 553.133L611.555 554.496Z" fill="#1F2225" mask="url(#path-50-inside-13_1_9824)"/>
<mask id="path-52-inside-14_1_9824" fill="white">
<path d="M631.137 599.943L617.724 632.66L585.007 619.247L598.42 586.531L631.137 599.943Z"/>
</mask>
<path d="M631.137 599.943L617.724 632.66L585.007 619.247L598.42 586.531L631.137 599.943Z" fill="#FFF258"/>
<path d="M631.137 599.943L631.818 600.223L631.958 599.882L631.276 599.603L631.137 599.943ZM617.724 632.66L617.444 633.341L618.126 633.621L618.405 632.939L617.724 632.66ZM585.007 619.247L584.326 618.967L584.046 619.649L584.728 619.929L585.007 619.247ZM598.42 586.531L598.56 586.19L597.878 585.91L597.739 586.251L598.42 586.531ZM630.455 599.664L617.042 632.38L618.405 632.939L631.818 600.223L630.455 599.664ZM618.003 631.978L585.287 618.565L584.728 619.929L617.444 633.341L618.003 631.978ZM585.689 619.526L599.102 586.81L597.739 586.251L584.326 618.967L585.689 619.526ZM598.281 586.871L630.997 600.284L631.276 599.603L598.56 586.19L598.281 586.871Z" fill="#1F2225" mask="url(#path-52-inside-14_1_9824)"/>
<path opacity="0.9" d="M602.688 600.37L598.926 598.828L599.972 596.276C600.997 596.696 601.851 596.944 602.533 597.02C603.237 597.105 603.855 597.027 604.387 596.787C604.928 596.524 605.496 596.069 606.093 595.422L608.514 596.415L599.125 619.316L595.526 617.841L602.688 600.37ZM611.31 619.459L604.44 616.642L605.781 613.37L618.668 600.578L622.594 602.188L616.25 617.662L617.951 618.36L616.61 621.631L614.909 620.934L613.205 625.089L609.607 623.614L611.31 619.459ZM612.651 616.187L616.313 607.255L616.248 607.229L609.053 614.712L612.651 616.187Z" fill="#1F2225"/>
<path d="M616.098 567.654L612.336 566.111L613.382 563.56C614.407 563.98 615.261 564.228 615.943 564.304C616.647 564.389 617.265 564.311 617.797 564.07C618.338 563.808 618.906 563.353 619.503 562.706L621.924 563.698L612.535 586.6L608.936 585.125L616.098 567.654ZM621.967 590.849C620.2 590.125 619.06 589.084 618.546 587.727C618.054 586.379 618.184 584.789 618.935 582.957L619.7 581.092L623.102 582.487L622.27 584.515C621.653 586.02 621.967 587.027 623.21 587.537C623.82 587.787 624.355 587.79 624.812 587.544C625.3 587.286 625.741 586.677 626.134 585.717L626.899 583.852C627.328 582.805 627.447 581.988 627.255 581.399C627.072 580.789 626.566 580.314 625.737 579.975L624.526 579.478L625.868 576.207L627.176 576.743C627.896 577.038 628.506 577.072 629.007 576.844C629.53 576.625 629.971 576.08 630.328 575.207L631.012 573.539C631.334 572.754 631.408 572.109 631.232 571.604C631.057 571.099 630.697 570.735 630.152 570.511C628.996 570.037 628.127 570.509 627.546 571.927L626.929 573.432L623.526 572.037L624.023 570.826C624.774 568.994 625.798 567.771 627.094 567.156C628.413 566.55 629.923 566.596 631.624 567.293C633.347 567.999 634.454 569.027 634.946 570.375C635.447 571.701 635.322 573.28 634.571 575.112L634.235 575.93C633.726 577.174 633.107 578.092 632.38 578.685C631.661 579.257 630.799 579.528 629.792 579.497L629.766 579.563C630.56 580.296 631.004 581.14 631.097 582.095C631.189 583.051 630.985 584.139 630.484 585.36L629.653 587.389C628.901 589.221 627.867 590.44 626.548 591.046C625.261 591.639 623.733 591.573 621.967 590.849Z" fill="#1F2225"/>
<mask id="path-56-inside-15_1_9824" fill="white">
<path d="M614.711 636.71L596.64 667.103L566.248 649.032L584.318 618.639L614.711 636.71Z"/>
</mask>
<path d="M614.711 636.71L596.64 667.103L566.248 649.032L584.318 618.639L614.711 636.71Z" fill="#FFF258"/>
<path d="M614.711 636.71L615.344 637.086L615.721 636.453L615.087 636.077L614.711 636.71ZM596.64 667.103L596.452 667.419L597.085 667.796L597.273 667.479L596.64 667.103ZM566.248 649.032L565.614 648.656L565.426 648.972L566.059 649.349L566.248 649.032ZM584.318 618.639L584.695 618.006L584.061 617.63L583.685 618.263L584.318 618.639ZM614.078 636.333L596.007 666.726L597.273 667.479L615.344 637.086L614.078 636.333ZM596.829 666.786L566.436 648.715L566.059 649.349L596.452 667.419L596.829 666.786ZM566.881 649.408L584.951 619.016L583.685 618.263L565.614 648.656L566.881 649.408ZM583.942 619.272L614.334 637.343L615.087 636.077L584.695 618.006L583.942 619.272Z" fill="#1F2225" mask="url(#path-56-inside-15_1_9824)"/>
<mask id="path-58-inside-16_1_9824" fill="white">
<path d="M596.641 667.103L578.57 697.495L548.177 679.425L566.248 649.032L596.641 667.103Z"/>
</mask>
<path d="M596.641 667.103L578.57 697.495L548.177 679.425L566.248 649.032L596.641 667.103Z" fill="#FFF258"/>
<path d="M596.641 667.103L597.274 667.479L597.462 667.162L596.829 666.786L596.641 667.103ZM578.57 697.495L578.193 698.128L578.827 698.505L579.203 697.872L578.57 697.495ZM548.177 679.425L547.544 679.048L547.168 679.681L547.801 680.058L548.177 679.425ZM566.248 649.032L566.436 648.715L565.803 648.339L565.615 648.655L566.248 649.032ZM596.007 666.726L577.937 697.119L579.203 697.872L597.274 667.479L596.007 666.726ZM578.946 696.862L548.554 678.791L547.801 680.058L578.193 698.128L578.946 696.862ZM548.81 679.801L566.881 649.408L565.615 648.655L547.544 679.048L548.81 679.801ZM566.06 649.348L596.452 667.419L596.829 666.786L566.436 648.715L566.06 649.348Z" fill="#1F2225" mask="url(#path-58-inside-16_1_9824)"/>
<path opacity="0.9" d="M568.434 663.348L564.939 661.27L566.348 658.9C567.301 659.466 568.109 659.837 568.772 660.012C569.456 660.199 570.079 660.213 570.64 660.053C571.214 659.873 571.843 659.506 572.528 658.954L574.777 660.291L562.128 681.566L558.784 679.578L568.434 663.348ZM571.016 687.262C569.375 686.286 568.395 685.073 568.078 683.623C567.761 682.173 568.109 680.597 569.121 678.895L575.662 667.893C577.855 664.205 580.653 663.373 584.057 665.397C585.678 666.361 586.637 667.562 586.934 669C587.243 670.418 586.885 671.988 585.861 673.71L585.626 674.105L582.465 672.226L582.827 671.618C583.658 670.22 583.496 669.177 582.341 668.491C581.713 668.117 581.133 668.033 580.6 668.237C580.067 668.441 579.511 669.03 578.933 670.002L576.512 674.075L576.572 674.111C577.895 673.224 579.275 673.209 580.714 674.064C581.93 674.787 582.605 675.75 582.739 676.955C582.873 678.159 582.47 679.551 581.531 681.131L579.272 684.931C578.26 686.633 577.041 687.691 575.616 688.105C574.19 688.519 572.657 688.238 571.016 687.262ZM572.823 684.223C573.978 684.909 574.965 684.564 575.784 683.186L578.025 679.417C578.856 678.019 578.694 676.977 577.539 676.29C576.384 675.603 575.391 675.959 574.56 677.357L572.319 681.126C571.5 682.504 571.668 683.536 572.823 684.223Z" fill="#1F2225"/>
<path d="M586.504 632.955L583.009 630.877L584.419 628.507C585.371 629.073 586.179 629.443 586.843 629.619C587.527 629.806 588.149 629.82 588.711 629.66C589.284 629.48 589.913 629.113 590.598 628.561L592.847 629.898L580.198 651.173L576.855 649.185L586.504 632.955ZM589.056 656.851C587.435 655.887 586.47 654.696 586.161 653.278C585.864 651.84 586.228 650.26 587.252 648.538L588.246 646.866L591.406 648.746L590.268 650.661C589.449 652.038 589.617 653.071 590.772 653.757C591.926 654.444 592.914 654.098 593.733 652.721L596.57 647.949C597.401 646.551 597.239 645.508 596.084 644.822C594.929 644.135 593.936 644.491 593.105 645.889L592.997 646.071L589.836 644.192L597.509 632.67L606.323 637.91L604.516 640.95L598.681 637.48L595.389 642.393L595.45 642.429C596.693 641.769 597.962 641.825 599.259 642.596C600.475 643.319 601.15 644.282 601.284 645.486C601.418 646.69 601.015 648.083 600.076 649.663L597.22 654.465C596.196 656.187 594.982 657.262 593.577 657.688C592.184 658.094 590.677 657.815 589.056 656.851Z" fill="#1F2225"/>
<mask id="path-62-inside-17_1_9824" fill="white">
<path d="M577.887 699.294L557.637 728.28L528.65 708.031L548.9 679.044L577.887 699.294Z"/>
</mask>
<path d="M577.887 699.294L557.637 728.28L528.65 708.031L548.9 679.044L577.887 699.294Z" fill="#FFF258"/>
<path d="M577.887 699.294L578.491 699.716L578.912 699.112L578.309 698.69L577.887 699.294ZM557.637 728.28L557.426 728.582L558.03 729.004L558.241 728.702L557.637 728.28ZM528.65 708.031L528.047 707.609L527.836 707.911L528.44 708.332L528.65 708.031ZM548.9 679.044L549.322 678.44L548.718 678.018L548.296 678.622L548.9 679.044ZM577.283 698.872L557.033 727.858L558.241 728.702L578.491 699.716L577.283 698.872ZM557.848 727.978L528.861 707.729L528.44 708.332L557.426 728.582L557.848 727.978ZM529.254 708.452L549.504 679.466L548.296 678.622L528.047 707.609L529.254 708.452ZM548.478 679.648L577.465 699.898L578.309 698.69L549.322 678.44L548.478 679.648Z" fill="#1F2225" mask="url(#path-62-inside-17_1_9824)"/>
<mask id="path-64-inside-18_1_9824" fill="white">
<path d="M557.637 728.28L537.387 757.267L508.4 737.017L528.65 708.03L557.637 728.28Z"/>
</mask>
<path d="M557.637 728.28L537.387 757.267L508.4 737.017L528.65 708.03L557.637 728.28Z" fill="#FFF258"/>
<path d="M557.637 728.28L558.241 728.702L558.452 728.4L557.848 727.978L557.637 728.28ZM537.387 757.267L536.965 757.871L537.569 758.292L537.991 757.689L537.387 757.267ZM508.4 737.017L507.797 736.595L507.375 737.199L507.979 737.621L508.4 737.017ZM528.65 708.03L528.861 707.728L528.257 707.307L528.046 707.609L528.65 708.03ZM557.033 727.858L536.783 756.845L537.991 757.689L558.241 728.702L557.033 727.858ZM537.809 756.663L508.822 736.413L507.979 737.621L536.965 757.871L537.809 756.663ZM509.004 737.439L529.254 708.452L528.046 707.609L507.797 736.595L509.004 737.439ZM528.439 708.332L557.426 728.582L557.848 727.978L528.861 707.728L528.439 708.332Z" fill="#1F2225" mask="url(#path-64-inside-18_1_9824)"/>
<path opacity="0.9" d="M529.785 722.469L526.451 720.14L528.031 717.879C528.939 718.513 529.718 718.942 530.367 719.166C531.035 719.403 531.655 719.462 532.227 719.344C532.812 719.206 533.466 718.887 534.19 718.386L536.335 719.884L522.16 740.175L518.971 737.947L529.785 722.469ZM530.52 746.446C528.916 745.326 527.976 744.037 527.7 742.579C527.458 741.115 527.903 739.572 529.037 737.949L530.293 736.151C530.995 735.147 531.746 734.421 532.547 733.974C533.362 733.508 534.271 733.338 535.275 733.464L535.316 733.406C534.896 732.567 534.745 731.713 534.862 730.846C535.011 729.973 535.437 729.034 536.139 728.029L536.727 727.189C537.861 725.565 539.14 724.619 540.565 724.349C542.023 724.074 543.534 724.483 545.1 725.576C546.665 726.67 547.559 727.941 547.783 729.391C548.039 730.836 547.6 732.369 546.466 733.993L545.879 734.833C544.529 736.766 542.94 737.64 541.113 737.456L541.073 737.514C541.537 738.414 541.69 739.326 541.533 740.251C541.389 741.157 540.966 742.113 540.264 743.117L539.009 744.915C537.875 746.538 536.569 747.48 535.092 747.743C533.648 747.999 532.124 747.567 530.52 746.446ZM539.126 734.127C540.247 734.91 541.28 734.625 542.225 733.272L543.338 731.678C544.283 730.326 544.195 729.258 543.075 728.475C541.954 727.692 540.921 727.977 539.976 729.329L538.862 730.923C537.917 732.276 538.005 733.344 539.126 734.127ZM532.545 743.548C533.743 744.385 534.875 744.04 535.942 742.513L537.298 740.571C538.365 739.044 538.299 737.863 537.101 737.026C535.903 736.189 534.77 736.533 533.704 738.06L532.347 740.002C531.281 741.529 531.347 742.711 532.545 743.548Z" fill="#1F2225"/>
<path d="M550.035 693.482L546.701 691.153L548.281 688.893C549.189 689.527 549.968 689.956 550.617 690.179C551.285 690.416 551.905 690.476 552.477 690.357C553.062 690.22 553.716 689.9 554.44 689.399L556.585 690.898L542.41 711.188L539.221 708.961L550.035 693.482ZM564.745 700.912L558.31 696.417L560.335 693.518L569.901 700.201L567.957 702.983L550.74 717.008L547.494 714.74L564.745 700.912Z" fill="#1F2225"/>
<mask id="path-68-inside-19_1_9824" fill="white">
<path d="M503.055 463.82L538.412 463.44L538.792 498.797L503.435 499.177L503.055 463.82Z"/>
</mask>
<path d="M503.055 463.82L538.412 463.44L538.792 498.797L503.435 499.177L503.055 463.82Z" fill="#FFF258"/>
<path d="M503.055 463.82L503.047 463.083L502.31 463.091L502.318 463.828L503.055 463.82ZM538.412 463.44L538.78 463.436L538.772 462.699L538.404 462.703L538.412 463.44ZM538.792 498.797L538.8 499.534L539.168 499.53L539.16 498.793L538.792 498.797ZM503.435 499.177L502.698 499.185L502.706 499.921L503.443 499.914L503.435 499.177ZM503.063 464.556L538.42 464.176L538.404 462.703L503.047 463.083L503.063 464.556ZM538.043 463.444L538.423 498.801L539.16 498.793L538.78 463.436L538.043 463.444ZM538.784 498.06L503.427 498.44L503.443 499.914L538.8 499.534L538.784 498.06ZM504.171 499.169L503.791 463.812L502.318 463.828L502.698 499.185L504.171 499.169Z" fill="#1F2225" mask="url(#path-68-inside-19_1_9824)"/>
<mask id="path-70-inside-20_1_9824" fill="white">
<path d="M538.41 463.44L573.767 463.06L574.147 498.417L538.79 498.797L538.41 463.44Z"/>
</mask>
<path d="M538.41 463.44L573.767 463.06L574.147 498.417L538.79 498.797L538.41 463.44Z" fill="#FFF258"/>
<path d="M538.41 463.44L538.402 462.703L538.034 462.707L538.042 463.444L538.41 463.44ZM573.767 463.06L574.504 463.052L574.496 462.315L573.759 462.323L573.767 463.06ZM574.147 498.417L574.155 499.154L574.892 499.146L574.884 498.409L574.147 498.417ZM538.79 498.797L538.422 498.801L538.43 499.538L538.798 499.534L538.79 498.797ZM538.418 464.177L573.775 463.797L573.759 462.323L538.402 462.703L538.418 464.177ZM573.031 463.068L573.411 498.425L574.884 498.409L574.504 463.052L573.031 463.068ZM574.139 497.68L538.782 498.06L538.798 499.534L574.155 499.154L574.139 497.68ZM539.158 498.793L538.778 463.436L538.042 463.444L538.422 498.801L539.158 498.793Z" fill="#1F2225" mask="url(#path-70-inside-20_1_9824)"/>
<path d="M520.288 493.314C518.402 493.334 516.958 492.82 515.957 491.769C514.955 490.696 514.444 489.157 514.422 487.154L514.417 486.694L518.095 486.654L518.102 487.362C518.12 488.988 518.8 489.794 520.144 489.78C520.874 489.772 521.414 489.542 521.763 489.09C522.112 488.639 522.28 487.847 522.268 486.716L522.217 481.978L522.146 481.979C521.478 483.424 520.307 484.155 518.634 484.173C517.219 484.189 516.142 483.717 515.401 482.758C514.659 481.8 514.279 480.401 514.259 478.563L514.212 474.143C514.19 472.163 514.681 470.625 515.683 469.53C516.685 468.435 518.14 467.877 520.05 467.857C521.959 467.836 523.426 468.363 524.451 469.436C525.477 470.509 526 472.036 526.021 474.016L526.159 486.815C526.205 491.105 524.248 493.272 520.288 493.314ZM520.187 480.621C521.53 480.606 522.193 479.786 522.176 478.159L522.129 473.775C522.111 472.172 521.431 471.378 520.088 471.392C518.744 471.407 518.081 472.215 518.098 473.818L518.145 478.203C518.163 479.829 518.843 480.635 520.187 480.621Z" fill="#1F2225"/>
<path d="M547.666 474.911L543.6 474.954L543.57 472.197C544.678 472.185 545.561 472.081 546.219 471.885C546.901 471.689 547.44 471.377 547.836 470.948C548.232 470.496 548.578 469.856 548.876 469.028L551.492 469L551.758 493.75L547.869 493.791L547.666 474.911ZM562.206 493.991C560.297 494.011 558.83 493.485 557.805 492.412C556.779 491.338 556.256 489.812 556.235 487.832L556.095 474.82C556.074 472.84 556.564 471.303 557.566 470.207C558.568 469.112 560.023 468.554 561.933 468.534C563.842 468.513 565.309 469.04 566.334 470.113C567.36 471.187 567.883 472.713 567.904 474.693L568.044 487.705C568.065 489.685 567.575 491.222 566.573 492.317C565.571 493.413 564.116 493.97 562.206 493.991ZM562.168 490.455C563.512 490.441 564.175 489.62 564.157 487.994L564.012 474.488C563.995 472.861 563.314 472.055 561.971 472.07C560.627 472.084 559.964 472.904 559.982 474.531L560.127 488.037C560.144 489.664 560.825 490.47 562.168 490.455Z" fill="#1F2225"/>
<mask id="path-74-inside-21_1_9824" fill="white">
<path d="M636.578 519.02L663.952 496.638L686.334 524.012L658.96 546.394L636.578 519.02Z"/>
</mask>
<path d="M636.578 519.02L663.952 496.638L686.334 524.012L658.96 546.394L636.578 519.02Z" fill="#FFF258"/>
<path d="M636.578 519.02L636.112 518.449L635.542 518.916L636.008 519.486L636.578 519.02ZM663.952 496.638L664.237 496.405L663.771 495.835L663.486 496.068L663.952 496.638ZM686.334 524.012L686.8 524.582L687.085 524.349L686.619 523.779L686.334 524.012ZM658.96 546.394L658.389 546.86L658.856 547.43L659.426 546.964L658.96 546.394ZM637.044 519.59L664.418 497.208L663.486 496.068L636.112 518.449L637.044 519.59ZM663.667 496.871L686.048 524.245L686.619 523.779L664.237 496.405L663.667 496.871ZM685.867 523.442L658.493 545.823L659.426 546.964L686.8 524.582L685.867 523.442ZM659.53 545.927L637.148 518.553L636.008 519.486L658.389 546.86L659.53 545.927Z" fill="#1F2225" mask="url(#path-74-inside-21_1_9824)"/>
<mask id="path-76-inside-22_1_9824" fill="white">
<path d="M663.953 496.638L691.327 474.257L713.709 501.631L686.335 524.012L663.953 496.638Z"/>
</mask>
<path d="M663.953 496.638L691.327 474.257L713.709 501.631L686.335 524.012L663.953 496.638Z" fill="#FFF258"/>
<path d="M663.953 496.638L663.487 496.068L663.202 496.301L663.668 496.871L663.953 496.638ZM691.327 474.257L691.897 473.79L691.431 473.22L690.861 473.686L691.327 474.257ZM713.709 501.631L714.175 502.201L714.745 501.735L714.279 501.164L713.709 501.631ZM686.335 524.012L686.049 524.245L686.516 524.816L686.801 524.582L686.335 524.012ZM664.419 497.208L691.793 474.827L690.861 473.686L663.487 496.068L664.419 497.208ZM690.757 474.723L713.138 502.097L714.279 501.164L691.897 473.79L690.757 474.723ZM713.242 501.06L685.868 523.442L686.801 524.582L714.175 502.201L713.242 501.06ZM686.62 523.779L664.238 496.405L663.668 496.871L686.049 524.245L686.62 523.779Z" fill="#1F2225" mask="url(#path-76-inside-22_1_9824)"/>
<path d="M650.777 520.9L647.629 523.474L645.883 521.339C646.741 520.637 647.365 520.005 647.757 519.441C648.167 518.862 648.392 518.282 648.434 517.7C648.461 517.099 648.332 516.383 648.047 515.55L650.072 513.894L665.739 533.056L662.728 535.518L650.777 520.9ZM667.717 527.967C666.598 526.599 665.862 525.252 665.509 523.926C665.142 522.583 665.039 520.855 665.2 518.744C665.344 516.648 665.282 515.008 665.015 513.826C664.767 512.628 664.27 511.573 663.524 510.66C662.852 509.839 662.253 509.385 661.725 509.299C661.201 509.179 660.684 509.328 660.173 509.746C659.133 510.597 659.127 511.652 660.157 512.911L661.835 514.964L658.988 517.292L657.467 515.43C656.198 513.879 655.612 512.379 655.707 510.931C655.787 509.465 656.557 508.135 658.017 506.942C659.477 505.748 660.933 505.258 662.386 505.47C663.824 505.665 665.177 506.538 666.445 508.089C667.4 509.257 668.05 510.629 668.394 512.205C668.757 513.765 668.843 515.826 668.653 518.387C668.535 520.067 668.567 521.335 668.749 522.191C668.916 523.029 669.276 523.785 669.828 524.46L670.164 524.871L675.885 520.193L678.123 522.931L669.418 530.048L667.717 527.967Z" fill="#1F2225"/>
<path d="M678.347 499.815L675.199 502.388L673.453 500.253C674.311 499.552 674.936 498.919 675.327 498.356C675.737 497.777 675.963 497.196 676.004 496.614C676.031 496.014 675.902 495.297 675.617 494.465L677.643 492.808L693.31 511.97L690.299 514.432L678.347 499.815ZM689.307 490.853L686.159 493.427L684.413 491.292C685.271 490.591 685.896 489.958 686.287 489.394C686.697 488.816 686.923 488.235 686.965 487.653C686.991 487.053 686.862 486.336 686.577 485.503L688.603 483.847L704.27 503.009L701.259 505.471L689.307 490.853Z" fill="#1F2225"/>
</g>
</g>
<defs>
<clipPath id="clip0_1_9824">
<rect width="800" height="800" fill="white"/>
</clipPath>
<clipPath id="clip1_1_9824">
<rect width="8399.26" height="9134.32" fill="white" transform="translate(-2802.21 -6366.11)"/>
</clipPath>
</defs>
</svg>
