<svg width="800" height="800" viewBox="0 0 800 800" fill="none" xmlns="http://www.w3.org/2000/svg">
<g clip-path="url(#clip0_1_10984)">
<g clip-path="url(#clip1_1_10984)">
<rect width="9307.75" height="10122.3" transform="translate(-4501.22 -6669.39)" fill="white"/>
<path d="M-978.6 -1061.54C-987.829 -1064.76 -996.756 -1068.7 -1005.68 -1072.71C-1011.15 -1075.2 -1016.67 -1077.87 -1022.62 -1079.03C-1034.95 -1081.4 -1045.09 -1074.41 -1053.04 -1065.67C-1064.88 -1052.67 -1071.02 -1035.61 -1074.9 -1018.79C-1079.58 -998.451 -1081.95 -977.503 -1084.68 -956.858C-1096.82 -863.834 -1101.44 -769.9 -1100.16 -676.148C-1097.55 -487.975 -1071.5 -300.957 -1036.71 -116.307C-1019.16 -23.1011 -999.306 69.6189 -978.904 162.278C-973.803 185.352 -968.703 208.426 -963.542 231.439C-959.473 249.655 -956.741 269.996 -946.479 286.026C-923.952 321.001 -878.837 305.153 -847.323 294.223C-805.183 279.529 -764.622 260.766 -724.061 242.429C-683.499 224.091 -641.117 206.179 -598.491 190.756C-515.426 160.76 -429.871 137.929 -343.344 120.503C-169.32 85.4061 8.22644 72.0475 185.287 64.1539C229.309 62.2108 273.574 62.09 317.536 58.6897C354.454 55.8358 393.557 44.9058 413.049 10.5381C421.307 -4.03479 424.1 -21.0972 419.424 -37.2488C414.324 -54.6754 402.058 -68.884 389.246 -81.271C360.101 -109.384 328.769 -136.83 295.008 -159.236C258.88 -183.22 219.655 -197.369 176.725 -203.137C131.064 -209.209 84.6128 -210.362 38.6475 -213.216C-6.10339 -216.009 -51.0365 -218.074 -95.7266 -221.778C-129.912 -224.571 -164.28 -229.307 -196.887 -240.298C-229.494 -251.288 -258.154 -268.351 -277.584 -295.736C-302.844 -331.257 -306.001 -376.554 -309.523 -418.633C-313.53 -466.299 -315.23 -514.207 -314.684 -561.994C-314.138 -609.417 -312.134 -657.264 -305.576 -704.322C-302.419 -726.971 -297.986 -749.437 -291.61 -771.418C-285.781 -791.334 -278.373 -810.765 -271.208 -830.256C-257.729 -866.931 -243.277 -905.489 -243.945 -945.2C-244.249 -963.051 -248.135 -980.66 -256.15 -996.63C-263.376 -1010.96 -274.366 -1024.86 -291.368 -1026.81C-306.548 -1028.51 -320.271 -1019.52 -331.2 -1009.99C-345.105 -997.844 -355.913 -982.907 -368.604 -969.609C-428.292 -907.006 -521.862 -903.91 -601.223 -920.365C-689.085 -938.642 -774.762 -971.188 -857.038 -1006.35C-897.66 -1023.71 -937.796 -1042.23 -977.75 -1061.11C-981.94 -1063.12 -985.643 -1056.8 -981.454 -1054.8C-902.639 -1017.58 -823.035 -981.814 -740.698 -953.154C-698.437 -938.46 -655.386 -924.859 -611.667 -915.083C-570.256 -905.853 -527.387 -900.752 -485.126 -906.46C-449.544 -911.257 -414.387 -923.583 -385.423 -945.139C-371.336 -955.644 -359.982 -968.273 -348.566 -981.45C-337.151 -994.626 -325.31 -1008.65 -309.584 -1016.06C-267.262 -1036.04 -250.867 -969.67 -251.292 -940.342C-251.899 -900.327 -267.322 -861.77 -280.984 -824.731C-295.8 -784.655 -307.519 -744.762 -313.166 -702.318C-319.238 -656.839 -321.363 -610.691 -321.971 -564.848C-322.578 -519.004 -321.06 -471.156 -317.356 -424.462C-314.198 -384.812 -311.83 -342.307 -292.886 -306.422C-261.918 -247.766 -194.215 -226.817 -132.766 -218.377C-94.816 -213.155 -56.3801 -211.698 -18.187 -209.33C28.507 -206.415 75.2616 -203.562 121.956 -200.587C166.281 -197.793 211.154 -193.847 252.018 -174.963C289.24 -157.779 321.483 -131.851 352.086 -104.891C378.62 -81.5139 421.914 -51.2148 413.474 -10.3501C404.609 32.5184 358.583 48.1239 320.208 51.4027C277.278 55.1067 233.863 54.9247 190.873 56.807C147.337 58.6893 103.8 60.936 60.2639 63.7291C-25.1089 69.2548 -110.421 76.9052 -195.186 88.5028C-366.175 111.88 -535.585 151.895 -694.065 221.237C-734.383 238.907 -774.033 258.034 -814.837 274.428C-835.3 282.626 -856.127 290.58 -877.44 296.348C-895.838 301.327 -918.487 304.485 -933.667 290.215C-948.847 275.946 -950.972 253.784 -955.101 235.386C-960.02 213.283 -964.938 191.181 -969.856 169.14C-979.875 123.842 -989.772 78.5447 -999.305 33.1259C-1037.38 -147.821 -1070.47 -330.346 -1085.1 -514.814C-1092.33 -606.38 -1095 -698.371 -1091.36 -790.12C-1089.54 -836.024 -1086.07 -881.868 -1080.91 -927.469C-1078.3 -950.3 -1075.33 -973.131 -1071.74 -995.84C-1068.83 -1014.48 -1065.19 -1033.85 -1055.29 -1050.25C-1048.73 -1061.18 -1037.44 -1074.66 -1023.23 -1071.56C-1017.16 -1070.22 -1011.45 -1067.19 -1005.86 -1064.64C-997.545 -1060.87 -989.165 -1057.29 -980.604 -1054.31C-976.171 -1052.8 -974.289 -1059.78 -978.661 -1061.36L-978.6 -1061.54Z" fill="#9B9B9B"/>
<path d="M-1608.21 -1612.21C-1694.92 -1528.54 -1779.56 -1442.8 -1864.69 -1357.55C-1906.34 -1315.84 -1948.12 -1274.3 -1990.38 -1233.2C-2028.27 -1196.34 -2067.98 -1160.88 -2097.37 -1116.49C-2098.22 -1115.28 -2097.98 -1113.09 -2096.82 -1112.06C-2078.73 -1096.88 -2060.63 -1081.64 -2042.54 -1066.46C-2036.1 -1061.06 -2020.68 -1052.31 -2019.71 -1043.99C-2018.74 -1035.67 -2033.25 -1021.59 -2038.47 -1014.66C-2046.3 -1004.22 -2048.43 -998.453 -2061.06 -1004.28C-2069.98 -1008.41 -2078.49 -1015.15 -2086.5 -1020.74C-2107.08 -1035.01 -2126.27 -1051.1 -2144.37 -1068.4C-2145.82 -1069.8 -2148.01 -1069.74 -2149.53 -1068.4C-2313.59 -923.463 -2471.65 -771.844 -2623.33 -613.911C-2625.76 -611.36 -2623.33 -606.685 -2619.81 -607.839L-2617.07 -608.689L-2620.6 -614.761C-2695.71 -534.124 -2770.76 -453.427 -2845.87 -372.79C-2847.14 -371.455 -2847.45 -368.965 -2845.87 -367.629C-2766.87 -301.687 -2692.97 -229.794 -2625.27 -152.315C-2590.42 -112.421 -2557.45 -71.0709 -2525.75 -28.6882C-2499.58 6.28674 -2473.59 41.686 -2443.23 73.2C-2389.07 129.427 -2318.15 173.389 -2238.18 148.068C-2200.59 136.167 -2167.02 112.486 -2140.72 83.4012C-2136.41 78.665 -2117.1 54.1343 -2106.84 62.3922C-2101.38 66.8248 -2109.33 81.0936 -2111.46 85.4048C-2143.4 149.829 -2214.56 207.574 -2282.32 229.069C-2285.12 229.98 -2286.15 234.23 -2283.17 235.748C-2238.97 258.276 -2224.76 312.499 -2233.87 358.525C-2244.25 410.865 -2283.05 452.398 -2319.91 488.466C-2405.4 572.078 -2492.66 653.99 -2579.06 736.691C-2651.26 805.791 -2747.87 876.894 -2763.05 982.669C-2771 1037.74 -2761.53 1094.21 -2755.64 1149.04C-2749.26 1208.43 -2742.89 1267.75 -2736.45 1327.14C-2723.09 1451.49 -2709.67 1575.91 -2696.31 1700.26C-2693.7 1724.61 -2692.06 1749.26 -2688.24 1773.43C-2685.08 1793.35 -2678.58 1812.72 -2660.19 1823.34C-2645.13 1832.09 -2626.79 1832.63 -2609.91 1833.18C-2578.7 1834.27 -2547.43 1834.76 -2516.22 1835.55C-2391.32 1838.76 -2266.35 1841.92 -2141.45 1845.14C-2078.97 1846.72 -2016.55 1848.36 -1954.07 1849.94C-1925.65 1850.67 -1897.3 1851.39 -1868.88 1852.12L-1826.31 1853.22C-1820.48 1853.34 -1805.85 1851.21 -1800.75 1853.88C-1789.88 1859.53 -1791.58 1871.01 -1791.52 1881.82C-1791.46 1893.66 -1792.43 1922.07 -1801.96 1931.3C-1811.5 1940.53 -1833.11 1934.22 -1844.35 1933.67C-1875.44 1932.09 -1906.46 1930.57 -1937.55 1928.99C-1999.67 1925.9 -2061.85 1922.8 -2123.96 1919.7C-2246.8 1913.57 -2369.7 1907.44 -2492.54 1901.31C-2531.03 1899.36 -2576.88 1894.38 -2610.88 1916.97C-2648.71 1942.11 -2645.37 1992.45 -2647.98 2032.46C-2651.99 2093.55 -2656 2154.63 -2659.94 2215.78C-2663.34 2267.94 -2674.88 2327.08 -2660.67 2378.39C-2640.21 2452.46 -2562.91 2478.39 -2493.99 2485.44C-2445.48 2490.41 -2396.54 2487.14 -2347.9 2485.68C-2287 2483.86 -2226.1 2481.97 -2165.19 2480.09C-1919.4 2472.5 -1673.6 2465.88 -1427.81 2458.42C-1324.16 2455.26 -1220.87 2445.48 -1117.34 2441.41C-1027.54 2437.89 -933.118 2435.95 -846.045 2461.69C-809.431 2472.5 -774.82 2489.08 -746.221 2514.64C-713.007 2544.33 -675.057 2554.78 -630.609 2550.22C-581.851 2545.25 -532.971 2529.28 -486.702 2513.55C-443.287 2498.79 -400.783 2481.37 -359.372 2461.57C-186.441 2378.75 -34.2146 2253.42 80.304 2099.62C139.81 2019.71 184.439 1925.96 259.429 1858.62C340.126 1786.12 453.794 1762.07 551.19 1719.57C921.948 1557.69 1241.52 1269.63 1380.93 883.209C1448.82 695.097 1478.45 477.416 1430.72 280.864C1409.05 191.423 1364.72 110.422 1290.95 53.8304C1218.81 -1.54639 1129.85 -30.0847 1042.05 -49.1509C998.152 -58.684 953.704 -65.9705 909.318 -72.6497C860.499 -79.9968 810.89 -86.3724 761.464 -82.4863C715.377 -78.843 670.384 -65.3636 633.526 -36.6429C596.669 -7.92224 568.738 33.6711 533.277 65.7922C456.041 135.924 347.959 149.283 248.135 156.205C136.045 163.977 24.5017 172.235 -86.7986 187.961C-317.961 220.629 -545.905 275.945 -766.259 353C-813.256 369.455 -863.715 383.906 -907.251 408.559C-943.319 428.961 -965.118 459.199 -970.765 500.55C-976.715 544.45 -973.254 591.509 -969.064 635.41C-965.239 676.153 -958.438 716.957 -945.808 756C-924.313 822.367 -884.481 881.509 -817.871 908.104L-819.449 902.032C-832.99 919.52 -846.531 937.007 -860.011 954.495C-864.504 960.324 -873.794 978.176 -880.291 980.726C-890.917 984.855 -903.304 970.525 -911.502 963.663C-941.376 938.525 -967.364 908.893 -988.677 876.165C-1031.24 810.83 -1053.71 735.234 -1055.17 657.451C-1055.96 615.858 -1055.41 544.208 -1101.07 523.502C-1128.82 510.933 -1157.3 527.266 -1182.01 539.228C-1223.79 559.327 -1265.2 580.154 -1306.18 601.771C-1347.17 623.387 -1387.85 645.732 -1428.05 668.867C-1446.99 679.736 -1465.82 690.786 -1484.58 701.959C-1493.75 707.424 -1502.92 714.528 -1512.63 718.9C-1518.64 721.633 -1519.49 724.79 -1525.32 721.328C-1528.42 719.446 -1534.8 702.384 -1536.43 699.044C-1541.17 689.511 -1547.91 679.492 -1551.25 669.352C-1555.99 655.144 -1550.46 654.051 -1538.01 646.886C-1517.31 634.985 -1496.54 623.144 -1475.84 611.243C-1434.36 587.501 -1392.89 563.698 -1351.42 539.957C-1309.95 516.215 -1268.48 492.413 -1227 468.671C-1194.46 450.03 -1158.88 433.028 -1130.7 407.89C-1069.25 352.999 -1089.9 263.255 -1095.97 190.634C-1113.58 -19.4587 -1140.36 -228.762 -1175.88 -436.608C-1176.3 -439.036 -1179.34 -439.826 -1181.22 -438.793C-1193.24 -432.296 -1205.27 -425.739 -1217.35 -419.242C-1225.06 -415.052 -1243.7 -400.479 -1251.9 -406.126C-1253.9 -407.522 -1257.36 -418.513 -1258.76 -421.61C-1262.16 -429.382 -1265.62 -437.093 -1269.02 -444.865C-1272.79 -453.366 -1286.51 -472.736 -1282.5 -481.601C-1280.86 -485.245 -1267.93 -492.773 -1264.47 -496.234C-1259 -501.699 -1254.15 -507.772 -1249.83 -514.087C-1239.88 -528.599 -1232.95 -545.054 -1227.55 -561.691C-1214.5 -602.192 -1211.1 -645.364 -1205.81 -687.322C-1198.71 -743.913 -1191.6 -800.504 -1184.5 -857.096C-1177.4 -913.687 -1170.17 -969.853 -1163.31 -1026.26C-1157.24 -1075.81 -1152.32 -1127.79 -1169.99 -1175.63C-1185.11 -1216.62 -1214.13 -1250.56 -1242.18 -1283.29C-1275.16 -1321.79 -1309.52 -1359.01 -1345.23 -1394.96C-1423.86 -1474.07 -1508.93 -1546.45 -1599.28 -1611.85C-1603.11 -1614.58 -1606.75 -1608.27 -1602.98 -1605.53C-1466.24 -1506.56 -1341.04 -1390.89 -1233.02 -1261.13C-1204.11 -1226.4 -1177.58 -1189.36 -1168.89 -1144.06C-1160.15 -1098.4 -1167.5 -1051.16 -1173.21 -1005.62C-1184.93 -912.229 -1196.64 -818.842 -1208.36 -725.514C-1218.02 -648.703 -1215.53 -530.906 -1291.12 -484.88C-1292.95 -483.787 -1293.25 -481.723 -1292.46 -479.901C-1279.95 -451.484 -1267.38 -423.067 -1254.87 -394.589C-1254.09 -392.767 -1251.47 -392.403 -1249.9 -393.253C-1225.85 -406.308 -1201.74 -419.363 -1177.7 -432.357L-1183.04 -434.543C-1152.86 -257.786 -1128.94 -79.9972 -1111.76 98.4597C-1107.45 143.15 -1103.56 187.901 -1100.04 232.712C-1097 271.634 -1090.08 314.563 -1102.1 352.513C-1115.22 393.864 -1152.2 417.241 -1187.72 437.765C-1225.18 459.381 -1262.83 480.816 -1300.35 502.311C-1388.16 552.648 -1476.02 602.985 -1563.82 653.322C-1565.58 654.354 -1566.01 656.541 -1565.16 658.302C-1552.83 683.075 -1540.44 707.788 -1528.12 732.562C-1527.27 734.323 -1524.72 734.869 -1523.14 733.898C-1456.83 693.215 -1389.43 654.415 -1320.82 617.801C-1287.12 599.827 -1253.17 582.34 -1218.99 565.399C-1201.87 556.959 -1184.74 548.58 -1167.5 540.382C-1149.1 531.639 -1128.21 521.498 -1107.63 528.906C-1056.93 547.244 -1064.21 631.038 -1062.27 673.299C-1059.6 732.319 -1043.57 790.428 -1016.61 842.951C-985.702 903.125 -940.587 954.798 -884.845 993.113C-883.692 993.902 -881.384 993.72 -880.413 992.566C-858.432 964.149 -836.451 935.732 -814.47 907.315C-812.709 905.007 -813.377 902.336 -816.049 901.243C-944.715 849.873 -963.903 683.318 -965.725 563.092C-966.332 522.227 -967.972 475.958 -939.554 443.108C-913.445 412.87 -872.64 399.754 -836.451 386.213C-752.171 354.7 -666.738 326.404 -580.333 301.327C-408.069 251.354 -231.92 214.375 -54.0701 190.937C32.7598 179.461 120.015 171.506 207.452 166.224C280.499 161.791 355.185 157.723 425.256 134.831C457.863 124.144 489.194 109.268 516.822 88.8054C544.45 68.3427 568.191 40.411 591.872 14.0583C619.743 -16.9089 649.86 -44.7183 689.389 -59.7162C728.918 -74.7141 769.358 -77.3252 810.04 -75.8073C884.666 -73.014 960.627 -58.745 1033.61 -43.322C1103.32 -28.567 1173.03 -8.34705 1235.57 26.5671C1301.33 63.303 1355.07 116.372 1388.52 184.197C1425.56 259.247 1438.8 344.195 1443.29 427.017C1452.16 588.533 1423.5 750.778 1366.18 901.729C1251.72 1203.08 1024.26 1446.03 749.624 1609.73C683.499 1649.13 614.703 1684.17 544.085 1714.89C469.885 1747.14 389.977 1768.75 318.995 1807.8C254.146 1843.44 207.209 1899 166.102 1959.35C122.565 2023.29 82.5503 2088.81 32.6382 2148.26C-64.0891 2263.62 -182.919 2360.17 -315.593 2431.33C-381.899 2466.92 -451.606 2496.06 -523.62 2517.98C-562.967 2529.94 -604.803 2543.18 -646.154 2544.21C-667.163 2544.76 -689.205 2542.03 -708.453 2533.16C-725.394 2525.39 -737.599 2511.97 -751.928 2500.62C-846.652 2425.38 -989.77 2430 -1103.68 2433.88C-1181.89 2436.56 -1259.98 2442.87 -1338.12 2447.3C-1426.77 2452.34 -1515.61 2453.68 -1604.38 2456.11C-1792.8 2461.39 -1981.21 2467.34 -2169.63 2473.11C-2258.95 2475.84 -2348.57 2480.88 -2437.95 2480.94C-2499.03 2480.94 -2572.38 2475.36 -2619.87 2432.12C-2650.41 2404.25 -2659.76 2365.39 -2659.34 2325.19C-2658.85 2280.5 -2654.11 2235.57 -2651.2 2190.94C-2648.1 2143.76 -2645.01 2096.52 -2641.97 2049.34C-2639.24 2007.63 -2645.79 1947.45 -2605.05 1922.07C-2573.66 1902.52 -2532.13 1906.83 -2496.97 1908.59C-2450.4 1910.9 -2403.76 1913.27 -2357.19 1915.58C-2263.99 1920.25 -2170.78 1924.87 -2077.57 1929.54C-1984.37 1934.22 -1894.02 1938.71 -1802.21 1943.32C-1800.99 1943.32 -1799.6 1942.6 -1799.05 1941.5C-1784.42 1912.36 -1781.02 1881.33 -1788.91 1849.69C-1789.33 1848.12 -1790.85 1847.08 -1792.43 1847.02C-1982.67 1842.16 -2172.91 1837.31 -2363.14 1832.45C-2410.02 1831.24 -2456.83 1830.08 -2503.71 1828.87L-2571.84 1827.11C-2594.06 1826.56 -2618.71 1828.62 -2640.51 1823.22C-2669.48 1816.06 -2678.71 1793.28 -2682.23 1766.2C-2685.45 1741.55 -2687.57 1716.66 -2690.24 1691.94C-2695.28 1645.31 -2700.26 1598.68 -2705.3 1552.04C-2715.5 1457.32 -2725.7 1362.66 -2735.84 1267.93C-2740.88 1221.3 -2745.86 1174.67 -2750.9 1128.03C-2755.52 1085.35 -2761.65 1041.99 -2757.82 999.003C-2749.69 906.405 -2683.14 846.473 -2619.93 785.935C-2551.74 720.6 -2483.49 655.326 -2415.3 589.991C-2379.35 555.623 -2342.86 521.741 -2307.64 486.584C-2279.35 458.41 -2252.21 427.624 -2236.48 390.403C-2213.34 335.633 -2221.85 259.126 -2279.71 229.676L-2280.56 236.355C-2210.98 214.314 -2139.81 156.144 -2106.05 90.7482C-2101.32 81.5795 -2090.87 60.449 -2106.05 55.3485C-2113.03 52.9805 -2123.78 57.595 -2129.55 61.1774C-2137.99 66.4601 -2143.64 76.0541 -2150.56 83.3405C-2161.67 94.9381 -2173.88 105.443 -2187.05 114.612C-2237.94 150.194 -2301.33 160.516 -2357.56 131.067C-2410.5 103.317 -2450.88 57.5948 -2487.07 11.0223C-2564.61 -88.6803 -2641 -186.561 -2732.02 -274.727C-2758.8 -300.655 -2786.3 -325.793 -2814.54 -350.142C-2818.79 -353.785 -2833.6 -362.529 -2835.06 -367.629C-2837.43 -375.827 -2825.77 -383.72 -2820.73 -389.124C-2807.25 -403.575 -2793.77 -418.088 -2780.29 -432.539C-2725.4 -491.498 -2670.57 -550.397 -2615.68 -609.357C-2613.31 -611.907 -2615.62 -616.582 -2619.2 -615.429L-2621.93 -614.578L-2618.41 -608.506C-2527.39 -703.291 -2434.12 -795.89 -2338.55 -886.059C-2290.82 -931.114 -2242.49 -975.561 -2193.61 -1019.4C-2182.01 -1029.78 -2170.05 -1043.81 -2156.87 -1052.13C-2149.95 -1056.5 -2149.65 -1059.54 -2141.45 -1055.17C-2135.32 -1051.89 -2129.73 -1044.6 -2124.33 -1040.11C-2101.74 -1021.22 -2077.45 -1004.71 -2051.83 -990.195C-2049.95 -989.162 -2048.06 -989.891 -2046.85 -991.531C-2034.04 -1008.65 -2021.17 -1025.72 -2008.35 -1042.84C-2007.44 -1044.05 -2007.81 -1046.3 -2008.9 -1047.27C-2021.65 -1058.02 -2034.46 -1068.71 -2047.21 -1079.45C-2053.59 -1084.8 -2059.97 -1090.2 -2066.4 -1095.54C-2070.41 -1098.88 -2083.71 -1106.41 -2085.59 -1111.64C-2090.33 -1124.87 -2069.62 -1142.54 -2061.06 -1152.26C-2051.4 -1163.19 -2041.26 -1173.63 -2030.88 -1183.89C-1984 -1230.34 -1936.28 -1275.94 -1889.52 -1322.52C-1794.31 -1417.42 -1700.14 -1513.42 -1603.41 -1606.81C-1600.01 -1610.09 -1605.17 -1615.25 -1608.57 -1611.97L-1608.21 -1612.21Z" fill="#9B9B9B"/>
<path d="M1458.6 1076.36C1459.99 1039.08 1470.92 1004.65 1491.39 973.439C1492.12 972.346 1492.05 970.828 1491.39 969.735C1483.19 956.073 1467.46 952.126 1452.65 957.652C1429.94 966.153 1422.53 993.72 1414.94 1014.12C1391.5 1077.45 1361.81 1138.36 1326.96 1196.16C1257.55 1311.41 1168.17 1413.96 1066.59 1501.83C960.388 1593.64 841.133 1669.54 715.928 1732.63C653.507 1764.08 589.144 1790.8 525.084 1818.79C465.092 1845.02 405.708 1874.47 355.857 1917.58C299.812 1966.03 258.522 2028.64 220.207 2091.24C175.214 2164.71 131.009 2238.73 86.5013 2312.44C85.1655 2314.69 86.562 2316.94 88.6872 2317.79L90.5695 2318.58L88.9907 2312.5C-3.18268 2398.24 -108.047 2469.77 -221.837 2523.69C-279.946 2551.2 -340.18 2574.09 -401.933 2591.94C-459.617 2608.64 -521.127 2616.35 -576.079 2641.24C-619.373 2660.86 -647.668 2687.21 -647.546 2736.51C-647.486 2763.41 -642.871 2790.07 -642.203 2816.97C-641.596 2841.74 -641.657 2866.39 -637.588 2890.93C-633.945 2913.15 -626.841 2943.45 -603.585 2953.35C-583.912 2961.79 -561.445 2951.16 -544.444 2941.2C-487.791 2908.05 -445.166 2855.1 -388.15 2822.49C-373.637 2814.18 -359.732 2809.86 -343.277 2807.13C-305.752 2800.88 -267.863 2797.29 -229.852 2795.17C-159.78 2791.16 -89.6484 2792.01 -19.5164 2790.55C121.901 2787.52 264.533 2778.23 404.979 2761.11C545.425 2743.98 674.516 2715.44 803.79 2669.11C931.363 2623.39 1053.96 2565.34 1176.73 2508.27C1299.51 2451.19 1434.61 2390.65 1564.92 2334.97C1825.47 2223.61 2089.6 2120.69 2356.71 2026.39C2490.36 1979.21 2624.73 1934.16 2759.83 1891.29C2827.36 1869.85 2895.06 1848.97 2962.94 1828.69C3026.88 1809.56 3091.97 1793.16 3155.31 1772.15C3177.89 1764.62 3200.3 1755.03 3218.27 1739C3238.37 1721.03 3248.81 1696.25 3257.32 1671.24C3277.6 1611.67 3300.67 1553.99 3331.45 1498.97C3391.57 1391.56 3473.3 1297.63 3571 1222.94C3611.38 1192.09 3656.31 1159.43 3666.27 1106.17C3675.62 1056.08 3662.38 998.456 3650.66 949.515C3626.43 848.234 3581.26 753.389 3528.86 663.948C3420.41 478.933 3279.42 312.863 3191.13 116.19C3168.91 66.6423 3150.63 15.5158 3137.27 -37.1287C3136.24 -41.1363 3130.17 -40.226 3130.11 -36.1577C3127.31 193.365 3140.98 422.888 3171.52 650.407C3186.45 761.647 3205.28 872.279 3228.17 982.183C3236.19 1020.62 3241.22 1059.84 3231.87 1098.64C3221.79 1140.3 3187.06 1173.15 3144.01 1144.61C3125.07 1132.04 3111.53 1112.79 3097.62 1095.3C3080.13 1073.26 3061.86 1051.83 3042.79 1031.12C3008.18 993.537 2971.02 958.32 2931.67 925.774C2866.34 871.672 2777.93 806.398 2687.82 834.39C2615.08 856.978 2577.01 931.299 2551.44 997.424C2511.97 1099.43 2479.55 1204.6 2444.09 1308.01C2406.62 1417.18 2369.1 1526.36 2331.63 1635.53C2301.7 1722.67 2264.48 1858.98 2142.85 1828.26C2051.47 1805.19 1985.77 1713.32 1951.95 1630.43C1919.1 1549.8 1909.14 1460.48 1919.65 1374.25C1924.93 1331.02 1935.5 1288.4 1951.16 1247.77C1963.91 1214.68 1992.45 1171.75 1964.58 1138.66C1953.41 1125.36 1937.07 1118.14 1921.47 1111.52C1895.24 1100.34 1868.89 1089.48 1842.53 1078.42C1790.49 1056.63 1738.46 1034.83 1686.48 1013.03C1652.54 998.82 1606.57 971.496 1577 1007.56C1565.47 1021.65 1559.94 1040.17 1553.93 1056.99C1544.76 1082.43 1535.53 1107.87 1526.06 1133.19C1488.47 1233.26 1446.09 1332.78 1385.73 1421.56C1332.36 1500.01 1263.87 1570.38 1180.56 1616.89C1160.46 1628.13 1139.63 1637.9 1118.08 1645.92C1097.74 1653.45 1027.24 1677.98 1040.3 1632.62C1052.38 1590.66 1108.91 1573.17 1141.88 1552.16C1284.45 1461.21 1391.2 1316.39 1439.59 1154.63C1451.37 1115.28 1459.45 1075.02 1464.18 1034.22C1464.73 1029.54 1457.44 1029.61 1456.9 1034.22C1435.34 1218.08 1338.98 1390.59 1194.16 1505.96C1157.73 1534.98 1118.32 1556.23 1078.49 1579.85C1058.27 1591.88 1023.66 1621.63 1032.46 1649.38C1043.82 1685.02 1098.16 1661.04 1119.9 1653.02C1161.98 1637.48 1201.39 1615.37 1237.52 1588.84C1400.85 1468.92 1481.85 1276.13 1549.07 1091.72C1557.57 1068.41 1563.95 1042.6 1576.58 1021.17C1599.04 983.033 1636.81 1000.28 1668.81 1013.7C1723.46 1036.59 1778.05 1059.48 1832.7 1082.37C1858.68 1093.3 1884.73 1104.17 1910.72 1115.1C1943.57 1128.94 1976.85 1145.64 1966.95 1188.09C1961.79 1210.19 1949.76 1230.65 1941.81 1251.9C1933.86 1273.15 1927.24 1295.44 1922.08 1317.85C1885.46 1477.48 1920.44 1667.59 2045.7 1781.26C2104.05 1834.21 2196.65 1868.76 2260.11 1804.09C2288.58 1775.07 2304.31 1735.84 2317.67 1698.14C2337.16 1643.12 2355.62 1587.75 2374.56 1532.55C2413.42 1419.31 2452.29 1306.13 2491.15 1192.88C2510.03 1137.93 2528.49 1082.8 2547.8 1027.97C2562.37 986.615 2578.89 945.022 2604.15 908.954C2632.2 868.879 2672.64 838.397 2722.98 835.665C2777.81 832.629 2829.91 860.196 2873.62 890.556C2961.85 951.823 3036.17 1030.88 3102.96 1114.31C3123.91 1140.42 3152.39 1170.05 3189.43 1161.49C3215.36 1155.54 3229.69 1131.74 3236.79 1107.81C3246.14 1076.18 3245.84 1041.32 3240.68 1009.02C3231.87 954.008 3218.58 899.482 3208.86 844.591C3167.63 612.093 3144.07 376.498 3138.3 140.478C3136.85 81.7009 3136.6 22.9234 3137.27 -35.8538L3130.11 -34.8821C3181.17 166.952 3305.41 337.515 3419.92 507.532C3478.16 593.998 3535.29 681.799 3580.1 776.159C3602.51 823.338 3621.64 872.097 3635.79 922.434C3650.36 974.229 3664.38 1032.52 3660.98 1086.62C3656.67 1154.57 3601.72 1189.54 3553.02 1227.8C3507.73 1263.38 3466.07 1303.45 3428.55 1347.17C3355.74 1432.06 3298.73 1530.31 3261.38 1635.78C3249.85 1668.32 3242.14 1704.27 3217.36 1729.83C3196.23 1751.57 3165.99 1761.77 3137.7 1770.21C3073.58 1789.34 3009.15 1807.37 2945.03 1826.62C2814.54 1865.85 2684.72 1907.14 2555.51 1950.43C2296.96 2037.08 2041.15 2131.74 1788.43 2234.17C1537.29 2336 1291.62 2449 1045.09 2561.34C921.466 2617.62 795.653 2670.51 664.133 2705.61C530.245 2741.31 392.167 2758.25 254.271 2768.7C116.133 2779.2 -21.6418 2782.48 -160.084 2785.58C-225.419 2787.03 -293.486 2788.49 -357.546 2802.58C-383.231 2808.22 -405.516 2824.07 -426.1 2839.74C-452.027 2859.47 -476.255 2881.21 -501.575 2901.61C-523.434 2919.28 -548.633 2940.96 -576.686 2947.76C-607.775 2955.35 -621.801 2929.3 -628.116 2902.77C-633.884 2878.3 -634.734 2852.79 -634.977 2827.78C-635.281 2801.06 -638.681 2774.77 -640.078 2748.11C-641.414 2722 -638.985 2695.1 -618.704 2676.28C-593.627 2653.08 -558.348 2640.58 -526.106 2631.29C-468.3 2614.65 -409.401 2603.54 -352.264 2584.35C-240.66 2546.88 -134.582 2493.09 -38.2792 2425.44C8.2326 2392.72 52.3157 2356.77 93.9698 2318.03C96.1558 2315.97 94.6984 2312.93 92.3911 2311.96L90.5087 2311.17L92.6946 2316.51C132.77 2250.14 172.845 2183.72 212.982 2117.35C248.928 2057.96 285.664 1998.03 334.422 1948.12C432.546 1847.57 576.271 1809.62 699.351 1749.32C938.65 1632.07 1158.21 1466.49 1306.55 1242.37C1346.14 1182.62 1380.21 1119.23 1407.59 1053.04C1414.33 1036.77 1420.22 1020.19 1426.54 1003.74C1430.73 992.93 1435.22 980.968 1443.6 972.589C1449.19 967.003 1456.17 963.238 1464.31 962.813C1471.17 962.449 1481.31 968.096 1481 976.233C1480.76 983.215 1470.13 995.845 1467.28 1002.46C1464.24 1009.57 1461.57 1016.85 1459.39 1024.32C1454.35 1041.39 1451.98 1058.87 1451.31 1076.6C1451.13 1081.28 1458.42 1081.28 1458.6 1076.6V1076.36Z" fill="#9B9B9B"/>
<path d="M63.3024 322.216C62.3309 310.133 55.2874 303.879 44.3577 299.811C28.2061 293.86 12.6008 292.403 -4.46167 293.86C-41.6225 297.018 -78.7227 301.268 -115.762 305.276C-190.084 313.291 -264.284 322.459 -337.998 335.028C-411.834 347.658 -485.184 363.75 -556.895 385.67C-592.477 396.538 -627.634 408.865 -662.123 422.83C-690.783 434.428 -719.139 447.239 -744.642 464.909C-767.291 480.575 -788.179 500.188 -800.687 525.083C-815.078 553.682 -815.928 585.804 -807.305 616.285C-797.954 649.56 -780.042 680.952 -760.855 709.491C-744.46 733.9 -724.604 757.703 -698.312 771.851C-668.742 787.759 -635.71 786.727 -604.5 776.222C-569.221 764.382 -536.25 744.769 -503.461 727.403C-436.304 691.76 -369.998 654.539 -304.724 615.496C-239.51 576.453 -175.328 535.648 -112.483 492.901C-80.8476 471.406 -49.577 449.425 -18.6096 426.959C-4.21887 416.515 10.2936 406.375 23.1056 393.867C29.4813 387.673 35.614 381.297 42.0503 375.225C47.6366 370.003 52.9799 364.721 56.7445 357.981C62.938 346.93 63.3024 334.543 63.3024 322.216C63.3024 317.541 56.0159 317.541 56.0159 322.216C56.0159 336.243 55.2264 349.42 45.9969 360.774C41.0178 366.907 34.7031 371.946 29.0561 377.532C22.8019 383.726 16.7299 390.102 10.1722 395.931C-3.4292 408.075 -19.0343 418.276 -33.85 428.963C-48.6658 439.65 -63.0568 449.851 -77.751 460.113C-136.589 501.22 -196.641 540.567 -257.665 578.335C-318.689 616.103 -380.745 652.232 -443.652 686.842C-475.105 704.147 -506.74 721.088 -538.557 737.665C-570.375 754.242 -603.832 773.733 -640.324 776.708C-707.178 782.173 -748.468 720.724 -776.763 669.112C-793.704 638.266 -808.459 603.534 -805.423 567.587C-802.994 538.442 -787.936 512.757 -767.291 492.659C-723.39 449.972 -660.605 428.477 -604.014 408.743C-537.282 385.487 -468.668 367.818 -399.386 353.852C-329.133 339.704 -258.151 329.321 -186.987 320.698C-152.133 316.448 -117.219 312.684 -82.2443 309.041C-64.5747 307.219 -46.9053 305.397 -29.2357 303.636C-11.566 301.875 6.58948 298.475 24.0162 301.511C36.0995 303.636 54.923 307.583 56.0767 322.277C56.441 326.892 63.7272 326.953 63.3629 322.277L63.3024 322.216Z" fill="#9B9B9B"/>
<path d="M186.869 486.158C160.274 458.834 124.266 436.367 85.8304 431.631C66.0964 429.202 47.0303 432.906 29.8465 443.047C8.65509 455.494 -10.5325 472.314 -30.0844 487.13C-113.332 550.279 -196.579 613.488 -279.827 676.637C-363.075 739.787 -442.861 798.503 -522.769 861.349C-557.987 889.037 -591.93 918.851 -618.95 954.858C-645.971 990.865 -665.644 1032.7 -687.685 1072.35C-709.727 1112 -734.379 1146.86 -766.926 1177.16C-797.65 1205.75 -833.293 1229.07 -871.789 1245.77C-881.869 1250.14 -892.131 1253.97 -902.514 1257.43C-904.821 1258.22 -905.793 1260.65 -904.7 1262.77C-874.158 1321.85 -843.615 1380.93 -813.073 1440.01C-807.851 1450.09 -803.236 1463.27 -793.642 1470.19C-782.955 1477.96 -769.415 1473.83 -757.757 1471.04C-732.193 1464.91 -705.841 1457.56 -685.014 1440.8C-667.587 1426.78 -654.532 1404.13 -655.929 1381.24C-656.718 1368.18 -663.276 1358.41 -668.619 1346.87C-675.724 1331.57 -668.923 1319.91 -656.9 1309.89C-633.948 1290.76 -608.385 1274 -583.307 1257.85C-558.23 1241.7 -532.363 1226.4 -506.01 1212.19C-479.658 1197.98 -453.548 1185.35 -426.528 1173.51C-412.987 1167.56 -398.961 1160.27 -384.448 1157C-376.494 1155.17 -368.115 1155.17 -361.557 1160.7C-356.881 1164.65 -353.724 1170.05 -349.352 1174.3C-331.622 1191.67 -307.758 1178.13 -292.639 1164.28C-281.102 1153.66 -270.78 1141.45 -260.154 1129.91C-249.528 1118.38 -239.023 1106.96 -228.579 1095.43C-142.478 1000.58 -59.5944 902.821 21.9529 804.089C62.5748 754.906 102.954 705.419 143.211 655.932C175.514 616.282 218.565 570.377 203.446 514.393C200.531 503.585 194.702 494.112 186.93 486.097C183.651 482.697 178.49 487.859 181.768 491.259C200.956 511.114 201.806 540.017 194.702 565.459C187.233 592.176 168.107 613.853 150.984 634.923C111.94 682.892 72.8364 730.861 33.5504 778.648C-44.4753 873.372 -123.533 967.367 -205.384 1058.81C-225.847 1081.7 -246.492 1104.41 -267.319 1126.88C-277.338 1137.69 -286.992 1149.1 -297.8 1159.06C-306.908 1167.38 -320.692 1178.01 -333.929 1174.97C-345.77 1172.24 -350.141 1159.3 -359.614 1152.99C-369.086 1146.67 -380.866 1148.07 -391.127 1151.23C-417.662 1159.49 -443.529 1172.72 -468.424 1184.81C-519.854 1209.7 -569.342 1238.6 -616.278 1271.15C-628.18 1279.41 -639.959 1287.91 -651.557 1296.65C-660.24 1303.21 -669.712 1309.89 -675.177 1319.54C-680.642 1329.2 -679.792 1339.46 -675.298 1349.42C-669.834 1361.5 -662.669 1371.64 -663.033 1385.55C-663.64 1412.26 -683.435 1433.94 -705.901 1445.9C-718.167 1452.46 -731.526 1456.77 -744.884 1460.35C-750.956 1461.99 -757.089 1463.51 -763.282 1464.97C-771.176 1466.85 -780.648 1469.71 -788.178 1465.15C-793.764 1461.81 -796.861 1455.38 -799.775 1449.79C-803.54 1442.62 -807.183 1435.46 -810.887 1428.29C-818.295 1413.96 -825.703 1399.63 -833.11 1385.3C-847.683 1357.13 -862.256 1328.9 -876.829 1300.72C-883.994 1286.88 -891.159 1272.97 -898.324 1259.13L-900.51 1264.47C-823.638 1239.03 -755.814 1188.81 -709.606 1122.26C-683.921 1085.22 -665.097 1044.06 -642.692 1005.07C-620.286 966.092 -592.172 930.934 -558.29 900.452C-522.89 868.635 -484.03 840.704 -446.14 811.983C-405.154 780.834 -364.107 749.745 -323.121 718.595C-241.088 656.357 -159.055 594.058 -77.0215 531.82C-56.498 516.275 -36.0352 500.671 -15.5118 485.126C3.19006 470.978 21.8314 453.612 43.5085 444.14C82.3088 427.138 128.031 447.783 159.302 471.403C167.317 477.415 174.786 484.094 181.768 491.259C185.047 494.599 190.209 489.497 186.93 486.097L186.869 486.158Z" fill="#9B9B9B"/>
<path d="M687.75 18.7969C587.137 198.954 451.488 353.487 319.542 509.113C-50.8514 946.239 -399.993 1403.77 -725.879 1879.33C-648.946 2023.6 -559.202 2160.1 -458.284 2286.52C-119.526 1878.36 314.078 1573.6 686.718 1200.35C869.304 1017.52 1036.89 818.605 1204.24 619.928C1055.72 400.242 883.209 198.893 691.394 21.1651C686.597 25.5976 681.8 30.0299 677.003 34.4624" fill="#9B9B9B"/>
<path d="M1335.27 854.064L1150.98 712.1L803.783 1192.58L507.347 1387.49L523.498 1413.84L397.625 1552.16L598.306 1650.71L653.5 1626.06L828.071 1511.24L848.838 1527.21L889.581 1470.74L983.515 1408.99L960.927 1372.13L1005.25 1310.8L1038.71 1336.49L1198.34 1114.8L1165.25 1089.35L1335.27 854.064Z" fill="#9B9B9B"/>
<path d="M482.448 782.469V671.653H549.642V683.898H496.224V720.939H546.121V733.03H496.224V770.224H550.407V782.469H482.448ZM646.989 706.551C643.775 691.245 630.688 682.979 616.07 682.979C596.019 682.979 580.484 698.439 580.407 727.061C580.484 755.607 596.019 771.066 616.07 771.143C630.688 771.066 643.698 762.877 646.989 747.724H660.764C656.785 770.377 638.57 784 616.07 784C587.601 784 567.014 762.112 567.091 727.061C567.014 692.01 587.601 670.122 616.07 670.122C638.494 670.122 656.632 683.515 660.764 706.551H646.989ZM755.662 706.551C752.448 691.245 739.361 682.979 724.744 682.979C704.693 682.979 689.157 698.439 689.081 727.061C689.157 755.607 704.693 771.066 724.744 771.143C739.361 771.066 752.371 762.877 755.662 747.724H769.438C765.458 770.377 747.244 784 724.744 784C696.275 784 675.688 762.112 675.764 727.061C675.688 692.01 696.275 670.122 724.744 670.122C747.167 670.122 765.305 683.515 769.438 706.551H755.662Z" fill="#1F2225"/>
<mask id="path-9-inside-1_1_10984" fill="white">
<path d="M-45.8203 -20.896L-8.49288 -32.8133L3.42446 4.51409L-33.903 16.4314L-45.8203 -20.896Z"/>
</mask>
<path d="M-45.8203 -20.896L-8.49288 -32.8133L3.42446 4.51409L-33.903 16.4314L-45.8203 -20.896Z" fill="#FFF258"/>
<path d="M-45.8203 -20.896L-46.0686 -21.6737L-46.4574 -21.5495L-46.2091 -20.7719L-45.8203 -20.896ZM-8.49288 -32.8133L-7.71523 -33.0616L-7.96351 -33.8393L-8.74116 -33.591L-8.49288 -32.8133ZM3.42446 4.51409L3.67273 5.29175L4.45039 5.04347L4.20211 4.26582L3.42446 4.51409ZM-33.903 16.4314L-34.2918 16.5556L-34.0435 17.3332L-33.6547 17.2091L-33.903 16.4314ZM-45.572 -20.1183L-8.24461 -32.0357L-8.74116 -33.591L-46.0686 -21.6737L-45.572 -20.1183ZM-9.27054 -32.5651L2.6468 4.76237L4.20211 4.26582L-7.71523 -33.0616L-9.27054 -32.5651ZM3.17618 3.73644L-34.1513 15.6538L-33.6547 17.2091L3.67273 5.29175L3.17618 3.73644ZM-33.5141 16.3073L-45.4315 -21.0201L-46.2091 -20.7719L-34.2918 16.5556L-33.5141 16.3073Z" fill="#1F2225" mask="url(#path-9-inside-1_1_10984)"/>
<mask id="path-11-inside-2_1_10984" fill="white">
<path d="M102.684 385.146L134.717 407.712L112.15 439.745L80.1171 417.179L102.684 385.146Z"/>
</mask>
<path d="M102.684 385.146L134.717 407.712L112.15 439.745L80.1171 417.179L102.684 385.146Z" fill="#FFF258"/>
<path d="M102.684 385.146L103.154 384.479L102.486 384.009L102.016 384.676L102.684 385.146ZM134.717 407.712L135.05 407.948L135.52 407.28L135.187 407.045L134.717 407.712ZM112.15 439.745L111.68 440.413L112.014 440.648L112.484 439.981L112.15 439.745ZM80.1171 417.179L79.4498 416.709L78.9796 417.376L79.647 417.846L80.1171 417.179ZM102.213 385.813L134.246 408.38L135.187 407.045L103.154 384.479L102.213 385.813ZM134.383 407.477L111.816 439.51L112.484 439.981L135.05 407.948L134.383 407.477ZM112.62 439.078L80.5873 416.512L79.647 417.846L111.68 440.413L112.62 439.078ZM80.7845 417.649L103.351 385.616L102.016 384.676L79.4498 416.709L80.7845 417.649Z" fill="#1F2225" mask="url(#path-11-inside-2_1_10984)"/>
<mask id="path-13-inside-3_1_10984" fill="white">
<path d="M134.719 407.712L166.752 430.279L144.185 462.312L112.152 439.745L134.719 407.712Z"/>
</mask>
<path d="M134.719 407.712L166.752 430.279L144.185 462.312L112.152 439.745L134.719 407.712Z" fill="#FFF258"/>
<path d="M134.719 407.712L135.189 407.045L134.855 406.81L134.385 407.477L134.719 407.712ZM166.752 430.279L167.419 430.749L167.889 430.082L167.222 429.612L166.752 430.279ZM144.185 462.312L143.715 462.979L144.383 463.449L144.853 462.782L144.185 462.312ZM112.152 439.745L111.819 439.51L111.348 440.178L111.682 440.413L112.152 439.745ZM134.249 408.38L166.282 430.946L167.222 429.612L135.189 407.045L134.249 408.38ZM166.084 429.809L143.518 461.842L144.853 462.782L167.419 430.749L166.084 429.809ZM144.655 461.645L112.622 439.078L111.682 440.413L143.715 462.979L144.655 461.645ZM112.486 439.98L135.052 407.947L134.385 407.477L111.819 439.51L112.486 439.98Z" fill="#1F2225" mask="url(#path-13-inside-3_1_10984)"/>
<path d="M104.672 401.064L100.988 398.469L102.748 395.97C103.752 396.677 104.613 397.156 105.331 397.407C106.071 397.672 106.758 397.74 107.391 397.612C108.04 397.462 108.767 397.111 109.571 396.559L111.942 398.229L96.145 420.652L92.6213 418.17L104.672 401.064ZM102.165 421.25C103.293 419.649 104.512 418.462 105.822 417.692C107.147 416.899 108.961 416.276 111.263 415.82C113.543 415.35 115.275 414.797 116.458 414.16C117.663 413.539 118.641 412.694 119.393 411.627C120.07 410.666 120.377 409.891 120.312 409.302C120.284 408.707 119.971 408.199 119.373 407.778C118.156 406.92 117.028 407.228 115.99 408.702L114.297 411.104L110.966 408.757L112.5 406.579C113.779 404.764 115.206 403.692 116.779 403.363C118.368 403.012 120.017 403.439 121.726 404.642C123.434 405.846 124.391 407.255 124.595 408.869C124.815 410.462 124.286 412.166 123.007 413.981C122.044 415.348 120.773 416.449 119.193 417.285C117.635 418.137 115.461 418.842 112.671 419.401C110.842 419.774 109.498 420.185 108.638 420.634C107.794 421.062 107.093 421.671 106.537 422.461L106.198 422.941L112.893 427.658L110.636 430.861L100.45 423.685L102.165 421.25Z" fill="#1F2225"/>
<path d="M135.379 424.225L131.695 421.63L133.455 419.131C134.459 419.838 135.32 420.317 136.038 420.567C136.778 420.833 137.465 420.901 138.099 420.772C138.747 420.622 139.474 420.271 140.278 419.72L142.649 421.39L126.852 443.813L123.328 441.33L135.379 424.225ZM148.205 433.26L144.521 430.665L146.281 428.166C147.285 428.873 148.146 429.352 148.864 429.603C149.604 429.868 150.29 429.936 150.924 429.808C151.573 429.658 152.3 429.307 153.104 428.755L155.474 430.425L139.678 452.848L136.154 450.366L148.205 433.26Z" fill="#1F2225"/>
<mask id="path-17-inside-4_1_10984" fill="white">
<path d="M166.359 429.228L198.392 451.794L175.826 483.827L143.793 461.261L166.359 429.228Z"/>
</mask>
<path d="M166.359 429.228L198.392 451.794L175.826 483.827L143.793 461.261L166.359 429.228Z" fill="#FFF258"/>
<path d="M166.359 429.228L166.83 428.56L166.162 428.09L165.692 428.757L166.359 429.228ZM198.392 451.794L198.726 452.029L199.196 451.362L198.863 451.127L198.392 451.794ZM175.826 483.827L175.356 484.494L175.689 484.729L176.16 484.062L175.826 483.827ZM143.793 461.261L143.126 460.79L142.655 461.458L143.323 461.928L143.793 461.261ZM165.889 429.895L197.922 452.461L198.863 451.127L166.83 428.56L165.889 429.895ZM198.059 451.559L175.492 483.592L176.16 484.062L198.726 452.029L198.059 451.559ZM176.296 483.16L144.263 460.593L143.323 461.928L175.356 484.494L176.296 483.16ZM144.46 461.731L167.027 429.698L165.692 428.757L143.126 460.79L144.46 461.731Z" fill="#1F2225" mask="url(#path-17-inside-4_1_10984)"/>
<mask id="path-19-inside-5_1_10984" fill="white">
<path d="M198.395 451.794L230.428 474.36L207.861 506.393L175.828 483.827L198.395 451.794Z"/>
</mask>
<path d="M198.395 451.794L230.428 474.36L207.861 506.393L175.828 483.827L198.395 451.794Z" fill="#FFF258"/>
<path d="M198.395 451.794L198.865 451.127L198.531 450.892L198.061 451.559L198.395 451.794ZM230.428 474.36L231.095 474.831L231.565 474.163L230.898 473.693L230.428 474.36ZM207.861 506.393L207.391 507.061L208.058 507.531L208.528 506.864L207.861 506.393ZM175.828 483.827L175.494 483.592L175.024 484.259L175.358 484.494L175.828 483.827ZM197.924 452.461L229.957 475.028L230.898 473.693L198.865 451.127L197.924 452.461ZM229.76 473.89L207.194 505.923L208.528 506.864L231.095 474.831L229.76 473.89ZM208.331 505.726L176.298 483.16L175.358 484.494L207.391 507.061L208.331 505.726ZM176.162 484.062L198.728 452.029L198.061 451.559L175.494 483.592L176.162 484.062Z" fill="#1F2225" mask="url(#path-19-inside-5_1_10984)"/>
<path d="M168.348 445.146L164.664 442.55L166.424 440.052C167.428 440.759 168.289 441.238 169.007 441.488C169.747 441.754 170.433 441.822 171.067 441.693C171.716 441.543 172.443 441.192 173.247 440.64L175.617 442.31L159.821 464.734L156.297 462.251L168.348 445.146ZM169.057 471.72C167.328 470.501 166.35 469.077 166.123 467.448C165.897 465.819 166.416 464.107 167.68 462.313L175.984 450.525C177.248 448.731 178.685 447.667 180.295 447.331C181.905 446.996 183.575 447.437 185.305 448.656C187.035 449.875 188.013 451.299 188.239 452.928C188.465 454.557 187.947 456.269 186.683 458.062L178.379 469.851C177.115 471.644 175.678 472.709 174.068 473.045C172.457 473.38 170.787 472.938 169.057 471.72ZM171.314 468.516C172.531 469.374 173.659 469.066 174.697 467.592L183.317 455.356C184.355 453.882 184.266 452.717 183.049 451.859C181.831 451.002 180.704 451.31 179.666 452.783L171.045 465.02C170.007 466.493 170.097 467.659 171.314 468.516Z" fill="#1F2225"/>
<path d="M193.226 490.273C191.518 489.069 190.554 487.671 190.334 486.078C190.129 484.464 190.666 482.749 191.945 480.934L192.238 480.517L195.569 482.864L195.118 483.505C194.08 484.979 194.17 486.144 195.387 487.002C196.049 487.468 196.683 487.611 197.289 487.431C197.895 487.251 198.559 486.648 199.282 485.623L202.305 481.331L202.241 481.286C200.704 482.152 199.178 482.051 197.662 480.983C196.38 480.08 195.717 478.958 195.672 477.616C195.627 476.274 196.191 474.77 197.364 473.105L200.185 469.101C201.449 467.307 202.886 466.242 204.496 465.907C206.106 465.571 207.776 466.013 209.506 467.231C211.236 468.45 212.214 469.874 212.44 471.503C212.666 473.132 212.148 474.844 210.884 476.638L202.715 488.234C199.977 492.12 196.814 492.8 193.226 490.273ZM201.36 478.795C202.577 479.653 203.705 479.345 204.743 477.871L207.541 473.899C208.564 472.447 208.467 471.292 207.25 470.435C206.032 469.577 204.912 469.874 203.889 471.327L201.091 475.299C200.053 476.772 200.142 477.938 201.36 478.795Z" fill="#1F2225"/>
<mask id="path-23-inside-6_1_10984" fill="white">
<path d="M143.789 347.515L176.734 326.302L197.947 359.246L165.002 380.46L143.789 347.515Z"/>
</mask>
<path d="M143.789 347.515L176.734 326.302L197.947 359.246L165.002 380.46L143.789 347.515Z" fill="#FFF258"/>
<path d="M143.789 347.515L143.347 346.829L142.661 347.271L143.103 347.957L143.789 347.515ZM176.734 326.302L177.077 326.081L176.635 325.394L176.292 325.615L176.734 326.302ZM197.947 359.246L198.389 359.933L198.732 359.712L198.29 359.025L197.947 359.246ZM165.002 380.46L164.316 380.902L164.758 381.588L165.444 381.146L165.002 380.46ZM144.231 348.201L177.176 326.988L176.292 325.615L143.347 346.829L144.231 348.201ZM176.391 326.523L197.604 359.467L198.29 359.025L177.077 326.081L176.391 326.523ZM197.505 358.56L164.561 379.773L165.444 381.146L198.389 359.933L197.505 358.56ZM165.689 380.018L144.475 347.073L143.103 347.957L164.316 380.902L165.689 380.018Z" fill="#1F2225" mask="url(#path-23-inside-6_1_10984)"/>
<mask id="path-25-inside-7_1_10984" fill="white">
<path d="M176.73 326.302L209.675 305.088L230.889 338.033L197.944 359.246L176.73 326.302Z"/>
</mask>
<path d="M176.73 326.302L209.675 305.088L230.889 338.033L197.944 359.246L176.73 326.302Z" fill="#FFF258"/>
<path d="M176.73 326.302L176.289 325.615L175.945 325.836L176.387 326.523L176.73 326.302ZM209.675 305.088L210.361 304.646L209.92 303.96L209.233 304.402L209.675 305.088ZM230.889 338.033L231.33 338.719L232.017 338.277L231.575 337.591L230.889 338.033ZM197.944 359.246L197.601 359.467L198.043 360.154L198.386 359.933L197.944 359.246ZM177.172 326.988L210.117 305.775L209.233 304.402L176.289 325.615L177.172 326.988ZM208.989 305.53L230.202 338.475L231.575 337.591L210.361 304.646L208.989 305.53ZM230.447 337.347L197.502 358.56L198.386 359.933L231.33 338.719L230.447 337.347ZM198.287 359.025L177.074 326.081L176.387 326.523L197.601 359.467L198.287 359.025Z" fill="#1F2225" mask="url(#path-25-inside-7_1_10984)"/>
<path d="M165.886 347.403L162.097 349.843L160.443 347.273C161.475 346.608 162.242 345.99 162.744 345.419C163.267 344.833 163.589 344.222 163.708 343.586C163.812 342.928 163.76 342.123 163.55 341.171L165.988 339.601L180.838 362.662L177.214 364.996L165.886 347.403Z" fill="#1F2225"/>
<path d="M203.458 346.039C202.398 344.392 201.756 342.817 201.534 341.313C201.297 339.788 201.4 337.873 201.843 335.569C202.263 333.278 202.401 331.465 202.255 330.13C202.132 328.78 201.716 327.556 201.009 326.458C200.373 325.47 199.77 324.895 199.2 324.734C198.638 324.536 198.049 324.636 197.434 325.032C196.183 325.838 196.044 326.999 197.02 328.514L198.611 330.985L195.185 333.191L193.743 330.951C192.54 329.084 192.082 327.359 192.368 325.777C192.64 324.173 193.655 322.805 195.412 321.674C197.169 320.542 198.834 320.185 200.407 320.601C201.966 320.995 203.346 322.126 204.548 323.993C205.454 325.398 205.997 326.99 206.179 328.768C206.383 330.532 206.219 332.812 205.689 335.608C205.349 337.443 205.225 338.843 205.318 339.809C205.397 340.752 205.699 341.63 206.222 342.442L206.54 342.937L213.426 338.503L215.547 341.797L205.071 348.543L203.458 346.039Z" fill="#1F2225"/>
<mask id="path-29-inside-8_1_10984" fill="white">
<path d="M208.992 305.124L241.937 283.91L263.15 316.855L230.206 338.068L208.992 305.124Z"/>
</mask>
<path d="M208.992 305.124L241.937 283.91L263.15 316.855L230.206 338.068L208.992 305.124Z" fill="#FFF258"/>
<path d="M208.992 305.124L208.55 304.437L207.864 304.879L208.306 305.565L208.992 305.124ZM241.937 283.91L242.28 283.689L241.838 283.003L241.495 283.224L241.937 283.91ZM263.15 316.855L263.592 317.541L263.935 317.32L263.493 316.634L263.15 316.855ZM230.206 338.068L229.519 338.51L229.961 339.197L230.648 338.755L230.206 338.068ZM209.434 305.81L242.379 284.596L241.495 283.224L208.55 304.437L209.434 305.81ZM241.594 284.131L262.807 317.076L263.493 316.634L242.28 283.689L241.594 284.131ZM262.708 316.168L229.764 337.382L230.648 338.755L263.592 317.541L262.708 316.168ZM230.892 337.626L209.679 304.682L208.306 305.565L229.519 338.51L230.892 337.626Z" fill="#1F2225" mask="url(#path-29-inside-8_1_10984)"/>
<mask id="path-31-inside-9_1_10984" fill="white">
<path d="M241.934 283.91L274.878 262.697L296.092 295.641L263.147 316.855L241.934 283.91Z"/>
</mask>
<path d="M241.934 283.91L274.878 262.697L296.092 295.641L263.147 316.855L241.934 283.91Z" fill="#FFF258"/>
<path d="M241.934 283.91L241.492 283.224L241.148 283.445L241.59 284.131L241.934 283.91ZM274.878 262.697L275.565 262.255L275.123 261.568L274.436 262.01L274.878 262.697ZM296.092 295.641L296.534 296.328L297.22 295.886L296.778 295.199L296.092 295.641ZM263.147 316.855L262.804 317.076L263.246 317.762L263.589 317.541L263.147 316.855ZM242.376 284.597L275.32 263.383L274.436 262.01L241.492 283.224L242.376 284.597ZM274.192 263.139L295.405 296.083L296.778 295.199L275.565 262.255L274.192 263.139ZM295.65 294.955L262.705 316.168L263.589 317.541L296.534 296.328L295.65 294.955ZM263.49 316.634L242.277 283.689L241.59 284.131L262.804 317.076L263.49 316.634Z" fill="#1F2225" mask="url(#path-31-inside-9_1_10984)"/>
<path d="M242.695 322.891C240.916 324.037 239.247 324.412 237.688 324.018C236.151 323.609 234.789 322.483 233.601 320.638L232.392 318.76L235.818 316.554L237.133 318.596C238.109 320.112 239.223 320.466 240.475 319.66C241.09 319.264 241.431 318.781 241.498 318.209C241.573 317.602 241.299 316.815 240.677 315.848L239.468 313.971C238.789 312.916 238.121 312.29 237.465 312.091C236.795 311.87 236.042 312.028 235.208 312.566L233.989 313.351L231.867 310.056L233.185 309.208C233.91 308.741 234.328 308.208 234.439 307.608C234.572 306.994 234.355 306.248 233.79 305.37L232.708 303.69C232.199 302.899 231.659 302.423 231.089 302.262C230.519 302.101 229.96 302.197 229.411 302.55C228.247 303.3 228.124 304.388 229.044 305.816L230.019 307.331L226.593 309.538L225.808 308.319C224.62 306.474 224.158 304.767 224.423 303.199C224.709 301.617 225.708 300.274 227.421 299.171C229.156 298.054 230.792 297.699 232.329 298.108C233.852 298.494 235.207 299.61 236.395 301.455L236.926 302.279C237.732 303.531 238.174 304.675 238.251 305.713C238.315 306.728 238.013 307.683 237.347 308.578L237.389 308.644C238.56 308.388 239.609 308.52 240.535 309.042C241.462 309.564 242.321 310.44 243.113 311.67L244.428 313.713C245.616 315.558 246.067 317.271 245.781 318.853C245.503 320.4 244.474 321.746 242.695 322.891Z" fill="#1F2225"/>
<path d="M273.707 298.022L266.789 302.477L264.668 299.182L261.223 279.357L265.176 276.811L275.21 292.394L276.923 291.291L279.044 294.585L277.331 295.688L280.025 299.872L276.401 302.206L273.707 298.022ZM271.586 294.727L265.795 285.734L265.729 285.776L267.962 297.061L271.586 294.727Z" fill="#1F2225"/>
</g>
</g>
<defs>
<clipPath id="clip0_1_10984">
<rect width="800" height="800" fill="white"/>
</clipPath>
<clipPath id="clip1_1_10984">
<rect width="9307.75" height="10122.3" fill="white" transform="translate(-4501.22 -6669.39)"/>
</clipPath>
</defs>
</svg>
