<svg width="800" height="800" viewBox="0 0 800 800" fill="none" xmlns="http://www.w3.org/2000/svg">
<g clip-path="url(#clip0_1_10404)">
<rect width="800" height="800" fill="white"/>
<g clip-path="url(#clip1_1_10404)">
<rect width="5701" height="6199.92" transform="translate(-2469 -1679)" fill="white"/>
<path d="M-621.864 1400.3C-627.294 1387.2 -630.938 1372.63 -628.149 1358.46C-625.36 1344.29 -615.988 1333.28 -606.727 1323.27C-588.02 1303.12 -566.486 1285.41 -546.737 1266.22C-507.24 1227.84 -469.566 1187.64 -433.379 1146.17C-360.224 1062.41 -293.056 973.639 -227.786 883.673C-162.144 793.187 -98.3606 701.362 -32.0115 611.359C-23.5691 599.905 -15.2755 588.227 -6.46118 577.032C2.35315 565.838 12.618 556.428 27.3085 559.738C41.999 563.048 54.5696 575.693 66.1361 584.805C77.7026 593.917 90.2731 603.884 102.36 613.405C114.447 622.926 126.795 632.558 138.882 642.265C149.444 650.708 160.416 660.638 161.68 674.994C162.945 689.35 155.321 702.738 147.436 714.044C138.138 727.396 127.502 739.892 117.46 752.649C39.2841 852.024 -38.9291 951.398 -117.105 1050.74C-134.25 1072.49 -152.399 1093.88 -165.825 1118.24C-177.28 1138.99 -185.797 1162.94 -181.52 1186.89C-176.797 1213.45 -156.156 1231.34 -137.448 1248.89C-114.278 1270.68 -91.1082 1292.44 -67.938 1314.24C-21.8954 1357.53 24.1101 1400.82 70.1528 1444.07C90.1617 1462.89 110.617 1481.97 124.861 1505.7C139.105 1529.42 145.465 1557.99 146.209 1586.14C146.952 1614.29 142.899 1642.63 138.027 1670.45C135.907 1682.5 134.828 1697.53 126.423 1707.16C117.497 1717.43 102.36 1716.57 90.3104 1719.99C69.7065 1725.83 54.4581 1741.86 39.6188 1756.4C31.1392 1764.73 22.4736 1773.03 12.3576 1779.39C0.865479 1786.6 -12.2629 1790.58 -25.7261 1791.7C-53.4708 1794.04 -81.1039 1785.93 -107.138 1777.3C-134.213 1768.34 -161.139 1758.89 -187.657 1748.48C-240.542 1727.73 -292.089 1702.77 -338.393 1669.6C-387.708 1634.27 -430.515 1590.6 -474.103 1548.69C-496.753 1526.93 -519.365 1505.14 -542.014 1483.38C-564.664 1461.62 -586.941 1442.1 -607.619 1419.9C-623.128 1403.27 -642.282 1376.49 -627.405 1353.81C-625.843 1351.39 -629.674 1349.16 -631.273 1351.54C-644.513 1371.73 -633.058 1395.28 -619.893 1412.31C-611.339 1423.35 -601.037 1432.73 -590.995 1442.4C-579.243 1453.7 -567.49 1465.01 -555.738 1476.31C-509.249 1521.02 -463.281 1566.32 -416.085 1610.31C-372.534 1650.93 -326.194 1686.89 -273.345 1714.64C-220.496 1742.38 -167.35 1761.87 -112.382 1780.24C-86.4965 1788.91 -59.4214 1797.24 -31.7883 1796.49C-6.7215 1795.82 14.3288 1785.86 32.7013 1769.2C49.772 1753.72 65.132 1733.68 87.5211 1725.61C98.7156 1721.55 111.398 1722.15 121.997 1716.35C132.597 1710.55 136.762 1699.5 139.18 1688.49C145.056 1661.64 149.147 1633.71 150.448 1606.26C151.75 1578.81 149.37 1550.47 139.18 1524.66C128.989 1498.85 111.695 1478.32 92.5045 1459.28C70.3386 1437.26 47.0943 1416.25 24.3705 1394.87C-23.1599 1350.2 -70.6531 1305.5 -118.183 1260.83C-129.378 1250.3 -140.833 1240 -151.655 1229.11C-161.883 1218.8 -171.069 1207.31 -175.346 1193.22C-183.603 1165.88 -172.148 1137.47 -158.238 1114.15C-142.544 1087.85 -122.126 1064.42 -103.27 1040.43C-83.0749 1014.81 -62.9174 989.148 -42.7226 963.523C-2.1098 911.901 38.5031 860.317 79.1158 808.696C99.5338 782.736 119.989 756.777 140.407 730.818C155.023 712.222 174.474 687.304 162.982 662.423C157.775 651.154 147.547 643.344 138.064 635.831C125.344 625.79 112.625 615.748 99.9427 605.707C87.2606 595.665 74.504 585.623 61.8218 575.582C51.8174 567.697 41.4039 558.325 28.6473 555.387C3.05981 549.511 -12.0398 577.069 -24.7964 594.289C-41.9787 617.422 -58.9378 640.703 -75.8226 664.06C-109.629 710.846 -142.99 757.93 -176.536 804.94C-244.15 899.666 -312.47 993.982 -386.406 1083.95C-422.742 1128.17 -460.417 1171.31 -499.951 1212.74C-519.7 1233.46 -539.894 1253.73 -560.573 1273.47C-581.251 1293.22 -602.896 1309.77 -619.483 1331.68C-626.81 1341.35 -632.128 1351.43 -633.17 1363.66C-634.286 1376.64 -630.938 1389.59 -625.992 1401.49C-624.913 1404.09 -620.599 1402.94 -621.678 1400.3H-621.864Z" fill="#9B9B9B"/>
<path d="M-109.11 1152.86C-90.9982 1117.49 -68.4231 1084.73 -44.6952 1052.93C-20.9672 1021.13 5.40128 987.325 30.5425 954.596C82.7962 886.537 134.975 818.477 187.266 750.454C197.308 737.363 211.217 720.218 229.106 719.176C246.103 718.172 256.219 734.313 257.111 749.561C258.19 767.488 247.628 783.443 237.437 797.278C224.867 814.311 211.998 831.159 199.279 848.081C148.253 915.992 97.3006 984.015 45.5677 1051.41C19.4967 1085.4 -6.79739 1119.2 -33.3519 1152.79C-39.9719 1161.16 -46.5919 1169.52 -53.2863 1177.86C-58.4559 1184.25 -64.4066 1191.88 -72.9606 1193.55C-90.3289 1196.9 -104.313 1178.64 -107.102 1163.57C-108.441 1156.28 -107.66 1148.88 -104.833 1142.04C-103.755 1139.4 -108.069 1138.25 -109.148 1140.85C-114.689 1154.28 -112.457 1170.23 -104.164 1182.09C-95.8702 1193.96 -79.06 1203.26 -64.8157 1195.19C-56.7452 1190.61 -51.2038 1182.43 -45.5507 1175.33C-38.7075 1166.73 -31.8643 1158.14 -25.0583 1149.52C-11.0744 1131.81 2.83517 1114 16.6703 1096.18C71.7876 1025.15 125.826 953.258 179.828 881.367C193.514 863.143 207.201 844.92 220.887 826.696C233.086 810.481 247.553 794.414 255.958 775.781C262.355 761.649 264.029 745.508 256.628 731.412C249.71 718.209 235.131 711.664 220.776 716.275C204.225 721.594 192.399 736.47 182.208 749.71C168.299 767.822 154.389 785.934 140.48 804.046C112.661 840.271 84.8789 876.495 57.0599 912.719C29.2409 948.943 1.68213 984.833 -25.9881 1020.91C-51.5013 1054.16 -76.9028 1087.67 -98.2506 1123.82C-103.457 1132.59 -108.366 1141.56 -113.015 1150.63C-114.317 1153.2 -110.486 1155.43 -109.148 1152.9L-109.11 1152.86Z" fill="#9B9B9B"/>
<path d="M313.903 796.945C278.162 875.121 241.975 953.148 202.775 1029.69C183.25 1067.81 163.018 1105.52 141.67 1142.64C131.071 1161.05 120.099 1179.2 109.091 1197.35C98.7517 1214.42 89.5656 1232.04 87.8176 1252.24C86.7763 1264.21 87.8175 1276.26 88.8588 1288.2C89.9002 1300.14 91.1274 1312.9 92.5035 1325.21C95.2929 1350.05 98.789 1374.82 102.917 1399.44L106.636 1397.28C70.5609 1367.01 37.6838 1332.91 8.97224 1295.57C-4.26782 1278.35 -21.0411 1258.67 -18.5121 1235.47C-15.9831 1212.26 2.05458 1193.25 16.0757 1175.92C80.7139 1096.04 144.534 1015.48 208.652 935.184C244.764 889.886 280.989 844.661 317.473 799.66C319.258 797.465 316.134 794.267 314.312 796.499C247.665 878.765 181.911 961.702 115.897 1044.45C82.8711 1085.88 49.771 1127.24 16.4477 1168.45C2.5754 1185.63 -14.0863 1203.04 -20.7435 1224.64C-27.4007 1246.25 -18.2889 1265.81 -5.71832 1283.29C25.4851 1326.73 62.5647 1366.12 103.512 1400.48C105.26 1401.97 107.603 1400.56 107.231 1398.33C103.512 1376.16 100.314 1353.92 97.7104 1331.57C95.107 1309.22 92.4293 1288.02 91.9458 1266.22C91.6854 1255.51 92.5779 1244.84 95.7764 1234.57C98.9748 1224.31 103.587 1215.61 108.719 1206.75C119.021 1189.01 130.03 1171.68 140.332 1153.94C182.878 1080.79 221.074 1005.18 257.521 928.825C278.013 885.832 297.948 842.578 317.771 799.251C318.961 796.647 315.093 794.379 313.903 796.982V796.945Z" fill="#9B9B9B"/>
<path d="M177.898 1766.29C168.489 1756.4 183.254 1736.91 187.94 1727.91L202.445 1700.13C203.597 1697.94 200.771 1695.52 198.949 1697.42L197.758 1698.68L201.478 1700.84C216.019 1656.13 224.462 1605.11 215.424 1558.4C211.296 1537.01 202.147 1518.45 188.87 1501.34C174.923 1483.42 158.075 1467.54 146.955 1447.53C132.934 1422.31 133.455 1392.67 131.632 1364.63C129.922 1338.11 127.727 1311.63 126.537 1285.08C124.083 1230.15 149.335 1185.63 177.898 1140.74C179.237 1138.66 176.001 1136.05 174.402 1138.02L172.803 1140.03L176.299 1142.75C236.065 1050.18 287.984 952.886 335.403 853.511C357.904 806.39 377.95 757.855 402.83 711.924C415.513 688.494 429.757 665.77 446.79 645.241C461.072 628.021 477.436 612.661 492.536 596.148C517.975 568.366 540.81 534.522 535.566 494.988C530.954 460.326 507.189 427.635 474.126 415.176C441.063 402.717 402.83 414.097 377.987 438.495C353.143 462.892 343.659 501.608 356.156 535.824C362.701 553.787 374.156 569.966 389.256 581.755C393.384 584.954 397.772 587.854 402.384 590.309C405.322 591.871 413.133 593.768 415.513 595.888C419.864 599.793 401.12 625.752 397.512 632.075C366.495 686.114 338.49 741.826 313.311 798.84L317.477 799.956C320.08 769.124 322.089 736.247 304.683 709.023C287.984 682.915 259.607 665.212 235.396 646.803C204.49 623.261 173.584 599.756 142.641 576.214C126.426 563.866 110.173 551.519 93.9576 539.171C79.7134 528.349 52.8615 515.295 48.9936 496.439C48.6589 494.914 46.9481 494.542 45.7208 495.1L45.0514 495.397L48.1011 498.447C123.227 398.923 198.391 299.363 273.517 199.839C341.837 109.353 408.93 18.7921 451.439 -87.2028C493.428 -191.784 516.04 -302.614 542.372 -411.807C548.88 -438.771 555.612 -465.735 562.901 -492.512C570.191 -519.29 578.038 -548.448 594.923 -572.101C610.692 -594.193 632.04 -611.524 650.003 -631.719C667.966 -651.914 682.136 -671.811 695.897 -693.419C731.378 -749.169 761.168 -808.749 792.78 -866.693C826.215 -928.021 859.687 -989.387 893.122 -1050.71H889.254C918.077 -991.097 983.385 -959.039 1040.96 -933.823C1075.47 -918.723 1116.19 -905.335 1145.95 -881.569C1159.34 -870.858 1153.01 -858.846 1148.51 -845.68L1138.29 -815.852C1130.85 -794.17 1123.45 -772.488 1116.01 -750.805C1115.67 -749.838 1116.23 -748.797 1117.05 -748.276C1129.29 -740.206 1142.04 -734.329 1156.14 -730.35C1156.99 -730.127 1158.3 -730.499 1158.67 -731.391C1193.52 -812.84 1232.57 -892.429 1275.97 -969.638C1285.82 -987.192 1296.01 -1012.26 1319.59 -1012.52C1341.91 -1012.74 1361.62 -996.676 1380.44 -986.634C1395.28 -978.713 1412.13 -971.981 1429.31 -974.101C1444.07 -975.961 1455.45 -984.812 1465.98 -994.742C1520.5 -1046.4 1567.99 -1141.68 1656.14 -1135.03C1697.68 -1131.9 1736.58 -1095.46 1762.43 -1065C1795.23 -1026.35 1793.86 -976.816 1773.66 -932.298C1753.47 -887.78 1723.94 -852.411 1697.57 -814.439C1674.51 -781.19 1641.22 -745.04 1640.55 -702.345C1640.55 -700.523 1643.12 -699.221 1644.35 -700.783L1644.94 -701.49L1641.22 -702.457C1658.96 -651.653 1624.08 -604.607 1588.82 -571.655C1553.56 -538.704 1522.17 -512.187 1500.23 -471.09C1479.59 -432.486 1467.76 -389.976 1457.42 -347.653C1445.15 -297.445 1433.44 -247.162 1419.9 -197.289C1392.26 -95.3104 1360.17 5.44067 1323.65 104.592C1314.35 129.808 1304.79 154.912 1294.94 179.867C1286.42 201.438 1277.64 223.344 1264.07 242.311C1233.09 285.565 1183.06 286.234 1137.17 302.635C1096.82 317.028 1062.83 344.289 1032.11 373.447C993.873 409.746 957.612 448.276 920.904 486.099C846.038 563.234 771.804 641.075 698.872 720.069C563.571 866.528 432.695 1022.21 353.069 1206.98C315.469 1294.26 289.583 1386.98 282.034 1481.89C278.314 1528.79 280.472 1575.91 277.645 1622.85C274.818 1669.78 266.674 1725.57 235.024 1763.36C227.437 1772.39 217.804 1780.2 205.829 1781.95C191.25 1784.03 176.485 1775 174.254 1760.05C173.844 1757.22 169.53 1758.41 169.939 1761.24C172.096 1775.56 184.146 1785.15 198.353 1786.6C214.346 1788.24 228.329 1778.23 238.148 1766.52C265.409 1733.98 275.637 1688.19 280.062 1647.1C285.232 1599.05 282.629 1550.59 285.12 1502.39C287.835 1449.76 296.315 1397.58 309.518 1346.59C362.85 1140.44 488.631 963.969 627.168 806.092C699.281 723.937 774.817 644.72 850.352 565.763C890.035 524.295 929.978 483.013 970.145 442.028C1006.41 404.985 1041.92 365.265 1084.62 335.438C1104.59 321.491 1126.2 310.297 1149.59 303.342C1172.99 296.387 1195.78 293.115 1217.76 284.263C1257.22 268.308 1277.57 234.018 1293.22 196.268C1335.33 94.6993 1370.32 -10.3657 1401.53 -115.766C1417.03 -168.242 1431.39 -221.054 1444.48 -274.163C1456.31 -322.102 1465.83 -370.897 1482.12 -417.609C1499.34 -466.925 1525.33 -507.872 1563.98 -543.092C1596.7 -572.92 1632.67 -601.966 1646.06 -646C1651.86 -665.079 1652.19 -684.716 1645.61 -703.61C1645.13 -705.06 1643.04 -705.99 1641.89 -704.577L1641.3 -703.87L1645.09 -702.308C1645.61 -735.743 1667.26 -762.781 1685.48 -789.038C1703.7 -815.295 1723.75 -843.969 1742.72 -871.565C1773.47 -916.269 1805.38 -970.754 1788.87 -1027.1C1781.51 -1052.17 1763.92 -1071.62 1745.1 -1088.98C1725.8 -1106.8 1705.01 -1125.84 1679.72 -1134.58C1629.47 -1151.99 1578.11 -1122.2 1543.3 -1087.57C1522.06 -1066.45 1503.99 -1042.42 1484.09 -1020.07C1473.68 -1008.35 1462.7 -995.449 1449.58 -986.634C1431.43 -974.473 1410.75 -977.262 1391.74 -985.891C1368.72 -996.304 1346.3 -1017.13 1319.67 -1016.91C1295.83 -1016.68 1285.12 -994.779 1274.89 -976.667C1243.13 -920.471 1213.6 -862.974 1186.41 -804.435C1179.42 -789.372 1172.58 -774.236 1165.88 -759.024C1163.69 -754.041 1161.08 -742.326 1157.07 -738.718C1150.52 -732.842 1138.14 -741.247 1131.55 -744.743C1123.04 -749.243 1122.22 -751.103 1124.12 -760.438C1125.79 -768.545 1129.77 -776.988 1132.48 -784.835C1138.36 -802.017 1144.24 -819.163 1150.11 -836.345C1153.39 -845.866 1163.58 -863.085 1160.41 -873.536C1157.25 -883.987 1139.14 -891.388 1130.55 -896.334C1100.35 -913.74 1067.92 -926.682 1036.12 -940.778C981.488 -964.989 920.495 -996.453 893.196 -1052.91C892.453 -1054.43 890.109 -1054.32 889.328 -1052.91C831.161 -946.245 774.705 -838.465 714.493 -732.953C700.546 -708.519 685.818 -684.493 668.971 -661.955C652.123 -639.418 632.523 -620.152 613.11 -600.032C596.671 -583.036 583.133 -564.924 574.133 -542.869C563.757 -517.393 557.509 -490.058 550.628 -463.466C522.549 -354.459 501.759 -243.294 465.089 -136.667C446.493 -82.6282 423.509 -30.2629 394.574 19.0526C365.639 68.3682 332.019 114.671 297.728 160.379C213.565 272.585 128.731 384.27 44.2331 496.215C42.7082 498.224 45.5348 500.046 47.2828 499.265C39.7329 502.65 59.184 518.233 61.5643 520.092C76.8498 532.068 92.47 543.634 107.942 555.387C138.847 578.929 169.753 602.434 200.696 625.976C229.334 647.77 261.169 668.076 286.497 693.738C316.026 723.64 316.324 760.645 313.014 799.993C312.828 802.15 316.287 803.117 317.179 801.109C348.271 730.669 383.826 662.386 423.732 596.52C424.476 595.293 423.769 593.619 422.393 593.247C388.177 583.838 362.776 553.936 356.267 519.311C349.61 483.868 366.272 449.131 396.136 429.643C425.257 410.638 462.522 409.002 491.383 429.42C520.243 449.838 537.165 487.401 530.545 522.51C523.925 557.618 499.156 583.28 475.763 607.491C451.03 633.116 428.604 659.224 410.269 689.907C370.809 755.959 343.027 829.114 308.923 897.992C267.715 981.151 222.9 1062.53 172.543 1140.52C171.204 1142.6 174.439 1145.2 176.039 1143.23L177.638 1141.22L174.142 1138.51C149.41 1177.37 123.934 1218.62 121.963 1266C120.847 1293.22 124.417 1321 126.165 1348.15C127.765 1372.7 127.541 1398.18 132.822 1422.24C142.567 1466.76 184.072 1491.01 202.333 1530.87C225.689 1581.86 213.974 1648.44 197.312 1699.65C196.605 1701.77 199.544 1703.4 201.031 1701.8L202.221 1700.54L198.725 1697.83C190.171 1714.15 180.093 1730.41 172.915 1747.4C169.493 1755.47 168.526 1762.76 174.848 1769.42C176.82 1771.5 179.981 1768.34 178.01 1766.26L177.898 1766.29Z" fill="#9B9B9B"/>
<path d="M1278.79 1469.62C1283.4 1453.11 1271.5 1438.6 1254.09 1445.45C1243.71 1449.5 1236.76 1459.21 1230.44 1467.87C1222.22 1479.1 1214.22 1490.48 1206.04 1501.72C1189.27 1524.74 1171.71 1547.46 1150.55 1566.62C1131.81 1583.61 1110.35 1596.52 1087.36 1606.89C1044.48 1626.2 997.918 1637.32 956.971 1660.89C947.785 1666.18 939.008 1672.13 930.826 1678.86C926.474 1682.43 922.346 1686.26 918.404 1690.28C915.577 1693.21 911.412 1700.84 907.879 1702.47C903.974 1704.3 895.085 1699.35 891.18 1697.94C882.997 1694.89 874.964 1691.47 867.08 1687.71C853.988 1681.46 841.381 1674.28 829.331 1666.21C821.335 1660.86 810.177 1655.32 809.136 1645.2C808.094 1635.08 815.124 1625.94 819.81 1617.31C826.318 1605.26 832.603 1592.61 834.054 1578.81C836.248 1558.43 823.752 1534.44 801.326 1533.74C800.582 1533.74 799.726 1534.18 799.392 1534.85C781.614 1570.48 760.155 1604.18 735.014 1635.08C723.41 1649.33 711.323 1663.68 697.228 1675.55C680.678 1689.46 661.487 1696.93 640.065 1699.28C620.056 1701.47 599.675 1700.69 579.592 1700.5C557.947 1700.28 536.301 1699.72 514.656 1698.9C472.667 1697.27 430.678 1694.52 388.838 1690.61C379.206 1689.72 368.086 1690.02 358.825 1687.19C345.994 1683.28 346.887 1666.4 345.659 1655.54C343.391 1635.46 341.829 1615.3 340.973 1595.14C339.263 1555.38 340.229 1515.48 343.874 1475.83C351.164 1396.06 369.276 1317.14 397.839 1242.27C426.885 1166.18 468.502 1093.21 531.429 1040.14L527.636 1038.57C528.975 1076.1 531.132 1112.59 545.748 1147.62C558.207 1177.52 577.137 1204.48 600.122 1227.25C650.925 1277.6 719.319 1304.16 789.759 1311.15C869.386 1319.03 948.975 1302.41 1023.88 1276.19C1061.92 1262.87 1099.75 1247.59 1136.2 1230.37C1159.92 1219.14 1188.52 1196.9 1176.96 1166.77C1175.21 1162.2 1172.31 1157.62 1168.29 1154.69C1162.68 1150.59 1156.46 1155.84 1150.66 1158.22C1132.51 1165.66 1114.51 1173.39 1096.44 1181.02C1056.46 1197.98 1016.29 1214.71 974.86 1227.8C896.386 1252.65 808.652 1264.96 729.324 1236.65C664.797 1213.63 607.299 1162.42 590.861 1094.14C571.744 1014.77 608.155 934.365 656.28 872.888C680.715 841.647 708.645 813.345 736.725 785.377C767.891 754.322 799.131 723.342 830.335 692.325C893.857 629.174 957.417 566.023 1020.94 502.873C1036.49 487.438 1052.03 471.967 1067.58 456.532C1069.51 454.599 1067.06 452.107 1064.86 453.037L1062.67 453.966L1065.38 457.462C1089.33 430.796 1116.93 407.589 1147.61 389.031C1162.9 379.77 1180.82 368.204 1198.49 364.633C1211.14 362.067 1228.95 368.166 1225.53 384.27C1223.59 393.307 1216.49 402.196 1212.03 410.192C1195.22 440.392 1180.79 471.893 1178.78 506.889C1177.03 537.609 1183.84 568.775 1198.08 596.037C1201.58 602.768 1205.56 609.24 1209.98 615.413C1214.74 622.071 1221.21 627.984 1225.16 635.125C1230.81 645.315 1225.27 655.766 1221.59 665.621C1218.2 674.585 1214.82 683.548 1211.25 692.436C1204.22 709.991 1196.56 727.322 1187.52 743.946C1179 759.529 1168.55 773.364 1158.47 787.943C1150.74 799.138 1144.56 812.304 1148.84 826.064C1152.56 838.114 1162.53 847.672 1173.61 853.251C1195.14 864.074 1222.81 861.136 1242.04 846.743C1264.95 829.56 1270.72 798.282 1260.04 772.472C1257.66 766.67 1254.46 761.203 1250.45 756.368C1247.99 753.393 1245.13 751.087 1242.45 748.335C1239.14 744.913 1239.4 744.653 1240.59 739.111C1245.31 717.54 1253.38 696.974 1264.21 677.783L1260.71 678.229C1306.42 725.351 1379.57 703.891 1425.54 669.526C1454.37 647.956 1478.8 621.327 1505.84 597.673C1534.25 572.829 1565.16 550.887 1597.96 532.179C1662.45 495.397 1736.46 468.657 1810.77 462.074C1847.51 458.801 1886.53 461.59 1919.18 480.26C1951.84 498.93 1971.99 530.171 1988.73 562.193C2029.12 639.402 2064.71 720.107 2088.88 803.935C2089.52 806.167 2092.42 805.907 2093.2 803.935L2093.65 802.745L2089.55 803.266C2141.03 921.274 2155.64 1050.48 2165.05 1177.67C2167.28 1207.76 2170.22 1238.03 2170.59 1268.19C2170.97 1298.54 2167.32 1330.12 2149.88 1355.85C2115.51 1406.62 2049.87 1418.48 1994.9 1433.36C1944.17 1447.08 1899.36 1469.14 1863.65 1508.45C1831.82 1543.56 1809.76 1586.59 1794.55 1631.25C1756.43 1743.24 1766.55 1862.51 1755.54 1978.54C1752.38 2011.68 1747.43 2044.74 1739.14 2077.03C1732.26 2103.73 1723.96 2132.74 1704.96 2153.64C1656.43 2206.94 1583.68 2147.43 1535.89 2123.48C1480.81 2095.88 1422.05 2073.9 1361.83 2060.55C1333.2 2054.19 1302.55 2051.03 1274.7 2062.37C1253.2 2071.15 1235.53 2087.03 1221.62 2105.37C1185.32 2153.23 1177.92 2214.89 1147.84 2265.92C1139.99 2279.24 1129.58 2292.18 1114.4 2297.27C1097.59 2302.89 1078.29 2296.79 1061.48 2293.59C1028.19 2287.27 994.869 2280.95 961.583 2274.59C927.664 2268.15 893.709 2261.68 859.79 2255.25C830.558 2249.71 794.297 2247.51 775.664 2220.88C760.527 2199.24 759.188 2170.53 761.717 2145.12C764.841 2113.33 773.767 2082.27 785.631 2052.7C809.545 1993.01 844.207 1937.19 878.906 1883.3C896.833 1855.48 915.503 1828.18 934.916 1801.4C952.843 1776.67 971.066 1751.86 992.674 1730.22C1014.43 1708.43 1039.2 1691.65 1068.4 1681.57C1095.36 1672.28 1122.88 1665.8 1147.46 1650.78C1189.79 1624.89 1219.84 1583.54 1243.79 1540.95C1256.4 1518.49 1267.55 1495.28 1278.45 1471.96C1279.68 1469.36 1275.81 1467.09 1274.58 1469.69C1251.71 1518.6 1227.57 1568.66 1190.75 1608.79C1172.87 1628.28 1151.85 1645.05 1127.83 1656.28C1099.52 1669.52 1067.99 1674.13 1040.2 1688.64C987.802 1716.01 952.545 1768.56 919.296 1815.57C880.766 1869.98 844.691 1926.51 812.967 1985.16C784.255 2038.24 758.296 2097.04 756.399 2158.33C755.655 2181.76 759.337 2207.46 774.251 2226.39C791.173 2247.85 818.322 2251.9 843.575 2256.7C913.308 2269.94 983.079 2283.21 1052.81 2296.45C1079 2301.44 1108.71 2311.29 1131.73 2292.66C1153.01 2275.48 1163.68 2246.25 1173.2 2221.51C1193.95 2167.62 1210.8 2102.61 1264.95 2072.01C1296.27 2054.3 1332.34 2058.1 1366 2066.02C1397.39 2073.42 1428.33 2083.09 1458.53 2094.43C1488.73 2105.78 1519.93 2119.8 1549.28 2135.34C1576.24 2149.62 1602.24 2167.7 1631.92 2175.96C1656.17 2182.69 1681.64 2180.2 1701.24 2163.42C1720.84 2146.65 1729.92 2123.55 1737.06 2100.72C1776.22 1975.76 1756.92 1843.02 1778.26 1715.38C1794.78 1616.49 1838.51 1508.97 1932.5 1460.66C1987.06 1432.62 2051.14 1431.02 2104.91 1400.97C2127.41 1388.39 2147.83 1370.91 2159.85 1347.74C2172.83 1322.79 2175.47 1294.19 2174.98 1266.52C2174.46 1235.13 2171.45 1203.67 2169.11 1172.35C2166.65 1139.44 2163.83 1106.56 2160.07 1073.79C2152.89 1010.83 2142.44 948.014 2124.59 887.095C2116 857.751 2105.62 829.002 2093.38 800.997C2092.53 799.064 2089.89 799.956 2089.29 801.518L2088.85 802.708H2093.16C2071.81 728.586 2040.95 658.443 2007.18 589.268C1991.85 557.878 1976.38 525.559 1951.8 500.232C1927.21 474.905 1897.76 462.52 1864.58 458.206C1829.55 453.669 1793.88 458.318 1759.59 465.644C1725.3 472.971 1688.97 484.426 1655.38 498.707C1586.47 528.051 1526.89 570.747 1472.81 622.108C1442.76 650.633 1411.04 681.391 1370.65 694.296C1334.61 705.862 1291.51 703.519 1263.87 675.031C1262.87 674.027 1261.08 674.25 1260.38 675.477C1247.92 697.606 1239.29 721.297 1234.64 746.252C1234.45 747.293 1234.79 748.149 1235.68 748.781C1259.07 765.182 1267.85 798.989 1254.95 824.688C1242.04 850.387 1210.76 860.689 1184.69 852.842C1169.48 848.267 1153.01 835.697 1151.89 818.552C1150.77 801.406 1164.5 787.609 1173.65 774.703C1191.68 749.339 1204.7 720.85 1216.19 692.027C1219.13 684.7 1221.92 677.337 1224.71 669.936C1227.5 662.534 1231.59 654.65 1232.37 646.803C1233.6 633.897 1222.66 624.971 1215.64 615.599C1197.37 591.165 1186.33 561.486 1183.65 531.138C1180.68 497.592 1188.93 465.793 1203.62 435.743C1210.95 420.755 1220.47 406.771 1227.5 391.671C1231.63 382.82 1231.81 373.373 1224.23 366.307C1213.85 356.637 1199.2 358.794 1187.11 363.592C1171.12 369.914 1155.76 378.654 1141.22 387.766C1111.87 406.101 1085.35 428.602 1062.26 454.338C1060.47 456.309 1062.71 458.801 1064.97 457.834L1067.17 456.905L1064.45 453.409C1002.27 515.183 940.123 576.995 877.94 638.769C817.801 698.536 756.213 757.186 697.785 818.663C647.391 871.661 600.977 932.171 586.1 1005.44C572.712 1071.56 590.266 1137.35 638.428 1185.18C686.628 1233.05 753.163 1255.55 820.182 1257.18C901.519 1259.19 980.029 1233.57 1054.49 1203.33C1072.64 1195.97 1090.71 1188.27 1108.75 1180.61C1118.64 1176.41 1128.5 1172.24 1138.39 1168.07C1145.9 1164.95 1161.63 1154.65 1168.51 1161.01C1182.68 1174.17 1172.16 1198.83 1160.93 1209.47C1147.61 1222.11 1129.13 1228.77 1112.58 1235.99C1037.3 1268.9 958.682 1298.09 876.378 1306.28C800.098 1313.9 719.356 1303.49 652.97 1262.99C595.882 1228.14 549.988 1171.31 537.38 1104.66C533.252 1082.87 532.805 1060.59 532.024 1038.5C531.95 1036.45 529.681 1035.67 528.231 1036.94C457.159 1096.82 413.384 1181.61 383.632 1268.23C350.011 1366.19 333.87 1470.14 335.804 1573.68C336.287 1599.83 337.961 1625.94 340.75 1651.93C342.647 1669.34 341.754 1689.2 362.767 1692.4C388.876 1696.38 415.802 1697.53 442.096 1699.35C470.064 1701.32 498.032 1702.77 526.074 1703.7C553.93 1704.63 581.824 1705.15 609.68 1705C632.329 1704.89 655.722 1703.93 676.587 1694.22C697.451 1684.51 714.298 1666.25 729.361 1648.66C745.093 1630.32 759.597 1610.87 772.763 1590.6C780.201 1579.11 787.23 1567.28 793.776 1555.27C796.64 1550.03 799.727 1538.87 805.863 1538.61C812.781 1538.31 819.921 1546.12 823.269 1551.33C839.521 1576.43 821.595 1603.81 809.694 1626.42C804.859 1635.57 800.284 1645.53 807.425 1654.8C813.822 1663.05 825.351 1669.11 834.054 1674.58C856.927 1688.97 881.622 1700.09 907.395 1708.09C908.436 1708.43 909.329 1707.87 909.924 1707.05C945.888 1659.18 1006.51 1643.23 1059.84 1622.89C1085.5 1613.1 1111.05 1602.1 1133.48 1586.03C1159.33 1567.51 1180.23 1543.3 1199.31 1518.08C1210.61 1503.13 1221.33 1487.77 1232.33 1472.63C1238.25 1464.53 1244.5 1455 1253.76 1450.36C1267.81 1443.29 1278.27 1454.48 1274.4 1468.39C1273.62 1471.18 1277.93 1472.34 1278.71 1469.58L1278.79 1469.62Z" fill="#9B9B9B"/>
<path d="M431.948 455.193C413.278 459.656 402.046 477.582 401.042 495.992C400.038 514.401 407.439 537.088 427.225 542.406C445.969 547.427 468.247 539.729 481.747 526.228C495.248 512.728 495.099 490.264 486.024 474.049C481.003 465.011 473.119 457.462 463.338 453.817C453.556 450.172 441.99 450.99 431.799 454.226C429.084 455.081 430.237 459.396 432.99 458.54C449.651 453.259 466.871 456.011 478.14 470.255C488.218 483.012 492.272 503.653 482.863 517.897C473.454 532.141 453.742 539.989 437.304 539.394C427.931 539.059 419.006 535.749 413.501 527.827C408.629 520.835 406.249 511.947 405.58 503.541C404.092 484.648 413.427 464.268 433.101 459.544C435.89 458.875 434.7 454.561 431.911 455.23L431.948 455.193Z" fill="#9B9B9B"/>
<path d="M788.614 -569.052L466.055 1.34937L1025.97 289.804L1377.54 -438.883L1346.3 -569.052H788.614Z" fill="#9B9B9B"/>
<path d="M1013.54 904.573L1013.88 905.429L677.037 1037.72L632.891 925.363L924.135 810.963L1054.34 617.866L1159.18 688.567L1013.54 904.573Z" fill="#9B9B9B"/>
<path d="M20.3111 604.33L-264.945 1013.8L-189.931 1110.13L114.405 680.014L30.4643 604.33" fill="#9B9B9B"/>
<path d="M743.493 386.874L671.379 488.927L421.38 312.268L273.694 521.246L390.511 603.81L332.01 686.598L78.1797 507.225L136.719 424.437L137.611 425.107L306.124 186.711L306.459 186.934L357.746 114.3L743.493 386.874Z" fill="#F55B1D"/>
<path d="M429.862 503.764C420.081 504.322 410.746 495.545 410.672 485.727C410.672 480.557 413.015 475.35 417.255 472.412C421.494 469.474 427.557 469.214 431.759 472.189C432.28 467.503 434.437 462.891 438.156 460.065C441.875 457.238 447.305 456.42 451.433 458.651C455.561 460.883 457.793 466.425 455.859 470.702C461.177 465.681 470.512 465.42 475.608 470.627C480.703 475.834 479.885 485.801 473.599 489.557C480.033 493.909 482.562 503.169 479.252 510.199C475.942 517.228 467.202 521.17 459.727 519.013C457.235 525.447 451.247 530.542 444.404 531.509C437.561 532.476 430.197 529.017 426.924 522.955C423.652 516.893 425.028 508.525 430.383 504.136" fill="#029C54"/>
<path d="M442.285 480.601H433.262V481.534H441.181V482.022C441.174 483.614 441.174 485.292 440.722 487.545L441.826 487.674C442.278 485.3 442.278 483.657 442.285 482.022V480.601ZM432.042 490.256H443.663V489.324H439.215V485.12H438.111V489.324H436.045V485.12H434.926V489.324H432.042V490.256ZM456.359 485.465H444.739V486.383H447.823V488.004H446.03V488.908H453.791V492.064H454.924V488.004H453.26V486.383H456.359V485.465ZM446.03 482.05C446.03 483.585 447.773 484.503 450.549 484.489C453.31 484.503 455.046 483.585 455.054 482.05C455.046 480.522 453.31 479.611 450.549 479.626C447.773 479.611 446.03 480.522 446.03 482.05ZM447.192 482.05C447.185 481.103 448.483 480.515 450.549 480.53C452.593 480.515 453.899 481.103 453.906 482.05C453.899 483.019 452.593 483.607 450.549 483.614C448.483 483.607 447.185 483.019 447.192 482.05ZM448.956 488.004V486.383H452.156V488.004H448.956ZM464.508 480.3H458.152V481.247H463.396C463.381 482.057 463.353 483.141 463.044 484.661L464.178 484.747C464.5 483.083 464.5 481.814 464.508 480.974V480.3ZM457.363 485.938L457.478 486.871C459.752 486.863 462.822 486.813 465.498 486.354L465.426 485.522C464.099 485.709 462.635 485.809 461.222 485.866V483.126H460.103V485.902C459.121 485.931 458.188 485.938 457.363 485.938ZM459.329 491.791H467.85V490.844H460.462V488.047H459.329V491.791ZM466.287 488.908H467.434V484.432H469.299V483.471H467.434V479.31H466.287V488.908ZM450.326 502.403H448.261V497.31H447.142V510.064H448.261V503.35H450.326V502.403ZM438.921 506.822H439.94C441.869 506.822 443.849 506.693 446.051 506.248L445.908 505.287C443.806 505.731 441.905 505.875 440.04 505.875V498.573H438.921V506.822ZM462.75 504.727H451.072V505.66H456.323V510.064H457.428V505.66H462.75V504.727ZM452.579 502.991H461.23V498.027H452.579V502.991ZM453.683 502.102V498.946H460.111V502.102H453.683Z" fill="#FFF9F1"/>
<path d="M538.989 302.311L512.475 285.218L509.91 289.197L531.381 303.039C528.682 307.183 525.506 312.023 520.102 317.853L524.747 321.462C530.728 315.083 533.89 310.178 536.729 305.818L538.989 302.311ZM490.957 311.501L523.657 332.582L526.298 328.485L514.479 320.865L521.743 309.598L516.779 306.397L509.515 317.665L505.575 315.125L512.839 303.857L507.836 300.632L500.572 311.899L493.598 307.404L490.957 311.501ZM568.022 340.326L535.323 319.245L532.757 323.224L540.479 328.202L538.32 331.551L534.223 328.909L531.683 332.849L551.776 345.803L546.721 353.643L551.725 356.869L559.319 345.089L555.419 342.574L557.578 339.226L565.457 344.305L568.022 340.326ZM544.384 312.37C541.552 316.763 544.953 322.777 552.892 327.895C560.771 332.974 567.652 333.59 570.504 329.21C573.304 324.824 569.902 318.811 562.01 313.751C554.084 308.613 547.203 307.997 544.384 312.37ZM549.624 315.749C550.918 313.655 554.485 314.393 559.496 317.651C564.453 320.819 566.637 323.789 565.304 325.858C563.932 327.985 560.351 327.182 555.406 323.994C550.383 320.756 548.213 317.851 549.624 315.749ZM543.403 334.827L545.561 331.479L552.614 336.025L550.455 339.374L543.403 334.827ZM599.4 340.533L580.962 328.647L578.321 332.744L591.854 341.469C590.43 343.59 588.583 346.109 585.724 349.117L590.343 352.765C594.041 348.846 596.352 345.261 597.952 342.779L599.4 340.533ZM568.929 342.64L566.772 346.938C573.029 350.944 581.509 356.216 589.864 359.65L591.925 355.848C588.239 354.169 584.417 352.095 580.73 349.941L585.163 343.067L580.159 339.841L575.625 346.873C573.204 345.396 570.938 343.935 568.929 342.64ZM563.083 363.299L588.258 379.53L590.849 375.511L570.717 362.532L575.086 355.756L570.043 352.504L563.083 363.299ZM587.404 367.099L592.565 370.427L600.109 358.726L604.442 361.52L607.16 357.304L602.826 354.51L609.862 343.597L604.701 340.27L587.404 367.099ZM610.478 389.616L616.867 384.421L627.189 391.076L625.094 399.039L631.437 403.129L639.977 368.255L632.374 363.353L604.096 385.501L610.478 389.616ZM621.336 380.777L631.937 372.162L632.134 372.289L628.664 385.501L621.336 380.777ZM675.962 410.194L662.055 401.228L664.036 398.155L674.2 404.708L676.74 400.768L656.687 387.84L659.557 383.388L679.413 396.19L681.928 392.289L657.068 376.262L649.144 388.554L659.111 394.98L657.13 398.053L643.183 389.062L640.643 393.001L673.422 414.134L675.962 410.194ZM638.951 403.845C636.246 408.041 639.437 413.473 647.277 418.527C655.058 423.543 661.263 424.17 664.007 419.999C666.711 415.719 663.566 410.345 655.785 405.329C647.945 400.275 641.694 399.59 638.951 403.845ZM644.072 407.147C645.246 405.283 648.358 405.95 653.322 409.151C658.187 412.287 660.138 414.884 658.964 416.748C657.738 418.607 654.606 417.842 649.74 414.706C644.776 411.505 642.846 409.006 644.072 407.147Z" fill="white"/>
<path d="M233.067 412.349L214.242 437.664L218.042 440.49L233.286 419.989C237.24 422.959 241.857 426.451 247.314 432.232L251.224 427.837C245.259 421.445 240.576 417.962 236.414 414.839L233.067 412.349ZM239.032 460.888L262.247 429.667L258.335 426.758L249.944 438.043L239.186 430.043L235.662 434.783L246.42 442.782L243.623 446.544L232.865 438.544L229.313 443.321L240.071 451.321L235.12 457.979L239.032 460.888ZM272.933 385.917L249.718 417.137L253.517 419.962L258.999 412.59L262.196 414.967L259.287 418.879L263.049 421.676L277.314 402.492L284.799 408.059L288.352 403.281L277.105 394.918L274.336 398.642L271.138 396.265L276.732 388.742L272.933 385.917ZM243.463 407.638C247.657 410.757 253.884 407.764 259.52 400.184C265.114 392.661 266.188 385.836 262.007 382.699C257.818 379.613 251.591 382.606 246.016 390.143C240.361 397.708 239.288 404.533 243.463 407.638ZM247.183 402.635C245.18 401.204 246.155 397.694 249.74 392.912C253.231 388.177 256.341 386.196 258.315 387.664C260.347 389.175 259.306 392.695 255.796 397.415C252.23 402.211 249.186 404.183 247.183 402.635ZM265.805 410.115L262.607 407.737L267.614 401.004L270.811 403.382L265.805 410.115ZM275.233 354.622L262.143 372.226L266.055 375.135L275.662 362.215C277.685 363.777 280.074 365.787 282.885 368.841L286.833 364.475C283.17 360.524 279.747 357.979 277.377 356.217L275.233 354.622ZM275.302 385.166L279.447 387.605C283.861 381.629 289.687 373.52 293.671 365.412L290.015 363.102C288.093 366.668 285.769 370.343 283.375 373.878L276.811 368.997L273.258 373.775L279.973 378.767C278.337 381.085 276.729 383.248 275.302 385.166ZM295.526 392.377L313.399 368.341L309.562 365.488L295.269 384.709L288.799 379.898L285.219 384.713L295.526 392.377ZM300.94 368.364L304.604 363.436L293.432 355.129L296.509 350.991L292.484 347.998L289.407 352.136L278.988 344.388L275.324 349.316L300.94 368.364ZM321.561 351.395L330.148 339.847C334.721 333.697 333.929 328.084 329.617 324.849C325.578 321.875 320.98 322.953 318.55 325.907L318.286 325.711C319.749 322.447 319.303 318.844 316.092 316.486C312.006 313.418 306.844 314.311 302.383 320.311L294.327 331.144L321.561 351.395ZM321.092 342.284L313.795 336.858L317.459 331.93C319.529 329.146 322.447 328.6 324.727 330.325C326.791 331.831 327.096 334.248 324.644 337.507L321.092 342.284ZM309.92 333.977L303.112 328.914L306.44 324.438C308.356 321.861 310.782 321.387 312.743 322.874C314.939 324.478 314.946 327.257 313.165 329.613L309.92 333.977ZM347.523 286L337.65 299.278L334.716 297.096L341.932 287.392L338.171 284.594L323.934 303.741L319.683 300.58L333.78 281.622L330.056 278.853L312.407 302.588L324.143 311.315L331.219 301.798L334.153 303.98L324.252 317.296L328.013 320.093L351.285 288.797L347.523 286ZM338.72 322.505C342.726 325.484 348.358 322.662 353.925 315.177C359.449 307.748 360.488 301.598 356.509 298.582C352.419 295.599 346.848 298.378 341.323 305.807C335.757 313.292 334.658 319.484 338.72 322.505ZM342.356 317.615C340.574 316.319 341.448 313.259 344.972 308.52C348.426 303.874 351.147 302.101 352.929 303.397C354.702 304.744 353.73 307.818 350.276 312.464C346.752 317.203 344.129 318.962 342.356 317.615Z" fill="white"/>
<mask id="path-15-inside-1_1_10404" fill="white">
<path d="M506.047 371.902L525.555 385.881L511.576 405.39L492.068 391.41L506.047 371.902Z"/>
</mask>
<path d="M506.047 371.902L525.555 385.881L511.576 405.39L492.068 391.41L506.047 371.902Z" fill="#FFF258"/>
<path d="M506.047 371.902L506.338 371.495L505.932 371.204L505.64 371.611L506.047 371.902ZM525.555 385.881L525.759 386.027L526.05 385.62L525.847 385.475L525.555 385.881ZM511.576 405.39L511.285 405.796L511.488 405.942L511.779 405.535L511.576 405.39ZM492.068 391.41L491.661 391.119L491.37 391.526L491.776 391.817L492.068 391.41ZM505.756 372.308L525.264 386.288L525.847 385.475L506.338 371.495L505.756 372.308ZM525.352 385.735L511.373 405.244L511.779 405.535L525.759 386.027L525.352 385.735ZM511.867 404.983L492.359 391.004L491.776 391.817L511.285 405.796L511.867 404.983ZM492.474 391.702L506.453 372.193L505.64 371.611L491.661 391.119L492.474 391.702Z" fill="#1F2225" mask="url(#path-15-inside-1_1_10404)"/>
<mask id="path-17-inside-2_1_10404" fill="white">
<path d="M525.555 385.881L545.063 399.86L531.084 419.369L511.575 405.39L525.555 385.881Z"/>
</mask>
<path d="M525.555 385.881L545.063 399.86L531.084 419.369L511.575 405.39L525.555 385.881Z" fill="#FFF258"/>
<path d="M525.555 385.881L525.846 385.475L525.643 385.329L525.351 385.735L525.555 385.881ZM545.063 399.86L545.47 400.152L545.761 399.745L545.354 399.454L545.063 399.86ZM531.084 419.369L530.793 419.775L531.199 420.066L531.49 419.66L531.084 419.369ZM511.575 405.39L511.372 405.244L511.081 405.65L511.284 405.796L511.575 405.39ZM525.263 386.288L544.772 400.267L545.354 399.454L525.846 385.475L525.263 386.288ZM544.657 399.569L530.678 419.078L531.49 419.66L545.47 400.152L544.657 399.569ZM531.375 418.962L511.867 404.983L511.284 405.796L530.793 419.775L531.375 418.962ZM511.779 405.535L525.758 386.027L525.351 385.735L511.372 405.244L511.779 405.535Z" fill="#1F2225" mask="url(#path-17-inside-2_1_10404)"/>
<path d="M503.777 395.095C502.723 394.34 502.133 393.474 502.006 392.497C501.892 391.53 502.227 390.5 503.01 389.408L503.806 388.296L505.835 389.749L504.969 390.959C504.326 391.856 504.375 392.571 505.116 393.102C505.48 393.363 505.832 393.448 506.173 393.357C506.536 393.263 506.922 392.93 507.332 392.358L508.129 391.246C508.576 390.621 508.783 390.1 508.748 389.681C508.723 389.25 508.463 388.857 507.969 388.503L507.247 387.986L508.645 386.035L509.425 386.594C509.854 386.901 510.252 387.019 510.619 386.947C510.998 386.885 511.374 386.593 511.747 386.073L512.46 385.078C512.796 384.61 512.945 384.195 512.908 383.834C512.872 383.473 512.691 383.176 512.366 382.943C511.676 382.45 511.029 382.625 510.423 383.471L509.78 384.368L507.751 382.914L508.268 382.192C509.051 381.1 509.919 380.452 510.872 380.249C511.837 380.055 512.827 380.322 513.842 381.049C514.869 381.785 515.44 382.637 515.554 383.604C515.677 384.558 515.347 385.582 514.564 386.674L514.215 387.162C513.683 387.903 513.131 388.413 512.558 388.691C511.994 388.956 511.382 389 510.722 388.822L510.694 388.861C511.104 389.47 511.265 390.097 511.177 390.742C511.088 391.388 510.783 392.074 510.261 392.803L509.394 394.012C508.612 395.105 507.737 395.748 506.772 395.942C505.828 396.132 504.83 395.85 503.777 395.095Z" fill="#1F2225"/>
<path d="M524.933 407.15L520.837 404.215L522.234 402.264L532.748 395.832L535.089 397.51L528.477 406.737L529.492 407.464L528.094 409.415L527.079 408.688L525.304 411.166L523.158 409.628L524.933 407.15ZM526.331 405.199L530.148 399.874L530.109 399.846L524.185 403.662L526.331 405.199Z" fill="#1F2225"/>
<mask id="path-21-inside-3_1_10404" fill="white">
<path d="M396.047 512.902L415.555 526.881L401.576 546.39L382.068 532.41L396.047 512.902Z"/>
</mask>
<path d="M396.047 512.902L415.555 526.881L401.576 546.39L382.068 532.41L396.047 512.902Z" fill="#FFF258"/>
<path d="M396.047 512.902L396.338 512.495L395.932 512.204L395.64 512.611L396.047 512.902ZM415.555 526.881L415.759 527.027L416.05 526.62L415.847 526.475L415.555 526.881ZM401.576 546.39L401.285 546.796L401.488 546.942L401.779 546.535L401.576 546.39ZM382.068 532.41L381.661 532.119L381.37 532.526L381.776 532.817L382.068 532.41ZM395.756 513.308L415.264 527.288L415.847 526.475L396.338 512.495L395.756 513.308ZM415.352 526.735L401.373 546.244L401.779 546.535L415.759 527.027L415.352 526.735ZM401.867 545.983L382.359 532.004L381.776 532.817L401.285 546.796L401.867 545.983ZM382.474 532.702L396.453 513.193L395.64 512.611L381.661 532.119L382.474 532.702Z" fill="#1F2225" mask="url(#path-21-inside-3_1_10404)"/>
<mask id="path-23-inside-4_1_10404" fill="white">
<path d="M415.555 526.881L435.063 540.86L421.084 560.369L401.575 546.39L415.555 526.881Z"/>
</mask>
<path d="M415.555 526.881L435.063 540.86L421.084 560.369L401.575 546.39L415.555 526.881Z" fill="#FFF258"/>
<path d="M415.555 526.881L415.846 526.475L415.643 526.329L415.351 526.735L415.555 526.881ZM435.063 540.86L435.47 541.152L435.761 540.745L435.354 540.454L435.063 540.86ZM421.084 560.369L420.793 560.775L421.199 561.066L421.49 560.66L421.084 560.369ZM401.575 546.39L401.372 546.244L401.081 546.65L401.284 546.796L401.575 546.39ZM415.263 527.288L434.772 541.267L435.354 540.454L415.846 526.475L415.263 527.288ZM434.657 540.569L420.678 560.078L421.49 560.66L435.47 541.152L434.657 540.569ZM421.375 559.962L401.867 545.983L401.284 546.796L420.793 560.775L421.375 559.962ZM401.779 546.535L415.758 527.027L415.351 526.735L401.372 546.244L401.779 546.535Z" fill="#1F2225" mask="url(#path-23-inside-4_1_10404)"/>
<path d="M401.342 525.454L399.099 523.846L400.189 522.325C400.8 522.763 401.325 523.06 401.764 523.217C402.216 523.383 402.636 523.429 403.025 523.353C403.423 523.264 403.87 523.053 404.365 522.719L405.809 523.753L396.023 537.409L393.877 535.872L401.342 525.454Z" fill="#1F2225"/>
<path d="M410.592 546.545C411.291 545.57 412.043 544.849 412.849 544.384C413.665 543.905 414.778 543.532 416.191 543.264C417.59 542.987 418.653 542.657 419.381 542.273C420.122 541.898 420.725 541.386 421.191 540.736C421.611 540.15 421.802 539.677 421.765 539.317C421.751 538.952 421.562 538.639 421.198 538.378C420.456 537.847 419.764 538.03 419.121 538.928L418.073 540.391L416.044 538.937L416.994 537.61C417.786 536.505 418.665 535.855 419.631 535.661C420.606 535.454 421.614 535.724 422.654 536.469C423.694 537.215 424.273 538.083 424.391 539.072C424.518 540.049 424.185 541.09 423.393 542.195C422.797 543.028 422.013 543.696 421.041 544.201C420.082 544.714 418.747 545.136 417.035 545.464C415.914 545.684 415.088 545.929 414.56 546.2C414.04 546.457 413.608 546.827 413.263 547.308L413.054 547.601L417.131 550.522L415.733 552.473L409.529 548.028L410.592 546.545Z" fill="#1F2225"/>
<mask id="path-27-inside-5_1_10404" fill="white">
<path d="M314.07 463.25L327.816 443.576L347.49 457.321L333.744 476.995L314.07 463.25Z"/>
</mask>
<path d="M314.07 463.25L327.816 443.576L347.49 457.321L333.744 476.995L314.07 463.25Z" fill="#FFF258"/>
<path d="M314.07 463.25L313.66 462.964L313.374 463.374L313.784 463.66L314.07 463.25ZM327.816 443.576L327.959 443.371L327.549 443.085L327.406 443.29L327.816 443.576ZM347.49 457.321L347.899 457.608L348.043 457.403L347.633 457.116L347.49 457.321ZM333.744 476.995L333.458 477.405L333.868 477.691L334.154 477.282L333.744 476.995ZM314.48 463.536L328.225 443.862L327.406 443.29L313.66 462.964L314.48 463.536ZM327.672 443.781L347.346 457.526L347.633 457.116L327.959 443.371L327.672 443.781ZM347.08 457.035L333.334 476.709L334.154 477.282L347.899 457.608L347.08 457.035ZM334.031 476.585L314.357 462.84L313.784 463.66L333.458 477.405L334.031 476.585Z" fill="#1F2225" mask="url(#path-27-inside-5_1_10404)"/>
<mask id="path-29-inside-6_1_10404" fill="white">
<path d="M327.816 443.576L341.562 423.902L361.236 437.647L347.49 457.321L327.816 443.576Z"/>
</mask>
<path d="M327.816 443.576L341.562 423.902L361.236 437.647L347.49 457.321L327.816 443.576Z" fill="#FFF258"/>
<path d="M327.816 443.576L327.407 443.29L327.263 443.495L327.673 443.781L327.816 443.576ZM341.562 423.902L341.848 423.492L341.438 423.206L341.152 423.616L341.562 423.902ZM361.236 437.647L361.646 437.933L361.932 437.524L361.522 437.237L361.236 437.647ZM347.49 457.321L347.347 457.526L347.757 457.812L347.9 457.608L347.49 457.321ZM328.226 443.862L341.972 424.188L341.152 423.616L327.407 443.29L328.226 443.862ZM341.275 424.312L360.949 438.057L361.522 437.237L341.848 423.492L341.275 424.312ZM360.826 437.361L347.081 457.035L347.9 457.608L361.646 437.933L360.826 437.361ZM347.634 457.116L327.96 443.371L327.673 443.781L347.347 457.526L347.634 457.116Z" fill="#1F2225" mask="url(#path-29-inside-6_1_10404)"/>
<path d="M337.329 465.184C336.569 466.273 335.694 466.911 334.704 467.098C333.711 467.263 332.663 466.96 331.562 466.191L330.342 465.338C329.66 464.862 329.167 464.352 328.864 463.808C328.547 463.255 328.432 462.638 328.518 461.956L328.479 461.929C327.909 462.214 327.33 462.316 326.741 462.237C326.148 462.135 325.511 461.846 324.829 461.37L324.258 460.971C323.157 460.201 322.514 459.333 322.331 458.366C322.144 457.376 322.422 456.35 323.164 455.288C323.906 454.226 324.77 453.619 325.754 453.467C326.734 453.293 327.775 453.591 328.877 454.361L329.447 454.759C330.759 455.676 331.352 456.754 331.228 457.994L331.267 458.021C331.878 457.706 332.497 457.602 333.125 457.709C333.74 457.807 334.388 458.094 335.07 458.57L336.29 459.423C337.392 460.192 338.031 461.079 338.209 462.081C338.383 463.061 338.09 464.096 337.329 465.184ZM328.968 459.343C329.499 458.582 329.306 457.881 328.388 457.24L327.306 456.484C326.388 455.842 325.663 455.902 325.131 456.662C324.6 457.423 324.793 458.124 325.711 458.766L326.793 459.522C327.712 460.163 328.436 460.104 328.968 459.343ZM335.362 463.81C335.93 462.997 335.696 462.228 334.66 461.504L333.342 460.583C332.306 459.859 331.503 459.904 330.935 460.717C330.367 461.53 330.601 462.299 331.637 463.023L332.956 463.944C333.992 464.668 334.794 464.623 335.362 463.81Z" fill="#1F2225"/>
<path d="M340.211 436.834L337.16 441.202L335.192 439.828L339.728 433.335L341.617 434.655L351.136 446.341L349.596 448.544L340.211 436.834Z" fill="#1F2225"/>
<mask id="path-33-inside-7_1_10404" fill="white">
<path d="M349.07 413.25L362.816 393.576L382.49 407.321L368.744 426.995L349.07 413.25Z"/>
</mask>
<path d="M349.07 413.25L362.816 393.576L382.49 407.321L368.744 426.995L349.07 413.25Z" fill="#FFF258"/>
<path d="M349.07 413.25L348.66 412.964L348.374 413.374L348.784 413.66L349.07 413.25ZM362.816 393.576L362.959 393.371L362.549 393.085L362.406 393.29L362.816 393.576ZM382.49 407.321L382.899 407.608L383.043 407.403L382.633 407.116L382.49 407.321ZM368.744 426.995L368.458 427.405L368.868 427.691L369.154 427.282L368.744 426.995ZM349.48 413.536L363.225 393.862L362.406 393.29L348.66 412.964L349.48 413.536ZM362.672 393.781L382.346 407.526L382.633 407.116L362.959 393.371L362.672 393.781ZM382.08 407.035L368.334 426.709L369.154 427.282L382.899 407.608L382.08 407.035ZM369.031 426.585L349.357 412.84L348.784 413.66L368.458 427.405L369.031 426.585Z" fill="#1F2225" mask="url(#path-33-inside-7_1_10404)"/>
<mask id="path-35-inside-8_1_10404" fill="white">
<path d="M362.816 393.576L376.562 373.902L396.236 387.647L382.49 407.321L362.816 393.576Z"/>
</mask>
<path d="M362.816 393.576L376.562 373.902L396.236 387.647L382.49 407.321L362.816 393.576Z" fill="#FFF258"/>
<path d="M362.816 393.576L362.407 393.29L362.263 393.495L362.673 393.781L362.816 393.576ZM376.562 373.902L376.848 373.492L376.438 373.206L376.152 373.616L376.562 373.902ZM396.236 387.647L396.646 387.933L396.932 387.524L396.522 387.237L396.236 387.647ZM382.49 407.321L382.347 407.526L382.757 407.812L382.9 407.608L382.49 407.321ZM363.226 393.862L376.972 374.188L376.152 373.616L362.407 393.29L363.226 393.862ZM376.275 374.312L395.949 388.057L396.522 387.237L376.848 373.492L376.275 374.312ZM395.826 387.361L382.081 407.035L382.9 407.608L396.646 387.933L395.826 387.361ZM382.634 407.116L362.96 393.371L362.673 393.781L382.347 407.526L382.634 407.116Z" fill="#1F2225" mask="url(#path-35-inside-8_1_10404)"/>
<path d="M372.371 415.125C371.628 416.188 370.759 416.79 369.761 416.933C368.764 417.075 367.714 416.762 366.613 415.992L359.491 411.016C357.103 409.348 356.68 407.413 358.219 405.209C358.952 404.16 359.813 403.571 360.801 403.441C361.776 403.303 362.821 403.623 363.936 404.402L364.192 404.581L362.762 406.627L362.369 406.352C361.464 405.719 360.75 405.777 360.228 406.525C359.944 406.931 359.857 407.32 359.969 407.691C360.081 408.062 360.452 408.467 361.081 408.907L363.718 410.749L363.745 410.709C363.211 409.77 363.269 408.835 363.919 407.904C364.469 407.117 365.155 406.708 365.977 406.677C366.799 406.646 367.721 406.988 368.744 407.703L371.203 409.421C372.305 410.19 372.961 411.068 373.17 412.054C373.379 413.039 373.113 414.063 372.371 415.125ZM370.403 413.751C370.926 413.003 370.741 412.318 369.849 411.695L367.409 409.99C366.504 409.358 365.791 409.416 365.268 410.163C364.746 410.911 364.937 411.601 365.842 412.233L368.282 413.938C369.174 414.561 369.881 414.499 370.403 413.751Z" fill="#1F2225"/>
<path d="M386.47 396.281C385.737 397.331 384.883 397.925 383.908 398.063C382.92 398.192 381.868 397.868 380.753 397.089L379.671 396.333L381.101 394.287L382.34 395.153C383.232 395.776 383.939 395.714 384.462 394.966C384.984 394.218 384.799 393.533 383.907 392.91L380.818 390.752C379.913 390.12 379.2 390.177 378.677 390.925C378.155 391.672 378.346 392.362 379.251 392.995L379.369 393.077L377.94 395.123L370.522 389.355L374.508 383.65L376.476 385.024L373.837 388.802L376.999 391.274L377.026 391.235C376.641 390.361 376.742 389.504 377.328 388.665C377.878 387.878 378.564 387.469 379.386 387.438C380.208 387.407 381.13 387.749 382.153 388.464L385.262 390.636C386.377 391.415 387.043 392.29 387.262 393.263C387.467 394.226 387.203 395.232 386.47 396.281Z" fill="#1F2225"/>
</g>
</g>
<defs>
<clipPath id="clip0_1_10404">
<rect width="800" height="800" fill="white"/>
</clipPath>
<clipPath id="clip1_1_10404">
<rect width="5701" height="6199.92" fill="white" transform="translate(-2469 -1679)"/>
</clipPath>
</defs>
</svg>
