<svg width="800" height="800" viewBox="0 0 800 800" fill="none" xmlns="http://www.w3.org/2000/svg">
<g clip-path="url(#clip0_1_11564)">
<g clip-path="url(#clip1_1_11564)">
<rect width="6515.43" height="7085.62" transform="translate(-2398.86 -6131.43)" fill="white"/>
<path d="M-373.745 -2591.41C-434.441 -2532.84 -493.692 -2472.82 -553.283 -2413.14C-582.44 -2383.94 -611.683 -2354.87 -641.266 -2326.1C-667.789 -2300.3 -695.587 -2275.47 -716.159 -2244.4C-716.754 -2243.55 -716.584 -2242.02 -715.776 -2241.3C-703.11 -2230.67 -690.444 -2220 -677.777 -2209.38C-673.272 -2205.6 -662.476 -2199.47 -661.796 -2193.65C-661.116 -2187.83 -671.274 -2177.97 -674.93 -2173.12C-680.413 -2165.81 -681.9 -2161.77 -690.741 -2165.85C-696.989 -2168.74 -702.94 -2173.46 -708.55 -2177.37C-722.959 -2187.36 -736.391 -2198.62 -749.057 -2210.74C-750.077 -2211.72 -751.607 -2211.67 -752.67 -2210.74C-867.516 -2109.28 -978.155 -2003.15 -1084.33 -1892.59C-1086.03 -1890.81 -1084.33 -1887.54 -1081.87 -1888.34L-1079.95 -1888.94L-1082.42 -1893.19C-1135 -1836.74 -1187.53 -1780.26 -1240.11 -1723.81C-1241 -1722.88 -1241.21 -1721.13 -1240.11 -1720.2C-1184.81 -1674.04 -1133.08 -1623.71 -1085.69 -1569.48C-1061.29 -1541.55 -1038.21 -1512.61 -1016.03 -1482.94C-997.707 -1458.46 -979.515 -1433.68 -958.263 -1411.62C-920.349 -1372.26 -870.704 -1341.48 -814.726 -1359.21C-788.416 -1367.54 -764.911 -1384.12 -746.507 -1404.48C-743.489 -1407.79 -729.973 -1424.96 -722.789 -1419.18C-718.964 -1416.08 -724.532 -1406.09 -726.02 -1403.07C-748.377 -1357.98 -798.192 -1317.56 -845.627 -1302.51C-847.582 -1301.87 -848.304 -1298.9 -846.222 -1297.83C-815.279 -1282.06 -805.332 -1244.11 -811.708 -1211.89C-818.976 -1175.25 -846.137 -1146.18 -871.937 -1120.93C-931.783 -1062.4 -992.861 -1005.06 -1053.34 -947.174C-1103.88 -898.804 -1171.51 -849.031 -1182.13 -774.989C-1187.7 -736.438 -1181.07 -696.909 -1176.95 -658.527C-1172.48 -616.958 -1168.02 -575.432 -1163.52 -533.863C-1154.16 -446.814 -1144.77 -359.723 -1135.42 -272.674C-1133.59 -255.63 -1132.44 -238.374 -1129.77 -221.457C-1127.56 -207.515 -1123.01 -193.956 -1110.13 -186.518C-1099.59 -180.397 -1086.75 -180.015 -1074.94 -179.632C-1053.09 -178.867 -1031.2 -178.528 -1009.35 -177.975C-921.922 -175.722 -834.448 -173.512 -747.017 -171.259C-703.28 -170.154 -659.586 -169.006 -615.849 -167.901C-595.957 -167.391 -576.107 -166.881 -556.215 -166.371L-526.42 -165.606C-522.339 -165.521 -512.096 -167.009 -508.526 -165.139C-500.917 -161.186 -502.108 -153.152 -502.065 -145.586C-502.023 -137.298 -502.703 -117.406 -509.376 -110.946C-516.049 -104.485 -531.18 -108.906 -539.044 -109.288C-560.806 -110.393 -582.525 -111.456 -604.288 -112.561C-647.769 -114.729 -691.294 -116.896 -734.776 -119.064C-820.762 -123.357 -906.79 -127.65 -992.776 -131.943C-1019.72 -133.303 -1051.81 -136.788 -1075.62 -120.977C-1102.1 -103.38 -1099.76 -68.144 -1101.59 -40.1338C-1104.39 2.62549 -1107.2 45.385 -1109.96 88.1868C-1112.34 124.698 -1120.42 166.096 -1110.47 202.013C-1096.15 253.868 -1042.04 272.017 -993.796 276.948C-959.835 280.433 -925.577 278.138 -891.531 277.118C-848.899 275.843 -806.268 274.525 -763.636 273.207C-591.579 267.894 -419.522 263.261 -247.465 258.033C-174.91 255.823 -102.61 248.98 -30.1405 246.132C32.7233 243.667 98.8173 242.307 159.768 260.329C185.398 267.895 209.626 279.498 229.645 297.392C252.895 318.177 279.46 325.488 310.573 322.3C344.704 318.814 378.92 307.635 411.308 296.627C441.699 286.299 471.452 274.1 500.439 260.244C621.491 202.268 728.05 114.539 808.213 6.87622C849.867 -49.0593 881.107 -114.686 933.6 -161.823C990.088 -212.573 1069.66 -229.405 1137.83 -259.158C1397.36 -372.474 1621.06 -574.114 1718.65 -844.611C1766.17 -976.289 1786.91 -1128.67 1753.51 -1266.25C1738.33 -1328.86 1707.3 -1385.56 1655.66 -1425.18C1605.17 -1463.94 1542.9 -1483.92 1481.44 -1497.26C1450.71 -1503.94 1419.59 -1509.04 1388.52 -1513.71C1354.35 -1518.85 1319.62 -1523.32 1285.02 -1520.6C1252.76 -1518.05 1221.27 -1508.61 1195.47 -1488.51C1169.67 -1468.4 1150.12 -1439.29 1125.29 -1416.8C1071.23 -1367.71 995.571 -1358.36 925.694 -1353.51C847.231 -1348.07 769.151 -1342.29 691.241 -1331.28C529.427 -1308.42 369.867 -1269.7 215.619 -1215.76C182.721 -1204.24 147.4 -1194.12 116.924 -1176.87C91.6764 -1162.58 76.4174 -1141.42 72.4645 -1112.47C68.2991 -1081.74 70.7219 -1048.8 73.6547 -1018.07C76.3325 -989.55 81.093 -960.987 89.9338 -933.657C104.98 -887.2 132.863 -845.801 179.49 -827.184L178.385 -831.435C168.907 -819.193 159.428 -806.952 149.992 -794.711C146.847 -790.631 140.344 -778.134 135.796 -776.349C128.358 -773.459 119.687 -783.49 113.949 -788.293C93.0365 -805.89 74.8448 -826.632 59.9259 -849.542C30.1305 -895.276 14.4038 -948.193 13.3838 -1002.64C12.8312 -1031.76 13.2137 -1081.91 -18.7494 -1096.41C-38.1738 -1105.2 -58.1084 -1093.77 -75.4076 -1085.4C-104.651 -1071.33 -133.639 -1056.75 -162.329 -1041.62C-191.019 -1026.49 -219.497 -1010.84 -247.635 -994.651C-260.896 -987.042 -274.072 -979.307 -287.206 -971.486C-293.624 -967.661 -300.042 -962.687 -306.843 -959.627C-311.051 -957.714 -311.646 -955.505 -315.727 -957.927C-317.894 -959.245 -322.357 -971.188 -323.505 -973.526C-326.82 -980.199 -331.538 -987.212 -333.876 -994.311C-337.191 -1004.26 -333.323 -1005.02 -324.61 -1010.04C-310.116 -1018.37 -295.579 -1026.66 -281.086 -1034.99C-252.055 -1051.61 -223.025 -1068.27 -193.995 -1084.89C-164.964 -1101.51 -135.933 -1118.17 -106.903 -1134.79C-84.1208 -1147.84 -59.2135 -1159.74 -39.4915 -1177.33C3.52271 -1215.76 -10.9288 -1278.58 -15.1792 -1329.41C-27.5055 -1476.48 -46.2496 -1622.99 -71.1146 -1768.48C-71.4122 -1770.18 -73.5374 -1770.74 -74.8551 -1770.01C-83.2709 -1765.46 -91.6868 -1760.87 -100.145 -1756.33C-105.543 -1753.39 -118.592 -1743.19 -124.33 -1747.15C-125.733 -1748.12 -128.155 -1755.82 -129.133 -1757.98C-131.513 -1763.42 -133.936 -1768.82 -136.316 -1774.26C-138.952 -1780.21 -148.557 -1793.77 -145.752 -1799.98C-144.604 -1802.53 -135.551 -1807.8 -133.128 -1810.22C-129.303 -1814.05 -125.903 -1818.3 -122.885 -1822.72C-115.914 -1832.88 -111.069 -1844.39 -107.286 -1856.04C-98.1473 -1884.39 -95.7671 -1914.61 -92.0692 -1943.98C-87.0962 -1983.6 -82.1232 -2023.21 -77.1501 -2062.82C-72.1772 -2102.44 -67.1193 -2141.75 -62.3163 -2181.24C-58.0658 -2215.92 -54.6232 -2252.31 -66.9918 -2285.8C-77.5754 -2314.49 -97.8922 -2338.25 -117.529 -2361.16C-140.609 -2388.11 -164.667 -2414.16 -189.659 -2439.33C-244.702 -2494.71 -304.25 -2545.37 -367.497 -2591.15C-370.174 -2593.06 -372.725 -2588.64 -370.089 -2586.73C-274.37 -2517.45 -186.726 -2436.48 -111.111 -2345.65C-90.8793 -2321.33 -72.3047 -2295.41 -66.2266 -2263.7C-60.106 -2231.74 -65.249 -2198.67 -69.2445 -2166.79C-77.4478 -2101.42 -85.651 -2036.05 -93.8542 -1970.72C-100.612 -1916.95 -98.8699 -1834.49 -151.788 -1802.27C-153.063 -1801.51 -153.275 -1800.06 -152.723 -1798.79C-143.967 -1778.9 -135.169 -1759 -126.413 -1739.07C-125.86 -1737.79 -124.032 -1737.54 -122.927 -1738.13C-106.096 -1747.27 -89.2214 -1756.41 -72.3898 -1765.51L-76.1301 -1767.04C-55.0055 -1643.31 -38.2589 -1518.86 -26.2302 -1393.94C-23.2124 -1362.65 -20.4922 -1331.33 -18.027 -1299.96C-15.9017 -1272.71 -11.0562 -1242.66 -19.4719 -1216.1C-28.6528 -1187.15 -54.5381 -1170.79 -79.4031 -1156.42C-105.628 -1141.29 -131.981 -1126.29 -158.248 -1111.24C-219.709 -1076 -281.213 -1040.77 -342.674 -1005.53C-343.907 -1004.81 -344.204 -1003.28 -343.609 -1002.05C-334.981 -984.704 -326.31 -967.405 -317.682 -950.064C-317.087 -948.831 -315.301 -948.449 -314.196 -949.129C-267.782 -977.606 -220.602 -1004.77 -172.572 -1030.4C-148.982 -1042.98 -125.222 -1055.22 -101.293 -1067.08C-89.3064 -1072.99 -77.3202 -1078.85 -65.249 -1084.59C-52.3702 -1090.71 -37.7489 -1097.81 -23.34 -1092.62C12.1511 -1079.79 7.05066 -1021.13 8.41077 -991.548C10.281 -950.234 21.502 -909.557 40.3738 -872.791C62.0084 -830.67 93.5891 -794.499 132.608 -767.678C133.416 -767.126 135.031 -767.253 135.711 -768.061C151.097 -787.953 166.484 -807.845 181.87 -827.737C183.103 -829.352 182.635 -831.222 180.765 -831.987C90.699 -867.946 77.2675 -984.535 75.9924 -1068.69C75.5674 -1097.3 74.4197 -1129.69 94.3116 -1152.68C112.589 -1173.85 141.151 -1183.03 166.484 -1192.51C225.48 -1214.57 285.283 -1234.37 345.767 -1251.93C466.351 -1286.91 589.656 -1312.79 714.151 -1329.2C774.932 -1337.23 836.01 -1342.8 897.216 -1346.5C948.349 -1349.6 1000.63 -1352.45 1049.68 -1368.48C1072.5 -1375.96 1094.44 -1386.37 1113.78 -1400.69C1133.11 -1415.02 1149.73 -1434.57 1166.31 -1453.02C1185.82 -1474.69 1206.9 -1494.16 1234.57 -1504.66C1262.24 -1515.16 1290.55 -1516.98 1319.03 -1515.92C1371.27 -1513.97 1424.44 -1503.98 1475.53 -1493.18C1524.32 -1482.85 1573.12 -1468.7 1616.9 -1444.26C1662.93 -1418.55 1700.55 -1381.4 1723.97 -1333.92C1749.89 -1281.38 1759.16 -1221.92 1762.3 -1163.95C1768.51 -1050.88 1748.45 -937.312 1708.32 -831.647C1628.2 -620.698 1468.98 -450.639 1276.74 -336.048C1230.45 -308.463 1182.29 -283.938 1132.86 -262.431C1080.92 -239.861 1024.98 -224.729 975.296 -197.399C929.902 -172.449 897.046 -133.558 868.271 -91.3091C837.795 -46.552 809.785 -0.690186 774.847 40.9216C707.137 121.679 623.957 189.262 531.085 239.077C484.67 263.984 435.876 284.386 385.466 299.73C357.923 308.103 328.637 317.369 299.692 318.092C284.986 318.474 269.557 316.562 256.083 310.356C244.224 304.915 235.681 295.522 225.65 287.573C159.343 234.911 59.1609 238.141 -20.577 240.862C-75.3225 242.732 -129.983 247.152 -184.686 250.255C-246.742 253.783 -308.926 254.718 -371.067 256.418C-502.958 260.116 -634.848 264.281 -766.739 268.319C-829.262 270.232 -891.999 273.76 -954.565 273.802C-997.324 273.802 -1048.67 269.892 -1081.91 239.629C-1103.29 220.119 -1109.83 192.917 -1109.54 164.779C-1109.2 133.496 -1105.88 102.043 -1103.84 70.802C-1101.67 37.7764 -1099.5 4.70825 -1097.38 -28.3174C-1095.47 -57.5178 -1100.06 -99.6399 -1071.54 -117.407C-1049.56 -131.093 -1020.49 -128.075 -995.879 -126.843C-963.278 -125.227 -930.635 -123.57 -898.034 -121.954C-832.79 -118.682 -767.546 -115.451 -702.302 -112.178C-637.058 -108.905 -573.812 -105.76 -509.546 -102.53C-508.696 -102.53 -507.718 -103.04 -507.336 -103.805C-497.092 -124.207 -494.712 -145.927 -500.237 -168.071C-500.535 -169.177 -501.597 -169.899 -502.703 -169.942C-635.868 -173.342 -769.034 -176.742 -902.2 -180.142C-935.013 -180.992 -967.784 -181.801 -1000.6 -182.65L-1048.29 -183.883C-1063.84 -184.265 -1081.1 -182.82 -1096.36 -186.603C-1116.63 -191.619 -1123.09 -207.558 -1125.56 -226.515C-1127.81 -243.771 -1129.3 -261.198 -1131.17 -278.497C-1134.7 -311.14 -1138.18 -343.784 -1141.71 -376.427C-1148.85 -442.734 -1155.99 -508.998 -1163.09 -575.304C-1166.62 -607.948 -1170.1 -640.59 -1173.63 -673.234C-1176.86 -703.114 -1181.15 -733.462 -1178.48 -763.555C-1172.78 -828.374 -1126.2 -870.326 -1081.95 -912.703C-1034.22 -958.437 -986.443 -1004.13 -938.711 -1049.86C-913.548 -1073.92 -888.003 -1097.64 -863.351 -1122.25C-843.544 -1141.97 -824.544 -1163.52 -813.536 -1189.58C-797.342 -1227.91 -803.292 -1281.47 -843.799 -1302.08L-844.394 -1297.41C-795.684 -1312.84 -745.869 -1353.56 -722.237 -1399.33C-718.921 -1405.75 -711.611 -1420.54 -722.237 -1424.11C-727.125 -1425.77 -734.648 -1422.54 -738.686 -1420.03C-744.594 -1416.34 -748.547 -1409.62 -753.392 -1404.52C-761.171 -1396.4 -769.714 -1389.05 -778.937 -1382.63C-814.556 -1357.72 -858.93 -1350.5 -898.289 -1371.11C-935.353 -1390.53 -963.618 -1422.54 -988.951 -1455.14C-1043.23 -1524.93 -1096.7 -1593.45 -1160.41 -1655.17C-1179.16 -1673.32 -1198.41 -1690.91 -1218.18 -1707.96C-1221.15 -1710.51 -1231.52 -1716.63 -1232.54 -1720.2C-1234.2 -1725.94 -1226.04 -1731.46 -1222.51 -1735.24C-1213.08 -1745.36 -1203.64 -1755.52 -1194.2 -1765.63C-1155.78 -1806.91 -1117.4 -1848.14 -1078.97 -1889.41C-1077.32 -1891.19 -1078.93 -1894.46 -1081.44 -1893.66L-1083.35 -1893.06L-1080.89 -1888.81C-1017.17 -1955.16 -951.887 -2019.98 -884.985 -2083.1C-851.577 -2114.64 -817.744 -2145.75 -783.528 -2176.44C-775.41 -2183.71 -767.036 -2193.52 -757.813 -2199.35C-752.967 -2202.41 -752.755 -2204.53 -747.017 -2201.47C-742.724 -2199.18 -738.813 -2194.08 -735.031 -2190.93C-719.219 -2177.71 -702.217 -2166.15 -684.281 -2155.99C-682.963 -2155.27 -681.645 -2155.78 -680.795 -2156.93C-671.827 -2168.91 -662.816 -2180.86 -653.848 -2192.84C-653.21 -2193.69 -653.465 -2195.27 -654.23 -2195.95C-663.156 -2203.47 -672.124 -2210.95 -681.05 -2218.47C-685.513 -2222.21 -689.976 -2226 -694.482 -2229.74C-697.287 -2232.08 -706.595 -2237.35 -707.913 -2241C-711.228 -2250.27 -696.734 -2262.64 -690.741 -2269.44C-683.983 -2277.09 -676.885 -2284.4 -669.617 -2291.58C-636.803 -2324.1 -603.395 -2356.02 -570.667 -2388.62C-504.02 -2455.05 -438.096 -2522.25 -370.387 -2587.62C-368.007 -2589.92 -371.62 -2593.53 -374 -2591.24L-373.745 -2591.41Z" fill="#9B9B9B"/>
<path d="M1773.02 -709.405C1773.99 -735.502 1781.64 -759.603 1795.97 -781.45C1796.48 -782.215 1796.44 -783.277 1795.97 -784.042C1790.23 -793.606 1779.22 -796.369 1768.85 -792.501C1752.95 -786.55 1747.77 -767.253 1742.46 -752.972C1726.05 -708.64 1705.26 -666.008 1680.87 -625.544C1632.28 -544.871 1569.72 -473.082 1498.61 -411.578C1424.27 -347.312 1340.79 -294.181 1253.15 -250.02C1209.45 -228.002 1164.4 -209.3 1119.56 -189.706C1077.56 -171.344 1035.99 -150.73 1001.1 -120.552C961.866 -86.6334 932.963 -42.8112 906.143 1.01062C874.647 52.4408 843.704 104.253 812.549 155.853C811.614 157.426 812.591 158.999 814.079 159.594L815.396 160.146L814.291 155.896C749.77 215.912 676.365 265.982 596.712 303.726C556.036 322.98 513.872 339.004 470.645 351.5C430.266 363.189 387.209 368.587 348.742 386.014C318.437 399.743 298.63 418.189 298.715 452.703C298.758 471.532 301.988 490.191 302.456 509.021C302.881 526.362 302.838 543.619 305.686 560.791C308.236 576.347 313.209 597.557 329.488 604.485C343.259 610.394 358.986 602.955 370.887 595.985C410.544 572.777 440.382 535.713 480.293 512.889C490.452 507.066 500.185 504.048 511.704 502.135C537.971 497.757 564.494 495.249 591.102 493.762C640.151 490.956 689.244 491.552 738.336 490.531C837.328 488.406 937.171 481.903 1035.48 469.917C1133.8 457.931 1224.16 437.954 1314.65 405.523C1403.95 373.517 1489.77 332.883 1575.71 292.929C1661.66 252.975 1756.23 210.599 1847.44 171.622C2029.83 93.6694 2214.72 21.625 2401.7 -44.384C2495.25 -77.4098 2589.31 -108.948 2683.88 -138.956C2731.15 -153.96 2778.54 -168.581 2826.06 -182.778C2870.82 -196.166 2916.38 -207.643 2960.71 -222.349C2976.52 -227.62 2992.21 -234.335 3004.79 -245.556C3018.86 -258.138 3026.17 -275.479 3032.12 -292.991C3046.31 -334.688 3062.47 -375.067 3084.02 -413.576C3126.1 -488.766 3183.31 -554.519 3251.7 -606.8C3279.96 -628.392 3311.41 -651.259 3318.38 -688.536C3324.93 -723.602 3315.66 -763.938 3307.46 -798.196C3290.5 -869.093 3258.88 -935.485 3222.2 -998.094C3146.28 -1127.6 3047.59 -1243.85 2985.79 -1381.52C2970.23 -1416.21 2957.44 -1452 2948.09 -1488.85C2947.36 -1491.65 2943.11 -1491.02 2943.07 -1488.17C2941.12 -1327.5 2950.68 -1166.84 2972.06 -1007.57C2982.52 -929.704 2995.69 -852.262 3011.72 -775.329C3017.33 -748.424 3020.86 -720.966 3014.31 -693.806C3007.25 -664.648 2982.94 -641.653 2952.81 -661.63C2939.54 -670.429 2930.07 -683.902 2920.33 -696.144C2908.09 -711.573 2895.3 -726.577 2881.95 -741.071C2857.72 -767.381 2831.71 -792.033 2804.17 -814.815C2758.43 -852.687 2696.55 -898.378 2633.47 -878.784C2582.55 -862.972 2555.9 -810.947 2538.01 -764.66C2510.38 -693.253 2487.68 -619.636 2462.86 -547.251C2436.63 -470.829 2410.37 -394.406 2384.14 -317.984C2363.19 -256.99 2337.13 -161.568 2252 -183.075C2188.03 -199.227 2142.04 -263.536 2118.36 -321.554C2095.37 -378 2088.4 -440.523 2095.75 -500.879C2099.45 -531.142 2106.84 -560.98 2117.81 -589.416C2126.74 -612.58 2146.71 -642.631 2127.2 -665.795C2119.38 -675.104 2107.95 -680.162 2097.03 -684.795C2078.66 -692.616 2060.22 -700.224 2041.77 -707.96C2005.34 -723.219 1968.92 -738.478 1932.53 -753.737C1908.77 -763.683 1876.6 -782.81 1855.9 -757.562C1847.82 -747.701 1843.96 -734.738 1839.75 -722.964C1833.33 -705.155 1826.87 -687.345 1820.24 -669.621C1793.93 -599.574 1764.26 -529.91 1722.01 -467.768C1684.65 -412.853 1636.71 -363.59 1578.39 -331.032C1564.32 -323.169 1549.74 -316.326 1534.65 -310.716C1520.41 -305.445 1471.07 -288.273 1480.2 -320.024C1488.66 -349.394 1528.23 -361.635 1551.31 -376.342C1651.11 -440.013 1725.84 -541.386 1759.71 -654.617C1767.96 -682.16 1773.61 -710.34 1776.93 -738.903C1777.31 -742.176 1772.21 -742.133 1771.83 -738.903C1756.74 -610.2 1689.28 -489.446 1587.91 -408.688C1562.41 -388.37 1534.82 -373.494 1506.94 -356.96C1492.79 -348.544 1468.56 -327.717 1474.72 -308.293C1482.67 -283.343 1520.71 -300.132 1535.93 -305.742C1565.38 -316.624 1592.97 -332.095 1618.26 -350.669C1732.59 -434.615 1789.3 -569.566 1836.35 -698.652C1842.3 -714.973 1846.76 -733.038 1855.6 -748.042C1871.33 -774.734 1897.77 -762.663 1920.17 -753.269C1958.42 -737.245 1996.63 -721.221 2034.88 -705.197C2053.08 -697.546 2071.31 -689.938 2089.5 -682.287C2112.5 -672.596 2135.79 -660.907 2128.86 -631.197C2125.25 -615.725 2116.83 -601.402 2111.26 -586.526C2105.7 -571.649 2101.06 -556.05 2097.45 -540.366C2071.82 -428.622 2096.3 -295.542 2183.99 -215.974C2224.84 -178.91 2289.66 -154.725 2334.07 -199.992C2354.01 -220.309 2365.01 -247.766 2374.37 -274.162C2388.01 -312.67 2400.93 -351.434 2414.19 -390.071C2441.4 -469.341 2468.6 -548.569 2495.8 -627.84C2509.02 -666.306 2521.94 -704.9 2535.46 -743.281C2545.66 -772.227 2557.22 -801.342 2574.9 -826.589C2594.54 -854.642 2622.85 -875.979 2658.08 -877.892C2696.46 -880.017 2732.93 -860.72 2763.53 -839.468C2825.29 -796.581 2877.32 -741.241 2924.07 -682.84C2938.74 -664.563 2958.67 -643.821 2984.6 -649.814C3002.75 -653.979 3012.78 -670.641 3017.75 -687.388C3024.3 -709.533 3024.09 -733.93 3020.47 -756.542C3014.31 -795.051 3005 -833.22 2998.2 -871.644C2969.34 -1034.39 2952.85 -1199.31 2948.81 -1364.52C2947.79 -1405.67 2947.62 -1446.81 2948.09 -1487.95L2943.07 -1487.27C2978.82 -1345.99 3065.78 -1226.6 3145.95 -1107.58C3186.71 -1047.06 3226.7 -985.598 3258.07 -919.546C3273.76 -886.52 3287.14 -852.389 3297.05 -817.153C3307.25 -780.897 3317.07 -740.093 3314.69 -702.222C3311.67 -654.66 3273.2 -630.177 3239.11 -603.4C3207.41 -578.492 3178.25 -550.439 3151.98 -519.836C3101.02 -460.415 3061.11 -391.643 3034.97 -317.813C3026.89 -295.031 3021.49 -269.869 3004.15 -251.974C2989.36 -236.758 2968.19 -229.617 2948.39 -223.709C2903.5 -210.32 2858.4 -197.697 2813.52 -184.223C2722.18 -156.765 2631.3 -127.862 2540.85 -97.5569C2359.87 -36.9033 2180.8 29.3606 2003.9 101.065C1828.1 172.345 1656.13 251.445 1483.56 330.078C1397.02 369.479 1308.96 406.501 1216.89 431.068C1123.17 456.061 1026.51 467.919 929.988 475.23C833.29 482.583 736.848 484.879 639.939 487.046C594.204 488.066 546.557 489.086 501.715 498.947C483.736 502.9 468.137 513.994 453.728 524.96C435.579 538.774 418.619 553.99 400.895 568.272C385.594 580.64 367.954 595.814 348.317 600.575C326.555 605.888 316.737 587.653 312.317 569.079C308.279 551.95 307.684 534.098 307.514 516.586C307.301 497.885 304.921 479.48 303.943 460.821C303.008 442.544 304.708 423.715 318.905 410.539C336.459 394.302 361.154 385.546 383.724 379.043C424.188 367.397 465.417 359.619 505.413 346.187C583.536 319.962 657.791 282.303 725.202 234.953C757.76 212.044 788.619 186.881 817.777 159.764C819.307 158.319 818.287 156.193 816.671 155.513L815.354 154.961L816.884 158.701C844.937 112.244 872.989 65.7443 901.085 19.2871C926.247 -22.282 951.962 -64.2336 986.093 -99.1721C1054.78 -169.559 1155.39 -196.124 1241.54 -238.331C1409.05 -320.406 1562.75 -436.315 1666.59 -593.198C1694.3 -635.023 1718.14 -679.397 1737.31 -725.727C1742.03 -737.118 1746.15 -748.722 1750.57 -760.24C1753.51 -767.806 1756.65 -776.179 1762.52 -782.045C1766.43 -785.955 1771.32 -788.591 1777.01 -788.888C1781.81 -789.143 1788.91 -785.19 1788.7 -779.494C1788.53 -774.606 1781.09 -765.766 1779.09 -761.133C1776.97 -756.16 1775.1 -751.059 1773.57 -745.831C1770.04 -733.888 1768.38 -721.646 1767.92 -709.235C1767.79 -705.962 1772.89 -705.962 1773.02 -709.235V-709.405Z" fill="#9B9B9B"/>
<path d="M-329.161 -675.446C-329.161 -571.905 -334.389 -468.365 -344.973 -365.335C-347.608 -339.577 -350.584 -313.862 -353.856 -288.19C-356.874 -264.812 -358.872 -240.755 -364.483 -217.845C-366.735 -208.579 -369.923 -199.441 -375.321 -191.535C-380.719 -183.629 -388.582 -178.401 -397.423 -174.321C-404.734 -170.963 -412.682 -167.818 -418.123 -161.612C-423.563 -155.406 -425.178 -147.203 -423.011 -139.255C-417.57 -119.405 -396.956 -112.945 -378.636 -111.415C-353.261 -109.332 -327.589 -109.205 -302.129 -108.184C-250.316 -106.102 -198.461 -103.977 -146.648 -101.894C-121.358 -100.874 -96.1108 -100.024 -70.8208 -98.7911C-47.9961 -97.6436 -24.9588 -95.6881 -2.85663 -89.525C19.2455 -83.3619 39.01 -72.4807 55.8842 -56.9666C72.7584 -41.4526 85.0845 -24.7484 97.4957 -6.98163C125.166 32.7173 150.499 74.1164 173.366 116.791C184.842 138.17 195.68 159.932 205.881 181.949C214.807 201.204 221.863 222.328 234.062 239.84C239.205 247.236 245.453 253.909 253.146 258.67C261.945 264.068 272.103 266.405 282.219 267.553C306.787 270.358 332.204 269.551 356.771 267.766C368.205 266.958 379.766 266.023 391.072 264.025C399.701 262.538 408.584 259.86 415.172 253.824C430.134 240.095 423.588 218.503 415.342 203.074C409.774 192.66 402.889 182.97 396.47 173.066C389.585 162.483 382.699 151.899 375.771 141.316C361.915 120.191 348.016 99.0664 333.989 78.0268C305.979 35.9476 277.714 -5.96179 249.108 -47.6159C192.11 -130.712 133.922 -212.957 74.5436 -294.353C44.9607 -334.902 15.0802 -375.281 -15.0553 -415.405C-22.8336 -425.776 -30.6544 -436.147 -38.5177 -446.475C-45.0634 -455.104 -51.2264 -465.05 -59.4297 -472.276C-74.3487 -485.367 -93.4757 -482.051 -110.775 -476.356C-130.199 -469.98 -149.241 -461.607 -170.026 -466.41C-189.025 -470.788 -205.007 -483.411 -218.098 -497.395C-232.507 -512.824 -243.77 -530.676 -254.567 -548.741C-267.233 -569.993 -279.219 -591.712 -290.398 -613.772C-301.321 -635.237 -311.48 -657.084 -321.001 -679.228C-322.276 -682.246 -326.696 -679.654 -325.421 -676.636C-306.167 -631.751 -283.98 -588.1 -258.987 -546.148C-240.285 -514.78 -217.8 -479.501 -182.522 -465.05C-164.968 -457.866 -147.201 -458.972 -129.392 -464.625C-111.582 -470.278 -89.5227 -482.179 -70.8634 -473.763C-60.1098 -468.918 -53.4791 -457.867 -46.5934 -448.813C-39.1552 -438.995 -31.7595 -429.219 -24.3638 -419.358C-9.5723 -399.721 5.13422 -379.999 19.7982 -360.234C79.0066 -280.411 137.067 -199.738 193.98 -118.258C250.723 -37.0748 306.276 44.9157 360.724 127.671C374.411 148.498 388.054 169.368 401.613 190.323C411.644 205.837 429.199 232.147 412.749 249.233C405.906 256.332 395.323 258.457 385.972 259.775C373.603 261.518 361.107 262.537 348.611 263.217C336.114 263.898 323.831 264.153 311.462 263.94C299.093 263.728 286.852 263.643 274.951 261.347C264.155 259.222 254.464 254.759 246.601 246.981C239.417 239.883 234.189 231.085 229.684 222.074C219.781 202.267 211.577 181.567 201.929 161.59C181.272 118.745 158.149 77.0914 132.732 36.84C120.321 17.203 107.527 -2.26385 93.7979 -21.0082C81.6417 -37.6274 68.3804 -53.7366 52.3563 -66.8279C18.3529 -94.6257 -24.4487 -101.341 -67.0379 -103.679C-168.028 -109.204 -269.231 -111.5 -370.306 -116.048C-381.994 -116.558 -394.618 -117.408 -404.904 -123.656C-413.235 -128.757 -420.205 -138.958 -418.59 -149.116C-416.975 -159.275 -408.049 -163.695 -400.016 -167.478C-391.983 -171.26 -384.587 -174.321 -378.254 -180.186C-365.12 -192.385 -360.104 -210.79 -357.087 -227.876C-352.964 -251.296 -350.244 -275.056 -347.311 -298.646C-334.73 -399.338 -327.249 -500.626 -324.783 -602.041C-324.188 -626.523 -323.933 -651.006 -323.933 -675.488C-323.933 -678.761 -329.034 -678.761 -329.034 -675.488L-329.161 -675.446Z" fill="#9B9B9B"/>
<path d="M228.197 346.699C213.448 331.737 190.836 340.705 177.49 352.861C164.144 365.018 156.705 384.102 163.081 401.826C170.052 421.208 191.644 428.519 210.813 427.032C229.983 425.544 249.789 411.517 254.975 392.73C261.691 368.333 238.611 351.714 219.909 342.108C216.976 340.621 214.426 344.998 217.316 346.528C232.235 354.179 250.257 365.018 250.937 383.932C251.532 400.721 234.445 415.98 219.441 420.316C203.715 424.864 180.465 421.463 171.029 406.629C162.146 392.645 165.461 374.709 175.492 362.34C186.203 349.121 209.793 335.265 224.585 350.269C226.88 352.606 230.493 348.994 228.197 346.656V346.699Z" fill="#9B9B9B"/>
<path d="M-1158.8 223.647C-1128.88 329.95 -1094.66 435.02 -1056.07 538.476C-1051.35 551.142 -1046.72 563.851 -1041.7 576.39C-1038.35 584.848 -1034.18 593.689 -1025.64 597.939C-1016.37 602.53 -1005.02 600.532 -995.161 599.852C-980.71 598.831 -966.216 597.811 -951.764 596.791C-895.701 592.796 -839.681 588.758 -783.66 584.295C-671.237 575.412 -558.983 564.871 -447.069 551.014C-335.156 537.158 -224.687 521.304 -112.816 512.633C-56.7107 508.298 -0.477661 505.833 55.798 506.258C83.7233 506.47 111.649 507.363 139.531 508.893C152.878 509.616 166.352 511.273 179.698 511.273C189.559 511.273 199.675 509.53 207.198 502.687C213.574 496.906 216.719 488.958 215.146 480.5C214.934 479.352 213.744 478.715 212.681 478.63C179.188 475.995 148.67 454.147 135.026 423.459C121.382 392.771 126.44 352.052 148.202 324.807C149.477 323.234 148.967 321.322 147.097 320.556C109.056 305.255 68.1241 300.027 27.3627 299.007C-16.1616 297.944 -59.8135 300.579 -103.253 302.407C-195.147 306.232 -286.956 310.823 -378.808 315.031C-470.192 319.197 -561.576 322.894 -653.045 324.977C-744.896 327.06 -836.79 327.4 -928.6 324.849C-950.659 324.254 -972.762 323.66 -994.779 322.384C-1016.8 321.109 -1037.67 318.771 -1058.07 311.928C-1092.11 300.494 -1125.56 277.372 -1144.69 246.599C-1149.41 239.033 -1153.06 231 -1155.7 222.5C-1156.68 219.354 -1161.61 220.714 -1160.63 223.859C-1150.56 256.46 -1125.05 281.793 -1096.49 299.262C-1080.64 308.953 -1063.42 316.519 -1045.32 320.854C-1025.55 325.615 -1005.15 327.06 -984.918 327.995C-892.131 332.16 -799.089 332.458 -706.218 331.055C-613.346 329.652 -519.709 326.295 -426.54 322.257C-333.286 318.219 -240.116 313.501 -146.862 309.378C-101.595 307.38 -56.328 305.128 -11.0186 304.15C31.3582 303.257 74.3723 304.405 115.559 315.371C125.845 318.091 135.918 321.492 145.822 325.487L144.717 321.237C121.892 349.8 115.601 390.306 129.925 424.182C144.249 458.058 176.85 480.925 212.809 483.73L210.343 481.86C213.149 497.077 197.167 505.152 184.501 506.045C171.835 506.938 158.913 504.94 146.374 504.175C119.384 502.56 92.3516 501.582 65.3188 501.242C11.296 500.519 -42.7268 502.474 -96.5796 506.342C-204.413 513.993 -311.566 528.827 -418.804 542.429C-526.127 556.03 -633.705 566.954 -741.539 575.88C-795.732 580.343 -849.967 584.423 -904.202 588.376C-931.32 590.331 -958.438 592.243 -985.555 594.156C-996.861 594.964 -1012.59 598.704 -1023.21 593.391C-1033.84 588.078 -1037.62 572.734 -1041.66 562.108C-1079.36 463.073 -1113.07 362.508 -1142.78 260.796C-1146.52 248.002 -1150.17 235.208 -1153.79 222.414C-1154.68 219.269 -1159.61 220.587 -1158.72 223.774L-1158.8 223.647Z" fill="#9B9B9B"/>
<path d="M188.069 69.6973H-37.2031V167.457H188.069V69.6973Z" fill="#9B9B9B"/>
<path d="M1233.42 -1449.7C1162.99 -1323.59 1068.04 -1215.42 975.678 -1106.48C716.402 -800.49 472.003 -480.221 243.883 -147.328C297.736 -46.3375 360.557 49.2117 431.199 137.705C668.33 -148.008 971.853 -361.337 1232.7 -622.61C1360.51 -750.59 1477.82 -889.834 1594.96 -1028.91C1491 -1182.69 1370.24 -1323.63 1235.97 -1448.04C1232.62 -1444.94 1229.26 -1441.84 1225.9 -1438.73" fill="#9B9B9B"/>
<path d="M866.78 103.105C823.213 188.921 743.688 251.87 657.702 295.225C571.758 338.579 478.376 364.634 386.992 394.897C372.286 399.785 357.027 405.098 346.231 416.192C332.587 430.175 328.464 450.747 326.807 470.214C324.214 500.817 326.126 531.76 332.545 561.768C333.565 566.614 334.84 571.672 338.113 575.412C343.978 582.128 354.774 582.383 362.808 578.558C370.841 574.733 376.877 567.761 382.87 561.131C416.193 524.237 456.572 491.934 504.219 477.695C538.775 467.366 575.414 467.026 611.457 466.559C729.236 464.986 846.931 461.076 964.54 454.87C1022.81 451.81 1081.38 448.112 1138.34 435.233C1150.92 432.386 1165.16 427.625 1169.79 415.596C1173.58 405.863 1169.54 395.024 1165.5 385.419C1128.78 297.052 1092.09 208.686 1055.37 120.32C1043.17 90.9068 1030.89 61.4512 1015.59 33.5259C1005.81 15.7167 991.828 -3.32486 971.553 -4.89751C956.507 -6.04513 942.65 3.00794 931.174 12.8264C902.909 36.9688 880.807 68.2522 867.418 102.936" fill="#029C54"/>
<path d="M77.9197 87.1603V113.641H75.5718V87.1603H77.9197ZM57.1159 98.4241C57.1307 92.807 59.9244 89.2258 63.8623 89.2109C67.7853 89.2258 70.6235 92.807 70.6086 98.4241C70.6235 104.056 67.7853 107.622 63.8623 107.607C59.9244 107.622 57.1307 104.056 57.1159 98.4241ZM59.3746 98.4241C59.3746 102.719 61.2172 105.542 63.8623 105.527C66.5222 105.542 68.3499 102.719 68.3499 98.4241C68.3499 94.1296 66.5222 91.3062 63.8623 91.2913C61.2172 91.3062 59.3746 94.1296 59.3746 98.4241ZM102.944 87.1603V98.4241H107.164V100.386H102.944V113.581H100.596V87.1603H102.944ZM82.1102 106.538C84.2649 106.538 86.7762 106.523 89.3915 106.448V103.536C86.3155 103.179 84.3094 101.366 84.3392 98.751C84.3094 95.7641 86.8356 93.8324 90.5803 93.8472C94.2656 93.8324 96.8363 95.7641 96.8512 98.751C96.8363 101.381 94.8005 103.179 91.7394 103.536V106.359C94.1913 106.24 96.6877 106.032 98.991 105.705L99.1396 107.489C93.374 108.469 87.1328 108.529 82.4965 108.529L82.1102 106.538ZM82.5857 92.3018V90.3997H89.3915V87.2197H91.7394V90.3997H98.5155V92.3018H82.5857ZM86.5087 98.751C86.5236 100.579 88.1284 101.782 90.5803 101.753C92.9876 101.782 94.6073 100.579 94.6222 98.751C94.6073 96.9084 92.9876 95.6601 90.5803 95.6601C88.1284 95.6601 86.5236 96.9084 86.5087 98.751ZM10.6045 125.211C14.4978 125.226 17.2617 128.807 17.2914 134.424C17.2617 140.056 14.4978 143.622 10.6045 143.607C6.68148 143.622 3.9324 140.056 3.94726 134.424C3.9324 128.807 6.68148 125.226 10.6045 125.211ZM6.14652 134.424C6.16138 138.719 7.98915 141.542 10.6045 141.527C13.2495 141.542 15.0327 138.719 15.0327 134.424C15.0327 130.13 13.2495 127.306 10.6045 127.291C7.98915 127.306 6.16138 130.13 6.14652 134.424ZM21.6602 149.581V123.16H23.9784V133.711H28.4066V135.732H23.9784V149.581H21.6602ZM51.2314 137.455V139.358H32.9537V125.449H50.9342V127.41H35.3313V131.333H50.3695V133.206H35.3313V137.455H51.2314ZM29.8332 146.134V144.202H54.025V146.134H29.8332ZM71.3219 126.043V127.975H68.3797V140.695C69.8062 140.606 71.2179 140.472 72.5701 140.309L72.689 142.032C67.1017 142.924 60.7863 143.013 56.1054 143.043L55.8082 141.052C56.9227 141.052 58.1115 141.037 59.3746 141.022V127.975H56.462V126.043H71.3219ZM61.6333 140.992C63.1044 140.962 64.635 140.903 66.1507 140.829V127.975H61.6333V140.992ZM74.2642 149.581V123.16H76.5823V133.77H81.0106V135.732H76.5823V149.581H74.2642ZM104.222 123.16V136.98H101.933V123.16H104.222ZM83.8339 135.791V124.23H86.1521V128.123H93.9386V124.23H96.2568V135.791H83.8339ZM86.1521 133.919H93.9386V129.936H86.1521V133.919ZM87.0734 140.19V138.347H104.251V144.558H89.4212V147.412H105.202V149.284H87.1328V142.835H101.933V140.19H87.0734ZM130.553 123.16V149.641H128.235V123.16H130.553ZM110.225 127.559V125.627H122.529V135.018H112.662V141.26C117.046 141.274 120.954 141.066 125.679 140.309L125.917 142.27C121.058 143.028 117.046 143.221 112.484 143.221H110.284V133.116H120.181V127.559H110.225ZM159.114 137.247V139.179H135.041V137.247H145.918V134.483C140.851 134.216 137.716 132.314 137.716 129.193C137.716 125.939 141.342 123.978 147.078 123.963C152.754 123.978 156.395 125.939 156.41 129.193C156.395 132.314 153.244 134.216 148.237 134.483V137.247H159.114ZM138.162 149.016V141.319H140.509V147.055H156.439V149.016H138.162ZM140.123 129.193C140.108 131.348 142.813 132.581 147.078 132.581C151.313 132.581 154.017 131.348 154.032 129.193C154.017 127.172 151.313 125.865 147.078 125.865C142.813 125.865 140.108 127.172 140.123 129.193Z" fill="#1F2225"/>
<path d="M598.958 376.193V375.978H608.655V370.568H582.244V375.978H592.047V376.193C592.021 382.434 588.351 388.835 580.208 391.46L583.797 396.925C589.53 394.969 593.44 391.059 595.61 386.184C597.726 390.496 601.396 393.925 606.619 395.639L610.369 390.496C602.414 387.951 598.931 382.059 598.958 376.193ZM588.03 414.818H621.405V409.353H594.833V399.121H588.03V414.818ZM612.78 402.657H619.637V386.746H626.226V381.121H619.637V366.925H612.78V402.657ZM669.19 366.925H662.28V415.782H669.19V366.925ZM631.315 404.157H635.547C646.101 404.157 652.315 403.943 659.065 402.657L658.422 397.032C652.289 398.13 646.905 398.371 638.172 398.371V376.782H655.047V371.21H631.315V404.157ZM703.208 369.603H678.03V375.068H696.378C696.324 377.8 696.137 381.014 695.333 385.085L702.03 385.568C703.155 380.291 703.155 375.951 703.208 372.764V369.603ZM675.137 389.21L675.726 394.675C684.512 394.675 695.628 394.38 705.78 392.639L705.405 387.871C700.824 388.434 695.869 388.755 690.994 388.943V380.478H684.19V389.13C680.976 389.184 677.922 389.21 675.137 389.21ZM681.458 406.3C681.458 412.193 687.994 415.594 698.44 415.568C708.887 415.594 715.369 412.193 715.369 406.3C715.369 400.701 708.887 397.246 698.44 397.246C687.994 397.246 681.458 400.701 681.458 406.3ZM688.422 406.3C688.396 403.835 692.039 402.469 698.44 402.496C704.842 402.469 708.351 403.835 708.351 406.3C708.351 409.059 704.842 410.264 698.44 410.264C692.039 410.264 688.396 409.059 688.422 406.3ZM708.03 396.657H715.047V384.603H720.994V378.925H715.047V366.925H708.03V396.657ZM750.887 370.193H724.315V375.657H734.28C734.199 381.844 730.53 388.166 722.44 390.71L725.922 396.121C731.762 394.193 735.726 390.282 737.896 385.38C740.039 389.532 743.789 392.826 749.172 394.46L752.44 389.103C744.672 386.826 741.217 381.335 741.19 375.657H750.887V370.193ZM729.19 406.193C729.164 412.166 735.592 415.701 745.905 415.675C756.056 415.701 762.324 412.166 762.351 406.193C762.324 400.246 756.056 396.791 745.905 396.818C735.592 396.791 729.164 400.246 729.19 406.193ZM736.047 406.193C735.994 403.46 739.503 402.094 745.905 402.121C752.226 402.094 755.601 403.46 755.601 406.193C755.601 408.978 752.226 410.371 745.905 410.371C739.503 410.371 735.994 408.978 736.047 406.193ZM755.012 395.853H761.869V383.8H768.458V378.228H761.869V366.925H755.012V395.853Z" fill="white"/>
<mask id="path-11-inside-1_1_11564" fill="white">
<path d="M278.852 400.951L302.324 386.761L316.514 410.234L293.042 424.424L278.852 400.951Z"/>
</mask>
<path d="M278.852 400.951L302.324 386.761L316.514 410.234L293.042 424.424L278.852 400.951Z" fill="#FFF258"/>
<path d="M278.852 400.951L278.556 400.462L278.067 400.758L278.363 401.247L278.852 400.951ZM302.324 386.761L302.569 386.613L302.273 386.124L302.029 386.272L302.324 386.761ZM316.514 410.234L316.81 410.723L317.054 410.575L316.759 410.086L316.514 410.234ZM293.042 424.424L292.553 424.72L292.848 425.209L293.337 424.913L293.042 424.424ZM279.147 401.44L302.62 387.25L302.029 386.272L278.556 400.462L279.147 401.44ZM302.08 386.909L316.27 410.382L316.759 410.086L302.569 386.613L302.08 386.909ZM316.219 409.745L292.746 423.935L293.337 424.913L316.81 410.723L316.219 409.745ZM293.531 424.128L279.341 400.656L278.363 401.247L292.553 424.72L293.531 424.128Z" fill="#1F2225" mask="url(#path-11-inside-1_1_11564)"/>
<mask id="path-13-inside-2_1_11564" fill="white">
<path d="M302.324 386.761L325.797 372.571L339.987 396.043L316.514 410.233L302.324 386.761Z"/>
</mask>
<path d="M302.324 386.761L325.797 372.571L339.987 396.043L316.514 410.233L302.324 386.761Z" fill="#FFF258"/>
<path d="M302.324 386.761L302.029 386.272L301.784 386.42L302.08 386.909L302.324 386.761ZM325.797 372.571L326.286 372.275L325.99 371.786L325.501 372.082L325.797 372.571ZM339.987 396.043L340.283 396.532L340.772 396.237L340.476 395.748L339.987 396.043ZM316.514 410.233L316.27 410.381L316.565 410.87L316.81 410.723L316.514 410.233ZM302.62 387.25L326.093 373.06L325.501 372.082L302.029 386.272L302.62 387.25ZM325.308 372.866L339.498 396.339L340.476 395.748L326.286 372.275L325.308 372.866ZM339.691 395.554L316.219 409.744L316.81 410.723L340.283 396.532L339.691 395.554ZM316.759 410.086L302.569 386.613L302.08 386.909L316.27 410.381L316.759 410.086Z" fill="#1F2225" mask="url(#path-13-inside-2_1_11564)"/>
<path d="M295.271 399.084L290.06 402.234L288.641 399.887L296.387 395.204L297.75 397.458L302.283 414.076L299.654 415.665L295.271 399.084Z" fill="#1F2225"/>
<path d="M326.093 401.023C324.794 401.808 323.585 402.07 322.464 401.807C321.35 401.519 320.396 400.718 319.601 399.403L318.721 397.948C318.229 397.134 317.951 396.373 317.886 395.665C317.811 394.94 317.977 394.242 318.382 393.57L318.354 393.523C317.626 393.556 316.974 393.396 316.395 393.04C315.823 392.659 315.291 392.062 314.799 391.248L314.388 390.568C313.593 389.253 313.324 388.048 313.581 386.953C313.844 385.832 314.609 384.889 315.877 384.123C317.144 383.357 318.327 383.122 319.426 383.42C320.53 383.692 321.48 384.485 322.275 385.8L322.686 386.48C323.632 388.045 323.753 389.447 323.048 390.685L323.077 390.732C323.861 390.685 324.556 390.863 325.162 391.266C325.76 391.652 326.304 392.253 326.796 393.066L327.676 394.522C328.47 395.836 328.728 397.058 328.45 398.188C328.178 399.293 327.392 400.238 326.093 401.023ZM320.063 391.047C320.97 390.499 321.093 389.677 320.431 388.581L319.65 387.29C318.988 386.195 318.203 385.921 317.296 386.47C316.388 387.019 316.265 387.841 316.927 388.936L317.708 390.227C318.37 391.323 319.155 391.596 320.063 391.047ZM324.674 398.676C325.645 398.089 325.756 397.178 325.009 395.942L324.058 394.369C323.311 393.133 322.452 392.808 321.482 393.395C320.511 393.981 320.4 394.893 321.147 396.129L322.098 397.701C322.845 398.938 323.704 399.263 324.674 398.676Z" fill="#1F2225"/>
<mask id="path-17-inside-3_1_11564" fill="white">
<path d="M332.566 368.984L358.454 359.921L367.518 385.808L341.63 394.872L332.566 368.984Z"/>
</mask>
<path d="M332.566 368.984L358.454 359.921L367.518 385.808L341.63 394.872L332.566 368.984Z" fill="#FFF258"/>
<path d="M332.566 368.984L332.378 368.445L331.838 368.634L332.027 369.173L332.566 368.984ZM358.454 359.921L358.724 359.826L358.535 359.287L358.265 359.381L358.454 359.921ZM367.518 385.808L367.707 386.348L367.976 386.253L367.788 385.714L367.518 385.808ZM341.63 394.872L341.091 395.061L341.28 395.6L341.819 395.411L341.63 394.872ZM332.755 369.524L358.643 360.46L358.265 359.381L332.378 368.445L332.755 369.524ZM358.184 360.015L367.248 385.903L367.788 385.714L358.724 359.826L358.184 360.015ZM367.329 385.269L341.441 394.333L341.819 395.411L367.707 386.348L367.329 385.269ZM342.169 394.683L333.106 368.796L332.027 369.173L341.091 395.061L342.169 394.683Z" fill="#1F2225" mask="url(#path-17-inside-3_1_11564)"/>
<mask id="path-19-inside-4_1_11564" fill="white">
<path d="M358.453 359.921L384.341 350.857L393.405 376.745L367.517 385.809L358.453 359.921Z"/>
</mask>
<path d="M358.453 359.921L384.341 350.857L393.405 376.745L367.517 385.809L358.453 359.921Z" fill="#FFF258"/>
<path d="M358.453 359.921L358.264 359.382L357.995 359.476L358.183 360.015L358.453 359.921ZM384.341 350.857L384.88 350.668L384.691 350.129L384.152 350.318L384.341 350.857ZM393.405 376.745L393.593 377.284L394.133 377.095L393.944 376.556L393.405 376.745ZM367.517 385.809L367.247 385.903L367.436 386.442L367.706 386.348L367.517 385.809ZM358.642 360.46L384.53 351.396L384.152 350.318L358.264 359.382L358.642 360.46ZM383.802 351.046L392.865 376.934L393.944 376.556L384.88 350.668L383.802 351.046ZM393.216 376.206L367.328 385.269L367.706 386.348L393.593 377.284L393.216 376.206ZM367.787 385.714L358.723 359.826L358.183 360.015L367.247 385.903L367.787 385.714Z" fill="#1F2225" mask="url(#path-19-inside-4_1_11564)"/>
<path d="M352.997 386.867C351.616 387.35 350.427 387.33 349.431 386.807C348.428 386.267 347.67 385.264 347.156 383.797L347.038 383.46L349.731 382.518L349.912 383.035C350.329 384.226 351.029 384.649 352.013 384.305C352.548 384.118 352.887 383.815 353.031 383.396C353.176 382.978 353.103 382.354 352.813 381.526L351.598 378.057L351.546 378.075C351.414 379.303 350.736 380.132 349.51 380.561C348.475 380.923 347.566 380.844 346.783 380.324C346 379.804 345.373 378.87 344.902 377.524L343.769 374.288C343.261 372.839 343.24 371.587 343.704 370.533C344.168 369.479 345.099 368.708 346.497 368.218C347.895 367.729 349.104 367.751 350.124 368.285C351.144 368.819 351.908 369.811 352.415 371.261L355.696 380.632C356.796 383.773 355.896 385.852 352.997 386.867ZM349.769 377.564C350.753 377.219 351.036 376.452 350.619 375.261L349.495 372.051C349.084 370.877 348.387 370.463 347.403 370.807C346.42 371.152 346.133 371.911 346.544 373.084L347.668 376.294C348.085 377.485 348.785 377.908 349.769 377.564Z" fill="#1F2225"/>
<path d="M368.072 366.706L365.095 367.748L364.388 365.729C365.199 365.445 365.822 365.149 366.257 364.842C366.709 364.529 367.028 364.165 367.212 363.752C367.391 363.321 367.487 362.765 367.5 362.082L369.415 361.411L375.76 379.533L372.912 380.53L368.072 366.706ZM383.498 377.114C382.1 377.604 380.891 377.582 379.871 377.047C378.85 376.513 378.087 375.522 377.579 374.072L374.244 364.545C373.736 363.095 373.714 361.844 374.178 360.79C374.643 359.736 375.574 358.965 376.972 358.475C378.37 357.986 379.579 358.008 380.599 358.542C381.619 359.076 382.383 360.068 382.89 361.518L386.226 371.045C386.733 372.494 386.755 373.746 386.291 374.8C385.827 375.853 384.895 376.625 383.498 377.114ZM382.591 374.526C383.575 374.181 383.858 373.414 383.441 372.223L379.979 362.334C379.562 361.143 378.862 360.72 377.878 361.064C376.894 361.408 376.611 362.176 377.028 363.367L380.49 373.256C380.907 374.447 381.607 374.87 382.591 374.526Z" fill="#1F2225"/>
<mask id="path-23-inside-5_1_11564" fill="white">
<path d="M410.48 341.648L436.484 332.924L445.209 358.928L419.205 367.652L410.48 341.648Z"/>
</mask>
<path d="M410.48 341.648L436.484 332.924L445.209 358.928L419.205 367.652L410.48 341.648Z" fill="#FFF258"/>
<path d="M410.48 341.648L410.299 341.107L409.757 341.288L409.939 341.83L410.48 341.648ZM436.484 332.924L436.755 332.833L436.573 332.291L436.303 332.382L436.484 332.924ZM445.209 358.928L445.391 359.469L445.662 359.378L445.48 358.837L445.209 358.928ZM419.205 367.652L418.664 367.834L418.845 368.376L419.387 368.194L419.205 367.652ZM410.662 342.19L436.666 333.465L436.303 332.382L410.299 341.107L410.662 342.19ZM436.214 333.014L444.938 359.018L445.48 358.837L436.755 332.833L436.214 333.014ZM445.027 358.386L419.024 367.111L419.387 368.194L445.391 359.469L445.027 358.386ZM419.747 367.471L411.022 341.467L409.939 341.83L418.664 367.834L419.747 367.471Z" fill="#1F2225" mask="url(#path-23-inside-5_1_11564)"/>
<mask id="path-25-inside-6_1_11564" fill="white">
<path d="M436.484 332.924L462.488 324.199L471.213 350.203L445.209 358.928L436.484 332.924Z"/>
</mask>
<path d="M436.484 332.924L462.488 324.199L471.213 350.203L445.209 358.928L436.484 332.924Z" fill="#FFF258"/>
<path d="M436.484 332.924L436.303 332.382L436.032 332.473L436.214 333.015L436.484 332.924ZM462.488 324.199L463.03 324.017L462.848 323.475L462.307 323.657L462.488 324.199ZM471.213 350.203L471.395 350.745L471.937 350.563L471.755 350.021L471.213 350.203ZM445.209 358.928L444.938 359.019L445.12 359.56L445.391 359.469L445.209 358.928ZM436.666 333.466L462.67 324.741L462.307 323.657L436.303 332.382L436.666 333.466ZM461.947 324.381L470.671 350.385L471.755 350.021L463.03 324.017L461.947 324.381ZM471.031 349.661L445.027 358.386L445.391 359.469L471.395 350.745L471.031 349.661ZM445.48 358.837L436.755 332.833L436.214 333.015L444.938 359.019L445.48 358.837Z" fill="#1F2225" mask="url(#path-25-inside-6_1_11564)"/>
<path d="M420.224 347.564L417.234 348.568L416.553 346.539C417.368 346.266 417.995 345.979 418.434 345.677C418.89 345.37 419.213 345.011 419.403 344.6C419.587 344.171 419.69 343.616 419.712 342.934L421.636 342.288L427.744 360.491L424.883 361.45L420.224 347.564ZM430.636 344.071L427.645 345.074L426.965 343.046C427.78 342.773 428.406 342.485 428.845 342.184C429.302 341.876 429.625 341.517 429.815 341.106C429.999 340.678 430.102 340.123 430.124 339.44L432.048 338.795L438.155 356.997L435.295 357.957L430.636 344.071Z" fill="#1F2225"/>
<path d="M446.013 339.834L443.023 340.837L442.342 338.809C443.157 338.536 443.784 338.248 444.223 337.947C444.679 337.639 445.002 337.28 445.192 336.869C445.376 336.441 445.479 335.886 445.501 335.203L447.425 334.558L453.533 352.76L450.672 353.72L446.013 339.834ZM456.364 349.611C455.928 348.311 455.764 347.132 455.872 346.074C455.974 344.998 456.373 343.716 457.07 342.229C457.749 340.747 458.154 339.541 458.286 338.609C458.434 337.672 458.363 336.77 458.072 335.904C457.81 335.124 457.5 334.63 457.141 334.422C456.794 334.192 456.377 334.158 455.892 334.321C454.904 334.652 454.61 335.416 455.012 336.612L455.666 338.563L452.962 339.47L452.368 337.702C451.874 336.228 451.86 334.979 452.326 333.955C452.787 332.913 453.71 332.159 455.097 331.694C456.484 331.229 457.675 331.273 458.671 331.826C459.661 332.362 460.403 333.366 460.898 334.84C461.27 335.949 461.365 337.123 461.182 338.361C461.017 339.593 460.514 341.112 459.673 342.917C459.126 344.104 458.801 345.033 458.698 345.704C458.59 346.357 458.643 347.005 458.858 347.646L458.989 348.036L464.424 346.213L465.297 348.813L457.027 351.588L456.364 349.611Z" fill="#1F2225"/>
<mask id="path-29-inside-7_1_11564" fill="white">
<path d="M462.852 323.735L488.855 315.011L497.58 341.014L471.576 349.739L462.852 323.735Z"/>
</mask>
<path d="M462.852 323.735L488.855 315.011L497.58 341.014L471.576 349.739L462.852 323.735Z" fill="#FFF258"/>
<path d="M462.852 323.735L462.67 323.194L462.128 323.375L462.31 323.917L462.852 323.735ZM488.855 315.011L489.126 314.92L488.945 314.378L488.674 314.469L488.855 315.011ZM497.58 341.014L497.762 341.556L498.033 341.465L497.851 340.924L497.58 341.014ZM471.576 349.739L471.035 349.921L471.216 350.463L471.758 350.281L471.576 349.739ZM463.033 324.277L489.037 315.552L488.674 314.469L462.67 323.194L463.033 324.277ZM488.585 315.101L497.309 341.105L497.851 340.924L489.126 314.92L488.585 315.101ZM497.399 340.473L471.395 349.198L471.758 350.281L497.762 341.556L497.399 340.473ZM472.118 349.557L463.393 323.554L462.31 323.917L471.035 349.921L472.118 349.557Z" fill="#1F2225" mask="url(#path-29-inside-7_1_11564)"/>
<mask id="path-31-inside-8_1_11564" fill="white">
<path d="M488.855 315.011L514.859 306.286L523.584 332.29L497.58 341.015L488.855 315.011Z"/>
</mask>
<path d="M488.855 315.011L514.859 306.286L523.584 332.29L497.58 341.015L488.855 315.011Z" fill="#FFF258"/>
<path d="M488.855 315.011L488.674 314.469L488.403 314.56L488.585 315.102L488.855 315.011ZM514.859 306.286L515.401 306.104L515.219 305.562L514.678 305.744L514.859 306.286ZM523.584 332.29L523.766 332.832L524.308 332.65L524.126 332.108L523.584 332.29ZM497.58 341.015L497.309 341.106L497.491 341.647L497.762 341.556L497.58 341.015ZM489.037 315.552L515.041 306.828L514.678 305.744L488.674 314.469L489.037 315.552ZM514.318 306.468L523.042 332.472L524.126 332.108L515.401 306.104L514.318 306.468ZM523.402 331.748L497.399 340.473L497.762 341.556L523.766 332.832L523.402 331.748ZM497.851 340.924L489.126 314.92L488.585 315.102L497.309 341.106L497.851 340.924Z" fill="#1F2225" mask="url(#path-31-inside-8_1_11564)"/>
<path d="M472.595 329.651L469.605 330.655L468.924 328.626C469.739 328.353 470.366 328.065 470.805 327.764C471.261 327.457 471.584 327.097 471.774 326.686C471.958 326.258 472.061 325.703 472.083 325.021L474.007 324.375L480.115 342.578L477.254 343.537L472.595 329.651ZM487.805 340.287C486.401 340.758 485.204 340.725 484.214 340.19C483.242 339.648 482.511 338.649 482.022 337.193L481.525 335.711L484.23 334.803L484.77 336.415C485.172 337.612 485.867 338.044 486.855 337.712C487.34 337.55 487.655 337.28 487.799 336.904C487.954 336.505 487.904 335.924 487.648 335.161L487.15 333.679C486.871 332.846 486.526 332.306 486.115 332.059C485.698 331.793 485.16 331.771 484.502 331.992L483.539 332.315L482.667 329.715L483.707 329.366C484.279 329.174 484.654 328.884 484.833 328.496C485.029 328.103 485.01 327.559 484.778 326.866L484.333 325.539C484.123 324.915 483.839 324.5 483.48 324.292C483.121 324.085 482.725 324.054 482.292 324.199C481.373 324.507 481.103 325.225 481.481 326.352L481.882 327.548L479.178 328.455L478.855 327.493C478.366 326.037 478.346 324.8 478.795 323.781C479.262 322.757 480.171 322.017 481.523 321.564C482.893 321.104 484.064 321.145 485.036 321.687C486.003 322.211 486.731 323.202 487.219 324.658L487.437 325.308C487.769 326.296 487.872 327.149 487.746 327.866C487.614 328.566 487.246 329.162 486.639 329.655L486.657 329.707C487.495 329.734 488.184 330.005 488.723 330.518C489.262 331.032 489.694 331.774 490.02 332.745L490.56 334.357C491.049 335.813 491.06 337.054 490.594 338.078C490.139 339.079 489.209 339.815 487.805 340.287Z" fill="#1F2225"/>
<path d="M498.384 321.921L495.394 322.924L494.713 320.896C495.528 320.622 496.155 320.335 496.594 320.033C497.05 319.726 497.373 319.367 497.563 318.956C497.747 318.528 497.85 317.972 497.872 317.29L499.796 316.644L505.904 334.847L503.043 335.807L498.384 321.921ZM513.127 328.749L507.666 330.582L506.794 327.981L507.868 313.936L510.988 312.889L515.115 325.189L516.467 324.735L517.34 327.336L515.988 327.79L517.096 331.092L514.235 332.052L513.127 328.749ZM512.255 326.149L509.873 319.05L509.821 319.067L509.394 327.109L512.255 326.149Z" fill="#1F2225"/>
<mask id="path-35-inside-9_1_11564" fill="white">
<path d="M515.422 305.449L541.426 296.724L550.151 322.728L524.147 331.453L515.422 305.449Z"/>
</mask>
<path d="M515.422 305.449L541.426 296.724L550.151 322.728L524.147 331.453L515.422 305.449Z" fill="#FFF258"/>
<path d="M515.422 305.449L515.24 304.907L514.698 305.089L514.88 305.631L515.422 305.449ZM541.426 296.724L541.697 296.633L541.515 296.092L541.244 296.183L541.426 296.724ZM550.151 322.728L550.332 323.27L550.603 323.179L550.422 322.637L550.151 322.728ZM524.147 331.453L523.605 331.635L523.787 332.177L524.328 331.995L524.147 331.453ZM515.604 305.991L541.608 297.266L541.244 296.183L515.24 304.907L515.604 305.991ZM541.155 296.815L549.88 322.819L550.422 322.637L541.697 296.633L541.155 296.815ZM549.969 322.187L523.965 330.911L524.328 331.995L550.332 323.27L549.969 322.187ZM524.688 331.271L515.964 305.267L514.88 305.631L523.605 331.635L524.688 331.271Z" fill="#1F2225" mask="url(#path-35-inside-9_1_11564)"/>
<mask id="path-37-inside-10_1_11564" fill="white">
<path d="M541.426 296.725L567.43 288L576.155 314.004L550.151 322.729L541.426 296.725Z"/>
</mask>
<path d="M541.426 296.725L567.43 288L576.155 314.004L550.151 322.729L541.426 296.725Z" fill="#FFF258"/>
<path d="M541.426 296.725L541.244 296.183L540.973 296.274L541.155 296.815L541.426 296.725ZM567.43 288L567.971 287.818L567.79 287.276L567.248 287.458L567.43 288ZM576.155 314.004L576.336 314.545L576.878 314.364L576.696 313.822L576.155 314.004ZM550.151 322.729L549.88 322.819L550.062 323.361L550.332 323.27L550.151 322.729ZM541.608 297.266L567.611 288.542L567.248 287.458L541.244 296.183L541.608 297.266ZM566.888 288.182L575.613 314.185L576.696 313.822L567.971 287.818L566.888 288.182ZM575.973 313.462L549.969 322.187L550.332 323.27L576.336 314.545L575.973 313.462ZM550.421 322.638L541.697 296.634L541.155 296.815L549.88 322.819L550.421 322.638Z" fill="#1F2225" mask="url(#path-37-inside-10_1_11564)"/>
<path d="M525.165 311.365L522.175 312.369L521.495 310.34C522.309 310.067 522.936 309.779 523.375 309.478C523.831 309.17 524.154 308.811 524.344 308.4C524.529 307.972 524.632 307.417 524.653 306.734L526.578 306.089L532.685 324.292L529.825 325.251L525.165 311.365ZM540.506 321.957C539.119 322.422 537.93 322.387 536.94 321.851C535.945 321.298 535.2 320.285 534.705 318.811L534.225 317.381L536.93 316.473L537.48 318.112C537.875 319.291 538.567 319.714 539.555 319.383C540.543 319.051 540.84 318.296 540.444 317.117L539.074 313.034C538.673 311.838 537.978 311.406 536.99 311.737C536.002 312.069 535.708 312.833 536.11 314.029L536.162 314.185L533.458 315.092L530.566 304.75L538.107 302.22L538.98 304.821L533.987 306.496L535.21 310.917L535.262 310.9C535.503 309.835 536.178 309.117 537.288 308.744C538.328 308.395 539.236 308.486 540.012 309.017C540.788 309.547 541.402 310.488 541.856 311.841L543.235 315.949C543.729 317.423 543.746 318.681 543.285 319.722C542.819 320.747 541.892 321.492 540.506 321.957Z" fill="#1F2225"/>
<path d="M550.955 303.635L547.964 304.638L547.284 302.61C548.098 302.336 548.725 302.049 549.164 301.747C549.62 301.44 549.943 301.081 550.133 300.67C550.318 300.242 550.421 299.686 550.442 299.004L552.367 298.358L558.474 316.561L555.614 317.521L550.955 303.635ZM566.321 314.218C564.916 314.689 563.708 314.651 562.695 314.103C561.682 313.556 560.931 312.554 560.442 311.098L557.284 301.685C556.225 298.529 557.152 296.463 560.065 295.486C561.452 295.021 562.643 295.065 563.639 295.618C564.628 296.154 565.371 297.158 565.865 298.632L565.978 298.97L563.274 299.877L563.099 299.357C562.698 298.161 562.003 297.729 561.015 298.06C560.478 298.241 560.134 298.539 559.985 298.956C559.835 299.372 559.9 299.997 560.179 300.829L561.348 304.313L561.4 304.296C561.548 303.07 562.238 302.25 563.469 301.837C564.509 301.488 565.417 301.579 566.193 302.109C566.969 302.64 567.583 303.581 568.037 304.933L569.128 308.184C569.616 309.64 569.622 310.892 569.144 311.94C568.666 312.987 567.725 313.747 566.321 314.218ZM565.448 311.617C566.436 311.286 566.733 310.531 566.337 309.352L565.255 306.127C564.854 304.931 564.159 304.499 563.171 304.83C562.183 305.162 561.889 305.926 562.291 307.122L563.373 310.346C563.768 311.525 564.46 311.949 565.448 311.617Z" fill="#1F2225"/>
<mask id="path-41-inside-11_1_11564" fill="white">
<path d="M567.992 288.316L593.112 277.301L604.127 302.42L579.008 313.436L567.992 288.316Z"/>
</mask>
<path d="M567.992 288.316L593.112 277.301L604.127 302.42L579.008 313.436L567.992 288.316Z" fill="#FFF258"/>
<path d="M567.992 288.316L567.763 287.793L567.239 288.023L567.469 288.546L567.992 288.316ZM593.112 277.301L593.373 277.186L593.144 276.663L592.882 276.778L593.112 277.301ZM604.127 302.42L604.357 302.944L604.618 302.829L604.389 302.306L604.127 302.42ZM579.008 313.436L578.484 313.665L578.714 314.189L579.237 313.959L579.008 313.436ZM568.222 288.84L593.341 277.824L592.882 276.778L567.763 287.793L568.222 288.84ZM592.85 277.416L603.865 302.535L604.389 302.306L593.373 277.186L592.85 277.416ZM603.898 301.897L578.778 312.913L579.237 313.959L604.357 302.944L603.898 301.897ZM579.531 313.206L568.516 288.087L567.469 288.546L578.484 313.665L579.531 313.206Z" fill="#1F2225" mask="url(#path-41-inside-11_1_11564)"/>
<mask id="path-43-inside-12_1_11564" fill="white">
<path d="M593.113 277.301L618.233 266.285L629.248 291.405L604.129 302.42L593.113 277.301Z"/>
</mask>
<path d="M593.113 277.301L618.233 266.285L629.248 291.405L604.129 302.42L593.113 277.301Z" fill="#FFF258"/>
<path d="M593.113 277.301L592.884 276.777L592.622 276.892L592.852 277.416L593.113 277.301ZM618.233 266.285L618.756 266.056L618.527 265.533L618.003 265.762L618.233 266.285ZM629.248 291.405L629.478 291.928L630.001 291.699L629.771 291.175L629.248 291.405ZM604.129 302.42L603.867 302.535L604.096 303.058L604.358 302.944L604.129 302.42ZM593.343 277.824L618.462 266.809L618.003 265.762L592.884 276.777L593.343 277.824ZM617.709 266.515L628.725 291.634L629.771 291.175L618.756 266.056L617.709 266.515ZM629.019 290.882L603.899 301.897L604.358 302.944L629.478 291.928L629.019 290.882ZM604.39 302.306L593.375 277.186L592.852 277.416L603.867 302.535L604.39 302.306Z" fill="#1F2225" mask="url(#path-43-inside-12_1_11564)"/>
<path d="M578.225 293.337L575.336 294.604L574.477 292.645C575.264 292.299 575.862 291.957 576.273 291.617C576.699 291.271 576.989 290.884 577.142 290.458C577.287 290.015 577.34 289.452 577.3 288.771L579.159 287.956L586.87 305.539L584.107 306.751L578.225 293.337ZM589.088 286.597L583.511 289.042L582.409 286.53L590.699 282.895L591.756 285.307L594.089 302.374L591.276 303.607L589.088 286.597Z" fill="#1F2225"/>
<path d="M603.221 283.331L600.332 284.598L599.473 282.639C600.26 282.294 600.858 281.951 601.269 281.612C601.696 281.265 601.985 280.878 602.138 280.452C602.283 280.009 602.336 279.446 602.296 278.765L604.155 277.95L611.866 295.533L609.103 296.745L603.221 283.331ZM619.396 292.531C618.006 293.14 616.773 293.242 615.696 292.835C614.629 292.405 613.787 291.486 613.17 290.08L612.487 288.522C612.105 287.652 611.928 286.861 611.956 286.15C611.976 285.422 612.231 284.751 612.721 284.137L612.699 284.087C611.973 284.026 611.347 283.781 610.819 283.353C610.302 282.902 609.852 282.24 609.47 281.369L609.151 280.641C608.534 279.234 608.424 278.005 608.821 276.952C609.227 275.875 610.109 275.04 611.465 274.445C612.822 273.85 614.025 273.771 615.076 274.209C616.136 274.623 616.974 275.533 617.591 276.94L617.91 277.668C618.645 279.343 618.582 280.748 617.722 281.884L617.744 281.934C618.528 281.99 619.194 282.257 619.743 282.735C620.285 283.196 620.746 283.862 621.128 284.733L621.811 286.29C622.428 287.697 622.525 288.943 622.102 290.027C621.688 291.087 620.786 291.921 619.396 292.531ZM614.715 281.855C615.686 281.429 615.915 280.63 615.401 279.458L614.795 278.076C614.281 276.904 613.538 276.531 612.567 276.957C611.595 277.383 611.367 278.182 611.881 279.354L612.487 280.736C613.001 281.908 613.743 282.281 614.715 281.855ZM618.295 290.019C619.333 289.564 619.562 288.674 618.982 287.351L618.244 285.668C617.664 284.345 616.855 283.912 615.816 284.367C614.778 284.822 614.549 285.711 615.129 287.034L615.867 288.717C616.447 290.04 617.256 290.474 618.295 290.019Z" fill="#1F2225"/>
<mask id="path-47-inside-13_1_11564" fill="white">
<path d="M618.25 265.499L642.462 252.611L655.35 276.823L631.138 289.711L618.25 265.499Z"/>
</mask>
<path d="M618.25 265.499L642.462 252.611L655.35 276.823L631.138 289.711L618.25 265.499Z" fill="#FFF258"/>
<path d="M618.25 265.499L617.982 264.995L617.477 265.263L617.746 265.768L618.25 265.499ZM642.462 252.611L642.714 252.477L642.446 251.973L642.194 252.107L642.462 252.611ZM655.35 276.823L655.618 277.328L655.871 277.194L655.602 276.689L655.35 276.823ZM631.138 289.711L630.633 289.98L630.902 290.484L631.406 290.216L631.138 289.711ZM618.518 266.003L642.731 253.116L642.194 252.107L617.982 264.995L618.518 266.003ZM642.21 252.745L655.098 276.958L655.602 276.689L642.714 252.477L642.21 252.745ZM655.082 276.319L630.869 289.207L631.406 290.216L655.618 277.328L655.082 276.319ZM631.642 289.443L618.754 265.231L617.746 265.768L630.633 289.98L631.642 289.443Z" fill="#1F2225" mask="url(#path-47-inside-13_1_11564)"/>
<mask id="path-49-inside-14_1_11564" fill="white">
<path d="M642.461 252.611L666.673 239.724L679.561 263.936L655.349 276.824L642.461 252.611Z"/>
</mask>
<path d="M642.461 252.611L666.673 239.724L679.561 263.936L655.349 276.824L642.461 252.611Z" fill="#FFF258"/>
<path d="M642.461 252.611L642.192 252.107L641.94 252.241L642.209 252.746L642.461 252.611ZM666.673 239.724L667.178 239.455L666.909 238.951L666.405 239.219L666.673 239.724ZM679.561 263.936L679.829 264.44L680.334 264.172L680.065 263.667L679.561 263.936ZM655.349 276.824L655.097 276.958L655.365 277.462L655.617 277.328L655.349 276.824ZM642.729 253.116L666.942 240.228L666.405 239.219L642.192 252.107L642.729 253.116ZM666.169 239.992L679.057 264.204L680.065 263.667L667.178 239.455L666.169 239.992ZM679.292 263.431L655.08 276.319L655.617 277.328L679.829 264.44L679.292 263.431ZM655.601 276.689L642.713 252.477L642.209 252.746L655.097 276.958L655.601 276.689Z" fill="#1F2225" mask="url(#path-49-inside-14_1_11564)"/>
<path d="M628.834 269.729L626.05 271.211L625.045 269.323C625.803 268.919 626.374 268.532 626.758 268.163C627.157 267.784 627.417 267.377 627.536 266.94C627.647 266.487 627.658 265.923 627.567 265.246L629.358 264.292L638.38 281.241L635.717 282.659L628.834 269.729ZM645.564 277.728C644.273 278.415 643.095 278.576 642.03 278.21C640.957 277.829 640.055 276.952 639.325 275.58L639.157 275.265L641.675 273.925L641.933 274.409C642.526 275.523 643.282 275.835 644.203 275.345C644.703 275.079 644.993 274.728 645.071 274.292C645.15 273.857 644.984 273.252 644.571 272.477L642.844 269.232L642.796 269.258C642.852 270.492 642.307 271.414 641.161 272.024C640.192 272.539 639.282 272.599 638.429 272.204C637.576 271.808 636.815 270.981 636.145 269.722L634.534 266.696C633.812 265.34 633.601 264.106 633.899 262.994C634.198 261.882 635.002 260.978 636.309 260.282C637.616 259.586 638.815 259.425 639.904 259.798C640.993 260.171 641.899 261.035 642.621 262.391L647.286 271.156C648.85 274.094 648.276 276.284 645.564 277.728ZM640.961 269.023C641.882 268.533 642.045 267.731 641.452 266.617L639.854 263.615C639.27 262.517 638.518 262.214 637.598 262.703C636.678 263.193 636.51 263.987 637.094 265.084L638.692 268.087C639.285 269.2 640.041 269.512 640.961 269.023Z" fill="#1F2225"/>
<path d="M655.124 270.957C654.48 269.746 654.123 268.61 654.055 267.548C653.979 266.471 654.162 265.141 654.604 263.559C655.03 261.986 655.231 260.729 655.207 259.789C655.2 258.84 654.981 257.962 654.551 257.155C654.165 256.429 653.777 255.993 653.389 255.847C653.008 255.677 652.592 255.712 652.14 255.953C651.22 256.442 651.056 257.244 651.649 258.358L652.616 260.174L650.098 261.514L649.221 259.868C648.491 258.496 648.272 257.266 648.563 256.179C648.846 255.075 649.633 254.18 650.924 253.493C652.215 252.805 653.398 252.653 654.471 253.034C655.535 253.4 656.433 254.269 657.163 255.641C657.713 256.674 658 257.816 658.023 259.067C658.063 260.309 657.817 261.89 657.285 263.81C656.941 265.07 656.774 266.039 656.783 266.718C656.783 267.381 656.943 268.011 657.261 268.608L657.454 268.971L662.514 266.278L663.803 268.699L656.103 272.797L655.124 270.957ZM669.825 265.804C668.517 266.5 667.319 266.661 666.23 266.288C665.14 265.915 664.235 265.051 663.513 263.695L658.77 254.785C658.049 253.429 657.837 252.195 658.136 251.083C658.435 249.971 659.238 249.067 660.546 248.371C661.853 247.675 663.052 247.514 664.141 247.887C665.23 248.26 666.136 249.124 666.857 250.48L671.6 259.39C672.322 260.746 672.533 261.98 672.234 263.092C671.935 264.204 671.132 265.108 669.825 265.804ZM668.536 263.383C669.456 262.893 669.62 262.091 669.027 260.978L664.104 251.729C663.511 250.615 662.755 250.303 661.834 250.793C660.914 251.282 660.751 252.084 661.344 253.198L666.267 262.447C666.86 263.561 667.616 263.873 668.536 263.383Z" fill="#1F2225"/>
<mask id="path-53-inside-15_1_11564" fill="white">
<path d="M667.422 238.887L690.469 224.015L705.341 247.062L682.294 261.933L667.422 238.887Z"/>
</mask>
<path d="M667.422 238.887L690.469 224.015L705.341 247.062L682.294 261.933L667.422 238.887Z" fill="#FFF258"/>
<path d="M667.422 238.887L667.112 238.407L666.632 238.716L666.942 239.197L667.422 238.887ZM690.469 224.015L690.709 223.86L690.399 223.38L690.159 223.535L690.469 224.015ZM705.341 247.062L705.65 247.542L705.89 247.387L705.581 246.907L705.341 247.062ZM682.294 261.933L681.814 262.243L682.123 262.723L682.604 262.414L682.294 261.933ZM667.732 239.367L690.778 224.495L690.159 223.535L667.112 238.407L667.732 239.367ZM690.229 224.17L705.1 247.217L705.581 246.907L690.709 223.86L690.229 224.17ZM705.031 246.581L681.984 261.453L682.604 262.414L705.65 247.542L705.031 246.581ZM682.774 261.624L667.902 238.577L666.942 239.197L681.814 262.243L682.774 261.624Z" fill="#1F2225" mask="url(#path-53-inside-15_1_11564)"/>
<mask id="path-55-inside-16_1_11564" fill="white">
<path d="M690.469 224.015L713.516 209.143L728.387 232.19L705.341 247.061L690.469 224.015Z"/>
</mask>
<path d="M690.469 224.015L713.516 209.143L728.387 232.19L705.341 247.061L690.469 224.015Z" fill="#FFF258"/>
<path d="M690.469 224.015L690.159 223.535L689.919 223.689L690.229 224.17L690.469 224.015ZM713.516 209.143L713.996 208.833L713.686 208.353L713.206 208.663L713.516 209.143ZM728.387 232.19L728.697 232.67L729.177 232.36L728.868 231.88L728.387 232.19ZM705.341 247.061L705.101 247.216L705.41 247.696L705.65 247.542L705.341 247.061ZM690.779 224.495L713.825 209.623L713.206 208.663L690.159 223.535L690.779 224.495ZM713.035 209.453L727.907 232.499L728.868 231.88L713.996 208.833L713.035 209.453ZM728.078 231.709L705.031 246.581L705.65 247.542L728.697 232.67L728.078 231.709ZM705.581 246.907L690.709 223.86L690.229 224.17L705.101 247.216L705.581 246.907Z" fill="#1F2225" mask="url(#path-55-inside-16_1_11564)"/>
<path d="M681.538 255.091C680.794 253.938 680.344 252.836 680.187 251.784C680.021 250.716 680.091 249.376 680.4 247.762C680.692 246.159 680.787 244.89 680.685 243.955C680.597 243.01 680.306 242.154 679.81 241.385C679.364 240.694 678.941 240.292 678.542 240.18C678.149 240.042 677.737 240.112 677.307 240.389C676.431 240.954 676.335 241.767 677.019 242.827L678.135 244.556L675.738 246.102L674.726 244.535C673.884 243.229 673.562 242.022 673.761 240.915C673.95 239.791 674.66 238.833 675.889 238.04C677.118 237.247 678.283 236.995 679.385 237.286C680.476 237.561 681.443 238.351 682.286 239.657C682.92 240.641 683.302 241.755 683.43 242.999C683.574 244.234 683.462 245.83 683.093 247.787C682.855 249.072 682.77 250.052 682.836 250.728C682.892 251.388 683.103 252.002 683.47 252.571L683.693 252.916L688.51 249.808L689.997 252.113L682.668 256.842L681.538 255.091ZM687.549 236.261L684.899 237.971L683.739 236.173C684.461 235.707 684.998 235.274 685.349 234.874C685.715 234.463 685.939 234.035 686.022 233.59C686.095 233.13 686.058 232.566 685.91 231.9L687.616 230.799L698.026 246.932L695.491 248.568L687.549 236.261Z" fill="#1F2225"/>
<path d="M704.624 241.235C703.88 240.083 703.43 238.981 703.273 237.928C703.107 236.861 703.177 235.52 703.486 233.907C703.778 232.303 703.873 231.034 703.771 230.099C703.683 229.155 703.392 228.298 702.896 227.53C702.45 226.838 702.027 226.437 701.628 226.324C701.235 226.186 700.823 226.256 700.393 226.534C699.517 227.099 699.421 227.912 700.105 228.972L701.221 230.7L698.824 232.247L697.812 230.68C696.97 229.374 696.648 228.167 696.847 227.059C697.036 225.936 697.745 224.978 698.975 224.185C700.204 223.391 701.369 223.14 702.47 223.43C703.562 223.705 704.529 224.496 705.372 225.802C706.006 226.785 706.388 227.899 706.516 229.144C706.66 230.378 706.548 231.974 706.178 233.932C705.941 235.217 705.855 236.197 705.921 236.872C705.978 237.532 706.189 238.147 706.556 238.715L706.779 239.061L711.596 235.953L713.083 238.257L705.754 242.987L704.624 241.235ZM713.851 235.281C713.108 234.128 712.658 233.026 712.501 231.974C712.334 230.906 712.405 229.566 712.713 227.952C713.006 226.349 713.101 225.08 712.998 224.145C712.911 223.2 712.62 222.344 712.124 221.575C711.678 220.884 711.255 220.482 710.856 220.369C710.462 220.232 710.051 220.302 709.62 220.579C708.745 221.144 708.649 221.957 709.333 223.017L710.448 224.746L708.051 226.292L707.04 224.725C706.197 223.419 705.876 222.212 706.075 221.105C706.264 219.981 706.973 219.023 708.202 218.23C709.432 217.437 710.597 217.185 711.698 217.476C712.79 217.751 713.757 218.541 714.599 219.847C715.234 220.831 715.616 221.945 715.744 223.189C715.888 224.424 715.775 226.02 715.406 227.977C715.169 229.262 715.083 230.242 715.149 230.918C715.205 231.578 715.417 232.192 715.784 232.761L716.007 233.106L720.823 229.998L722.311 232.303L714.982 237.032L713.851 235.281Z" fill="#1F2225"/>
<mask id="path-59-inside-17_1_11564" fill="white">
<path d="M714.281 208.754L737.09 193.519L752.324 216.328L729.516 231.563L714.281 208.754Z"/>
</mask>
<path d="M714.281 208.754L737.09 193.519L752.324 216.328L729.516 231.563L714.281 208.754Z" fill="#FFF258"/>
<path d="M714.281 208.754L713.964 208.279L713.489 208.596L713.806 209.071L714.281 208.754ZM737.09 193.519L737.328 193.361L737.01 192.886L736.773 193.044L737.09 193.519ZM752.324 216.328L752.642 216.803L752.879 216.645L752.562 216.169L752.324 216.328ZM729.516 231.563L729.041 231.88L729.358 232.355L729.833 232.038L729.516 231.563ZM714.599 209.229L737.407 193.995L736.773 193.044L713.964 208.279L714.599 209.229ZM736.852 193.678L752.087 216.487L752.562 216.169L737.328 193.361L736.852 193.678ZM752.007 215.853L729.198 231.087L729.833 232.038L752.642 216.803L752.007 215.853ZM729.991 231.245L714.756 208.437L713.806 209.071L729.041 231.88L729.991 231.245Z" fill="#1F2225" mask="url(#path-59-inside-17_1_11564)"/>
<mask id="path-61-inside-18_1_11564" fill="white">
<path d="M737.09 193.52L759.899 178.285L775.133 201.094L752.324 216.328L737.09 193.52Z"/>
</mask>
<path d="M737.09 193.52L759.899 178.285L775.133 201.094L752.324 216.328L737.09 193.52Z" fill="#FFF258"/>
<path d="M737.09 193.52L736.772 193.044L736.535 193.203L736.852 193.678L737.09 193.52ZM759.899 178.285L760.374 177.968L760.056 177.492L759.581 177.81L759.899 178.285ZM775.133 201.094L775.45 201.569L775.926 201.252L775.608 200.776L775.133 201.094ZM752.324 216.328L752.087 216.487L752.404 216.962L752.642 216.803L752.324 216.328ZM737.407 193.995L760.216 178.76L759.581 177.81L736.772 193.044L737.407 193.995ZM759.423 178.602L774.658 201.411L775.608 200.776L760.374 177.968L759.423 178.602ZM774.816 200.619L752.007 215.853L752.642 216.803L775.45 201.569L774.816 200.619ZM752.562 216.17L737.327 193.361L736.852 193.678L752.087 216.487L752.562 216.17Z" fill="#1F2225" mask="url(#path-61-inside-18_1_11564)"/>
<path d="M728.652 224.732C727.89 223.592 727.423 222.497 727.249 221.447C727.066 220.382 727.115 219.041 727.398 217.423C727.665 215.815 727.74 214.544 727.623 213.611C727.521 212.668 727.216 211.816 726.708 211.056C726.251 210.372 725.822 209.977 725.421 209.87C725.025 209.739 724.615 209.815 724.189 210.1C723.322 210.679 723.239 211.493 723.94 212.542L725.083 214.253L722.71 215.837L721.675 214.286C720.811 212.993 720.47 211.792 720.652 210.681C720.823 209.555 721.517 208.586 722.734 207.773C723.95 206.961 725.112 206.691 726.217 206.964C727.313 207.221 728.292 207.997 729.156 209.289C729.806 210.262 730.205 211.37 730.353 212.612C730.516 213.845 730.429 215.442 730.091 217.405C729.874 218.694 729.804 219.675 729.88 220.349C729.947 221.009 730.168 221.62 730.544 222.182L730.772 222.524L735.539 219.34L737.063 221.621L729.81 226.466L728.652 224.732ZM742.698 218.187C741.467 219.01 740.303 219.292 739.207 219.035C738.127 218.767 737.16 217.994 736.307 216.717L735.438 215.417L737.811 213.832L738.755 215.246C739.456 216.296 740.24 216.531 741.106 215.952C741.532 215.668 741.765 215.325 741.805 214.924C741.851 214.498 741.65 213.951 741.203 213.282L740.335 211.982C739.847 211.252 739.373 210.821 738.911 210.69C738.439 210.543 737.914 210.663 737.336 211.048L736.493 211.612L734.969 209.331L735.881 208.722C736.383 208.387 736.669 208.009 736.74 207.588C736.826 207.156 736.666 206.637 736.259 206.029L735.483 204.865C735.117 204.318 734.734 203.991 734.333 203.885C733.932 203.779 733.542 203.853 733.162 204.107C732.356 204.645 732.283 205.408 732.943 206.397L733.644 207.446L731.272 209.03L730.708 208.186C729.855 206.909 729.512 205.72 729.678 204.619C729.86 203.508 730.543 202.557 731.729 201.765C732.931 200.962 734.072 200.695 735.152 200.963C736.222 201.216 737.184 201.981 738.037 203.258L738.418 203.828C738.997 204.695 739.32 205.491 739.386 206.216C739.443 206.926 739.243 207.598 738.787 208.232L738.818 208.278C739.634 208.085 740.369 208.165 741.024 208.52C741.678 208.874 742.29 209.477 742.859 210.329L743.803 211.743C744.656 213.02 744.992 214.214 744.811 215.325C744.634 216.41 743.93 217.364 742.698 218.187Z" fill="#1F2225"/>
<path d="M751.515 210.514C750.753 209.373 750.286 208.278 750.113 207.228C749.929 206.164 749.979 204.822 750.261 203.204C750.529 201.596 750.604 200.326 750.486 199.393C750.384 198.449 750.079 197.598 749.571 196.837C749.114 196.153 748.685 195.758 748.284 195.652C747.889 195.52 747.478 195.597 747.052 195.881C746.185 196.46 746.102 197.274 746.803 198.323L747.946 200.034L745.574 201.618L744.538 200.067C743.675 198.775 743.334 197.573 743.515 196.462C743.687 195.336 744.381 194.367 745.597 193.554C746.814 192.742 747.975 192.472 749.081 192.745C750.176 193.003 751.156 193.778 752.019 195.07C752.669 196.043 753.068 197.151 753.216 198.394C753.38 199.626 753.292 201.223 752.954 203.186C752.737 204.475 752.667 205.456 752.744 206.131C752.81 206.79 753.031 207.401 753.407 207.963L753.636 208.306L758.403 205.122L759.926 207.402L752.673 212.247L751.515 210.514ZM764.113 200.417L759.323 203.616L757.8 201.335L755.156 187.5L757.893 185.672L765.099 196.46L766.285 195.668L767.808 197.949L766.622 198.741L768.557 201.638L766.048 203.314L764.113 200.417ZM762.59 198.136L758.431 191.909L758.385 191.94L760.081 199.812L762.59 198.136Z" fill="#1F2225"/>
<mask id="path-65-inside-19_1_11564" fill="white">
<path d="M298.191 445.714L300.497 473.045L273.165 475.351L270.86 448.019L298.191 445.714Z"/>
</mask>
<path d="M298.191 445.714L300.497 473.045L273.165 475.351L270.86 448.019L298.191 445.714Z" fill="#FFF258"/>
<path d="M298.191 445.714L298.761 445.666L298.713 445.096L298.143 445.144L298.191 445.714ZM300.497 473.045L300.521 473.33L301.09 473.282L301.066 472.997L300.497 473.045ZM273.165 475.351L272.596 475.399L272.62 475.683L273.189 475.635L273.165 475.351ZM270.86 448.019L270.812 447.45L270.242 447.498L270.29 448.067L270.86 448.019ZM297.622 445.762L299.927 473.093L301.066 472.997L298.761 445.666L297.622 445.762ZM300.473 472.761L273.141 475.066L273.189 475.635L300.521 473.33L300.473 472.761ZM273.734 475.303L271.429 447.971L270.29 448.067L272.596 475.399L273.734 475.303ZM270.908 448.588L298.239 446.283L298.143 445.144L270.812 447.45L270.908 448.588Z" fill="#1F2225" mask="url(#path-65-inside-19_1_11564)"/>
<mask id="path-67-inside-20_1_11564" fill="white">
<path d="M300.496 473.045L302.801 500.376L275.47 502.682L273.165 475.35L300.496 473.045Z"/>
</mask>
<path d="M300.496 473.045L302.801 500.376L275.47 502.682L273.165 475.35L300.496 473.045Z" fill="#FFF258"/>
<path d="M300.496 473.045L301.066 472.997L301.041 472.712L300.472 472.76L300.496 473.045ZM302.801 500.376L302.849 500.946L303.419 500.898L303.371 500.328L302.801 500.376ZM275.47 502.682L274.9 502.73L274.948 503.299L275.518 503.251L275.47 502.682ZM273.165 475.35L273.141 475.065L272.571 475.113L272.595 475.398L273.165 475.35ZM299.927 473.093L302.232 500.424L303.371 500.328L301.066 472.997L299.927 473.093ZM302.753 499.807L275.422 502.112L275.518 503.251L302.849 500.946L302.753 499.807ZM276.039 502.634L273.734 475.302L272.595 475.398L274.9 502.73L276.039 502.634ZM273.189 475.635L300.52 473.33L300.472 472.76L273.141 475.065L273.189 475.635Z" fill="#1F2225" mask="url(#path-67-inside-20_1_11564)"/>
<path opacity="0.9" d="M288.222 498.373C286.764 498.496 285.618 498.18 284.784 497.424C283.948 496.651 283.465 495.489 283.334 493.941L283.207 492.437L286.05 492.198L286.195 493.919C286.299 495.159 286.871 495.734 287.91 495.647C288.948 495.559 289.415 494.896 289.311 493.657L288.949 489.366C288.843 488.108 288.27 487.524 287.232 487.611C286.193 487.699 285.727 488.371 285.833 489.628L285.847 489.792L283.004 490.032L282.65 479.299L290.576 478.631L290.806 481.364L285.559 481.807L285.698 486.392L285.752 486.387C286.239 485.41 287.065 484.873 288.231 484.774C289.324 484.682 290.185 484.986 290.813 485.685C291.441 486.385 291.815 487.445 291.934 488.866L292.299 493.184C292.429 494.733 292.147 495.959 291.453 496.862C290.757 497.746 289.68 498.25 288.222 498.373Z" fill="#1F2225"/>
<path d="M285.945 471.039C284.469 471.163 283.304 470.839 282.45 470.067C281.595 469.295 281.104 468.144 280.975 466.613L280.14 456.719C279.86 453.403 281.251 451.616 284.312 451.358C285.77 451.235 286.917 451.56 287.753 452.334C288.587 453.089 289.07 454.241 289.2 455.79L289.23 456.145L286.388 456.385L286.342 455.838C286.236 454.581 285.663 453.996 284.625 454.084C284.06 454.131 283.655 454.34 283.411 454.709C283.167 455.078 283.082 455.7 283.156 456.575L283.465 460.237L283.519 460.233C283.954 459.077 284.818 458.444 286.112 458.335C287.205 458.243 288.066 458.546 288.694 459.246C289.321 459.945 289.695 461.006 289.815 462.427L290.103 465.843C290.232 467.374 289.941 468.591 289.228 469.495C288.515 470.4 287.421 470.914 285.945 471.039ZM285.714 468.305C286.753 468.218 287.22 467.554 287.115 466.315L286.829 462.926C286.723 461.669 286.151 461.084 285.113 461.172C284.074 461.259 283.608 461.932 283.714 463.189L284 466.578C284.104 467.817 284.676 468.393 285.714 468.305Z" fill="#1F2225"/>
<mask id="path-71-inside-21_1_11564" fill="white">
<path d="M302.758 501.715L305.063 529.046L277.731 531.352L275.426 504.02L302.758 501.715Z"/>
</mask>
<path d="M302.758 501.715L305.063 529.046L277.731 531.352L275.426 504.02L302.758 501.715Z" fill="#FFF258"/>
<path d="M302.758 501.715L303.327 501.667L303.279 501.097L302.71 501.145L302.758 501.715ZM305.063 529.046L305.087 529.331L305.656 529.283L305.632 528.998L305.063 529.046ZM277.731 531.352L277.162 531.4L277.186 531.684L277.755 531.636L277.731 531.352ZM275.426 504.02L275.378 503.451L274.809 503.499L274.857 504.068L275.426 504.02ZM302.188 501.763L304.494 529.094L305.632 528.998L303.327 501.667L302.188 501.763ZM305.039 528.762L277.707 531.067L277.755 531.636L305.087 529.331L305.039 528.762ZM278.301 531.304L275.996 503.972L274.857 504.068L277.162 531.4L278.301 531.304ZM275.474 504.589L302.806 502.284L302.71 501.145L275.378 503.451L275.474 504.589Z" fill="#1F2225" mask="url(#path-71-inside-21_1_11564)"/>
<mask id="path-73-inside-22_1_11564" fill="white">
<path d="M305.062 529.046L307.368 556.377L280.036 558.683L277.731 531.351L305.062 529.046Z"/>
</mask>
<path d="M305.062 529.046L307.368 556.377L280.036 558.683L277.731 531.351L305.062 529.046Z" fill="#FFF258"/>
<path d="M305.062 529.046L305.632 528.998L305.608 528.713L305.038 528.761L305.062 529.046ZM307.368 556.377L307.416 556.947L307.985 556.899L307.937 556.329L307.368 556.377ZM280.036 558.683L279.467 558.731L279.515 559.3L280.084 559.252L280.036 558.683ZM277.731 531.351L277.707 531.066L277.138 531.114L277.162 531.399L277.731 531.351ZM304.493 529.094L306.798 556.425L307.937 556.329L305.632 528.998L304.493 529.094ZM307.32 555.808L279.988 558.113L280.084 559.252L307.416 556.947L307.32 555.808ZM280.606 558.635L278.3 531.303L277.162 531.399L279.467 558.731L280.606 558.635ZM277.755 531.636L305.087 529.331L305.038 528.761L277.707 531.066L277.755 531.636Z" fill="#1F2225" mask="url(#path-73-inside-22_1_11564)"/>
<path opacity="0.9" d="M292.652 554.385C291.176 554.51 290.021 554.194 289.186 553.439C288.37 552.682 287.897 551.538 287.768 550.008L287.637 548.45L290.479 548.21L290.622 549.905C290.728 551.162 291.301 551.747 292.339 551.659C292.849 551.616 293.219 551.429 293.448 551.098C293.694 550.747 293.783 550.17 293.715 549.369L293.584 547.811C293.51 546.936 293.303 546.33 292.962 545.991C292.62 545.635 292.103 545.486 291.411 545.544L290.399 545.629L290.169 542.896L291.262 542.804C291.863 542.753 292.297 542.561 292.562 542.226C292.846 541.891 292.957 541.358 292.895 540.629L292.778 539.235C292.723 538.58 292.545 538.108 292.246 537.821C291.946 537.535 291.569 537.411 291.113 537.449C290.148 537.531 289.715 538.163 289.815 539.348L289.921 540.605L287.078 540.845L286.993 539.834C286.864 538.303 287.138 537.096 287.816 536.213C288.512 535.329 289.571 534.827 290.992 534.707C292.432 534.585 293.559 534.903 294.376 535.66C295.19 536.399 295.662 537.533 295.791 539.064L295.849 539.747C295.936 540.786 295.834 541.639 295.542 542.305C295.248 542.954 294.748 543.446 294.042 543.781L294.047 543.835C294.855 544.061 295.46 544.487 295.861 545.114C296.263 545.74 296.506 546.564 296.592 547.584L296.735 549.279C296.864 550.81 296.581 552.017 295.885 552.902C295.205 553.766 294.128 554.261 292.652 554.385Z" fill="#1F2225"/>
<path d="M290.797 523.244L285.057 523.728L284.826 520.995L289.202 507.606L292.482 507.33L293.573 520.258L294.994 520.138L295.224 522.871L293.803 522.991L294.096 526.462L291.089 526.715L290.797 523.244ZM290.566 520.511L289.937 513.05L289.882 513.054L287.56 520.765L290.566 520.511Z" fill="#1F2225"/>
<mask id="path-77-inside-23_1_11564" fill="white">
<path d="M307.328 558.857L309.633 586.189L282.302 588.494L279.997 561.163L307.328 558.857Z"/>
</mask>
<path d="M307.328 558.857L309.633 586.189L282.302 588.494L279.997 561.163L307.328 558.857Z" fill="#FFF258"/>
<path d="M307.328 558.857L307.898 558.809L307.85 558.24L307.28 558.288L307.328 558.857ZM309.633 586.189L309.657 586.474L310.227 586.426L310.203 586.141L309.633 586.189ZM282.302 588.494L281.732 588.542L281.756 588.827L282.326 588.779L282.302 588.494ZM279.997 561.163L279.949 560.593L279.379 560.641L279.427 561.211L279.997 561.163ZM306.759 558.905L309.064 586.237L310.203 586.141L307.898 558.809L306.759 558.905ZM309.609 585.904L282.278 588.209L282.326 588.779L309.657 586.474L309.609 585.904ZM282.871 588.446L280.566 561.115L279.427 561.211L281.732 588.542L282.871 588.446ZM280.045 561.732L307.376 559.427L307.28 558.288L279.949 560.593L280.045 561.732Z" fill="#1F2225" mask="url(#path-77-inside-23_1_11564)"/>
<mask id="path-79-inside-24_1_11564" fill="white">
<path d="M309.633 586.188L311.938 613.52L284.606 615.825L282.301 588.494L309.633 586.188Z"/>
</mask>
<path d="M309.633 586.188L311.938 613.52L284.606 615.825L282.301 588.494L309.633 586.188Z" fill="#FFF258"/>
<path d="M309.633 586.188L310.202 586.14L310.178 585.856L309.609 585.904L309.633 586.188ZM311.938 613.52L311.986 614.089L312.555 614.041L312.507 613.472L311.938 613.52ZM284.606 615.825L284.037 615.873L284.085 616.443L284.654 616.395L284.606 615.825ZM282.301 588.494L282.277 588.209L281.708 588.257L281.732 588.542L282.301 588.494ZM309.063 586.237L311.369 613.568L312.507 613.472L310.202 586.14L309.063 586.237ZM311.89 612.951L284.558 615.256L284.654 616.395L311.986 614.089L311.89 612.951ZM285.176 615.777L282.871 588.446L281.732 588.542L284.037 615.873L285.176 615.777ZM282.325 588.778L309.657 586.473L309.609 585.904L282.277 588.209L282.325 588.778Z" fill="#1F2225" mask="url(#path-79-inside-24_1_11564)"/>
<path opacity="0.9" d="M292.705 609.542C292.59 608.175 292.711 606.991 293.066 605.988C293.421 604.967 294.113 603.817 295.143 602.537C296.154 601.259 296.834 600.183 297.183 599.31C297.549 598.435 297.694 597.542 297.617 596.631C297.548 595.811 297.364 595.257 297.064 594.971C296.782 594.664 296.385 594.532 295.875 594.575C294.836 594.663 294.37 595.336 294.476 596.593L294.649 598.643L291.806 598.882L291.65 597.024C291.519 595.475 291.802 594.258 292.498 593.374C293.193 592.471 294.269 591.958 295.726 591.835C297.184 591.712 298.331 592.038 299.167 592.811C300.001 593.567 300.484 594.719 300.614 596.268C300.713 597.434 300.526 598.597 300.055 599.756C299.602 600.913 298.753 602.269 297.508 603.824C296.695 604.847 296.159 605.672 295.9 606.299C295.64 606.909 295.538 607.55 295.595 608.224L295.629 608.634L301.342 608.153L301.572 610.886L292.881 611.619L292.705 609.542Z" fill="#1F2225"/>
<path d="M293.609 569.332L290.466 569.597L290.286 567.465C291.142 567.393 291.819 567.263 292.317 567.074C292.833 566.884 293.232 566.611 293.515 566.257C293.795 565.885 294.027 565.37 294.21 564.712L296.233 564.542L297.846 583.674L294.84 583.927L293.609 569.332Z" fill="#1F2225"/>
<rect x="275.74" y="704.108" width="46.1669" height="67.4996" transform="rotate(-6.84619 275.74 704.108)" fill="#FFF258" stroke="#1F2225" stroke-width="0.571429"/>
<path d="M310.658 705.5L311.628 704.982C312.181 707.607 313.522 709.671 315.094 709.614L314.571 705.213L315.604 705.09L316.134 709.555L317.58 709.383L317.735 710.686L316.289 710.857L316.82 715.322L315.787 715.445L315.262 711.028C313.72 711.34 312.898 713.645 312.979 716.358L311.915 716.082C311.89 713.7 312.485 711.519 313.781 710.495C312.279 709.787 311.191 707.821 310.658 705.5ZM304.357 711.598C304.625 713.854 305.273 715.098 306.162 714.993C307.052 714.887 307.406 713.524 307.138 711.268C306.87 709.012 306.207 707.769 305.317 707.875C304.427 707.981 304.089 709.342 304.357 711.598ZM308.107 711.153C308.471 714.219 307.86 716.128 306.319 716.312C304.778 716.495 303.736 714.781 303.372 711.715C303.008 708.649 303.619 706.739 305.16 706.556C306.701 706.373 307.743 708.086 308.107 711.153ZM310.299 711.569L310.986 717.352L309.938 717.477L308.407 704.591L309.456 704.467L310.145 710.266L311.908 710.057L312.063 711.359L310.299 711.569ZM318.075 726.837L317.026 726.962L316.028 718.557L317.076 718.432L317.497 721.975L319.086 721.787L319.241 723.089L317.652 723.278L318.075 726.837ZM312.964 720.983C312.011 721.096 311.493 722.028 311.648 723.331C311.803 724.633 312.526 725.434 313.48 725.32C314.417 725.209 314.933 724.262 314.778 722.959C314.623 721.656 313.902 720.872 312.964 720.983ZM313.627 726.56C312.054 726.747 310.889 725.483 310.647 723.45C310.407 721.432 311.244 719.931 312.817 719.744C314.374 719.559 315.555 720.82 315.795 722.838C316.037 724.872 315.184 726.375 313.627 726.56ZM308.039 721.294L309.103 721.168L310.202 730.415L305.626 730.958L305.471 729.655L308.982 729.238L308.039 721.294ZM316.204 731.845L315.124 731.973L314.873 729.86L310.98 730.322L310.825 729.019L319.723 727.962L319.878 729.265L315.953 729.732L316.204 731.845ZM316.487 742.363L313.039 742.773L312.892 741.534L320.947 740.577L321.095 741.816L317.552 742.237L317.767 744.048L321.58 743.595L321.729 744.851L312.943 745.894L312.794 744.639L316.702 744.175L316.487 742.363ZM314.475 740.75L313.391 740.169C313.772 738.771 314.674 737.681 315.821 737.029C314.426 736.679 313.098 735.805 312.314 734.497L313.248 733.677C314.295 735.438 316.27 736.331 317.859 736.142L319.781 735.914L319.93 737.169L318.008 737.397C316.435 737.584 314.957 738.839 314.475 740.75ZM307.951 741.718C308.208 743.879 308.937 745.129 309.922 745.012C310.907 744.895 311.306 743.511 311.05 741.35C310.797 739.221 310.082 737.952 309.097 738.069C308.112 738.186 307.698 739.589 307.951 741.718ZM312.066 741.229C312.416 744.168 311.695 746.107 310.075 746.299C308.454 746.492 307.3 744.776 306.95 741.837C306.603 738.913 307.323 736.975 308.944 736.782C310.565 736.59 311.719 738.306 312.066 741.229ZM321.379 756.685L320.33 756.81L319.301 748.151L320.35 748.026L320.788 751.712L322.536 751.505L322.69 752.807L320.943 753.015L321.379 756.685ZM316.108 750.705C315.123 750.822 314.593 751.787 314.748 753.09C314.901 754.377 315.642 755.191 316.627 755.074C317.628 754.956 318.158 753.99 318.005 752.703C317.851 751.4 317.109 750.586 316.108 750.705ZM313.841 753.859L312.347 754.036C312.571 755.379 312.831 756.75 313.16 758.032L312.202 758.243C311.3 755.127 310.845 751.701 310.534 749.079L311.607 748.758C311.751 749.966 311.929 751.331 312.145 752.739L313.67 752.558C313.676 750.849 314.531 749.636 315.961 749.466C317.566 749.275 318.765 750.551 319.006 752.584C319.248 754.618 318.379 756.123 316.775 756.314C315.361 756.482 314.247 755.518 313.841 753.859ZM323.277 757.749L323.432 759.052L309.18 760.744L309.026 759.442L323.277 757.749ZM297.528 706.738L298.321 713.411C294.206 713.9 290.359 712.439 287.477 707.98L288.458 707.154C290.74 710.767 293.699 712.348 297.116 712.217L296.48 706.862L297.528 706.738ZM300.204 716.103L300.358 717.406L286.107 719.099L285.952 717.796L300.204 716.103ZM292.208 722.579L293.18 721.948C293.953 724.659 295.897 726.781 298.09 726.52L297.544 721.929L298.593 721.804L299.138 726.396L301.077 726.165L301.233 727.484L299.295 727.714L299.839 732.29L298.79 732.415L298.246 727.839C296.054 728.099 294.661 730.617 294.545 733.435L293.451 733.049C293.593 730.712 294.493 728.527 296.135 727.429C294.28 726.731 292.893 724.817 292.208 722.579ZM290.175 728.798L290.866 734.613L289.786 734.741L288.249 721.808L289.33 721.68L290.018 727.479L293.26 727.094L293.416 728.413L290.175 728.798ZM297.955 745.596L300.052 745.347L299.212 738.277L297.115 738.526L297.955 745.596ZM303.21 746.293L297.045 747.025L295.898 737.365L302.062 736.633L302.215 737.92L300.261 738.152L301.101 745.222L303.055 744.99L303.21 746.293ZM295.524 748.866L294.475 748.99L293.781 743.143L289.014 743.71L288.859 742.407L293.626 741.841L292.939 736.057L293.987 735.933L295.524 748.866ZM298.471 762.693L297.321 762.234C297.557 760.014 298.818 757.609 300.808 756.454C298.619 755.796 296.829 753.753 296.066 751.668L297.077 750.952C297.865 753.388 300.329 755.818 302.76 755.529L303.857 755.399L304.019 756.766L302.923 756.896C300.492 757.185 298.652 760.142 298.471 762.693ZM292.913 750.899L294.448 763.816L293.367 763.944L291.833 751.027L292.913 750.899Z" fill="#1F2225"/>
</g>
</g>
<defs>
<clipPath id="clip0_1_11564">
<rect width="800" height="800" fill="white"/>
</clipPath>
<clipPath id="clip1_1_11564">
<rect width="6515.43" height="7085.62" fill="white" transform="translate(-2398.86 -6131.43)"/>
</clipPath>
</defs>
</svg>
