<svg width="800" height="800" viewBox="0 0 800 800" fill="none" xmlns="http://www.w3.org/2000/svg">
<g clip-path="url(#clip0_1_9534)">
<g clip-path="url(#clip1_1_9534)">
<rect width="7601.33" height="8266.56" transform="translate(-273.332 -5690.67)" fill="white"/>
<path d="M613.45 -69.5206C700.428 34.8627 791.224 136.073 885.64 233.811C932.55 282.358 980.304 330.012 1028.95 376.774C1053.55 400.427 1078.34 423.833 1103.33 446.991C1109.13 452.346 1114.74 458.049 1120.84 463.057C1125 466.479 1130.01 468.958 1135.32 466.628C1141.42 463.999 1146.03 457.553 1150.64 452.941C1157.63 445.999 1164.62 439.057 1171.62 432.114C1272.43 331.797 1373.74 231.877 1473.36 130.37C1493.05 110.287 1512.88 88.2695 1521.56 60.9464C1530.24 33.6232 1524.88 6.54803 1512.24 -17.8494C1499.59 -42.2468 1479.76 -64.4623 1460.17 -84.6943C1435.08 -110.579 1409.94 -136.415 1384.8 -162.25C1284.68 -265.245 1184.56 -368.24 1084.44 -471.235C1072.09 -483.93 1059.74 -496.624 1047.45 -509.319C1046.31 -510.509 1044.42 -510.409 1043.23 -509.319C984.866 -455.862 927.393 -401.415 871.111 -345.826C814.927 -290.287 759.835 -233.608 706.031 -175.738C675.485 -142.861 645.335 -109.637 615.533 -76.066C613.004 -73.1898 617.169 -68.975 619.748 -71.8511C672.311 -131.159 726.115 -189.325 781.158 -246.352C836.002 -303.18 892.086 -358.818 949.262 -413.365C981.692 -444.308 1014.42 -474.855 1047.45 -505.104H1043.23C1140.77 -404.787 1238.31 -304.42 1335.85 -204.103C1360.55 -178.714 1385.19 -153.324 1409.89 -127.985C1432.2 -105.025 1455.41 -82.6119 1476.43 -58.4129C1495.23 -36.7924 1512.98 -11.8989 1518.39 16.8127C1523.79 45.5243 1513.03 73.4423 1495.43 96.5504C1475.99 122.088 1451.34 144.006 1428.73 166.668C1404.38 191.115 1380.03 215.513 1355.64 239.91C1306.3 289.3 1256.96 338.591 1207.52 387.881C1195.02 400.328 1182.52 412.775 1169.98 425.271C1163.88 431.37 1157.78 437.42 1151.63 443.52C1148.71 446.396 1145.83 449.322 1142.9 452.198C1139.53 455.57 1134.72 462.562 1129.27 461.322C1125.5 460.479 1122.13 456.264 1119.45 453.784C1116.62 451.156 1113.75 448.528 1110.92 445.9C1104.67 440.098 1098.42 434.296 1092.18 428.494C1080.27 417.387 1068.42 406.229 1056.62 395.022C1008.82 349.6 961.857 303.334 915.74 256.275C823.407 162.007 734.445 64.3681 649.054 -36.2465C638.492 -48.6931 628.029 -61.1896 617.566 -73.7355C615.136 -76.6612 610.921 -72.4463 613.351 -69.5206H613.45Z" fill="#9B9B9B"/>
<path d="M-19.0969 569.871C26.326 515.473 77.9473 466.678 128.924 417.536C179.901 368.394 234.547 315.681 287.359 264.754C340.765 213.232 394.172 161.759 447.578 110.237C474.306 84.5009 500.985 58.7152 527.713 32.9789L545.515 15.8216L556.176 5.50684C560.292 1.53978 564.854 -4.6089 570.805 0.201162C577.301 5.40793 582.706 13.1933 588.26 19.3918C594.26 26.0862 600.26 32.7809 606.26 39.4753C661.353 101.014 716.148 162.9 770.596 225.034V220.819C666.857 324.905 563.069 429.04 459.331 533.126C407.461 585.194 355.592 637.212 303.723 689.279L265.242 727.859C253.242 739.909 241.589 752.653 228.051 763.017C216.051 772.191 201.224 780.919 185.504 779.58C168.446 778.092 157.437 763.91 146.825 752.108C119.453 721.71 92.0304 691.263 64.6577 660.865C50.9713 645.642 37.285 630.468 23.549 615.244C16.9538 607.955 10.4081 600.665 3.81291 593.326C0.540089 589.657 -2.78231 586.037 -6.05514 582.367C-10.0222 577.954 -15.2786 573.442 -14.7331 566.945C-14.386 563.127 -20.3366 563.177 -20.6837 566.945C-21.2787 573.888 -17.1133 578.945 -12.7496 583.855C-6.20391 591.194 0.391321 598.434 6.98656 605.773C19.8795 620.054 32.7229 634.385 45.6158 648.667C70.8067 676.635 96.0471 704.652 121.238 732.619C133.139 745.81 144.396 760.141 157.487 772.191C167.801 781.712 180.446 787.117 194.628 785.282C225.522 781.265 248.828 752.802 269.457 732.124C377.312 623.922 485.116 515.721 592.971 407.519C653.568 346.674 714.214 285.879 774.811 225.034C776.001 223.844 775.852 222.059 774.811 220.819C725.223 164.239 675.337 107.857 625.203 51.7234C612.657 37.69 600.112 23.6566 587.566 9.67269C582.756 4.31716 577.946 -3.27009 571.4 -6.69168C565.995 -9.51821 560.986 -7.03858 556.821 -3.36905C542.788 8.92884 529.795 22.6647 516.357 35.6072C502.919 48.5498 489.034 61.9384 475.397 75.0793C366.204 180.355 257.011 285.631 147.817 390.907C89.2039 447.438 28.9542 502.927 -23.3118 565.557C-25.7417 568.483 -21.5763 572.697 -19.0969 569.772V569.871Z" fill="#9B9B9B"/>
<path d="M-250.33 1383.31C-179.27 1311.31 -108.061 1239.46 -36.8026 1167.7C34.4557 1095.95 106.557 1023.65 178.41 951.748C249.917 880.241 321.522 808.784 393.276 737.476C464.981 666.169 536.834 595.01 608.787 523.9C680.739 452.84 752.791 381.879 824.942 311.018C834.066 302.092 843.141 293.166 852.265 284.191H848.05C920.548 343.746 989.525 407.863 1053.49 476.493C1068.42 492.51 1083.1 509.519 1091.97 529.801C1101.64 551.868 1102.88 576.315 1104.27 600.018C1107.2 650.003 1110.17 699.988 1113.1 749.973C1119 850.389 1124.95 950.855 1130.85 1051.27C1136.75 1151.69 1142.7 1252.15 1148.6 1352.57C1151.58 1403 1154.55 1453.48 1157.53 1503.91C1158.72 1524.54 1162.39 1549.14 1150.34 1567.39C1139.38 1583.95 1118.36 1587.96 1099.86 1588.61C1077.4 1589.4 1054.63 1587.27 1032.22 1586.23C1007.03 1585.04 981.889 1583.85 956.698 1582.61C906.812 1580.13 856.976 1577.55 807.09 1574.97C706.872 1569.72 606.654 1564.41 506.437 1559.8C406.219 1555.19 306.001 1551.32 205.734 1548.94C105.516 1546.56 5.24823 1545.77 -94.9696 1547.25C-120.16 1547.65 -145.351 1548.15 -170.493 1548.84C-182.84 1549.19 -195.187 1549.58 -207.535 1549.98C-217.403 1550.28 -227.519 1550.48 -237.189 1548.15C-260.991 1542.39 -266.148 1521.17 -266.942 1499.5C-267.636 1479.66 -267.735 1459.68 -265.404 1439.89C-263.074 1420.11 -257.817 1400.08 -251.768 1380.74C-250.627 1377.07 -256.379 1375.48 -257.52 1379.15C-263.52 1398.34 -268.578 1417.83 -271.107 1437.81C-273.636 1457.8 -273.686 1479.66 -272.843 1500.54C-272.198 1517.7 -269.371 1536.59 -254.247 1547.15C-239.123 1557.72 -218.246 1556.23 -200.444 1555.63C-96.9035 1552.26 6.68631 1551.72 110.276 1553.05C213.42 1554.39 316.464 1557.62 419.508 1561.88C522.602 1566.15 625.696 1571.35 728.741 1576.76C831.785 1582.11 934.829 1587.62 1037.92 1592.38C1060.44 1593.42 1083.45 1595.9 1106.01 1594.16C1122.12 1592.92 1139.13 1588.76 1150.59 1576.56C1163.98 1562.28 1165.32 1541.95 1164.57 1523.4C1163.58 1497.81 1161.65 1472.28 1160.11 1446.74C1154.01 1343.45 1147.96 1240.15 1141.86 1136.86C1135.76 1033.57 1129.71 930.276 1123.61 826.984C1120.54 775.114 1117.51 723.245 1114.44 671.326C1112.95 645.788 1111.46 620.201 1109.93 594.663C1108.59 572.447 1106.75 549.736 1098.07 528.958C1089.79 509.222 1076.21 492.362 1061.82 476.692C1045.86 459.237 1029.25 442.278 1012.53 425.468C978.219 391.053 942.764 357.73 906.217 325.696C888.464 310.125 870.464 294.852 852.216 279.877C850.976 278.835 849.24 278.637 848 279.877C775.8 350.689 703.699 421.599 631.746 492.659C559.794 563.719 487.246 635.523 415.145 707.128C343.043 778.734 271.735 849.794 200.18 921.3C128.624 992.807 57.2167 1064.41 -14.0912 1136.17C-85.3991 1207.92 -156.608 1279.72 -227.717 1351.68C-236.693 1360.75 -245.668 1369.83 -254.644 1378.9C-257.322 1381.63 -253.156 1385.84 -250.429 1383.12L-250.33 1383.31Z" fill="#9B9B9B"/>
<path d="M1022.08 -432.648L665.48 -76.0449L1007.08 265.55L1363.68 -91.0526L1022.08 -432.648Z" fill="#9B9B9B"/>
<path d="M-230.545 1509.27L-210.363 1521.42L1053.79 1548.94L1118.26 1529.1L1064.5 587.821L845.52 348.904L-238.083 1415.7L-245.422 1444.8L-230.545 1509.27Z" fill="#9B9B9B"/>
<path d="M548.025 36.5298L10 574.555L200.924 765.479L738.949 227.454L548.025 36.5298Z" fill="#F55B1D"/>
<path d="M257.774 464.27L251.963 469.86L291.482 510.937L297.292 505.347L257.774 464.27ZM241.482 513.595C250.126 522.624 260.114 523.856 266.419 517.79C272.59 511.853 271.768 501.803 263.101 492.795C254.5 483.855 244.468 482.622 238.297 488.559C231.991 494.625 232.858 504.676 241.482 513.595ZM247.022 508.265C241.15 502.206 240.082 496.815 243.28 493.738C246.388 490.748 251.689 492.067 257.561 498.125C263.41 504.25 264.522 509.598 261.393 512.565C258.217 515.664 252.871 514.389 247.022 508.265ZM296.103 427.395L290.293 432.985L329.724 473.971L335.535 468.381L316.729 448.834L322.088 443.677L317.495 438.903L312.135 444.06L296.103 427.395ZM291.114 488.828L296.386 492.776C303.321 486.147 312.67 477.023 319.825 467.017L315.435 463.175C312.806 466.528 309.801 469.939 306.731 473.239L303.546 469.929C307.069 464.936 307.265 459.37 303.648 455.521C299.205 450.993 292.005 451.892 286.149 457.525C280.182 463.267 279.049 470.384 283.47 474.934C287.109 478.761 292.612 478.801 297.781 475.475L301.161 478.989C297.6 482.588 294.109 485.947 291.114 488.828ZM272.339 467.69L296.66 444.291L292.327 439.787L283.094 448.67L278.934 444.346L273.169 449.893L277.329 454.217L268.005 463.186L272.339 467.69ZM288.92 469.69C286.861 467.595 287.559 464.625 290.353 461.894C293.099 459.295 296.072 458.734 298.108 460.851C300.188 463.013 299.491 465.939 296.766 468.56C293.951 471.268 290.977 471.874 288.92 469.69ZM333.838 441.827C335.842 439.899 335.951 436.542 333.936 434.447C331.943 432.375 328.584 432.355 326.601 434.305C324.463 436.319 324.376 439.655 326.415 441.684C328.384 443.821 331.721 443.864 333.838 441.827ZM350.554 375.095L344.789 380.642L373.562 410.548L379.327 405.002L350.554 375.095ZM335.121 428.017L342.471 429.706C345.686 423.447 345.701 416.927 343.518 410.962C349.09 413.103 355.212 413.111 361.325 410.179L359.919 402.858C351.106 407.175 343.109 404.677 337.933 399.207L334.119 395.243L328.129 401.006L331.942 404.97C337.294 410.532 339.78 419.111 335.121 428.017ZM361.775 441.748L390.331 414.276L385.911 409.682L363.166 431.564L354.889 422.962L349.079 428.552L361.775 441.748ZM379.126 367.382L372.583 360.58L366.998 365.954L373.801 373.025C380.474 379.961 385.177 389.357 382.714 398.967L390.301 399.821C391.85 393.994 390.556 387.737 387.557 381.689C392.893 384.621 398.546 386.035 404.162 384.751L402.98 377.302C393.928 379.116 385.495 374.047 379.126 367.382ZM390.12 372.589L395.434 367.476L415.237 388.059L420.597 382.903L383.548 344.393L378.188 349.55L390.928 362.792L385.613 367.905L390.12 372.589ZM425.525 381.804L431.019 376.518L391.588 335.531L386.093 340.818L425.525 381.804ZM431.448 297.183L426.043 302.383L465.475 343.369L470.88 338.169L431.448 297.183ZM422.623 360.398L429.901 361.202C433.181 349.287 431.889 339.559 427.281 330.939L432.303 326.108L437.676 331.693L431.866 337.282L436.329 341.922L442.14 336.332L455.139 349.844L460.589 344.601L423.757 306.317L418.307 311.56L427.84 321.469L423.764 325.39C422.17 323.238 420.399 321.126 418.427 319.077L402.348 334.546L406.811 339.185L417.17 329.219C424.117 338.017 426.21 347.494 422.623 360.398ZM461.602 273.896L440.523 294.176L445.03 298.86L460.501 283.975C462.818 286.473 465.519 289.642 468.546 294.275L474.696 289.399C470.745 283.4 466.802 279.301 464.072 276.464L461.602 273.896ZM454.991 314.081L459.906 318.199C467.023 311.308 476.465 301.921 483.483 292.133L479.182 288.293C475.872 292.56 472.009 296.884 468.084 301.007L460.523 293.148L454.803 298.651L462.537 306.691C459.877 309.38 457.288 311.871 454.991 314.081ZM480.005 328.002L508.786 300.313L504.366 295.719L481.351 317.862L473.898 310.115L468.132 315.661L480.005 328.002ZM492.395 297.609L498.295 291.933L485.426 278.556L490.38 273.79L485.743 268.97L480.789 273.737L468.786 261.261L462.886 266.937L492.395 297.609Z" fill="white"/>
<mask id="path-8-inside-1_1_9534" fill="white">
<path d="M400.098 592.199L422.519 569.368L445.351 591.789L422.929 614.621L400.098 592.199Z"/>
</mask>
<path d="M400.098 592.199L422.519 569.368L445.351 591.789L422.929 614.621L400.098 592.199Z" fill="#FFF258"/>
<path d="M400.098 592.199L399.622 591.732L399.155 592.208L399.631 592.675L400.098 592.199ZM422.519 569.368L422.986 568.892L422.511 568.425L422.044 568.901L422.519 569.368ZM445.351 591.789L445.826 592.257L446.293 591.781L445.818 591.314L445.351 591.789ZM422.929 614.621L422.462 615.096L422.938 615.564L423.405 615.088L422.929 614.621ZM400.573 592.666L422.995 569.835L422.044 568.901L399.622 591.732L400.573 592.666ZM422.052 569.843L444.884 592.265L445.818 591.314L422.986 568.892L422.052 569.843ZM444.875 591.322L422.453 614.154L423.405 615.088L445.826 592.257L444.875 591.322ZM423.396 614.145L400.565 591.724L399.631 592.675L422.462 615.096L423.396 614.145Z" fill="#1F2225" mask="url(#path-8-inside-1_1_9534)"/>
<path d="M418.074 587.914L415.495 590.54L413.715 588.791C414.417 588.076 414.917 587.445 415.214 586.899C415.525 586.338 415.671 585.794 415.651 585.266C415.616 584.723 415.43 584.092 415.091 583.37L416.75 581.681L432.732 597.376L430.266 599.888L418.074 587.914Z" fill="#1F2225"/>
</g>
</g>
<defs>
<clipPath id="clip0_1_9534">
<rect width="800" height="800" fill="white"/>
</clipPath>
<clipPath id="clip1_1_9534">
<rect width="7601.33" height="8266.56" fill="white" transform="translate(-273.332 -5690.67)"/>
</clipPath>
</defs>
</svg>
