<svg width="800" height="800" viewBox="0 0 800 800" fill="none" xmlns="http://www.w3.org/2000/svg">
<g clip-path="url(#clip0_118_35870)">
<rect width="800" height="800" fill="white"/>
<path d="M441.278 -1131.8C405.315 -1097.1 370.208 -1061.54 334.899 -1026.18C317.623 -1008.88 300.296 -991.65 282.768 -974.601C267.053 -959.314 250.582 -944.606 238.393 -926.196C238.04 -925.692 238.141 -924.786 238.62 -924.358C246.124 -918.062 253.629 -911.74 261.134 -905.444C263.804 -903.203 270.201 -899.576 270.604 -896.126C271.007 -892.676 264.988 -886.833 262.822 -883.962C259.573 -879.63 258.692 -877.238 253.453 -879.655C249.751 -881.368 246.225 -884.163 242.901 -886.48C234.363 -892.399 226.405 -899.073 218.9 -906.25C218.296 -906.829 217.389 -906.804 216.76 -906.25C148.711 -846.135 83.1564 -783.25 20.2458 -717.745C19.2385 -716.687 20.2458 -714.748 21.7065 -715.227L22.8398 -715.579L21.3792 -718.098C-9.7739 -684.653 -40.9018 -651.183 -72.0549 -617.738C-72.5837 -617.184 -72.7097 -616.151 -72.0549 -615.597C-39.29 -588.247 -8.64065 -558.429 19.4399 -526.293C33.8958 -509.747 47.5709 -492.597 60.7172 -475.018C71.5716 -460.512 82.3505 -445.83 94.9427 -432.759C117.407 -409.438 146.822 -391.204 179.99 -401.706C195.579 -406.642 209.506 -416.464 220.411 -428.528C222.199 -430.492 230.208 -440.666 234.464 -437.241C236.731 -435.403 233.432 -429.485 232.55 -427.697C219.303 -400.976 189.787 -377.026 161.681 -368.11C160.523 -367.733 160.095 -365.97 161.329 -365.34C179.663 -355.997 185.556 -333.507 181.778 -314.417C177.472 -292.709 161.379 -275.482 146.092 -260.523C110.633 -225.844 74.4426 -191.87 38.6053 -157.569C8.66106 -128.909 -31.4073 -99.4183 -37.7034 -55.5472C-41.0026 -32.705 -37.0738 -9.28345 -34.6309 13.458C-31.9866 38.0884 -29.3422 62.6934 -26.6727 87.3237C-21.1321 138.901 -15.5663 190.504 -10.0257 242.082C-8.94282 252.181 -8.26287 262.405 -6.67625 272.429C-5.36667 280.689 -2.67195 288.723 4.95892 293.131C11.2046 296.757 18.8103 296.984 25.8116 297.21C38.7563 297.664 51.7264 297.865 64.6711 298.192C116.475 299.527 168.305 300.837 220.109 302.172C246.024 302.827 271.913 303.507 297.828 304.161C309.614 304.464 321.375 304.766 333.162 305.068L350.816 305.521C353.234 305.571 359.303 304.69 361.419 305.798C365.927 308.14 365.221 312.9 365.247 317.383C365.272 322.294 364.869 334.08 360.915 337.908C356.961 341.736 347.995 339.117 343.336 338.89C330.442 338.236 317.573 337.606 304.678 336.951C278.915 335.667 253.126 334.383 227.362 333.098C176.414 330.555 125.441 328.011 74.493 325.467C58.5261 324.661 39.5119 322.596 25.4086 331.965C9.71875 342.391 11.1039 363.269 10.021 379.865C8.35883 405.201 6.69666 430.536 5.05967 455.897C3.64935 477.531 -1.13567 502.06 4.75747 523.341C13.2446 554.066 45.3043 564.819 73.8885 567.741C94.0108 569.806 114.309 568.446 134.482 567.842C159.742 567.086 185.002 566.305 210.262 565.525C312.208 562.376 414.155 559.632 516.101 556.534C559.091 555.224 601.929 551.169 644.869 549.482C682.117 548.021 721.278 547.216 757.393 557.894C772.579 562.377 786.934 569.252 798.796 579.855C812.572 592.17 828.312 596.501 846.747 594.613C866.97 592.547 887.243 585.924 906.434 579.401C924.441 573.281 942.07 566.054 959.245 557.844C1030.97 523.492 1094.11 471.511 1141.61 407.719C1166.29 374.577 1184.8 335.692 1215.9 307.763C1249.37 277.692 1296.51 267.719 1336.91 250.09C1490.69 182.949 1623.23 63.4741 1681.05 -96.7992C1709.21 -174.82 1721.5 -265.106 1701.71 -346.628C1692.71 -383.725 1674.33 -417.321 1643.73 -440.792C1613.81 -463.761 1576.92 -475.597 1540.5 -483.505C1522.29 -487.459 1503.86 -490.481 1485.45 -493.251C1465.2 -496.299 1444.62 -498.943 1424.12 -497.331C1405.01 -495.82 1386.35 -490.229 1371.06 -478.317C1355.77 -466.405 1344.19 -449.154 1329.48 -435.831C1297.45 -406.743 1252.62 -401.203 1211.22 -398.332C1164.72 -395.108 1118.46 -391.683 1072.3 -385.16C976.421 -371.611 881.879 -348.668 790.485 -316.709C770.992 -309.884 750.064 -303.89 732.007 -293.665C717.047 -285.203 708.006 -272.662 705.664 -255.511C703.196 -237.303 704.631 -217.785 706.369 -199.576C707.956 -182.678 710.776 -165.754 716.015 -149.56C724.93 -122.034 741.451 -97.5044 769.078 -86.4736L768.423 -88.9921C762.807 -81.739 757.191 -74.4858 751.6 -67.2328C749.737 -64.8151 745.883 -57.4106 743.189 -56.3529C738.781 -54.6404 733.644 -60.5841 730.244 -63.4299C717.853 -73.8562 707.074 -86.1462 698.234 -99.7207C680.58 -126.819 671.262 -158.173 670.658 -190.435C670.33 -207.686 670.557 -237.404 651.618 -245.991C640.109 -251.205 628.297 -244.43 618.047 -239.469C600.721 -231.133 583.545 -222.494 566.545 -213.529C549.546 -204.563 532.672 -195.295 516 -185.7C508.143 -181.192 500.336 -176.608 492.554 -171.974C488.751 -169.708 484.948 -166.761 480.918 -164.948C478.425 -163.815 478.073 -162.505 475.655 -163.941C474.37 -164.722 471.726 -171.798 471.046 -173.183C469.082 -177.137 466.286 -181.293 464.901 -185.498C462.937 -191.392 465.229 -191.845 470.391 -194.817C478.979 -199.753 487.592 -204.664 496.18 -209.6C513.381 -219.447 530.582 -229.319 547.783 -239.167C564.984 -249.014 582.185 -258.886 599.386 -268.733C612.885 -276.465 627.643 -283.516 639.328 -293.943C664.815 -316.709 656.252 -353.932 653.734 -384.052C646.43 -471.19 635.324 -558.001 620.591 -644.207C620.415 -645.214 619.156 -645.541 618.375 -645.113C613.388 -642.419 608.402 -639.699 603.39 -637.004C600.192 -635.266 592.46 -629.222 589.06 -631.564C588.229 -632.143 586.794 -636.702 586.214 -637.986C584.804 -641.21 583.368 -644.408 581.958 -647.632C580.397 -651.158 574.705 -659.191 576.367 -662.868C577.047 -664.379 582.411 -667.502 583.847 -668.938C586.114 -671.204 588.128 -673.723 589.917 -676.342C594.047 -682.361 596.918 -689.186 599.159 -696.086C604.574 -712.884 605.984 -730.791 608.175 -748.193C611.122 -771.665 614.068 -795.137 617.015 -818.609C619.961 -842.08 622.958 -865.376 625.804 -888.772C628.323 -909.323 630.362 -930.88 623.034 -950.726C616.763 -967.725 604.725 -981.803 593.09 -995.378C579.415 -1011.34 565.16 -1026.78 550.352 -1041.69C517.738 -1074.51 482.455 -1104.53 444.98 -1131.65C443.394 -1132.78 441.883 -1130.16 443.444 -1129.03C500.159 -1087.98 552.089 -1040 596.892 -986.185C608.88 -971.78 619.886 -956.417 623.487 -937.63C627.114 -918.691 624.067 -899.098 621.699 -880.209C616.839 -841.476 611.978 -802.742 607.117 -764.034C603.113 -732.176 604.146 -683.318 572.791 -664.228C572.036 -663.775 571.91 -662.919 572.237 -662.163C577.425 -650.377 582.638 -638.59 587.826 -626.779C588.154 -626.023 589.237 -625.872 589.891 -626.225C599.864 -631.64 609.863 -637.054 619.836 -642.444L617.619 -643.351C630.136 -570.039 640.059 -496.299 647.186 -422.282C648.974 -403.746 650.586 -385.185 652.046 -366.599C653.306 -350.456 656.177 -332.651 651.19 -316.911C645.75 -299.76 630.413 -290.064 615.68 -281.552C600.141 -272.586 584.527 -263.696 568.963 -254.781C532.546 -233.903 496.105 -213.025 459.688 -192.147C458.958 -191.719 458.781 -190.812 459.134 -190.082C464.246 -179.807 469.384 -169.557 474.496 -159.281C474.849 -158.551 475.907 -158.325 476.562 -158.727C504.063 -175.601 532.018 -191.694 560.476 -206.88C574.453 -214.335 588.531 -221.588 602.71 -228.614C609.812 -232.115 616.914 -235.59 624.067 -238.99C631.697 -242.617 640.361 -246.822 648.898 -243.75C669.927 -236.144 666.905 -201.39 667.711 -183.861C668.819 -159.382 675.468 -135.281 686.65 -113.496C699.468 -88.5387 718.18 -67.1069 741.3 -51.2156C741.778 -50.8882 742.735 -50.9636 743.138 -51.4421C752.255 -63.2284 761.372 -75.0148 770.489 -86.801C771.219 -87.7581 770.942 -88.8662 769.834 -89.3195C716.468 -110.625 708.51 -179.706 707.754 -229.571C707.502 -246.52 706.822 -265.711 718.609 -279.336C729.438 -291.877 746.362 -297.317 761.372 -302.933C796.328 -316.004 831.762 -327.74 867.599 -338.141C939.048 -358.868 1012.11 -374.205 1085.87 -383.926C1121.89 -388.686 1158.08 -391.985 1194.34 -394.176C1224.64 -396.015 1255.61 -397.702 1284.68 -407.197C1298.2 -411.629 1311.2 -417.799 1322.66 -426.286C1334.11 -434.773 1343.96 -446.358 1353.78 -457.288C1365.34 -470.132 1377.83 -481.667 1394.23 -487.887C1410.62 -494.108 1427.4 -495.191 1444.27 -494.561C1475.22 -493.403 1506.73 -487.484 1537 -481.087C1565.91 -474.968 1594.82 -466.581 1620.76 -452.1C1648.04 -436.864 1670.33 -414.853 1684.2 -386.722C1699.57 -355.594 1705.06 -320.361 1706.92 -286.009C1710.6 -219.019 1698.71 -151.726 1674.93 -89.1178C1627.46 35.8722 1533.12 136.635 1419.21 204.532C1391.79 220.876 1363.25 235.408 1333.96 248.151C1303.19 261.524 1270.05 270.49 1240.61 286.683C1213.71 301.466 1194.24 324.51 1177.19 349.543C1159.13 376.062 1142.54 403.236 1121.84 427.892C1081.72 475.742 1032.43 515.786 977.403 545.302C949.902 560.06 920.99 572.148 891.122 581.24C874.802 586.201 857.45 591.691 840.299 592.119C831.586 592.346 822.444 591.213 814.46 587.536C807.434 584.312 802.372 578.746 796.428 574.037C757.141 542.833 697.781 544.747 650.535 546.359C618.098 547.467 585.711 550.086 553.298 551.925C516.529 554.015 479.684 554.569 442.865 555.577C364.718 557.768 286.571 560.236 208.423 562.628C171.377 563.762 134.205 565.852 97.1337 565.877C71.7982 565.877 41.3756 563.56 21.6814 545.629C9.01363 534.069 5.13524 517.951 5.31153 501.279C5.51301 482.744 7.47738 464.107 8.68623 445.597C9.97063 426.028 11.255 406.435 12.5142 386.867C13.6475 369.565 10.9277 344.607 27.8264 334.08C40.8467 325.971 58.0728 327.759 72.6545 328.489C91.9709 329.446 111.313 330.428 130.629 331.385C169.287 333.325 207.945 335.239 246.603 337.178C285.261 339.117 322.735 340.981 360.814 342.895C361.318 342.895 361.897 342.593 362.124 342.139C368.193 330.051 369.604 317.182 366.33 304.061C366.153 303.406 365.524 302.977 364.869 302.952C285.966 300.938 207.064 298.923 128.161 296.908C108.719 296.405 89.3014 295.926 69.8591 295.422L41.6022 294.692C32.3847 294.465 22.1599 295.322 13.1187 293.08C1.10576 290.108 -2.72234 280.664 -4.18303 269.432C-5.5178 259.207 -6.39919 248.882 -7.50731 238.632C-9.59761 219.29 -11.6628 199.948 -13.7531 180.607C-17.984 141.319 -22.215 102.057 -26.4208 62.7689C-28.5111 43.4274 -30.5762 24.0859 -32.6666 4.74438C-34.5806 -12.9602 -37.1241 -30.9419 -35.5375 -48.7725C-32.1628 -87.1786 -4.56077 -112.036 21.6562 -137.145C49.9382 -164.243 78.2455 -191.316 106.528 -218.414C121.437 -232.669 136.572 -246.722 151.179 -261.303C162.915 -272.989 174.173 -285.758 180.695 -301.196C190.291 -323.912 186.765 -355.644 162.764 -367.859L162.412 -365.088C191.273 -374.23 220.789 -398.357 234.792 -425.48C236.756 -429.283 241.088 -438.047 234.792 -440.163C231.895 -441.145 227.438 -439.231 225.045 -437.745C221.545 -435.554 219.202 -431.575 216.331 -428.553C211.723 -423.743 206.661 -419.386 201.196 -415.583C180.091 -400.825 153.799 -396.544 130.478 -408.758C108.517 -420.267 91.7695 -439.231 76.7596 -458.548C44.5991 -499.9 12.9172 -540.497 -24.8342 -577.065C-35.9405 -587.819 -47.349 -598.245 -59.0597 -608.344C-60.8226 -609.855 -66.9676 -613.482 -67.5721 -615.597C-68.5543 -618.997 -63.7189 -622.271 -61.6286 -624.512C-56.0377 -630.506 -50.4467 -636.525 -44.8558 -642.519C-22.0891 -666.973 0.652428 -691.402 23.4191 -715.856C24.4013 -716.914 23.4442 -718.853 21.9584 -718.375L20.8251 -718.022L22.2858 -715.504C60.0372 -754.816 98.7203 -793.223 138.361 -830.622C158.155 -849.308 178.202 -867.743 198.476 -885.926C203.286 -890.233 208.247 -896.05 213.712 -899.501C216.583 -901.314 216.709 -902.573 220.109 -900.76C222.653 -899.4 224.97 -896.378 227.211 -894.514C236.58 -886.682 246.653 -879.832 257.281 -873.813C258.062 -873.384 258.843 -873.687 259.346 -874.367C264.66 -881.469 269.999 -888.545 275.313 -895.647C275.691 -896.151 275.54 -897.083 275.087 -897.486C269.798 -901.944 264.484 -906.376 259.195 -910.834C256.551 -913.05 253.906 -915.291 251.237 -917.508C249.575 -918.893 244.059 -922.016 243.279 -924.181C241.314 -929.672 249.902 -937 253.453 -941.03C257.457 -945.563 261.663 -949.895 265.97 -954.151C285.412 -973.417 305.207 -992.33 324.599 -1011.65C364.088 -1051.01 403.149 -1090.83 443.268 -1129.56C444.678 -1130.92 442.537 -1133.06 441.127 -1131.7L441.278 -1131.8Z" fill="#E6E6E6"/>
<path d="M467.698 3.43415C467.698 64.7833 464.6 126.132 458.329 187.179C456.768 202.441 455.005 217.678 453.065 232.889C451.277 246.74 450.094 260.995 446.769 274.569C445.435 280.059 443.546 285.474 440.347 290.158C437.149 294.842 432.49 297.94 427.251 300.358C422.92 302.348 418.21 304.211 414.987 307.888C411.763 311.565 410.806 316.426 412.09 321.135C415.314 332.896 427.529 336.724 438.383 337.631C453.418 338.865 468.629 338.94 483.715 339.545C514.415 340.779 545.139 342.038 575.839 343.272C590.824 343.876 605.784 344.38 620.768 345.11C634.292 345.79 647.942 346.949 661.038 350.601C674.134 354.252 685.845 360.7 695.843 369.892C705.841 379.084 713.144 388.982 720.498 399.509C736.893 423.031 751.903 447.561 765.452 472.846C772.252 485.514 778.674 498.408 784.718 511.453C790.007 522.862 794.188 535.378 801.416 545.754C804.463 550.137 808.165 554.091 812.723 556.911C817.937 560.11 823.956 561.495 829.95 562.175C844.506 563.837 859.566 563.358 874.123 562.301C880.898 561.822 887.748 561.268 894.447 560.085C899.559 559.203 904.823 557.616 908.726 554.04C917.591 545.906 913.713 533.112 908.827 523.97C905.528 517.8 901.448 512.058 897.645 506.19C893.565 499.919 889.486 493.648 885.38 487.377C877.17 474.861 868.935 462.344 860.624 449.878C844.028 424.945 827.28 400.113 810.331 375.432C776.559 326.197 742.081 277.465 706.899 229.237C689.37 205.211 671.666 181.286 653.81 157.512C649.201 151.367 644.567 145.222 639.908 139.102C636.03 133.99 632.378 128.097 627.518 123.815C618.678 116.058 607.345 118.023 597.095 121.398C585.586 125.175 574.303 130.137 561.988 127.291C550.73 124.697 541.261 117.217 533.504 108.932C524.967 99.7896 518.293 89.212 511.896 78.5086C504.391 65.9164 497.289 53.0474 490.666 39.9767C484.193 27.2586 478.174 14.3138 472.533 1.1927C471.777 -0.59539 469.158 0.94082 469.914 2.72891C481.322 29.3236 494.469 55.1878 509.277 80.0448C520.358 98.6309 533.681 119.534 554.584 128.097C564.985 132.353 575.512 131.698 586.064 128.349C596.616 124.999 609.687 117.947 620.743 122.934C627.115 125.805 631.043 132.353 635.123 137.717C639.531 143.535 643.913 149.327 648.295 155.17C657.059 166.805 665.773 178.491 674.461 190.202C709.543 237.498 743.945 285.298 777.667 333.576C811.288 381.678 844.204 430.259 876.465 479.293C884.574 491.633 892.659 503.999 900.692 516.415C906.636 525.607 917.037 541.196 907.291 551.32C903.236 555.526 896.965 556.785 891.425 557.566C884.096 558.599 876.692 559.203 869.288 559.606C861.883 560.009 854.605 560.16 847.276 560.034C839.948 559.908 832.695 559.858 825.643 558.498C819.246 557.239 813.504 554.594 808.845 549.986C804.589 545.78 801.491 540.567 798.822 535.228C792.954 523.492 788.093 511.227 782.376 499.39C770.137 474.004 756.436 449.323 741.376 425.474C734.022 413.839 726.442 402.304 718.307 391.198C711.105 381.351 703.247 371.806 693.753 364.049C673.605 347.579 648.244 343.6 623.01 342.214C563.172 338.94 503.208 337.58 443.319 334.886C436.393 334.583 428.914 334.08 422.819 330.378C417.883 327.355 413.753 321.311 414.71 315.292C415.667 309.273 420.955 306.654 425.715 304.413C430.475 302.171 434.857 300.358 438.61 296.883C446.392 289.655 449.363 278.75 451.151 268.625C453.594 254.749 455.206 240.671 456.944 226.694C464.398 167.032 468.831 107.018 470.292 46.9276C470.644 32.4214 470.795 17.9151 470.795 3.40894C470.795 1.46974 467.773 1.46974 467.773 3.40894L467.698 3.43415Z" fill="#E6E6E6"/>
<path d="M1185.8 -261.48C1174.77 -272.813 1159.84 -282.131 1143.9 -284.095C1135.71 -285.103 1127.8 -283.566 1120.68 -279.361C1111.89 -274.198 1103.93 -267.222 1095.82 -261.077C1061.29 -234.885 1026.77 -208.668 992.237 -182.476C957.71 -156.285 924.617 -131.931 891.475 -105.865C876.868 -94.3814 862.79 -82.0158 851.583 -67.0815C840.376 -52.1471 832.216 -34.7952 823.074 -18.3498C813.932 -1.90436 803.707 12.5515 790.208 25.1185C777.465 36.9803 762.682 46.6513 746.715 53.577C742.534 55.3903 738.278 56.9767 733.972 58.4122C733.015 58.7396 732.612 59.7469 733.065 60.6284C745.733 85.1328 758.4 109.637 771.068 134.142C773.234 138.322 775.148 143.787 779.127 146.658C783.56 149.882 789.176 148.169 794.011 147.011C804.614 144.467 815.544 141.42 824.182 134.469C831.41 128.652 836.825 119.258 836.245 109.763C835.918 104.349 833.198 100.294 830.982 95.5087C828.035 89.1622 830.856 84.3269 835.842 80.1715C845.362 72.2384 855.965 65.2877 866.366 58.5886C876.767 51.8896 887.496 45.5431 898.426 39.6499C909.356 33.7568 920.185 28.5185 931.392 23.6075C937.008 21.1394 942.826 18.1171 948.845 16.7571C952.144 16.0016 955.619 16.0019 958.339 18.2936C960.278 19.9306 961.588 22.172 963.401 23.9349C970.755 31.1376 980.653 25.5215 986.924 19.7794C991.709 15.3722 995.99 10.31 1000.4 5.52499C1004.8 0.73996 1009.16 -3.99454 1013.49 -8.77957C1049.2 -48.1176 1083.58 -88.6646 1117.4 -129.614C1134.25 -150.014 1151 -170.539 1167.7 -191.064C1181.09 -207.509 1198.95 -226.549 1192.68 -249.769C1191.47 -254.252 1189.05 -258.181 1185.83 -261.505C1184.47 -262.915 1182.33 -260.774 1183.69 -259.364C1191.65 -251.129 1192 -239.141 1189.05 -228.589C1185.96 -217.508 1178.02 -208.517 1170.92 -199.778C1154.73 -179.882 1138.51 -159.987 1122.21 -140.167C1089.85 -100.879 1057.06 -61.8935 1023.11 -23.9658C1014.63 -14.4713 1006.06 -5.05246 997.425 4.26578C993.27 8.7486 989.266 13.4834 984.783 17.6136C981.005 21.0639 975.288 25.4711 969.798 24.2119C964.887 23.0786 963.074 17.7144 959.145 15.0952C955.216 12.476 950.331 13.0551 946.074 14.3647C935.069 17.7898 924.34 23.2801 914.015 28.2917C892.684 38.6173 872.158 50.605 852.691 64.1039C847.755 67.5289 842.869 71.0546 838.059 74.6812C834.457 77.4011 830.529 80.1714 828.262 84.1758C825.995 88.1801 826.348 92.4363 828.212 96.5666C830.478 101.578 833.45 105.784 833.299 111.551C833.047 122.632 824.837 131.623 815.519 136.585C810.431 139.304 804.891 141.093 799.35 142.578C796.832 143.258 794.288 143.888 791.719 144.492C788.445 145.273 784.517 146.457 781.394 144.568C779.077 143.183 777.792 140.513 776.584 138.196C775.022 135.225 773.511 132.253 771.975 129.281C768.902 123.338 765.83 117.394 762.757 111.451C756.713 99.7651 750.669 88.0542 744.625 76.3687C741.653 70.6266 738.681 64.8594 735.709 59.1174L734.803 61.3336C766.686 50.7814 794.817 29.9538 813.982 2.35175C824.635 -13.0107 832.443 -30.0856 841.736 -46.2539C851.029 -62.4223 862.689 -77.0043 876.742 -89.6469C891.424 -102.843 907.542 -114.428 923.257 -126.34C940.257 -139.26 957.281 -152.154 974.281 -165.074C1008.31 -190.888 1042.33 -216.727 1076.35 -242.541C1084.87 -248.988 1093.35 -255.461 1101.86 -261.908C1109.62 -267.776 1117.35 -274.978 1126.34 -278.907C1142.44 -285.959 1161.4 -277.396 1174.37 -267.599C1177.7 -265.106 1180.79 -262.336 1183.69 -259.364C1185.05 -257.979 1187.19 -260.095 1185.83 -261.505L1185.8 -261.48Z" fill="#E6E6E6"/>
<path d="M797.943 609.069C789.204 600.204 775.806 605.518 767.898 612.721C759.99 619.924 755.582 631.231 759.36 641.733C763.49 653.217 776.284 657.549 787.642 656.668C799 655.786 810.736 647.475 813.809 636.344C817.788 621.888 804.113 612.041 793.032 606.349C791.294 605.468 789.783 608.062 791.495 608.968C800.335 613.502 811.013 619.924 811.416 631.131C811.769 641.079 801.645 650.12 792.755 652.688C783.436 655.383 769.66 653.369 764.07 644.579C758.806 636.294 760.771 625.666 766.714 618.337C773.061 610.505 787.038 602.295 795.802 611.185C797.162 612.57 799.303 610.429 797.943 609.044V609.069Z" fill="#E6E6E6"/>
<path d="M648.574 97.2743L707.682 201.437L769.585 167.463L715.54 66.8262L648.574 97.2743Z" fill="#E6E6E6"/>
<path d="M774.165 444.942H640.688V502.866H774.165V444.942Z" fill="#E6E6E6"/>
<path d="M446.766 98.4572C396.347 97.7268 345.928 96.9965 295.534 96.2661C293.343 58.9933 291.152 21.7455 288.961 -15.5273C341.571 -14.797 394.181 -14.0667 446.791 -13.3363V98.4572H446.766Z" fill="#E6E6E6"/>
<path d="M295.512 96.2639L303.722 261.222L416.069 269.457L448.96 131.321L424.859 91.8818L295.512 96.2639Z" fill="#E6E6E6"/>
<path d="M180.386 365.341L54.5547 370.109L60.5623 528.657L186.394 523.889L180.386 365.341Z" fill="#E6E6E6"/>
<path d="M493.391 440.459L451.398 394.84L405.78 436.833L447.772 482.452L493.391 440.459Z" fill="#E6E6E6"/>
<path d="M344.672 453.277H236.379V538.904H344.672V453.277Z" fill="#E6E6E6"/>
<path d="M384.966 433.13H352.227V538.904H384.966V433.13Z" fill="#E6E6E6"/>
<path d="M121.236 -198.998C115.494 -196.48 -5.39062 -70.5577 -5.39062 -70.5577L15.7642 254.321L47.4966 282.024L198.603 266.913L178.455 -73.0762L221.269 -75.5946V-101.535L121.236 -198.998Z" fill="#E6E6E6"/>
<path d="M200.312 -60.4846C220.737 -62.172 241.162 -63.8341 261.586 -65.5215C265.792 -59.6535 269.972 -53.7604 274.178 -47.8924C277.528 10.8627 280.902 69.6431 284.252 128.398C259.622 129.229 235.017 130.086 210.386 130.917L200.312 -60.4846Z" fill="#E6E6E6"/>
<path d="M656.958 355.059H435.336V523.794H656.958V355.059Z" fill="#E6E6E6"/>
<path d="M52.8789 753.731C35.43 738.119 -4.102 602.722 -21.7031 536.907C-20.4097 538.133 -21.3184 545.177 -4.74536 565.801C33.4647 613.679 248.914 597.566 278.838 596.645C308.762 595.725 666.32 582.051 689.715 583.407C708.431 584.492 737.295 591.318 749.388 594.596C742.155 603.298 730.198 626.331 740.234 648.844C752.168 680.579 777.755 688.965 789.057 689.191C788.605 692.13 786.684 698.888 782.615 702.414C778.546 705.941 764.293 705.381 757.675 704.66C711.132 694.815 606.224 705.308 516.34 714.298L513.066 714.626C422.469 723.686 74.6901 773.246 52.8789 753.731Z" fill="#029C54"/>
<path d="M436.016 -112.387C462.484 -127.926 490.515 -143.515 520.081 -158.978C550.882 -175.071 580.851 -189.728 609.788 -203.051L733.191 11.0164L672.749 48.793L680.304 59.9747L619.862 91.6064L614.825 81.5327L551.864 111.754C513.256 37.0319 474.623 -37.665 436.016 -112.387Z" fill="#535353"/>
<path d="M709.149 455.107V470.797H707.758V455.107H709.149ZM696.822 461.781C696.831 458.452 698.486 456.33 700.82 456.322C703.144 456.33 704.826 458.452 704.817 461.781C704.826 465.118 703.144 467.231 700.82 467.222C698.486 467.231 696.831 465.118 696.822 461.781ZM698.161 461.781C698.161 464.325 699.252 465.998 700.82 465.989C702.396 465.998 703.479 464.325 703.479 461.781C703.479 459.236 702.396 457.563 700.82 457.554C699.252 457.563 698.161 459.236 698.161 461.781ZM723.976 455.107V461.781H726.476V462.943H723.976V470.761H722.585V455.107H723.976ZM711.632 466.588C712.908 466.588 714.396 466.579 715.946 466.535V464.809C714.123 464.598 712.935 463.524 712.952 461.974C712.935 460.204 714.432 459.06 716.65 459.069C718.834 459.06 720.357 460.204 720.366 461.974C720.357 463.533 719.151 464.598 717.337 464.809V466.482C718.79 466.412 720.269 466.289 721.634 466.095L721.722 467.151C718.306 467.733 714.608 467.768 711.861 467.768L711.632 466.588ZM711.913 458.153V457.026H715.946V455.142H717.337V457.026H721.352V458.153H711.913ZM714.238 461.974C714.247 463.057 715.198 463.77 716.65 463.753C718.077 463.77 719.036 463.057 719.045 461.974C719.036 460.882 718.077 460.143 716.65 460.143C715.198 460.143 714.247 460.882 714.238 461.974ZM669.264 478.322C671.57 478.33 673.208 480.452 673.226 483.781C673.208 487.118 671.57 489.231 669.264 489.222C666.939 489.231 665.31 487.118 665.319 483.781C665.31 480.452 666.939 478.33 669.264 478.322ZM666.622 483.781C666.631 486.325 667.714 487.998 669.264 487.989C670.831 487.998 671.887 486.325 671.887 483.781C671.887 481.236 670.831 479.563 669.264 479.554C667.714 479.563 666.631 481.236 666.622 483.781ZM675.814 492.761V477.107H677.188V483.358H679.812V484.555H677.188V492.761H675.814ZM693.336 485.577V486.704H682.506V478.462H693.159V479.625H683.915V481.949H692.825V483.059H683.915V485.577H693.336ZM680.657 490.719V489.574H694.991V490.719H680.657ZM705.24 478.815V479.959H703.496V487.496C704.341 487.443 705.178 487.364 705.979 487.267L706.05 488.289C702.739 488.817 698.997 488.87 696.224 488.887L696.047 487.707C696.708 487.707 697.412 487.699 698.161 487.69V479.959H696.435V478.815H705.24ZM699.499 487.672C700.371 487.655 701.277 487.619 702.176 487.575V479.959H699.499V487.672ZM706.983 492.761V477.107H708.356V483.393H710.98V484.555H708.356V492.761H706.983ZM724.733 477.107V485.295H723.377V477.107H724.733ZM712.653 484.591V477.741H714.027V480.047H718.64V477.741H720.014V484.591H712.653ZM714.027 483.481H718.64V481.122H714.027V483.481ZM714.573 487.197V486.105H724.751V489.785H715.964V491.476H725.314V492.585H714.608V488.764H723.377V487.197H714.573ZM740.335 477.107V492.797H738.962V477.107H740.335ZM728.29 479.713V478.568H735.581V484.133H729.734V487.831C732.332 487.839 734.647 487.716 737.447 487.267L737.588 488.429C734.709 488.878 732.332 488.993 729.629 488.993H728.325V483.006H734.189V479.713H728.29ZM757.258 485.453V486.598H742.994V485.453H749.439V483.816C746.437 483.657 744.579 482.53 744.579 480.681C744.579 478.753 746.727 477.591 750.126 477.582C753.489 477.591 755.646 478.753 755.655 480.681C755.646 482.53 753.78 483.657 750.813 483.816V485.453H757.258ZM744.843 492.427V487.866H746.234V491.265H755.673V492.427H744.843ZM746.005 480.681C745.996 481.958 747.599 482.689 750.126 482.689C752.635 482.689 754.238 481.958 754.246 480.681C754.238 479.484 752.635 478.709 750.126 478.709C747.599 478.709 745.996 479.484 746.005 480.681Z" fill="#1F2225"/>
<path d="M693.955 122.148L700.359 134.72L699.298 135.26L695.941 128.67L694.089 129.613L697.114 135.553L696.096 136.072L690.167 124.433L691.185 123.914L693.62 128.694L695.473 127.751L692.894 122.688L693.955 122.148ZM688.493 136.846L684.459 128.926L689.168 126.527L689.636 127.447L686.03 129.284L689.113 135.336C690.842 134.447 692.005 133.774 693.261 132.778L693.835 133.661C692.48 134.743 691.226 135.445 689.299 136.435L688.493 136.846ZM705.551 116.24L707.222 119.521L709.117 118.556L709.585 119.475L707.69 120.44L709.398 123.792L708.295 124.354L704.448 116.802L705.551 116.24ZM699.13 127.901C701.716 125.479 702.764 122.745 701.877 120.445L697.232 122.811L696.763 121.892L702.604 118.917C704.229 122.124 703.169 125.62 700.057 128.568L699.13 127.901ZM702.613 130.472C701.838 128.97 702.989 127.226 705.496 125.958C708.017 124.665 710.076 124.774 710.843 126.28C711.621 127.807 710.491 129.522 707.967 130.808C705.464 132.083 703.384 132.003 702.613 130.472ZM703.716 129.91C704.184 130.865 705.671 130.865 707.513 129.917C709.362 128.984 710.251 127.775 709.768 126.827C709.286 125.88 707.792 125.901 705.95 126.849C704.101 127.782 703.219 128.97 703.716 129.91ZM718.08 109.858L719.752 113.138L721.633 112.18L722.108 113.114L720.227 114.072L721.906 117.367L720.789 117.936L716.963 110.427L718.08 109.858ZM712.117 121.053L709.307 115.538L714.893 112.692L715.362 113.611L710.865 115.902L712.745 119.593C715.283 118.282 716.707 117.459 718.221 116.252L718.802 117.113C717.222 118.364 715.751 119.202 713.093 120.556L712.117 121.053ZM715.029 124.183C714.269 122.673 715.421 120.982 717.984 119.668C720.554 118.367 722.577 118.441 723.345 119.947C724.123 121.474 722.993 123.154 720.426 124.462C717.859 125.769 715.814 125.706 715.029 124.183ZM716.118 123.628C716.601 124.558 718.073 124.529 719.972 123.571C721.849 122.606 722.752 121.424 722.27 120.494C721.805 119.564 720.326 119.615 718.452 120.587C716.55 121.538 715.653 122.698 716.118 123.628ZM708.851 135.882L715.255 148.455L714.194 148.995L707.79 136.423L708.851 135.882ZM702.685 150.423C704.597 147.409 704.812 144.441 703.692 141.699L699.93 143.615L699.462 142.696L704.326 140.218C704.654 140.861 704.922 141.526 705.122 142.199L707.031 141.227L705.417 138.059L706.478 137.519L712.385 149.115L711.325 149.655L709.106 145.299L706.772 146.488L706.304 145.569L708.638 144.38L707.499 142.146L705.371 143.23C705.847 145.668 705.426 148.251 703.775 150.883L702.685 150.423ZM720.433 129.982L722.342 133.73L724.251 132.758L724.726 133.691L722.817 134.663L725.072 139.09L723.969 139.652L719.33 130.544L720.433 129.982ZM714.699 141.56L711.753 135.776L717.353 132.923L717.829 133.856L713.331 136.147L715.327 140.064C717.855 138.785 719.251 137.976 720.761 136.78L721.37 137.627C719.775 138.867 718.32 139.715 715.675 141.062L714.699 141.56ZM718.837 146.291L716.741 142.176L717.83 141.621L719.451 144.803L726.805 141.057L727.28 141.99L718.837 146.291Z" fill="#1F2225"/>
<path d="M351.888 50.5015V51.5172H346V56.2309H344.778V51.5172H338.97V50.5015H351.888ZM340.62 48.7874V42.7088H341.858V44.6609H348.968V42.7088H350.222V48.7874H340.62ZM341.858 47.7717H348.968V45.6767H341.858V47.7717ZM365.934 49.2159V50.2475H353.031V49.2159H358.84V47.0416H360.062V49.2159H365.934ZM353.809 46.8035C356.301 46.4623 358.824 44.8911 358.824 43.0104V42.3438H360.078V43.0104C360.078 44.8911 362.617 46.4623 365.109 46.8035L364.601 47.8034C362.466 47.4304 360.34 46.2957 359.459 44.6689C358.57 46.3115 356.451 47.4304 354.285 47.8034L353.809 46.8035ZM354.46 52.6282V51.6283H364.3V56.2309H363.046V52.6282H354.46ZM379.98 50.1682V51.1998H376.568V56.2309H375.314V51.1998H371.695V56.2309H370.41V51.1998H367.061V50.1682H379.98ZM368.521 45.7719C368.529 43.8912 370.521 42.7009 373.489 42.693C376.449 42.7009 378.456 43.8912 378.456 45.7719C378.456 47.6526 376.449 48.8271 373.489 48.8191C370.521 48.8271 368.529 47.6526 368.521 45.7719ZM369.807 45.7719C369.791 47.0178 371.291 47.8193 373.489 47.8193C375.687 47.8193 377.179 47.0178 377.187 45.7719C377.179 44.5181 375.687 43.7087 373.489 43.7087C371.291 43.7087 369.791 44.5181 369.807 45.7719ZM392.756 42.1216V56.2309H391.502V42.1216H392.756ZM381.408 52.5329C383.503 51.5807 385.106 49.2 385.106 46.7242V45.5973H381.789V44.5816H385.09V42.3914H386.328V44.5816H389.614V45.5973H386.328V46.7242C386.328 49.0889 387.979 51.3744 390.106 52.279L389.407 53.2471C387.773 52.525 386.4 51.0014 385.741 49.1366C385.106 51.1045 383.741 52.7313 382.107 53.5011L381.408 52.5329ZM406.802 42.1375V52.8503H405.548V51.3902H402.628V50.4856H405.548V42.1375H406.802ZM395.089 48.6763C397.716 48.6604 401.255 48.6366 404.278 48.2636L404.358 49.1683C403.104 49.3667 401.779 49.4936 400.485 49.573V52.3584H399.231V49.6365C397.803 49.692 396.446 49.692 395.264 49.692L395.089 48.6763ZM396.232 45.1688C396.224 43.6849 397.636 42.7088 399.723 42.7088C401.795 42.7088 403.207 43.6849 403.215 45.1688C403.207 46.6766 401.795 47.6129 399.723 47.6129C397.636 47.6129 396.224 46.6766 396.232 45.1688ZM397.121 55.9293V51.8029H398.374V54.8818H407.151V55.9293H397.121ZM397.422 45.1688C397.406 46.0893 398.343 46.6845 399.723 46.6924C401.065 46.6845 402.017 46.0893 402.025 45.1688C402.017 44.2642 401.065 43.6452 399.723 43.6611C398.343 43.6452 397.406 44.2642 397.422 45.1688Z" fill="#1F2225"/>
<path d="M226.967 21.2667V33.0509H225.922V21.2667H226.967ZM217.709 26.2793C217.715 23.7796 218.959 22.1859 220.711 22.1793C222.457 22.1859 223.72 23.7796 223.713 26.2793C223.72 28.7856 222.457 30.3726 220.711 30.366C218.959 30.3726 217.715 28.7856 217.709 26.2793ZM218.714 26.2793C218.714 28.1904 219.534 29.4468 220.711 29.4402C221.895 29.4468 222.708 28.1904 222.708 26.2793C222.708 24.3681 221.895 23.1117 220.711 23.1051C219.534 23.1117 218.714 24.3681 218.714 26.2793ZM238.103 21.2667V26.2793H239.981V27.1522H238.103V33.0244H237.058V21.2667H238.103ZM228.832 29.8899C229.791 29.8899 230.908 29.8833 232.072 29.8502V28.5541C230.703 28.3954 229.81 27.5886 229.824 26.4248C229.81 25.0956 230.935 24.2359 232.601 24.2425C234.241 24.2359 235.385 25.0956 235.392 26.4248C235.385 27.5952 234.479 28.3954 233.117 28.5541V29.8105C234.208 29.7576 235.319 29.6651 236.344 29.5196L236.41 30.3131C233.844 30.7496 231.067 30.776 229.004 30.776L228.832 29.8899ZM229.043 23.5548V22.7083H232.072V21.2931H233.117V22.7083H236.132V23.5548H229.043ZM230.789 26.4248C230.796 27.2381 231.51 27.7738 232.601 27.7606C233.672 27.7738 234.393 27.2381 234.4 26.4248C234.393 25.6048 233.672 25.0493 232.601 25.0493C231.51 25.0493 230.796 25.6048 230.789 26.4248ZM241.925 28.6202C241.462 28.6136 241.066 28.2301 241.079 27.7606C241.066 27.2977 241.462 26.9141 241.925 26.9141C242.395 26.9141 242.778 27.2977 242.772 27.7606C242.778 28.2301 242.395 28.6136 241.925 28.6202ZM248.075 23.0257C248.069 24.6459 249.285 26.1536 251.011 26.7422L250.429 27.5622C249.153 27.0794 248.128 26.1007 247.612 24.8707C247.11 26.2727 246.045 27.3638 244.636 27.906L244.081 27.086C245.86 26.4248 247.05 24.8509 247.057 23.0522V21.8751H248.075V23.0257ZM245.893 32.8657V28.6996H253.313V32.8657H245.893ZM246.911 32.0193H252.281V29.546H246.911V32.0193ZM252.281 28.1573V21.2667H253.313V24.2028H255.085V25.0757H253.313V28.1573H252.281ZM259.873 23.1183C259.859 24.798 261.056 26.2727 262.782 26.8612L262.2 27.668C260.904 27.1852 259.886 26.2264 259.377 24.9898C258.874 26.3983 257.803 27.4894 256.381 28.0251L255.812 27.1786C257.624 26.5438 258.828 24.9831 258.841 23.158V21.9412H259.873V23.1183ZM257.73 30.8025C257.723 29.3873 259.225 28.5739 261.671 28.5806C264.111 28.5739 265.613 29.3873 265.613 30.8025C265.613 32.2044 264.111 32.998 261.671 32.998C259.225 32.998 257.723 32.2044 257.73 30.8025ZM258.762 30.8025C258.755 31.6555 259.866 32.1714 261.671 32.1647C263.47 32.1714 264.581 31.6555 264.581 30.8025C264.581 29.923 263.47 29.4006 261.671 29.4006C259.866 29.4006 258.755 29.923 258.762 30.8025ZM261.909 24.6525V23.7928H264.528V21.2667H265.573V28.2367H264.528V24.6525H261.909ZM222.49 37.8486V38.6951C222.49 39.568 222.49 40.626 222.199 42.0412H223.905V42.8877H219.012V45.0567H222.569V49.0244H221.524V45.9164H214.25V45.0567H217.98V42.8877H213.139V42.0412H221.154C221.465 40.6062 221.465 39.568 221.458 38.6951H214.502V37.8486H222.49ZM234.896 37.2667V49.0244H233.904V37.2667H234.896ZM224.699 45.8899C226.339 44.9112 227.297 42.762 227.291 40.626V39.5151H225.029V38.6554H230.452V39.5151H228.296V40.626C228.296 42.6562 229.215 44.6864 230.835 45.6254L230.201 46.3925C229.043 45.6981 228.223 44.4285 227.813 42.9339C227.39 44.5541 226.537 45.9362 225.36 46.6702L224.699 45.8899ZM229.552 42.3586V41.5122H231.536V37.5577H232.515V48.416H231.536V42.3586H229.552ZM246.27 37.2667V49.0244H245.225V37.2667H246.27ZM236.694 45.9693C239.875 44.4615 241.502 42.2065 241.733 39.396H237.237V38.5496H242.791C242.778 41.9288 241.204 44.9244 237.263 46.8157L236.694 45.9693ZM254.152 37.9809C254.146 39.4688 256.288 40.7914 258.358 41.0889L257.948 41.8957C256.15 41.6114 254.364 40.6723 253.617 39.3431C252.87 40.6789 251.077 41.6114 249.272 41.8957L248.875 41.0889C250.958 40.7914 253.081 39.4952 253.081 37.9809V37.4254H254.152V37.9809ZM248.254 43.6944V42.8347H258.967V43.6944H254.113V45.2022H257.644V49.0244H256.599V46.0486H249.444V45.2022H253.094V43.6944H248.254ZM263.9 40.4277C263.9 42.4975 265.269 44.6335 266.942 45.4535L266.307 46.2867C265.011 45.6122 263.926 44.2168 263.404 42.5835C262.881 44.316 261.77 45.8039 260.448 46.5115L259.787 45.6783C261.506 44.8318 262.868 42.5768 262.881 40.4277V38.2851H263.9V40.4277ZM268.026 49.0244V37.2667H269.058V42.0412H271.029V42.9406H269.058V49.0244H268.026Z" fill="#1F2225"/>
<path d="M48.1374 61.9633V81.1143H45.7567V61.9633H48.1374ZM60.3051 70.5072V72.5969H51.92V70.5072H60.3051ZM64.0877 81.1143V61.9633H66.4683V70.4807H76.5993V61.9633H79.0064V81.1143H76.5993V72.5704H66.4683V81.1143H64.0877ZM88.7934 81.4052C84.8786 81.4185 82.2334 78.4559 82.2334 73.9988C82.2334 69.5153 84.8786 66.5659 88.7934 66.5659C92.695 66.5659 95.3137 69.5153 95.3005 73.9988C95.3137 78.4559 92.695 81.4185 88.7934 81.4052ZM84.5083 73.9988C84.5215 76.8688 85.8705 79.3949 88.7934 79.3949C91.6899 79.3949 93.0257 76.8688 93.0257 73.9988C93.0257 71.142 91.6899 68.5762 88.7934 68.5762C85.8705 68.5762 84.5215 71.142 84.5083 73.9988ZM107.362 75.2156V66.7511H109.611V81.1143H107.362V78.6807H107.204C106.529 80.1356 105.101 81.2994 102.945 81.2994C100.22 81.2994 98.2763 79.5272 98.2895 75.8769V66.7511H100.564V75.7181C100.564 77.7814 101.847 79.1172 103.686 79.1039C105.312 79.1172 107.349 77.9004 107.362 75.2156ZM121.249 70.4807C120.932 69.2904 120.019 68.5101 118.34 68.4969C116.568 68.5101 115.311 69.4623 115.298 70.6659C115.311 71.6181 116.078 72.2662 117.758 72.6762L119.9 73.2052C122.466 73.8136 123.723 75.0965 123.736 77.0936C123.723 79.5801 121.699 81.4185 118.102 81.4052C114.875 81.4185 112.957 79.9768 112.573 77.3581H114.954C115.219 78.7601 116.237 79.4346 118.049 79.4214C120.099 79.4346 121.382 78.5749 121.382 77.2259C121.382 76.2075 120.654 75.5462 119.028 75.1627L116.859 74.6601C114.359 74.0781 113.023 72.7159 113.023 70.7982C113.023 68.3382 115.179 66.5659 118.34 66.5659C121.316 66.5659 123.18 68.153 123.471 70.4807H121.249ZM132.729 81.4052C128.577 81.4185 126.011 78.4559 126.011 74.0517C126.011 69.6343 128.616 66.5659 132.518 66.5659C135.533 66.5659 138.721 68.4175 138.708 73.7343V74.6865H128.286C128.405 77.7285 130.177 79.3949 132.729 79.3949C134.449 79.3949 135.533 78.641 136.062 77.7549H138.496C137.821 79.9372 135.692 81.4185 132.729 81.4052ZM128.299 72.7556H136.406C136.393 70.3617 134.885 68.5762 132.518 68.5762C130.031 68.5762 128.458 70.5336 128.299 72.7556Z" fill="#1F2225"/>
<path d="M557.348 434.209V440.346H560.892V442.065H557.348V448.44H555.285V434.209H557.348ZM539.969 446.8V435.69H542.006V439.394H548.857V435.69H550.92V446.8H539.969ZM541.953 451.376V449.683H557.348V457.725H555.285V451.376H541.953ZM542.006 445.107H548.857V441.06H542.006V445.107ZM583.799 444.155V445.848H574.092V448.176H581.048V453.439H567.082V455.82H581.763V457.46H565.019V451.879H579.012V449.789H564.966V448.176H572.028V445.848H562.374V444.155H583.799ZM565.151 442.171V435.003H581.022V442.171H565.151ZM567.214 440.505H578.959V436.669H567.214V440.505ZM598.824 436.034V437.278C598.811 438.825 598.811 441.166 598.215 444.234L596.126 444.076C596.694 441.272 596.747 439.275 596.774 437.78H587.106V436.034H598.824ZM585.651 446.43C587.172 446.43 588.891 446.417 590.703 446.364V441.245H592.766V446.298C595.372 446.192 598.07 446.007 600.517 445.663L600.649 447.197C595.716 448.043 590.055 448.136 585.863 448.149L585.651 446.43ZM589.275 457.222V450.318H591.365V455.476H604.987V457.222H589.275ZM602.104 451.905V434.209H604.22V441.88H607.659V443.652H604.22V451.905H602.104Z" fill="#1F2225"/>
<path d="M427.938 424.092C427.945 425.703 429.017 427.322 430.826 428.028L430.159 428.996C428.818 428.449 427.85 427.409 427.35 426.163C426.827 427.528 425.811 428.734 424.43 429.345L423.748 428.377C425.604 427.552 426.739 425.703 426.747 424.092V422.203H427.938V424.092ZM426.208 431.678V430.647H435.714V435.44H434.492V431.678H426.208ZM431.477 429.79V421.6H432.651V425.029H434.524V421.346H435.714V429.869H434.524V426.076H432.651V429.79H431.477ZM441.904 425.663C441.912 427.917 443.063 430.234 444.999 431.266L444.269 432.202C442.864 431.432 441.848 429.98 441.333 428.282C440.833 430.091 439.817 431.663 438.412 432.488L437.666 431.567C439.571 430.448 440.722 427.996 440.729 425.663V425.013H438V423.981H440.729V421.854H441.92V423.981H444.618V425.013H441.904V425.663ZM445.586 434.726V421.632H446.776V427.044H448.697V421.331H449.903V435.44H448.697V428.107H446.776V434.726H445.586ZM463.457 421.331V435.472H462.203V421.331H463.457ZM452.744 431.964V422.68H459.457V423.727H453.998V430.885C456.743 430.885 458.545 430.806 460.663 430.425L460.79 431.472C458.6 431.861 456.743 431.956 453.886 431.964H452.744ZM470.646 425.663C470.63 427.925 472.265 430.417 474.312 431.393L473.598 432.377C472.011 431.599 470.67 429.933 470.035 428.02C469.384 430.091 467.972 431.916 466.393 432.726L465.631 431.742C467.662 430.75 469.408 428.068 469.424 425.663V423.822H466.139V422.791H473.82V423.822H470.646V425.663ZM475.55 435.44V421.331H476.788V427.044H479.153V428.107H476.788V435.44H475.55ZM491.564 421.346V431.663H490.326V421.346H491.564ZM480.248 425.79C480.24 423.759 481.835 422.338 483.946 422.33C486.057 422.338 487.636 423.759 487.644 425.79C487.636 427.846 486.057 429.274 483.946 429.266C481.835 429.274 480.24 427.846 480.248 425.79ZM481.47 425.79C481.454 427.195 482.518 428.171 483.946 428.171C485.351 428.171 486.422 427.195 486.422 425.79C486.422 424.41 485.351 423.426 483.946 423.426C482.518 423.426 481.454 424.41 481.47 425.79ZM482.454 435.138V430.615H483.692V434.091H492.008V435.138H482.454ZM449.474 440.346V450.774H448.221V446.965H444.57C443.92 447.798 442.872 448.298 441.666 448.298C439.555 448.298 437.992 446.838 438 444.774C437.992 442.703 439.555 441.243 441.666 441.235C442.864 441.243 443.896 441.735 444.554 442.553H448.221V440.346H449.474ZM439.19 444.774C439.19 446.187 440.222 447.195 441.666 447.187C443.055 447.195 444.11 446.187 444.11 444.774C444.11 443.37 443.055 442.354 441.666 442.346C440.222 442.354 439.19 443.37 439.19 444.774ZM440.412 454.138V449.679H441.666V453.091H449.871V454.138H440.412ZM445.118 443.584C445.245 443.949 445.316 444.346 445.316 444.774C445.316 445.187 445.245 445.576 445.126 445.933H448.221V443.584H445.118ZM462.981 441.251V442.489C462.981 443.822 462.981 445.29 462.576 447.314H464.679V448.345H458.854V454.472H457.6V448.345H451.823V447.314H461.314C461.743 445.282 461.743 443.806 461.743 442.489V442.283H453.442V441.251H462.981ZM478.788 451.567V452.599H465.869V451.567H471.646V448.107H472.868V451.567H478.788ZM466.377 447.234C468.845 446.814 471.591 444.751 471.598 442.378V441.299H472.9V442.378C472.908 444.735 475.693 446.814 478.153 447.234L477.598 448.266C475.447 447.822 473.178 446.369 472.265 444.338C471.337 446.362 469.091 447.822 466.932 448.266L466.377 447.234Z" fill="#1F2225"/>
<path d="M264.146 482.968V484.095C264.146 485.258 264.146 486.666 263.759 488.55H266.03V489.677H259.515V492.565H264.252V497.848H262.861V493.71H253.176V492.565H258.141V489.677H251.696V488.55H262.368C262.782 486.64 262.782 485.258 262.773 484.095H253.51V482.968H264.146ZM280.664 482.193V497.848H279.343V482.193H280.664ZM267.087 493.675C269.271 492.372 270.547 489.51 270.538 486.666V485.187H267.527V484.042H274.747V485.187H271.877V486.666C271.877 489.369 273.101 492.072 275.258 493.323L274.413 494.344C272.872 493.419 271.78 491.729 271.234 489.739C270.671 491.896 269.535 493.736 267.968 494.714L267.087 493.675ZM273.55 488.973V487.846H276.191V482.581H277.494V497.038H276.191V488.973H273.55ZM295.438 483.778V485.522C295.429 487.529 295.429 489.545 294.875 492.46L293.519 492.301C294.073 489.537 294.073 487.476 294.082 485.522V484.923H284.362V483.778H295.438ZM282.865 495.629V494.485H286.405V489.325H287.778V494.485H290.314V489.325H291.67V494.485H297.129V495.629H282.865ZM312.713 489.748V490.875H308.909V492.865H310.952V497.848H309.561V493.974H300.034V492.865H302.235V490.875H298.449V489.748H312.713ZM300.034 485.557C300.034 483.681 302.174 482.563 305.581 482.581C308.971 482.563 311.102 483.681 311.111 485.557C311.102 487.441 308.971 488.568 305.581 488.55C302.174 488.568 300.034 487.441 300.034 485.557ZM301.461 485.557C301.452 486.746 303.045 487.468 305.581 487.476C308.09 487.468 309.693 486.746 309.702 485.557C309.693 484.395 308.09 483.673 305.581 483.69C303.045 483.673 301.452 484.395 301.461 485.557ZM303.627 492.865H307.553V490.875H303.627V492.865ZM322.715 483.409V484.236C322.706 485.266 322.706 486.825 322.31 488.867L320.919 488.762C321.298 486.895 321.333 485.566 321.35 484.571H314.914V483.409H322.715ZM313.946 490.329C314.958 490.329 316.103 490.32 317.309 490.285V486.878H318.683V490.241C320.417 490.171 322.213 490.047 323.842 489.818L323.93 490.84C320.646 491.403 316.878 491.465 314.086 491.474L313.946 490.329ZM316.358 497.514V492.918H317.749V496.351H326.818V497.514H316.358ZM324.899 493.974V482.193H326.307V487.3H328.597V488.48H326.307V493.974H324.899Z" fill="#1F2225"/>
<path d="M102.56 434.115V449.77H101.239V441.564H98.9325V448.96H97.6646V434.468H98.9325V440.42H101.239V434.115H102.56ZM89.758 445.896V436.035H95.6219V437.179H91.1315V444.716C93.2887 444.707 94.7767 444.628 96.52 444.276L96.6433 445.438C94.7591 445.826 93.1654 445.887 90.7618 445.896H89.758ZM114.129 435.806V436.933H104.796V435.806H108.776V434.045H110.15V435.806H114.129ZM105.695 440.578C105.686 438.852 107.2 437.761 109.463 437.743C111.708 437.761 113.214 438.852 113.231 440.578C113.214 442.277 111.708 443.387 109.463 443.396C107.2 443.387 105.686 442.277 105.695 440.578ZM106.751 445.896V444.769H117V449.77H115.626V445.896H106.751ZM107.015 440.578C107.006 441.617 107.984 442.295 109.463 442.286C110.925 442.295 111.911 441.617 111.928 440.578C111.911 439.513 110.925 438.826 109.463 438.817C107.984 438.826 107.006 439.513 107.015 440.578ZM115.626 443.906V434.115H117V438.465H119.359V439.627H117V443.906H115.626ZM132.919 435.7V437.444C132.91 439.451 132.91 441.467 132.355 444.382L130.999 444.223C131.554 441.458 131.554 439.398 131.563 437.444V436.845H121.842V435.7H132.919ZM120.346 447.551V446.407H123.885V441.247H125.259V446.407H127.794V441.247H129.15V446.407H134.609V447.551H120.346ZM148.767 434.115V449.77H147.394V434.115H148.767ZM136.018 445.597C137.356 445.588 138.888 445.579 140.473 445.526V443.818C138.589 443.624 137.374 442.55 137.391 440.983C137.374 439.213 138.879 438.069 141.142 438.077C143.405 438.069 144.937 439.213 144.928 440.983C144.937 442.533 143.722 443.607 141.864 443.818V445.473C143.379 445.403 144.911 445.297 146.355 445.104L146.46 446.16C142.965 446.724 139.135 446.777 136.229 446.777L136.018 445.597ZM136.352 437.179V436.052H140.473V434.133H141.864V436.052H145.95V437.179H136.352ZM138.677 440.983C138.668 442.066 139.689 442.779 141.142 442.762C142.604 442.779 143.616 442.066 143.608 440.983C143.616 439.891 142.604 439.152 141.142 439.152C139.689 439.152 138.668 439.891 138.677 440.983Z" fill="#1F2225"/>
<path d="M571.986 25.4297V54.3148H568.146V39.8088H565.352V52.9181H561.638V25.9058H565.352V36.5711H568.146V25.4297H571.986ZM547.831 47.776V28.7626H558.591V32.032H551.894V44.3796C554.687 44.332 557.163 44.1733 559.956 43.6813L560.242 46.9824C556.718 47.649 553.64 47.7601 549.83 47.776H547.831ZM598.015 25.4297V32.2224H601.919V35.5236H598.015V42.1894H593.952V25.4297H598.015ZM574.907 39.5548C581.271 37.8725 584.905 34.5713 585.54 30.5719H576.271V27.3342H589.952C589.968 35.0316 585.127 40.4277 576.525 42.8242L574.907 39.5548ZM578.811 48.4425C578.779 44.824 582.715 42.5386 588.587 42.5386C594.475 42.5386 598.316 44.824 598.332 48.4425C598.316 52.0929 594.475 54.3465 588.587 54.3465C582.715 54.3465 578.779 52.0929 578.811 48.4425ZM582.81 48.4425C582.794 50.1883 584.953 51.1882 588.587 51.1723C592.174 51.1882 594.333 50.1883 594.333 48.4425C594.333 46.665 592.174 45.681 588.587 45.681C584.953 45.681 582.794 46.665 582.81 48.4425ZM626.17 25.4297V32.2859H630.01V35.5871H626.17V42.1576H622.043V25.4297H626.17ZM604.204 40.6023V27.3659H617.187V30.6036H608.236V37.3329C613.6 37.3011 616.536 37.1266 619.758 36.4441L620.107 39.6818C616.536 40.4595 613.14 40.5864 606.617 40.6023H604.204ZM606.744 48.4425C606.728 44.8081 610.6 42.6655 616.647 42.6655C622.583 42.6655 626.376 44.8081 626.392 48.4425C626.376 52.1563 622.583 54.3307 616.647 54.3148C610.6 54.3307 606.728 52.1563 606.744 48.4425ZM610.743 48.4425C610.727 50.1883 612.854 51.1089 616.647 51.1089C620.313 51.1089 622.44 50.1883 622.456 48.4425C622.44 46.7443 620.313 45.8556 616.647 45.8714C612.854 45.8556 610.727 46.7443 610.743 48.4425Z" fill="white"/>
<path d="M333.804 648.608C333.788 652.845 337.549 657.369 344.088 658.48L342.31 661.844C337.263 660.844 333.534 658.003 331.661 654.306C329.756 657.972 326.011 660.828 321.012 661.844L319.266 658.48C325.694 657.337 329.455 652.798 329.487 648.608V646.513H333.804V648.608ZM318.599 670.129V666.796H345.04V670.129H318.599ZM373.132 667.082V670.478H346.691V667.082H357.8V661.876H348.881V658.702H352.753V650.449H348.754V647.211H370.91V650.449H366.847V658.702H370.783V661.876H361.832V667.082H373.132ZM356.816 658.702H362.847V650.449H356.816V658.702ZM401.223 667.05V670.319H374.782V667.05H401.223ZM375.703 660.003C382.242 659.114 385.543 655.591 385.892 652.099H377.068V648.83H385.955V645.243H389.987V648.83H398.906V652.099H390.082C390.399 655.591 393.716 659.114 400.271 660.003L398.716 663.241C393.574 662.463 389.876 660.13 387.955 656.988C386.035 660.13 382.337 662.463 377.226 663.241L375.703 660.003ZM426.426 659.718V662.923H405.985V646.926H426.204V650.195H410.111V653.242H425.538V656.416H410.111V659.718H426.426ZM402.874 670.319V667.018H429.315V670.319H402.874ZM455.788 644.831V662.796H451.947V655.337H449.439V662.606H445.662V645.338H449.439V652.068H451.947V644.831H455.788ZM432.108 649.941V646.735H443.123V655.591H436.044V658.4C439.202 658.368 441.567 658.226 444.297 657.718L444.646 660.955C441.266 661.527 438.425 661.59 434.14 661.59H432.14V652.607H439.218V649.941H432.108ZM435.822 667.209V663.971H455.788V673.684H451.756V667.209H435.822Z" fill="white"/>
<mask id="path-29-inside-1_118_35870" fill="white">
<path d="M811.867 -10.6631L803.562 3.30609L789.592 -4.99959L797.898 -18.9688L811.867 -10.6631Z"/>
</mask>
<path d="M811.867 -10.6631L803.562 3.30609L789.592 -4.99959L797.898 -18.9688L811.867 -10.6631Z" fill="#FFF258"/>
<path d="M811.867 -10.6631L812.158 -10.4901L812.331 -10.7811L812.04 -10.9541L811.867 -10.6631ZM803.562 3.30609L803.475 3.4516L803.766 3.62464L803.853 3.47912L803.562 3.30609ZM789.592 -4.99959L789.301 -5.17263L789.215 -5.02711L789.506 -4.85408L789.592 -4.99959ZM797.898 -18.9688L798.071 -19.2598L797.78 -19.4328L797.607 -19.1418L797.898 -18.9688ZM811.576 -10.8361L803.27 3.13305L803.853 3.47912L812.158 -10.4901L811.576 -10.8361ZM803.648 3.16058L789.679 -5.1451L789.506 -4.85408L803.475 3.4516L803.648 3.16058ZM789.883 -4.82656L798.189 -18.7957L797.607 -19.1418L789.301 -5.17263L789.883 -4.82656ZM797.725 -18.6777L811.694 -10.3721L812.04 -10.9541L798.071 -19.2598L797.725 -18.6777Z" fill="#1F2225" mask="url(#path-29-inside-1_118_35870)"/>
<mask id="path-31-inside-2_118_35870" fill="white">
<path d="M803.562 3.30566L795.257 17.2748L781.288 8.96916L789.593 -5.00002L803.562 3.30566Z"/>
</mask>
<path d="M803.562 3.30566L795.257 17.2748L781.288 8.96916L789.593 -5.00002L803.562 3.30566Z" fill="#FFF258"/>
<path d="M803.562 3.30566L803.854 3.4787L803.94 3.33319L803.649 3.16015L803.562 3.30566ZM795.257 17.2748L795.084 17.5659L795.375 17.7389L795.548 17.4479L795.257 17.2748ZM781.288 8.96916L780.997 8.79612L780.824 9.08715L781.115 9.26018L781.288 8.96916ZM789.593 -5.00002L789.68 -5.14553L789.389 -5.31856L789.302 -5.17305L789.593 -5.00002ZM803.271 3.13263L794.966 17.1018L795.548 17.4479L803.854 3.4787L803.271 3.13263ZM795.43 16.9838L781.461 8.67813L781.115 9.26018L795.084 17.5659L795.43 16.9838ZM781.579 9.14219L789.884 -4.82698L789.302 -5.17305L780.997 8.79612L781.579 9.14219ZM789.507 -4.8545L803.476 3.45118L803.649 3.16015L789.68 -5.14553L789.507 -4.8545Z" fill="#1F2225" mask="url(#path-31-inside-2_118_35870)"/>
<path opacity="0.9" d="M789.767 1.67866L788.16 0.723507L788.808 -0.366088C789.246 -0.105844 789.617 0.0645474 789.922 0.145085C790.236 0.231159 790.523 0.237446 790.781 0.163947C791.044 0.0811355 791.333 -0.087253 791.648 -0.341218L792.682 0.273402L786.868 10.0518L785.331 9.1382L789.767 1.67866ZM790.953 12.6699C790.199 12.2213 789.749 11.6639 789.603 10.9974C789.457 10.3309 789.617 9.6065 790.082 8.82423L793.089 3.76739C794.097 2.07246 795.383 1.69012 796.947 2.62035C797.692 3.06332 798.133 3.61528 798.269 4.27623C798.411 4.92786 798.247 5.64947 797.776 6.44106L797.668 6.62266L796.216 5.75887L796.382 5.47948C796.764 4.8369 796.689 4.3578 796.159 4.04219C795.87 3.87054 795.603 3.83165 795.358 3.92554C795.113 4.01943 794.858 4.28988 794.592 4.73689L793.479 6.60876L793.507 6.62537C794.115 6.21787 794.749 6.21068 795.411 6.60382C795.969 6.93605 796.28 7.3789 796.341 7.93237C796.403 8.48585 796.218 9.12578 795.786 9.85218L794.748 11.5983C794.283 12.3806 793.723 12.8669 793.067 13.0572C792.412 13.2475 791.708 13.1184 790.953 12.6699ZM791.784 11.2729C792.315 11.5886 792.768 11.4297 793.145 10.7965L794.175 9.06428C794.557 8.4217 794.482 7.9426 793.952 7.62698C793.421 7.31137 792.964 7.47485 792.582 8.11743L791.552 9.84961C791.176 10.4829 791.253 10.9573 791.784 11.2729Z" fill="black"/>
<path d="M798.075 -12.2911L796.469 -13.2462L797.117 -14.3358C797.554 -14.0756 797.926 -13.9052 798.231 -13.8246C798.545 -13.7386 798.831 -13.7323 799.089 -13.8058C799.353 -13.8886 799.642 -14.057 799.957 -14.3109L800.991 -13.6963L795.177 -3.9179L793.64 -4.83153L798.075 -12.2911ZM799.248 -1.30818C798.503 -1.75115 798.059 -2.29845 797.917 -2.95008C797.781 -3.61103 797.948 -4.3373 798.419 -5.12888L798.875 -5.89719L800.328 -5.0334L799.805 -4.15334C799.428 -3.52007 799.506 -3.04563 800.036 -2.73001C800.567 -2.4144 801.021 -2.57322 801.397 -3.20649L802.701 -5.39965C803.084 -6.04224 803.009 -6.52133 802.478 -6.83695C801.947 -7.15257 801.491 -6.98908 801.109 -6.3465L801.059 -6.26269L799.606 -7.12648L803.133 -12.4223L807.184 -10.0137L806.354 -8.61675L803.672 -10.2114L802.159 -7.95334L802.187 -7.93672C802.758 -8.24003 803.341 -8.21449 803.938 -7.86011C804.496 -7.52789 804.806 -7.08503 804.868 -6.53156C804.93 -5.97808 804.745 -5.33815 804.313 -4.61175L803.001 -2.40462C802.53 -1.61304 801.972 -1.11933 801.326 -0.923499C800.685 -0.736982 799.993 -0.865209 799.248 -1.30818Z" fill="black"/>
<mask id="path-35-inside-3_118_35870" fill="white">
<path d="M794.938 18.1025L785.63 31.4253L772.307 22.1181L781.615 8.79526L794.938 18.1025Z"/>
</mask>
<path d="M794.938 18.1025L785.63 31.4253L772.307 22.1181L781.615 8.79526L794.938 18.1025Z" fill="#FFF258"/>
<path d="M794.938 18.1025L795.215 18.2964L795.409 18.0189L795.131 17.825L794.938 18.1025ZM785.63 31.4253L785.533 31.5641L785.811 31.758L785.908 31.6192L785.63 31.4253ZM772.307 22.1181L772.03 21.9242L771.933 22.0629L772.21 22.2568L772.307 22.1181ZM781.615 8.79526L781.809 8.51771L781.531 8.3238L781.337 8.60136L781.615 8.79526ZM794.66 17.9086L785.353 31.2314L785.908 31.6192L795.215 18.2964L794.66 17.9086ZM785.727 31.2866L772.404 21.9793L772.21 22.2568L785.533 31.5641L785.727 31.2866ZM772.585 22.312L781.892 8.98917L781.337 8.60136L772.03 21.9242L772.585 22.312ZM781.421 9.07282L794.744 18.3801L795.131 17.825L781.809 8.51771L781.421 9.07282Z" fill="#1F2225" mask="url(#path-35-inside-3_118_35870)"/>
<mask id="path-37-inside-4_118_35870" fill="white">
<path d="M785.629 31.4258L776.322 44.7486L762.999 35.4413L772.306 22.1185L785.629 31.4258Z"/>
</mask>
<path d="M785.629 31.4258L776.322 44.7486L762.999 35.4413L772.306 22.1185L785.629 31.4258Z" fill="#FFF258"/>
<path d="M785.629 31.4258L785.906 31.6197L786.003 31.4809L785.726 31.287L785.629 31.4258ZM776.322 44.7486L776.128 45.0261L776.405 45.22L776.599 44.9425L776.322 44.7486ZM762.999 35.4413L762.721 35.2474L762.527 35.525L762.805 35.7189L762.999 35.4413ZM772.306 22.1185L772.403 21.9797L772.126 21.7858L772.029 21.9246L772.306 22.1185ZM785.351 31.2319L776.044 44.5547L776.599 44.9425L785.906 31.6197L785.351 31.2319ZM776.516 44.471L763.193 35.1637L762.805 35.7189L776.128 45.0261L776.516 44.471ZM763.276 35.6352L772.584 22.3124L772.029 21.9246L762.721 35.2474L763.276 35.6352ZM772.209 22.2573L785.532 31.5646L785.726 31.287L772.403 21.9797L772.209 22.2573Z" fill="#1F2225" mask="url(#path-37-inside-4_118_35870)"/>
<path opacity="0.9" d="M771.99 28.7908L770.458 27.7205L771.184 26.6813C771.602 26.9729 771.96 27.1701 772.258 27.2727C772.565 27.3816 772.85 27.4089 773.113 27.3545C773.382 27.2912 773.682 27.1445 774.015 26.9143L775.001 27.603L768.486 36.929L767.02 35.9052L771.99 28.7908ZM772.328 39.8115C771.591 39.2965 771.159 38.704 771.032 38.0339C770.921 37.3612 771.126 36.6519 771.647 35.9058L772.224 35.0798C772.547 34.6179 772.892 34.2843 773.26 34.0789C773.634 33.8646 774.052 33.7866 774.514 33.8447L774.533 33.8181C774.34 33.4322 774.27 33.0399 774.324 32.6413C774.393 32.2401 774.589 31.8085 774.911 31.3467L775.181 30.9603C775.702 30.2142 776.29 29.7792 776.945 29.6552C777.615 29.5285 778.31 29.7165 779.029 30.2191C779.749 30.7217 780.16 31.3062 780.263 31.9727C780.38 32.6365 780.179 33.3415 779.658 34.0875L779.388 34.4739C778.767 35.3621 778.037 35.764 777.197 35.6795L777.179 35.7062C777.392 36.1196 777.463 36.5389 777.39 36.9642C777.324 37.3805 777.13 37.8196 776.807 38.2815L776.23 39.1075C775.709 39.8536 775.109 40.2868 774.43 40.4073C773.766 40.5251 773.065 40.3265 772.328 39.8115ZM776.284 34.1493C776.799 34.5092 777.274 34.3782 777.708 33.7565L778.22 33.0238C778.654 32.402 778.614 31.9112 778.099 31.5513C777.584 31.1915 777.109 31.3224 776.675 31.9441L776.163 32.6769C775.728 33.2986 775.769 33.7894 776.284 34.1493ZM773.259 38.4792C773.81 38.8639 774.33 38.7054 774.82 38.0038L775.444 37.1111C775.934 36.4095 775.904 35.8663 775.353 35.4816C774.802 35.0969 774.282 35.2554 773.792 35.957L773.168 36.8496C772.678 37.5513 772.708 38.0945 773.259 38.4792Z" fill="black"/>
<path d="M781.299 15.4685L779.767 14.3982L780.493 13.359C780.91 13.6506 781.268 13.8478 781.567 13.9505C781.874 14.0594 782.159 14.0866 782.421 14.0322C782.69 13.969 782.991 13.8222 783.324 13.592L784.31 14.2807L777.794 23.6067L776.329 22.5829L781.299 15.4685ZM788.06 18.8835L785.103 16.8173L786.033 15.485L790.43 18.5564L789.536 19.8354L781.623 26.2815L780.131 25.2391L788.06 18.8835Z" fill="black"/>
<g filter="url(#filter0_d_118_35870)">
<path d="M400 473.826C372.357 473.826 350 495.871 350 523.127C350 560.103 400 614.686 400 614.686C400 614.686 450 560.103 450 523.127C450 495.871 427.643 473.826 400 473.826ZM400 540.735C390.143 540.735 382.143 532.847 382.143 523.127C382.143 513.408 390.143 505.52 400 505.52C409.857 505.52 417.857 513.408 417.857 523.127C417.857 532.847 409.857 540.735 400 540.735Z" fill="#F55B1D"/>
</g>
</g>
<defs>
<filter id="filter0_d_118_35870" x="344" y="469.826" width="112" height="152.86" filterUnits="userSpaceOnUse" color-interpolation-filters="sRGB">
<feFlood flood-opacity="0" result="BackgroundImageFix"/>
<feColorMatrix in="SourceAlpha" type="matrix" values="0 0 0 0 0 0 0 0 0 0 0 0 0 0 0 0 0 0 127 0" result="hardAlpha"/>
<feOffset dy="2"/>
<feGaussianBlur stdDeviation="3"/>
<feComposite in2="hardAlpha" operator="out"/>
<feColorMatrix type="matrix" values="0 0 0 0 0.645833 0 0 0 0 0.645833 0 0 0 0 0.645833 0 0 0 0.2 0"/>
<feBlend mode="normal" in2="BackgroundImageFix" result="effect1_dropShadow_118_35870"/>
<feBlend mode="normal" in="SourceGraphic" in2="effect1_dropShadow_118_35870" result="shape"/>
</filter>
<clipPath id="clip0_118_35870">
<rect width="800" height="800" fill="white"/>
</clipPath>
</defs>
</svg>
