<svg width="24" height="25" viewBox="0 0 24 25" fill="none" xmlns="http://www.w3.org/2000/svg">
<g id="&#236;&#178;&#180;&#237;&#129;&#172;&#235;&#176;&#149;&#236;&#138;&#164;" clip-path="url(#clip0_1171_21335)">
<path id="Vector" d="M18 19.5H6C5.45 19.5 5 19.05 5 18.5V6.5C5 5.95 5.45 5.5 6 5.5H18C18.55 5.5 19 5.95 19 6.5V18.5C19 19.05 18.55 19.5 18 19.5ZM19 3.5H5C3.9 3.5 3 4.4 3 5.5V19.5C3 20.6 3.9 21.5 5 21.5H19C20.1 21.5 21 20.6 21 19.5V5.5C21 4.4 20.1 3.5 19 3.5Z" fill="#9B9B9B"/>
</g>
<defs>
<clipPath id="clip0_1171_21335">
<rect width="24" height="24" fill="white" transform="translate(0 0.5)"/>
</clipPath>
</defs>
</svg>
