<svg width="180" height="181" viewBox="0 0 180 181" fill="none" xmlns="http://www.w3.org/2000/svg">
<path d="M105.224 76.4966C105.884 75.7397 106.453 75.2136 106.873 74.5902C108.148 72.7201 109.789 71.1633 111.196 69.407C113.209 66.9069 115.593 64.7291 118.264 62.949C121.001 61.1135 124.07 59.8783 127.499 59.9096C129.664 59.9311 131.831 59.9541 133.995 59.8981C135.314 59.8634 136.558 60.1521 137.822 60.4687C139.087 60.7853 139.933 61.5703 140.549 62.6769C141.251 63.9796 141.606 65.4418 141.578 66.9217C141.578 70.3849 141.611 73.8481 141.578 77.3113C141.531 81.9965 140.859 86.6107 140.016 91.2102C139.747 92.6713 139.28 94.0615 138.791 95.4419C137.801 98.2141 136.78 100.973 135.674 103.699C134.916 105.637 133.947 107.485 132.784 109.21C130.815 112.059 128.93 114.964 126.917 117.786C125.182 120.207 123.028 122.283 120.342 123.558C117.306 125.009 114.12 126.112 110.74 126.61C107.807 127.043 104.871 126.94 101.931 126.995C97.4253 127.069 92.938 126.919 88.4755 126.223C87.6192 126.077 86.7443 126.077 85.888 126.223C84.3394 126.52 82.7876 126.553 81.2308 126.543C79.4893 126.543 77.7874 126.825 76.0707 127.038C73.155 127.407 70.2311 127.706 67.3088 128.027C66.8784 128.075 66.4457 128.101 66.0126 128.103C61.0751 128.103 56.1294 128.291 51.2034 128.058C45.7893 127.803 40.6489 126.385 35.9555 123.492C33.9765 122.267 31.8327 121.277 29.8141 120.116C28.5394 119.384 27.314 118.561 26.1019 117.727C24.123 116.366 22.7608 114.503 21.8257 112.319C21.3706 111.252 20.5609 110.475 19.8319 109.619C18.6545 108.238 17.4522 106.872 16.3572 105.424C13.74 101.961 12.2707 98.003 11.5566 93.7713C10.7172 88.7942 11.0074 83.7924 11.2696 78.7642C11.4692 74.9712 13.1925 71.7949 14.6289 68.4868C15.7998 65.7888 17.251 63.2227 18.8161 60.7226C20.6911 57.7229 23.2687 55.7505 26.7204 54.8286C29.2501 54.1508 31.7783 53.6924 34.4037 53.8523C35.2681 53.9224 36.1367 53.9224 37.0011 53.8523C40.4511 53.4994 43.4541 54.6769 46.3055 56.4431C46.8219 56.7598 47.3548 57.0488 47.9018 57.3089C50.6295 58.6381 52.3924 60.7556 53.217 63.6795C53.8948 66.0922 54.6188 68.4917 55.3411 70.8929C55.3773 70.9639 55.4298 71.0254 55.4943 71.0724C55.5588 71.1194 55.6334 71.1505 55.7121 71.1633C55.7878 71.1614 55.8619 71.1407 55.9275 71.1029C55.9932 71.0652 56.0484 71.0117 56.0881 70.9473C56.2085 70.6273 56.253 70.2777 56.3487 69.9479C57.8065 65.0368 59.6338 60.2922 62.3334 55.8989C63.4218 54.1278 64.4113 52.3368 65.9615 50.879C67.8778 49.0649 70.0711 47.7044 72.3535 46.4725C73.6649 45.787 75.1272 45.4412 76.6067 45.4665C79.0325 45.4665 81.4584 45.4913 83.8843 45.4566C84.9447 45.4401 85.9589 45.6776 86.9517 45.9514C90.6334 46.9316 94.2164 48.2511 97.6545 49.8928C98.5781 50.3364 99.3894 51.0224 100.239 51.6161C101.466 52.4639 102.317 53.7552 102.61 55.2178C103.337 58.5161 104.037 61.7979 104.122 65.2C104.2 68.2229 104.469 71.2425 104.7 74.2604C104.752 74.9365 104.998 75.5813 105.224 76.4966Z" fill="#F55B1D"/>
<path d="M128.996 103.135C129.919 101.925 130.869 100.811 131.671 99.5989C133.146 97.3673 134.889 95.3452 136.531 93.2456C136.96 92.7065 137.428 92.1999 137.932 91.7298C138.773 90.9348 139.759 90.473 140.955 90.4895C142.679 90.5142 144.412 90.379 146.123 90.5241C148.663 90.7369 150.915 91.8436 152.986 93.2604C155.273 94.8306 157.201 96.8066 159.036 98.8683C160.18 100.148 161.222 101.522 162.26 102.891C165.29 106.886 166.823 111.519 167.915 116.33C168.006 116.751 168.052 117.181 168.052 117.612C168.085 121.313 168.179 125.016 167.556 128.687C167.246 130.563 166.473 132.331 165.306 133.833C164.48 134.917 163.408 135.483 161.977 135.459C155.945 135.394 149.903 135.6 143.886 135.295C137.947 134.998 132.008 135.057 126.073 134.828C124.011 134.749 121.943 134.567 119.901 134.308C114.351 133.604 108.736 133.522 103.214 132.461C101.531 132.131 99.7943 132.073 98.0811 131.908C94.6545 131.579 91.2313 131.104 87.7965 130.988C85.2163 130.917 82.6349 131.086 80.086 131.493C72.3095 132.695 64.4932 132.977 56.6473 132.84C55.5519 132.819 54.4995 132.796 53.5248 131.958C53.0523 131.549 52.0379 131.762 51.2762 131.692C50.888 131.658 50.6154 131.443 50.5873 131.064C50.3808 127.902 49.715 124.744 50.1379 121.578C50.4072 119.555 51.0548 117.579 51.5653 115.591C52.1849 113.186 53.7131 111.537 55.9187 110.465C59.0164 108.959 62.1357 107.465 65.5011 106.671C69.6959 105.685 74.0212 105.371 78.315 105.74C81.8336 105.999 85.305 106.704 88.6457 107.838C89.3446 108.078 89.8452 107.838 90.1839 107.275C91.0744 105.791 92.2623 104.544 93.3527 103.216C94.9949 101.215 96.766 99.3548 98.8278 97.7912C100.571 96.4717 102.477 95.5398 104.754 95.586C106.571 95.6207 108.374 95.5992 110.183 95.586C115.602 95.5646 120.529 97.049 124.887 100.313C126.205 101.278 127.578 102.159 128.996 103.135Z" fill="#FFF258"/>
</svg>
