<svg width="18" height="15" viewBox="0 0 18 15" fill="none" xmlns="http://www.w3.org/2000/svg">
<path d="M6.07881 6.05506C6.02648 5.94958 5.95662 5.93134 5.89565 5.90509C5.34016 5.67789 4.78702 5.44545 4.22787 5.22725C3.76893 5.04829 3.28591 4.94206 2.80473 4.83483C2.64381 4.79884 2.47688 4.80584 2.31204 4.82484C2.22805 4.83458 2.14589 4.84758 2.10481 4.92881C2.05509 5.02729 1.96849 5.04679 1.86618 5.04604C1.68747 5.04604 1.5085 5.03929 1.33031 5.04804C1.12517 5.05828 0.963993 4.94981 0.788162 4.88007C0.747605 4.86383 0.711238 4.80134 0.702603 4.7551C0.687619 4.6642 0.682881 4.57203 0.688473 4.48016C0.695538 4.32495 0.627768 4.14449 0.729813 4.02027C0.840755 3.88555 1.03935 3.97878 1.19582 3.95028C1.78114 3.84306 2.37326 3.8848 2.96225 3.87355C3.34976 3.8663 3.72549 3.92754 4.10149 4.01427C4.64849 4.14181 5.1814 4.31925 5.69287 4.54415C5.7923 4.58764 5.89461 4.62563 5.9977 4.66112C6.01067 4.66465 6.02438 4.66493 6.0375 4.66192C6.05062 4.65892 6.06271 4.65273 6.07259 4.64396C6.08248 4.6352 6.08984 4.62415 6.09395 4.61187C6.09807 4.5996 6.0988 4.58652 6.09608 4.57389C6.0848 4.53635 6.07125 4.49947 6.05552 4.46342C5.59658 3.39591 5.1659 2.31715 4.62114 1.28439C4.61266 1.25948 4.60106 1.23564 4.5866 1.2134C4.30139 0.903719 4.36681 0.529305 4.37335 0.166137C4.37492 0.0746575 4.42855 0.01892 4.52641 0.0161706C4.70486 0.0119216 4.88384 0.00966792 5.06228 0.0119174C5.38333 0.0161665 5.56283 0.156639 5.63975 0.453322C5.65962 0.542709 5.68836 0.630082 5.72558 0.714262C6.08587 1.4511 6.43204 2.19293 6.72222 2.95901C6.8902 3.40266 7.09952 3.83206 7.29785 4.26472C7.33972 4.35644 7.35961 4.46842 7.48599 4.52841C7.60792 4.20348 7.63251 3.86805 7.6749 3.53688C7.72174 3.17296 7.74162 2.80529 7.79997 2.44312C7.83616 2.2096 7.85418 1.97384 7.85387 1.73778C7.85623 1.30438 7.85387 0.871225 7.85387 0.438073C7.85387 0.346094 7.85387 0.254114 7.8578 0.163135C7.86172 0.0721551 7.90725 0.00992006 8.00511 0.00792051C8.25237 0.00292164 8.50068 -0.00707611 8.7469 0.00792051C8.99311 0.0229171 9.09647 0.149641 9.10144 0.398085C9.10484 0.568797 9.10144 0.739508 9.10144 0.91022C9.10144 0.995701 9.0703 1.06593 8.97453 1.08768C8.85941 1.11267 8.82565 1.18916 8.82565 1.29088C8.82565 1.50109 8.82121 1.71104 8.82565 1.92124C8.83874 2.68407 8.74716 3.43865 8.63177 4.19173C8.61214 4.32045 8.61319 4.45217 8.6056 4.58264C8.60351 4.61564 8.61973 4.63588 8.65165 4.63538C8.67759 4.63822 8.70384 4.63388 8.72727 4.62288C8.78167 4.58284 8.8334 4.5396 8.88217 4.49341C9.15822 4.23722 9.44394 3.98953 9.70638 3.72134C10.4128 2.9995 11.2112 2.37764 12.0089 1.75503C12.0728 1.70504 12.1659 1.6633 12.19 1.59881C12.2659 1.39736 12.4517 1.30538 12.5935 1.16591C12.7724 0.988452 12.9695 0.922214 13.2193 0.944709C13.3829 0.959706 13.549 0.948459 13.7139 0.951709C13.8055 0.953458 13.8787 0.990197 13.8813 1.08643C13.8871 1.30938 13.8855 1.53258 13.8853 1.75553C13.8853 1.84076 13.8329 1.90225 13.7743 1.95973C13.5749 2.15969 13.3745 2.35589 13.1411 2.52111C12.116 3.25062 11.1637 4.06917 10.2964 4.9663C10.2883 4.9748 10.2883 4.9913 10.2841 5.00505C10.3103 5.07828 10.3684 5.04179 10.4128 5.03179C11.2407 4.84633 12.0652 4.64512 12.8986 4.47891C13.2858 4.40143 13.6872 4.38443 14.0833 4.35394C14.329 4.33469 14.5755 4.34219 14.8215 4.2982C14.9949 4.26721 15.1776 4.28421 15.356 4.27771C15.7652 4.25967 16.173 4.21869 16.5772 4.15499C16.832 4.11699 17.0973 4.13824 17.3577 4.14124C17.4568 4.14249 17.4961 4.21473 17.4969 4.30321C17.4987 4.50016 17.5029 4.69712 17.4969 4.89382C17.4919 5.06278 17.4445 5.11877 17.2818 5.12027C16.8009 5.12452 16.3252 5.19325 15.8448 5.213C15.1603 5.24124 14.4695 5.25599 13.7958 5.38796C13.0433 5.53443 12.2965 5.71014 11.5505 5.8866C11.0979 5.99382 10.6512 6.12529 10.2027 6.24852C10.1677 6.25826 10.1242 6.28226 10.1104 6.31075C10.0774 6.38249 10.1535 6.39223 10.1962 6.41648C10.2316 6.43698 10.2692 6.45374 10.3084 6.46647C11.2062 6.7539 12.0924 7.07208 13.0137 7.29303C13.5446 7.42025 14.0603 7.60396 14.5784 7.77892C14.812 7.8579 15.0439 7.93514 15.2848 7.98638C15.4051 8.0138 15.5232 8.04913 15.6383 8.0921C15.721 8.12135 15.7778 8.18258 15.771 8.27156C15.7514 8.527 15.8432 8.7912 15.7074 9.03764C15.3811 9.08638 15.0378 9.13312 14.7328 9.02464C14.2955 8.86918 13.8384 8.77645 13.4075 8.60349C13.1301 8.49226 12.8394 8.40928 12.5513 8.32455C12.2499 8.23632 11.944 8.16109 11.6403 8.08035C10.646 7.81666 9.68205 7.47399 8.72021 7.12357C8.66946 7.10412 8.61689 7.0893 8.56321 7.07933C8.55275 7.07758 8.5203 7.11882 8.5237 7.13532C8.53825 7.19853 8.55749 7.26067 8.58127 7.32128C8.9031 8.17634 9.36623 8.96916 9.78488 9.78022C10.1015 10.3916 10.4427 10.9917 10.764 11.6011C10.9799 12.011 11.1826 12.4276 11.3865 12.843C11.5497 13.1747 11.7004 13.5119 11.8692 13.8416C11.9431 13.9825 11.9784 14.139 11.972 14.2965C11.965 14.4799 11.9697 14.6641 11.9663 14.8478C11.9647 14.9418 11.9072 14.9923 11.8111 14.9941C11.6052 14.9978 11.3985 15.004 11.1928 14.9963C10.9312 14.9866 10.7347 14.8316 10.7326 14.5844C10.7305 14.3212 10.6222 14.1023 10.5178 13.8746C10.0816 12.9248 9.54965 12.0202 9.06899 11.0907C8.69273 10.3606 8.31019 9.63276 7.9321 8.90442C7.90254 8.84768 7.88736 8.77945 7.80128 8.75046C7.69452 8.99015 7.66888 9.24884 7.62074 9.50029C7.54643 9.8867 7.50168 10.2781 7.44595 10.6675C7.37714 11.1479 7.31905 11.6298 7.2382 12.1084C7.20345 12.3156 7.18595 12.525 7.18587 12.7348C7.18587 13.05 7.18587 13.3652 7.18587 13.6803C7.1877 14.0365 7.10973 14.3822 7.03254 14.7274C6.99748 14.8841 6.9666 14.9058 6.81484 14.9096C6.60866 14.9146 6.40247 14.9148 6.19629 14.9096C6.05003 14.9053 5.98304 14.8526 5.97755 14.7269C5.96813 14.5042 5.97127 14.2807 5.97284 14.0575C5.97119 14.0181 5.98175 13.9792 6.00319 13.9455C6.21487 13.6733 6.18635 13.3502 6.21251 13.0412C6.22577 12.8577 6.22647 12.6735 6.21461 12.4899C6.18138 11.8168 6.30331 11.1569 6.39646 10.4946C6.46763 9.98818 6.55345 9.48354 6.61258 8.97591C6.63352 8.7962 6.71986 8.62198 6.68637 8.43653C6.57543 8.42303 6.52571 8.49576 6.46998 8.54875C5.82736 9.15961 5.16825 9.75523 4.60543 10.4391C4.44478 10.6343 4.25299 10.8072 4.06774 10.9827C3.80399 11.2326 3.54914 11.4898 3.3351 11.781C3.15004 12.0259 2.94195 12.2541 2.71341 12.4629C2.59541 12.5738 2.46903 12.6891 2.42141 12.8378C2.37666 12.9788 2.30576 13.026 2.16132 13.022C1.91406 13.0147 1.66628 13.0197 1.41901 13.0162C1.32429 13.0162 1.26542 12.9685 1.25914 12.8733C1.25652 12.834 1.25496 12.7945 1.25522 12.7551C1.25757 12.5583 1.23742 12.3579 1.26987 12.1657C1.30231 11.9735 1.49724 11.876 1.62545 11.744C2.27959 11.0712 2.82514 10.3079 3.5371 9.68374C3.68755 9.55177 3.80425 9.38381 3.93822 9.23509C4.53646 8.56625 5.18471 7.93975 5.87786 7.36052C5.90927 7.33511 5.93645 7.30527 5.95845 7.27203C5.96839 7.25629 5.96002 7.2273 5.95321 7.2063C5.9506 7.1983 5.92914 7.19105 5.91684 7.1918C5.86205 7.19405 5.80749 7.19998 5.75357 7.20955C5.09682 7.34577 4.44111 7.48599 3.7841 7.62021C2.86596 7.80792 2.00119 8.14209 1.14768 8.50351C1.01685 8.55875 0.897536 8.59899 0.758074 8.59624C0.552152 8.59199 0.345969 8.59224 0.140047 8.58624C0.122649 8.58677 0.105313 8.58399 0.0890578 8.57804C0.0728022 8.57209 0.0579533 8.5631 0.0453796 8.55161C0.0328058 8.54011 0.0227596 8.52633 0.0158317 8.51108C0.00890372 8.49582 0.00523263 8.4794 0.0050327 8.46277C-0.00203196 8.23982 0.000582916 8.01662 5.96079e-05 7.79342C5.96079e-05 7.70369 0.0510823 7.64571 0.134288 7.61471C0.990944 7.29678 1.83138 6.93061 2.73225 6.73841C3.80294 6.50996 4.87991 6.308 5.954 6.09405C5.99037 6.08455 6.02726 6.07031 6.07881 6.05506Z" fill="#029C54"/>
</svg>
