<svg width="21" height="18" viewBox="0 0 21 18" fill="none" xmlns="http://www.w3.org/2000/svg">
<path id="Vector" d="M11.3498 3.4156C11.641 3.02805 11.8973 2.66118 12.1813 2.31386C12.9634 1.35714 13.9163 0.602996 15.1321 0.167665C15.4323 0.0558411 15.7526 -0.00106633 16.0757 1.51291e-05C16.7967 0.00783879 17.5177 -0.00166151 18.2387 0.00336799C19.3501 0.0114711 20.1292 0.492905 20.5832 1.44795C20.8562 2.02243 21.004 2.61508 20.9897 3.24656C20.9766 3.82551 20.9632 4.40613 20.9921 4.98425C21.0445 6.03094 20.8374 7.03992 20.5101 8.02821C20.0401 9.44681 19.5126 10.8459 18.7701 12.1658C17.9057 13.7026 16.7231 14.9742 15.2406 16.0134C14.2239 16.7265 13.1288 17.304 11.9667 17.7762C11.6041 17.9279 11.2107 18.0042 10.8136 17.9998C10.0188 17.9888 9.22394 17.9888 8.42913 17.9998C7.75941 18.0079 7.16211 17.8123 6.60028 17.4884C6.00417 17.1445 5.55321 16.6583 5.09033 16.1768C4.14855 15.1949 3.29631 14.1406 2.54257 13.025C1.71637 11.8062 0.969445 10.5416 0.486002 9.15957C0.326246 8.70217 0.224012 8.23275 0.231464 7.74349C0.243684 6.92983 0.245472 6.11561 0.231464 5.30222C0.221628 4.72774 0.356053 4.17729 0.547105 3.645C0.737742 3.11691 1.10934 2.66274 1.604 2.35326C2.56522 1.73854 3.5956 1.30182 4.79318 1.32557C5.57199 1.34094 6.3514 1.30489 7.13051 1.34792C8.85744 1.44348 10.2547 2.1247 11.3498 3.4156Z" fill="#029C54"/>
</svg>
