<svg width="21" height="18" viewBox="0 0 21 18" fill="none" xmlns="http://www.w3.org/2000/svg">
<path id="Vector" d="M11.3734 4.21645L10.9685 3.73905C9.96506 2.55617 8.6973 1.9354 7.10294 1.84716L11.3734 4.21645ZM11.3734 4.21645L11.7495 3.71596M11.3734 4.21645L11.7495 3.71596M11.7495 3.71596C11.8496 3.58276 11.9424 3.45649 12.0317 3.33504C12.2148 3.08595 12.3829 2.85714 12.5684 2.6304L12.5684 2.63032M11.7495 3.71596L12.5684 2.63032M12.5684 2.63032C13.3042 1.73032 14.1855 1.03768 15.3006 0.638397L15.3006 0.638435M12.5684 2.63032L15.3006 0.638435M15.3006 0.638435L15.3066 0.636224M15.3006 0.638435L15.3066 0.636224M15.3066 0.636224C15.5494 0.545772 15.8094 0.499339 16.0723 0.500007M15.3066 0.636224L16.0723 0.500007M20.4927 5.00927L20.4927 5.00922C20.4631 4.41638 20.4765 3.82393 20.4894 3.25404L20.4898 3.23523C20.5021 2.69324 20.3764 2.17766 20.1316 1.66259C19.9394 1.25831 19.6913 0.97881 19.3951 0.796154C19.0974 0.61263 18.7187 0.506903 18.2352 0.503356L20.4927 5.00927ZM20.4927 5.00927C20.541 5.97354 20.3511 6.91788 20.0355 7.87104C19.569 9.27906 19.0533 10.6425 18.3343 11.9207L18.7701 12.1658L18.3343 11.9207C17.5093 13.3875 16.3794 14.6045 14.9536 15.6039L14.9534 15.604M20.4927 5.00927L14.9534 15.604M14.9534 15.604C13.9713 16.2929 12.9102 16.8531 11.7785 17.313L11.7785 17.313L11.7738 17.3149C11.4748 17.44 11.1492 17.5034 10.8197 17.4998M14.9534 15.604L10.8197 17.4998M10.8197 17.4998C10.0205 17.4888 9.22137 17.4888 8.42222 17.4998L8.42913 17.9998C7.75941 18.0079 7.16211 17.8123 6.60028 17.4884M10.8197 17.4998H8.42308C7.86157 17.5066 7.35193 17.3445 6.85017 17.0553M6.60028 17.4884L6.85017 17.0553M6.60028 17.4884L6.84997 17.0552C6.85003 17.0553 6.8501 17.0553 6.85017 17.0553M6.60028 17.4884C6.03712 17.1635 5.60351 16.7116 5.16701 16.2567C5.14147 16.2301 5.11592 16.2035 5.09033 16.1768M6.85017 17.0553L5.45079 15.8303C5.45093 15.8305 5.45106 15.8306 5.45119 15.8307L5.09033 16.1768M5.09033 16.1768C4.14855 15.1949 3.29631 14.1406 2.54257 13.025C1.71637 11.8062 0.969445 10.5416 0.486002 9.15957M5.09033 16.1768L5.45077 15.8303C4.5286 14.8688 3.69442 13.8367 2.95687 12.7451L2.95644 12.7445C2.14006 11.5401 1.42063 10.317 0.958039 8.99471C0.81125 8.57443 0.725102 8.16501 0.731406 7.7511L0.731407 7.751C0.74369 6.93314 0.745508 6.11345 0.73139 5.29366L0.486002 9.15957M0.486002 9.15957C0.326246 8.70217 0.224012 8.23275 0.231464 7.74349L0.486002 9.15957ZM1.86921 2.77716L1.86919 2.77714C1.46552 3.02969 1.16865 3.39609 1.01754 3.81438C0.837588 4.31586 0.722989 4.80247 0.731389 5.29361L1.86921 2.77716ZM1.86921 2.77716L1.87338 2.77449M1.86921 2.77716L1.87338 2.77449M1.87338 2.77449C2.78964 2.18853 3.72185 1.80442 4.78326 1.82547L4.78331 1.82547M1.87338 2.77449L4.78331 1.82547M4.78331 1.82547C5.1202 1.83212 5.43651 1.82992 5.74521 1.82777M4.78331 1.82547L5.74521 1.82777M16.0723 0.500007C16.459 0.504186 16.8623 0.503353 17.2616 0.502528C17.5927 0.501844 17.9211 0.501166 18.235 0.503355L16.0723 0.500007ZM5.74521 1.82777C6.20045 1.8246 6.63914 1.82155 7.10289 1.84716L5.74521 1.82777Z" stroke="#029C54"/>
</svg>
