<svg width="15" height="18" viewBox="0 0 15 18" fill="none" xmlns="http://www.w3.org/2000/svg">
<path d="M13.8179 0.400024C13.7537 0.400024 13.6878 0.414583 13.6219 0.447858L3.88195 5.26454H1.1107C0.961997 5.26454 0.840332 5.41844 0.840332 5.60977V11.8282C0.840332 12.0195 0.961997 12.1734 1.1107 12.1734H2.82921C2.76669 12.4147 2.7329 12.6705 2.7329 12.9305C2.7329 14.301 3.642 15.4157 4.76064 15.4157C5.69678 15.4157 6.48592 14.6338 6.71911 13.5773L13.6236 16.9922C13.6895 17.0234 13.7554 17.04 13.8196 17.04C14.1052 17.04 14.3603 16.7447 14.3603 16.3496V1.0905C14.3586 0.695347 14.1052 0.400024 13.8179 0.400024ZM4.76064 13.9246C4.31285 13.9246 3.94954 13.4795 3.94954 12.9305C3.94954 12.6975 4.01544 12.475 4.13542 12.2982L5.57005 13.0074C5.53625 13.519 5.18647 13.9246 4.76064 13.9246ZM13.142 15.1391L4.33481 10.7842L4.11683 10.676H2.05698V6.76195H4.11683L4.33481 6.6538L13.142 2.29883V15.1391Z" fill="#004628"/>
</svg>
