<svg width="18" height="16" viewBox="0 0 18 16" fill="none" xmlns="http://www.w3.org/2000/svg">
<path d="M6.07881 6.73499C6.02648 6.62952 5.95662 6.61127 5.89565 6.58502C5.34016 6.35783 4.78702 6.12538 4.22787 5.90718C3.76893 5.72822 3.28591 5.62199 2.80473 5.51476C2.64381 5.47877 2.47688 5.48577 2.31204 5.50477C2.22805 5.51452 2.14589 5.52751 2.10481 5.60874C2.05509 5.70722 1.96849 5.72672 1.86618 5.72597C1.68747 5.72597 1.5085 5.71922 1.33031 5.72797C1.12517 5.73821 0.963993 5.62974 0.788162 5.56001C0.747605 5.54376 0.711238 5.48127 0.702603 5.43503C0.687619 5.34413 0.682881 5.25196 0.688473 5.1601C0.695538 5.00488 0.627768 4.82442 0.729813 4.7002C0.840755 4.56548 1.03935 4.65871 1.19582 4.63022C1.78114 4.52299 2.37326 4.56473 2.96225 4.55348C3.34976 4.54623 3.72549 4.60747 4.10149 4.6942C4.64849 4.82174 5.1814 4.99918 5.69287 5.22408C5.7923 5.26757 5.89461 5.30556 5.9977 5.34105C6.01067 5.34458 6.02438 5.34486 6.0375 5.34185C6.05062 5.33885 6.06271 5.33266 6.07259 5.32389C6.08248 5.31513 6.08984 5.30408 6.09395 5.2918C6.09807 5.27953 6.0988 5.26645 6.09608 5.25382C6.0848 5.21628 6.07125 5.1794 6.05552 5.14335C5.59658 4.07584 5.1659 2.99708 4.62114 1.96432C4.61266 1.93941 4.60106 1.91558 4.5866 1.89333C4.30139 1.58365 4.36681 1.20924 4.37335 0.846069C4.37492 0.754589 4.42855 0.698852 4.52641 0.696102C4.70486 0.691853 4.88384 0.6896 5.06228 0.691849C5.38333 0.696098 5.56283 0.83657 5.63975 1.13325C5.65962 1.22264 5.68836 1.31001 5.72558 1.39419C6.08587 2.13103 6.43204 2.87286 6.72222 3.63894C6.8902 4.08259 7.09952 4.51199 7.29785 4.94465C7.33972 5.03638 7.35961 5.14835 7.48599 5.20834C7.60792 4.88341 7.63251 4.54798 7.6749 4.21681C7.72174 3.85289 7.74162 3.48522 7.79997 3.12305C7.83616 2.88953 7.85418 2.65378 7.85387 2.41771C7.85623 1.98431 7.85387 1.55116 7.85387 1.118C7.85387 1.02603 7.85387 0.934046 7.8578 0.843066C7.86172 0.752087 7.90725 0.689852 8.00511 0.687852C8.25237 0.682853 8.50068 0.672856 8.7469 0.687852C8.99311 0.702849 9.09647 0.829573 9.10144 1.07802C9.10484 1.24873 9.10144 1.41944 9.10144 1.59015C9.10144 1.67563 9.0703 1.74586 8.97453 1.76761C8.85941 1.7926 8.82565 1.86909 8.82565 1.97082C8.82565 2.18102 8.82121 2.39097 8.82565 2.60117C8.83874 3.364 8.74716 4.11858 8.63177 4.87166C8.61214 5.00038 8.61319 5.1321 8.6056 5.26257C8.60351 5.29557 8.61973 5.31581 8.65165 5.31531C8.67759 5.31815 8.70384 5.31381 8.72727 5.30281C8.78167 5.26277 8.8334 5.21953 8.88217 5.17334C9.15822 4.91715 9.44394 4.66946 9.70638 4.40127C10.4128 3.67943 11.2112 3.05757 12.0089 2.43496C12.0728 2.38497 12.1659 2.34323 12.19 2.27874C12.2659 2.07729 12.4517 1.98531 12.5935 1.84584C12.7724 1.66838 12.9695 1.60215 13.2193 1.62464C13.3829 1.63964 13.549 1.62839 13.7139 1.63164C13.8055 1.63339 13.8787 1.67013 13.8813 1.76636C13.8871 1.98931 13.8855 2.21251 13.8853 2.43546C13.8853 2.52069 13.8329 2.58218 13.7743 2.63967C13.5749 2.83962 13.3745 3.03583 13.1411 3.20104C12.116 3.93055 11.1637 4.74911 10.2964 5.64623C10.2883 5.65473 10.2883 5.67123 10.2841 5.68498C10.3103 5.75821 10.3684 5.72172 10.4128 5.71172C11.2407 5.52626 12.0652 5.32506 12.8986 5.15884C13.2858 5.08136 13.6872 5.06437 14.0833 5.03387C14.329 5.01463 14.5755 5.02213 14.8215 4.97814C14.9949 4.94714 15.1776 4.96414 15.356 4.95764C15.7652 4.9396 16.173 4.89862 16.5772 4.83492C16.832 4.79693 17.0973 4.81817 17.3577 4.82117C17.4568 4.82242 17.4961 4.89466 17.4969 4.98314C17.4987 5.18009 17.5029 5.37705 17.4969 5.57375C17.4919 5.74272 17.4445 5.7987 17.2818 5.8002C16.8009 5.80445 16.3252 5.87319 15.8448 5.89293C15.1603 5.92118 14.4695 5.93592 13.7958 6.06789C13.0433 6.21436 12.2965 6.39007 11.5505 6.56653C11.0979 6.67376 10.6512 6.80523 10.2027 6.92845C10.1677 6.9382 10.1242 6.96219 10.1104 6.99068C10.0774 7.06242 10.1535 7.07216 10.1962 7.09641C10.2316 7.11691 10.2692 7.13367 10.3084 7.1464C11.2062 7.43383 12.0924 7.75201 13.0137 7.97296C13.5446 8.10018 14.0603 8.28389 14.5784 8.45885C14.812 8.53784 15.0439 8.61507 15.2848 8.66631C15.4051 8.69373 15.5232 8.72906 15.6383 8.77203C15.721 8.80128 15.7778 8.86251 15.771 8.95149C15.7514 9.20693 15.8432 9.47113 15.7074 9.71757C15.3811 9.76631 15.0378 9.81305 14.7328 9.70458C14.2955 9.54911 13.8384 9.45638 13.4075 9.28342C13.1301 9.17219 12.8394 9.08921 12.5513 9.00448C12.2499 8.91625 11.944 8.84102 11.6403 8.76029C10.646 8.4966 9.68205 8.15392 8.72021 7.8035C8.66946 7.78405 8.61689 7.76923 8.56321 7.75926C8.55275 7.75751 8.5203 7.79875 8.5237 7.81525C8.53825 7.87846 8.55749 7.94061 8.58127 8.00121C8.9031 8.85627 9.36623 9.64909 9.78488 10.4602C10.1015 11.0715 10.4427 11.6716 10.764 12.281C10.9799 12.6909 11.1826 13.1076 11.3865 13.523C11.5497 13.8546 11.7004 14.1918 11.8692 14.5215C11.9431 14.6624 11.9784 14.8189 11.972 14.9764C11.965 15.1598 11.9697 15.3441 11.9663 15.5278C11.9647 15.6217 11.9072 15.6722 11.8111 15.674C11.6052 15.6777 11.3985 15.684 11.1928 15.6762C10.9312 15.6665 10.7347 15.5115 10.7326 15.2643C10.7305 15.0011 10.6222 14.7822 10.5178 14.5545C10.0816 13.6047 9.54965 12.7001 9.06899 11.7706C8.69273 11.0405 8.31019 10.3127 7.9321 9.58435C7.90254 9.52761 7.88736 9.45938 7.80128 9.43039C7.69452 9.67008 7.66888 9.92878 7.62074 10.1802C7.54643 10.5666 7.50168 10.958 7.44595 11.3475C7.37714 11.8278 7.31905 12.3097 7.2382 12.7884C7.20345 12.9955 7.18595 13.205 7.18587 13.4147C7.18587 13.7299 7.18587 14.0451 7.18587 14.3603C7.1877 14.7164 7.10973 15.0621 7.03254 15.4073C6.99748 15.564 6.9666 15.5858 6.81484 15.5895C6.60866 15.5945 6.40247 15.5947 6.19629 15.5895C6.05003 15.5853 5.98304 15.5325 5.97755 15.4068C5.96813 15.1841 5.97127 14.9606 5.97284 14.7374C5.97119 14.6981 5.98175 14.6591 6.00319 14.6255C6.21487 14.3533 6.18635 14.0301 6.21251 13.7212C6.22577 13.5376 6.22647 13.3534 6.21461 13.1698C6.18138 12.4967 6.30331 11.8368 6.39646 11.1745C6.46763 10.6681 6.55345 10.1635 6.61258 9.65584C6.63352 9.47613 6.71986 9.30192 6.68637 9.11646C6.57543 9.10296 6.52571 9.17569 6.46998 9.22868C5.82736 9.83954 5.16825 10.4352 4.60543 11.119C4.44478 11.3142 4.25299 11.4872 4.06774 11.6626C3.80399 11.9126 3.54914 12.1698 3.3351 12.461C3.15004 12.7058 2.94195 12.9341 2.71341 13.1428C2.59541 13.2538 2.46903 13.369 2.42141 13.5177C2.37666 13.6587 2.30576 13.7059 2.16132 13.7019C1.91406 13.6947 1.66628 13.6997 1.41901 13.6962C1.32429 13.6962 1.26542 13.6484 1.25914 13.5532C1.25652 13.514 1.25496 13.4745 1.25522 13.435C1.25757 13.2383 1.23742 13.0378 1.26987 12.8456C1.30231 12.6534 1.49724 12.5559 1.62545 12.424C2.27959 11.7511 2.82514 10.9878 3.5371 10.3637C3.68755 10.2317 3.80425 10.0637 3.93822 9.91503C4.53646 9.24619 5.18471 8.61968 5.87786 8.04045C5.90927 8.01504 5.93645 7.9852 5.95845 7.95197C5.96839 7.93622 5.96002 7.90723 5.95321 7.88623C5.9506 7.87824 5.92914 7.87099 5.91684 7.87174C5.86205 7.87398 5.80749 7.87991 5.75357 7.88948C5.09682 8.0257 4.44111 8.16592 3.7841 8.30014C2.86596 8.48785 2.00119 8.82202 1.14768 9.18344C1.01685 9.23868 0.897536 9.27892 0.758074 9.27617C0.552152 9.27192 0.345969 9.27217 0.140047 9.26617C0.122649 9.26671 0.105313 9.26392 0.0890578 9.25797C0.0728022 9.25202 0.0579533 9.24304 0.0453796 9.23154C0.0328058 9.22004 0.0227596 9.20626 0.0158317 9.19101C0.00890372 9.17575 0.00523263 9.15933 0.0050327 9.1427C-0.00203196 8.91975 0.000582916 8.69655 5.96079e-05 8.47335C5.96079e-05 8.38362 0.0510823 8.32564 0.134288 8.29464C0.990944 7.97672 1.83138 7.61055 2.73225 7.41834C3.80294 7.18989 4.87991 6.98794 5.954 6.77398C5.99037 6.76449 6.02726 6.75024 6.07881 6.73499Z" fill="#029C54"/>
</svg>
